  0
SECTION
  2
BLOCKS
  0
ENDSEC
  0
SECTION
  2
ENTITIES
  0
LINE
  8
0
 10
-3.8049
 20
7.01921
 11
-3.61731
 21
7.07611
  0
LINE
  8
0
 10
-3.61731
 20
7.07611
 11
-3.44443
 21
7.16852
  0
LINE
  8
0
 10
-3.44443
 20
7.16852
 11
-3.29289
 21
7.29289
  0
LINE
  8
0
 10
-3.29289
 20
7.29289
 11
-3.16852
 21
7.44443
  0
LINE
  8
0
 10
-3.16852
 20
7.44443
 11
-3.07611
 21
7.61731
  0
LINE
  8
0
 10
-3.07611
 20
7.61731
 11
-3.01921
 21
7.8049
  0
LINE
  8
0
 10
-3.01921
 20
7.8049
 11
-3
 21
8
  0
LINE
  8
0
 10
-3
 20
8
 11
-3.01921
 21
8.19508
  0
LINE
  8
0
 10
-3.01921
 20
8.19508
 11
-3.07611
 21
8.38268
  0
LINE
  8
0
 10
-3.07611
 20
8.38268
 11
-3.16852
 21
8.55556
  0
LINE
  8
0
 10
-3.16852
 20
8.55556
 11
-3.29289
 21
8.70709
  0
LINE
  8
0
 10
-3.29289
 20
8.70709
 11
-3.44443
 21
8.83147
  0
LINE
  8
0
 10
-3.44443
 20
8.83147
 11
-3.61731
 21
8.92387
  0
LINE
  8
0
 10
-3.61731
 20
8.92387
 11
-3.8049
 21
8.98077
  0
LINE
  8
0
 10
-3.8049
 20
8.98077
 11
-4
 21
9
  0
LINE
  8
0
 10
-4
 20
9
 11
-4.19508
 21
8.98077
  0
LINE
  8
0
 10
-4.19508
 20
8.98077
 11
-4.38268
 21
8.92387
  0
LINE
  8
0
 10
-4.38268
 20
8.92387
 11
-4.55556
 21
8.83147
  0
LINE
  8
0
 10
-4.55556
 20
8.83147
 11
-4.70709
 21
8.70709
  0
LINE
  8
0
 10
-4.70709
 20
8.70709
 11
-4.83147
 21
8.55556
  0
LINE
  8
0
 10
-4.83147
 20
8.55556
 11
-4.92387
 21
8.38268
  0
LINE
  8
0
 10
-4.92387
 20
8.38268
 11
-4.98077
 21
8.19508
  0
LINE
  8
0
 10
-4.98077
 20
8.19508
 11
-5
 21
8
  0
LINE
  8
0
 10
-5
 20
8
 11
-4.98077
 21
7.8049
  0
LINE
  8
0
 10
-4.98077
 20
7.8049
 11
-4.92387
 21
7.61731
  0
LINE
  8
0
 10
-4.92387
 20
7.61731
 11
-4.83147
 21
7.44443
  0
LINE
  8
0
 10
-4.83147
 20
7.44443
 11
-4.70709
 21
7.29289
  0
LINE
  8
0
 10
-4.70709
 20
7.29289
 11
-4.55556
 21
7.16852
  0
LINE
  8
0
 10
-4.55556
 20
7.16852
 11
-4.38268
 21
7.07611
  0
LINE
  8
0
 10
-4.38268
 20
7.07611
 11
-4.19508
 21
7.01921
  0
LINE
  8
0
 10
-4.19508
 20
7.01921
 11
-4
 21
7
  0
LINE
  8
0
 10
-4
 20
7
 11
-3.8049
 21
7.01921
  0
LINE
  8
0
 10
4.19508
 20
7.01921
 11
4.38268
 21
7.07611
  0
LINE
  8
0
 10
4.38268
 20
7.07611
 11
4.55556
 21
7.16852
  0
LINE
  8
0
 10
4.55556
 20
7.16852
 11
4.70709
 21
7.29289
  0
LINE
  8
0
 10
4.70709
 20
7.29289
 11
4.83147
 21
7.44443
  0
LINE
  8
0
 10
4.83147
 20
7.44443
 11
4.92387
 21
7.61731
  0
LINE
  8
0
 10
4.92387
 20
7.61731
 11
4.98077
 21
7.8049
  0
LINE
  8
0
 10
4.98077
 20
7.8049
 11
5
 21
8
  0
LINE
  8
0
 10
5
 20
8
 11
4.98077
 21
8.19508
  0
LINE
  8
0
 10
4.98077
 20
8.19508
 11
4.92387
 21
8.38268
  0
LINE
  8
0
 10
4.92387
 20
8.38268
 11
4.83147
 21
8.55556
  0
LINE
  8
0
 10
4.83147
 20
8.55556
 11
4.70709
 21
8.70709
  0
LINE
  8
0
 10
4.70709
 20
8.70709
 11
4.55556
 21
8.83147
  0
LINE
  8
0
 10
4.55556
 20
8.83147
 11
4.38268
 21
8.92387
  0
LINE
  8
0
 10
4.38268
 20
8.92387
 11
4.19508
 21
8.98077
  0
LINE
  8
0
 10
4.19508
 20
8.98077
 11
4
 21
9
  0
LINE
  8
0
 10
4
 20
9
 11
3.8049
 21
8.98077
  0
LINE
  8
0
 10
3.8049
 20
8.98077
 11
3.61731
 21
8.92387
  0
LINE
  8
0
 10
3.61731
 20
8.92387
 11
3.44443
 21
8.83147
  0
LINE
  8
0
 10
3.44443
 20
8.83147
 11
3.29289
 21
8.70709
  0
LINE
  8
0
 10
3.29289
 20
8.70709
 11
3.16852
 21
8.55556
  0
LINE
  8
0
 10
3.16852
 20
8.55556
 11
3.07611
 21
8.38268
  0
LINE
  8
0
 10
3.07611
 20
8.38268
 11
3.01921
 21
8.19508
  0
LINE
  8
0
 10
3.01921
 20
8.19508
 11
3
 21
8
  0
LINE
  8
0
 10
3
 20
8
 11
3.01921
 21
7.8049
  0
LINE
  8
0
 10
3.01921
 20
7.8049
 11
3.07611
 21
7.61731
  0
LINE
  8
0
 10
3.07611
 20
7.61731
 11
3.16852
 21
7.44443
  0
LINE
  8
0
 10
3.16852
 20
7.44443
 11
3.29289
 21
7.29289
  0
LINE
  8
0
 10
3.29289
 20
7.29289
 11
3.44443
 21
7.16852
  0
LINE
  8
0
 10
3.44443
 20
7.16852
 11
3.61731
 21
7.07611
  0
LINE
  8
0
 10
3.61731
 20
7.07611
 11
3.8049
 21
7.01921
  0
LINE
  8
0
 10
3.8049
 20
7.01921
 11
4
 21
7
  0
LINE
  8
0
 10
4
 20
7
 11
4.19508
 21
7.01921
  0
LINE
  8
0
 10
4.24263
 20
-4.24263
 11
6
 21
0
  0
LINE
  8
0
 10
6
 20
0
 11
4.24263
 21
4.24263
  0
LINE
  8
0
 10
4.24263
 20
4.24263
 11
0
 21
6
  0
LINE
  8
0
 10
0
 20
6
 11
-4.24263
 21
4.24263
  0
LINE
  8
0
 10
-4.24263
 20
4.24263
 11
-6
 21
0
  0
LINE
  8
0
 10
-6
 20
0
 11
-4.24263
 21
-4.24263
  0
LINE
  8
0
 10
-4.24263
 20
-4.24263
 11
0
 21
-6
  0
LINE
  8
0
 10
0
 20
-6
 11
4.24263
 21
-4.24263
  0
LINE
  8
0
 10
8.19508
 20
3.01921
 11
8.38268
 21
3.07611
  0
LINE
  8
0
 10
8.38268
 20
3.07611
 11
8.55556
 21
3.16852
  0
LINE
  8
0
 10
8.55556
 20
3.16852
 11
8.70709
 21
3.29289
  0
LINE
  8
0
 10
8.70709
 20
3.29289
 11
8.83147
 21
3.44443
  0
LINE
  8
0
 10
8.83147
 20
3.44443
 11
8.92387
 21
3.61731
  0
LINE
  8
0
 10
8.92387
 20
3.61731
 11
8.98077
 21
3.8049
  0
LINE
  8
0
 10
8.98077
 20
3.8049
 11
9
 21
4
  0
LINE
  8
0
 10
9
 20
4
 11
8.98077
 21
4.19508
  0
LINE
  8
0
 10
8.98077
 20
4.19508
 11
8.92387
 21
4.38268
  0
LINE
  8
0
 10
8.92387
 20
4.38268
 11
8.83147
 21
4.55556
  0
LINE
  8
0
 10
8.83147
 20
4.55556
 11
8.70709
 21
4.70709
  0
LINE
  8
0
 10
8.70709
 20
4.70709
 11
8.55556
 21
4.83147
  0
LINE
  8
0
 10
8.55556
 20
4.83147
 11
8.38268
 21
4.92387
  0
LINE
  8
0
 10
8.38268
 20
4.92387
 11
8.19508
 21
4.98077
  0
LINE
  8
0
 10
8.19508
 20
4.98077
 11
8
 21
5
  0
LINE
  8
0
 10
8
 20
5
 11
7.8049
 21
4.98077
  0
LINE
  8
0
 10
7.8049
 20
4.98077
 11
7.61731
 21
4.92387
  0
LINE
  8
0
 10
7.61731
 20
4.92387
 11
7.44443
 21
4.83147
  0
LINE
  8
0
 10
7.44443
 20
4.83147
 11
7.29289
 21
4.70709
  0
LINE
  8
0
 10
7.29289
 20
4.70709
 11
7.16852
 21
4.55556
  0
LINE
  8
0
 10
7.16852
 20
4.55556
 11
7.07611
 21
4.38268
  0
LINE
  8
0
 10
7.07611
 20
4.38268
 11
7.01921
 21
4.19508
  0
LINE
  8
0
 10
7.01921
 20
4.19508
 11
7
 21
4
  0
LINE
  8
0
 10
7
 20
4
 11
7.01921
 21
3.8049
  0
LINE
  8
0
 10
7.01921
 20
3.8049
 11
7.07611
 21
3.61731
  0
LINE
  8
0
 10
7.07611
 20
3.61731
 11
7.16852
 21
3.44443
  0
LINE
  8
0
 10
7.16852
 20
3.44443
 11
7.29289
 21
3.29289
  0
LINE
  8
0
 10
7.29289
 20
3.29289
 11
7.44443
 21
3.16852
  0
LINE
  8
0
 10
7.44443
 20
3.16852
 11
7.61731
 21
3.07611
  0
LINE
  8
0
 10
7.61731
 20
3.07611
 11
7.8049
 21
3.01921
  0
LINE
  8
0
 10
7.8049
 20
3.01921
 11
8
 21
3
  0
LINE
  8
0
 10
8
 20
3
 11
8.19508
 21
3.01921
  0
LINE
  8
0
 10
-7.8049
 20
3.01921
 11
-7.61731
 21
3.07611
  0
LINE
  8
0
 10
-7.61731
 20
3.07611
 11
-7.44443
 21
3.16852
  0
LINE
  8
0
 10
-7.44443
 20
3.16852
 11
-7.29289
 21
3.29289
  0
LINE
  8
0
 10
-7.29289
 20
3.29289
 11
-7.16852
 21
3.44443
  0
LINE
  8
0
 10
-7.16852
 20
3.44443
 11
-7.07611
 21
3.61731
  0
LINE
  8
0
 10
-7.07611
 20
3.61731
 11
-7.01921
 21
3.8049
  0
LINE
  8
0
 10
-7.01921
 20
3.8049
 11
-7
 21
4
  0
LINE
  8
0
 10
-7
 20
4
 11
-7.01921
 21
4.19508
  0
LINE
  8
0
 10
-7.01921
 20
4.19508
 11
-7.07611
 21
4.38268
  0
LINE
  8
0
 10
-7.07611
 20
4.38268
 11
-7.16852
 21
4.55556
  0
LINE
  8
0
 10
-7.16852
 20
4.55556
 11
-7.29289
 21
4.70709
  0
LINE
  8
0
 10
-7.29289
 20
4.70709
 11
-7.44443
 21
4.83147
  0
LINE
  8
0
 10
-7.44443
 20
4.83147
 11
-7.61731
 21
4.92387
  0
LINE
  8
0
 10
-7.61731
 20
4.92387
 11
-7.8049
 21
4.98077
  0
LINE
  8
0
 10
-7.8049
 20
4.98077
 11
-8
 21
5
  0
LINE
  8
0
 10
-8
 20
5
 11
-8.19508
 21
4.98077
  0
LINE
  8
0
 10
-8.19508
 20
4.98077
 11
-8.38268
 21
4.92387
  0
LINE
  8
0
 10
-8.38268
 20
4.92387
 11
-8.55556
 21
4.83147
  0
LINE
  8
0
 10
-8.55556
 20
4.83147
 11
-8.70709
 21
4.70709
  0
LINE
  8
0
 10
-8.70709
 20
4.70709
 11
-8.83147
 21
4.55556
  0
LINE
  8
0
 10
-8.83147
 20
4.55556
 11
-8.92387
 21
4.38268
  0
LINE
  8
0
 10
-8.92387
 20
4.38268
 11
-8.98077
 21
4.19508
  0
LINE
  8
0
 10
-8.98077
 20
4.19508
 11
-9
 21
4
  0
LINE
  8
0
 10
-9
 20
4
 11
-8.98077
 21
3.8049
  0
LINE
  8
0
 10
-8.98077
 20
3.8049
 11
-8.92387
 21
3.61731
  0
LINE
  8
0
 10
-8.92387
 20
3.61731
 11
-8.83147
 21
3.44443
  0
LINE
  8
0
 10
-8.83147
 20
3.44443
 11
-8.70709
 21
3.29289
  0
LINE
  8
0
 10
-8.70709
 20
3.29289
 11
-8.55556
 21
3.16852
  0
LINE
  8
0
 10
-8.55556
 20
3.16852
 11
-8.38268
 21
3.07611
  0
LINE
  8
0
 10
-8.38268
 20
3.07611
 11
-8.19508
 21
3.01921
  0
LINE
  8
0
 10
-8.19508
 20
3.01921
 11
-8
 21
3
  0
LINE
  8
0
 10
-8
 20
3
 11
-7.8049
 21
3.01921
  0
LINE
  8
0
 10
-7.8049
 20
-4.98077
 11
-7.61731
 21
-4.92387
  0
LINE
  8
0
 10
-7.61731
 20
-4.92387
 11
-7.44443
 21
-4.83147
  0
LINE
  8
0
 10
-7.44443
 20
-4.83147
 11
-7.29289
 21
-4.70709
  0
LINE
  8
0
 10
-7.29289
 20
-4.70709
 11
-7.16852
 21
-4.55556
  0
LINE
  8
0
 10
-7.16852
 20
-4.55556
 11
-7.07611
 21
-4.38268
  0
LINE
  8
0
 10
-7.07611
 20
-4.38268
 11
-7.01921
 21
-4.19508
  0
LINE
  8
0
 10
-7.01921
 20
-4.19508
 11
-7
 21
-4
  0
LINE
  8
0
 10
-7
 20
-4
 11
-7.01921
 21
-3.8049
  0
LINE
  8
0
 10
-7.01921
 20
-3.8049
 11
-7.07611
 21
-3.61731
  0
LINE
  8
0
 10
-7.07611
 20
-3.61731
 11
-7.16852
 21
-3.44443
  0
LINE
  8
0
 10
-7.16852
 20
-3.44443
 11
-7.29289
 21
-3.29289
  0
LINE
  8
0
 10
-7.29289
 20
-3.29289
 11
-7.44443
 21
-3.16852
  0
LINE
  8
0
 10
-7.44443
 20
-3.16852
 11
-7.61731
 21
-3.07611
  0
LINE
  8
0
 10
-7.61731
 20
-3.07611
 11
-7.8049
 21
-3.01921
  0
LINE
  8
0
 10
-7.8049
 20
-3.01921
 11
-8
 21
-3
  0
LINE
  8
0
 10
-8
 20
-3
 11
-8.19508
 21
-3.01921
  0
LINE
  8
0
 10
-8.19508
 20
-3.01921
 11
-8.38268
 21
-3.07611
  0
LINE
  8
0
 10
-8.38268
 20
-3.07611
 11
-8.55556
 21
-3.16852
  0
LINE
  8
0
 10
-8.55556
 20
-3.16852
 11
-8.70709
 21
-3.29289
  0
LINE
  8
0
 10
-8.70709
 20
-3.29289
 11
-8.83147
 21
-3.44443
  0
LINE
  8
0
 10
-8.83147
 20
-3.44443
 11
-8.92387
 21
-3.61731
  0
LINE
  8
0
 10
-8.92387
 20
-3.61731
 11
-8.98077
 21
-3.8049
  0
LINE
  8
0
 10
-8.98077
 20
-3.8049
 11
-9
 21
-4
  0
LINE
  8
0
 10
-9
 20
-4
 11
-8.98077
 21
-4.19508
  0
LINE
  8
0
 10
-8.98077
 20
-4.19508
 11
-8.92387
 21
-4.38268
  0
LINE
  8
0
 10
-8.92387
 20
-4.38268
 11
-8.83147
 21
-4.55556
  0
LINE
  8
0
 10
-8.83147
 20
-4.55556
 11
-8.70709
 21
-4.70709
  0
LINE
  8
0
 10
-8.70709
 20
-4.70709
 11
-8.55556
 21
-4.83147
  0
LINE
  8
0
 10
-8.55556
 20
-4.83147
 11
-8.38268
 21
-4.92387
  0
LINE
  8
0
 10
-8.38268
 20
-4.92387
 11
-8.19508
 21
-4.98077
  0
LINE
  8
0
 10
-8.19508
 20
-4.98077
 11
-8
 21
-5
  0
LINE
  8
0
 10
-8
 20
-5
 11
-7.8049
 21
-4.98077
  0
LINE
  8
0
 10
8.19508
 20
-4.98077
 11
8.38268
 21
-4.92387
  0
LINE
  8
0
 10
8.38268
 20
-4.92387
 11
8.55556
 21
-4.83147
  0
LINE
  8
0
 10
8.55556
 20
-4.83147
 11
8.70709
 21
-4.70709
  0
LINE
  8
0
 10
8.70709
 20
-4.70709
 11
8.83147
 21
-4.55556
  0
LINE
  8
0
 10
8.83147
 20
-4.55556
 11
8.92387
 21
-4.38268
  0
LINE
  8
0
 10
8.92387
 20
-4.38268
 11
8.98077
 21
-4.19508
  0
LINE
  8
0
 10
8.98077
 20
-4.19508
 11
9
 21
-4
  0
LINE
  8
0
 10
9
 20
-4
 11
8.98077
 21
-3.8049
  0
LINE
  8
0
 10
8.98077
 20
-3.8049
 11
8.92387
 21
-3.61731
  0
LINE
  8
0
 10
8.92387
 20
-3.61731
 11
8.83147
 21
-3.44443
  0
LINE
  8
0
 10
8.83147
 20
-3.44443
 11
8.70709
 21
-3.29289
  0
LINE
  8
0
 10
8.70709
 20
-3.29289
 11
8.55556
 21
-3.16852
  0
LINE
  8
0
 10
8.55556
 20
-3.16852
 11
8.38268
 21
-3.07611
  0
LINE
  8
0
 10
8.38268
 20
-3.07611
 11
8.19508
 21
-3.01921
  0
LINE
  8
0
 10
8.19508
 20
-3.01921
 11
8
 21
-3
  0
LINE
  8
0
 10
8
 20
-3
 11
7.8049
 21
-3.01921
  0
LINE
  8
0
 10
7.8049
 20
-3.01921
 11
7.61731
 21
-3.07611
  0
LINE
  8
0
 10
7.61731
 20
-3.07611
 11
7.44443
 21
-3.16852
  0
LINE
  8
0
 10
7.44443
 20
-3.16852
 11
7.29289
 21
-3.29289
  0
LINE
  8
0
 10
7.29289
 20
-3.29289
 11
7.16852
 21
-3.44443
  0
LINE
  8
0
 10
7.16852
 20
-3.44443
 11
7.07611
 21
-3.61731
  0
LINE
  8
0
 10
7.07611
 20
-3.61731
 11
7.01921
 21
-3.8049
  0
LINE
  8
0
 10
7.01921
 20
-3.8049
 11
7
 21
-4
  0
LINE
  8
0
 10
7
 20
-4
 11
7.01921
 21
-4.19508
  0
LINE
  8
0
 10
7.01921
 20
-4.19508
 11
7.07611
 21
-4.38268
  0
LINE
  8
0
 10
7.07611
 20
-4.38268
 11
7.16852
 21
-4.55556
  0
LINE
  8
0
 10
7.16852
 20
-4.55556
 11
7.29289
 21
-4.70709
  0
LINE
  8
0
 10
7.29289
 20
-4.70709
 11
7.44443
 21
-4.83147
  0
LINE
  8
0
 10
7.44443
 20
-4.83147
 11
7.61731
 21
-4.92387
  0
LINE
  8
0
 10
7.61731
 20
-4.92387
 11
7.8049
 21
-4.98077
  0
LINE
  8
0
 10
7.8049
 20
-4.98077
 11
8
 21
-5
  0
LINE
  8
0
 10
8
 20
-5
 11
8.19508
 21
-4.98077
  0
LINE
  8
0
 10
4.19508
 20
-8.98077
 11
4.38268
 21
-8.92387
  0
LINE
  8
0
 10
4.38268
 20
-8.92387
 11
4.55556
 21
-8.83147
  0
LINE
  8
0
 10
4.55556
 20
-8.83147
 11
4.70709
 21
-8.70709
  0
LINE
  8
0
 10
4.70709
 20
-8.70709
 11
4.83147
 21
-8.55556
  0
LINE
  8
0
 10
4.83147
 20
-8.55556
 11
4.92387
 21
-8.38268
  0
LINE
  8
0
 10
4.92387
 20
-8.38268
 11
4.98077
 21
-8.19508
  0
LINE
  8
0
 10
4.98077
 20
-8.19508
 11
5
 21
-8
  0
LINE
  8
0
 10
5
 20
-8
 11
4.98077
 21
-7.8049
  0
LINE
  8
0
 10
4.98077
 20
-7.8049
 11
4.92387
 21
-7.61731
  0
LINE
  8
0
 10
4.92387
 20
-7.61731
 11
4.83147
 21
-7.44443
  0
LINE
  8
0
 10
4.83147
 20
-7.44443
 11
4.70709
 21
-7.29289
  0
LINE
  8
0
 10
4.70709
 20
-7.29289
 11
4.55556
 21
-7.16852
  0
LINE
  8
0
 10
4.55556
 20
-7.16852
 11
4.38268
 21
-7.07611
  0
LINE
  8
0
 10
4.38268
 20
-7.07611
 11
4.19508
 21
-7.01921
  0
LINE
  8
0
 10
4.19508
 20
-7.01921
 11
4
 21
-7
  0
LINE
  8
0
 10
4
 20
-7
 11
3.8049
 21
-7.01921
  0
LINE
  8
0
 10
3.8049
 20
-7.01921
 11
3.61731
 21
-7.07611
  0
LINE
  8
0
 10
3.61731
 20
-7.07611
 11
3.44443
 21
-7.16852
  0
LINE
  8
0
 10
3.44443
 20
-7.16852
 11
3.29289
 21
-7.29289
  0
LINE
  8
0
 10
3.29289
 20
-7.29289
 11
3.16852
 21
-7.44443
  0
LINE
  8
0
 10
3.16852
 20
-7.44443
 11
3.07611
 21
-7.61731
  0
LINE
  8
0
 10
3.07611
 20
-7.61731
 11
3.01921
 21
-7.8049
  0
LINE
  8
0
 10
3.01921
 20
-7.8049
 11
3
 21
-8
  0
LINE
  8
0
 10
3
 20
-8
 11
3.01921
 21
-8.19508
  0
LINE
  8
0
 10
3.01921
 20
-8.19508
 11
3.07611
 21
-8.38268
  0
LINE
  8
0
 10
3.07611
 20
-8.38268
 11
3.16852
 21
-8.55556
  0
LINE
  8
0
 10
3.16852
 20
-8.55556
 11
3.29289
 21
-8.70709
  0
LINE
  8
0
 10
3.29289
 20
-8.70709
 11
3.44443
 21
-8.83147
  0
LINE
  8
0
 10
3.44443
 20
-8.83147
 11
3.61731
 21
-8.92387
  0
LINE
  8
0
 10
3.61731
 20
-8.92387
 11
3.8049
 21
-8.98077
  0
LINE
  8
0
 10
3.8049
 20
-8.98077
 11
4
 21
-9
  0
LINE
  8
0
 10
4
 20
-9
 11
4.19508
 21
-8.98077
  0
LINE
  8
0
 10
-3.8049
 20
-8.98077
 11
-3.61731
 21
-8.92387
  0
LINE
  8
0
 10
-3.61731
 20
-8.92387
 11
-3.44443
 21
-8.83147
  0
LINE
  8
0
 10
-3.44443
 20
-8.83147
 11
-3.29289
 21
-8.70709
  0
LINE
  8
0
 10
-3.29289
 20
-8.70709
 11
-3.16852
 21
-8.55556
  0
LINE
  8
0
 10
-3.16852
 20
-8.55556
 11
-3.07611
 21
-8.38268
  0
LINE
  8
0
 10
-3.07611
 20
-8.38268
 11
-3.01921
 21
-8.19508
  0
LINE
  8
0
 10
-3.01921
 20
-8.19508
 11
-3
 21
-8
  0
LINE
  8
0
 10
-3
 20
-8
 11
-3.01921
 21
-7.8049
  0
LINE
  8
0
 10
-3.01921
 20
-7.8049
 11
-3.07611
 21
-7.61731
  0
LINE
  8
0
 10
-3.07611
 20
-7.61731
 11
-3.16852
 21
-7.44443
  0
LINE
  8
0
 10
-3.16852
 20
-7.44443
 11
-3.29289
 21
-7.29289
  0
LINE
  8
0
 10
-3.29289
 20
-7.29289
 11
-3.44443
 21
-7.16852
  0
LINE
  8
0
 10
-3.44443
 20
-7.16852
 11
-3.61731
 21
-7.07611
  0
LINE
  8
0
 10
-3.61731
 20
-7.07611
 11
-3.8049
 21
-7.01921
  0
LINE
  8
0
 10
-3.8049
 20
-7.01921
 11
-4
 21
-7
  0
LINE
  8
0
 10
-4
 20
-7
 11
-4.19508
 21
-7.01921
  0
LINE
  8
0
 10
-4.19508
 20
-7.01921
 11
-4.38268
 21
-7.07611
  0
LINE
  8
0
 10
-4.38268
 20
-7.07611
 11
-4.55556
 21
-7.16852
  0
LINE
  8
0
 10
-4.55556
 20
-7.16852
 11
-4.70709
 21
-7.29289
  0
LINE
  8
0
 10
-4.70709
 20
-7.29289
 11
-4.83147
 21
-7.44443
  0
LINE
  8
0
 10
-4.83147
 20
-7.44443
 11
-4.92387
 21
-7.61731
  0
LINE
  8
0
 10
-4.92387
 20
-7.61731
 11
-4.98077
 21
-7.8049
  0
LINE
  8
0
 10
-4.98077
 20
-7.8049
 11
-5
 21
-8
  0
LINE
  8
0
 10
-5
 20
-8
 11
-4.98077
 21
-8.19508
  0
LINE
  8
0
 10
-4.98077
 20
-8.19508
 11
-4.92387
 21
-8.38268
  0
LINE
  8
0
 10
-4.92387
 20
-8.38268
 11
-4.83147
 21
-8.55556
  0
LINE
  8
0
 10
-4.83147
 20
-8.55556
 11
-4.70709
 21
-8.70709
  0
LINE
  8
0
 10
-4.70709
 20
-8.70709
 11
-4.55556
 21
-8.83147
  0
LINE
  8
0
 10
-4.55556
 20
-8.83147
 11
-4.38268
 21
-8.92387
  0
LINE
  8
0
 10
-4.38268
 20
-8.92387
 11
-4.19508
 21
-8.98077
  0
LINE
  8
0
 10
-4.19508
 20
-8.98077
 11
-4
 21
-9
  0
LINE
  8
0
 10
-4
 20
-9
 11
-3.8049
 21
-8.98077
  0
ENDSEC
  0
SECTION
  2
OBJECTS
  0
DICTIONARY
  0
ENDSEC
  0
EOF
