solid OpenSCAD_Model
  facet normal 0.309022 0.951055 -0
    outer loop
      vertex 13.4635 6.57342 -4.5
      vertex 11.7865 7.11832 -2.5
      vertex 13.4635 6.57342 -2.5
    endloop
  endfacet
  facet normal 0.309022 0.951055 0
    outer loop
      vertex 11.7865 7.11832 -2.5
      vertex 13.4635 6.57342 -4.5
      vertex 11.7865 7.11832 -4.5
    endloop
  endfacet
  facet normal 0.309022 -0.951055 0
    outer loop
      vertex 11.7865 8.88168 -4.5
      vertex 13.4635 9.42658 -2.5
      vertex 11.7865 8.88168 -2.5
    endloop
  endfacet
  facet normal 0.309022 -0.951055 0
    outer loop
      vertex 13.4635 9.42658 -2.5
      vertex 11.7865 8.88168 -4.5
      vertex 13.4635 9.42658 -4.5
    endloop
  endfacet
  facet normal -0.809009 -0.587796 0
    outer loop
      vertex 14.5 8 -4.5
      vertex 13.4635 9.42658 -2.5
      vertex 13.4635 9.42658 -4.5
    endloop
  endfacet
  facet normal -0.809009 -0.587796 0
    outer loop
      vertex 13.4635 9.42658 -2.5
      vertex 14.5 8 -4.5
      vertex 14.5 8 -2.5
    endloop
  endfacet
  facet normal 1 -0 0
    outer loop
      vertex 11.7865 7.11832 -2.5
      vertex 11.7865 8.88168 -4.5
      vertex 11.7865 8.88168 -2.5
    endloop
  endfacet
  facet normal 1 0 0
    outer loop
      vertex 11.7865 8.88168 -4.5
      vertex 11.7865 7.11832 -2.5
      vertex 11.7865 7.11832 -4.5
    endloop
  endfacet
  facet normal -0.809009 0.587796 0
    outer loop
      vertex 13.4635 6.57342 -4.5
      vertex 14.5 8 -2.5
      vertex 14.5 8 -4.5
    endloop
  endfacet
  facet normal -0.809009 0.587796 0
    outer loop
      vertex 14.5 8 -2.5
      vertex 13.4635 6.57342 -4.5
      vertex 13.4635 6.57342 -2.5
    endloop
  endfacet
  facet normal -0.499997 0.866027 0
    outer loop
      vertex 15.5981 6.5 -2.5
      vertex 13 5 4.5
      vertex 15.5981 6.5 4.5
    endloop
  endfacet
  facet normal -0.499997 0.866027 0
    outer loop
      vertex 13 5 4.5
      vertex 15.5981 6.5 -2.5
      vertex 13 5 -2.5
    endloop
  endfacet
  facet normal -1 0 0
    outer loop
      vertex 15.5981 6.5 -2.5
      vertex 15.5981 9.5 4.5
      vertex 15.5981 9.5 -2.5
    endloop
  endfacet
  facet normal -1 -0 0
    outer loop
      vertex 15.5981 9.5 4.5
      vertex 15.5981 6.5 -2.5
      vertex 15.5981 6.5 4.5
    endloop
  endfacet
  facet normal 0.499997 -0.866027 0
    outer loop
      vertex 10.4019 9.5 -2.5
      vertex 13 11 4.5
      vertex 10.4019 9.5 4.5
    endloop
  endfacet
  facet normal 0.499997 -0.866027 0
    outer loop
      vertex 13 11 4.5
      vertex 10.4019 9.5 -2.5
      vertex 13 11 -2.5
    endloop
  endfacet
  facet normal -0.499997 -0.866027 0
    outer loop
      vertex 13 11 -2.5
      vertex 15.5981 9.5 4.5
      vertex 13 11 4.5
    endloop
  endfacet
  facet normal -0.499997 -0.866027 -0
    outer loop
      vertex 15.5981 9.5 4.5
      vertex 13 11 -2.5
      vertex 15.5981 9.5 -2.5
    endloop
  endfacet
  facet normal 1 -0 0
    outer loop
      vertex 10.4019 6.5 4.5
      vertex 10.4019 9.5 -2.5
      vertex 10.4019 9.5 4.5
    endloop
  endfacet
  facet normal 1 0 0
    outer loop
      vertex 10.4019 9.5 -2.5
      vertex 10.4019 6.5 4.5
      vertex 10.4019 6.5 -2.5
    endloop
  endfacet
  facet normal 0.499997 0.866027 -0
    outer loop
      vertex 13 5 -2.5
      vertex 10.4019 6.5 4.5
      vertex 13 5 4.5
    endloop
  endfacet
  facet normal 0.499997 0.866027 0
    outer loop
      vertex 10.4019 6.5 4.5
      vertex 13 5 -2.5
      vertex 10.4019 6.5 -2.5
    endloop
  endfacet
  facet normal 0 0 1
    outer loop
      vertex 15.5981 9.5 -2.5
      vertex 14.5 8 -2.5
      vertex 15.5981 6.5 -2.5
    endloop
  endfacet
  facet normal 0 0 1
    outer loop
      vertex 15.5981 9.5 -2.5
      vertex 13.4635 9.42658 -2.5
      vertex 14.5 8 -2.5
    endloop
  endfacet
  facet normal 0 0 1
    outer loop
      vertex 13 11 -2.5
      vertex 13.4635 9.42658 -2.5
      vertex 15.5981 9.5 -2.5
    endloop
  endfacet
  facet normal 0 0 1
    outer loop
      vertex 13 11 -2.5
      vertex 11.7865 8.88168 -2.5
      vertex 13.4635 9.42658 -2.5
    endloop
  endfacet
  facet normal 0 0 1
    outer loop
      vertex 11.7865 8.88168 -2.5
      vertex 10.4019 9.5 -2.5
      vertex 11.7865 7.11832 -2.5
    endloop
  endfacet
  facet normal -0 0 1
    outer loop
      vertex 10.4019 9.5 -2.5
      vertex 11.7865 8.88168 -2.5
      vertex 13 11 -2.5
    endloop
  endfacet
  facet normal -0 0 1
    outer loop
      vertex 13.4635 6.57342 -2.5
      vertex 15.5981 6.5 -2.5
      vertex 14.5 8 -2.5
    endloop
  endfacet
  facet normal 0 0 1
    outer loop
      vertex 13.4635 6.57342 -2.5
      vertex 13 5 -2.5
      vertex 15.5981 6.5 -2.5
    endloop
  endfacet
  facet normal 0 0 1
    outer loop
      vertex 11.7865 7.11832 -2.5
      vertex 13 5 -2.5
      vertex 13.4635 6.57342 -2.5
    endloop
  endfacet
  facet normal 0 0 1
    outer loop
      vertex 10.4019 6.5 -2.5
      vertex 11.7865 7.11832 -2.5
      vertex 10.4019 9.5 -2.5
    endloop
  endfacet
  facet normal 0 0 1
    outer loop
      vertex 11.7865 7.11832 -2.5
      vertex 10.4019 6.5 -2.5
      vertex 13 5 -2.5
    endloop
  endfacet
  facet normal -0.951055 0.309022 0
    outer loop
      vertex -7.11832 11.7865 -4.5
      vertex -6.57342 13.4635 -2.5
      vertex -6.57342 13.4635 -4.5
    endloop
  endfacet
  facet normal -0.951055 0.309022 0
    outer loop
      vertex -6.57342 13.4635 -2.5
      vertex -7.11832 11.7865 -4.5
      vertex -7.11832 11.7865 -2.5
    endloop
  endfacet
  facet normal 0.951055 0.309022 0
    outer loop
      vertex -8.88168 11.7865 -2.5
      vertex -9.42658 13.4635 -4.5
      vertex -9.42658 13.4635 -2.5
    endloop
  endfacet
  facet normal 0.951055 0.309022 0
    outer loop
      vertex -9.42658 13.4635 -4.5
      vertex -8.88168 11.7865 -2.5
      vertex -8.88168 11.7865 -4.5
    endloop
  endfacet
  facet normal 0.587796 -0.809009 0
    outer loop
      vertex -9.42658 13.4635 -4.5
      vertex -8 14.5 -2.5
      vertex -9.42658 13.4635 -2.5
    endloop
  endfacet
  facet normal 0.587796 -0.809009 0
    outer loop
      vertex -8 14.5 -2.5
      vertex -9.42658 13.4635 -4.5
      vertex -8 14.5 -4.5
    endloop
  endfacet
  facet normal 0 1 -0
    outer loop
      vertex -7.11832 11.7865 -4.5
      vertex -8.88168 11.7865 -2.5
      vertex -7.11832 11.7865 -2.5
    endloop
  endfacet
  facet normal 0 1 0
    outer loop
      vertex -8.88168 11.7865 -2.5
      vertex -7.11832 11.7865 -4.5
      vertex -8.88168 11.7865 -4.5
    endloop
  endfacet
  facet normal -0.587796 -0.809009 0
    outer loop
      vertex -8 14.5 -4.5
      vertex -6.57342 13.4635 -2.5
      vertex -8 14.5 -2.5
    endloop
  endfacet
  facet normal -0.587796 -0.809009 -0
    outer loop
      vertex -6.57342 13.4635 -2.5
      vertex -8 14.5 -4.5
      vertex -6.57342 13.4635 -4.5
    endloop
  endfacet
  facet normal -0.866027 -0.499997 0
    outer loop
      vertex -5 13 -2.5
      vertex -6.5 15.5981 4.5
      vertex -6.5 15.5981 -2.5
    endloop
  endfacet
  facet normal -0.866027 -0.499997 0
    outer loop
      vertex -6.5 15.5981 4.5
      vertex -5 13 -2.5
      vertex -5 13 4.5
    endloop
  endfacet
  facet normal 0 -1 0
    outer loop
      vertex -9.5 15.5981 -2.5
      vertex -6.5 15.5981 4.5
      vertex -9.5 15.5981 4.5
    endloop
  endfacet
  facet normal 0 -1 -0
    outer loop
      vertex -6.5 15.5981 4.5
      vertex -9.5 15.5981 -2.5
      vertex -6.5 15.5981 -2.5
    endloop
  endfacet
  facet normal 0.866027 0.499997 0
    outer loop
      vertex -9.5 10.4019 4.5
      vertex -11 13 -2.5
      vertex -11 13 4.5
    endloop
  endfacet
  facet normal 0.866027 0.499997 0
    outer loop
      vertex -11 13 -2.5
      vertex -9.5 10.4019 4.5
      vertex -9.5 10.4019 -2.5
    endloop
  endfacet
  facet normal 0.866027 -0.499997 0
    outer loop
      vertex -11 13 4.5
      vertex -9.5 15.5981 -2.5
      vertex -9.5 15.5981 4.5
    endloop
  endfacet
  facet normal 0.866027 -0.499997 0
    outer loop
      vertex -9.5 15.5981 -2.5
      vertex -11 13 4.5
      vertex -11 13 -2.5
    endloop
  endfacet
  facet normal 0 1 -0
    outer loop
      vertex -6.5 10.4019 -2.5
      vertex -9.5 10.4019 4.5
      vertex -6.5 10.4019 4.5
    endloop
  endfacet
  facet normal 0 1 0
    outer loop
      vertex -9.5 10.4019 4.5
      vertex -6.5 10.4019 -2.5
      vertex -9.5 10.4019 -2.5
    endloop
  endfacet
  facet normal -0.866027 0.499997 0
    outer loop
      vertex -6.5 10.4019 -2.5
      vertex -5 13 4.5
      vertex -5 13 -2.5
    endloop
  endfacet
  facet normal -0.866027 0.499997 0
    outer loop
      vertex -5 13 4.5
      vertex -6.5 10.4019 -2.5
      vertex -6.5 10.4019 4.5
    endloop
  endfacet
  facet normal -0 0 1
    outer loop
      vertex -6.57342 13.4635 -2.5
      vertex -5 13 -2.5
      vertex -6.5 15.5981 -2.5
    endloop
  endfacet
  facet normal 0 0 1
    outer loop
      vertex -7.11832 11.7865 -2.5
      vertex -5 13 -2.5
      vertex -6.57342 13.4635 -2.5
    endloop
  endfacet
  facet normal 0 0 1
    outer loop
      vertex -6.5 15.5981 -2.5
      vertex -8 14.5 -2.5
      vertex -6.57342 13.4635 -2.5
    endloop
  endfacet
  facet normal -0 0 1
    outer loop
      vertex -9.5 15.5981 -2.5
      vertex -8 14.5 -2.5
      vertex -6.5 15.5981 -2.5
    endloop
  endfacet
  facet normal 0 0 1
    outer loop
      vertex -8 14.5 -2.5
      vertex -9.5 15.5981 -2.5
      vertex -9.42658 13.4635 -2.5
    endloop
  endfacet
  facet normal 0 0 1
    outer loop
      vertex -5 13 -2.5
      vertex -7.11832 11.7865 -2.5
      vertex -6.5 10.4019 -2.5
    endloop
  endfacet
  facet normal -0 0 1
    outer loop
      vertex -8.88168 11.7865 -2.5
      vertex -6.5 10.4019 -2.5
      vertex -7.11832 11.7865 -2.5
    endloop
  endfacet
  facet normal 0 0 1
    outer loop
      vertex -8.88168 11.7865 -2.5
      vertex -9.5 10.4019 -2.5
      vertex -6.5 10.4019 -2.5
    endloop
  endfacet
  facet normal -0 0 1
    outer loop
      vertex -11 13 -2.5
      vertex -8.88168 11.7865 -2.5
      vertex -9.42658 13.4635 -2.5
    endloop
  endfacet
  facet normal 0 0 1
    outer loop
      vertex -11 13 -2.5
      vertex -9.42658 13.4635 -2.5
      vertex -9.5 15.5981 -2.5
    endloop
  endfacet
  facet normal 0 0 1
    outer loop
      vertex -8.88168 11.7865 -2.5
      vertex -11 13 -2.5
      vertex -9.5 10.4019 -2.5
    endloop
  endfacet
  facet normal -0.309022 -0.951055 0
    outer loop
      vertex -13.4635 -6.57342 -4.5
      vertex -11.7865 -7.11832 -2.5
      vertex -13.4635 -6.57342 -2.5
    endloop
  endfacet
  facet normal -0.309022 -0.951055 -0
    outer loop
      vertex -11.7865 -7.11832 -2.5
      vertex -13.4635 -6.57342 -4.5
      vertex -11.7865 -7.11832 -4.5
    endloop
  endfacet
  facet normal -0.309022 0.951055 0
    outer loop
      vertex -11.7865 -8.88168 -4.5
      vertex -13.4635 -9.42658 -2.5
      vertex -11.7865 -8.88168 -2.5
    endloop
  endfacet
  facet normal -0.309022 0.951055 0
    outer loop
      vertex -13.4635 -9.42658 -2.5
      vertex -11.7865 -8.88168 -4.5
      vertex -13.4635 -9.42658 -4.5
    endloop
  endfacet
  facet normal 0.809009 0.587796 0
    outer loop
      vertex -13.4635 -9.42658 -2.5
      vertex -14.5 -8 -4.5
      vertex -14.5 -8 -2.5
    endloop
  endfacet
  facet normal 0.809009 0.587796 0
    outer loop
      vertex -14.5 -8 -4.5
      vertex -13.4635 -9.42658 -2.5
      vertex -13.4635 -9.42658 -4.5
    endloop
  endfacet
  facet normal -1 0 0
    outer loop
      vertex -11.7865 -8.88168 -4.5
      vertex -11.7865 -7.11832 -2.5
      vertex -11.7865 -7.11832 -4.5
    endloop
  endfacet
  facet normal -1 -0 0
    outer loop
      vertex -11.7865 -7.11832 -2.5
      vertex -11.7865 -8.88168 -4.5
      vertex -11.7865 -8.88168 -2.5
    endloop
  endfacet
  facet normal 0.809009 -0.587796 0
    outer loop
      vertex -14.5 -8 -2.5
      vertex -13.4635 -6.57342 -4.5
      vertex -13.4635 -6.57342 -2.5
    endloop
  endfacet
  facet normal 0.809009 -0.587796 0
    outer loop
      vertex -13.4635 -6.57342 -4.5
      vertex -14.5 -8 -2.5
      vertex -14.5 -8 -4.5
    endloop
  endfacet
  facet normal 0.499997 -0.866027 0
    outer loop
      vertex -15.5981 -6.5 -2.5
      vertex -13 -5 4.5
      vertex -15.5981 -6.5 4.5
    endloop
  endfacet
  facet normal 0.499997 -0.866027 0
    outer loop
      vertex -13 -5 4.5
      vertex -15.5981 -6.5 -2.5
      vertex -13 -5 -2.5
    endloop
  endfacet
  facet normal 1 -0 0
    outer loop
      vertex -15.5981 -9.5 4.5
      vertex -15.5981 -6.5 -2.5
      vertex -15.5981 -6.5 4.5
    endloop
  endfacet
  facet normal 1 0 0
    outer loop
      vertex -15.5981 -6.5 -2.5
      vertex -15.5981 -9.5 4.5
      vertex -15.5981 -9.5 -2.5
    endloop
  endfacet
  facet normal -0.499997 0.866027 0
    outer loop
      vertex -10.4019 -9.5 -2.5
      vertex -13 -11 4.5
      vertex -10.4019 -9.5 4.5
    endloop
  endfacet
  facet normal -0.499997 0.866027 0
    outer loop
      vertex -13 -11 4.5
      vertex -10.4019 -9.5 -2.5
      vertex -13 -11 -2.5
    endloop
  endfacet
  facet normal 0.499997 0.866027 -0
    outer loop
      vertex -13 -11 -2.5
      vertex -15.5981 -9.5 4.5
      vertex -13 -11 4.5
    endloop
  endfacet
  facet normal 0.499997 0.866027 0
    outer loop
      vertex -15.5981 -9.5 4.5
      vertex -13 -11 -2.5
      vertex -15.5981 -9.5 -2.5
    endloop
  endfacet
  facet normal -1 0 0
    outer loop
      vertex -10.4019 -9.5 -2.5
      vertex -10.4019 -6.5 4.5
      vertex -10.4019 -6.5 -2.5
    endloop
  endfacet
  facet normal -1 -0 0
    outer loop
      vertex -10.4019 -6.5 4.5
      vertex -10.4019 -9.5 -2.5
      vertex -10.4019 -9.5 4.5
    endloop
  endfacet
  facet normal -0.499997 -0.866027 0
    outer loop
      vertex -13 -5 -2.5
      vertex -10.4019 -6.5 4.5
      vertex -13 -5 4.5
    endloop
  endfacet
  facet normal -0.499997 -0.866027 -0
    outer loop
      vertex -10.4019 -6.5 4.5
      vertex -13 -5 -2.5
      vertex -10.4019 -6.5 -2.5
    endloop
  endfacet
  facet normal 0 0 1
    outer loop
      vertex -10.4019 -6.5 -2.5
      vertex -11.7865 -7.11832 -2.5
      vertex -10.4019 -9.5 -2.5
    endloop
  endfacet
  facet normal 0 0 1
    outer loop
      vertex -13 -5 -2.5
      vertex -11.7865 -7.11832 -2.5
      vertex -10.4019 -6.5 -2.5
    endloop
  endfacet
  facet normal 0 0 1
    outer loop
      vertex -13 -5 -2.5
      vertex -13.4635 -6.57342 -2.5
      vertex -11.7865 -7.11832 -2.5
    endloop
  endfacet
  facet normal -0 0 1
    outer loop
      vertex -15.5981 -6.5 -2.5
      vertex -13.4635 -6.57342 -2.5
      vertex -13 -5 -2.5
    endloop
  endfacet
  facet normal 0 0 1
    outer loop
      vertex -13.4635 -6.57342 -2.5
      vertex -15.5981 -6.5 -2.5
      vertex -14.5 -8 -2.5
    endloop
  endfacet
  facet normal -0 0 1
    outer loop
      vertex -11.7865 -8.88168 -2.5
      vertex -10.4019 -9.5 -2.5
      vertex -11.7865 -7.11832 -2.5
    endloop
  endfacet
  facet normal 0 0 1
    outer loop
      vertex -11.7865 -8.88168 -2.5
      vertex -13 -11 -2.5
      vertex -10.4019 -9.5 -2.5
    endloop
  endfacet
  facet normal -0 0 1
    outer loop
      vertex -13.4635 -9.42658 -2.5
      vertex -13 -11 -2.5
      vertex -11.7865 -8.88168 -2.5
    endloop
  endfacet
  facet normal 0 0 1
    outer loop
      vertex -15.5981 -9.5 -2.5
      vertex -13.4635 -9.42658 -2.5
      vertex -14.5 -8 -2.5
    endloop
  endfacet
  facet normal 0 0 1
    outer loop
      vertex -15.5981 -9.5 -2.5
      vertex -14.5 -8 -2.5
      vertex -15.5981 -6.5 -2.5
    endloop
  endfacet
  facet normal 0 0 1
    outer loop
      vertex -13.4635 -9.42658 -2.5
      vertex -15.5981 -9.5 -2.5
      vertex -13 -11 -2.5
    endloop
  endfacet
  facet normal 0.951055 -0.309022 0
    outer loop
      vertex 6.57342 -13.4635 -2.5
      vertex 7.11832 -11.7865 -4.5
      vertex 7.11832 -11.7865 -2.5
    endloop
  endfacet
  facet normal 0.951055 -0.309022 0
    outer loop
      vertex 7.11832 -11.7865 -4.5
      vertex 6.57342 -13.4635 -2.5
      vertex 6.57342 -13.4635 -4.5
    endloop
  endfacet
  facet normal -0.951055 -0.309022 0
    outer loop
      vertex 9.42658 -13.4635 -4.5
      vertex 8.88168 -11.7865 -2.5
      vertex 8.88168 -11.7865 -4.5
    endloop
  endfacet
  facet normal -0.951055 -0.309022 0
    outer loop
      vertex 8.88168 -11.7865 -2.5
      vertex 9.42658 -13.4635 -4.5
      vertex 9.42658 -13.4635 -2.5
    endloop
  endfacet
  facet normal -0.587796 0.809009 0
    outer loop
      vertex 9.42658 -13.4635 -4.5
      vertex 8 -14.5 -2.5
      vertex 9.42658 -13.4635 -2.5
    endloop
  endfacet
  facet normal -0.587796 0.809009 0
    outer loop
      vertex 8 -14.5 -2.5
      vertex 9.42658 -13.4635 -4.5
      vertex 8 -14.5 -4.5
    endloop
  endfacet
  facet normal 0 -1 0
    outer loop
      vertex 7.11832 -11.7865 -4.5
      vertex 8.88168 -11.7865 -2.5
      vertex 7.11832 -11.7865 -2.5
    endloop
  endfacet
  facet normal 0 -1 -0
    outer loop
      vertex 8.88168 -11.7865 -2.5
      vertex 7.11832 -11.7865 -4.5
      vertex 8.88168 -11.7865 -4.5
    endloop
  endfacet
  facet normal 0.587796 0.809009 -0
    outer loop
      vertex 8 -14.5 -4.5
      vertex 6.57342 -13.4635 -2.5
      vertex 8 -14.5 -2.5
    endloop
  endfacet
  facet normal 0.587796 0.809009 0
    outer loop
      vertex 6.57342 -13.4635 -2.5
      vertex 8 -14.5 -4.5
      vertex 6.57342 -13.4635 -4.5
    endloop
  endfacet
  facet normal 0.866027 0.499997 0
    outer loop
      vertex 6.5 -15.5981 4.5
      vertex 5 -13 -2.5
      vertex 5 -13 4.5
    endloop
  endfacet
  facet normal 0.866027 0.499997 0
    outer loop
      vertex 5 -13 -2.5
      vertex 6.5 -15.5981 4.5
      vertex 6.5 -15.5981 -2.5
    endloop
  endfacet
  facet normal 0 1 -0
    outer loop
      vertex 9.5 -15.5981 -2.5
      vertex 6.5 -15.5981 4.5
      vertex 9.5 -15.5981 4.5
    endloop
  endfacet
  facet normal 0 1 0
    outer loop
      vertex 6.5 -15.5981 4.5
      vertex 9.5 -15.5981 -2.5
      vertex 6.5 -15.5981 -2.5
    endloop
  endfacet
  facet normal -0.866027 -0.499997 0
    outer loop
      vertex 11 -13 -2.5
      vertex 9.5 -10.4019 4.5
      vertex 9.5 -10.4019 -2.5
    endloop
  endfacet
  facet normal -0.866027 -0.499997 0
    outer loop
      vertex 9.5 -10.4019 4.5
      vertex 11 -13 -2.5
      vertex 11 -13 4.5
    endloop
  endfacet
  facet normal -0.866027 0.499997 0
    outer loop
      vertex 9.5 -15.5981 -2.5
      vertex 11 -13 4.5
      vertex 11 -13 -2.5
    endloop
  endfacet
  facet normal -0.866027 0.499997 0
    outer loop
      vertex 11 -13 4.5
      vertex 9.5 -15.5981 -2.5
      vertex 9.5 -15.5981 4.5
    endloop
  endfacet
  facet normal 0 -1 0
    outer loop
      vertex 6.5 -10.4019 -2.5
      vertex 9.5 -10.4019 4.5
      vertex 6.5 -10.4019 4.5
    endloop
  endfacet
  facet normal 0 -1 -0
    outer loop
      vertex 9.5 -10.4019 4.5
      vertex 6.5 -10.4019 -2.5
      vertex 9.5 -10.4019 -2.5
    endloop
  endfacet
  facet normal 0.866027 -0.499997 0
    outer loop
      vertex 5 -13 4.5
      vertex 6.5 -10.4019 -2.5
      vertex 6.5 -10.4019 4.5
    endloop
  endfacet
  facet normal 0.866027 -0.499997 0
    outer loop
      vertex 6.5 -10.4019 -2.5
      vertex 5 -13 4.5
      vertex 5 -13 -2.5
    endloop
  endfacet
  facet normal -0 0 1
    outer loop
      vertex 8.88168 -11.7865 -2.5
      vertex 11 -13 -2.5
      vertex 9.5 -10.4019 -2.5
    endloop
  endfacet
  facet normal 0 0 1
    outer loop
      vertex 11 -13 -2.5
      vertex 9.42658 -13.4635 -2.5
      vertex 9.5 -15.5981 -2.5
    endloop
  endfacet
  facet normal 0 0 1
    outer loop
      vertex 11 -13 -2.5
      vertex 8.88168 -11.7865 -2.5
      vertex 9.42658 -13.4635 -2.5
    endloop
  endfacet
  facet normal 0 0 1
    outer loop
      vertex 9.5 -10.4019 -2.5
      vertex 7.11832 -11.7865 -2.5
      vertex 8.88168 -11.7865 -2.5
    endloop
  endfacet
  facet normal 0 0 1
    outer loop
      vertex 5 -13 -2.5
      vertex 7.11832 -11.7865 -2.5
      vertex 6.5 -10.4019 -2.5
    endloop
  endfacet
  facet normal -0 0 1
    outer loop
      vertex 6.5 -10.4019 -2.5
      vertex 7.11832 -11.7865 -2.5
      vertex 9.5 -10.4019 -2.5
    endloop
  endfacet
  facet normal -0 0 1
    outer loop
      vertex 8 -14.5 -2.5
      vertex 9.5 -15.5981 -2.5
      vertex 9.42658 -13.4635 -2.5
    endloop
  endfacet
  facet normal 0 0 1
    outer loop
      vertex 6.5 -15.5981 -2.5
      vertex 8 -14.5 -2.5
      vertex 6.57342 -13.4635 -2.5
    endloop
  endfacet
  facet normal 0 0 1
    outer loop
      vertex 8 -14.5 -2.5
      vertex 6.5 -15.5981 -2.5
      vertex 9.5 -15.5981 -2.5
    endloop
  endfacet
  facet normal 0 0 1
    outer loop
      vertex 7.11832 -11.7865 -2.5
      vertex 5 -13 -2.5
      vertex 6.57342 -13.4635 -2.5
    endloop
  endfacet
  facet normal 0 0 1
    outer loop
      vertex 6.57342 -13.4635 -2.5
      vertex 5 -13 -2.5
      vertex 6.5 -15.5981 -2.5
    endloop
  endfacet
  facet normal 0.309022 -0.951055 0
    outer loop
      vertex 11.7865 -7.11832 2.5
      vertex 13.4635 -6.57342 4.5
      vertex 11.7865 -7.11832 4.5
    endloop
  endfacet
  facet normal 0.309022 -0.951055 0
    outer loop
      vertex 13.4635 -6.57342 4.5
      vertex 11.7865 -7.11832 2.5
      vertex 13.4635 -6.57342 2.5
    endloop
  endfacet
  facet normal 0.309022 0.951055 -0
    outer loop
      vertex 13.4635 -9.42658 2.5
      vertex 11.7865 -8.88168 4.5
      vertex 13.4635 -9.42658 4.5
    endloop
  endfacet
  facet normal 0.309022 0.951055 0
    outer loop
      vertex 11.7865 -8.88168 4.5
      vertex 13.4635 -9.42658 2.5
      vertex 11.7865 -8.88168 2.5
    endloop
  endfacet
  facet normal -0.809009 0.587796 0
    outer loop
      vertex 13.4635 -9.42658 2.5
      vertex 14.5 -8 4.5
      vertex 14.5 -8 2.5
    endloop
  endfacet
  facet normal -0.809009 0.587796 0
    outer loop
      vertex 14.5 -8 4.5
      vertex 13.4635 -9.42658 2.5
      vertex 13.4635 -9.42658 4.5
    endloop
  endfacet
  facet normal 1 -0 0
    outer loop
      vertex 11.7865 -8.88168 4.5
      vertex 11.7865 -7.11832 2.5
      vertex 11.7865 -7.11832 4.5
    endloop
  endfacet
  facet normal 1 0 0
    outer loop
      vertex 11.7865 -7.11832 2.5
      vertex 11.7865 -8.88168 4.5
      vertex 11.7865 -8.88168 2.5
    endloop
  endfacet
  facet normal -0.809009 -0.587796 0
    outer loop
      vertex 14.5 -8 2.5
      vertex 13.4635 -6.57342 4.5
      vertex 13.4635 -6.57342 2.5
    endloop
  endfacet
  facet normal -0.809009 -0.587796 0
    outer loop
      vertex 13.4635 -6.57342 4.5
      vertex 14.5 -8 2.5
      vertex 14.5 -8 4.5
    endloop
  endfacet
  facet normal -0.499997 -0.866027 0
    outer loop
      vertex 13 -5 -4.5
      vertex 15.5981 -6.5 2.5
      vertex 13 -5 2.5
    endloop
  endfacet
  facet normal -0.499997 -0.866027 -0
    outer loop
      vertex 15.5981 -6.5 2.5
      vertex 13 -5 -4.5
      vertex 15.5981 -6.5 -4.5
    endloop
  endfacet
  facet normal -1 0 0
    outer loop
      vertex 15.5981 -9.5 -4.5
      vertex 15.5981 -6.5 2.5
      vertex 15.5981 -6.5 -4.5
    endloop
  endfacet
  facet normal -1 -0 0
    outer loop
      vertex 15.5981 -6.5 2.5
      vertex 15.5981 -9.5 -4.5
      vertex 15.5981 -9.5 2.5
    endloop
  endfacet
  facet normal 0.499997 0.866027 -0
    outer loop
      vertex 13 -11 -4.5
      vertex 10.4019 -9.5 2.5
      vertex 13 -11 2.5
    endloop
  endfacet
  facet normal 0.499997 0.866027 0
    outer loop
      vertex 10.4019 -9.5 2.5
      vertex 13 -11 -4.5
      vertex 10.4019 -9.5 -4.5
    endloop
  endfacet
  facet normal -0.499997 0.866027 0
    outer loop
      vertex 15.5981 -9.5 -4.5
      vertex 13 -11 2.5
      vertex 15.5981 -9.5 2.5
    endloop
  endfacet
  facet normal -0.499997 0.866027 0
    outer loop
      vertex 13 -11 2.5
      vertex 15.5981 -9.5 -4.5
      vertex 13 -11 -4.5
    endloop
  endfacet
  facet normal 1 -0 0
    outer loop
      vertex 10.4019 -9.5 2.5
      vertex 10.4019 -6.5 -4.5
      vertex 10.4019 -6.5 2.5
    endloop
  endfacet
  facet normal 1 0 0
    outer loop
      vertex 10.4019 -6.5 -4.5
      vertex 10.4019 -9.5 2.5
      vertex 10.4019 -9.5 -4.5
    endloop
  endfacet
  facet normal 0.499997 -0.866027 0
    outer loop
      vertex 10.4019 -6.5 -4.5
      vertex 13 -5 2.5
      vertex 10.4019 -6.5 2.5
    endloop
  endfacet
  facet normal 0.499997 -0.866027 0
    outer loop
      vertex 13 -5 2.5
      vertex 10.4019 -6.5 -4.5
      vertex 13 -5 -4.5
    endloop
  endfacet
  facet normal 0 0 -1
    outer loop
      vertex 15.5981 -9.5 2.5
      vertex 14.5 -8 2.5
      vertex 15.5981 -6.5 2.5
    endloop
  endfacet
  facet normal 0 0 -1
    outer loop
      vertex 15.5981 -9.5 2.5
      vertex 13.4635 -9.42658 2.5
      vertex 14.5 -8 2.5
    endloop
  endfacet
  facet normal 0 0 -1
    outer loop
      vertex 13 -11 2.5
      vertex 13.4635 -9.42658 2.5
      vertex 15.5981 -9.5 2.5
    endloop
  endfacet
  facet normal 0 0 -1
    outer loop
      vertex 13 -11 2.5
      vertex 11.7865 -8.88168 2.5
      vertex 13.4635 -9.42658 2.5
    endloop
  endfacet
  facet normal -0 0 -1
    outer loop
      vertex 11.7865 -8.88168 2.5
      vertex 10.4019 -9.5 2.5
      vertex 11.7865 -7.11832 2.5
    endloop
  endfacet
  facet normal 0 0 -1
    outer loop
      vertex 10.4019 -9.5 2.5
      vertex 11.7865 -8.88168 2.5
      vertex 13 -11 2.5
    endloop
  endfacet
  facet normal 0 0 -1
    outer loop
      vertex 13.4635 -6.57342 2.5
      vertex 15.5981 -6.5 2.5
      vertex 14.5 -8 2.5
    endloop
  endfacet
  facet normal 0 0 -1
    outer loop
      vertex 13.4635 -6.57342 2.5
      vertex 13 -5 2.5
      vertex 15.5981 -6.5 2.5
    endloop
  endfacet
  facet normal 0 0 -1
    outer loop
      vertex 11.7865 -7.11832 2.5
      vertex 13 -5 2.5
      vertex 13.4635 -6.57342 2.5
    endloop
  endfacet
  facet normal 0 0 -1
    outer loop
      vertex 10.4019 -6.5 2.5
      vertex 11.7865 -7.11832 2.5
      vertex 10.4019 -9.5 2.5
    endloop
  endfacet
  facet normal 0 0 -1
    outer loop
      vertex 11.7865 -7.11832 2.5
      vertex 10.4019 -6.5 2.5
      vertex 13 -5 2.5
    endloop
  endfacet
  facet normal -0.951055 -0.309022 0
    outer loop
      vertex -6.57342 -13.4635 2.5
      vertex -7.11832 -11.7865 4.5
      vertex -7.11832 -11.7865 2.5
    endloop
  endfacet
  facet normal -0.951055 -0.309022 0
    outer loop
      vertex -7.11832 -11.7865 4.5
      vertex -6.57342 -13.4635 2.5
      vertex -6.57342 -13.4635 4.5
    endloop
  endfacet
  facet normal 0.951055 -0.309022 0
    outer loop
      vertex -9.42658 -13.4635 4.5
      vertex -8.88168 -11.7865 2.5
      vertex -8.88168 -11.7865 4.5
    endloop
  endfacet
  facet normal 0.951055 -0.309022 0
    outer loop
      vertex -8.88168 -11.7865 2.5
      vertex -9.42658 -13.4635 4.5
      vertex -9.42658 -13.4635 2.5
    endloop
  endfacet
  facet normal 0.587796 0.809009 -0
    outer loop
      vertex -8 -14.5 2.5
      vertex -9.42658 -13.4635 4.5
      vertex -8 -14.5 4.5
    endloop
  endfacet
  facet normal 0.587796 0.809009 0
    outer loop
      vertex -9.42658 -13.4635 4.5
      vertex -8 -14.5 2.5
      vertex -9.42658 -13.4635 2.5
    endloop
  endfacet
  facet normal 0 -1 0
    outer loop
      vertex -8.88168 -11.7865 2.5
      vertex -7.11832 -11.7865 4.5
      vertex -8.88168 -11.7865 4.5
    endloop
  endfacet
  facet normal 0 -1 -0
    outer loop
      vertex -7.11832 -11.7865 4.5
      vertex -8.88168 -11.7865 2.5
      vertex -7.11832 -11.7865 2.5
    endloop
  endfacet
  facet normal -0.587796 0.809009 0
    outer loop
      vertex -6.57342 -13.4635 2.5
      vertex -8 -14.5 4.5
      vertex -6.57342 -13.4635 4.5
    endloop
  endfacet
  facet normal -0.587796 0.809009 0
    outer loop
      vertex -8 -14.5 4.5
      vertex -6.57342 -13.4635 2.5
      vertex -8 -14.5 2.5
    endloop
  endfacet
  facet normal -0.866027 0.499997 0
    outer loop
      vertex -6.5 -15.5981 -4.5
      vertex -5 -13 2.5
      vertex -5 -13 -4.5
    endloop
  endfacet
  facet normal -0.866027 0.499997 0
    outer loop
      vertex -5 -13 2.5
      vertex -6.5 -15.5981 -4.5
      vertex -6.5 -15.5981 2.5
    endloop
  endfacet
  facet normal 0 1 -0
    outer loop
      vertex -6.5 -15.5981 -4.5
      vertex -9.5 -15.5981 2.5
      vertex -6.5 -15.5981 2.5
    endloop
  endfacet
  facet normal 0 1 0
    outer loop
      vertex -9.5 -15.5981 2.5
      vertex -6.5 -15.5981 -4.5
      vertex -9.5 -15.5981 -4.5
    endloop
  endfacet
  facet normal 0.866027 -0.499997 0
    outer loop
      vertex -11 -13 2.5
      vertex -9.5 -10.4019 -4.5
      vertex -9.5 -10.4019 2.5
    endloop
  endfacet
  facet normal 0.866027 -0.499997 0
    outer loop
      vertex -9.5 -10.4019 -4.5
      vertex -11 -13 2.5
      vertex -11 -13 -4.5
    endloop
  endfacet
  facet normal 0.866027 0.499997 0
    outer loop
      vertex -9.5 -15.5981 2.5
      vertex -11 -13 -4.5
      vertex -11 -13 2.5
    endloop
  endfacet
  facet normal 0.866027 0.499997 0
    outer loop
      vertex -11 -13 -4.5
      vertex -9.5 -15.5981 2.5
      vertex -9.5 -15.5981 -4.5
    endloop
  endfacet
  facet normal 0 -1 0
    outer loop
      vertex -9.5 -10.4019 -4.5
      vertex -6.5 -10.4019 2.5
      vertex -9.5 -10.4019 2.5
    endloop
  endfacet
  facet normal 0 -1 -0
    outer loop
      vertex -6.5 -10.4019 2.5
      vertex -9.5 -10.4019 -4.5
      vertex -6.5 -10.4019 -4.5
    endloop
  endfacet
  facet normal -0.866027 -0.499997 0
    outer loop
      vertex -5 -13 -4.5
      vertex -6.5 -10.4019 2.5
      vertex -6.5 -10.4019 -4.5
    endloop
  endfacet
  facet normal -0.866027 -0.499997 0
    outer loop
      vertex -6.5 -10.4019 2.5
      vertex -5 -13 -4.5
      vertex -5 -13 2.5
    endloop
  endfacet
  facet normal 0 0 -1
    outer loop
      vertex -6.57342 -13.4635 2.5
      vertex -5 -13 2.5
      vertex -6.5 -15.5981 2.5
    endloop
  endfacet
  facet normal 0 0 -1
    outer loop
      vertex -7.11832 -11.7865 2.5
      vertex -5 -13 2.5
      vertex -6.57342 -13.4635 2.5
    endloop
  endfacet
  facet normal 0 0 -1
    outer loop
      vertex -6.5 -15.5981 2.5
      vertex -8 -14.5 2.5
      vertex -6.57342 -13.4635 2.5
    endloop
  endfacet
  facet normal 0 0 -1
    outer loop
      vertex -9.5 -15.5981 2.5
      vertex -8 -14.5 2.5
      vertex -6.5 -15.5981 2.5
    endloop
  endfacet
  facet normal -0 0 -1
    outer loop
      vertex -8 -14.5 2.5
      vertex -9.5 -15.5981 2.5
      vertex -9.42658 -13.4635 2.5
    endloop
  endfacet
  facet normal 0 0 -1
    outer loop
      vertex -5 -13 2.5
      vertex -7.11832 -11.7865 2.5
      vertex -6.5 -10.4019 2.5
    endloop
  endfacet
  facet normal 0 0 -1
    outer loop
      vertex -8.88168 -11.7865 2.5
      vertex -6.5 -10.4019 2.5
      vertex -7.11832 -11.7865 2.5
    endloop
  endfacet
  facet normal 0 0 -1
    outer loop
      vertex -8.88168 -11.7865 2.5
      vertex -9.5 -10.4019 2.5
      vertex -6.5 -10.4019 2.5
    endloop
  endfacet
  facet normal 0 0 -1
    outer loop
      vertex -11 -13 2.5
      vertex -8.88168 -11.7865 2.5
      vertex -9.42658 -13.4635 2.5
    endloop
  endfacet
  facet normal 0 0 -1
    outer loop
      vertex -11 -13 2.5
      vertex -9.42658 -13.4635 2.5
      vertex -9.5 -15.5981 2.5
    endloop
  endfacet
  facet normal -0 0 -1
    outer loop
      vertex -8.88168 -11.7865 2.5
      vertex -11 -13 2.5
      vertex -9.5 -10.4019 2.5
    endloop
  endfacet
  facet normal -0.309022 0.951055 0
    outer loop
      vertex -11.7865 7.11832 2.5
      vertex -13.4635 6.57342 4.5
      vertex -11.7865 7.11832 4.5
    endloop
  endfacet
  facet normal -0.309022 0.951055 0
    outer loop
      vertex -13.4635 6.57342 4.5
      vertex -11.7865 7.11832 2.5
      vertex -13.4635 6.57342 2.5
    endloop
  endfacet
  facet normal -0.309022 -0.951055 0
    outer loop
      vertex -13.4635 9.42658 2.5
      vertex -11.7865 8.88168 4.5
      vertex -13.4635 9.42658 4.5
    endloop
  endfacet
  facet normal -0.309022 -0.951055 -0
    outer loop
      vertex -11.7865 8.88168 4.5
      vertex -13.4635 9.42658 2.5
      vertex -11.7865 8.88168 2.5
    endloop
  endfacet
  facet normal 0.809009 -0.587796 0
    outer loop
      vertex -14.5 8 4.5
      vertex -13.4635 9.42658 2.5
      vertex -13.4635 9.42658 4.5
    endloop
  endfacet
  facet normal 0.809009 -0.587796 0
    outer loop
      vertex -13.4635 9.42658 2.5
      vertex -14.5 8 4.5
      vertex -14.5 8 2.5
    endloop
  endfacet
  facet normal -1 0 0
    outer loop
      vertex -11.7865 7.11832 2.5
      vertex -11.7865 8.88168 4.5
      vertex -11.7865 8.88168 2.5
    endloop
  endfacet
  facet normal -1 -0 0
    outer loop
      vertex -11.7865 8.88168 4.5
      vertex -11.7865 7.11832 2.5
      vertex -11.7865 7.11832 4.5
    endloop
  endfacet
  facet normal 0.809009 0.587796 0
    outer loop
      vertex -13.4635 6.57342 4.5
      vertex -14.5 8 2.5
      vertex -14.5 8 4.5
    endloop
  endfacet
  facet normal 0.809009 0.587796 0
    outer loop
      vertex -14.5 8 2.5
      vertex -13.4635 6.57342 4.5
      vertex -13.4635 6.57342 2.5
    endloop
  endfacet
  facet normal 0.499997 0.866027 -0
    outer loop
      vertex -13 5 -4.5
      vertex -15.5981 6.5 2.5
      vertex -13 5 2.5
    endloop
  endfacet
  facet normal 0.499997 0.866027 0
    outer loop
      vertex -15.5981 6.5 2.5
      vertex -13 5 -4.5
      vertex -15.5981 6.5 -4.5
    endloop
  endfacet
  facet normal 1 -0 0
    outer loop
      vertex -15.5981 6.5 2.5
      vertex -15.5981 9.5 -4.5
      vertex -15.5981 9.5 2.5
    endloop
  endfacet
  facet normal 1 0 0
    outer loop
      vertex -15.5981 9.5 -4.5
      vertex -15.5981 6.5 2.5
      vertex -15.5981 6.5 -4.5
    endloop
  endfacet
  facet normal -0.499997 -0.866027 0
    outer loop
      vertex -13 11 -4.5
      vertex -10.4019 9.5 2.5
      vertex -13 11 2.5
    endloop
  endfacet
  facet normal -0.499997 -0.866027 -0
    outer loop
      vertex -10.4019 9.5 2.5
      vertex -13 11 -4.5
      vertex -10.4019 9.5 -4.5
    endloop
  endfacet
  facet normal 0.499997 -0.866027 0
    outer loop
      vertex -15.5981 9.5 -4.5
      vertex -13 11 2.5
      vertex -15.5981 9.5 2.5
    endloop
  endfacet
  facet normal 0.499997 -0.866027 0
    outer loop
      vertex -13 11 2.5
      vertex -15.5981 9.5 -4.5
      vertex -13 11 -4.5
    endloop
  endfacet
  facet normal -1 0 0
    outer loop
      vertex -10.4019 6.5 -4.5
      vertex -10.4019 9.5 2.5
      vertex -10.4019 9.5 -4.5
    endloop
  endfacet
  facet normal -1 -0 0
    outer loop
      vertex -10.4019 9.5 2.5
      vertex -10.4019 6.5 -4.5
      vertex -10.4019 6.5 2.5
    endloop
  endfacet
  facet normal -0.499997 0.866027 0
    outer loop
      vertex -10.4019 6.5 -4.5
      vertex -13 5 2.5
      vertex -10.4019 6.5 2.5
    endloop
  endfacet
  facet normal -0.499997 0.866027 0
    outer loop
      vertex -13 5 2.5
      vertex -10.4019 6.5 -4.5
      vertex -13 5 -4.5
    endloop
  endfacet
  facet normal 0 0 -1
    outer loop
      vertex -10.4019 6.5 2.5
      vertex -11.7865 7.11832 2.5
      vertex -10.4019 9.5 2.5
    endloop
  endfacet
  facet normal 0 0 -1
    outer loop
      vertex -13 5 2.5
      vertex -11.7865 7.11832 2.5
      vertex -10.4019 6.5 2.5
    endloop
  endfacet
  facet normal 0 0 -1
    outer loop
      vertex -13 5 2.5
      vertex -13.4635 6.57342 2.5
      vertex -11.7865 7.11832 2.5
    endloop
  endfacet
  facet normal 0 0 -1
    outer loop
      vertex -15.5981 6.5 2.5
      vertex -13.4635 6.57342 2.5
      vertex -13 5 2.5
    endloop
  endfacet
  facet normal -0 0 -1
    outer loop
      vertex -13.4635 6.57342 2.5
      vertex -15.5981 6.5 2.5
      vertex -14.5 8 2.5
    endloop
  endfacet
  facet normal 0 0 -1
    outer loop
      vertex -11.7865 8.88168 2.5
      vertex -10.4019 9.5 2.5
      vertex -11.7865 7.11832 2.5
    endloop
  endfacet
  facet normal 0 0 -1
    outer loop
      vertex -11.7865 8.88168 2.5
      vertex -13 11 2.5
      vertex -10.4019 9.5 2.5
    endloop
  endfacet
  facet normal 0 0 -1
    outer loop
      vertex -13.4635 9.42658 2.5
      vertex -13 11 2.5
      vertex -11.7865 8.88168 2.5
    endloop
  endfacet
  facet normal 0 0 -1
    outer loop
      vertex -15.5981 9.5 2.5
      vertex -13.4635 9.42658 2.5
      vertex -14.5 8 2.5
    endloop
  endfacet
  facet normal 0 0 -1
    outer loop
      vertex -15.5981 9.5 2.5
      vertex -14.5 8 2.5
      vertex -15.5981 6.5 2.5
    endloop
  endfacet
  facet normal 0 0 -1
    outer loop
      vertex -13.4635 9.42658 2.5
      vertex -15.5981 9.5 2.5
      vertex -13 11 2.5
    endloop
  endfacet
  facet normal 0.951055 0.309022 0
    outer loop
      vertex 7.11832 11.7865 4.5
      vertex 6.57342 13.4635 2.5
      vertex 6.57342 13.4635 4.5
    endloop
  endfacet
  facet normal 0.951055 0.309022 0
    outer loop
      vertex 6.57342 13.4635 2.5
      vertex 7.11832 11.7865 4.5
      vertex 7.11832 11.7865 2.5
    endloop
  endfacet
  facet normal -0.951055 0.309022 0
    outer loop
      vertex 8.88168 11.7865 2.5
      vertex 9.42658 13.4635 4.5
      vertex 9.42658 13.4635 2.5
    endloop
  endfacet
  facet normal -0.951055 0.309022 0
    outer loop
      vertex 9.42658 13.4635 4.5
      vertex 8.88168 11.7865 2.5
      vertex 8.88168 11.7865 4.5
    endloop
  endfacet
  facet normal -0.587796 -0.809009 0
    outer loop
      vertex 8 14.5 2.5
      vertex 9.42658 13.4635 4.5
      vertex 8 14.5 4.5
    endloop
  endfacet
  facet normal -0.587796 -0.809009 -0
    outer loop
      vertex 9.42658 13.4635 4.5
      vertex 8 14.5 2.5
      vertex 9.42658 13.4635 2.5
    endloop
  endfacet
  facet normal 0 1 -0
    outer loop
      vertex 8.88168 11.7865 2.5
      vertex 7.11832 11.7865 4.5
      vertex 8.88168 11.7865 4.5
    endloop
  endfacet
  facet normal 0 1 0
    outer loop
      vertex 7.11832 11.7865 4.5
      vertex 8.88168 11.7865 2.5
      vertex 7.11832 11.7865 2.5
    endloop
  endfacet
  facet normal 0.587796 -0.809009 0
    outer loop
      vertex 6.57342 13.4635 2.5
      vertex 8 14.5 4.5
      vertex 6.57342 13.4635 4.5
    endloop
  endfacet
  facet normal 0.587796 -0.809009 0
    outer loop
      vertex 8 14.5 4.5
      vertex 6.57342 13.4635 2.5
      vertex 8 14.5 2.5
    endloop
  endfacet
  facet normal 0.866027 -0.499997 0
    outer loop
      vertex 5 13 2.5
      vertex 6.5 15.5981 -4.5
      vertex 6.5 15.5981 2.5
    endloop
  endfacet
  facet normal 0.866027 -0.499997 0
    outer loop
      vertex 6.5 15.5981 -4.5
      vertex 5 13 2.5
      vertex 5 13 -4.5
    endloop
  endfacet
  facet normal 0 -1 0
    outer loop
      vertex 6.5 15.5981 -4.5
      vertex 9.5 15.5981 2.5
      vertex 6.5 15.5981 2.5
    endloop
  endfacet
  facet normal 0 -1 -0
    outer loop
      vertex 9.5 15.5981 2.5
      vertex 6.5 15.5981 -4.5
      vertex 9.5 15.5981 -4.5
    endloop
  endfacet
  facet normal -0.866027 0.499997 0
    outer loop
      vertex 9.5 10.4019 -4.5
      vertex 11 13 2.5
      vertex 11 13 -4.5
    endloop
  endfacet
  facet normal -0.866027 0.499997 0
    outer loop
      vertex 11 13 2.5
      vertex 9.5 10.4019 -4.5
      vertex 9.5 10.4019 2.5
    endloop
  endfacet
  facet normal -0.866027 -0.499997 0
    outer loop
      vertex 11 13 -4.5
      vertex 9.5 15.5981 2.5
      vertex 9.5 15.5981 -4.5
    endloop
  endfacet
  facet normal -0.866027 -0.499997 0
    outer loop
      vertex 9.5 15.5981 2.5
      vertex 11 13 -4.5
      vertex 11 13 2.5
    endloop
  endfacet
  facet normal 0 1 -0
    outer loop
      vertex 9.5 10.4019 -4.5
      vertex 6.5 10.4019 2.5
      vertex 9.5 10.4019 2.5
    endloop
  endfacet
  facet normal 0 1 0
    outer loop
      vertex 6.5 10.4019 2.5
      vertex 9.5 10.4019 -4.5
      vertex 6.5 10.4019 -4.5
    endloop
  endfacet
  facet normal 0.866027 0.499997 0
    outer loop
      vertex 6.5 10.4019 2.5
      vertex 5 13 -4.5
      vertex 5 13 2.5
    endloop
  endfacet
  facet normal 0.866027 0.499997 0
    outer loop
      vertex 5 13 -4.5
      vertex 6.5 10.4019 2.5
      vertex 6.5 10.4019 -4.5
    endloop
  endfacet
  facet normal 0 0 -1
    outer loop
      vertex 8.88168 11.7865 2.5
      vertex 11 13 2.5
      vertex 9.5 10.4019 2.5
    endloop
  endfacet
  facet normal 0 0 -1
    outer loop
      vertex 11 13 2.5
      vertex 9.42658 13.4635 2.5
      vertex 9.5 15.5981 2.5
    endloop
  endfacet
  facet normal -0 0 -1
    outer loop
      vertex 11 13 2.5
      vertex 8.88168 11.7865 2.5
      vertex 9.42658 13.4635 2.5
    endloop
  endfacet
  facet normal 0 0 -1
    outer loop
      vertex 9.5 10.4019 2.5
      vertex 7.11832 11.7865 2.5
      vertex 8.88168 11.7865 2.5
    endloop
  endfacet
  facet normal 0 0 -1
    outer loop
      vertex 5 13 2.5
      vertex 7.11832 11.7865 2.5
      vertex 6.5 10.4019 2.5
    endloop
  endfacet
  facet normal 0 0 -1
    outer loop
      vertex 6.5 10.4019 2.5
      vertex 7.11832 11.7865 2.5
      vertex 9.5 10.4019 2.5
    endloop
  endfacet
  facet normal 0 0 -1
    outer loop
      vertex 8 14.5 2.5
      vertex 9.5 15.5981 2.5
      vertex 9.42658 13.4635 2.5
    endloop
  endfacet
  facet normal 0 0 -1
    outer loop
      vertex 6.5 15.5981 2.5
      vertex 8 14.5 2.5
      vertex 6.57342 13.4635 2.5
    endloop
  endfacet
  facet normal 0 0 -1
    outer loop
      vertex 8 14.5 2.5
      vertex 6.5 15.5981 2.5
      vertex 9.5 15.5981 2.5
    endloop
  endfacet
  facet normal 0 0 -1
    outer loop
      vertex 7.11832 11.7865 2.5
      vertex 5 13 2.5
      vertex 6.57342 13.4635 2.5
    endloop
  endfacet
  facet normal -0 0 -1
    outer loop
      vertex 6.57342 13.4635 2.5
      vertex 5 13 2.5
      vertex 6.5 15.5981 2.5
    endloop
  endfacet
  facet normal 0 0 -1
    outer loop
      vertex -7.11832 11.7865 -4.5
      vertex -3 13 -4.5
      vertex -5.5 8.66986 -4.5
    endloop
  endfacet
  facet normal 0 0 -1
    outer loop
      vertex 7.11832 -11.7865 -4.5
      vertex 8.66986 -8.66986 -4.5
      vertex 8.88168 -11.7865 -4.5
    endloop
  endfacet
  facet normal 0 0 -1
    outer loop
      vertex 7.11832 -11.7865 -4.5
      vertex 5.5 -8.66986 -4.5
      vertex 8.66986 -8.66986 -4.5
    endloop
  endfacet
  facet normal 0 0 -1
    outer loop
      vertex 3 -13 -4.5
      vertex 7.11832 -11.7865 -4.5
      vertex 6.57342 -13.4635 -4.5
    endloop
  endfacet
  facet normal 0 0 -1
    outer loop
      vertex 16 4.73206 -4.5
      vertex 13.4635 6.57342 -4.5
      vertex 14.5 8 -4.5
    endloop
  endfacet
  facet normal 0 0 -1
    outer loop
      vertex 13 3 -4.5
      vertex 13.4635 6.57342 -4.5
      vertex 16 4.73206 -4.5
    endloop
  endfacet
  facet normal 0 0 -1
    outer loop
      vertex 13 3 -4.5
      vertex 11.7865 7.11832 -4.5
      vertex 13.4635 6.57342 -4.5
    endloop
  endfacet
  facet normal 0 0 -1
    outer loop
      vertex 8.66986 8.66986 -4.5
      vertex 11.7865 8.88168 -4.5
      vertex 11.7865 7.11832 -4.5
    endloop
  endfacet
  facet normal 0 0 -1
    outer loop
      vertex 11.7865 8.88168 -4.5
      vertex 9.5 10.4019 -4.5
      vertex 11 13 -4.5
    endloop
  endfacet
  facet normal 0 0 -1
    outer loop
      vertex 8.66986 5.5 -4.5
      vertex 11.7865 7.11832 -4.5
      vertex 13 3 -4.5
    endloop
  endfacet
  facet normal -0 0 -1
    outer loop
      vertex 11.7865 7.11832 -4.5
      vertex 8.66986 5.5 -4.5
      vertex 8.66986 8.66986 -4.5
    endloop
  endfacet
  facet normal -0 0 -1
    outer loop
      vertex 11.7865 8.88168 -4.5
      vertex 8.66986 8.66986 -4.5
      vertex 9.5 10.4019 -4.5
    endloop
  endfacet
  facet normal 0 0 -1
    outer loop
      vertex 8.66986 8.66986 -4.5
      vertex 6.5 10.4019 -4.5
      vertex 9.5 10.4019 -4.5
    endloop
  endfacet
  facet normal 0 0 -1
    outer loop
      vertex 5.5 8.66986 -4.5
      vertex 6.5 10.4019 -4.5
      vertex 8.66986 8.66986 -4.5
    endloop
  endfacet
  facet normal 0 0 -1
    outer loop
      vertex 5.5 8.66986 -4.5
      vertex 5 13 -4.5
      vertex 6.5 10.4019 -4.5
    endloop
  endfacet
  facet normal 0 0 -1
    outer loop
      vertex 5 13 -4.5
      vertex 3 13 -4.5
      vertex 4.73206 16 -4.5
    endloop
  endfacet
  facet normal 0 0 -1
    outer loop
      vertex 3 13 -4.5
      vertex 5 13 -4.5
      vertex 5.5 8.66986 -4.5
    endloop
  endfacet
  facet normal 0 0 -1
    outer loop
      vertex 18 -12 -4.5
      vertex 16 -4.73206 -4.5
      vertex 18 12 -4.5
    endloop
  endfacet
  facet normal 0 0 -1
    outer loop
      vertex 15.5981 -6.5 -4.5
      vertex 18 -12 -4.5
      vertex 15.5981 -9.5 -4.5
    endloop
  endfacet
  facet normal 0 0 -1
    outer loop
      vertex 18 -12 -4.5
      vertex 13 -11 -4.5
      vertex 15.5981 -9.5 -4.5
    endloop
  endfacet
  facet normal 0 0 -1
    outer loop
      vertex 12 -18 -4.5
      vertex 13 -11 -4.5
      vertex 18 -12 -4.5
    endloop
  endfacet
  facet normal 0 0 -1
    outer loop
      vertex 9.42658 -13.4635 -4.5
      vertex 13 -11 -4.5
      vertex 12 -18 -4.5
    endloop
  endfacet
  facet normal -0 0 -1
    outer loop
      vertex 13 -11 -4.5
      vertex 8.88168 -11.7865 -4.5
      vertex 10.4019 -9.5 -4.5
    endloop
  endfacet
  facet normal 0 0 -1
    outer loop
      vertex 8.88168 -11.7865 -4.5
      vertex 13 -11 -4.5
      vertex 9.42658 -13.4635 -4.5
    endloop
  endfacet
  facet normal 0 0 -1
    outer loop
      vertex 12 -18 -4.5
      vertex 8 -14.5 -4.5
      vertex 9.42658 -13.4635 -4.5
    endloop
  endfacet
  facet normal 0 0 -1
    outer loop
      vertex 4.73206 -16 -4.5
      vertex 8 -14.5 -4.5
      vertex 12 -18 -4.5
    endloop
  endfacet
  facet normal 0 0 -1
    outer loop
      vertex 3 -13 -4.5
      vertex 6.57342 -13.4635 -4.5
      vertex 4.73206 -16 -4.5
    endloop
  endfacet
  facet normal -0 0 -1
    outer loop
      vertex 8 -14.5 -4.5
      vertex 4.73206 -16 -4.5
      vertex 6.57342 -13.4635 -4.5
    endloop
  endfacet
  facet normal 0 0 -1
    outer loop
      vertex 12 -18 -4.5
      vertex -4.73206 -16 -4.5
      vertex 4.73206 -16 -4.5
    endloop
  endfacet
  facet normal 0 0 -1
    outer loop
      vertex -4.73206 -16 -4.5
      vertex -6.5 -15.5981 -4.5
      vertex -5 -13 -4.5
    endloop
  endfacet
  facet normal 0 0 -1
    outer loop
      vertex -12 -18 -4.5
      vertex -6.5 -15.5981 -4.5
      vertex -4.73206 -16 -4.5
    endloop
  endfacet
  facet normal 0 0 -1
    outer loop
      vertex -12 -18 -4.5
      vertex -4.73206 -16 -4.5
      vertex 12 -18 -4.5
    endloop
  endfacet
  facet normal -0 0 -1
    outer loop
      vertex -6.5 -15.5981 -4.5
      vertex -12 -18 -4.5
      vertex -9.5 -15.5981 -4.5
    endloop
  endfacet
  facet normal 0 0 -1
    outer loop
      vertex -12 -18 -4.5
      vertex -11 -13 -4.5
      vertex -9.5 -15.5981 -4.5
    endloop
  endfacet
  facet normal 0 0 -1
    outer loop
      vertex -18 -12 -4.5
      vertex -11 -13 -4.5
      vertex -12 -18 -4.5
    endloop
  endfacet
  facet normal 0 0 -1
    outer loop
      vertex -11 -13 -4.5
      vertex -13.4635 -9.42658 -4.5
      vertex -11.7865 -8.88168 -4.5
    endloop
  endfacet
  facet normal 0 0 -1
    outer loop
      vertex -11 -13 -4.5
      vertex -18 -12 -4.5
      vertex -13.4635 -9.42658 -4.5
    endloop
  endfacet
  facet normal -0 0 -1
    outer loop
      vertex -13.4635 -9.42658 -4.5
      vertex -18 -12 -4.5
      vertex -14.5 -8 -4.5
    endloop
  endfacet
  facet normal -0 0 -1
    outer loop
      vertex -16 -4.73206 -4.5
      vertex -18 -12 -4.5
      vertex -16 4.73206 -4.5
    endloop
  endfacet
  facet normal -0 0 -1
    outer loop
      vertex -14.5 -8 -4.5
      vertex -18 -12 -4.5
      vertex -16 -4.73206 -4.5
    endloop
  endfacet
  facet normal 0 0 -1
    outer loop
      vertex 16 4.73206 -4.5
      vertex 18 12 -4.5
      vertex 16 -4.73206 -4.5
    endloop
  endfacet
  facet normal 0 0 -1
    outer loop
      vertex 14.5 8 -4.5
      vertex 18 12 -4.5
      vertex 16 4.73206 -4.5
    endloop
  endfacet
  facet normal 0 0 -1
    outer loop
      vertex 13.4635 9.42658 -4.5
      vertex 18 12 -4.5
      vertex 14.5 8 -4.5
    endloop
  endfacet
  facet normal 0 0 -1
    outer loop
      vertex 11 13 -4.5
      vertex 18 12 -4.5
      vertex 13.4635 9.42658 -4.5
    endloop
  endfacet
  facet normal 0 0 -1
    outer loop
      vertex 11 13 -4.5
      vertex 13.4635 9.42658 -4.5
      vertex 11.7865 8.88168 -4.5
    endloop
  endfacet
  facet normal 0 0 -1
    outer loop
      vertex 18 12 -4.5
      vertex 11 13 -4.5
      vertex 12 18 -4.5
    endloop
  endfacet
  facet normal 0 0 -1
    outer loop
      vertex 9.5 15.5981 -4.5
      vertex 12 18 -4.5
      vertex 11 13 -4.5
    endloop
  endfacet
  facet normal 0 0 -1
    outer loop
      vertex 6.5 15.5981 -4.5
      vertex 12 18 -4.5
      vertex 9.5 15.5981 -4.5
    endloop
  endfacet
  facet normal 0 0 -1
    outer loop
      vertex 4.73206 16 -4.5
      vertex 6.5 15.5981 -4.5
      vertex 5 13 -4.5
    endloop
  endfacet
  facet normal 0 0 -1
    outer loop
      vertex 4.73206 16 -4.5
      vertex 12 18 -4.5
      vertex 6.5 15.5981 -4.5
    endloop
  endfacet
  facet normal 0 0 -1
    outer loop
      vertex -4.73206 16 -4.5
      vertex 12 18 -4.5
      vertex 4.73206 16 -4.5
    endloop
  endfacet
  facet normal 0 0 -1
    outer loop
      vertex -3 13 -4.5
      vertex -6.57342 13.4635 -4.5
      vertex -4.73206 16 -4.5
    endloop
  endfacet
  facet normal 0 0 -1
    outer loop
      vertex -8 14.5 -4.5
      vertex -4.73206 16 -4.5
      vertex -6.57342 13.4635 -4.5
    endloop
  endfacet
  facet normal 0 0 -1
    outer loop
      vertex -13 11 -4.5
      vertex -8.88168 11.7865 -4.5
      vertex -10.4019 9.5 -4.5
    endloop
  endfacet
  facet normal 0 0 -1
    outer loop
      vertex -4.73206 16 -4.5
      vertex -12 18 -4.5
      vertex 12 18 -4.5
    endloop
  endfacet
  facet normal 0 0 -1
    outer loop
      vertex -8 14.5 -4.5
      vertex -12 18 -4.5
      vertex -4.73206 16 -4.5
    endloop
  endfacet
  facet normal 0 0 -1
    outer loop
      vertex -9.42658 13.4635 -4.5
      vertex -12 18 -4.5
      vertex -8 14.5 -4.5
    endloop
  endfacet
  facet normal -0 0 -1
    outer loop
      vertex -8.88168 11.7865 -4.5
      vertex -13 11 -4.5
      vertex -9.42658 13.4635 -4.5
    endloop
  endfacet
  facet normal -0 0 -1
    outer loop
      vertex -9.42658 13.4635 -4.5
      vertex -13 11 -4.5
      vertex -12 18 -4.5
    endloop
  endfacet
  facet normal 0 0 -1
    outer loop
      vertex -18 12 -4.5
      vertex -13 11 -4.5
      vertex -15.5981 9.5 -4.5
    endloop
  endfacet
  facet normal 0 0 -1
    outer loop
      vertex -18 12 -4.5
      vertex -16 4.73206 -4.5
      vertex -18 -12 -4.5
    endloop
  endfacet
  facet normal 0 0 -1
    outer loop
      vertex -13 11 -4.5
      vertex -18 12 -4.5
      vertex -12 18 -4.5
    endloop
  endfacet
  facet normal 0 0 -1
    outer loop
      vertex -16 4.73206 -4.5
      vertex -18 12 -4.5
      vertex -15.5981 9.5 -4.5
    endloop
  endfacet
  facet normal 0 0 -1
    outer loop
      vertex 18 -12 -4.5
      vertex 15.5981 -6.5 -4.5
      vertex 16 -4.73206 -4.5
    endloop
  endfacet
  facet normal 0 0 -1
    outer loop
      vertex 13 -5 -4.5
      vertex 16 -4.73206 -4.5
      vertex 15.5981 -6.5 -4.5
    endloop
  endfacet
  facet normal 0 0 -1
    outer loop
      vertex 13 -5 -4.5
      vertex 13 -3 -4.5
      vertex 16 -4.73206 -4.5
    endloop
  endfacet
  facet normal 0 0 -1
    outer loop
      vertex 10.4019 -6.5 -4.5
      vertex 13 -3 -4.5
      vertex 13 -5 -4.5
    endloop
  endfacet
  facet normal 0 0 -1
    outer loop
      vertex 8.66986 -8.66986 -4.5
      vertex 10.4019 -9.5 -4.5
      vertex 8.88168 -11.7865 -4.5
    endloop
  endfacet
  facet normal 0 0 -1
    outer loop
      vertex 10.4019 -9.5 -4.5
      vertex 8.66986 -8.66986 -4.5
      vertex 10.4019 -6.5 -4.5
    endloop
  endfacet
  facet normal 0 0 -1
    outer loop
      vertex 8.66986 -5.5 -4.5
      vertex 10.4019 -6.5 -4.5
      vertex 8.66986 -8.66986 -4.5
    endloop
  endfacet
  facet normal 0 0 -1
    outer loop
      vertex 10.4019 -6.5 -4.5
      vertex 8.66986 -5.5 -4.5
      vertex 13 -3 -4.5
    endloop
  endfacet
  facet normal -0 0 -1
    outer loop
      vertex 7.11832 -11.7865 -4.5
      vertex 3 -13 -4.5
      vertex 5.5 -8.66986 -4.5
    endloop
  endfacet
  facet normal 0 0 -1
    outer loop
      vertex -5 -13 -4.5
      vertex -3 -13 -4.5
      vertex -4.73206 -16 -4.5
    endloop
  endfacet
  facet normal 0 0 -1
    outer loop
      vertex -5 -13 -4.5
      vertex -5.5 -8.66986 -4.5
      vertex -3 -13 -4.5
    endloop
  endfacet
  facet normal 0 0 -1
    outer loop
      vertex -6.5 -10.4019 -4.5
      vertex -5.5 -8.66986 -4.5
      vertex -5 -13 -4.5
    endloop
  endfacet
  facet normal 0 0 -1
    outer loop
      vertex -6.5 -10.4019 -4.5
      vertex -8.66986 -8.66986 -4.5
      vertex -5.5 -8.66986 -4.5
    endloop
  endfacet
  facet normal 0 0 -1
    outer loop
      vertex -9.5 -10.4019 -4.5
      vertex -8.66986 -8.66986 -4.5
      vertex -6.5 -10.4019 -4.5
    endloop
  endfacet
  facet normal 0 0 -1
    outer loop
      vertex -11.7865 -8.88168 -4.5
      vertex -8.66986 -8.66986 -4.5
      vertex -9.5 -10.4019 -4.5
    endloop
  endfacet
  facet normal 0 0 -1
    outer loop
      vertex -11.7865 -8.88168 -4.5
      vertex -9.5 -10.4019 -4.5
      vertex -11 -13 -4.5
    endloop
  endfacet
  facet normal -0 0 -1
    outer loop
      vertex -8.66986 -8.66986 -4.5
      vertex -11.7865 -8.88168 -4.5
      vertex -11.7865 -7.11832 -4.5
    endloop
  endfacet
  facet normal 0 0 -1
    outer loop
      vertex -8.66986 -8.66986 -4.5
      vertex -11.7865 -7.11832 -4.5
      vertex -8.66986 -5.5 -4.5
    endloop
  endfacet
  facet normal 0 0 -1
    outer loop
      vertex -11.7865 -7.11832 -4.5
      vertex -13 -3 -4.5
      vertex -8.66986 -5.5 -4.5
    endloop
  endfacet
  facet normal 0 0 -1
    outer loop
      vertex -13.4635 -6.57342 -4.5
      vertex -13 -3 -4.5
      vertex -11.7865 -7.11832 -4.5
    endloop
  endfacet
  facet normal 0 0 -1
    outer loop
      vertex -16 -4.73206 -4.5
      vertex -13.4635 -6.57342 -4.5
      vertex -14.5 -8 -4.5
    endloop
  endfacet
  facet normal 0 0 -1
    outer loop
      vertex -13.4635 -6.57342 -4.5
      vertex -16 -4.73206 -4.5
      vertex -13 -3 -4.5
    endloop
  endfacet
  facet normal 0 0 -1
    outer loop
      vertex -10.4019 6.5 -4.5
      vertex -8.66986 8.66986 -4.5
      vertex -8.66986 5.5 -4.5
    endloop
  endfacet
  facet normal 0 0 -1
    outer loop
      vertex -10.4019 9.5 -4.5
      vertex -8.66986 8.66986 -4.5
      vertex -10.4019 6.5 -4.5
    endloop
  endfacet
  facet normal 0 0 -1
    outer loop
      vertex -8.66986 8.66986 -4.5
      vertex -10.4019 9.5 -4.5
      vertex -8.88168 11.7865 -4.5
    endloop
  endfacet
  facet normal 0 0 -1
    outer loop
      vertex -13 3 -4.5
      vertex -10.4019 6.5 -4.5
      vertex -8.66986 5.5 -4.5
    endloop
  endfacet
  facet normal 0 0 -1
    outer loop
      vertex -13 3 -4.5
      vertex -13 5 -4.5
      vertex -10.4019 6.5 -4.5
    endloop
  endfacet
  facet normal 0 0 -1
    outer loop
      vertex -16 4.73206 -4.5
      vertex -13 5 -4.5
      vertex -13 3 -4.5
    endloop
  endfacet
  facet normal -0 0 -1
    outer loop
      vertex -15.5981 6.5 -4.5
      vertex -16 4.73206 -4.5
      vertex -15.5981 9.5 -4.5
    endloop
  endfacet
  facet normal -0 0 -1
    outer loop
      vertex -13 5 -4.5
      vertex -16 4.73206 -4.5
      vertex -15.5981 6.5 -4.5
    endloop
  endfacet
  facet normal -0 0 -1
    outer loop
      vertex -3 13 -4.5
      vertex -7.11832 11.7865 -4.5
      vertex -6.57342 13.4635 -4.5
    endloop
  endfacet
  facet normal 0 0 -1
    outer loop
      vertex -8.66986 8.66986 -4.5
      vertex -7.11832 11.7865 -4.5
      vertex -5.5 8.66986 -4.5
    endloop
  endfacet
  facet normal -0 0 -1
    outer loop
      vertex -7.11832 11.7865 -4.5
      vertex -8.66986 8.66986 -4.5
      vertex -8.88168 11.7865 -4.5
    endloop
  endfacet
  facet normal -0 0 1
    outer loop
      vertex -7.11832 -11.7865 4.5
      vertex -3 -13 4.5
      vertex -5.5 -8.66986 4.5
    endloop
  endfacet
  facet normal -0 0 1
    outer loop
      vertex 7.11832 11.7865 4.5
      vertex 8.66986 8.66986 4.5
      vertex 8.88168 11.7865 4.5
    endloop
  endfacet
  facet normal 0 0 1
    outer loop
      vertex 7.11832 11.7865 4.5
      vertex 5.5 8.66986 4.5
      vertex 8.66986 8.66986 4.5
    endloop
  endfacet
  facet normal -0 0 1
    outer loop
      vertex 3 13 4.5
      vertex 7.11832 11.7865 4.5
      vertex 6.57342 13.4635 4.5
    endloop
  endfacet
  facet normal 0 0 1
    outer loop
      vertex 16 -4.73206 4.5
      vertex 13.4635 -6.57342 4.5
      vertex 14.5 -8 4.5
    endloop
  endfacet
  facet normal 0 0 1
    outer loop
      vertex 13 -3 4.5
      vertex 13.4635 -6.57342 4.5
      vertex 16 -4.73206 4.5
    endloop
  endfacet
  facet normal 0 0 1
    outer loop
      vertex 13 -3 4.5
      vertex 11.7865 -7.11832 4.5
      vertex 13.4635 -6.57342 4.5
    endloop
  endfacet
  facet normal -0 0 1
    outer loop
      vertex 8.66986 -8.66986 4.5
      vertex 11.7865 -8.88168 4.5
      vertex 11.7865 -7.11832 4.5
    endloop
  endfacet
  facet normal 0 0 1
    outer loop
      vertex 11.7865 -8.88168 4.5
      vertex 9.5 -10.4019 4.5
      vertex 11 -13 4.5
    endloop
  endfacet
  facet normal -0 0 1
    outer loop
      vertex 8.66986 -5.5 4.5
      vertex 11.7865 -7.11832 4.5
      vertex 13 -3 4.5
    endloop
  endfacet
  facet normal 0 0 1
    outer loop
      vertex 11.7865 -7.11832 4.5
      vertex 8.66986 -5.5 4.5
      vertex 8.66986 -8.66986 4.5
    endloop
  endfacet
  facet normal 0 0 1
    outer loop
      vertex 11.7865 -8.88168 4.5
      vertex 8.66986 -8.66986 4.5
      vertex 9.5 -10.4019 4.5
    endloop
  endfacet
  facet normal 0 0 1
    outer loop
      vertex 8.66986 -8.66986 4.5
      vertex 6.5 -10.4019 4.5
      vertex 9.5 -10.4019 4.5
    endloop
  endfacet
  facet normal -0 0 1
    outer loop
      vertex 5.5 -8.66986 4.5
      vertex 6.5 -10.4019 4.5
      vertex 8.66986 -8.66986 4.5
    endloop
  endfacet
  facet normal 0 0 1
    outer loop
      vertex 5.5 -8.66986 4.5
      vertex 5 -13 4.5
      vertex 6.5 -10.4019 4.5
    endloop
  endfacet
  facet normal 0 0 1
    outer loop
      vertex 5 -13 4.5
      vertex 3 -13 4.5
      vertex 4.73206 -16 4.5
    endloop
  endfacet
  facet normal 0 0 1
    outer loop
      vertex 3 -13 4.5
      vertex 5 -13 4.5
      vertex 5.5 -8.66986 4.5
    endloop
  endfacet
  facet normal 0 0 1
    outer loop
      vertex 18 12 4.5
      vertex 16 4.73206 4.5
      vertex 18 -12 4.5
    endloop
  endfacet
  facet normal 0 0 1
    outer loop
      vertex 15.5981 6.5 4.5
      vertex 18 12 4.5
      vertex 15.5981 9.5 4.5
    endloop
  endfacet
  facet normal 0 0 1
    outer loop
      vertex 18 12 4.5
      vertex 13 11 4.5
      vertex 15.5981 9.5 4.5
    endloop
  endfacet
  facet normal 0 0 1
    outer loop
      vertex 12 18 4.5
      vertex 13 11 4.5
      vertex 18 12 4.5
    endloop
  endfacet
  facet normal -0 0 1
    outer loop
      vertex 9.42658 13.4635 4.5
      vertex 13 11 4.5
      vertex 12 18 4.5
    endloop
  endfacet
  facet normal 0 0 1
    outer loop
      vertex 13 11 4.5
      vertex 8.88168 11.7865 4.5
      vertex 10.4019 9.5 4.5
    endloop
  endfacet
  facet normal -0 0 1
    outer loop
      vertex 8.88168 11.7865 4.5
      vertex 13 11 4.5
      vertex 9.42658 13.4635 4.5
    endloop
  endfacet
  facet normal 0 0 1
    outer loop
      vertex 12 18 4.5
      vertex 8 14.5 4.5
      vertex 9.42658 13.4635 4.5
    endloop
  endfacet
  facet normal -0 0 1
    outer loop
      vertex 4.73206 16 4.5
      vertex 8 14.5 4.5
      vertex 12 18 4.5
    endloop
  endfacet
  facet normal 0 0 1
    outer loop
      vertex 3 13 4.5
      vertex 6.57342 13.4635 4.5
      vertex 4.73206 16 4.5
    endloop
  endfacet
  facet normal 0 0 1
    outer loop
      vertex 8 14.5 4.5
      vertex 4.73206 16 4.5
      vertex 6.57342 13.4635 4.5
    endloop
  endfacet
  facet normal 0 0 1
    outer loop
      vertex 12 18 4.5
      vertex -4.73206 16 4.5
      vertex 4.73206 16 4.5
    endloop
  endfacet
  facet normal 0 0 1
    outer loop
      vertex -4.73206 16 4.5
      vertex -6.5 15.5981 4.5
      vertex -5 13 4.5
    endloop
  endfacet
  facet normal 0 0 1
    outer loop
      vertex -12 18 4.5
      vertex -6.5 15.5981 4.5
      vertex -4.73206 16 4.5
    endloop
  endfacet
  facet normal -0 0 1
    outer loop
      vertex -12 18 4.5
      vertex -4.73206 16 4.5
      vertex 12 18 4.5
    endloop
  endfacet
  facet normal 0 0 1
    outer loop
      vertex -6.5 15.5981 4.5
      vertex -12 18 4.5
      vertex -9.5 15.5981 4.5
    endloop
  endfacet
  facet normal 0 0 1
    outer loop
      vertex -12 18 4.5
      vertex -11 13 4.5
      vertex -9.5 15.5981 4.5
    endloop
  endfacet
  facet normal 0 0 1
    outer loop
      vertex -18 12 4.5
      vertex -11 13 4.5
      vertex -12 18 4.5
    endloop
  endfacet
  facet normal 0 0 1
    outer loop
      vertex -11 13 4.5
      vertex -13.4635 9.42658 4.5
      vertex -11.7865 8.88168 4.5
    endloop
  endfacet
  facet normal 0 0 1
    outer loop
      vertex -11 13 4.5
      vertex -18 12 4.5
      vertex -13.4635 9.42658 4.5
    endloop
  endfacet
  facet normal 0 0 1
    outer loop
      vertex -13.4635 9.42658 4.5
      vertex -18 12 4.5
      vertex -14.5 8 4.5
    endloop
  endfacet
  facet normal 0 0 1
    outer loop
      vertex -16 4.73206 4.5
      vertex -18 12 4.5
      vertex -16 -4.73206 4.5
    endloop
  endfacet
  facet normal 0 0 1
    outer loop
      vertex -14.5 8 4.5
      vertex -18 12 4.5
      vertex -16 4.73206 4.5
    endloop
  endfacet
  facet normal -0 0 1
    outer loop
      vertex 16 -4.73206 4.5
      vertex 18 -12 4.5
      vertex 16 4.73206 4.5
    endloop
  endfacet
  facet normal -0 0 1
    outer loop
      vertex 14.5 -8 4.5
      vertex 18 -12 4.5
      vertex 16 -4.73206 4.5
    endloop
  endfacet
  facet normal -0 0 1
    outer loop
      vertex 13.4635 -9.42658 4.5
      vertex 18 -12 4.5
      vertex 14.5 -8 4.5
    endloop
  endfacet
  facet normal 0 0 1
    outer loop
      vertex 11 -13 4.5
      vertex 18 -12 4.5
      vertex 13.4635 -9.42658 4.5
    endloop
  endfacet
  facet normal 0 0 1
    outer loop
      vertex 11 -13 4.5
      vertex 13.4635 -9.42658 4.5
      vertex 11.7865 -8.88168 4.5
    endloop
  endfacet
  facet normal 0 0 1
    outer loop
      vertex 18 -12 4.5
      vertex 11 -13 4.5
      vertex 12 -18 4.5
    endloop
  endfacet
  facet normal -0 0 1
    outer loop
      vertex 9.5 -15.5981 4.5
      vertex 12 -18 4.5
      vertex 11 -13 4.5
    endloop
  endfacet
  facet normal -0 0 1
    outer loop
      vertex 6.5 -15.5981 4.5
      vertex 12 -18 4.5
      vertex 9.5 -15.5981 4.5
    endloop
  endfacet
  facet normal 0 0 1
    outer loop
      vertex 4.73206 -16 4.5
      vertex 6.5 -15.5981 4.5
      vertex 5 -13 4.5
    endloop
  endfacet
  facet normal -0 0 1
    outer loop
      vertex 4.73206 -16 4.5
      vertex 12 -18 4.5
      vertex 6.5 -15.5981 4.5
    endloop
  endfacet
  facet normal -0 0 1
    outer loop
      vertex -4.73206 -16 4.5
      vertex 12 -18 4.5
      vertex 4.73206 -16 4.5
    endloop
  endfacet
  facet normal 0 0 1
    outer loop
      vertex -3 -13 4.5
      vertex -6.57342 -13.4635 4.5
      vertex -4.73206 -16 4.5
    endloop
  endfacet
  facet normal -0 0 1
    outer loop
      vertex -8 -14.5 4.5
      vertex -4.73206 -16 4.5
      vertex -6.57342 -13.4635 4.5
    endloop
  endfacet
  facet normal -0 0 1
    outer loop
      vertex -13 -11 4.5
      vertex -8.88168 -11.7865 4.5
      vertex -10.4019 -9.5 4.5
    endloop
  endfacet
  facet normal 0 0 1
    outer loop
      vertex -4.73206 -16 4.5
      vertex -12 -18 4.5
      vertex 12 -18 4.5
    endloop
  endfacet
  facet normal 0 0 1
    outer loop
      vertex -8 -14.5 4.5
      vertex -12 -18 4.5
      vertex -4.73206 -16 4.5
    endloop
  endfacet
  facet normal 0 0 1
    outer loop
      vertex -9.42658 -13.4635 4.5
      vertex -12 -18 4.5
      vertex -8 -14.5 4.5
    endloop
  endfacet
  facet normal 0 0 1
    outer loop
      vertex -8.88168 -11.7865 4.5
      vertex -13 -11 4.5
      vertex -9.42658 -13.4635 4.5
    endloop
  endfacet
  facet normal 0 0 1
    outer loop
      vertex -9.42658 -13.4635 4.5
      vertex -13 -11 4.5
      vertex -12 -18 4.5
    endloop
  endfacet
  facet normal 0 0 1
    outer loop
      vertex -18 -12 4.5
      vertex -13 -11 4.5
      vertex -15.5981 -9.5 4.5
    endloop
  endfacet
  facet normal 0 0 1
    outer loop
      vertex -18 -12 4.5
      vertex -16 -4.73206 4.5
      vertex -18 12 4.5
    endloop
  endfacet
  facet normal 0 0 1
    outer loop
      vertex -13 -11 4.5
      vertex -18 -12 4.5
      vertex -12 -18 4.5
    endloop
  endfacet
  facet normal 0 0 1
    outer loop
      vertex -16 -4.73206 4.5
      vertex -18 -12 4.5
      vertex -15.5981 -9.5 4.5
    endloop
  endfacet
  facet normal 0 0 1
    outer loop
      vertex 18 12 4.5
      vertex 15.5981 6.5 4.5
      vertex 16 4.73206 4.5
    endloop
  endfacet
  facet normal -0 0 1
    outer loop
      vertex 13 5 4.5
      vertex 16 4.73206 4.5
      vertex 15.5981 6.5 4.5
    endloop
  endfacet
  facet normal 0 0 1
    outer loop
      vertex 13 5 4.5
      vertex 13 3 4.5
      vertex 16 4.73206 4.5
    endloop
  endfacet
  facet normal 0 0 1
    outer loop
      vertex 10.4019 6.5 4.5
      vertex 13 3 4.5
      vertex 13 5 4.5
    endloop
  endfacet
  facet normal 0 0 1
    outer loop
      vertex 8.66986 8.66986 4.5
      vertex 10.4019 9.5 4.5
      vertex 8.88168 11.7865 4.5
    endloop
  endfacet
  facet normal 0 0 1
    outer loop
      vertex 10.4019 9.5 4.5
      vertex 8.66986 8.66986 4.5
      vertex 10.4019 6.5 4.5
    endloop
  endfacet
  facet normal 0 0 1
    outer loop
      vertex 8.66986 5.5 4.5
      vertex 10.4019 6.5 4.5
      vertex 8.66986 8.66986 4.5
    endloop
  endfacet
  facet normal 0 0 1
    outer loop
      vertex 10.4019 6.5 4.5
      vertex 8.66986 5.5 4.5
      vertex 13 3 4.5
    endloop
  endfacet
  facet normal 0 0 1
    outer loop
      vertex 7.11832 11.7865 4.5
      vertex 3 13 4.5
      vertex 5.5 8.66986 4.5
    endloop
  endfacet
  facet normal 0 0 1
    outer loop
      vertex -5 13 4.5
      vertex -3 13 4.5
      vertex -4.73206 16 4.5
    endloop
  endfacet
  facet normal -0 0 1
    outer loop
      vertex -5 13 4.5
      vertex -5.5 8.66986 4.5
      vertex -3 13 4.5
    endloop
  endfacet
  facet normal -0 0 1
    outer loop
      vertex -6.5 10.4019 4.5
      vertex -5.5 8.66986 4.5
      vertex -5 13 4.5
    endloop
  endfacet
  facet normal 0 0 1
    outer loop
      vertex -6.5 10.4019 4.5
      vertex -8.66986 8.66986 4.5
      vertex -5.5 8.66986 4.5
    endloop
  endfacet
  facet normal -0 0 1
    outer loop
      vertex -9.5 10.4019 4.5
      vertex -8.66986 8.66986 4.5
      vertex -6.5 10.4019 4.5
    endloop
  endfacet
  facet normal -0 0 1
    outer loop
      vertex -11.7865 8.88168 4.5
      vertex -8.66986 8.66986 4.5
      vertex -9.5 10.4019 4.5
    endloop
  endfacet
  facet normal 0 0 1
    outer loop
      vertex -11.7865 8.88168 4.5
      vertex -9.5 10.4019 4.5
      vertex -11 13 4.5
    endloop
  endfacet
  facet normal 0 0 1
    outer loop
      vertex -8.66986 8.66986 4.5
      vertex -11.7865 8.88168 4.5
      vertex -11.7865 7.11832 4.5
    endloop
  endfacet
  facet normal 0 0 1
    outer loop
      vertex -8.66986 8.66986 4.5
      vertex -11.7865 7.11832 4.5
      vertex -8.66986 5.5 4.5
    endloop
  endfacet
  facet normal 0 0 1
    outer loop
      vertex -11.7865 7.11832 4.5
      vertex -13 3 4.5
      vertex -8.66986 5.5 4.5
    endloop
  endfacet
  facet normal -0 0 1
    outer loop
      vertex -13.4635 6.57342 4.5
      vertex -13 3 4.5
      vertex -11.7865 7.11832 4.5
    endloop
  endfacet
  facet normal 0 0 1
    outer loop
      vertex -16 4.73206 4.5
      vertex -13.4635 6.57342 4.5
      vertex -14.5 8 4.5
    endloop
  endfacet
  facet normal 0 0 1
    outer loop
      vertex -13.4635 6.57342 4.5
      vertex -16 4.73206 4.5
      vertex -13 3 4.5
    endloop
  endfacet
  facet normal -0 0 1
    outer loop
      vertex -10.4019 -6.5 4.5
      vertex -8.66986 -8.66986 4.5
      vertex -8.66986 -5.5 4.5
    endloop
  endfacet
  facet normal 0 0 1
    outer loop
      vertex -10.4019 -9.5 4.5
      vertex -8.66986 -8.66986 4.5
      vertex -10.4019 -6.5 4.5
    endloop
  endfacet
  facet normal 0 0 1
    outer loop
      vertex -8.66986 -8.66986 4.5
      vertex -10.4019 -9.5 4.5
      vertex -8.88168 -11.7865 4.5
    endloop
  endfacet
  facet normal 0 0 1
    outer loop
      vertex -13 -3 4.5
      vertex -10.4019 -6.5 4.5
      vertex -8.66986 -5.5 4.5
    endloop
  endfacet
  facet normal 0 0 1
    outer loop
      vertex -13 -3 4.5
      vertex -13 -5 4.5
      vertex -10.4019 -6.5 4.5
    endloop
  endfacet
  facet normal -0 0 1
    outer loop
      vertex -16 -4.73206 4.5
      vertex -13 -5 4.5
      vertex -13 -3 4.5
    endloop
  endfacet
  facet normal 0 0 1
    outer loop
      vertex -15.5981 -6.5 4.5
      vertex -16 -4.73206 4.5
      vertex -15.5981 -9.5 4.5
    endloop
  endfacet
  facet normal 0 0 1
    outer loop
      vertex -13 -5 4.5
      vertex -16 -4.73206 4.5
      vertex -15.5981 -6.5 4.5
    endloop
  endfacet
  facet normal 0 0 1
    outer loop
      vertex -3 -13 4.5
      vertex -7.11832 -11.7865 4.5
      vertex -6.57342 -13.4635 4.5
    endloop
  endfacet
  facet normal -0 0 1
    outer loop
      vertex -8.66986 -8.66986 4.5
      vertex -7.11832 -11.7865 4.5
      vertex -5.5 -8.66986 4.5
    endloop
  endfacet
  facet normal 0 0 1
    outer loop
      vertex -7.11832 -11.7865 4.5
      vertex -8.66986 -8.66986 4.5
      vertex -8.88168 -11.7865 4.5
    endloop
  endfacet
  facet normal 1 -0 0
    outer loop
      vertex 18 -12 4.5
      vertex 18 12 -4.5
      vertex 18 12 4.5
    endloop
  endfacet
  facet normal 1 0 0
    outer loop
      vertex 18 12 -4.5
      vertex 18 -12 4.5
      vertex 18 -12 -4.5
    endloop
  endfacet
  facet normal 0.707107 0.707107 0
    outer loop
      vertex 18 12 4.5
      vertex 12 18 -4.5
      vertex 12 18 4.5
    endloop
  endfacet
  facet normal 0.707107 0.707107 0
    outer loop
      vertex 12 18 -4.5
      vertex 18 12 4.5
      vertex 18 12 -4.5
    endloop
  endfacet
  facet normal 0 1 0
    outer loop
      vertex 12 18 4.5
      vertex 0 18 2.5
      vertex -12 18 4.5
    endloop
  endfacet
  facet normal 0 1 0
    outer loop
      vertex 12 18 4.5
      vertex 1.76777 18 1.76777
      vertex 0 18 2.5
    endloop
  endfacet
  facet normal 0 1 0
    outer loop
      vertex 12 18 4.5
      vertex 2.5 18 0
      vertex 1.76777 18 1.76777
    endloop
  endfacet
  facet normal 0 1 -0
    outer loop
      vertex 12 18 -4.5
      vertex 2.5 18 0
      vertex 12 18 4.5
    endloop
  endfacet
  facet normal 0 1 0
    outer loop
      vertex 1.76777 18 -1.76777
      vertex 12 18 -4.5
      vertex 0 18 -2.5
    endloop
  endfacet
  facet normal 0 1 0
    outer loop
      vertex 2.5 18 0
      vertex 12 18 -4.5
      vertex 1.76777 18 -1.76777
    endloop
  endfacet
  facet normal 0 1 -0
    outer loop
      vertex -1.76777 18 1.76777
      vertex -12 18 4.5
      vertex 0 18 2.5
    endloop
  endfacet
  facet normal 0 1 -0
    outer loop
      vertex -2.5 18 0
      vertex -12 18 4.5
      vertex -1.76777 18 1.76777
    endloop
  endfacet
  facet normal 0 1 0
    outer loop
      vertex -12 18 -4.5
      vertex -2.5 18 0
      vertex -1.76777 18 -1.76777
    endloop
  endfacet
  facet normal 0 1 0
    outer loop
      vertex -2.5 18 0
      vertex -12 18 -4.5
      vertex -12 18 4.5
    endloop
  endfacet
  facet normal 0 1 0
    outer loop
      vertex 0 18 -2.5
      vertex -12 18 -4.5
      vertex -1.76777 18 -1.76777
    endloop
  endfacet
  facet normal 0 1 0
    outer loop
      vertex -12 18 -4.5
      vertex 0 18 -2.5
      vertex 12 18 -4.5
    endloop
  endfacet
  facet normal -0.707107 0.707107 0
    outer loop
      vertex -18 12 -4.5
      vertex -12 18 4.5
      vertex -12 18 -4.5
    endloop
  endfacet
  facet normal -0.707107 0.707107 0
    outer loop
      vertex -12 18 4.5
      vertex -18 12 -4.5
      vertex -18 12 4.5
    endloop
  endfacet
  facet normal -1 0 0
    outer loop
      vertex -18 -12 -4.5
      vertex -18 12 4.5
      vertex -18 12 -4.5
    endloop
  endfacet
  facet normal -1 -0 0
    outer loop
      vertex -18 12 4.5
      vertex -18 -12 -4.5
      vertex -18 -12 4.5
    endloop
  endfacet
  facet normal -0.707107 -0.707107 0
    outer loop
      vertex -12 -18 -4.5
      vertex -18 -12 4.5
      vertex -18 -12 -4.5
    endloop
  endfacet
  facet normal -0.707107 -0.707107 0
    outer loop
      vertex -18 -12 4.5
      vertex -12 -18 -4.5
      vertex -12 -18 4.5
    endloop
  endfacet
  facet normal 0 -1 0
    outer loop
      vertex -12 -18 4.5
      vertex 0 -18 2.5
      vertex 12 -18 4.5
    endloop
  endfacet
  facet normal 0 -1 0
    outer loop
      vertex -12 -18 4.5
      vertex -1.76777 -18 1.76777
      vertex 0 -18 2.5
    endloop
  endfacet
  facet normal 0 -1 0
    outer loop
      vertex -12 -18 4.5
      vertex -2.5 -18 0
      vertex -1.76777 -18 1.76777
    endloop
  endfacet
  facet normal 0 -1 0
    outer loop
      vertex -12 -18 -4.5
      vertex -2.5 -18 0
      vertex -12 -18 4.5
    endloop
  endfacet
  facet normal 0 -1 -0
    outer loop
      vertex -1.76777 -18 -1.76777
      vertex -12 -18 -4.5
      vertex 0 -18 -2.5
    endloop
  endfacet
  facet normal 0 -1 -0
    outer loop
      vertex -2.5 -18 0
      vertex -12 -18 -4.5
      vertex -1.76777 -18 -1.76777
    endloop
  endfacet
  facet normal 0 -1 0
    outer loop
      vertex 1.76777 -18 1.76777
      vertex 12 -18 4.5
      vertex 0 -18 2.5
    endloop
  endfacet
  facet normal 0 -1 0
    outer loop
      vertex 2.5 -18 0
      vertex 12 -18 4.5
      vertex 1.76777 -18 1.76777
    endloop
  endfacet
  facet normal 0 -1 0
    outer loop
      vertex 12 -18 -4.5
      vertex 2.5 -18 0
      vertex 1.76777 -18 -1.76777
    endloop
  endfacet
  facet normal 0 -1 0
    outer loop
      vertex 2.5 -18 0
      vertex 12 -18 -4.5
      vertex 12 -18 4.5
    endloop
  endfacet
  facet normal 0 -1 0
    outer loop
      vertex 0 -18 -2.5
      vertex 12 -18 -4.5
      vertex 1.76777 -18 -1.76777
    endloop
  endfacet
  facet normal 0 -1 0
    outer loop
      vertex 12 -18 -4.5
      vertex 0 -18 -2.5
      vertex -12 -18 -4.5
    endloop
  endfacet
  facet normal 0.707107 -0.707107 0
    outer loop
      vertex 12 -18 4.5
      vertex 18 -12 -4.5
      vertex 18 -12 4.5
    endloop
  endfacet
  facet normal 0.707107 -0.707107 0
    outer loop
      vertex 18 -12 -4.5
      vertex 12 -18 4.5
      vertex 12 -18 -4.5
    endloop
  endfacet
  facet normal 0.866024 -0.500002 0
    outer loop
      vertex -4.73206 -16 4.5
      vertex -3 -13 -4.5
      vertex -3 -13 4.5
    endloop
  endfacet
  facet normal 0.866024 -0.500002 0
    outer loop
      vertex -3 -13 -4.5
      vertex -4.73206 -16 4.5
      vertex -4.73206 -16 -4.5
    endloop
  endfacet
  facet normal 0.866026 0.499999 0
    outer loop
      vertex -3 -13 4.5
      vertex -5.5 -8.66986 -4.5
      vertex -5.5 -8.66986 4.5
    endloop
  endfacet
  facet normal 0.866026 0.499999 0
    outer loop
      vertex -5.5 -8.66986 -4.5
      vertex -3 -13 4.5
      vertex -3 -13 -4.5
    endloop
  endfacet
  facet normal 0 1 -0
    outer loop
      vertex -5.5 -8.66986 -4.5
      vertex -8.66986 -8.66986 4.5
      vertex -5.5 -8.66986 4.5
    endloop
  endfacet
  facet normal 0 1 0
    outer loop
      vertex -8.66986 -8.66986 4.5
      vertex -5.5 -8.66986 -4.5
      vertex -8.66986 -8.66986 -4.5
    endloop
  endfacet
  facet normal 1 -0 0
    outer loop
      vertex -8.66986 -8.66986 4.5
      vertex -8.66986 -5.5 -4.5
      vertex -8.66986 -5.5 4.5
    endloop
  endfacet
  facet normal 1 0 0
    outer loop
      vertex -8.66986 -5.5 -4.5
      vertex -8.66986 -8.66986 4.5
      vertex -8.66986 -8.66986 -4.5
    endloop
  endfacet
  facet normal 0.499999 0.866026 -0
    outer loop
      vertex -8.66986 -5.5 -4.5
      vertex -13 -3 4.5
      vertex -8.66986 -5.5 4.5
    endloop
  endfacet
  facet normal 0.499999 0.866026 0
    outer loop
      vertex -13 -3 4.5
      vertex -8.66986 -5.5 -4.5
      vertex -13 -3 -4.5
    endloop
  endfacet
  facet normal -0.500002 0.866024 0
    outer loop
      vertex -13 -3 -4.5
      vertex -16 -4.73206 4.5
      vertex -13 -3 4.5
    endloop
  endfacet
  facet normal -0.500002 0.866024 0
    outer loop
      vertex -16 -4.73206 4.5
      vertex -13 -3 -4.5
      vertex -16 -4.73206 -4.5
    endloop
  endfacet
  facet normal 1 -0 0
    outer loop
      vertex -16 -4.73206 4.5
      vertex -16 4.73206 -4.5
      vertex -16 4.73206 4.5
    endloop
  endfacet
  facet normal 1 0 0
    outer loop
      vertex -16 4.73206 -4.5
      vertex -16 -4.73206 4.5
      vertex -16 -4.73206 -4.5
    endloop
  endfacet
  facet normal -0.500002 -0.866024 0
    outer loop
      vertex -16 4.73206 -4.5
      vertex -13 3 4.5
      vertex -16 4.73206 4.5
    endloop
  endfacet
  facet normal -0.500002 -0.866024 -0
    outer loop
      vertex -13 3 4.5
      vertex -16 4.73206 -4.5
      vertex -13 3 -4.5
    endloop
  endfacet
  facet normal 0.499999 -0.866026 0
    outer loop
      vertex -13 3 -4.5
      vertex -8.66986 5.5 4.5
      vertex -13 3 4.5
    endloop
  endfacet
  facet normal 0.499999 -0.866026 0
    outer loop
      vertex -8.66986 5.5 4.5
      vertex -13 3 -4.5
      vertex -8.66986 5.5 -4.5
    endloop
  endfacet
  facet normal 1 -0 0
    outer loop
      vertex -8.66986 5.5 4.5
      vertex -8.66986 8.66986 -4.5
      vertex -8.66986 8.66986 4.5
    endloop
  endfacet
  facet normal 1 0 0
    outer loop
      vertex -8.66986 8.66986 -4.5
      vertex -8.66986 5.5 4.5
      vertex -8.66986 5.5 -4.5
    endloop
  endfacet
  facet normal 0 -1 0
    outer loop
      vertex -8.66986 8.66986 -4.5
      vertex -5.5 8.66986 4.5
      vertex -8.66986 8.66986 4.5
    endloop
  endfacet
  facet normal 0 -1 -0
    outer loop
      vertex -5.5 8.66986 4.5
      vertex -8.66986 8.66986 -4.5
      vertex -5.5 8.66986 -4.5
    endloop
  endfacet
  facet normal 0.866026 -0.499999 0
    outer loop
      vertex -5.5 8.66986 4.5
      vertex -3 13 -4.5
      vertex -3 13 4.5
    endloop
  endfacet
  facet normal 0.866026 -0.499999 0
    outer loop
      vertex -3 13 -4.5
      vertex -5.5 8.66986 4.5
      vertex -5.5 8.66986 -4.5
    endloop
  endfacet
  facet normal 0.866024 0.500002 0
    outer loop
      vertex -3 13 4.5
      vertex -4.73206 16 -4.5
      vertex -4.73206 16 4.5
    endloop
  endfacet
  facet normal 0.866024 0.500002 0
    outer loop
      vertex -4.73206 16 -4.5
      vertex -3 13 4.5
      vertex -3 13 -4.5
    endloop
  endfacet
  facet normal 0 -1 0
    outer loop
      vertex -4.73206 16 4.5
      vertex 0 16 2.5
      vertex 4.73206 16 4.5
    endloop
  endfacet
  facet normal 0 -1 0
    outer loop
      vertex -4.73206 16 4.5
      vertex -1.76777 16 1.76777
      vertex 0 16 2.5
    endloop
  endfacet
  facet normal 0 -1 0
    outer loop
      vertex -4.73206 16 4.5
      vertex -2.5 16 0
      vertex -1.76777 16 1.76777
    endloop
  endfacet
  facet normal 0 -1 0
    outer loop
      vertex -4.73206 16 -4.5
      vertex -2.5 16 0
      vertex -4.73206 16 4.5
    endloop
  endfacet
  facet normal 0 -1 -0
    outer loop
      vertex -1.76777 16 -1.76777
      vertex -4.73206 16 -4.5
      vertex 0 16 -2.5
    endloop
  endfacet
  facet normal 0 -1 -0
    outer loop
      vertex -2.5 16 0
      vertex -4.73206 16 -4.5
      vertex -1.76777 16 -1.76777
    endloop
  endfacet
  facet normal 0 -1 0
    outer loop
      vertex 1.76777 16 1.76777
      vertex 4.73206 16 4.5
      vertex 0 16 2.5
    endloop
  endfacet
  facet normal 0 -1 0
    outer loop
      vertex 2.5 16 0
      vertex 4.73206 16 4.5
      vertex 1.76777 16 1.76777
    endloop
  endfacet
  facet normal 0 -1 0
    outer loop
      vertex 4.73206 16 -4.5
      vertex 2.5 16 0
      vertex 1.76777 16 -1.76777
    endloop
  endfacet
  facet normal 0 -1 0
    outer loop
      vertex 4.73206 16 -4.5
      vertex 0 16 -2.5
      vertex -4.73206 16 -4.5
    endloop
  endfacet
  facet normal 0 -1 0
    outer loop
      vertex 2.5 16 0
      vertex 4.73206 16 -4.5
      vertex 4.73206 16 4.5
    endloop
  endfacet
  facet normal 0 -1 0
    outer loop
      vertex 0 16 -2.5
      vertex 4.73206 16 -4.5
      vertex 1.76777 16 -1.76777
    endloop
  endfacet
  facet normal -0.866024 0.500002 0
    outer loop
      vertex 3 13 -4.5
      vertex 4.73206 16 4.5
      vertex 4.73206 16 -4.5
    endloop
  endfacet
  facet normal -0.866024 0.500002 0
    outer loop
      vertex 4.73206 16 4.5
      vertex 3 13 -4.5
      vertex 3 13 4.5
    endloop
  endfacet
  facet normal -0.866026 -0.499999 0
    outer loop
      vertex 5.5 8.66986 -4.5
      vertex 3 13 4.5
      vertex 3 13 -4.5
    endloop
  endfacet
  facet normal -0.866026 -0.499999 0
    outer loop
      vertex 3 13 4.5
      vertex 5.5 8.66986 -4.5
      vertex 5.5 8.66986 4.5
    endloop
  endfacet
  facet normal 0 -1 0
    outer loop
      vertex 5.5 8.66986 -4.5
      vertex 8.66986 8.66986 4.5
      vertex 5.5 8.66986 4.5
    endloop
  endfacet
  facet normal 0 -1 -0
    outer loop
      vertex 8.66986 8.66986 4.5
      vertex 5.5 8.66986 -4.5
      vertex 8.66986 8.66986 -4.5
    endloop
  endfacet
  facet normal -1 0 0
    outer loop
      vertex 8.66986 5.5 -4.5
      vertex 8.66986 8.66986 4.5
      vertex 8.66986 8.66986 -4.5
    endloop
  endfacet
  facet normal -1 -0 0
    outer loop
      vertex 8.66986 8.66986 4.5
      vertex 8.66986 5.5 -4.5
      vertex 8.66986 5.5 4.5
    endloop
  endfacet
  facet normal -0.499999 -0.866026 0
    outer loop
      vertex 8.66986 5.5 -4.5
      vertex 13 3 4.5
      vertex 8.66986 5.5 4.5
    endloop
  endfacet
  facet normal -0.499999 -0.866026 -0
    outer loop
      vertex 13 3 4.5
      vertex 8.66986 5.5 -4.5
      vertex 13 3 -4.5
    endloop
  endfacet
  facet normal 0.500002 -0.866024 0
    outer loop
      vertex 13 3 -4.5
      vertex 16 4.73206 4.5
      vertex 13 3 4.5
    endloop
  endfacet
  facet normal 0.500002 -0.866024 0
    outer loop
      vertex 16 4.73206 4.5
      vertex 13 3 -4.5
      vertex 16 4.73206 -4.5
    endloop
  endfacet
  facet normal -1 0 0
    outer loop
      vertex 16 -4.73206 -4.5
      vertex 16 4.73206 4.5
      vertex 16 4.73206 -4.5
    endloop
  endfacet
  facet normal -1 -0 0
    outer loop
      vertex 16 4.73206 4.5
      vertex 16 -4.73206 -4.5
      vertex 16 -4.73206 4.5
    endloop
  endfacet
  facet normal 0.500002 0.866024 -0
    outer loop
      vertex 16 -4.73206 -4.5
      vertex 13 -3 4.5
      vertex 16 -4.73206 4.5
    endloop
  endfacet
  facet normal 0.500002 0.866024 0
    outer loop
      vertex 13 -3 4.5
      vertex 16 -4.73206 -4.5
      vertex 13 -3 -4.5
    endloop
  endfacet
  facet normal -0.499999 0.866026 0
    outer loop
      vertex 13 -3 -4.5
      vertex 8.66986 -5.5 4.5
      vertex 13 -3 4.5
    endloop
  endfacet
  facet normal -0.499999 0.866026 0
    outer loop
      vertex 8.66986 -5.5 4.5
      vertex 13 -3 -4.5
      vertex 8.66986 -5.5 -4.5
    endloop
  endfacet
  facet normal -1 0 0
    outer loop
      vertex 8.66986 -8.66986 -4.5
      vertex 8.66986 -5.5 4.5
      vertex 8.66986 -5.5 -4.5
    endloop
  endfacet
  facet normal -1 -0 0
    outer loop
      vertex 8.66986 -5.5 4.5
      vertex 8.66986 -8.66986 -4.5
      vertex 8.66986 -8.66986 4.5
    endloop
  endfacet
  facet normal 0 1 -0
    outer loop
      vertex 8.66986 -8.66986 -4.5
      vertex 5.5 -8.66986 4.5
      vertex 8.66986 -8.66986 4.5
    endloop
  endfacet
  facet normal 0 1 0
    outer loop
      vertex 5.5 -8.66986 4.5
      vertex 8.66986 -8.66986 -4.5
      vertex 5.5 -8.66986 -4.5
    endloop
  endfacet
  facet normal -0.866026 0.499999 0
    outer loop
      vertex 3 -13 -4.5
      vertex 5.5 -8.66986 4.5
      vertex 5.5 -8.66986 -4.5
    endloop
  endfacet
  facet normal -0.866026 0.499999 0
    outer loop
      vertex 5.5 -8.66986 4.5
      vertex 3 -13 -4.5
      vertex 3 -13 4.5
    endloop
  endfacet
  facet normal -0.866024 -0.500002 0
    outer loop
      vertex 4.73206 -16 -4.5
      vertex 3 -13 4.5
      vertex 3 -13 -4.5
    endloop
  endfacet
  facet normal -0.866024 -0.500002 0
    outer loop
      vertex 3 -13 4.5
      vertex 4.73206 -16 -4.5
      vertex 4.73206 -16 4.5
    endloop
  endfacet
  facet normal 0 1 0
    outer loop
      vertex 4.73206 -16 4.5
      vertex 0 -16 2.5
      vertex -4.73206 -16 4.5
    endloop
  endfacet
  facet normal 0 1 0
    outer loop
      vertex 4.73206 -16 4.5
      vertex 1.76777 -16 1.76777
      vertex 0 -16 2.5
    endloop
  endfacet
  facet normal 0 1 0
    outer loop
      vertex 4.73206 -16 4.5
      vertex 2.5 -16 0
      vertex 1.76777 -16 1.76777
    endloop
  endfacet
  facet normal 0 1 -0
    outer loop
      vertex 4.73206 -16 -4.5
      vertex 2.5 -16 0
      vertex 4.73206 -16 4.5
    endloop
  endfacet
  facet normal 0 1 0
    outer loop
      vertex 1.76777 -16 -1.76777
      vertex 4.73206 -16 -4.5
      vertex 0 -16 -2.5
    endloop
  endfacet
  facet normal 0 1 0
    outer loop
      vertex 2.5 -16 0
      vertex 4.73206 -16 -4.5
      vertex 1.76777 -16 -1.76777
    endloop
  endfacet
  facet normal 0 1 -0
    outer loop
      vertex -1.76777 -16 1.76777
      vertex -4.73206 -16 4.5
      vertex 0 -16 2.5
    endloop
  endfacet
  facet normal 0 1 -0
    outer loop
      vertex -2.5 -16 0
      vertex -4.73206 -16 4.5
      vertex -1.76777 -16 1.76777
    endloop
  endfacet
  facet normal 0 1 0
    outer loop
      vertex -4.73206 -16 -4.5
      vertex -2.5 -16 0
      vertex -1.76777 -16 -1.76777
    endloop
  endfacet
  facet normal 0 1 0
    outer loop
      vertex -4.73206 -16 -4.5
      vertex 0 -16 -2.5
      vertex 4.73206 -16 -4.5
    endloop
  endfacet
  facet normal 0 1 0
    outer loop
      vertex -2.5 -16 0
      vertex -4.73206 -16 -4.5
      vertex -4.73206 -16 4.5
    endloop
  endfacet
  facet normal 0 1 0
    outer loop
      vertex 0 -16 -2.5
      vertex -4.73206 -16 -4.5
      vertex -1.76777 -16 -1.76777
    endloop
  endfacet
  facet normal -0.382682 0 -0.92388
    outer loop
      vertex 0 16 2.5
      vertex 1.76777 18 1.76777
      vertex 1.76777 16 1.76777
    endloop
  endfacet
  facet normal -0.382682 0 -0.92388
    outer loop
      vertex 1.76777 18 1.76777
      vertex 0 16 2.5
      vertex 0 18 2.5
    endloop
  endfacet
  facet normal -0.382682 0 -0.92388
    outer loop
      vertex 0 -18 2.5
      vertex 1.76777 -16 1.76777
      vertex 1.76777 -18 1.76777
    endloop
  endfacet
  facet normal -0.382682 0 -0.92388
    outer loop
      vertex 1.76777 -16 1.76777
      vertex 0 -18 2.5
      vertex 0 -16 2.5
    endloop
  endfacet
  facet normal -0.92388 0 -0.382682
    outer loop
      vertex 2.5 16 0
      vertex 1.76777 18 1.76777
      vertex 2.5 18 0
    endloop
  endfacet
  facet normal -0.92388 -0 -0.382682
    outer loop
      vertex 1.76777 18 1.76777
      vertex 2.5 16 0
      vertex 1.76777 16 1.76777
    endloop
  endfacet
  facet normal -0.92388 0 -0.382682
    outer loop
      vertex 2.5 -18 0
      vertex 1.76777 -16 1.76777
      vertex 2.5 -16 0
    endloop
  endfacet
  facet normal -0.92388 -0 -0.382682
    outer loop
      vertex 1.76777 -16 1.76777
      vertex 2.5 -18 0
      vertex 1.76777 -18 1.76777
    endloop
  endfacet
  facet normal -0.382682 0 0.92388
    outer loop
      vertex 0 18 -2.5
      vertex 1.76777 16 -1.76777
      vertex 1.76777 18 -1.76777
    endloop
  endfacet
  facet normal -0.382682 0 0.92388
    outer loop
      vertex 1.76777 16 -1.76777
      vertex 0 18 -2.5
      vertex 0 16 -2.5
    endloop
  endfacet
  facet normal -0.382682 0 0.92388
    outer loop
      vertex 0 -16 -2.5
      vertex 1.76777 -18 -1.76777
      vertex 1.76777 -16 -1.76777
    endloop
  endfacet
  facet normal -0.382682 0 0.92388
    outer loop
      vertex 1.76777 -18 -1.76777
      vertex 0 -16 -2.5
      vertex 0 -18 -2.5
    endloop
  endfacet
  facet normal -0.92388 0 0.382682
    outer loop
      vertex 1.76777 16 -1.76777
      vertex 2.5 18 0
      vertex 1.76777 18 -1.76777
    endloop
  endfacet
  facet normal -0.92388 0 0.382682
    outer loop
      vertex 2.5 18 0
      vertex 1.76777 16 -1.76777
      vertex 2.5 16 0
    endloop
  endfacet
  facet normal -0.92388 0 0.382682
    outer loop
      vertex 1.76777 -18 -1.76777
      vertex 2.5 -16 0
      vertex 1.76777 -16 -1.76777
    endloop
  endfacet
  facet normal -0.92388 0 0.382682
    outer loop
      vertex 2.5 -16 0
      vertex 1.76777 -18 -1.76777
      vertex 2.5 -18 0
    endloop
  endfacet
  facet normal 0.92388 -0 0.382682
    outer loop
      vertex -2.5 16 0
      vertex -1.76777 18 -1.76777
      vertex -2.5 18 0
    endloop
  endfacet
  facet normal 0.92388 0 0.382682
    outer loop
      vertex -1.76777 18 -1.76777
      vertex -2.5 16 0
      vertex -1.76777 16 -1.76777
    endloop
  endfacet
  facet normal 0.92388 -0 0.382682
    outer loop
      vertex -2.5 -18 0
      vertex -1.76777 -16 -1.76777
      vertex -2.5 -16 0
    endloop
  endfacet
  facet normal 0.92388 0 0.382682
    outer loop
      vertex -1.76777 -16 -1.76777
      vertex -2.5 -18 0
      vertex -1.76777 -18 -1.76777
    endloop
  endfacet
  facet normal 0.382682 0 0.92388
    outer loop
      vertex -1.76777 18 -1.76777
      vertex 0 16 -2.5
      vertex 0 18 -2.5
    endloop
  endfacet
  facet normal 0.382682 0 0.92388
    outer loop
      vertex 0 16 -2.5
      vertex -1.76777 18 -1.76777
      vertex -1.76777 16 -1.76777
    endloop
  endfacet
  facet normal 0.382682 0 0.92388
    outer loop
      vertex -1.76777 -16 -1.76777
      vertex 0 -18 -2.5
      vertex 0 -16 -2.5
    endloop
  endfacet
  facet normal 0.382682 0 0.92388
    outer loop
      vertex 0 -18 -2.5
      vertex -1.76777 -16 -1.76777
      vertex -1.76777 -18 -1.76777
    endloop
  endfacet
  facet normal 0.382682 0 -0.92388
    outer loop
      vertex -1.76777 16 1.76777
      vertex 0 18 2.5
      vertex 0 16 2.5
    endloop
  endfacet
  facet normal 0.382682 0 -0.92388
    outer loop
      vertex 0 18 2.5
      vertex -1.76777 16 1.76777
      vertex -1.76777 18 1.76777
    endloop
  endfacet
  facet normal 0.382682 0 -0.92388
    outer loop
      vertex -1.76777 -18 1.76777
      vertex 0 -16 2.5
      vertex 0 -18 2.5
    endloop
  endfacet
  facet normal 0.382682 0 -0.92388
    outer loop
      vertex 0 -16 2.5
      vertex -1.76777 -18 1.76777
      vertex -1.76777 -16 1.76777
    endloop
  endfacet
  facet normal 0.92388 0 -0.382682
    outer loop
      vertex -1.76777 16 1.76777
      vertex -2.5 18 0
      vertex -1.76777 18 1.76777
    endloop
  endfacet
  facet normal 0.92388 0 -0.382682
    outer loop
      vertex -2.5 18 0
      vertex -1.76777 16 1.76777
      vertex -2.5 16 0
    endloop
  endfacet
  facet normal 0.92388 0 -0.382682
    outer loop
      vertex -1.76777 -18 1.76777
      vertex -2.5 -16 0
      vertex -1.76777 -16 1.76777
    endloop
  endfacet
  facet normal 0.92388 0 -0.382682
    outer loop
      vertex -2.5 -16 0
      vertex -1.76777 -18 1.76777
      vertex -2.5 -18 0
    endloop
  endfacet
endsolid OpenSCAD_Model
