999
dxfrw 0.6.3
  0
SECTION
  2
HEADER
  9
$ACADVER
  1
AC1021
  9
$DWGCODEPAGE
  3
ANSI_1252
  9
$INSBASE
 10
0
 20
0
 30
0
  9
$EXTMIN
 10
-17.625
 20
-31.25
 30
0
  9
$EXTMAX
 10
31.25
 20
22.625
 30
0
  9
$LIMMIN
 10
0
 20
0
  9
$LIMMAX
 10
420
 20
297
  9
$ORTHOMODE
 70
    0
  9
$REGENMODE
 70
    1
  9
$FILLMODE
 70
    1
  9
$QTEXTMODE
 70
    0
  9
$MIRRTEXT
 70
    0
  9
$LTSCALE
 40
1
  9
$ATTMODE
 70
    0
  9
$TEXTSIZE
 40
2.5
  9
$TRACEWID
 40
15.68
  9
$TEXTSTYLE
  7
STANDARD
  9
$CLAYER
  8
DIMS
  9
$CELTYPE
  6
BYLAYER
  9
$CECOLOR
 62
  256
  9
$CELTSCALE
 40
1
  9
$DISPSILH
 70
    0
  9
$DIMSCALE
 40
1
  9
$DIMASZ
 40
2.5
  9
$DIMEXO
 40
0.625
  9
$DIMDLI
 40
3.75
  9
$DIMRND
 40
0
  9
$DIMDLE
 40
0
  9
$DIMEXE
 40
1.25
  9
$DIMTP
 40
0
  9
$DIMTM
 40
0
  9
$DIMTXT
 40
2
  9
$DIMCEN
 40
2.5
  9
$DIMTSZ
 40
0
  9
$DIMTOL
 70
    0
  9
$DIMLIM
 70
    0
  9
$DIMTIH
 70
    0
  9
$DIMTOH
 70
    0
  9
$DIMSE1
 70
    0
  9
$DIMSE2
 70
    0
  9
$DIMTAD
 70
    1
  9
$DIMZIN
 70
    1
  9
$DIMBLK
  1

  9
$DIMASO
 70
    1
  9
$DIMSHO
 70
    1
  9
$DIMPOST
  1

  9
$DIMAPOST
  1

  9
$DIMALT
 70
    0
  9
$DIMALTD
 70
    3
  9
$DIMALTF
 40
0.03937
  9
$DIMLFAC
 40
1
  9
$DIMTOFL
 70
    1
  9
$DIMTVP
 40
0
  9
$DIMTIX
 70
    0
  9
$DIMSOXD
 70
    0
  9
$DIMSAH
 70
    0
  9
$DIMBLK1
  1

  9
$DIMBLK2
  1

  9
$DIMSTYLE
  2
Standard
  9
$DIMCLRD
 70
    0
  9
$DIMCLRE
 70
    0
  9
$DIMCLRT
 70
    0
  9
$DIMTFAC
 40
1
  9
$DIMGAP
 40
0.625
  9
$DIMJUST
 70
    0
  9
$DIMSD1
 70
    0
  9
$DIMSD2
 70
    0
  9
$DIMTOLJ
 70
    0
  9
$DIMTZIN
 70
    8
  9
$DIMALTZ
 70
    0
  9
$DIMALTTZ
 70
    0
  9
$DIMUPT
 70
    0
  9
$DIMDEC
 70
    4
  9
$DIMTDEC
 70
    2
  9
$DIMALTU
 70
    2
  9
$DIMALTTD
 70
    3
  9
$DIMTXSTY
  7
standard
  9
$DIMAUNIT
 70
    0
  9
$DIMADEC
 70
    2
  9
$DIMALTRND
 40
0
  9
$DIMAZIN
 70
    0
  9
$DIMDSEP
 70
    0
  9
$DIMATFIT
 70
    3
  9
$DIMFRAC
 70
    0
  9
$DIMLDRBLK
  1
STANDARD
  9
$DIMLUNIT
 70
    2
  9
$DIMLWD
 70
   -2
  9
$DIMLWE
 70
   -2
  9
$DIMTMOVE
 70
    0
  9
$DIMFXL
 40
1
  9
$DIMFXLON
 70
    0
  9
$DIMJOGANG
 40
0.7854
  9
$DIMTFILL
 70
    0
  9
$DIMTFILLCLR
 70
    0
  9
$DIMARCSYM
 70
    0
  9
$DIMLTYPE
  6

  9
$DIMLTEX1
  6

  9
$DIMLTEX2
  6

  9
$LUNITS
 70
    2
  9
$LUPREC
 70
    0
  9
$SKETCHINC
 40
1
  9
$FILLETRAD
 40
0
  9
$AUNITS
 70
    0
  9
$AUPREC
 70
    2
  9
$MENU
  1
.
  9
$ELEVATION
 40
0
  9
$PELEVATION
 40
0
  9
$THICKNESS
 40
0
  9
$LIMCHECK
 70
    0
  9
$CHAMFERA
 40
0
  9
$CHAMFERB
 40
0
  9
$CHAMFERC
 40
0
  9
$CHAMFERD
 40
0
  9
$SKPOLY
 70
    0
  9
$USRTIMER
 70
    1
  9
$ANGBASE
 50
0
  9
$ANGDIR
 70
    0
  9
$PDMODE
 70
   34
  9
$PDSIZE
 40
0
  9
$PLINEWID
 40
0
  9
$SPLFRAME
 70
    0
  9
$SPLINETYPE
 70
    2
  9
$SPLINESEGS
 70
    8
  9
$HANDSEED
  5
20000
  9
$SURFTAB1
 70
    6
  9
$SURFTAB2
 70
    6
  9
$SURFTYPE
 70
    6
  9
$SURFU
 70
    6
  9
$SURFV
 70
    6
  9
$UCSBASE
  2

  9
$UCSNAME
  2

  9
$UCSORG
 10
0
 20
0
 30
0
  9
$UCSXDIR
 10
1
 20
0
 30
0
  9
$UCSYDIR
 10
0
 20
1
 30
0
  9
$UCSORTHOREF
  2

  9
$UCSORTHOVIEW
 70
    0
  9
$UCSORGTOP
 10
0
 20
0
 30
0
  9
$UCSORGBOTTOM
 10
0
 20
0
 30
0
  9
$UCSORGLEFT
 10
0
 20
0
 30
0
  9
$UCSORGRIGHT
 10
0
 20
0
 30
0
  9
$UCSORGFRONT
 10
0
 20
0
 30
0
  9
$UCSORGBACK
 10
0
 20
0
 30
0
  9
$PUCSBASE
  2

  9
$PUCSNAME
  2

  9
$PUCSORG
 10
0
 20
0
 30
0
  9
$PUCSXDIR
 10
1
 20
0
 30
0
  9
$PUCSYDIR
 10
0
 20
1
 30
0
  9
$PUCSORTHOREF
  2

  9
$PUCSORTHOVIEW
 70
    0
  9
$PUCSORGTOP
 10
0
 20
0
 30
0
  9
$PUCSORGBOTTOM
 10
0
 20
0
 30
0
  9
$PUCSORGLEFT
 10
0
 20
0
 30
0
  9
$PUCSORGRIGHT
 10
0
 20
0
 30
0
  9
$PUCSORGFRONT
 10
0
 20
0
 30
0
  9
$PUCSORGBACK
 10
0
 20
0
 30
0
  9
$USERI1
 70
    0
  9
$USERI2
 70
    0
  9
$USERI3
 70
    0
  9
$USERI4
 70
    0
  9
$USERI5
 70
    0
  9
$USERR1
 40
0
  9
$USERR2
 40
0
  9
$USERR3
 40
0
  9
$USERR4
 40
0
  9
$USERR5
 40
0
  9
$WORLDVIEW
 70
    1
  9
$SHADEDGE
 70
    3
  9
$SHADEDIF
 70
   70
  9
$TILEMODE
 70
    1
  9
$MAXACTVP
 70
   64
  9
$PINSBASE
 10
0
 20
0
 30
0
  9
$PLIMCHECK
 70
    0
  9
$PEXTMIN
 10
0
 20
0
 30
0
  9
$PEXTMAX
 10
0
 20
0
 30
0
  9
$GRIDMODE
 70
    1
  9
$SNAPSTYLE
 70
    0
  9
$GRIDUNIT
 10
0
 20
0
  9
$PLIMMIN
 10
0
 20
0
  9
$PLIMMAX
 10
210
 20
297
  9
$UNITMODE
 70
    0
  9
$VISRETAIN
 70
    1
  9
$PLINEGEN
 70
    0
  9
$PSLTSCALE
 70
    1
  9
$TREEDEPTH
 70
 3020
  9
$CMLSTYLE
  2
Standard
  9
$CMLJUST
 70
    0
  9
$CMLSCALE
 40
20
  9
$PROXYGRAPHICS
 70
    1
  9
$MEASUREMENT
 70
    1
  9
$CELWEIGHT
370
   -1
  9
$ENDCAPS
280
    0
  9
$JOINSTYLE
280
    0
  9
$LWDISPLAY
290
    0
  9
$INSUNITS
 70
    4
  9
$HYPERLINKBASE
  1

  9
$STYLESHEET
  1

  9
$XEDIT
290
    1
  9
$CEPSNTYPE
380
    0
  9
$PSTYLEMODE
290
    1
  9
$EXTNAMES
290
    1
  9
$PSVPSCALE
 40
1
  9
$OLESTARTUP
290
    0
  9
$SORTENTS
280
  127
  9
$INDEXCTL
280
    0
  9
$HIDETEXT
280
    1
  9
$XCLIPFRAME
290
    0
  9
$HALOGAP
280
    0
  9
$OBSCOLOR
 70
  257
  9
$OBSLTYPE
280
    0
  9
$INTERSECTIONDISPLAY
280
    0
  9
$INTERSECTIONCOLOR
 70
  257
  9
$DIMASSOC
280
    1
  9
$PROJECTNAME
  1

  9
$CAMERADISPLAY
290
    0
  9
$LENSLENGTH
 40
50
  9
$CAMERAHEIGHT
 40
0
  9
$STEPSPERSEC
 40
2
  9
$STEPSIZE
 40
50
  9
$3DDWFPREC
 40
2
  9
$PSOLWIDTH
 40
5
  9
$PSOLHEIGHT
 40
80
  9
$LOFTANG1
 40
1.570796326794897
  9
$LOFTANG2
 40
1.570796326794897
  9
$LOFTMAG1
 40
0
  9
$LOFTMAG2
 40
0
  9
$LOFTPARAM
 70
    7
  9
$LOFTNORMALS
280
    1
  9
$LATITUDE
 40
1
  9
$LONGITUDE
 40
1
  9
$NORTHDIRECTION
 40
0
  9
$TIMEZONE
 70
-8000
  9
$LIGHTGLYPHDISPLAY
280
    1
  9
$TILEMODELIGHTSYNCH
280
    1
  9
$SOLIDHIST
280
    1
  9
$SHOWHIST
280
    1
  9
$DWFFRAME
280
    2
  9
$DGNFRAME
280
    0
  9
$REALWORLDSCALE
290
    1
  9
$INTERFERECOLOR
 62
    1
  9
$CSHADOW
280
    0
  9
$SHADOWPLANELOCATION
 40
0
  0
ENDSEC
  0
SECTION
  2
CLASSES
  0
ENDSEC
  0
SECTION
  2
TABLES
  0
TABLE
  2
VPORT
  5
8
330
0
100
AcDbSymbolTable
 70
    1
  0
VPORT
  5
31
330
2
100
AcDbSymbolTableRecord
100
AcDbViewportTableRecord
  2
*ACTIVE
 70
    0
 10
0
 20
0
 11
1
 21
1
 12
16.55427605999061
 22
8.505390022114192
 13
0
 23
0
 14
10
 24
10
 15
10
 25
10
 16
0
 26
0
 36
1
 17
0
 27
0
 37
0
 40
39.25934264444799
 41
1.914320685434517
 42
50
 43
0
 44
0
 50
0
 51
0
 71
    0
 72
  100
 73
    1
 74
    3
 75
    0
 76
    1
 77
    0
 78
    0
281
    0
 65
    1
110
0
120
0
130
0
111
1
121
0
131
0
112
0
122
1
132
0
 79
    0
146
0
348
10020
 60
    7
 61
    5
292
1
282
    1
141
0
142
0
 63
  250
421
3358443
  0
ENDTAB
  0
TABLE
  2
LTYPE
  5
5
330
0
100
AcDbSymbolTable
 70
    4
  0
LTYPE
  5
14
330
5
100
AcDbSymbolTableRecord
100
AcDbLinetypeTableRecord
  2
ByBlock
 70
    0
  3

 72
   65
 73
    0
 40
0
  0
LTYPE
  5
15
330
5
100
AcDbSymbolTableRecord
100
AcDbLinetypeTableRecord
  2
ByLayer
 70
    0
  3

 72
   65
 73
    0
 40
0
  0
LTYPE
  5
16
330
5
100
AcDbSymbolTableRecord
100
AcDbLinetypeTableRecord
  2
Continuous
 70
    0
  3
Solid line
 72
   65
 73
    0
 40
0
  0
LTYPE
  5
32
330
5
100
AcDbSymbolTableRecord
100
AcDbLinetypeTableRecord
  2
DOT
 70
    0
  3
Dot . . . . . . . . . . . . . . . . . . . . . .
 72
   65
 73
    2
 40
6.35
 49
0
 74
    0
 49
-6.35
 74
    0
  0
LTYPE
  5
33
330
5
100
AcDbSymbolTableRecord
100
AcDbLinetypeTableRecord
  2
DOTTINY
 70
    0
  3
Dot (.15x) .....................................
 72
   65
 73
    2
 40
0.9525
 49
0
 74
    0
 49
-0.9525
 74
    0
  0
LTYPE
  5
34
330
5
100
AcDbSymbolTableRecord
100
AcDbLinetypeTableRecord
  2
DOT2
 70
    0
  3
Dot (.5x) .....................................
 72
   65
 73
    2
 40
3.175
 49
0
 74
    0
 49
-3.175
 74
    0
  0
LTYPE
  5
35
330
5
100
AcDbSymbolTableRecord
100
AcDbLinetypeTableRecord
  2
DOTX2
 70
    0
  3
Dot (2x) .  .  .  .  .  .  .  .  .  .  .  .  .
 72
   65
 73
    2
 40
12.7
 49
0
 74
    0
 49
-12.7
 74
    0
  0
LTYPE
  5
36
330
5
100
AcDbSymbolTableRecord
100
AcDbLinetypeTableRecord
  2
DASHED
 70
    0
  3
Dashed _ _ _ _ _ _ _ _ _ _ _ _ _ _ _ _ _
 72
   65
 73
    2
 40
19.05
 49
12.7
 74
    0
 49
-6.35
 74
    0
  0
LTYPE
  5
37
330
5
100
AcDbSymbolTableRecord
100
AcDbLinetypeTableRecord
  2
DASHEDTINY
 70
    0
  3
Dashed (.15x) _ _ _ _ _ _ _ _ _ _ _ _ _ _ _ _ _
 72
   65
 73
    2
 40
2.8575
 49
1.905
 74
    0
 49
-0.9525
 74
    0
  0
LTYPE
  5
38
330
5
100
AcDbSymbolTableRecord
100
AcDbLinetypeTableRecord
  2
DASHED2
 70
    0
  3
Dashed (.5x) _ _ _ _ _ _ _ _ _ _ _ _ _ _ _ _ _
 72
   65
 73
    2
 40
9.524999999999999
 49
6.35
 74
    0
 49
-3.175
 74
    0
  0
LTYPE
  5
39
330
5
100
AcDbSymbolTableRecord
100
AcDbLinetypeTableRecord
  2
DASHEDX2
 70
    0
  3
Dashed (2x) ____  ____  ____  ____  ____  ___
 72
   65
 73
    2
 40
38.09999999999999
 49
25.4
 74
    0
 49
-12.7
 74
    0
  0
LTYPE
  5
3A
330
5
100
AcDbSymbolTableRecord
100
AcDbLinetypeTableRecord
  2
DASHDOT
 70
    0
  3
Dash dot __ . __ . __ . __ . __ . __ . __ . __
 72
   65
 73
    4
 40
25.4
 49
12.7
 74
    0
 49
-6.35
 74
    0
 49
0
 74
    0
 49
-6.35
 74
    0
  0
LTYPE
  5
3B
330
5
100
AcDbSymbolTableRecord
100
AcDbLinetypeTableRecord
  2
DASHDOTTINY
 70
    0
  3
Dash dot (.15x) _._._._._._._._._._._._._._._.
 72
   65
 73
    4
 40
3.81
 49
1.905
 74
    0
 49
-0.9525
 74
    0
 49
0
 74
    0
 49
-0.9525
 74
    0
  0
LTYPE
  5
3C
330
5
100
AcDbSymbolTableRecord
100
AcDbLinetypeTableRecord
  2
DASHDOT2
 70
    0
  3
Dash dot (.5x) _._._._._._._._._._._._._._._.
 72
   65
 73
    4
 40
12.7
 49
6.35
 74
    0
 49
-3.175
 74
    0
 49
0
 74
    0
 49
-3.175
 74
    0
  0
LTYPE
  5
3D
330
5
100
AcDbSymbolTableRecord
100
AcDbLinetypeTableRecord
  2
DASHDOTX2
 70
    0
  3
Dash dot (2x) ____  .  ____  .  ____  .  ___
 72
   65
 73
    4
 40
50.8
 49
25.4
 74
    0
 49
-12.7
 74
    0
 49
0
 74
    0
 49
-12.7
 74
    0
  0
LTYPE
  5
3E
330
5
100
AcDbSymbolTableRecord
100
AcDbLinetypeTableRecord
  2
DIVIDE
 70
    0
  3
Divide ____ . . ____ . . ____ . . ____ . . ____
 72
   65
 73
    6
 40
31.75
 49
12.7
 74
    0
 49
-6.35
 74
    0
 49
0
 74
    0
 49
-6.35
 74
    0
 49
0
 74
    0
 49
-6.35
 74
    0
  0
LTYPE
  5
3F
330
5
100
AcDbSymbolTableRecord
100
AcDbLinetypeTableRecord
  2
DIVIDETINY
 70
    0
  3
Divide (.15x) __..__..__..__..__..__..__..__.._
 72
   65
 73
    6
 40
4.7625
 49
1.905
 74
    0
 49
-0.9525
 74
    0
 49
0
 74
    0
 49
-0.9525
 74
    0
 49
0
 74
    0
 49
-0.9525
 74
    0
  0
LTYPE
  5
40
330
5
100
AcDbSymbolTableRecord
100
AcDbLinetypeTableRecord
  2
DIVIDE2
 70
    0
  3
Divide (.5x) __..__..__..__..__..__..__..__.._
 72
   65
 73
    6
 40
15.875
 49
6.35
 74
    0
 49
-3.175
 74
    0
 49
0
 74
    0
 49
-3.175
 74
    0
 49
0
 74
    0
 49
-3.175
 74
    0
  0
LTYPE
  5
41
330
5
100
AcDbSymbolTableRecord
100
AcDbLinetypeTableRecord
  2
DIVIDEX2
 70
    0
  3
Divide (2x) ________  .  .  ________  .  .  _
 72
   65
 73
    6
 40
63.5
 49
25.4
 74
    0
 49
-12.7
 74
    0
 49
0
 74
    0
 49
-12.7
 74
    0
 49
0
 74
    0
 49
-12.7
 74
    0
  0
LTYPE
  5
42
330
5
100
AcDbSymbolTableRecord
100
AcDbLinetypeTableRecord
  2
BORDER
 70
    0
  3
Border __ __ . __ __ . __ __ . __ __ . __ __ .
 72
   65
 73
    6
 40
44.45
 49
12.7
 74
    0
 49
-6.35
 74
    0
 49
12.7
 74
    0
 49
-6.35
 74
    0
 49
0
 74
    0
 49
-6.35
 74
    0
  0
LTYPE
  5
43
330
5
100
AcDbSymbolTableRecord
100
AcDbLinetypeTableRecord
  2
BORDERTINY
 70
    0
  3
Border (.15x) __.__.__.__.__.__.__.__.__.__.__.
 72
   65
 73
    6
 40
6.6675
 49
1.905
 74
    0
 49
-0.9525
 74
    0
 49
1.905
 74
    0
 49
-0.9525
 74
    0
 49
0
 74
    0
 49
-0.9525
 74
    0
  0
LTYPE
  5
44
330
5
100
AcDbSymbolTableRecord
100
AcDbLinetypeTableRecord
  2
BORDER2
 70
    0
  3
Border (.5x) __.__.__.__.__.__.__.__.__.__.__.
 72
   65
 73
    6
 40
22.225
 49
6.35
 74
    0
 49
-3.175
 74
    0
 49
6.35
 74
    0
 49
-3.175
 74
    0
 49
0
 74
    0
 49
-3.175
 74
    0
  0
LTYPE
  5
45
330
5
100
AcDbSymbolTableRecord
100
AcDbLinetypeTableRecord
  2
BORDERX2
 70
    0
  3
Border (2x) ____  ____  .  ____  ____  .  ___
 72
   65
 73
    6
 40
88.89999999999999
 49
25.4
 74
    0
 49
-12.7
 74
    0
 49
25.4
 74
    0
 49
-12.7
 74
    0
 49
0
 74
    0
 49
-12.7
 74
    0
  0
LTYPE
  5
46
330
5
100
AcDbSymbolTableRecord
100
AcDbLinetypeTableRecord
  2
CENTER
 70
    0
  3
Center ____ _ ____ _ ____ _ ____ _ ____ _ ____
 72
   65
 73
    4
 40
50.8
 49
31.75
 74
    0
 49
-6.35
 74
    0
 49
6.35
 74
    0
 49
-6.35
 74
    0
  0
LTYPE
  5
47
330
5
100
AcDbSymbolTableRecord
100
AcDbLinetypeTableRecord
  2
CENTERTINY
 70
    0
  3
Center (.15x) ___ _ ___ _ ___ _ ___ _ ___ _ ___
 72
   65
 73
    4
 40
7.619999999999999
 49
4.7625
 74
    0
 49
-0.9525
 74
    0
 49
0.9525
 74
    0
 49
-0.9525
 74
    0
  0
LTYPE
  5
48
330
5
100
AcDbSymbolTableRecord
100
AcDbLinetypeTableRecord
  2
CENTER2
 70
    0
  3
Center (.5x) ___ _ ___ _ ___ _ ___ _ ___ _ ___
 72
   65
 73
    4
 40
28.575
 49
19.05
 74
    0
 49
-3.175
 74
    0
 49
3.175
 74
    0
 49
-3.175
 74
    0
  0
LTYPE
  5
49
330
5
100
AcDbSymbolTableRecord
100
AcDbLinetypeTableRecord
  2
CENTERX2
 70
    0
  3
Center (2x) ________  __  ________  __  _____
 72
   65
 73
    4
 40
101.6
 49
63.5
 74
    0
 49
-12.7
 74
    0
 49
12.7
 74
    0
 49
-12.7
 74
    0
  0
ENDTAB
  0
TABLE
  2
LAYER
  5
2
330
0
100
AcDbSymbolTable
 70
    1
  0
LAYER
  5
10
330
2
100
AcDbSymbolTableRecord
100
AcDbLayerTableRecord
  2
0
 70
    0
 62
    7
  6
CONTINUOUS
370
   40
390
F
  0
LAYER
  5
4A
330
2
100
AcDbSymbolTableRecord
100
AcDbLayerTableRecord
  2
AXIS
 70
    0
 62
    7
  6
DOT2
370
    0
390
F
  0
LAYER
  5
4B
330
2
100
AcDbSymbolTableRecord
100
AcDbLayerTableRecord
  2
DIMS
 70
    0
 62
    7
  6
CONTINUOUS
370
   15
390
F
  0
ENDTAB
  0
TABLE
  2
STYLE
  5
3
330
0
100
AcDbSymbolTable
 70
    3
  0
STYLE
  5
4C
330
2
100
AcDbSymbolTableRecord
100
AcDbTextStyleTableRecord
  2
Standard
 70
    0
 40
0
 41
1
 50
0
 71
    0
 42
1
  3
txt
  4

  0
ENDTAB
  0
TABLE
  2
VIEW
  5
6
330
0
100
AcDbSymbolTable
 70
    0
  0
ENDTAB
  0
TABLE
  2
UCS
  5
7
330
0
100
AcDbSymbolTable
 70
    0
  0
ENDTAB
  0
TABLE
  2
APPID
  5
9
330
0
100
AcDbSymbolTable
 70
    1
  0
APPID
  5
12
330
9
100
AcDbSymbolTableRecord
100
AcDbRegAppTableRecord
  2
ACAD
 70
    0
  0
APPID
  5
4D
330
9
100
AcDbSymbolTableRecord
100
AcDbRegAppTableRecord
  2
LibreCad
 70
    0
  0
ENDTAB
  0
TABLE
  2
DIMSTYLE
  5
A
330
0
100
AcDbSymbolTable
 70
    1
100
AcDbDimStyleTable
 71
    1
  0
DIMSTYLE
105
4E
330
A
100
AcDbSymbolTableRecord
100
AcDbDimStyleTableRecord
  2
Standard
 70
    0
 40
1
 41
2.5
 42
0.625
 43
0.38
 44
1.25
 45
0
 46
0
 47
0
 48
0
 49
1
140
2
141
0.09
142
0
143
25.4
144
1
145
0
146
1
147
0.625
148
0
 71
    0
 72
    0
 73
    0
 74
    1
 75
    0
 76
    0
 77
    0
 78
    1
 79
    0
170
    0
171
    2
172
    0
173
    0
174
    0
175
    0
176
    0
177
    0
178
    0
179
    2
271
    4
272
    4
273
    2
274
    2
275
    0
276
    0
277
    2
278
    0
279
    0
280
    0
281
    0
282
    0
283
    1
284
    0
285
    0
286
    0
288
    0
289
    3
340
standard
341

371
   -2
372
   -2
  0
ENDTAB
  0
TABLE
  2
BLOCK_RECORD
  5
1
330
0
100
AcDbSymbolTable
 70
    2
  0
BLOCK_RECORD
  5
1F
330
1
100
AcDbSymbolTableRecord
100
AcDbBlockTableRecord
  2
*Model_Space
 70
    0
280
    1
281
    0
  0
BLOCK_RECORD
  5
1E
330
1
100
AcDbSymbolTableRecord
100
AcDbBlockTableRecord
  2
*Paper_Space
 70
    0
280
    1
281
    0
  0
BLOCK_RECORD
  5
4F
330
1
100
AcDbSymbolTableRecord
100
AcDbBlockTableRecord
  2
*D1
 70
    0
280
    1
281
    0
  0
BLOCK_RECORD
  5
52
330
1
100
AcDbSymbolTableRecord
100
AcDbBlockTableRecord
  2
*D12
 70
    0
280
    1
281
    0
  0
BLOCK_RECORD
  5
55
330
1
100
AcDbSymbolTableRecord
100
AcDbBlockTableRecord
  2
*D4
 70
    0
280
    1
281
    0
  0
BLOCK_RECORD
  5
58
330
1
100
AcDbSymbolTableRecord
100
AcDbBlockTableRecord
  2
*D7
 70
    0
280
    1
281
    0
  0
BLOCK_RECORD
  5
5B
330
1
100
AcDbSymbolTableRecord
100
AcDbBlockTableRecord
  2
*D11
 70
    0
280
    1
281
    0
  0
BLOCK_RECORD
  5
5E
330
1
100
AcDbSymbolTableRecord
100
AcDbBlockTableRecord
  2
*D3
 70
    0
280
    1
281
    0
  0
BLOCK_RECORD
  5
61
330
1
100
AcDbSymbolTableRecord
100
AcDbBlockTableRecord
  2
*D2
 70
    0
280
    1
281
    0
  0
BLOCK_RECORD
  5
64
330
1
100
AcDbSymbolTableRecord
100
AcDbBlockTableRecord
  2
*D9
 70
    0
280
    1
281
    0
  0
BLOCK_RECORD
  5
67
330
1
100
AcDbSymbolTableRecord
100
AcDbBlockTableRecord
  2
*D6
 70
    0
280
    1
281
    0
  0
BLOCK_RECORD
  5
6A
330
1
100
AcDbSymbolTableRecord
100
AcDbBlockTableRecord
  2
*D8
 70
    0
280
    1
281
    0
  0
BLOCK_RECORD
  5
6D
330
1
100
AcDbSymbolTableRecord
100
AcDbBlockTableRecord
  2
*D5
 70
    0
280
    1
281
    0
  0
BLOCK_RECORD
  5
70
330
1
100
AcDbSymbolTableRecord
100
AcDbBlockTableRecord
  2
*D10
 70
    0
280
    1
281
    0
  0
ENDTAB
  0
ENDSEC
  0
SECTION
  2
BLOCKS
  0
BLOCK
  5
20
330
1F
100
AcDbEntity
  8
0
100
AcDbBlockBegin
  2
*Model_Space
 70
    0
 10
0
 20
0
 30
0
  3
*Model_Space
  1

  0
ENDBLK
  5
21
330
1F
100
AcDbEntity
  8
0
100
AcDbBlockEnd
  0
BLOCK
  5
1C
330
1B
100
AcDbEntity
  8
0
100
AcDbBlockBegin
  2
*Paper_Space
 70
    0
 10
0
 20
0
 30
0
  3
*Paper_Space
  1

  0
ENDBLK
  5
1D
330
1F
100
AcDbEntity
  8
0
100
AcDbBlockEnd
  0
BLOCK
  5
50
330
4F
100
AcDbEntity
  8
0
100
AcDbBlockBegin
  2
*D1
 70
    1
 10
0
 20
0
  3
*D1
  1

  0
LINE
  5
73
100
AcDbEntity
  8
DIMS
  6
ByBlock
 62
    0
370
   -2
100
AcDbLine
 10
12
 20
20
 11
-12
 21
20
  0
SOLID
  5
74
100
AcDbEntity
  8
DIMS
  6
ByBlock
 62
    0
370
   -2
100
AcDbTrace
 10
12
 20
20
 30
0
 11
9.5
 21
19.58371534222716
 31
0
 12
9.5
 22
20.41628465777284
 32
0
 13
9.5
 23
20.41628465777284
 33
0
  0
SOLID
  5
75
100
AcDbEntity
  8
DIMS
  6
ByBlock
 62
    0
370
   -2
100
AcDbTrace
 10
-12
 20
20
 30
0
 11
-9.5
 21
20.41628465777284
 31
0
 12
-9.5
 22
19.58371534222716
 32
0
 13
-9.5
 23
19.58371534222716
 33
0
  0
MTEXT
  5
76
100
AcDbEntity
  8
DIMS
  6
CONTINUOUS
 62
    0
370
   -2
100
AcDbMText
 10
9.950255243072244e-17
 20
21.625
 30
0
 40
2
 41
2.666666666666667
 71
    5
 72
    1
  1
24
  7
standard
210
0
220
0
230
1
 50
360
 73
    2
 44
1
  0
LINE
  5
77
100
AcDbEntity
  8
DIMS
  6
ByBlock
 62
    0
370
   -2
100
AcDbLine
 10
12
 20
8.625
 11
12
 21
21.25
  0
LINE
  5
78
100
AcDbEntity
  8
DIMS
  6
ByBlock
 62
    0
370
   -2
100
AcDbLine
 10
-12
 20
8.625
 11
-12
 21
21.25
  0
ENDBLK
  5
51
330
4F
100
AcDbEntity
  8
0
100
AcDbBlockEnd
  0
BLOCK
  5
53
330
52
100
AcDbEntity
  8
0
100
AcDbBlockBegin
  2
*D12
 70
    1
 10
0
 20
0
  3
*D12
  1

  0
LINE
  5
79
100
AcDbEntity
  8
DIMS
  6
ByBlock
 62
    0
370
   -2
100
AcDbLine
 10
-9.918363542992862
 20
7.013606076167857
 11
1.918363542992862
 21
8.986393923832145
  0
SOLID
  5
7A
100
AcDbEntity
  8
DIMS
  6
ByBlock
 62
    0
370
   -2
100
AcDbTrace
 10
-4.986393923832144
 20
7.835601012694643
 30
0
 11
-7.383941957243891
 21
7.013982887419576
 31
0
 12
-7.520815509581116
 22
7.835224201442923
 32
0
 13
-7.520815509581116
 23
7.835224201442923
 33
0
  0
SOLID
  5
7B
100
AcDbEntity
  8
DIMS
  6
ByBlock
 62
    0
370
   -2
100
AcDbTrace
 10
-3.013606076167856
 20
8.164398987305358
 30
0
 11
-0.6160580427561091
 21
8.986017112580424
 31
0
 12
-0.4791844904188847
 22
8.164775798557077
 32
0
 13
-0.4791844904188847
 23
8.164775798557077
 33
0
  0
MTEXT
  5
7C
100
AcDbEntity
  8
DIMS
  6
CONTINUOUS
 62
    0
370
   -2
100
AcDbMText
 10
-0.5818710556094464
 20
10.21710300935419
 30
0
 40
2
 41
4.222222222222222
 71
    5
 72
    1
  1
2x4
  7
standard
210
0
220
0
230
1
 50
9.462322208025622
 73
    2
 44
1
  0
ENDBLK
  5
54
330
52
100
AcDbEntity
  8
0
100
AcDbBlockEnd
  0
BLOCK
  5
56
330
55
100
AcDbEntity
  8
0
100
AcDbBlockBegin
  2
*D4
 70
    1
 10
0
 20
0
  3
*D4
  1

  0
LINE
  5
7D
100
AcDbEntity
  8
DIMS
  6
ByBlock
 62
    0
370
   -2
100
AcDbLine
 10
15
 20
-17
 11
15
 21
-3
  0
SOLID
  5
7E
100
AcDbEntity
  8
DIMS
  6
ByBlock
 62
    0
370
   -2
100
AcDbTrace
 10
15
 20
-12
 30
0
 11
15.41628465777284
 21
-14.5
 31
0
 12
14.58371534222716
 22
-14.5
 32
0
 13
14.58371534222716
 23
-14.5
 33
0
  0
SOLID
  5
7F
100
AcDbEntity
  8
DIMS
  6
ByBlock
 62
    0
370
   -2
100
AcDbTrace
 10
15
 20
-8
 30
0
 11
14.58371534222716
 21
-5.5
 31
0
 12
15.41628465777284
 22
-5.5
 32
0
 13
15.41628465777284
 23
-5.5
 33
0
  0
MTEXT
  5
80
100
AcDbEntity
  8
DIMS
  6
CONTINUOUS
 62
    0
370
   -2
100
AcDbMText
 10
13.375
 20
-10
 30
0
 40
2
 41
1.111111111111111
 71
    5
 72
    1
  1
4
  7
standard
210
0
220
0
230
1
 50
89.99999999999999
 73
    2
 44
1
  0
LINE
  5
81
100
AcDbEntity
  8
DIMS
  6
ByBlock
 62
    0
370
   -2
100
AcDbLine
 10
8.625
 20
-12
 11
16.25
 21
-12
  0
LINE
  5
82
100
AcDbEntity
  8
DIMS
  6
ByBlock
 62
    0
370
   -2
100
AcDbLine
 10
4.625
 20
-8
 11
16.25
 21
-8
  0
ENDBLK
  5
57
330
55
100
AcDbEntity
  8
0
100
AcDbBlockEnd
  0
BLOCK
  5
59
330
58
100
AcDbEntity
  8
0
100
AcDbBlockBegin
  2
*D7
 70
    1
 10
0
 20
0
  3
*D7
  1

  0
LINE
  5
83
100
AcDbEntity
  8
DIMS
  6
ByBlock
 62
    0
370
   -2
100
AcDbLine
 10
30
 20
-12
 11
30
 21
7.999999999999997
  0
SOLID
  5
84
100
AcDbEntity
  8
DIMS
  6
ByBlock
 62
    0
370
   -2
100
AcDbTrace
 10
30
 20
-12
 30
0
 11
29.58371534222716
 21
-9.5
 31
0
 12
30.41628465777284
 22
-9.5
 32
0
 13
30.41628465777284
 23
-9.5
 33
0
  0
SOLID
  5
85
100
AcDbEntity
  8
DIMS
  6
ByBlock
 62
    0
370
   -2
100
AcDbTrace
 10
30
 20
7.999999999999997
 30
0
 11
30.41628465777284
 21
5.499999999999997
 31
0
 12
29.58371534222716
 22
5.499999999999997
 32
0
 13
29.58371534222716
 23
5.499999999999997
 33
0
  0
MTEXT
  5
86
100
AcDbEntity
  8
DIMS
  6
CONTINUOUS
 62
    0
370
   -2
100
AcDbMText
 10
28.375
 20
-2.000000000000001
 30
0
 40
2
 41
2.444444444444444
 71
    5
 72
    1
  1
20
  7
standard
210
0
220
0
230
1
 50
90
 73
    2
 44
1
  0
LINE
  5
87
100
AcDbEntity
  8
DIMS
  6
ByBlock
 62
    0
370
   -2
100
AcDbLine
 10
8.625
 20
-12
 11
31.25
 21
-12
  0
LINE
  5
88
100
AcDbEntity
  8
DIMS
  6
ByBlock
 62
    0
370
   -2
100
AcDbLine
 10
-3.375
 20
8
 11
31.25
 21
7.999999999999997
  0
ENDBLK
  5
5A
330
58
100
AcDbEntity
  8
0
100
AcDbBlockEnd
  0
BLOCK
  5
5C
330
5B
100
AcDbEntity
  8
0
100
AcDbBlockBegin
  2
*D11
 70
    1
 10
0
 20
0
  3
*D11
  1

  0
LINE
  5
89
100
AcDbEntity
  8
DIMS
  6
ByBlock
 62
    0
370
   -2
100
AcDbLine
 10
-12
 20
-30
 11
8
 21
-30
  0
SOLID
  5
8A
100
AcDbEntity
  8
DIMS
  6
ByBlock
 62
    0
370
   -2
100
AcDbTrace
 10
-12
 20
-30
 30
0
 11
-9.500000000000002
 21
-29.58371534222716
 31
0
 12
-9.500000000000002
 22
-30.41628465777284
 32
0
 13
-9.500000000000002
 23
-30.41628465777284
 33
0
  0
SOLID
  5
8B
100
AcDbEntity
  8
DIMS
  6
ByBlock
 62
    0
370
   -2
100
AcDbTrace
 10
8
 20
-30
 30
0
 11
5.5
 21
-30.41628465777284
 31
0
 12
5.5
 22
-29.58371534222716
 32
0
 13
5.5
 23
-29.58371534222716
 33
0
  0
MTEXT
  5
8C
100
AcDbEntity
  8
DIMS
  6
CONTINUOUS
 62
    0
370
   -2
100
AcDbMText
 10
-2.000000000000001
 20
-28.375
 30
0
 40
2
 41
2.444444444444444
 71
    5
 72
    1
  1
20
  7
standard
210
0
220
0
230
1
 50
0
 73
    2
 44
1
  0
LINE
  5
8D
100
AcDbEntity
  8
DIMS
  6
ByBlock
 62
    0
370
   -2
100
AcDbLine
 10
-12
 20
-8.625
 11
-12
 21
-31.25
  0
LINE
  5
8E
100
AcDbEntity
  8
DIMS
  6
ByBlock
 62
    0
370
   -2
100
AcDbLine
 10
8
 20
3.375
 11
8
 21
-31.25
  0
ENDBLK
  5
5D
330
5B
100
AcDbEntity
  8
0
100
AcDbBlockEnd
  0
BLOCK
  5
5F
330
5E
100
AcDbEntity
  8
0
100
AcDbBlockBegin
  2
*D3
 70
    1
 10
0
 20
0
  3
*D3
  1

  0
LINE
  5
8F
100
AcDbEntity
  8
DIMS
  6
ByBlock
 62
    0
370
   -2
100
AcDbLine
 10
-15
 20
17
 11
-15
 21
3
  0
SOLID
  5
90
100
AcDbEntity
  8
DIMS
  6
ByBlock
 62
    0
370
   -2
100
AcDbTrace
 10
-15
 20
12
 30
0
 11
-15.41628465777284
 21
14.5
 31
0
 12
-14.58371534222716
 22
14.5
 32
0
 13
-14.58371534222716
 23
14.5
 33
0
  0
SOLID
  5
91
100
AcDbEntity
  8
DIMS
  6
ByBlock
 62
    0
370
   -2
100
AcDbTrace
 10
-15
 20
8
 30
0
 11
-14.58371534222716
 21
5.5
 31
0
 12
-15.41628465777284
 22
5.5
 32
0
 13
-15.41628465777284
 23
5.5
 33
0
  0
MTEXT
  5
92
100
AcDbEntity
  8
DIMS
  6
CONTINUOUS
 62
    0
370
   -2
100
AcDbMText
 10
-16.625
 20
10
 30
0
 40
2
 41
1.111111111111111
 71
    5
 72
    1
  1
4
  7
standard
210
0
220
0
230
1
 50
90
 73
    2
 44
1
  0
LINE
  5
93
100
AcDbEntity
  8
DIMS
  6
ByBlock
 62
    0
370
   -2
100
AcDbLine
 10
-8.625
 20
12
 11
-16.25
 21
12
  0
LINE
  5
94
100
AcDbEntity
  8
DIMS
  6
ByBlock
 62
    0
370
   -2
100
AcDbLine
 10
-12.625
 20
8
 11
-16.25
 21
8
  0
ENDBLK
  5
60
330
5E
100
AcDbEntity
  8
0
100
AcDbBlockEnd
  0
BLOCK
  5
62
330
61
100
AcDbEntity
  8
0
100
AcDbBlockBegin
  2
*D2
 70
    1
 10
0
 20
0
  3
*D2
  1

  0
LINE
  5
95
100
AcDbEntity
  8
DIMS
  6
ByBlock
 62
    0
370
   -2
100
AcDbLine
 10
17
 20
15
 11
3
 21
15
  0
SOLID
  5
96
100
AcDbEntity
  8
DIMS
  6
ByBlock
 62
    0
370
   -2
100
AcDbTrace
 10
12
 20
15
 30
0
 11
14.5
 21
15.41628465777284
 31
0
 12
14.5
 22
14.58371534222716
 32
0
 13
14.5
 23
14.58371534222716
 33
0
  0
SOLID
  5
97
100
AcDbEntity
  8
DIMS
  6
ByBlock
 62
    0
370
   -2
100
AcDbTrace
 10
8
 20
15
 30
0
 11
5.5
 21
14.58371534222716
 31
0
 12
5.5
 22
15.41628465777284
 32
0
 13
5.5
 23
15.41628465777284
 33
0
  0
MTEXT
  5
98
100
AcDbEntity
  8
DIMS
  6
CONTINUOUS
 62
    0
370
   -2
100
AcDbMText
 10
10
 20
16.625
 30
0
 40
2
 41
1.111111111111111
 71
    5
 72
    1
  1
4
  7
standard
210
0
220
0
230
1
 50
360
 73
    2
 44
1
  0
LINE
  5
99
100
AcDbEntity
  8
DIMS
  6
ByBlock
 62
    0
370
   -2
100
AcDbLine
 10
12
 20
8.625
 11
12
 21
16.25
  0
LINE
  5
9A
100
AcDbEntity
  8
DIMS
  6
ByBlock
 62
    0
370
   -2
100
AcDbLine
 10
8
 20
12.625
 11
8
 21
16.25
  0
ENDBLK
  5
63
330
61
100
AcDbEntity
  8
0
100
AcDbBlockEnd
  0
BLOCK
  5
65
330
64
100
AcDbEntity
  8
0
100
AcDbBlockBegin
  2
*D9
 70
    1
 10
0
 20
0
  3
*D9
  1

  0
LINE
  5
9B
100
AcDbEntity
  8
DIMS
  6
ByBlock
 62
    0
370
   -2
100
AcDbLine
 10
-12
 20
-20
 11
-4
 21
-20
  0
SOLID
  5
9C
100
AcDbEntity
  8
DIMS
  6
ByBlock
 62
    0
370
   -2
100
AcDbTrace
 10
-12
 20
-20
 30
0
 11
-9.5
 21
-19.58371534222716
 31
0
 12
-9.5
 22
-20.41628465777284
 32
0
 13
-9.5
 23
-20.41628465777284
 33
0
  0
SOLID
  5
9D
100
AcDbEntity
  8
DIMS
  6
ByBlock
 62
    0
370
   -2
100
AcDbTrace
 10
-4
 20
-20
 30
0
 11
-6.5
 21
-20.41628465777284
 31
0
 12
-6.5
 22
-19.58371534222716
 32
0
 13
-6.5
 23
-19.58371534222716
 33
0
  0
MTEXT
  5
9E
100
AcDbEntity
  8
DIMS
  6
CONTINUOUS
 62
    0
370
   -2
100
AcDbMText
 10
-8
 20
-18.375
 30
0
 40
2
 41
0.8888888888888888
 71
    5
 72
    1
  1
8
  7
standard
210
0
220
0
230
1
 50
0
 73
    2
 44
1
  0
LINE
  5
9F
100
AcDbEntity
  8
DIMS
  6
ByBlock
 62
    0
370
   -2
100
AcDbLine
 10
-12
 20
-8.625
 11
-12
 21
-21.25
  0
LINE
  5
A0
100
AcDbEntity
  8
DIMS
  6
ByBlock
 62
    0
370
   -2
100
AcDbLine
 10
-4
 20
7.375
 11
-4
 21
-21.25
  0
ENDBLK
  5
66
330
64
100
AcDbEntity
  8
0
100
AcDbBlockEnd
  0
BLOCK
  5
68
330
67
100
AcDbEntity
  8
0
100
AcDbBlockBegin
  2
*D6
 70
    1
 10
0
 20
0
  3
*D6
  1

  0
LINE
  5
A1
100
AcDbEntity
  8
DIMS
  6
ByBlock
 62
    0
370
   -2
100
AcDbLine
 10
25
 20
-12
 11
25
 21
3.999999999999999
  0
SOLID
  5
A2
100
AcDbEntity
  8
DIMS
  6
ByBlock
 62
    0
370
   -2
100
AcDbTrace
 10
25
 20
-12
 30
0
 11
24.58371534222716
 21
-9.500000000000002
 31
0
 12
25.41628465777285
 22
-9.500000000000002
 32
0
 13
25.41628465777285
 23
-9.500000000000002
 33
0
  0
SOLID
  5
A3
100
AcDbEntity
  8
DIMS
  6
ByBlock
 62
    0
370
   -2
100
AcDbTrace
 10
25
 20
3.999999999999999
 30
0
 11
25.41628465777285
 21
1.499999999999999
 31
0
 12
24.58371534222716
 22
1.499999999999999
 32
0
 13
24.58371534222716
 23
1.499999999999999
 33
0
  0
MTEXT
  5
A4
100
AcDbEntity
  8
DIMS
  6
CONTINUOUS
 62
    0
370
   -2
100
AcDbMText
 10
23.375
 20
-4.000000000000002
 30
0
 40
2
 41
2.000000000000124
 71
    5
 72
    1
  1
16
  7
standard
210
0
220
0
230
1
 50
90
 73
    2
 44
1
  0
LINE
  5
A5
100
AcDbEntity
  8
DIMS
  6
ByBlock
 62
    0
370
   -2
100
AcDbLine
 10
8.625
 20
-12
 11
26.25
 21
-12
  0
LINE
  5
A6
100
AcDbEntity
  8
DIMS
  6
ByBlock
 62
    0
370
   -2
100
AcDbLine
 10
8.625
 20
4
 11
26.25
 21
3.999999999999999
  0
ENDBLK
  5
69
330
67
100
AcDbEntity
  8
0
100
AcDbBlockEnd
  0
BLOCK
  5
6B
330
6A
100
AcDbEntity
  8
0
100
AcDbBlockBegin
  2
*D8
 70
    1
 10
0
 20
0
  3
*D8
  1

  0
LINE
  5
A7
100
AcDbEntity
  8
DIMS
  6
ByBlock
 62
    0
370
   -2
100
AcDbLine
 10
-17
 20
-15
 11
-3
 21
-15
  0
SOLID
  5
A8
100
AcDbEntity
  8
DIMS
  6
ByBlock
 62
    0
370
   -2
100
AcDbTrace
 10
-12
 20
-15
 30
0
 11
-14.5
 21
-15.41628465777284
 31
0
 12
-14.5
 22
-14.58371534222716
 32
0
 13
-14.5
 23
-14.58371534222716
 33
0
  0
SOLID
  5
A9
100
AcDbEntity
  8
DIMS
  6
ByBlock
 62
    0
370
   -2
100
AcDbTrace
 10
-8
 20
-15
 30
0
 11
-5.5
 21
-14.58371534222716
 31
0
 12
-5.5
 22
-15.41628465777284
 32
0
 13
-5.5
 23
-15.41628465777284
 33
0
  0
MTEXT
  5
AA
100
AcDbEntity
  8
DIMS
  6
CONTINUOUS
 62
    0
370
   -2
100
AcDbMText
 10
-10
 20
-13.375
 30
0
 40
2
 41
1.111111111111111
 71
    5
 72
    1
  1
4
  7
standard
210
0
220
0
230
1
 50
0
 73
    2
 44
1
  0
LINE
  5
AB
100
AcDbEntity
  8
DIMS
  6
ByBlock
 62
    0
370
   -2
100
AcDbLine
 10
-12
 20
-8.625
 11
-12
 21
-16.25
  0
LINE
  5
AC
100
AcDbEntity
  8
DIMS
  6
ByBlock
 62
    0
370
   -2
100
AcDbLine
 10
-8
 20
-4.625
 11
-8
 21
-16.25
  0
ENDBLK
  5
6C
330
6A
100
AcDbEntity
  8
0
100
AcDbBlockEnd
  0
BLOCK
  5
6E
330
6D
100
AcDbEntity
  8
0
100
AcDbBlockBegin
  2
*D5
 70
    1
 10
0
 20
0
  3
*D5
  1

  0
LINE
  5
AD
100
AcDbEntity
  8
DIMS
  6
ByBlock
 62
    0
370
   -2
100
AcDbLine
 10
20
 20
-12
 11
20
 21
-4.000000000000002
  0
SOLID
  5
AE
100
AcDbEntity
  8
DIMS
  6
ByBlock
 62
    0
370
   -2
100
AcDbTrace
 10
20
 20
-12
 30
0
 11
19.58371534222716
 21
-9.5
 31
0
 12
20.41628465777284
 22
-9.5
 32
0
 13
20.41628465777284
 23
-9.5
 33
0
  0
SOLID
  5
AF
100
AcDbEntity
  8
DIMS
  6
ByBlock
 62
    0
370
   -2
100
AcDbTrace
 10
20
 20
-4.000000000000002
 30
0
 11
20.41628465777284
 21
-6.500000000000002
 31
0
 12
19.58371534222716
 22
-6.500000000000002
 32
0
 13
19.58371534222716
 23
-6.500000000000002
 33
0
  0
MTEXT
  5
B0
100
AcDbEntity
  8
DIMS
  6
CONTINUOUS
 62
    0
370
   -2
100
AcDbMText
 10
18.375
 20
-8
 30
0
 40
2
 41
0.8888888888888888
 71
    5
 72
    1
  1
8
  7
standard
210
0
220
0
230
1
 50
90
 73
    2
 44
1
  0
LINE
  5
B1
100
AcDbEntity
  8
DIMS
  6
ByBlock
 62
    0
370
   -2
100
AcDbLine
 10
8.625
 20
-12
 11
21.25
 21
-12
  0
LINE
  5
B2
100
AcDbEntity
  8
DIMS
  6
ByBlock
 62
    0
370
   -2
100
AcDbLine
 10
-7.375
 20
-4
 11
21.25
 21
-4.000000000000002
  0
ENDBLK
  5
6F
330
6D
100
AcDbEntity
  8
0
100
AcDbBlockEnd
  0
BLOCK
  5
71
330
70
100
AcDbEntity
  8
0
100
AcDbBlockBegin
  2
*D10
 70
    1
 10
0
 20
0
  3
*D10
  1

  0
LINE
  5
B3
100
AcDbEntity
  8
DIMS
  6
ByBlock
 62
    0
370
   -2
100
AcDbLine
 10
-12
 20
-25
 11
4
 21
-25
  0
SOLID
  5
B4
100
AcDbEntity
  8
DIMS
  6
ByBlock
 62
    0
370
   -2
100
AcDbTrace
 10
-12
 20
-25
 30
0
 11
-9.5
 21
-24.58371534222716
 31
0
 12
-9.5
 22
-25.41628465777284
 32
0
 13
-9.5
 23
-25.41628465777284
 33
0
  0
SOLID
  5
B5
100
AcDbEntity
  8
DIMS
  6
ByBlock
 62
    0
370
   -2
100
AcDbTrace
 10
4
 20
-25
 30
0
 11
1.5
 21
-25.41628465777284
 31
0
 12
1.5
 22
-24.58371534222716
 32
0
 13
1.5
 23
-24.58371534222716
 33
0
  0
MTEXT
  5
B6
100
AcDbEntity
  8
DIMS
  6
CONTINUOUS
 62
    0
370
   -2
100
AcDbMText
 10
-4
 20
-23.375
 30
0
 40
2
 41
2.000000000000124
 71
    5
 72
    1
  1
16
  7
standard
210
0
220
0
230
1
 50
0
 73
    2
 44
1
  0
LINE
  5
B7
100
AcDbEntity
  8
DIMS
  6
ByBlock
 62
    0
370
   -2
100
AcDbLine
 10
-12
 20
-8.625
 11
-12
 21
-26.25
  0
LINE
  5
B8
100
AcDbEntity
  8
DIMS
  6
ByBlock
 62
    0
370
   -2
100
AcDbLine
 10
4
 20
-8.625
 11
4
 21
-26.25
  0
ENDBLK
  5
72
330
70
100
AcDbEntity
  8
0
100
AcDbBlockEnd
  0
ENDSEC
  0
SECTION
  2
ENTITIES
  0
LINE
  5
B9
100
AcDbEntity
  8
0
  6
ByLayer
 62
  256
370
   -1
100
AcDbLine
 10
12
 20
-8
 11
12
 21
8
  0
LINE
  5
BA
100
AcDbEntity
  8
0
  6
ByLayer
 62
  256
370
   -1
100
AcDbLine
 10
12
 20
8
 11
8
 21
12
  0
LINE
  5
BB
100
AcDbEntity
  8
0
  6
ByLayer
 62
  256
370
   -1
100
AcDbLine
 10
8
 20
12
 11
-8
 21
12
  0
LINE
  5
BC
100
AcDbEntity
  8
0
  6
ByLayer
 62
  256
370
   -1
100
AcDbLine
 10
-8
 20
12
 11
-12
 21
8
  0
LINE
  5
BD
100
AcDbEntity
  8
0
  6
ByLayer
 62
  256
370
   -1
100
AcDbLine
 10
-12
 20
8
 11
-12
 21
-8
  0
LINE
  5
BE
100
AcDbEntity
  8
0
  6
ByLayer
 62
  256
370
   -1
100
AcDbLine
 10
-12
 20
-8
 11
-8
 21
-12
  0
LINE
  5
BF
100
AcDbEntity
  8
0
  6
ByLayer
 62
  256
370
   -1
100
AcDbLine
 10
-8
 20
-12
 11
8
 21
-12
  0
LINE
  5
C0
100
AcDbEntity
  8
0
  6
ByLayer
 62
  256
370
   -1
100
AcDbLine
 10
8
 20
-12
 11
12
 21
-8
  0
LINE
  5
C1
100
AcDbEntity
  8
0
  6
ByLayer
 62
  256
370
   -1
100
AcDbLine
 10
-4.04906
 20
7.00119
 11
-4.09801
 21
7.00481
  0
LINE
  5
C2
100
AcDbEntity
  8
0
  6
ByLayer
 62
  256
370
   -1
100
AcDbLine
 10
-4.09801
 20
7.00481
 11
-4.14673
 21
7.01082
  0
LINE
  5
C3
100
AcDbEntity
  8
0
  6
ByLayer
 62
  256
370
   -1
100
AcDbLine
 10
-4.14673
 20
7.01082
 11
-4.19508
 21
7.01921
  0
LINE
  5
C4
100
AcDbEntity
  8
0
  6
ByLayer
 62
  256
370
   -1
100
AcDbLine
 10
-4.19508
 20
7.01921
 11
-4.24297
 21
7.02997
  0
LINE
  5
C5
100
AcDbEntity
  8
0
  6
ByLayer
 62
  256
370
   -1
100
AcDbLine
 10
-4.24297
 20
7.02997
 11
-4.29028
 21
7.04305
  0
LINE
  5
C6
100
AcDbEntity
  8
0
  6
ByLayer
 62
  256
370
   -1
100
AcDbLine
 10
-4.29028
 20
7.04305
 11
-4.33688
 21
7.05844
  0
LINE
  5
C7
100
AcDbEntity
  8
0
  6
ByLayer
 62
  256
370
   -1
100
AcDbLine
 10
-4.33688
 20
7.05844
 11
-4.38268
 21
7.07611
  0
LINE
  5
C8
100
AcDbEntity
  8
0
  6
ByLayer
 62
  256
370
   -1
100
AcDbLine
 10
-4.38268
 20
7.07611
 11
-4.42755
 21
7.09601
  0
LINE
  5
C9
100
AcDbEntity
  8
0
  6
ByLayer
 62
  256
370
   -1
100
AcDbLine
 10
-4.42755
 20
7.09601
 11
-4.47139
 21
7.11807
  0
LINE
  5
CA
100
AcDbEntity
  8
0
  6
ByLayer
 62
  256
370
   -1
100
AcDbLine
 10
-4.47139
 20
7.11807
 11
-4.5141
 21
7.14226
  0
LINE
  5
CB
100
AcDbEntity
  8
0
  6
ByLayer
 62
  256
370
   -1
100
AcDbLine
 10
-4.5141
 20
7.14226
 11
-4.55556
 21
7.16852
  0
LINE
  5
CC
100
AcDbEntity
  8
0
  6
ByLayer
 62
  256
370
   -1
100
AcDbLine
 10
-4.55556
 20
7.16852
 11
-4.59569
 21
7.19678
  0
LINE
  5
CD
100
AcDbEntity
  8
0
  6
ByLayer
 62
  256
370
   -1
100
AcDbLine
 10
-4.59569
 20
7.19678
 11
-4.63438
 21
7.22697
  0
LINE
  5
CE
100
AcDbEntity
  8
0
  6
ByLayer
 62
  256
370
   -1
100
AcDbLine
 10
-4.63438
 20
7.22697
 11
-4.67155
 21
7.25905
  0
LINE
  5
CF
100
AcDbEntity
  8
0
  6
ByLayer
 62
  256
370
   -1
100
AcDbLine
 10
-4.67155
 20
7.25905
 11
-4.70709
 21
7.29289
  0
LINE
  5
D0
100
AcDbEntity
  8
0
  6
ByLayer
 62
  256
370
   -1
100
AcDbLine
 10
-4.70709
 20
7.29289
 11
-4.74094
 21
7.32843
  0
LINE
  5
D1
100
AcDbEntity
  8
0
  6
ByLayer
 62
  256
370
   -1
100
AcDbLine
 10
-4.74094
 20
7.32843
 11
-4.77301
 21
7.3656
  0
LINE
  5
D2
100
AcDbEntity
  8
0
  6
ByLayer
 62
  256
370
   -1
100
AcDbLine
 10
-4.77301
 20
7.3656
 11
-4.80321
 21
7.4043
  0
LINE
  5
D3
100
AcDbEntity
  8
0
  6
ByLayer
 62
  256
370
   -1
100
AcDbLine
 10
-4.80321
 20
7.4043
 11
-4.83147
 21
7.44443
  0
LINE
  5
D4
100
AcDbEntity
  8
0
  6
ByLayer
 62
  256
370
   -1
100
AcDbLine
 10
-4.83147
 20
7.44443
 11
-4.85773
 21
7.48589
  0
LINE
  5
D5
100
AcDbEntity
  8
0
  6
ByLayer
 62
  256
370
   -1
100
AcDbLine
 10
-4.85773
 20
7.48589
 11
-4.88191
 21
7.52859
  0
LINE
  5
D6
100
AcDbEntity
  8
0
  6
ByLayer
 62
  256
370
   -1
100
AcDbLine
 10
-4.88191
 20
7.52859
 11
-4.90398
 21
7.57243
  0
LINE
  5
D7
100
AcDbEntity
  8
0
  6
ByLayer
 62
  256
370
   -1
100
AcDbLine
 10
-4.90398
 20
7.57243
 11
-4.92387
 21
7.61731
  0
LINE
  5
D8
100
AcDbEntity
  8
0
  6
ByLayer
 62
  256
370
   -1
100
AcDbLine
 10
-4.92387
 20
7.61731
 11
-4.94154
 21
7.6631
  0
LINE
  5
D9
100
AcDbEntity
  8
0
  6
ByLayer
 62
  256
370
   -1
100
AcDbLine
 10
-4.94154
 20
7.6631
 11
-4.95694
 21
7.7097
  0
LINE
  5
DA
100
AcDbEntity
  8
0
  6
ByLayer
 62
  256
370
   -1
100
AcDbLine
 10
-4.95694
 20
7.7097
 11
-4.97002
 21
7.75702
  0
LINE
  5
DB
100
AcDbEntity
  8
0
  6
ByLayer
 62
  256
370
   -1
100
AcDbLine
 10
-4.97002
 20
7.75702
 11
-4.98077
 21
7.8049
  0
LINE
  5
DC
100
AcDbEntity
  8
0
  6
ByLayer
 62
  256
370
   -1
100
AcDbLine
 10
-4.98077
 20
7.8049
 11
-4.98917
 21
7.85326
  0
LINE
  5
DD
100
AcDbEntity
  8
0
  6
ByLayer
 62
  256
370
   -1
100
AcDbLine
 10
-4.98917
 20
7.85326
 11
-4.99518
 21
7.90198
  0
LINE
  5
DE
100
AcDbEntity
  8
0
  6
ByLayer
 62
  256
370
   -1
100
AcDbLine
 10
-4.99518
 20
7.90198
 11
-4.99879
 21
7.95093
  0
LINE
  5
DF
100
AcDbEntity
  8
0
  6
ByLayer
 62
  256
370
   -1
100
AcDbLine
 10
-4.99879
 20
7.95093
 11
-5
 21
8
  0
LINE
  5
E0
100
AcDbEntity
  8
0
  6
ByLayer
 62
  256
370
   -1
100
AcDbLine
 10
-5
 20
8
 11
-4.99879
 21
8.049060000000001
  0
LINE
  5
E1
100
AcDbEntity
  8
0
  6
ByLayer
 62
  256
370
   -1
100
AcDbLine
 10
-4.99879
 20
8.049060000000001
 11
-4.99518
 21
8.09801
  0
LINE
  5
E2
100
AcDbEntity
  8
0
  6
ByLayer
 62
  256
370
   -1
100
AcDbLine
 10
-4.99518
 20
8.09801
 11
-4.98917
 21
8.14673
  0
LINE
  5
E3
100
AcDbEntity
  8
0
  6
ByLayer
 62
  256
370
   -1
100
AcDbLine
 10
-4.98917
 20
8.14673
 11
-4.98077
 21
8.195080000000001
  0
LINE
  5
E4
100
AcDbEntity
  8
0
  6
ByLayer
 62
  256
370
   -1
100
AcDbLine
 10
-4.98077
 20
8.195080000000001
 11
-4.97002
 21
8.24297
  0
LINE
  5
E5
100
AcDbEntity
  8
0
  6
ByLayer
 62
  256
370
   -1
100
AcDbLine
 10
-4.97002
 20
8.24297
 11
-4.95694
 21
8.290279999999999
  0
LINE
  5
E6
100
AcDbEntity
  8
0
  6
ByLayer
 62
  256
370
   -1
100
AcDbLine
 10
-4.95694
 20
8.290279999999999
 11
-4.94154
 21
8.336880000000001
  0
LINE
  5
E7
100
AcDbEntity
  8
0
  6
ByLayer
 62
  256
370
   -1
100
AcDbLine
 10
-4.94154
 20
8.336880000000001
 11
-4.92387
 21
8.382680000000001
  0
LINE
  5
E8
100
AcDbEntity
  8
0
  6
ByLayer
 62
  256
370
   -1
100
AcDbLine
 10
-4.92387
 20
8.382680000000001
 11
-4.90398
 21
8.42755
  0
LINE
  5
E9
100
AcDbEntity
  8
0
  6
ByLayer
 62
  256
370
   -1
100
AcDbLine
 10
-4.90398
 20
8.42755
 11
-4.88191
 21
8.47139
  0
LINE
  5
EA
100
AcDbEntity
  8
0
  6
ByLayer
 62
  256
370
   -1
100
AcDbLine
 10
-4.88191
 20
8.47139
 11
-4.85773
 21
8.514099999999999
  0
LINE
  5
EB
100
AcDbEntity
  8
0
  6
ByLayer
 62
  256
370
   -1
100
AcDbLine
 10
-4.85773
 20
8.514099999999999
 11
-4.83147
 21
8.55556
  0
LINE
  5
EC
100
AcDbEntity
  8
0
  6
ByLayer
 62
  256
370
   -1
100
AcDbLine
 10
-4.83147
 20
8.55556
 11
-4.80321
 21
8.595689999999999
  0
LINE
  5
ED
100
AcDbEntity
  8
0
  6
ByLayer
 62
  256
370
   -1
100
AcDbLine
 10
-4.80321
 20
8.595689999999999
 11
-4.77301
 21
8.63438
  0
LINE
  5
EE
100
AcDbEntity
  8
0
  6
ByLayer
 62
  256
370
   -1
100
AcDbLine
 10
-4.77301
 20
8.63438
 11
-4.74094
 21
8.67155
  0
LINE
  5
EF
100
AcDbEntity
  8
0
  6
ByLayer
 62
  256
370
   -1
100
AcDbLine
 10
-4.74094
 20
8.67155
 11
-4.70709
 21
8.707090000000001
  0
LINE
  5
F0
100
AcDbEntity
  8
0
  6
ByLayer
 62
  256
370
   -1
100
AcDbLine
 10
-4.70709
 20
8.707090000000001
 11
-4.67155
 21
8.74094
  0
LINE
  5
F1
100
AcDbEntity
  8
0
  6
ByLayer
 62
  256
370
   -1
100
AcDbLine
 10
-4.67155
 20
8.74094
 11
-4.63438
 21
8.773009999999999
  0
LINE
  5
F2
100
AcDbEntity
  8
0
  6
ByLayer
 62
  256
370
   -1
100
AcDbLine
 10
-4.63438
 20
8.773009999999999
 11
-4.59569
 21
8.80321
  0
LINE
  5
F3
100
AcDbEntity
  8
0
  6
ByLayer
 62
  256
370
   -1
100
AcDbLine
 10
-4.59569
 20
8.80321
 11
-4.55556
 21
8.831469999999999
  0
LINE
  5
F4
100
AcDbEntity
  8
0
  6
ByLayer
 62
  256
370
   -1
100
AcDbLine
 10
-4.55556
 20
8.831469999999999
 11
-4.5141
 21
8.85773
  0
LINE
  5
F5
100
AcDbEntity
  8
0
  6
ByLayer
 62
  256
370
   -1
100
AcDbLine
 10
-4.5141
 20
8.85773
 11
-4.47139
 21
8.88191
  0
LINE
  5
F6
100
AcDbEntity
  8
0
  6
ByLayer
 62
  256
370
   -1
100
AcDbLine
 10
-4.47139
 20
8.88191
 11
-4.42755
 21
8.903980000000001
  0
LINE
  5
F7
100
AcDbEntity
  8
0
  6
ByLayer
 62
  256
370
   -1
100
AcDbLine
 10
-4.42755
 20
8.903980000000001
 11
-4.38268
 21
8.923870000000001
  0
LINE
  5
F8
100
AcDbEntity
  8
0
  6
ByLayer
 62
  256
370
   -1
100
AcDbLine
 10
-4.38268
 20
8.923870000000001
 11
-4.33688
 21
8.94154
  0
LINE
  5
F9
100
AcDbEntity
  8
0
  6
ByLayer
 62
  256
370
   -1
100
AcDbLine
 10
-4.33688
 20
8.94154
 11
-4.29028
 21
8.956939999999999
  0
LINE
  5
FA
100
AcDbEntity
  8
0
  6
ByLayer
 62
  256
370
   -1
100
AcDbLine
 10
-4.29028
 20
8.956939999999999
 11
-4.24297
 21
8.97002
  0
LINE
  5
FB
100
AcDbEntity
  8
0
  6
ByLayer
 62
  256
370
   -1
100
AcDbLine
 10
-4.24297
 20
8.97002
 11
-4.19508
 21
8.98077
  0
LINE
  5
FC
100
AcDbEntity
  8
0
  6
ByLayer
 62
  256
370
   -1
100
AcDbLine
 10
-4.19508
 20
8.98077
 11
-4.14673
 21
8.98917
  0
LINE
  5
FD
100
AcDbEntity
  8
0
  6
ByLayer
 62
  256
370
   -1
100
AcDbLine
 10
-4.14673
 20
8.98917
 11
-4.09801
 21
8.99518
  0
LINE
  5
FE
100
AcDbEntity
  8
0
  6
ByLayer
 62
  256
370
   -1
100
AcDbLine
 10
-4.09801
 20
8.99518
 11
-4.04906
 21
8.99879
  0
LINE
  5
FF
100
AcDbEntity
  8
0
  6
ByLayer
 62
  256
370
   -1
100
AcDbLine
 10
-4.04906
 20
8.99879
 11
-4
 21
9
  0
LINE
  5
100
100
AcDbEntity
  8
0
  6
ByLayer
 62
  256
370
   -1
100
AcDbLine
 10
-4
 20
9
 11
-3.95093
 21
8.99879
  0
LINE
  5
101
100
AcDbEntity
  8
0
  6
ByLayer
 62
  256
370
   -1
100
AcDbLine
 10
-3.95093
 20
8.99879
 11
-3.90198
 21
8.99518
  0
LINE
  5
102
100
AcDbEntity
  8
0
  6
ByLayer
 62
  256
370
   -1
100
AcDbLine
 10
-3.90198
 20
8.99518
 11
-3.85326
 21
8.98917
  0
LINE
  5
103
100
AcDbEntity
  8
0
  6
ByLayer
 62
  256
370
   -1
100
AcDbLine
 10
-3.85326
 20
8.98917
 11
-3.8049
 21
8.98077
  0
LINE
  5
104
100
AcDbEntity
  8
0
  6
ByLayer
 62
  256
370
   -1
100
AcDbLine
 10
-3.8049
 20
8.98077
 11
-3.75702
 21
8.97002
  0
LINE
  5
105
100
AcDbEntity
  8
0
  6
ByLayer
 62
  256
370
   -1
100
AcDbLine
 10
-3.75702
 20
8.97002
 11
-3.7097
 21
8.956939999999999
  0
LINE
  5
106
100
AcDbEntity
  8
0
  6
ByLayer
 62
  256
370
   -1
100
AcDbLine
 10
-3.7097
 20
8.956939999999999
 11
-3.6631
 21
8.94154
  0
LINE
  5
107
100
AcDbEntity
  8
0
  6
ByLayer
 62
  256
370
   -1
100
AcDbLine
 10
-3.6631
 20
8.94154
 11
-3.61731
 21
8.923870000000001
  0
LINE
  5
108
100
AcDbEntity
  8
0
  6
ByLayer
 62
  256
370
   -1
100
AcDbLine
 10
-3.61731
 20
8.923870000000001
 11
-3.57243
 21
8.903980000000001
  0
LINE
  5
109
100
AcDbEntity
  8
0
  6
ByLayer
 62
  256
370
   -1
100
AcDbLine
 10
-3.57243
 20
8.903980000000001
 11
-3.52859
 21
8.88191
  0
LINE
  5
10A
100
AcDbEntity
  8
0
  6
ByLayer
 62
  256
370
   -1
100
AcDbLine
 10
-3.52859
 20
8.88191
 11
-3.48589
 21
8.85773
  0
LINE
  5
10B
100
AcDbEntity
  8
0
  6
ByLayer
 62
  256
370
   -1
100
AcDbLine
 10
-3.48589
 20
8.85773
 11
-3.44443
 21
8.831469999999999
  0
LINE
  5
10C
100
AcDbEntity
  8
0
  6
ByLayer
 62
  256
370
   -1
100
AcDbLine
 10
-3.44443
 20
8.831469999999999
 11
-3.4043
 21
8.80321
  0
LINE
  5
10D
100
AcDbEntity
  8
0
  6
ByLayer
 62
  256
370
   -1
100
AcDbLine
 10
-3.4043
 20
8.80321
 11
-3.3656
 21
8.773009999999999
  0
LINE
  5
10E
100
AcDbEntity
  8
0
  6
ByLayer
 62
  256
370
   -1
100
AcDbLine
 10
-3.3656
 20
8.773009999999999
 11
-3.32843
 21
8.74094
  0
LINE
  5
10F
100
AcDbEntity
  8
0
  6
ByLayer
 62
  256
370
   -1
100
AcDbLine
 10
-3.32843
 20
8.74094
 11
-3.29289
 21
8.707090000000001
  0
LINE
  5
110
100
AcDbEntity
  8
0
  6
ByLayer
 62
  256
370
   -1
100
AcDbLine
 10
-3.29289
 20
8.707090000000001
 11
-3.25905
 21
8.67155
  0
LINE
  5
111
100
AcDbEntity
  8
0
  6
ByLayer
 62
  256
370
   -1
100
AcDbLine
 10
-3.25905
 20
8.67155
 11
-3.22697
 21
8.63438
  0
LINE
  5
112
100
AcDbEntity
  8
0
  6
ByLayer
 62
  256
370
   -1
100
AcDbLine
 10
-3.22697
 20
8.63438
 11
-3.19678
 21
8.595689999999999
  0
LINE
  5
113
100
AcDbEntity
  8
0
  6
ByLayer
 62
  256
370
   -1
100
AcDbLine
 10
-3.19678
 20
8.595689999999999
 11
-3.16852
 21
8.55556
  0
LINE
  5
114
100
AcDbEntity
  8
0
  6
ByLayer
 62
  256
370
   -1
100
AcDbLine
 10
-3.16852
 20
8.55556
 11
-3.14226
 21
8.514099999999999
  0
LINE
  5
115
100
AcDbEntity
  8
0
  6
ByLayer
 62
  256
370
   -1
100
AcDbLine
 10
-3.14226
 20
8.514099999999999
 11
-3.11807
 21
8.47139
  0
LINE
  5
116
100
AcDbEntity
  8
0
  6
ByLayer
 62
  256
370
   -1
100
AcDbLine
 10
-3.11807
 20
8.47139
 11
-3.09601
 21
8.42755
  0
LINE
  5
117
100
AcDbEntity
  8
0
  6
ByLayer
 62
  256
370
   -1
100
AcDbLine
 10
-3.09601
 20
8.42755
 11
-3.07611
 21
8.382680000000001
  0
LINE
  5
118
100
AcDbEntity
  8
0
  6
ByLayer
 62
  256
370
   -1
100
AcDbLine
 10
-3.07611
 20
8.382680000000001
 11
-3.05844
 21
8.336880000000001
  0
LINE
  5
119
100
AcDbEntity
  8
0
  6
ByLayer
 62
  256
370
   -1
100
AcDbLine
 10
-3.05844
 20
8.336880000000001
 11
-3.04305
 21
8.290279999999999
  0
LINE
  5
11A
100
AcDbEntity
  8
0
  6
ByLayer
 62
  256
370
   -1
100
AcDbLine
 10
-3.04305
 20
8.290279999999999
 11
-3.02997
 21
8.24297
  0
LINE
  5
11B
100
AcDbEntity
  8
0
  6
ByLayer
 62
  256
370
   -1
100
AcDbLine
 10
-3.02997
 20
8.24297
 11
-3.01921
 21
8.195080000000001
  0
LINE
  5
11C
100
AcDbEntity
  8
0
  6
ByLayer
 62
  256
370
   -1
100
AcDbLine
 10
-3.01921
 20
8.195080000000001
 11
-3.01082
 21
8.14673
  0
LINE
  5
11D
100
AcDbEntity
  8
0
  6
ByLayer
 62
  256
370
   -1
100
AcDbLine
 10
-3.01082
 20
8.14673
 11
-3.00481
 21
8.09801
  0
LINE
  5
11E
100
AcDbEntity
  8
0
  6
ByLayer
 62
  256
370
   -1
100
AcDbLine
 10
-3.00481
 20
8.09801
 11
-3.00119
 21
8.049060000000001
  0
LINE
  5
11F
100
AcDbEntity
  8
0
  6
ByLayer
 62
  256
370
   -1
100
AcDbLine
 10
-3.00119
 20
8.049060000000001
 11
-3
 21
8
  0
LINE
  5
120
100
AcDbEntity
  8
0
  6
ByLayer
 62
  256
370
   -1
100
AcDbLine
 10
-3
 20
8
 11
-3.00119
 21
7.95093
  0
LINE
  5
121
100
AcDbEntity
  8
0
  6
ByLayer
 62
  256
370
   -1
100
AcDbLine
 10
-3.00119
 20
7.95093
 11
-3.00481
 21
7.90198
  0
LINE
  5
122
100
AcDbEntity
  8
0
  6
ByLayer
 62
  256
370
   -1
100
AcDbLine
 10
-3.00481
 20
7.90198
 11
-3.01082
 21
7.85326
  0
LINE
  5
123
100
AcDbEntity
  8
0
  6
ByLayer
 62
  256
370
   -1
100
AcDbLine
 10
-3.01082
 20
7.85326
 11
-3.01921
 21
7.8049
  0
LINE
  5
124
100
AcDbEntity
  8
0
  6
ByLayer
 62
  256
370
   -1
100
AcDbLine
 10
-3.01921
 20
7.8049
 11
-3.02997
 21
7.75702
  0
LINE
  5
125
100
AcDbEntity
  8
0
  6
ByLayer
 62
  256
370
   -1
100
AcDbLine
 10
-3.02997
 20
7.75702
 11
-3.04305
 21
7.7097
  0
LINE
  5
126
100
AcDbEntity
  8
0
  6
ByLayer
 62
  256
370
   -1
100
AcDbLine
 10
-3.04305
 20
7.7097
 11
-3.05844
 21
7.6631
  0
LINE
  5
127
100
AcDbEntity
  8
0
  6
ByLayer
 62
  256
370
   -1
100
AcDbLine
 10
-3.05844
 20
7.6631
 11
-3.07611
 21
7.61731
  0
LINE
  5
128
100
AcDbEntity
  8
0
  6
ByLayer
 62
  256
370
   -1
100
AcDbLine
 10
-3.07611
 20
7.61731
 11
-3.09601
 21
7.57243
  0
LINE
  5
129
100
AcDbEntity
  8
0
  6
ByLayer
 62
  256
370
   -1
100
AcDbLine
 10
-3.09601
 20
7.57243
 11
-3.11807
 21
7.52859
  0
LINE
  5
12A
100
AcDbEntity
  8
0
  6
ByLayer
 62
  256
370
   -1
100
AcDbLine
 10
-3.11807
 20
7.52859
 11
-3.14226
 21
7.48589
  0
LINE
  5
12B
100
AcDbEntity
  8
0
  6
ByLayer
 62
  256
370
   -1
100
AcDbLine
 10
-3.14226
 20
7.48589
 11
-3.16852
 21
7.44443
  0
LINE
  5
12C
100
AcDbEntity
  8
0
  6
ByLayer
 62
  256
370
   -1
100
AcDbLine
 10
-3.16852
 20
7.44443
 11
-3.19678
 21
7.4043
  0
LINE
  5
12D
100
AcDbEntity
  8
0
  6
ByLayer
 62
  256
370
   -1
100
AcDbLine
 10
-3.19678
 20
7.4043
 11
-3.22697
 21
7.3656
  0
LINE
  5
12E
100
AcDbEntity
  8
0
  6
ByLayer
 62
  256
370
   -1
100
AcDbLine
 10
-3.22697
 20
7.3656
 11
-3.25905
 21
7.32843
  0
LINE
  5
12F
100
AcDbEntity
  8
0
  6
ByLayer
 62
  256
370
   -1
100
AcDbLine
 10
-3.25905
 20
7.32843
 11
-3.29289
 21
7.29289
  0
LINE
  5
130
100
AcDbEntity
  8
0
  6
ByLayer
 62
  256
370
   -1
100
AcDbLine
 10
-3.29289
 20
7.29289
 11
-3.32843
 21
7.25905
  0
LINE
  5
131
100
AcDbEntity
  8
0
  6
ByLayer
 62
  256
370
   -1
100
AcDbLine
 10
-3.32843
 20
7.25905
 11
-3.3656
 21
7.22697
  0
LINE
  5
132
100
AcDbEntity
  8
0
  6
ByLayer
 62
  256
370
   -1
100
AcDbLine
 10
-3.3656
 20
7.22697
 11
-3.4043
 21
7.19678
  0
LINE
  5
133
100
AcDbEntity
  8
0
  6
ByLayer
 62
  256
370
   -1
100
AcDbLine
 10
-3.4043
 20
7.19678
 11
-3.44443
 21
7.16852
  0
LINE
  5
134
100
AcDbEntity
  8
0
  6
ByLayer
 62
  256
370
   -1
100
AcDbLine
 10
-3.44443
 20
7.16852
 11
-3.48589
 21
7.14226
  0
LINE
  5
135
100
AcDbEntity
  8
0
  6
ByLayer
 62
  256
370
   -1
100
AcDbLine
 10
-3.48589
 20
7.14226
 11
-3.52859
 21
7.11807
  0
LINE
  5
136
100
AcDbEntity
  8
0
  6
ByLayer
 62
  256
370
   -1
100
AcDbLine
 10
-3.52859
 20
7.11807
 11
-3.57243
 21
7.09601
  0
LINE
  5
137
100
AcDbEntity
  8
0
  6
ByLayer
 62
  256
370
   -1
100
AcDbLine
 10
-3.57243
 20
7.09601
 11
-3.61731
 21
7.07611
  0
LINE
  5
138
100
AcDbEntity
  8
0
  6
ByLayer
 62
  256
370
   -1
100
AcDbLine
 10
-3.61731
 20
7.07611
 11
-3.6631
 21
7.05844
  0
LINE
  5
139
100
AcDbEntity
  8
0
  6
ByLayer
 62
  256
370
   -1
100
AcDbLine
 10
-3.6631
 20
7.05844
 11
-3.7097
 21
7.04305
  0
LINE
  5
13A
100
AcDbEntity
  8
0
  6
ByLayer
 62
  256
370
   -1
100
AcDbLine
 10
-3.7097
 20
7.04305
 11
-3.75702
 21
7.02997
  0
LINE
  5
13B
100
AcDbEntity
  8
0
  6
ByLayer
 62
  256
370
   -1
100
AcDbLine
 10
-3.75702
 20
7.02997
 11
-3.8049
 21
7.01921
  0
LINE
  5
13C
100
AcDbEntity
  8
0
  6
ByLayer
 62
  256
370
   -1
100
AcDbLine
 10
-3.8049
 20
7.01921
 11
-3.85326
 21
7.01082
  0
LINE
  5
13D
100
AcDbEntity
  8
0
  6
ByLayer
 62
  256
370
   -1
100
AcDbLine
 10
-3.85326
 20
7.01082
 11
-3.90198
 21
7.00481
  0
LINE
  5
13E
100
AcDbEntity
  8
0
  6
ByLayer
 62
  256
370
   -1
100
AcDbLine
 10
-3.90198
 20
7.00481
 11
-3.95093
 21
7.00119
  0
LINE
  5
13F
100
AcDbEntity
  8
0
  6
ByLayer
 62
  256
370
   -1
100
AcDbLine
 10
-3.95093
 20
7.00119
 11
-4
 21
7
  0
LINE
  5
140
100
AcDbEntity
  8
0
  6
ByLayer
 62
  256
370
   -1
100
AcDbLine
 10
-4
 20
7
 11
-4.04906
 21
7.00119
  0
LINE
  5
141
100
AcDbEntity
  8
0
  6
ByLayer
 62
  256
370
   -1
100
AcDbLine
 10
7.95093
 20
3.00119
 11
7.90198
 21
3.00481
  0
LINE
  5
142
100
AcDbEntity
  8
0
  6
ByLayer
 62
  256
370
   -1
100
AcDbLine
 10
7.90198
 20
3.00481
 11
7.85326
 21
3.01082
  0
LINE
  5
143
100
AcDbEntity
  8
0
  6
ByLayer
 62
  256
370
   -1
100
AcDbLine
 10
7.85326
 20
3.01082
 11
7.8049
 21
3.01921
  0
LINE
  5
144
100
AcDbEntity
  8
0
  6
ByLayer
 62
  256
370
   -1
100
AcDbLine
 10
7.8049
 20
3.01921
 11
7.75702
 21
3.02997
  0
LINE
  5
145
100
AcDbEntity
  8
0
  6
ByLayer
 62
  256
370
   -1
100
AcDbLine
 10
7.75702
 20
3.02997
 11
7.7097
 21
3.04305
  0
LINE
  5
146
100
AcDbEntity
  8
0
  6
ByLayer
 62
  256
370
   -1
100
AcDbLine
 10
7.7097
 20
3.04305
 11
7.6631
 21
3.05844
  0
LINE
  5
147
100
AcDbEntity
  8
0
  6
ByLayer
 62
  256
370
   -1
100
AcDbLine
 10
7.6631
 20
3.05844
 11
7.61731
 21
3.07611
  0
LINE
  5
148
100
AcDbEntity
  8
0
  6
ByLayer
 62
  256
370
   -1
100
AcDbLine
 10
7.61731
 20
3.07611
 11
7.57243
 21
3.09601
  0
LINE
  5
149
100
AcDbEntity
  8
0
  6
ByLayer
 62
  256
370
   -1
100
AcDbLine
 10
7.57243
 20
3.09601
 11
7.52859
 21
3.11807
  0
LINE
  5
14A
100
AcDbEntity
  8
0
  6
ByLayer
 62
  256
370
   -1
100
AcDbLine
 10
7.52859
 20
3.11807
 11
7.48589
 21
3.14226
  0
LINE
  5
14B
100
AcDbEntity
  8
0
  6
ByLayer
 62
  256
370
   -1
100
AcDbLine
 10
7.48589
 20
3.14226
 11
7.44443
 21
3.16852
  0
LINE
  5
14C
100
AcDbEntity
  8
0
  6
ByLayer
 62
  256
370
   -1
100
AcDbLine
 10
7.44443
 20
3.16852
 11
7.4043
 21
3.19678
  0
LINE
  5
14D
100
AcDbEntity
  8
0
  6
ByLayer
 62
  256
370
   -1
100
AcDbLine
 10
7.4043
 20
3.19678
 11
7.3656
 21
3.22697
  0
LINE
  5
14E
100
AcDbEntity
  8
0
  6
ByLayer
 62
  256
370
   -1
100
AcDbLine
 10
7.3656
 20
3.22697
 11
7.32843
 21
3.25905
  0
LINE
  5
14F
100
AcDbEntity
  8
0
  6
ByLayer
 62
  256
370
   -1
100
AcDbLine
 10
7.32843
 20
3.25905
 11
7.29289
 21
3.29289
  0
LINE
  5
150
100
AcDbEntity
  8
0
  6
ByLayer
 62
  256
370
   -1
100
AcDbLine
 10
7.29289
 20
3.29289
 11
7.25905
 21
3.32843
  0
LINE
  5
151
100
AcDbEntity
  8
0
  6
ByLayer
 62
  256
370
   -1
100
AcDbLine
 10
7.25905
 20
3.32843
 11
7.22697
 21
3.3656
  0
LINE
  5
152
100
AcDbEntity
  8
0
  6
ByLayer
 62
  256
370
   -1
100
AcDbLine
 10
7.22697
 20
3.3656
 11
7.19678
 21
3.4043
  0
LINE
  5
153
100
AcDbEntity
  8
0
  6
ByLayer
 62
  256
370
   -1
100
AcDbLine
 10
7.19678
 20
3.4043
 11
7.16852
 21
3.44443
  0
LINE
  5
154
100
AcDbEntity
  8
0
  6
ByLayer
 62
  256
370
   -1
100
AcDbLine
 10
7.16852
 20
3.44443
 11
7.14226
 21
3.48589
  0
LINE
  5
155
100
AcDbEntity
  8
0
  6
ByLayer
 62
  256
370
   -1
100
AcDbLine
 10
7.14226
 20
3.48589
 11
7.11807
 21
3.52859
  0
LINE
  5
156
100
AcDbEntity
  8
0
  6
ByLayer
 62
  256
370
   -1
100
AcDbLine
 10
7.11807
 20
3.52859
 11
7.09601
 21
3.57243
  0
LINE
  5
157
100
AcDbEntity
  8
0
  6
ByLayer
 62
  256
370
   -1
100
AcDbLine
 10
7.09601
 20
3.57243
 11
7.07611
 21
3.61731
  0
LINE
  5
158
100
AcDbEntity
  8
0
  6
ByLayer
 62
  256
370
   -1
100
AcDbLine
 10
7.07611
 20
3.61731
 11
7.05844
 21
3.6631
  0
LINE
  5
159
100
AcDbEntity
  8
0
  6
ByLayer
 62
  256
370
   -1
100
AcDbLine
 10
7.05844
 20
3.6631
 11
7.04305
 21
3.7097
  0
LINE
  5
15A
100
AcDbEntity
  8
0
  6
ByLayer
 62
  256
370
   -1
100
AcDbLine
 10
7.04305
 20
3.7097
 11
7.02997
 21
3.75702
  0
LINE
  5
15B
100
AcDbEntity
  8
0
  6
ByLayer
 62
  256
370
   -1
100
AcDbLine
 10
7.02997
 20
3.75702
 11
7.01921
 21
3.8049
  0
LINE
  5
15C
100
AcDbEntity
  8
0
  6
ByLayer
 62
  256
370
   -1
100
AcDbLine
 10
7.01921
 20
3.8049
 11
7.01082
 21
3.85326
  0
LINE
  5
15D
100
AcDbEntity
  8
0
  6
ByLayer
 62
  256
370
   -1
100
AcDbLine
 10
7.01082
 20
3.85326
 11
7.00481
 21
3.90198
  0
LINE
  5
15E
100
AcDbEntity
  8
0
  6
ByLayer
 62
  256
370
   -1
100
AcDbLine
 10
7.00481
 20
3.90198
 11
7.00119
 21
3.95093
  0
LINE
  5
15F
100
AcDbEntity
  8
0
  6
ByLayer
 62
  256
370
   -1
100
AcDbLine
 10
7.00119
 20
3.95093
 11
7
 21
4
  0
LINE
  5
160
100
AcDbEntity
  8
0
  6
ByLayer
 62
  256
370
   -1
100
AcDbLine
 10
7
 20
4
 11
7.00119
 21
4.04906
  0
LINE
  5
161
100
AcDbEntity
  8
0
  6
ByLayer
 62
  256
370
   -1
100
AcDbLine
 10
7.00119
 20
4.04906
 11
7.00481
 21
4.09801
  0
LINE
  5
162
100
AcDbEntity
  8
0
  6
ByLayer
 62
  256
370
   -1
100
AcDbLine
 10
7.00481
 20
4.09801
 11
7.01082
 21
4.14673
  0
LINE
  5
163
100
AcDbEntity
  8
0
  6
ByLayer
 62
  256
370
   -1
100
AcDbLine
 10
7.01082
 20
4.14673
 11
7.01921
 21
4.19508
  0
LINE
  5
164
100
AcDbEntity
  8
0
  6
ByLayer
 62
  256
370
   -1
100
AcDbLine
 10
7.01921
 20
4.19508
 11
7.02997
 21
4.24297
  0
LINE
  5
165
100
AcDbEntity
  8
0
  6
ByLayer
 62
  256
370
   -1
100
AcDbLine
 10
7.02997
 20
4.24297
 11
7.04305
 21
4.29028
  0
LINE
  5
166
100
AcDbEntity
  8
0
  6
ByLayer
 62
  256
370
   -1
100
AcDbLine
 10
7.04305
 20
4.29028
 11
7.05844
 21
4.33688
  0
LINE
  5
167
100
AcDbEntity
  8
0
  6
ByLayer
 62
  256
370
   -1
100
AcDbLine
 10
7.05844
 20
4.33688
 11
7.07611
 21
4.38268
  0
LINE
  5
168
100
AcDbEntity
  8
0
  6
ByLayer
 62
  256
370
   -1
100
AcDbLine
 10
7.07611
 20
4.38268
 11
7.09601
 21
4.42755
  0
LINE
  5
169
100
AcDbEntity
  8
0
  6
ByLayer
 62
  256
370
   -1
100
AcDbLine
 10
7.09601
 20
4.42755
 11
7.11807
 21
4.47139
  0
LINE
  5
16A
100
AcDbEntity
  8
0
  6
ByLayer
 62
  256
370
   -1
100
AcDbLine
 10
7.11807
 20
4.47139
 11
7.14226
 21
4.5141
  0
LINE
  5
16B
100
AcDbEntity
  8
0
  6
ByLayer
 62
  256
370
   -1
100
AcDbLine
 10
7.14226
 20
4.5141
 11
7.16852
 21
4.55556
  0
LINE
  5
16C
100
AcDbEntity
  8
0
  6
ByLayer
 62
  256
370
   -1
100
AcDbLine
 10
7.16852
 20
4.55556
 11
7.19678
 21
4.59569
  0
LINE
  5
16D
100
AcDbEntity
  8
0
  6
ByLayer
 62
  256
370
   -1
100
AcDbLine
 10
7.19678
 20
4.59569
 11
7.22697
 21
4.63438
  0
LINE
  5
16E
100
AcDbEntity
  8
0
  6
ByLayer
 62
  256
370
   -1
100
AcDbLine
 10
7.22697
 20
4.63438
 11
7.25905
 21
4.67155
  0
LINE
  5
16F
100
AcDbEntity
  8
0
  6
ByLayer
 62
  256
370
   -1
100
AcDbLine
 10
7.25905
 20
4.67155
 11
7.29289
 21
4.70709
  0
LINE
  5
170
100
AcDbEntity
  8
0
  6
ByLayer
 62
  256
370
   -1
100
AcDbLine
 10
7.29289
 20
4.70709
 11
7.32843
 21
4.74094
  0
LINE
  5
171
100
AcDbEntity
  8
0
  6
ByLayer
 62
  256
370
   -1
100
AcDbLine
 10
7.32843
 20
4.74094
 11
7.3656
 21
4.77301
  0
LINE
  5
172
100
AcDbEntity
  8
0
  6
ByLayer
 62
  256
370
   -1
100
AcDbLine
 10
7.3656
 20
4.77301
 11
7.4043
 21
4.80321
  0
LINE
  5
173
100
AcDbEntity
  8
0
  6
ByLayer
 62
  256
370
   -1
100
AcDbLine
 10
7.4043
 20
4.80321
 11
7.44443
 21
4.83147
  0
LINE
  5
174
100
AcDbEntity
  8
0
  6
ByLayer
 62
  256
370
   -1
100
AcDbLine
 10
7.44443
 20
4.83147
 11
7.48589
 21
4.85773
  0
LINE
  5
175
100
AcDbEntity
  8
0
  6
ByLayer
 62
  256
370
   -1
100
AcDbLine
 10
7.48589
 20
4.85773
 11
7.52859
 21
4.88191
  0
LINE
  5
176
100
AcDbEntity
  8
0
  6
ByLayer
 62
  256
370
   -1
100
AcDbLine
 10
7.52859
 20
4.88191
 11
7.57243
 21
4.90398
  0
LINE
  5
177
100
AcDbEntity
  8
0
  6
ByLayer
 62
  256
370
   -1
100
AcDbLine
 10
7.57243
 20
4.90398
 11
7.61731
 21
4.92387
  0
LINE
  5
178
100
AcDbEntity
  8
0
  6
ByLayer
 62
  256
370
   -1
100
AcDbLine
 10
7.61731
 20
4.92387
 11
7.6631
 21
4.94154
  0
LINE
  5
179
100
AcDbEntity
  8
0
  6
ByLayer
 62
  256
370
   -1
100
AcDbLine
 10
7.6631
 20
4.94154
 11
7.7097
 21
4.95694
  0
LINE
  5
17A
100
AcDbEntity
  8
0
  6
ByLayer
 62
  256
370
   -1
100
AcDbLine
 10
7.7097
 20
4.95694
 11
7.75702
 21
4.97002
  0
LINE
  5
17B
100
AcDbEntity
  8
0
  6
ByLayer
 62
  256
370
   -1
100
AcDbLine
 10
7.75702
 20
4.97002
 11
7.8049
 21
4.98077
  0
LINE
  5
17C
100
AcDbEntity
  8
0
  6
ByLayer
 62
  256
370
   -1
100
AcDbLine
 10
7.8049
 20
4.98077
 11
7.85326
 21
4.98917
  0
LINE
  5
17D
100
AcDbEntity
  8
0
  6
ByLayer
 62
  256
370
   -1
100
AcDbLine
 10
7.85326
 20
4.98917
 11
7.90198
 21
4.99518
  0
LINE
  5
17E
100
AcDbEntity
  8
0
  6
ByLayer
 62
  256
370
   -1
100
AcDbLine
 10
7.90198
 20
4.99518
 11
7.95093
 21
4.99879
  0
LINE
  5
17F
100
AcDbEntity
  8
0
  6
ByLayer
 62
  256
370
   -1
100
AcDbLine
 10
7.95093
 20
4.99879
 11
8
 21
5
  0
LINE
  5
180
100
AcDbEntity
  8
0
  6
ByLayer
 62
  256
370
   -1
100
AcDbLine
 10
8
 20
5
 11
8.049060000000001
 21
4.99879
  0
LINE
  5
181
100
AcDbEntity
  8
0
  6
ByLayer
 62
  256
370
   -1
100
AcDbLine
 10
8.049060000000001
 20
4.99879
 11
8.09801
 21
4.99518
  0
LINE
  5
182
100
AcDbEntity
  8
0
  6
ByLayer
 62
  256
370
   -1
100
AcDbLine
 10
8.09801
 20
4.99518
 11
8.14673
 21
4.98917
  0
LINE
  5
183
100
AcDbEntity
  8
0
  6
ByLayer
 62
  256
370
   -1
100
AcDbLine
 10
8.14673
 20
4.98917
 11
8.195080000000001
 21
4.98077
  0
LINE
  5
184
100
AcDbEntity
  8
0
  6
ByLayer
 62
  256
370
   -1
100
AcDbLine
 10
8.195080000000001
 20
4.98077
 11
8.24297
 21
4.97002
  0
LINE
  5
185
100
AcDbEntity
  8
0
  6
ByLayer
 62
  256
370
   -1
100
AcDbLine
 10
8.24297
 20
4.97002
 11
8.290279999999999
 21
4.95694
  0
LINE
  5
186
100
AcDbEntity
  8
0
  6
ByLayer
 62
  256
370
   -1
100
AcDbLine
 10
8.290279999999999
 20
4.95694
 11
8.336880000000001
 21
4.94154
  0
LINE
  5
187
100
AcDbEntity
  8
0
  6
ByLayer
 62
  256
370
   -1
100
AcDbLine
 10
8.336880000000001
 20
4.94154
 11
8.382680000000001
 21
4.92387
  0
LINE
  5
188
100
AcDbEntity
  8
0
  6
ByLayer
 62
  256
370
   -1
100
AcDbLine
 10
8.382680000000001
 20
4.92387
 11
8.42755
 21
4.90398
  0
LINE
  5
189
100
AcDbEntity
  8
0
  6
ByLayer
 62
  256
370
   -1
100
AcDbLine
 10
8.42755
 20
4.90398
 11
8.47139
 21
4.88191
  0
LINE
  5
18A
100
AcDbEntity
  8
0
  6
ByLayer
 62
  256
370
   -1
100
AcDbLine
 10
8.47139
 20
4.88191
 11
8.514099999999999
 21
4.85773
  0
LINE
  5
18B
100
AcDbEntity
  8
0
  6
ByLayer
 62
  256
370
   -1
100
AcDbLine
 10
8.514099999999999
 20
4.85773
 11
8.55556
 21
4.83147
  0
LINE
  5
18C
100
AcDbEntity
  8
0
  6
ByLayer
 62
  256
370
   -1
100
AcDbLine
 10
8.55556
 20
4.83147
 11
8.595689999999999
 21
4.80321
  0
LINE
  5
18D
100
AcDbEntity
  8
0
  6
ByLayer
 62
  256
370
   -1
100
AcDbLine
 10
8.595689999999999
 20
4.80321
 11
8.63438
 21
4.77301
  0
LINE
  5
18E
100
AcDbEntity
  8
0
  6
ByLayer
 62
  256
370
   -1
100
AcDbLine
 10
8.63438
 20
4.77301
 11
8.67155
 21
4.74094
  0
LINE
  5
18F
100
AcDbEntity
  8
0
  6
ByLayer
 62
  256
370
   -1
100
AcDbLine
 10
8.67155
 20
4.74094
 11
8.707090000000001
 21
4.70709
  0
LINE
  5
190
100
AcDbEntity
  8
0
  6
ByLayer
 62
  256
370
   -1
100
AcDbLine
 10
8.707090000000001
 20
4.70709
 11
8.74094
 21
4.67155
  0
LINE
  5
191
100
AcDbEntity
  8
0
  6
ByLayer
 62
  256
370
   -1
100
AcDbLine
 10
8.74094
 20
4.67155
 11
8.773009999999999
 21
4.63438
  0
LINE
  5
192
100
AcDbEntity
  8
0
  6
ByLayer
 62
  256
370
   -1
100
AcDbLine
 10
8.773009999999999
 20
4.63438
 11
8.80321
 21
4.59569
  0
LINE
  5
193
100
AcDbEntity
  8
0
  6
ByLayer
 62
  256
370
   -1
100
AcDbLine
 10
8.80321
 20
4.59569
 11
8.831469999999999
 21
4.55556
  0
LINE
  5
194
100
AcDbEntity
  8
0
  6
ByLayer
 62
  256
370
   -1
100
AcDbLine
 10
8.831469999999999
 20
4.55556
 11
8.85773
 21
4.5141
  0
LINE
  5
195
100
AcDbEntity
  8
0
  6
ByLayer
 62
  256
370
   -1
100
AcDbLine
 10
8.85773
 20
4.5141
 11
8.88191
 21
4.47139
  0
LINE
  5
196
100
AcDbEntity
  8
0
  6
ByLayer
 62
  256
370
   -1
100
AcDbLine
 10
8.88191
 20
4.47139
 11
8.903980000000001
 21
4.42755
  0
LINE
  5
197
100
AcDbEntity
  8
0
  6
ByLayer
 62
  256
370
   -1
100
AcDbLine
 10
8.903980000000001
 20
4.42755
 11
8.923870000000001
 21
4.38268
  0
LINE
  5
198
100
AcDbEntity
  8
0
  6
ByLayer
 62
  256
370
   -1
100
AcDbLine
 10
8.923870000000001
 20
4.38268
 11
8.94154
 21
4.33688
  0
LINE
  5
199
100
AcDbEntity
  8
0
  6
ByLayer
 62
  256
370
   -1
100
AcDbLine
 10
8.94154
 20
4.33688
 11
8.956939999999999
 21
4.29028
  0
LINE
  5
19A
100
AcDbEntity
  8
0
  6
ByLayer
 62
  256
370
   -1
100
AcDbLine
 10
8.956939999999999
 20
4.29028
 11
8.97002
 21
4.24297
  0
LINE
  5
19B
100
AcDbEntity
  8
0
  6
ByLayer
 62
  256
370
   -1
100
AcDbLine
 10
8.97002
 20
4.24297
 11
8.98077
 21
4.19508
  0
LINE
  5
19C
100
AcDbEntity
  8
0
  6
ByLayer
 62
  256
370
   -1
100
AcDbLine
 10
8.98077
 20
4.19508
 11
8.98917
 21
4.14673
  0
LINE
  5
19D
100
AcDbEntity
  8
0
  6
ByLayer
 62
  256
370
   -1
100
AcDbLine
 10
8.98917
 20
4.14673
 11
8.99518
 21
4.09801
  0
LINE
  5
19E
100
AcDbEntity
  8
0
  6
ByLayer
 62
  256
370
   -1
100
AcDbLine
 10
8.99518
 20
4.09801
 11
8.99879
 21
4.04906
  0
LINE
  5
19F
100
AcDbEntity
  8
0
  6
ByLayer
 62
  256
370
   -1
100
AcDbLine
 10
8.99879
 20
4.04906
 11
9
 21
4
  0
LINE
  5
1A0
100
AcDbEntity
  8
0
  6
ByLayer
 62
  256
370
   -1
100
AcDbLine
 10
9
 20
4
 11
8.99879
 21
3.95093
  0
LINE
  5
1A1
100
AcDbEntity
  8
0
  6
ByLayer
 62
  256
370
   -1
100
AcDbLine
 10
8.99879
 20
3.95093
 11
8.99518
 21
3.90198
  0
LINE
  5
1A2
100
AcDbEntity
  8
0
  6
ByLayer
 62
  256
370
   -1
100
AcDbLine
 10
8.99518
 20
3.90198
 11
8.98917
 21
3.85326
  0
LINE
  5
1A3
100
AcDbEntity
  8
0
  6
ByLayer
 62
  256
370
   -1
100
AcDbLine
 10
8.98917
 20
3.85326
 11
8.98077
 21
3.8049
  0
LINE
  5
1A4
100
AcDbEntity
  8
0
  6
ByLayer
 62
  256
370
   -1
100
AcDbLine
 10
8.98077
 20
3.8049
 11
8.97002
 21
3.75702
  0
LINE
  5
1A5
100
AcDbEntity
  8
0
  6
ByLayer
 62
  256
370
   -1
100
AcDbLine
 10
8.97002
 20
3.75702
 11
8.956939999999999
 21
3.7097
  0
LINE
  5
1A6
100
AcDbEntity
  8
0
  6
ByLayer
 62
  256
370
   -1
100
AcDbLine
 10
8.956939999999999
 20
3.7097
 11
8.94154
 21
3.6631
  0
LINE
  5
1A7
100
AcDbEntity
  8
0
  6
ByLayer
 62
  256
370
   -1
100
AcDbLine
 10
8.94154
 20
3.6631
 11
8.923870000000001
 21
3.61731
  0
LINE
  5
1A8
100
AcDbEntity
  8
0
  6
ByLayer
 62
  256
370
   -1
100
AcDbLine
 10
8.923870000000001
 20
3.61731
 11
8.903980000000001
 21
3.57243
  0
LINE
  5
1A9
100
AcDbEntity
  8
0
  6
ByLayer
 62
  256
370
   -1
100
AcDbLine
 10
8.903980000000001
 20
3.57243
 11
8.88191
 21
3.52859
  0
LINE
  5
1AA
100
AcDbEntity
  8
0
  6
ByLayer
 62
  256
370
   -1
100
AcDbLine
 10
8.88191
 20
3.52859
 11
8.85773
 21
3.48589
  0
LINE
  5
1AB
100
AcDbEntity
  8
0
  6
ByLayer
 62
  256
370
   -1
100
AcDbLine
 10
8.85773
 20
3.48589
 11
8.831469999999999
 21
3.44443
  0
LINE
  5
1AC
100
AcDbEntity
  8
0
  6
ByLayer
 62
  256
370
   -1
100
AcDbLine
 10
8.831469999999999
 20
3.44443
 11
8.80321
 21
3.4043
  0
LINE
  5
1AD
100
AcDbEntity
  8
0
  6
ByLayer
 62
  256
370
   -1
100
AcDbLine
 10
8.80321
 20
3.4043
 11
8.773009999999999
 21
3.3656
  0
LINE
  5
1AE
100
AcDbEntity
  8
0
  6
ByLayer
 62
  256
370
   -1
100
AcDbLine
 10
8.773009999999999
 20
3.3656
 11
8.74094
 21
3.32843
  0
LINE
  5
1AF
100
AcDbEntity
  8
0
  6
ByLayer
 62
  256
370
   -1
100
AcDbLine
 10
8.74094
 20
3.32843
 11
8.707090000000001
 21
3.29289
  0
LINE
  5
1B0
100
AcDbEntity
  8
0
  6
ByLayer
 62
  256
370
   -1
100
AcDbLine
 10
8.707090000000001
 20
3.29289
 11
8.67155
 21
3.25905
  0
LINE
  5
1B1
100
AcDbEntity
  8
0
  6
ByLayer
 62
  256
370
   -1
100
AcDbLine
 10
8.67155
 20
3.25905
 11
8.63438
 21
3.22697
  0
LINE
  5
1B2
100
AcDbEntity
  8
0
  6
ByLayer
 62
  256
370
   -1
100
AcDbLine
 10
8.63438
 20
3.22697
 11
8.595689999999999
 21
3.19678
  0
LINE
  5
1B3
100
AcDbEntity
  8
0
  6
ByLayer
 62
  256
370
   -1
100
AcDbLine
 10
8.595689999999999
 20
3.19678
 11
8.55556
 21
3.16852
  0
LINE
  5
1B4
100
AcDbEntity
  8
0
  6
ByLayer
 62
  256
370
   -1
100
AcDbLine
 10
8.55556
 20
3.16852
 11
8.514099999999999
 21
3.14226
  0
LINE
  5
1B5
100
AcDbEntity
  8
0
  6
ByLayer
 62
  256
370
   -1
100
AcDbLine
 10
8.514099999999999
 20
3.14226
 11
8.47139
 21
3.11807
  0
LINE
  5
1B6
100
AcDbEntity
  8
0
  6
ByLayer
 62
  256
370
   -1
100
AcDbLine
 10
8.47139
 20
3.11807
 11
8.42755
 21
3.09601
  0
LINE
  5
1B7
100
AcDbEntity
  8
0
  6
ByLayer
 62
  256
370
   -1
100
AcDbLine
 10
8.42755
 20
3.09601
 11
8.382680000000001
 21
3.07611
  0
LINE
  5
1B8
100
AcDbEntity
  8
0
  6
ByLayer
 62
  256
370
   -1
100
AcDbLine
 10
8.382680000000001
 20
3.07611
 11
8.336880000000001
 21
3.05844
  0
LINE
  5
1B9
100
AcDbEntity
  8
0
  6
ByLayer
 62
  256
370
   -1
100
AcDbLine
 10
8.336880000000001
 20
3.05844
 11
8.290279999999999
 21
3.04305
  0
LINE
  5
1BA
100
AcDbEntity
  8
0
  6
ByLayer
 62
  256
370
   -1
100
AcDbLine
 10
8.290279999999999
 20
3.04305
 11
8.24297
 21
3.02997
  0
LINE
  5
1BB
100
AcDbEntity
  8
0
  6
ByLayer
 62
  256
370
   -1
100
AcDbLine
 10
8.24297
 20
3.02997
 11
8.195080000000001
 21
3.01921
  0
LINE
  5
1BC
100
AcDbEntity
  8
0
  6
ByLayer
 62
  256
370
   -1
100
AcDbLine
 10
8.195080000000001
 20
3.01921
 11
8.14673
 21
3.01082
  0
LINE
  5
1BD
100
AcDbEntity
  8
0
  6
ByLayer
 62
  256
370
   -1
100
AcDbLine
 10
8.14673
 20
3.01082
 11
8.09801
 21
3.00481
  0
LINE
  5
1BE
100
AcDbEntity
  8
0
  6
ByLayer
 62
  256
370
   -1
100
AcDbLine
 10
8.09801
 20
3.00481
 11
8.049060000000001
 21
3.00119
  0
LINE
  5
1BF
100
AcDbEntity
  8
0
  6
ByLayer
 62
  256
370
   -1
100
AcDbLine
 10
8.049060000000001
 20
3.00119
 11
8
 21
3
  0
LINE
  5
1C0
100
AcDbEntity
  8
0
  6
ByLayer
 62
  256
370
   -1
100
AcDbLine
 10
8
 20
3
 11
7.95093
 21
3.00119
  0
LINE
  5
1C1
100
AcDbEntity
  8
0
  6
ByLayer
 62
  256
370
   -1
100
AcDbLine
 10
-8.049060000000001
 20
-4.99879
 11
-8.09801
 21
-4.99518
  0
LINE
  5
1C2
100
AcDbEntity
  8
0
  6
ByLayer
 62
  256
370
   -1
100
AcDbLine
 10
-8.09801
 20
-4.99518
 11
-8.14673
 21
-4.98917
  0
LINE
  5
1C3
100
AcDbEntity
  8
0
  6
ByLayer
 62
  256
370
   -1
100
AcDbLine
 10
-8.14673
 20
-4.98917
 11
-8.195080000000001
 21
-4.98077
  0
LINE
  5
1C4
100
AcDbEntity
  8
0
  6
ByLayer
 62
  256
370
   -1
100
AcDbLine
 10
-8.195080000000001
 20
-4.98077
 11
-8.24297
 21
-4.97002
  0
LINE
  5
1C5
100
AcDbEntity
  8
0
  6
ByLayer
 62
  256
370
   -1
100
AcDbLine
 10
-8.24297
 20
-4.97002
 11
-8.290279999999999
 21
-4.95694
  0
LINE
  5
1C6
100
AcDbEntity
  8
0
  6
ByLayer
 62
  256
370
   -1
100
AcDbLine
 10
-8.290279999999999
 20
-4.95694
 11
-8.336880000000001
 21
-4.94154
  0
LINE
  5
1C7
100
AcDbEntity
  8
0
  6
ByLayer
 62
  256
370
   -1
100
AcDbLine
 10
-8.336880000000001
 20
-4.94154
 11
-8.382680000000001
 21
-4.92387
  0
LINE
  5
1C8
100
AcDbEntity
  8
0
  6
ByLayer
 62
  256
370
   -1
100
AcDbLine
 10
-8.382680000000001
 20
-4.92387
 11
-8.42755
 21
-4.90398
  0
LINE
  5
1C9
100
AcDbEntity
  8
0
  6
ByLayer
 62
  256
370
   -1
100
AcDbLine
 10
-8.42755
 20
-4.90398
 11
-8.47139
 21
-4.88191
  0
LINE
  5
1CA
100
AcDbEntity
  8
0
  6
ByLayer
 62
  256
370
   -1
100
AcDbLine
 10
-8.47139
 20
-4.88191
 11
-8.514099999999999
 21
-4.85773
  0
LINE
  5
1CB
100
AcDbEntity
  8
0
  6
ByLayer
 62
  256
370
   -1
100
AcDbLine
 10
-8.514099999999999
 20
-4.85773
 11
-8.55556
 21
-4.83147
  0
LINE
  5
1CC
100
AcDbEntity
  8
0
  6
ByLayer
 62
  256
370
   -1
100
AcDbLine
 10
-8.55556
 20
-4.83147
 11
-8.595689999999999
 21
-4.80321
  0
LINE
  5
1CD
100
AcDbEntity
  8
0
  6
ByLayer
 62
  256
370
   -1
100
AcDbLine
 10
-8.595689999999999
 20
-4.80321
 11
-8.63438
 21
-4.77301
  0
LINE
  5
1CE
100
AcDbEntity
  8
0
  6
ByLayer
 62
  256
370
   -1
100
AcDbLine
 10
-8.63438
 20
-4.77301
 11
-8.67155
 21
-4.74094
  0
LINE
  5
1CF
100
AcDbEntity
  8
0
  6
ByLayer
 62
  256
370
   -1
100
AcDbLine
 10
-8.67155
 20
-4.74094
 11
-8.707090000000001
 21
-4.70709
  0
LINE
  5
1D0
100
AcDbEntity
  8
0
  6
ByLayer
 62
  256
370
   -1
100
AcDbLine
 10
-8.707090000000001
 20
-4.70709
 11
-8.74094
 21
-4.67155
  0
LINE
  5
1D1
100
AcDbEntity
  8
0
  6
ByLayer
 62
  256
370
   -1
100
AcDbLine
 10
-8.74094
 20
-4.67155
 11
-8.773009999999999
 21
-4.63438
  0
LINE
  5
1D2
100
AcDbEntity
  8
0
  6
ByLayer
 62
  256
370
   -1
100
AcDbLine
 10
-8.773009999999999
 20
-4.63438
 11
-8.80321
 21
-4.59569
  0
LINE
  5
1D3
100
AcDbEntity
  8
0
  6
ByLayer
 62
  256
370
   -1
100
AcDbLine
 10
-8.80321
 20
-4.59569
 11
-8.831469999999999
 21
-4.55556
  0
LINE
  5
1D4
100
AcDbEntity
  8
0
  6
ByLayer
 62
  256
370
   -1
100
AcDbLine
 10
-8.831469999999999
 20
-4.55556
 11
-8.85773
 21
-4.5141
  0
LINE
  5
1D5
100
AcDbEntity
  8
0
  6
ByLayer
 62
  256
370
   -1
100
AcDbLine
 10
-8.85773
 20
-4.5141
 11
-8.88191
 21
-4.47139
  0
LINE
  5
1D6
100
AcDbEntity
  8
0
  6
ByLayer
 62
  256
370
   -1
100
AcDbLine
 10
-8.88191
 20
-4.47139
 11
-8.903980000000001
 21
-4.42755
  0
LINE
  5
1D7
100
AcDbEntity
  8
0
  6
ByLayer
 62
  256
370
   -1
100
AcDbLine
 10
-8.903980000000001
 20
-4.42755
 11
-8.923870000000001
 21
-4.38268
  0
LINE
  5
1D8
100
AcDbEntity
  8
0
  6
ByLayer
 62
  256
370
   -1
100
AcDbLine
 10
-8.923870000000001
 20
-4.38268
 11
-8.94154
 21
-4.33688
  0
LINE
  5
1D9
100
AcDbEntity
  8
0
  6
ByLayer
 62
  256
370
   -1
100
AcDbLine
 10
-8.94154
 20
-4.33688
 11
-8.956939999999999
 21
-4.29028
  0
LINE
  5
1DA
100
AcDbEntity
  8
0
  6
ByLayer
 62
  256
370
   -1
100
AcDbLine
 10
-8.956939999999999
 20
-4.29028
 11
-8.97002
 21
-4.24297
  0
LINE
  5
1DB
100
AcDbEntity
  8
0
  6
ByLayer
 62
  256
370
   -1
100
AcDbLine
 10
-8.97002
 20
-4.24297
 11
-8.98077
 21
-4.19508
  0
LINE
  5
1DC
100
AcDbEntity
  8
0
  6
ByLayer
 62
  256
370
   -1
100
AcDbLine
 10
-8.98077
 20
-4.19508
 11
-8.98917
 21
-4.14673
  0
LINE
  5
1DD
100
AcDbEntity
  8
0
  6
ByLayer
 62
  256
370
   -1
100
AcDbLine
 10
-8.98917
 20
-4.14673
 11
-8.99518
 21
-4.09801
  0
LINE
  5
1DE
100
AcDbEntity
  8
0
  6
ByLayer
 62
  256
370
   -1
100
AcDbLine
 10
-8.99518
 20
-4.09801
 11
-8.99879
 21
-4.04906
  0
LINE
  5
1DF
100
AcDbEntity
  8
0
  6
ByLayer
 62
  256
370
   -1
100
AcDbLine
 10
-8.99879
 20
-4.04906
 11
-9
 21
-4
  0
LINE
  5
1E0
100
AcDbEntity
  8
0
  6
ByLayer
 62
  256
370
   -1
100
AcDbLine
 10
-9
 20
-4
 11
-8.99879
 21
-3.95093
  0
LINE
  5
1E1
100
AcDbEntity
  8
0
  6
ByLayer
 62
  256
370
   -1
100
AcDbLine
 10
-8.99879
 20
-3.95093
 11
-8.99518
 21
-3.90198
  0
LINE
  5
1E2
100
AcDbEntity
  8
0
  6
ByLayer
 62
  256
370
   -1
100
AcDbLine
 10
-8.99518
 20
-3.90198
 11
-8.98917
 21
-3.85326
  0
LINE
  5
1E3
100
AcDbEntity
  8
0
  6
ByLayer
 62
  256
370
   -1
100
AcDbLine
 10
-8.98917
 20
-3.85326
 11
-8.98077
 21
-3.8049
  0
LINE
  5
1E4
100
AcDbEntity
  8
0
  6
ByLayer
 62
  256
370
   -1
100
AcDbLine
 10
-8.98077
 20
-3.8049
 11
-8.97002
 21
-3.75702
  0
LINE
  5
1E5
100
AcDbEntity
  8
0
  6
ByLayer
 62
  256
370
   -1
100
AcDbLine
 10
-8.97002
 20
-3.75702
 11
-8.956939999999999
 21
-3.7097
  0
LINE
  5
1E6
100
AcDbEntity
  8
0
  6
ByLayer
 62
  256
370
   -1
100
AcDbLine
 10
-8.956939999999999
 20
-3.7097
 11
-8.94154
 21
-3.6631
  0
LINE
  5
1E7
100
AcDbEntity
  8
0
  6
ByLayer
 62
  256
370
   -1
100
AcDbLine
 10
-8.94154
 20
-3.6631
 11
-8.923870000000001
 21
-3.61731
  0
LINE
  5
1E8
100
AcDbEntity
  8
0
  6
ByLayer
 62
  256
370
   -1
100
AcDbLine
 10
-8.923870000000001
 20
-3.61731
 11
-8.903980000000001
 21
-3.57243
  0
LINE
  5
1E9
100
AcDbEntity
  8
0
  6
ByLayer
 62
  256
370
   -1
100
AcDbLine
 10
-8.903980000000001
 20
-3.57243
 11
-8.88191
 21
-3.52859
  0
LINE
  5
1EA
100
AcDbEntity
  8
0
  6
ByLayer
 62
  256
370
   -1
100
AcDbLine
 10
-8.88191
 20
-3.52859
 11
-8.85773
 21
-3.48589
  0
LINE
  5
1EB
100
AcDbEntity
  8
0
  6
ByLayer
 62
  256
370
   -1
100
AcDbLine
 10
-8.85773
 20
-3.48589
 11
-8.831469999999999
 21
-3.44443
  0
LINE
  5
1EC
100
AcDbEntity
  8
0
  6
ByLayer
 62
  256
370
   -1
100
AcDbLine
 10
-8.831469999999999
 20
-3.44443
 11
-8.80321
 21
-3.4043
  0
LINE
  5
1ED
100
AcDbEntity
  8
0
  6
ByLayer
 62
  256
370
   -1
100
AcDbLine
 10
-8.80321
 20
-3.4043
 11
-8.773009999999999
 21
-3.3656
  0
LINE
  5
1EE
100
AcDbEntity
  8
0
  6
ByLayer
 62
  256
370
   -1
100
AcDbLine
 10
-8.773009999999999
 20
-3.3656
 11
-8.74094
 21
-3.32843
  0
LINE
  5
1EF
100
AcDbEntity
  8
0
  6
ByLayer
 62
  256
370
   -1
100
AcDbLine
 10
-8.74094
 20
-3.32843
 11
-8.707090000000001
 21
-3.29289
  0
LINE
  5
1F0
100
AcDbEntity
  8
0
  6
ByLayer
 62
  256
370
   -1
100
AcDbLine
 10
-8.707090000000001
 20
-3.29289
 11
-8.67155
 21
-3.25905
  0
LINE
  5
1F1
100
AcDbEntity
  8
0
  6
ByLayer
 62
  256
370
   -1
100
AcDbLine
 10
-8.67155
 20
-3.25905
 11
-8.63438
 21
-3.22697
  0
LINE
  5
1F2
100
AcDbEntity
  8
0
  6
ByLayer
 62
  256
370
   -1
100
AcDbLine
 10
-8.63438
 20
-3.22697
 11
-8.595689999999999
 21
-3.19678
  0
LINE
  5
1F3
100
AcDbEntity
  8
0
  6
ByLayer
 62
  256
370
   -1
100
AcDbLine
 10
-8.595689999999999
 20
-3.19678
 11
-8.55556
 21
-3.16852
  0
LINE
  5
1F4
100
AcDbEntity
  8
0
  6
ByLayer
 62
  256
370
   -1
100
AcDbLine
 10
-8.55556
 20
-3.16852
 11
-8.514099999999999
 21
-3.14226
  0
LINE
  5
1F5
100
AcDbEntity
  8
0
  6
ByLayer
 62
  256
370
   -1
100
AcDbLine
 10
-8.514099999999999
 20
-3.14226
 11
-8.47139
 21
-3.11807
  0
LINE
  5
1F6
100
AcDbEntity
  8
0
  6
ByLayer
 62
  256
370
   -1
100
AcDbLine
 10
-8.47139
 20
-3.11807
 11
-8.42755
 21
-3.09601
  0
LINE
  5
1F7
100
AcDbEntity
  8
0
  6
ByLayer
 62
  256
370
   -1
100
AcDbLine
 10
-8.42755
 20
-3.09601
 11
-8.382680000000001
 21
-3.07611
  0
LINE
  5
1F8
100
AcDbEntity
  8
0
  6
ByLayer
 62
  256
370
   -1
100
AcDbLine
 10
-8.382680000000001
 20
-3.07611
 11
-8.336880000000001
 21
-3.05844
  0
LINE
  5
1F9
100
AcDbEntity
  8
0
  6
ByLayer
 62
  256
370
   -1
100
AcDbLine
 10
-8.336880000000001
 20
-3.05844
 11
-8.290279999999999
 21
-3.04305
  0
LINE
  5
1FA
100
AcDbEntity
  8
0
  6
ByLayer
 62
  256
370
   -1
100
AcDbLine
 10
-8.290279999999999
 20
-3.04305
 11
-8.24297
 21
-3.02997
  0
LINE
  5
1FB
100
AcDbEntity
  8
0
  6
ByLayer
 62
  256
370
   -1
100
AcDbLine
 10
-8.24297
 20
-3.02997
 11
-8.195080000000001
 21
-3.01921
  0
LINE
  5
1FC
100
AcDbEntity
  8
0
  6
ByLayer
 62
  256
370
   -1
100
AcDbLine
 10
-8.195080000000001
 20
-3.01921
 11
-8.14673
 21
-3.01082
  0
LINE
  5
1FD
100
AcDbEntity
  8
0
  6
ByLayer
 62
  256
370
   -1
100
AcDbLine
 10
-8.14673
 20
-3.01082
 11
-8.09801
 21
-3.00481
  0
LINE
  5
1FE
100
AcDbEntity
  8
0
  6
ByLayer
 62
  256
370
   -1
100
AcDbLine
 10
-8.09801
 20
-3.00481
 11
-8.049060000000001
 21
-3.00119
  0
LINE
  5
1FF
100
AcDbEntity
  8
0
  6
ByLayer
 62
  256
370
   -1
100
AcDbLine
 10
-8.049060000000001
 20
-3.00119
 11
-8
 21
-3
  0
LINE
  5
200
100
AcDbEntity
  8
0
  6
ByLayer
 62
  256
370
   -1
100
AcDbLine
 10
-8
 20
-3
 11
-7.95093
 21
-3.00119
  0
LINE
  5
201
100
AcDbEntity
  8
0
  6
ByLayer
 62
  256
370
   -1
100
AcDbLine
 10
-7.95093
 20
-3.00119
 11
-7.90198
 21
-3.00481
  0
LINE
  5
202
100
AcDbEntity
  8
0
  6
ByLayer
 62
  256
370
   -1
100
AcDbLine
 10
-7.90198
 20
-3.00481
 11
-7.85326
 21
-3.01082
  0
LINE
  5
203
100
AcDbEntity
  8
0
  6
ByLayer
 62
  256
370
   -1
100
AcDbLine
 10
-7.85326
 20
-3.01082
 11
-7.8049
 21
-3.01921
  0
LINE
  5
204
100
AcDbEntity
  8
0
  6
ByLayer
 62
  256
370
   -1
100
AcDbLine
 10
-7.8049
 20
-3.01921
 11
-7.75702
 21
-3.02997
  0
LINE
  5
205
100
AcDbEntity
  8
0
  6
ByLayer
 62
  256
370
   -1
100
AcDbLine
 10
-7.75702
 20
-3.02997
 11
-7.7097
 21
-3.04305
  0
LINE
  5
206
100
AcDbEntity
  8
0
  6
ByLayer
 62
  256
370
   -1
100
AcDbLine
 10
-7.7097
 20
-3.04305
 11
-7.6631
 21
-3.05844
  0
LINE
  5
207
100
AcDbEntity
  8
0
  6
ByLayer
 62
  256
370
   -1
100
AcDbLine
 10
-7.6631
 20
-3.05844
 11
-7.61731
 21
-3.07611
  0
LINE
  5
208
100
AcDbEntity
  8
0
  6
ByLayer
 62
  256
370
   -1
100
AcDbLine
 10
-7.61731
 20
-3.07611
 11
-7.57243
 21
-3.09601
  0
LINE
  5
209
100
AcDbEntity
  8
0
  6
ByLayer
 62
  256
370
   -1
100
AcDbLine
 10
-7.57243
 20
-3.09601
 11
-7.52859
 21
-3.11807
  0
LINE
  5
20A
100
AcDbEntity
  8
0
  6
ByLayer
 62
  256
370
   -1
100
AcDbLine
 10
-7.52859
 20
-3.11807
 11
-7.48589
 21
-3.14226
  0
LINE
  5
20B
100
AcDbEntity
  8
0
  6
ByLayer
 62
  256
370
   -1
100
AcDbLine
 10
-7.48589
 20
-3.14226
 11
-7.44443
 21
-3.16852
  0
LINE
  5
20C
100
AcDbEntity
  8
0
  6
ByLayer
 62
  256
370
   -1
100
AcDbLine
 10
-7.44443
 20
-3.16852
 11
-7.4043
 21
-3.19678
  0
LINE
  5
20D
100
AcDbEntity
  8
0
  6
ByLayer
 62
  256
370
   -1
100
AcDbLine
 10
-7.4043
 20
-3.19678
 11
-7.3656
 21
-3.22697
  0
LINE
  5
20E
100
AcDbEntity
  8
0
  6
ByLayer
 62
  256
370
   -1
100
AcDbLine
 10
-7.3656
 20
-3.22697
 11
-7.32843
 21
-3.25905
  0
LINE
  5
20F
100
AcDbEntity
  8
0
  6
ByLayer
 62
  256
370
   -1
100
AcDbLine
 10
-7.32843
 20
-3.25905
 11
-7.29289
 21
-3.29289
  0
LINE
  5
210
100
AcDbEntity
  8
0
  6
ByLayer
 62
  256
370
   -1
100
AcDbLine
 10
-7.29289
 20
-3.29289
 11
-7.25905
 21
-3.32843
  0
LINE
  5
211
100
AcDbEntity
  8
0
  6
ByLayer
 62
  256
370
   -1
100
AcDbLine
 10
-7.25905
 20
-3.32843
 11
-7.22697
 21
-3.3656
  0
LINE
  5
212
100
AcDbEntity
  8
0
  6
ByLayer
 62
  256
370
   -1
100
AcDbLine
 10
-7.22697
 20
-3.3656
 11
-7.19678
 21
-3.4043
  0
LINE
  5
213
100
AcDbEntity
  8
0
  6
ByLayer
 62
  256
370
   -1
100
AcDbLine
 10
-7.19678
 20
-3.4043
 11
-7.16852
 21
-3.44443
  0
LINE
  5
214
100
AcDbEntity
  8
0
  6
ByLayer
 62
  256
370
   -1
100
AcDbLine
 10
-7.16852
 20
-3.44443
 11
-7.14226
 21
-3.48589
  0
LINE
  5
215
100
AcDbEntity
  8
0
  6
ByLayer
 62
  256
370
   -1
100
AcDbLine
 10
-7.14226
 20
-3.48589
 11
-7.11807
 21
-3.52859
  0
LINE
  5
216
100
AcDbEntity
  8
0
  6
ByLayer
 62
  256
370
   -1
100
AcDbLine
 10
-7.11807
 20
-3.52859
 11
-7.09601
 21
-3.57243
  0
LINE
  5
217
100
AcDbEntity
  8
0
  6
ByLayer
 62
  256
370
   -1
100
AcDbLine
 10
-7.09601
 20
-3.57243
 11
-7.07611
 21
-3.61731
  0
LINE
  5
218
100
AcDbEntity
  8
0
  6
ByLayer
 62
  256
370
   -1
100
AcDbLine
 10
-7.07611
 20
-3.61731
 11
-7.05844
 21
-3.6631
  0
LINE
  5
219
100
AcDbEntity
  8
0
  6
ByLayer
 62
  256
370
   -1
100
AcDbLine
 10
-7.05844
 20
-3.6631
 11
-7.04305
 21
-3.7097
  0
LINE
  5
21A
100
AcDbEntity
  8
0
  6
ByLayer
 62
  256
370
   -1
100
AcDbLine
 10
-7.04305
 20
-3.7097
 11
-7.02997
 21
-3.75702
  0
LINE
  5
21B
100
AcDbEntity
  8
0
  6
ByLayer
 62
  256
370
   -1
100
AcDbLine
 10
-7.02997
 20
-3.75702
 11
-7.01921
 21
-3.8049
  0
LINE
  5
21C
100
AcDbEntity
  8
0
  6
ByLayer
 62
  256
370
   -1
100
AcDbLine
 10
-7.01921
 20
-3.8049
 11
-7.01082
 21
-3.85326
  0
LINE
  5
21D
100
AcDbEntity
  8
0
  6
ByLayer
 62
  256
370
   -1
100
AcDbLine
 10
-7.01082
 20
-3.85326
 11
-7.00481
 21
-3.90198
  0
LINE
  5
21E
100
AcDbEntity
  8
0
  6
ByLayer
 62
  256
370
   -1
100
AcDbLine
 10
-7.00481
 20
-3.90198
 11
-7.00119
 21
-3.95093
  0
LINE
  5
21F
100
AcDbEntity
  8
0
  6
ByLayer
 62
  256
370
   -1
100
AcDbLine
 10
-7.00119
 20
-3.95093
 11
-7
 21
-4
  0
LINE
  5
220
100
AcDbEntity
  8
0
  6
ByLayer
 62
  256
370
   -1
100
AcDbLine
 10
-7
 20
-4
 11
-7.00119
 21
-4.04906
  0
LINE
  5
221
100
AcDbEntity
  8
0
  6
ByLayer
 62
  256
370
   -1
100
AcDbLine
 10
-7.00119
 20
-4.04906
 11
-7.00481
 21
-4.09801
  0
LINE
  5
222
100
AcDbEntity
  8
0
  6
ByLayer
 62
  256
370
   -1
100
AcDbLine
 10
-7.00481
 20
-4.09801
 11
-7.01082
 21
-4.14673
  0
LINE
  5
223
100
AcDbEntity
  8
0
  6
ByLayer
 62
  256
370
   -1
100
AcDbLine
 10
-7.01082
 20
-4.14673
 11
-7.01921
 21
-4.19508
  0
LINE
  5
224
100
AcDbEntity
  8
0
  6
ByLayer
 62
  256
370
   -1
100
AcDbLine
 10
-7.01921
 20
-4.19508
 11
-7.02997
 21
-4.24297
  0
LINE
  5
225
100
AcDbEntity
  8
0
  6
ByLayer
 62
  256
370
   -1
100
AcDbLine
 10
-7.02997
 20
-4.24297
 11
-7.04305
 21
-4.29028
  0
LINE
  5
226
100
AcDbEntity
  8
0
  6
ByLayer
 62
  256
370
   -1
100
AcDbLine
 10
-7.04305
 20
-4.29028
 11
-7.05844
 21
-4.33688
  0
LINE
  5
227
100
AcDbEntity
  8
0
  6
ByLayer
 62
  256
370
   -1
100
AcDbLine
 10
-7.05844
 20
-4.33688
 11
-7.07611
 21
-4.38268
  0
LINE
  5
228
100
AcDbEntity
  8
0
  6
ByLayer
 62
  256
370
   -1
100
AcDbLine
 10
-7.07611
 20
-4.38268
 11
-7.09601
 21
-4.42755
  0
LINE
  5
229
100
AcDbEntity
  8
0
  6
ByLayer
 62
  256
370
   -1
100
AcDbLine
 10
-7.09601
 20
-4.42755
 11
-7.11807
 21
-4.47139
  0
LINE
  5
22A
100
AcDbEntity
  8
0
  6
ByLayer
 62
  256
370
   -1
100
AcDbLine
 10
-7.11807
 20
-4.47139
 11
-7.14226
 21
-4.5141
  0
LINE
  5
22B
100
AcDbEntity
  8
0
  6
ByLayer
 62
  256
370
   -1
100
AcDbLine
 10
-7.14226
 20
-4.5141
 11
-7.16852
 21
-4.55556
  0
LINE
  5
22C
100
AcDbEntity
  8
0
  6
ByLayer
 62
  256
370
   -1
100
AcDbLine
 10
-7.16852
 20
-4.55556
 11
-7.19678
 21
-4.59569
  0
LINE
  5
22D
100
AcDbEntity
  8
0
  6
ByLayer
 62
  256
370
   -1
100
AcDbLine
 10
-7.19678
 20
-4.59569
 11
-7.22697
 21
-4.63438
  0
LINE
  5
22E
100
AcDbEntity
  8
0
  6
ByLayer
 62
  256
370
   -1
100
AcDbLine
 10
-7.22697
 20
-4.63438
 11
-7.25905
 21
-4.67155
  0
LINE
  5
22F
100
AcDbEntity
  8
0
  6
ByLayer
 62
  256
370
   -1
100
AcDbLine
 10
-7.25905
 20
-4.67155
 11
-7.29289
 21
-4.70709
  0
LINE
  5
230
100
AcDbEntity
  8
0
  6
ByLayer
 62
  256
370
   -1
100
AcDbLine
 10
-7.29289
 20
-4.70709
 11
-7.32843
 21
-4.74094
  0
LINE
  5
231
100
AcDbEntity
  8
0
  6
ByLayer
 62
  256
370
   -1
100
AcDbLine
 10
-7.32843
 20
-4.74094
 11
-7.3656
 21
-4.77301
  0
LINE
  5
232
100
AcDbEntity
  8
0
  6
ByLayer
 62
  256
370
   -1
100
AcDbLine
 10
-7.3656
 20
-4.77301
 11
-7.4043
 21
-4.80321
  0
LINE
  5
233
100
AcDbEntity
  8
0
  6
ByLayer
 62
  256
370
   -1
100
AcDbLine
 10
-7.4043
 20
-4.80321
 11
-7.44443
 21
-4.83147
  0
LINE
  5
234
100
AcDbEntity
  8
0
  6
ByLayer
 62
  256
370
   -1
100
AcDbLine
 10
-7.44443
 20
-4.83147
 11
-7.48589
 21
-4.85773
  0
LINE
  5
235
100
AcDbEntity
  8
0
  6
ByLayer
 62
  256
370
   -1
100
AcDbLine
 10
-7.48589
 20
-4.85773
 11
-7.52859
 21
-4.88191
  0
LINE
  5
236
100
AcDbEntity
  8
0
  6
ByLayer
 62
  256
370
   -1
100
AcDbLine
 10
-7.52859
 20
-4.88191
 11
-7.57243
 21
-4.90398
  0
LINE
  5
237
100
AcDbEntity
  8
0
  6
ByLayer
 62
  256
370
   -1
100
AcDbLine
 10
-7.57243
 20
-4.90398
 11
-7.61731
 21
-4.92387
  0
LINE
  5
238
100
AcDbEntity
  8
0
  6
ByLayer
 62
  256
370
   -1
100
AcDbLine
 10
-7.61731
 20
-4.92387
 11
-7.6631
 21
-4.94154
  0
LINE
  5
239
100
AcDbEntity
  8
0
  6
ByLayer
 62
  256
370
   -1
100
AcDbLine
 10
-7.6631
 20
-4.94154
 11
-7.7097
 21
-4.95694
  0
LINE
  5
23A
100
AcDbEntity
  8
0
  6
ByLayer
 62
  256
370
   -1
100
AcDbLine
 10
-7.7097
 20
-4.95694
 11
-7.75702
 21
-4.97002
  0
LINE
  5
23B
100
AcDbEntity
  8
0
  6
ByLayer
 62
  256
370
   -1
100
AcDbLine
 10
-7.75702
 20
-4.97002
 11
-7.8049
 21
-4.98077
  0
LINE
  5
23C
100
AcDbEntity
  8
0
  6
ByLayer
 62
  256
370
   -1
100
AcDbLine
 10
-7.8049
 20
-4.98077
 11
-7.85326
 21
-4.98917
  0
LINE
  5
23D
100
AcDbEntity
  8
0
  6
ByLayer
 62
  256
370
   -1
100
AcDbLine
 10
-7.85326
 20
-4.98917
 11
-7.90198
 21
-4.99518
  0
LINE
  5
23E
100
AcDbEntity
  8
0
  6
ByLayer
 62
  256
370
   -1
100
AcDbLine
 10
-7.90198
 20
-4.99518
 11
-7.95093
 21
-4.99879
  0
LINE
  5
23F
100
AcDbEntity
  8
0
  6
ByLayer
 62
  256
370
   -1
100
AcDbLine
 10
-7.95093
 20
-4.99879
 11
-8
 21
-5
  0
LINE
  5
240
100
AcDbEntity
  8
0
  6
ByLayer
 62
  256
370
   -1
100
AcDbLine
 10
-8
 20
-5
 11
-8.049060000000001
 21
-4.99879
  0
LINE
  5
241
100
AcDbEntity
  8
0
  6
ByLayer
 62
  256
370
   -1
100
AcDbLine
 10
3.95093
 20
-8.99879
 11
3.90198
 21
-8.99518
  0
LINE
  5
242
100
AcDbEntity
  8
0
  6
ByLayer
 62
  256
370
   -1
100
AcDbLine
 10
3.90198
 20
-8.99518
 11
3.85326
 21
-8.98917
  0
LINE
  5
243
100
AcDbEntity
  8
0
  6
ByLayer
 62
  256
370
   -1
100
AcDbLine
 10
3.85326
 20
-8.98917
 11
3.8049
 21
-8.98077
  0
LINE
  5
244
100
AcDbEntity
  8
0
  6
ByLayer
 62
  256
370
   -1
100
AcDbLine
 10
3.8049
 20
-8.98077
 11
3.75702
 21
-8.97002
  0
LINE
  5
245
100
AcDbEntity
  8
0
  6
ByLayer
 62
  256
370
   -1
100
AcDbLine
 10
3.75702
 20
-8.97002
 11
3.7097
 21
-8.956939999999999
  0
LINE
  5
246
100
AcDbEntity
  8
0
  6
ByLayer
 62
  256
370
   -1
100
AcDbLine
 10
3.7097
 20
-8.956939999999999
 11
3.6631
 21
-8.94154
  0
LINE
  5
247
100
AcDbEntity
  8
0
  6
ByLayer
 62
  256
370
   -1
100
AcDbLine
 10
3.6631
 20
-8.94154
 11
3.61731
 21
-8.923870000000001
  0
LINE
  5
248
100
AcDbEntity
  8
0
  6
ByLayer
 62
  256
370
   -1
100
AcDbLine
 10
3.61731
 20
-8.923870000000001
 11
3.57243
 21
-8.903980000000001
  0
LINE
  5
249
100
AcDbEntity
  8
0
  6
ByLayer
 62
  256
370
   -1
100
AcDbLine
 10
3.57243
 20
-8.903980000000001
 11
3.52859
 21
-8.88191
  0
LINE
  5
24A
100
AcDbEntity
  8
0
  6
ByLayer
 62
  256
370
   -1
100
AcDbLine
 10
3.52859
 20
-8.88191
 11
3.48589
 21
-8.85773
  0
LINE
  5
24B
100
AcDbEntity
  8
0
  6
ByLayer
 62
  256
370
   -1
100
AcDbLine
 10
3.48589
 20
-8.85773
 11
3.44443
 21
-8.831469999999999
  0
LINE
  5
24C
100
AcDbEntity
  8
0
  6
ByLayer
 62
  256
370
   -1
100
AcDbLine
 10
3.44443
 20
-8.831469999999999
 11
3.4043
 21
-8.80321
  0
LINE
  5
24D
100
AcDbEntity
  8
0
  6
ByLayer
 62
  256
370
   -1
100
AcDbLine
 10
3.4043
 20
-8.80321
 11
3.3656
 21
-8.773009999999999
  0
LINE
  5
24E
100
AcDbEntity
  8
0
  6
ByLayer
 62
  256
370
   -1
100
AcDbLine
 10
3.3656
 20
-8.773009999999999
 11
3.32843
 21
-8.74094
  0
LINE
  5
24F
100
AcDbEntity
  8
0
  6
ByLayer
 62
  256
370
   -1
100
AcDbLine
 10
3.32843
 20
-8.74094
 11
3.29289
 21
-8.707090000000001
  0
LINE
  5
250
100
AcDbEntity
  8
0
  6
ByLayer
 62
  256
370
   -1
100
AcDbLine
 10
3.29289
 20
-8.707090000000001
 11
3.25905
 21
-8.67155
  0
LINE
  5
251
100
AcDbEntity
  8
0
  6
ByLayer
 62
  256
370
   -1
100
AcDbLine
 10
3.25905
 20
-8.67155
 11
3.22697
 21
-8.63438
  0
LINE
  5
252
100
AcDbEntity
  8
0
  6
ByLayer
 62
  256
370
   -1
100
AcDbLine
 10
3.22697
 20
-8.63438
 11
3.19678
 21
-8.595689999999999
  0
LINE
  5
253
100
AcDbEntity
  8
0
  6
ByLayer
 62
  256
370
   -1
100
AcDbLine
 10
3.19678
 20
-8.595689999999999
 11
3.16852
 21
-8.55556
  0
LINE
  5
254
100
AcDbEntity
  8
0
  6
ByLayer
 62
  256
370
   -1
100
AcDbLine
 10
3.16852
 20
-8.55556
 11
3.14226
 21
-8.514099999999999
  0
LINE
  5
255
100
AcDbEntity
  8
0
  6
ByLayer
 62
  256
370
   -1
100
AcDbLine
 10
3.14226
 20
-8.514099999999999
 11
3.11807
 21
-8.47139
  0
LINE
  5
256
100
AcDbEntity
  8
0
  6
ByLayer
 62
  256
370
   -1
100
AcDbLine
 10
3.11807
 20
-8.47139
 11
3.09601
 21
-8.42755
  0
LINE
  5
257
100
AcDbEntity
  8
0
  6
ByLayer
 62
  256
370
   -1
100
AcDbLine
 10
3.09601
 20
-8.42755
 11
3.07611
 21
-8.382680000000001
  0
LINE
  5
258
100
AcDbEntity
  8
0
  6
ByLayer
 62
  256
370
   -1
100
AcDbLine
 10
3.07611
 20
-8.382680000000001
 11
3.05844
 21
-8.336880000000001
  0
LINE
  5
259
100
AcDbEntity
  8
0
  6
ByLayer
 62
  256
370
   -1
100
AcDbLine
 10
3.05844
 20
-8.336880000000001
 11
3.04305
 21
-8.290279999999999
  0
LINE
  5
25A
100
AcDbEntity
  8
0
  6
ByLayer
 62
  256
370
   -1
100
AcDbLine
 10
3.04305
 20
-8.290279999999999
 11
3.02997
 21
-8.24297
  0
LINE
  5
25B
100
AcDbEntity
  8
0
  6
ByLayer
 62
  256
370
   -1
100
AcDbLine
 10
3.02997
 20
-8.24297
 11
3.01921
 21
-8.195080000000001
  0
LINE
  5
25C
100
AcDbEntity
  8
0
  6
ByLayer
 62
  256
370
   -1
100
AcDbLine
 10
3.01921
 20
-8.195080000000001
 11
3.01082
 21
-8.14673
  0
LINE
  5
25D
100
AcDbEntity
  8
0
  6
ByLayer
 62
  256
370
   -1
100
AcDbLine
 10
3.01082
 20
-8.14673
 11
3.00481
 21
-8.09801
  0
LINE
  5
25E
100
AcDbEntity
  8
0
  6
ByLayer
 62
  256
370
   -1
100
AcDbLine
 10
3.00481
 20
-8.09801
 11
3.00119
 21
-8.049060000000001
  0
LINE
  5
25F
100
AcDbEntity
  8
0
  6
ByLayer
 62
  256
370
   -1
100
AcDbLine
 10
3.00119
 20
-8.049060000000001
 11
3
 21
-8
  0
LINE
  5
260
100
AcDbEntity
  8
0
  6
ByLayer
 62
  256
370
   -1
100
AcDbLine
 10
3
 20
-8
 11
3.00119
 21
-7.95093
  0
LINE
  5
261
100
AcDbEntity
  8
0
  6
ByLayer
 62
  256
370
   -1
100
AcDbLine
 10
3.00119
 20
-7.95093
 11
3.00481
 21
-7.90198
  0
LINE
  5
262
100
AcDbEntity
  8
0
  6
ByLayer
 62
  256
370
   -1
100
AcDbLine
 10
3.00481
 20
-7.90198
 11
3.01082
 21
-7.85326
  0
LINE
  5
263
100
AcDbEntity
  8
0
  6
ByLayer
 62
  256
370
   -1
100
AcDbLine
 10
3.01082
 20
-7.85326
 11
3.01921
 21
-7.8049
  0
LINE
  5
264
100
AcDbEntity
  8
0
  6
ByLayer
 62
  256
370
   -1
100
AcDbLine
 10
3.01921
 20
-7.8049
 11
3.02997
 21
-7.75702
  0
LINE
  5
265
100
AcDbEntity
  8
0
  6
ByLayer
 62
  256
370
   -1
100
AcDbLine
 10
3.02997
 20
-7.75702
 11
3.04305
 21
-7.7097
  0
LINE
  5
266
100
AcDbEntity
  8
0
  6
ByLayer
 62
  256
370
   -1
100
AcDbLine
 10
3.04305
 20
-7.7097
 11
3.05844
 21
-7.6631
  0
LINE
  5
267
100
AcDbEntity
  8
0
  6
ByLayer
 62
  256
370
   -1
100
AcDbLine
 10
3.05844
 20
-7.6631
 11
3.07611
 21
-7.61731
  0
LINE
  5
268
100
AcDbEntity
  8
0
  6
ByLayer
 62
  256
370
   -1
100
AcDbLine
 10
3.07611
 20
-7.61731
 11
3.09601
 21
-7.57243
  0
LINE
  5
269
100
AcDbEntity
  8
0
  6
ByLayer
 62
  256
370
   -1
100
AcDbLine
 10
3.09601
 20
-7.57243
 11
3.11807
 21
-7.52859
  0
LINE
  5
26A
100
AcDbEntity
  8
0
  6
ByLayer
 62
  256
370
   -1
100
AcDbLine
 10
3.11807
 20
-7.52859
 11
3.14226
 21
-7.48589
  0
LINE
  5
26B
100
AcDbEntity
  8
0
  6
ByLayer
 62
  256
370
   -1
100
AcDbLine
 10
3.14226
 20
-7.48589
 11
3.16852
 21
-7.44443
  0
LINE
  5
26C
100
AcDbEntity
  8
0
  6
ByLayer
 62
  256
370
   -1
100
AcDbLine
 10
3.16852
 20
-7.44443
 11
3.19678
 21
-7.4043
  0
LINE
  5
26D
100
AcDbEntity
  8
0
  6
ByLayer
 62
  256
370
   -1
100
AcDbLine
 10
3.19678
 20
-7.4043
 11
3.22697
 21
-7.3656
  0
LINE
  5
26E
100
AcDbEntity
  8
0
  6
ByLayer
 62
  256
370
   -1
100
AcDbLine
 10
3.22697
 20
-7.3656
 11
3.25905
 21
-7.32843
  0
LINE
  5
26F
100
AcDbEntity
  8
0
  6
ByLayer
 62
  256
370
   -1
100
AcDbLine
 10
3.25905
 20
-7.32843
 11
3.29289
 21
-7.29289
  0
LINE
  5
270
100
AcDbEntity
  8
0
  6
ByLayer
 62
  256
370
   -1
100
AcDbLine
 10
3.29289
 20
-7.29289
 11
3.32843
 21
-7.25905
  0
LINE
  5
271
100
AcDbEntity
  8
0
  6
ByLayer
 62
  256
370
   -1
100
AcDbLine
 10
3.32843
 20
-7.25905
 11
3.3656
 21
-7.22697
  0
LINE
  5
272
100
AcDbEntity
  8
0
  6
ByLayer
 62
  256
370
   -1
100
AcDbLine
 10
3.3656
 20
-7.22697
 11
3.4043
 21
-7.19678
  0
LINE
  5
273
100
AcDbEntity
  8
0
  6
ByLayer
 62
  256
370
   -1
100
AcDbLine
 10
3.4043
 20
-7.19678
 11
3.44443
 21
-7.16852
  0
LINE
  5
274
100
AcDbEntity
  8
0
  6
ByLayer
 62
  256
370
   -1
100
AcDbLine
 10
3.44443
 20
-7.16852
 11
3.48589
 21
-7.14226
  0
LINE
  5
275
100
AcDbEntity
  8
0
  6
ByLayer
 62
  256
370
   -1
100
AcDbLine
 10
3.48589
 20
-7.14226
 11
3.52859
 21
-7.11807
  0
LINE
  5
276
100
AcDbEntity
  8
0
  6
ByLayer
 62
  256
370
   -1
100
AcDbLine
 10
3.52859
 20
-7.11807
 11
3.57243
 21
-7.09601
  0
LINE
  5
277
100
AcDbEntity
  8
0
  6
ByLayer
 62
  256
370
   -1
100
AcDbLine
 10
3.57243
 20
-7.09601
 11
3.61731
 21
-7.07611
  0
LINE
  5
278
100
AcDbEntity
  8
0
  6
ByLayer
 62
  256
370
   -1
100
AcDbLine
 10
3.61731
 20
-7.07611
 11
3.6631
 21
-7.05844
  0
LINE
  5
279
100
AcDbEntity
  8
0
  6
ByLayer
 62
  256
370
   -1
100
AcDbLine
 10
3.6631
 20
-7.05844
 11
3.7097
 21
-7.04305
  0
LINE
  5
27A
100
AcDbEntity
  8
0
  6
ByLayer
 62
  256
370
   -1
100
AcDbLine
 10
3.7097
 20
-7.04305
 11
3.75702
 21
-7.02997
  0
LINE
  5
27B
100
AcDbEntity
  8
0
  6
ByLayer
 62
  256
370
   -1
100
AcDbLine
 10
3.75702
 20
-7.02997
 11
3.8049
 21
-7.01921
  0
LINE
  5
27C
100
AcDbEntity
  8
0
  6
ByLayer
 62
  256
370
   -1
100
AcDbLine
 10
3.8049
 20
-7.01921
 11
3.85326
 21
-7.01082
  0
LINE
  5
27D
100
AcDbEntity
  8
0
  6
ByLayer
 62
  256
370
   -1
100
AcDbLine
 10
3.85326
 20
-7.01082
 11
3.90198
 21
-7.00481
  0
LINE
  5
27E
100
AcDbEntity
  8
0
  6
ByLayer
 62
  256
370
   -1
100
AcDbLine
 10
3.90198
 20
-7.00481
 11
3.95093
 21
-7.00119
  0
LINE
  5
27F
100
AcDbEntity
  8
0
  6
ByLayer
 62
  256
370
   -1
100
AcDbLine
 10
3.95093
 20
-7.00119
 11
4
 21
-7
  0
LINE
  5
280
100
AcDbEntity
  8
0
  6
ByLayer
 62
  256
370
   -1
100
AcDbLine
 10
4
 20
-7
 11
4.04906
 21
-7.00119
  0
LINE
  5
281
100
AcDbEntity
  8
0
  6
ByLayer
 62
  256
370
   -1
100
AcDbLine
 10
4.04906
 20
-7.00119
 11
4.09801
 21
-7.00481
  0
LINE
  5
282
100
AcDbEntity
  8
0
  6
ByLayer
 62
  256
370
   -1
100
AcDbLine
 10
4.09801
 20
-7.00481
 11
4.14673
 21
-7.01082
  0
LINE
  5
283
100
AcDbEntity
  8
0
  6
ByLayer
 62
  256
370
   -1
100
AcDbLine
 10
4.14673
 20
-7.01082
 11
4.19508
 21
-7.01921
  0
LINE
  5
284
100
AcDbEntity
  8
0
  6
ByLayer
 62
  256
370
   -1
100
AcDbLine
 10
4.19508
 20
-7.01921
 11
4.24297
 21
-7.02997
  0
LINE
  5
285
100
AcDbEntity
  8
0
  6
ByLayer
 62
  256
370
   -1
100
AcDbLine
 10
4.24297
 20
-7.02997
 11
4.29028
 21
-7.04305
  0
LINE
  5
286
100
AcDbEntity
  8
0
  6
ByLayer
 62
  256
370
   -1
100
AcDbLine
 10
4.29028
 20
-7.04305
 11
4.33688
 21
-7.05844
  0
LINE
  5
287
100
AcDbEntity
  8
0
  6
ByLayer
 62
  256
370
   -1
100
AcDbLine
 10
4.33688
 20
-7.05844
 11
4.38268
 21
-7.07611
  0
LINE
  5
288
100
AcDbEntity
  8
0
  6
ByLayer
 62
  256
370
   -1
100
AcDbLine
 10
4.38268
 20
-7.07611
 11
4.42755
 21
-7.09601
  0
LINE
  5
289
100
AcDbEntity
  8
0
  6
ByLayer
 62
  256
370
   -1
100
AcDbLine
 10
4.42755
 20
-7.09601
 11
4.47139
 21
-7.11807
  0
LINE
  5
28A
100
AcDbEntity
  8
0
  6
ByLayer
 62
  256
370
   -1
100
AcDbLine
 10
4.47139
 20
-7.11807
 11
4.5141
 21
-7.14226
  0
LINE
  5
28B
100
AcDbEntity
  8
0
  6
ByLayer
 62
  256
370
   -1
100
AcDbLine
 10
4.5141
 20
-7.14226
 11
4.55556
 21
-7.16852
  0
LINE
  5
28C
100
AcDbEntity
  8
0
  6
ByLayer
 62
  256
370
   -1
100
AcDbLine
 10
4.55556
 20
-7.16852
 11
4.59569
 21
-7.19678
  0
LINE
  5
28D
100
AcDbEntity
  8
0
  6
ByLayer
 62
  256
370
   -1
100
AcDbLine
 10
4.59569
 20
-7.19678
 11
4.63438
 21
-7.22697
  0
LINE
  5
28E
100
AcDbEntity
  8
0
  6
ByLayer
 62
  256
370
   -1
100
AcDbLine
 10
4.63438
 20
-7.22697
 11
4.67155
 21
-7.25905
  0
LINE
  5
28F
100
AcDbEntity
  8
0
  6
ByLayer
 62
  256
370
   -1
100
AcDbLine
 10
4.67155
 20
-7.25905
 11
4.70709
 21
-7.29289
  0
LINE
  5
290
100
AcDbEntity
  8
0
  6
ByLayer
 62
  256
370
   -1
100
AcDbLine
 10
4.70709
 20
-7.29289
 11
4.74094
 21
-7.32843
  0
LINE
  5
291
100
AcDbEntity
  8
0
  6
ByLayer
 62
  256
370
   -1
100
AcDbLine
 10
4.74094
 20
-7.32843
 11
4.77301
 21
-7.3656
  0
LINE
  5
292
100
AcDbEntity
  8
0
  6
ByLayer
 62
  256
370
   -1
100
AcDbLine
 10
4.77301
 20
-7.3656
 11
4.80321
 21
-7.4043
  0
LINE
  5
293
100
AcDbEntity
  8
0
  6
ByLayer
 62
  256
370
   -1
100
AcDbLine
 10
4.80321
 20
-7.4043
 11
4.83147
 21
-7.44443
  0
LINE
  5
294
100
AcDbEntity
  8
0
  6
ByLayer
 62
  256
370
   -1
100
AcDbLine
 10
4.83147
 20
-7.44443
 11
4.85773
 21
-7.48589
  0
LINE
  5
295
100
AcDbEntity
  8
0
  6
ByLayer
 62
  256
370
   -1
100
AcDbLine
 10
4.85773
 20
-7.48589
 11
4.88191
 21
-7.52859
  0
LINE
  5
296
100
AcDbEntity
  8
0
  6
ByLayer
 62
  256
370
   -1
100
AcDbLine
 10
4.88191
 20
-7.52859
 11
4.90398
 21
-7.57243
  0
LINE
  5
297
100
AcDbEntity
  8
0
  6
ByLayer
 62
  256
370
   -1
100
AcDbLine
 10
4.90398
 20
-7.57243
 11
4.92387
 21
-7.61731
  0
LINE
  5
298
100
AcDbEntity
  8
0
  6
ByLayer
 62
  256
370
   -1
100
AcDbLine
 10
4.92387
 20
-7.61731
 11
4.94154
 21
-7.6631
  0
LINE
  5
299
100
AcDbEntity
  8
0
  6
ByLayer
 62
  256
370
   -1
100
AcDbLine
 10
4.94154
 20
-7.6631
 11
4.95694
 21
-7.7097
  0
LINE
  5
29A
100
AcDbEntity
  8
0
  6
ByLayer
 62
  256
370
   -1
100
AcDbLine
 10
4.95694
 20
-7.7097
 11
4.97002
 21
-7.75702
  0
LINE
  5
29B
100
AcDbEntity
  8
0
  6
ByLayer
 62
  256
370
   -1
100
AcDbLine
 10
4.97002
 20
-7.75702
 11
4.98077
 21
-7.8049
  0
LINE
  5
29C
100
AcDbEntity
  8
0
  6
ByLayer
 62
  256
370
   -1
100
AcDbLine
 10
4.98077
 20
-7.8049
 11
4.98917
 21
-7.85326
  0
LINE
  5
29D
100
AcDbEntity
  8
0
  6
ByLayer
 62
  256
370
   -1
100
AcDbLine
 10
4.98917
 20
-7.85326
 11
4.99518
 21
-7.90198
  0
LINE
  5
29E
100
AcDbEntity
  8
0
  6
ByLayer
 62
  256
370
   -1
100
AcDbLine
 10
4.99518
 20
-7.90198
 11
4.99879
 21
-7.95093
  0
LINE
  5
29F
100
AcDbEntity
  8
0
  6
ByLayer
 62
  256
370
   -1
100
AcDbLine
 10
4.99879
 20
-7.95093
 11
5
 21
-8
  0
LINE
  5
2A0
100
AcDbEntity
  8
0
  6
ByLayer
 62
  256
370
   -1
100
AcDbLine
 10
5
 20
-8
 11
4.99879
 21
-8.049060000000001
  0
LINE
  5
2A1
100
AcDbEntity
  8
0
  6
ByLayer
 62
  256
370
   -1
100
AcDbLine
 10
4.99879
 20
-8.049060000000001
 11
4.99518
 21
-8.09801
  0
LINE
  5
2A2
100
AcDbEntity
  8
0
  6
ByLayer
 62
  256
370
   -1
100
AcDbLine
 10
4.99518
 20
-8.09801
 11
4.98917
 21
-8.14673
  0
LINE
  5
2A3
100
AcDbEntity
  8
0
  6
ByLayer
 62
  256
370
   -1
100
AcDbLine
 10
4.98917
 20
-8.14673
 11
4.98077
 21
-8.195080000000001
  0
LINE
  5
2A4
100
AcDbEntity
  8
0
  6
ByLayer
 62
  256
370
   -1
100
AcDbLine
 10
4.98077
 20
-8.195080000000001
 11
4.97002
 21
-8.24297
  0
LINE
  5
2A5
100
AcDbEntity
  8
0
  6
ByLayer
 62
  256
370
   -1
100
AcDbLine
 10
4.97002
 20
-8.24297
 11
4.95694
 21
-8.290279999999999
  0
LINE
  5
2A6
100
AcDbEntity
  8
0
  6
ByLayer
 62
  256
370
   -1
100
AcDbLine
 10
4.95694
 20
-8.290279999999999
 11
4.94154
 21
-8.336880000000001
  0
LINE
  5
2A7
100
AcDbEntity
  8
0
  6
ByLayer
 62
  256
370
   -1
100
AcDbLine
 10
4.94154
 20
-8.336880000000001
 11
4.92387
 21
-8.382680000000001
  0
LINE
  5
2A8
100
AcDbEntity
  8
0
  6
ByLayer
 62
  256
370
   -1
100
AcDbLine
 10
4.92387
 20
-8.382680000000001
 11
4.90398
 21
-8.42755
  0
LINE
  5
2A9
100
AcDbEntity
  8
0
  6
ByLayer
 62
  256
370
   -1
100
AcDbLine
 10
4.90398
 20
-8.42755
 11
4.88191
 21
-8.47139
  0
LINE
  5
2AA
100
AcDbEntity
  8
0
  6
ByLayer
 62
  256
370
   -1
100
AcDbLine
 10
4.88191
 20
-8.47139
 11
4.85773
 21
-8.514099999999999
  0
LINE
  5
2AB
100
AcDbEntity
  8
0
  6
ByLayer
 62
  256
370
   -1
100
AcDbLine
 10
4.85773
 20
-8.514099999999999
 11
4.83147
 21
-8.55556
  0
LINE
  5
2AC
100
AcDbEntity
  8
0
  6
ByLayer
 62
  256
370
   -1
100
AcDbLine
 10
4.83147
 20
-8.55556
 11
4.80321
 21
-8.595689999999999
  0
LINE
  5
2AD
100
AcDbEntity
  8
0
  6
ByLayer
 62
  256
370
   -1
100
AcDbLine
 10
4.80321
 20
-8.595689999999999
 11
4.77301
 21
-8.63438
  0
LINE
  5
2AE
100
AcDbEntity
  8
0
  6
ByLayer
 62
  256
370
   -1
100
AcDbLine
 10
4.77301
 20
-8.63438
 11
4.74094
 21
-8.67155
  0
LINE
  5
2AF
100
AcDbEntity
  8
0
  6
ByLayer
 62
  256
370
   -1
100
AcDbLine
 10
4.74094
 20
-8.67155
 11
4.70709
 21
-8.707090000000001
  0
LINE
  5
2B0
100
AcDbEntity
  8
0
  6
ByLayer
 62
  256
370
   -1
100
AcDbLine
 10
4.70709
 20
-8.707090000000001
 11
4.67155
 21
-8.74094
  0
LINE
  5
2B1
100
AcDbEntity
  8
0
  6
ByLayer
 62
  256
370
   -1
100
AcDbLine
 10
4.67155
 20
-8.74094
 11
4.63438
 21
-8.773009999999999
  0
LINE
  5
2B2
100
AcDbEntity
  8
0
  6
ByLayer
 62
  256
370
   -1
100
AcDbLine
 10
4.63438
 20
-8.773009999999999
 11
4.59569
 21
-8.80321
  0
LINE
  5
2B3
100
AcDbEntity
  8
0
  6
ByLayer
 62
  256
370
   -1
100
AcDbLine
 10
4.59569
 20
-8.80321
 11
4.55556
 21
-8.831469999999999
  0
LINE
  5
2B4
100
AcDbEntity
  8
0
  6
ByLayer
 62
  256
370
   -1
100
AcDbLine
 10
4.55556
 20
-8.831469999999999
 11
4.5141
 21
-8.85773
  0
LINE
  5
2B5
100
AcDbEntity
  8
0
  6
ByLayer
 62
  256
370
   -1
100
AcDbLine
 10
4.5141
 20
-8.85773
 11
4.47139
 21
-8.88191
  0
LINE
  5
2B6
100
AcDbEntity
  8
0
  6
ByLayer
 62
  256
370
   -1
100
AcDbLine
 10
4.47139
 20
-8.88191
 11
4.42755
 21
-8.903980000000001
  0
LINE
  5
2B7
100
AcDbEntity
  8
0
  6
ByLayer
 62
  256
370
   -1
100
AcDbLine
 10
4.42755
 20
-8.903980000000001
 11
4.38268
 21
-8.923870000000001
  0
LINE
  5
2B8
100
AcDbEntity
  8
0
  6
ByLayer
 62
  256
370
   -1
100
AcDbLine
 10
4.38268
 20
-8.923870000000001
 11
4.33688
 21
-8.94154
  0
LINE
  5
2B9
100
AcDbEntity
  8
0
  6
ByLayer
 62
  256
370
   -1
100
AcDbLine
 10
4.33688
 20
-8.94154
 11
4.29028
 21
-8.956939999999999
  0
LINE
  5
2BA
100
AcDbEntity
  8
0
  6
ByLayer
 62
  256
370
   -1
100
AcDbLine
 10
4.29028
 20
-8.956939999999999
 11
4.24297
 21
-8.97002
  0
LINE
  5
2BB
100
AcDbEntity
  8
0
  6
ByLayer
 62
  256
370
   -1
100
AcDbLine
 10
4.24297
 20
-8.97002
 11
4.19508
 21
-8.98077
  0
LINE
  5
2BC
100
AcDbEntity
  8
0
  6
ByLayer
 62
  256
370
   -1
100
AcDbLine
 10
4.19508
 20
-8.98077
 11
4.14673
 21
-8.98917
  0
LINE
  5
2BD
100
AcDbEntity
  8
0
  6
ByLayer
 62
  256
370
   -1
100
AcDbLine
 10
4.14673
 20
-8.98917
 11
4.09801
 21
-8.99518
  0
LINE
  5
2BE
100
AcDbEntity
  8
0
  6
ByLayer
 62
  256
370
   -1
100
AcDbLine
 10
4.09801
 20
-8.99518
 11
4.04906
 21
-8.99879
  0
LINE
  5
2BF
100
AcDbEntity
  8
0
  6
ByLayer
 62
  256
370
   -1
100
AcDbLine
 10
4.04906
 20
-8.99879
 11
4
 21
-9
  0
LINE
  5
2C0
100
AcDbEntity
  8
0
  6
ByLayer
 62
  256
370
   -1
100
AcDbLine
 10
4
 20
-9
 11
3.95093
 21
-8.99879
  0
LINE
  5
2C1
100
AcDbEntity
  8
AXIS
  6
ByLayer
 62
  256
370
   -1
100
AcDbLine
 10
0
 20
10
 11
0
 21
-10
  0
LINE
  5
2C2
100
AcDbEntity
  8
AXIS
  6
ByLayer
 62
  256
370
   -1
100
AcDbLine
 10
10
 20
0
 11
-10
 21
0
  0
LWPOLYLINE
  5
2C3
100
AcDbEntity
  8
AXIS
  6
ByLayer
 62
  256
370
   -1
100
AcDbPolyline
 90
    4
 70
    1
 43
0
 10
-12
 20
12
 10
12
 20
12
 10
12
 20
-12
 10
-12
 20
-12
  0
DIMENSION
  5
2C4
100
AcDbEntity
  8
DIMS
  6
ByLayer
 62
  256
370
   -1
100
AcDbDimension
  2
*D1
 10
-12
 20
20
 30
0
 11
9.950255243072244e-17
 21
21.625
 31
0
 70
   32
  1
24
 71
    5
  3
Standard
 53
0
210
0
220
0
230
1
100
AcDbAlignedDimension
 13
12
 23
8
 33
0
 14
-12
 24
8
 34
0
100
AcDbRotatedDimension
  0
DIMENSION
  5
2C5
100
AcDbEntity
  8
DIMS
  6
ByLayer
 62
  256
370
   -1
100
AcDbDimension
  2
*D2
 10
8
 20
15
 30
0
 11
10
 21
16.625
 31
0
 70
   32
  1
4
 71
    5
  3
Standard
 53
0
210
0
220
0
230
1
100
AcDbAlignedDimension
 13
12
 23
8
 33
0
 14
8
 24
12
 34
0
100
AcDbRotatedDimension
  0
DIMENSION
  5
2C6
100
AcDbEntity
  8
DIMS
  6
ByLayer
 62
  256
370
   -1
100
AcDbDimension
  2
*D3
 10
-15
 20
8
 30
0
 11
-16.625
 21
10
 31
0
 70
   32
  1
4
 71
    5
  3
Standard
 53
0
210
0
220
0
230
1
100
AcDbAlignedDimension
 13
-8
 23
12
 33
0
 14
-12
 24
8
 34
0
 50
90
100
AcDbRotatedDimension
  0
DIMENSION
  5
2C7
100
AcDbEntity
  8
DIMS
  6
ByLayer
 62
  256
370
   -1
100
AcDbDimension
  2
*D4
 10
15
 20
-8.000000000000002
 30
0
 11
13.375
 21
-10
 31
0
 70
   32
  1
4
 71
    5
  3
Standard
 53
0
210
0
220
0
230
1
100
AcDbAlignedDimension
 13
8
 23
-12
 33
0
 14
4
 24
-8
 34
0
 50
90
100
AcDbRotatedDimension
  0
DIMENSION
  5
2C8
100
AcDbEntity
  8
DIMS
  6
ByLayer
 62
  256
370
   -1
100
AcDbDimension
  2
*D5
 10
20
 20
-4.000000000000004
 30
0
 11
18.375
 21
-8
 31
0
 70
   32
  1
8
 71
    5
  3
Standard
 53
0
210
0
220
0
230
1
100
AcDbAlignedDimension
 13
8
 23
-12
 33
0
 14
-8
 24
-4
 34
0
 50
90
100
AcDbRotatedDimension
  0
DIMENSION
  5
2C9
100
AcDbEntity
  8
DIMS
  6
ByLayer
 62
  256
370
   -1
100
AcDbDimension
  2
*D6
 10
25
 20
3.999999999999998
 30
0
 11
23.375
 21
-4.000000000000002
 31
0
 70
   32
  1
16
 71
    5
  3
Standard
 53
0
210
0
220
0
230
1
100
AcDbAlignedDimension
 13
8
 23
-12
 33
0
 14
8
 24
4
 34
0
 50
90
100
AcDbRotatedDimension
  0
DIMENSION
  5
2CA
100
AcDbEntity
  8
DIMS
  6
ByLayer
 62
  256
370
   -1
100
AcDbDimension
  2
*D7
 10
30
 20
7.999999999999996
 30
0
 11
28.375
 21
-2.000000000000001
 31
0
 70
   32
  1
20
 71
    5
  3
Standard
 53
0
210
0
220
0
230
1
100
AcDbAlignedDimension
 13
8
 23
-12
 33
0
 14
-4
 24
8
 34
0
 50
90
100
AcDbRotatedDimension
  0
DIMENSION
  5
2CB
100
AcDbEntity
  8
DIMS
  6
ByLayer
 62
  256
370
   -1
100
AcDbDimension
  2
*D8
 10
-8
 20
-15
 30
0
 11
-10
 21
-13.375
 31
0
 70
   32
  1
4
 71
    5
  3
Standard
 53
0
210
0
220
0
230
1
100
AcDbAlignedDimension
 13
-12
 23
-8
 33
0
 14
-8
 24
-4
 34
0
100
AcDbRotatedDimension
  0
DIMENSION
  5
2CC
100
AcDbEntity
  8
DIMS
  6
ByLayer
 62
  256
370
   -1
100
AcDbDimension
  2
*D9
 10
-4.000000000000002
 20
-20
 30
0
 11
-8
 21
-18.375
 31
0
 70
   32
  1
8
 71
    5
  3
Standard
 53
0
210
0
220
0
230
1
100
AcDbAlignedDimension
 13
-12
 23
-8
 33
0
 14
-4
 24
8
 34
0
100
AcDbRotatedDimension
  0
DIMENSION
  5
2CD
100
AcDbEntity
  8
DIMS
  6
ByLayer
 62
  256
370
   -1
100
AcDbDimension
  2
*D10
 10
3.999999999999999
 20
-25
 30
0
 11
-4
 21
-23.375
 31
0
 70
   32
  1
16
 71
    5
  3
Standard
 53
0
210
0
220
0
230
1
100
AcDbAlignedDimension
 13
-12
 23
-8
 33
0
 14
4
 24
-8
 34
0
100
AcDbRotatedDimension
  0
DIMENSION
  5
2CE
100
AcDbEntity
  8
DIMS
  6
ByLayer
 62
  256
370
   -1
100
AcDbDimension
  2
*D11
 10
7.999999999999998
 20
-30
 30
0
 11
-2.000000000000001
 21
-28.375
 31
0
 70
   32
  1
20
 71
    5
  3
Standard
 53
0
210
0
220
0
230
1
100
AcDbAlignedDimension
 13
-12
 23
-8
 33
0
 14
8
 24
4
 34
0
100
AcDbRotatedDimension
  0
CIRCLE
  5
2CF
100
AcDbEntity
  8
DIMS
  6
ByLayer
 62
  256
370
   -1
100
AcDbCircle
 10
-4
 20
8
 40
1
  0
DIMENSION
  5
2D0
100
AcDbEntity
  8
DIMS
  6
ByLayer
 62
  256
370
   -1
100
AcDbDimension
  2
*D12
 10
-4.986393923832144
 20
7.835601012694643
 30
0
 11
-4.267148354371206
 21
9.602890126227233
 31
0
 70
   35
  1
2x4
 71
    5
  3
Standard
 53
0
210
0
220
0
230
1
100
AcDbDiametricDimension
 15
-3.013606076167856
 25
8.164398987305358
 35
0
 40
0
  0
ENDSEC
  0
SECTION
  2
OBJECTS
  0
DICTIONARY
  5
C
330
0
100
AcDbDictionary
281
    1
  3
ACAD_GROUP
350
D
  0
DICTIONARY
  5
D
330
C
100
AcDbDictionary
281
    1
  0
ENDSEC
  0
EOF
