  0
SECTION
  2
BLOCKS
  0
ENDSEC
  0
SECTION
  2
ENTITIES
  0
LINE
  8
0
 10
12
 20
-8
 11
16
 21
-12
  0
LINE
  8
0
 10
16
 20
-12
 11
32
 21
-12
  0
LINE
  8
0
 10
32
 20
-12
 11
36
 21
-8
  0
LINE
  8
0
 10
36
 20
-8
 11
36
 21
8
  0
LINE
  8
0
 10
36
 20
8
 11
32
 21
12
  0
LINE
  8
0
 10
32
 20
12
 11
36
 21
16
  0
LINE
  8
0
 10
36
 20
16
 11
36
 21
32
  0
LINE
  8
0
 10
36
 20
32
 11
32
 21
36
  0
LINE
  8
0
 10
32
 20
36
 11
16
 21
36
  0
LINE
  8
0
 10
16
 20
36
 11
12
 21
32
  0
LINE
  8
0
 10
12
 20
32
 11
8
 21
36
  0
LINE
  8
0
 10
8
 20
36
 11
-8
 21
36
  0
LINE
  8
0
 10
-8
 20
36
 11
-12
 21
32
  0
LINE
  8
0
 10
-12
 20
32
 11
-12
 21
16
  0
LINE
  8
0
 10
-12
 20
16
 11
-8
 21
12
  0
LINE
  8
0
 10
-8
 20
12
 11
-12
 21
8
  0
LINE
  8
0
 10
-12
 20
8
 11
-12
 21
-8
  0
LINE
  8
0
 10
-12
 20
-8
 11
-8
 21
-12
  0
LINE
  8
0
 10
-8
 20
-12
 11
8
 21
-12
  0
LINE
  8
0
 10
8
 20
-12
 11
12
 21
-8
  0
LINE
  8
0
 10
-4.04906
 20
31.0012
 11
-4.09801
 21
31.0048
  0
LINE
  8
0
 10
-4.09801
 20
31.0048
 11
-4.14673
 21
31.0108
  0
LINE
  8
0
 10
-4.14673
 20
31.0108
 11
-4.19508
 21
31.0192
  0
LINE
  8
0
 10
-4.19508
 20
31.0192
 11
-4.24297
 21
31.03
  0
LINE
  8
0
 10
-4.24297
 20
31.03
 11
-4.29028
 21
31.0431
  0
LINE
  8
0
 10
-4.29028
 20
31.0431
 11
-4.33688
 21
31.0585
  0
LINE
  8
0
 10
-4.33688
 20
31.0585
 11
-4.38268
 21
31.0761
  0
LINE
  8
0
 10
-4.38268
 20
31.0761
 11
-4.42755
 21
31.096
  0
LINE
  8
0
 10
-4.42755
 20
31.096
 11
-4.47139
 21
31.1181
  0
LINE
  8
0
 10
-4.47139
 20
31.1181
 11
-4.5141
 21
31.1423
  0
LINE
  8
0
 10
-4.5141
 20
31.1423
 11
-4.55556
 21
31.1685
  0
LINE
  8
0
 10
-4.55556
 20
31.1685
 11
-4.59569
 21
31.1968
  0
LINE
  8
0
 10
-4.59569
 20
31.1968
 11
-4.63438
 21
31.227
  0
LINE
  8
0
 10
-4.63438
 20
31.227
 11
-4.67155
 21
31.259
  0
LINE
  8
0
 10
-4.67155
 20
31.259
 11
-4.70709
 21
31.2929
  0
LINE
  8
0
 10
-4.70709
 20
31.2929
 11
-4.74094
 21
31.3284
  0
LINE
  8
0
 10
-4.74094
 20
31.3284
 11
-4.77301
 21
31.3656
  0
LINE
  8
0
 10
-4.77301
 20
31.3656
 11
-4.80321
 21
31.4043
  0
LINE
  8
0
 10
-4.80321
 20
31.4043
 11
-4.83147
 21
31.4444
  0
LINE
  8
0
 10
-4.83147
 20
31.4444
 11
-4.85773
 21
31.4859
  0
LINE
  8
0
 10
-4.85773
 20
31.4859
 11
-4.88191
 21
31.5286
  0
LINE
  8
0
 10
-4.88191
 20
31.5286
 11
-4.90398
 21
31.5724
  0
LINE
  8
0
 10
-4.90398
 20
31.5724
 11
-4.92387
 21
31.6173
  0
LINE
  8
0
 10
-4.92387
 20
31.6173
 11
-4.94154
 21
31.6631
  0
LINE
  8
0
 10
-4.94154
 20
31.6631
 11
-4.95694
 21
31.7097
  0
LINE
  8
0
 10
-4.95694
 20
31.7097
 11
-4.97002
 21
31.757
  0
LINE
  8
0
 10
-4.97002
 20
31.757
 11
-4.98077
 21
31.8049
  0
LINE
  8
0
 10
-4.98077
 20
31.8049
 11
-4.98917
 21
31.8533
  0
LINE
  8
0
 10
-4.98917
 20
31.8533
 11
-4.99518
 21
31.902
  0
LINE
  8
0
 10
-4.99518
 20
31.902
 11
-4.99879
 21
31.9509
  0
LINE
  8
0
 10
-4.99879
 20
31.9509
 11
-5
 21
32
  0
LINE
  8
0
 10
-5
 20
32
 11
-4.99879
 21
32.0491
  0
LINE
  8
0
 10
-4.99879
 20
32.0491
 11
-4.99518
 21
32.098
  0
LINE
  8
0
 10
-4.99518
 20
32.098
 11
-4.98917
 21
32.1467
  0
LINE
  8
0
 10
-4.98917
 20
32.1467
 11
-4.98077
 21
32.1951
  0
LINE
  8
0
 10
-4.98077
 20
32.1951
 11
-4.97002
 21
32.243
  0
LINE
  8
0
 10
-4.97002
 20
32.243
 11
-4.95694
 21
32.2903
  0
LINE
  8
0
 10
-4.95694
 20
32.2903
 11
-4.94154
 21
32.3369
  0
LINE
  8
0
 10
-4.94154
 20
32.3369
 11
-4.92387
 21
32.3827
  0
LINE
  8
0
 10
-4.92387
 20
32.3827
 11
-4.90398
 21
32.4276
  0
LINE
  8
0
 10
-4.90398
 20
32.4276
 11
-4.88191
 21
32.4714
  0
LINE
  8
0
 10
-4.88191
 20
32.4714
 11
-4.85773
 21
32.5141
  0
LINE
  8
0
 10
-4.85773
 20
32.5141
 11
-4.83147
 21
32.5556
  0
LINE
  8
0
 10
-4.83147
 20
32.5556
 11
-4.80321
 21
32.5957
  0
LINE
  8
0
 10
-4.80321
 20
32.5957
 11
-4.77301
 21
32.6344
  0
LINE
  8
0
 10
-4.77301
 20
32.6344
 11
-4.74094
 21
32.6716
  0
LINE
  8
0
 10
-4.74094
 20
32.6716
 11
-4.70709
 21
32.7071
  0
LINE
  8
0
 10
-4.70709
 20
32.7071
 11
-4.67155
 21
32.741
  0
LINE
  8
0
 10
-4.67155
 20
32.741
 11
-4.63438
 21
32.773
  0
LINE
  8
0
 10
-4.63438
 20
32.773
 11
-4.59569
 21
32.8032
  0
LINE
  8
0
 10
-4.59569
 20
32.8032
 11
-4.55556
 21
32.8315
  0
LINE
  8
0
 10
-4.55556
 20
32.8315
 11
-4.5141
 21
32.8577
  0
LINE
  8
0
 10
-4.5141
 20
32.8577
 11
-4.47139
 21
32.8819
  0
LINE
  8
0
 10
-4.47139
 20
32.8819
 11
-4.42755
 21
32.904
  0
LINE
  8
0
 10
-4.42755
 20
32.904
 11
-4.38268
 21
32.9239
  0
LINE
  8
0
 10
-4.38268
 20
32.9239
 11
-4.33688
 21
32.9415
  0
LINE
  8
0
 10
-4.33688
 20
32.9415
 11
-4.29028
 21
32.9569
  0
LINE
  8
0
 10
-4.29028
 20
32.9569
 11
-4.24297
 21
32.97
  0
LINE
  8
0
 10
-4.24297
 20
32.97
 11
-4.19508
 21
32.9808
  0
LINE
  8
0
 10
-4.19508
 20
32.9808
 11
-4.14673
 21
32.9892
  0
LINE
  8
0
 10
-4.14673
 20
32.9892
 11
-4.09801
 21
32.9952
  0
LINE
  8
0
 10
-4.09801
 20
32.9952
 11
-4.04906
 21
32.9988
  0
LINE
  8
0
 10
-4.04906
 20
32.9988
 11
-4
 21
33
  0
LINE
  8
0
 10
-4
 20
33
 11
-3.95093
 21
32.9988
  0
LINE
  8
0
 10
-3.95093
 20
32.9988
 11
-3.90198
 21
32.9952
  0
LINE
  8
0
 10
-3.90198
 20
32.9952
 11
-3.85326
 21
32.9892
  0
LINE
  8
0
 10
-3.85326
 20
32.9892
 11
-3.8049
 21
32.9808
  0
LINE
  8
0
 10
-3.8049
 20
32.9808
 11
-3.75702
 21
32.97
  0
LINE
  8
0
 10
-3.75702
 20
32.97
 11
-3.7097
 21
32.9569
  0
LINE
  8
0
 10
-3.7097
 20
32.9569
 11
-3.6631
 21
32.9415
  0
LINE
  8
0
 10
-3.6631
 20
32.9415
 11
-3.61731
 21
32.9239
  0
LINE
  8
0
 10
-3.61731
 20
32.9239
 11
-3.57243
 21
32.904
  0
LINE
  8
0
 10
-3.57243
 20
32.904
 11
-3.52859
 21
32.8819
  0
LINE
  8
0
 10
-3.52859
 20
32.8819
 11
-3.48589
 21
32.8577
  0
LINE
  8
0
 10
-3.48589
 20
32.8577
 11
-3.44443
 21
32.8315
  0
LINE
  8
0
 10
-3.44443
 20
32.8315
 11
-3.4043
 21
32.8032
  0
LINE
  8
0
 10
-3.4043
 20
32.8032
 11
-3.3656
 21
32.773
  0
LINE
  8
0
 10
-3.3656
 20
32.773
 11
-3.32843
 21
32.741
  0
LINE
  8
0
 10
-3.32843
 20
32.741
 11
-3.29289
 21
32.7071
  0
LINE
  8
0
 10
-3.29289
 20
32.7071
 11
-3.25905
 21
32.6716
  0
LINE
  8
0
 10
-3.25905
 20
32.6716
 11
-3.22697
 21
32.6344
  0
LINE
  8
0
 10
-3.22697
 20
32.6344
 11
-3.19678
 21
32.5957
  0
LINE
  8
0
 10
-3.19678
 20
32.5957
 11
-3.16852
 21
32.5556
  0
LINE
  8
0
 10
-3.16852
 20
32.5556
 11
-3.14226
 21
32.5141
  0
LINE
  8
0
 10
-3.14226
 20
32.5141
 11
-3.11807
 21
32.4714
  0
LINE
  8
0
 10
-3.11807
 20
32.4714
 11
-3.09601
 21
32.4276
  0
LINE
  8
0
 10
-3.09601
 20
32.4276
 11
-3.07611
 21
32.3827
  0
LINE
  8
0
 10
-3.07611
 20
32.3827
 11
-3.05844
 21
32.3369
  0
LINE
  8
0
 10
-3.05844
 20
32.3369
 11
-3.04305
 21
32.2903
  0
LINE
  8
0
 10
-3.04305
 20
32.2903
 11
-3.02997
 21
32.243
  0
LINE
  8
0
 10
-3.02997
 20
32.243
 11
-3.01921
 21
32.1951
  0
LINE
  8
0
 10
-3.01921
 20
32.1951
 11
-3.01082
 21
32.1467
  0
LINE
  8
0
 10
-3.01082
 20
32.1467
 11
-3.00481
 21
32.098
  0
LINE
  8
0
 10
-3.00481
 20
32.098
 11
-3.00119
 21
32.0491
  0
LINE
  8
0
 10
-3.00119
 20
32.0491
 11
-3
 21
32
  0
LINE
  8
0
 10
-3
 20
32
 11
-3.00119
 21
31.9509
  0
LINE
  8
0
 10
-3.00119
 20
31.9509
 11
-3.00481
 21
31.902
  0
LINE
  8
0
 10
-3.00481
 20
31.902
 11
-3.01082
 21
31.8533
  0
LINE
  8
0
 10
-3.01082
 20
31.8533
 11
-3.01921
 21
31.8049
  0
LINE
  8
0
 10
-3.01921
 20
31.8049
 11
-3.02997
 21
31.757
  0
LINE
  8
0
 10
-3.02997
 20
31.757
 11
-3.04305
 21
31.7097
  0
LINE
  8
0
 10
-3.04305
 20
31.7097
 11
-3.05844
 21
31.6631
  0
LINE
  8
0
 10
-3.05844
 20
31.6631
 11
-3.07611
 21
31.6173
  0
LINE
  8
0
 10
-3.07611
 20
31.6173
 11
-3.09601
 21
31.5724
  0
LINE
  8
0
 10
-3.09601
 20
31.5724
 11
-3.11807
 21
31.5286
  0
LINE
  8
0
 10
-3.11807
 20
31.5286
 11
-3.14226
 21
31.4859
  0
LINE
  8
0
 10
-3.14226
 20
31.4859
 11
-3.16852
 21
31.4444
  0
LINE
  8
0
 10
-3.16852
 20
31.4444
 11
-3.19678
 21
31.4043
  0
LINE
  8
0
 10
-3.19678
 20
31.4043
 11
-3.22697
 21
31.3656
  0
LINE
  8
0
 10
-3.22697
 20
31.3656
 11
-3.25905
 21
31.3284
  0
LINE
  8
0
 10
-3.25905
 20
31.3284
 11
-3.29289
 21
31.2929
  0
LINE
  8
0
 10
-3.29289
 20
31.2929
 11
-3.32843
 21
31.259
  0
LINE
  8
0
 10
-3.32843
 20
31.259
 11
-3.3656
 21
31.227
  0
LINE
  8
0
 10
-3.3656
 20
31.227
 11
-3.4043
 21
31.1968
  0
LINE
  8
0
 10
-3.4043
 20
31.1968
 11
-3.44443
 21
31.1685
  0
LINE
  8
0
 10
-3.44443
 20
31.1685
 11
-3.48589
 21
31.1423
  0
LINE
  8
0
 10
-3.48589
 20
31.1423
 11
-3.52859
 21
31.1181
  0
LINE
  8
0
 10
-3.52859
 20
31.1181
 11
-3.57243
 21
31.096
  0
LINE
  8
0
 10
-3.57243
 20
31.096
 11
-3.61731
 21
31.0761
  0
LINE
  8
0
 10
-3.61731
 20
31.0761
 11
-3.6631
 21
31.0585
  0
LINE
  8
0
 10
-3.6631
 20
31.0585
 11
-3.7097
 21
31.0431
  0
LINE
  8
0
 10
-3.7097
 20
31.0431
 11
-3.75702
 21
31.03
  0
LINE
  8
0
 10
-3.75702
 20
31.03
 11
-3.8049
 21
31.0192
  0
LINE
  8
0
 10
-3.8049
 20
31.0192
 11
-3.85326
 21
31.0108
  0
LINE
  8
0
 10
-3.85326
 20
31.0108
 11
-3.90198
 21
31.0048
  0
LINE
  8
0
 10
-3.90198
 20
31.0048
 11
-3.95093
 21
31.0012
  0
LINE
  8
0
 10
-3.95093
 20
31.0012
 11
-4
 21
31
  0
LINE
  8
0
 10
-4
 20
31
 11
-4.04906
 21
31.0012
  0
LINE
  8
0
 10
19.9509
 20
31.0012
 11
19.902
 21
31.0048
  0
LINE
  8
0
 10
19.902
 20
31.0048
 11
19.8533
 21
31.0108
  0
LINE
  8
0
 10
19.8533
 20
31.0108
 11
19.8049
 21
31.0192
  0
LINE
  8
0
 10
19.8049
 20
31.0192
 11
19.757
 21
31.03
  0
LINE
  8
0
 10
19.757
 20
31.03
 11
19.7097
 21
31.0431
  0
LINE
  8
0
 10
19.7097
 20
31.0431
 11
19.6631
 21
31.0585
  0
LINE
  8
0
 10
19.6631
 20
31.0585
 11
19.6173
 21
31.0761
  0
LINE
  8
0
 10
19.6173
 20
31.0761
 11
19.5724
 21
31.096
  0
LINE
  8
0
 10
19.5724
 20
31.096
 11
19.5286
 21
31.1181
  0
LINE
  8
0
 10
19.5286
 20
31.1181
 11
19.4859
 21
31.1423
  0
LINE
  8
0
 10
19.4859
 20
31.1423
 11
19.4444
 21
31.1685
  0
LINE
  8
0
 10
19.4444
 20
31.1685
 11
19.4043
 21
31.1968
  0
LINE
  8
0
 10
19.4043
 20
31.1968
 11
19.3656
 21
31.227
  0
LINE
  8
0
 10
19.3656
 20
31.227
 11
19.3284
 21
31.259
  0
LINE
  8
0
 10
19.3284
 20
31.259
 11
19.2929
 21
31.2929
  0
LINE
  8
0
 10
19.2929
 20
31.2929
 11
19.259
 21
31.3284
  0
LINE
  8
0
 10
19.259
 20
31.3284
 11
19.227
 21
31.3656
  0
LINE
  8
0
 10
19.227
 20
31.3656
 11
19.1968
 21
31.4043
  0
LINE
  8
0
 10
19.1968
 20
31.4043
 11
19.1685
 21
31.4444
  0
LINE
  8
0
 10
19.1685
 20
31.4444
 11
19.1423
 21
31.4859
  0
LINE
  8
0
 10
19.1423
 20
31.4859
 11
19.1181
 21
31.5286
  0
LINE
  8
0
 10
19.1181
 20
31.5286
 11
19.096
 21
31.5724
  0
LINE
  8
0
 10
19.096
 20
31.5724
 11
19.0761
 21
31.6173
  0
LINE
  8
0
 10
19.0761
 20
31.6173
 11
19.0585
 21
31.6631
  0
LINE
  8
0
 10
19.0585
 20
31.6631
 11
19.0431
 21
31.7097
  0
LINE
  8
0
 10
19.0431
 20
31.7097
 11
19.03
 21
31.757
  0
LINE
  8
0
 10
19.03
 20
31.757
 11
19.0192
 21
31.8049
  0
LINE
  8
0
 10
19.0192
 20
31.8049
 11
19.0108
 21
31.8533
  0
LINE
  8
0
 10
19.0108
 20
31.8533
 11
19.0048
 21
31.902
  0
LINE
  8
0
 10
19.0048
 20
31.902
 11
19.0012
 21
31.9509
  0
LINE
  8
0
 10
19.0012
 20
31.9509
 11
19
 21
32
  0
LINE
  8
0
 10
19
 20
32
 11
19.0012
 21
32.0491
  0
LINE
  8
0
 10
19.0012
 20
32.0491
 11
19.0048
 21
32.098
  0
LINE
  8
0
 10
19.0048
 20
32.098
 11
19.0108
 21
32.1467
  0
LINE
  8
0
 10
19.0108
 20
32.1467
 11
19.0192
 21
32.1951
  0
LINE
  8
0
 10
19.0192
 20
32.1951
 11
19.03
 21
32.243
  0
LINE
  8
0
 10
19.03
 20
32.243
 11
19.0431
 21
32.2903
  0
LINE
  8
0
 10
19.0431
 20
32.2903
 11
19.0585
 21
32.3369
  0
LINE
  8
0
 10
19.0585
 20
32.3369
 11
19.0761
 21
32.3827
  0
LINE
  8
0
 10
19.0761
 20
32.3827
 11
19.096
 21
32.4276
  0
LINE
  8
0
 10
19.096
 20
32.4276
 11
19.1181
 21
32.4714
  0
LINE
  8
0
 10
19.1181
 20
32.4714
 11
19.1423
 21
32.5141
  0
LINE
  8
0
 10
19.1423
 20
32.5141
 11
19.1685
 21
32.5556
  0
LINE
  8
0
 10
19.1685
 20
32.5556
 11
19.1968
 21
32.5957
  0
LINE
  8
0
 10
19.1968
 20
32.5957
 11
19.227
 21
32.6344
  0
LINE
  8
0
 10
19.227
 20
32.6344
 11
19.259
 21
32.6716
  0
LINE
  8
0
 10
19.259
 20
32.6716
 11
19.2929
 21
32.7071
  0
LINE
  8
0
 10
19.2929
 20
32.7071
 11
19.3284
 21
32.741
  0
LINE
  8
0
 10
19.3284
 20
32.741
 11
19.3656
 21
32.773
  0
LINE
  8
0
 10
19.3656
 20
32.773
 11
19.4043
 21
32.8032
  0
LINE
  8
0
 10
19.4043
 20
32.8032
 11
19.4444
 21
32.8315
  0
LINE
  8
0
 10
19.4444
 20
32.8315
 11
19.4859
 21
32.8577
  0
LINE
  8
0
 10
19.4859
 20
32.8577
 11
19.5286
 21
32.8819
  0
LINE
  8
0
 10
19.5286
 20
32.8819
 11
19.5724
 21
32.904
  0
LINE
  8
0
 10
19.5724
 20
32.904
 11
19.6173
 21
32.9239
  0
LINE
  8
0
 10
19.6173
 20
32.9239
 11
19.6631
 21
32.9415
  0
LINE
  8
0
 10
19.6631
 20
32.9415
 11
19.7097
 21
32.9569
  0
LINE
  8
0
 10
19.7097
 20
32.9569
 11
19.757
 21
32.97
  0
LINE
  8
0
 10
19.757
 20
32.97
 11
19.8049
 21
32.9808
  0
LINE
  8
0
 10
19.8049
 20
32.9808
 11
19.8533
 21
32.9892
  0
LINE
  8
0
 10
19.8533
 20
32.9892
 11
19.902
 21
32.9952
  0
LINE
  8
0
 10
19.902
 20
32.9952
 11
19.9509
 21
32.9988
  0
LINE
  8
0
 10
19.9509
 20
32.9988
 11
20
 21
33
  0
LINE
  8
0
 10
20
 20
33
 11
20.0491
 21
32.9988
  0
LINE
  8
0
 10
20.0491
 20
32.9988
 11
20.098
 21
32.9952
  0
LINE
  8
0
 10
20.098
 20
32.9952
 11
20.1467
 21
32.9892
  0
LINE
  8
0
 10
20.1467
 20
32.9892
 11
20.1951
 21
32.9808
  0
LINE
  8
0
 10
20.1951
 20
32.9808
 11
20.243
 21
32.97
  0
LINE
  8
0
 10
20.243
 20
32.97
 11
20.2903
 21
32.9569
  0
LINE
  8
0
 10
20.2903
 20
32.9569
 11
20.3369
 21
32.9415
  0
LINE
  8
0
 10
20.3369
 20
32.9415
 11
20.3827
 21
32.9239
  0
LINE
  8
0
 10
20.3827
 20
32.9239
 11
20.4276
 21
32.904
  0
LINE
  8
0
 10
20.4276
 20
32.904
 11
20.4714
 21
32.8819
  0
LINE
  8
0
 10
20.4714
 20
32.8819
 11
20.5141
 21
32.8577
  0
LINE
  8
0
 10
20.5141
 20
32.8577
 11
20.5556
 21
32.8315
  0
LINE
  8
0
 10
20.5556
 20
32.8315
 11
20.5957
 21
32.8032
  0
LINE
  8
0
 10
20.5957
 20
32.8032
 11
20.6344
 21
32.773
  0
LINE
  8
0
 10
20.6344
 20
32.773
 11
20.6716
 21
32.741
  0
LINE
  8
0
 10
20.6716
 20
32.741
 11
20.7071
 21
32.7071
  0
LINE
  8
0
 10
20.7071
 20
32.7071
 11
20.741
 21
32.6716
  0
LINE
  8
0
 10
20.741
 20
32.6716
 11
20.773
 21
32.6344
  0
LINE
  8
0
 10
20.773
 20
32.6344
 11
20.8032
 21
32.5957
  0
LINE
  8
0
 10
20.8032
 20
32.5957
 11
20.8315
 21
32.5556
  0
LINE
  8
0
 10
20.8315
 20
32.5556
 11
20.8577
 21
32.5141
  0
LINE
  8
0
 10
20.8577
 20
32.5141
 11
20.8819
 21
32.4714
  0
LINE
  8
0
 10
20.8819
 20
32.4714
 11
20.904
 21
32.4276
  0
LINE
  8
0
 10
20.904
 20
32.4276
 11
20.9239
 21
32.3827
  0
LINE
  8
0
 10
20.9239
 20
32.3827
 11
20.9415
 21
32.3369
  0
LINE
  8
0
 10
20.9415
 20
32.3369
 11
20.9569
 21
32.2903
  0
LINE
  8
0
 10
20.9569
 20
32.2903
 11
20.97
 21
32.243
  0
LINE
  8
0
 10
20.97
 20
32.243
 11
20.9808
 21
32.1951
  0
LINE
  8
0
 10
20.9808
 20
32.1951
 11
20.9892
 21
32.1467
  0
LINE
  8
0
 10
20.9892
 20
32.1467
 11
20.9952
 21
32.098
  0
LINE
  8
0
 10
20.9952
 20
32.098
 11
20.9988
 21
32.0491
  0
LINE
  8
0
 10
20.9988
 20
32.0491
 11
21
 21
32
  0
LINE
  8
0
 10
21
 20
32
 11
20.9988
 21
31.9509
  0
LINE
  8
0
 10
20.9988
 20
31.9509
 11
20.9952
 21
31.902
  0
LINE
  8
0
 10
20.9952
 20
31.902
 11
20.9892
 21
31.8533
  0
LINE
  8
0
 10
20.9892
 20
31.8533
 11
20.9808
 21
31.8049
  0
LINE
  8
0
 10
20.9808
 20
31.8049
 11
20.97
 21
31.757
  0
LINE
  8
0
 10
20.97
 20
31.757
 11
20.9569
 21
31.7097
  0
LINE
  8
0
 10
20.9569
 20
31.7097
 11
20.9415
 21
31.6631
  0
LINE
  8
0
 10
20.9415
 20
31.6631
 11
20.9239
 21
31.6173
  0
LINE
  8
0
 10
20.9239
 20
31.6173
 11
20.904
 21
31.5724
  0
LINE
  8
0
 10
20.904
 20
31.5724
 11
20.8819
 21
31.5286
  0
LINE
  8
0
 10
20.8819
 20
31.5286
 11
20.8577
 21
31.4859
  0
LINE
  8
0
 10
20.8577
 20
31.4859
 11
20.8315
 21
31.4444
  0
LINE
  8
0
 10
20.8315
 20
31.4444
 11
20.8032
 21
31.4043
  0
LINE
  8
0
 10
20.8032
 20
31.4043
 11
20.773
 21
31.3656
  0
LINE
  8
0
 10
20.773
 20
31.3656
 11
20.741
 21
31.3284
  0
LINE
  8
0
 10
20.741
 20
31.3284
 11
20.7071
 21
31.2929
  0
LINE
  8
0
 10
20.7071
 20
31.2929
 11
20.6716
 21
31.259
  0
LINE
  8
0
 10
20.6716
 20
31.259
 11
20.6344
 21
31.227
  0
LINE
  8
0
 10
20.6344
 20
31.227
 11
20.5957
 21
31.1968
  0
LINE
  8
0
 10
20.5957
 20
31.1968
 11
20.5556
 21
31.1685
  0
LINE
  8
0
 10
20.5556
 20
31.1685
 11
20.5141
 21
31.1423
  0
LINE
  8
0
 10
20.5141
 20
31.1423
 11
20.4714
 21
31.1181
  0
LINE
  8
0
 10
20.4714
 20
31.1181
 11
20.4276
 21
31.096
  0
LINE
  8
0
 10
20.4276
 20
31.096
 11
20.3827
 21
31.0761
  0
LINE
  8
0
 10
20.3827
 20
31.0761
 11
20.3369
 21
31.0585
  0
LINE
  8
0
 10
20.3369
 20
31.0585
 11
20.2903
 21
31.0431
  0
LINE
  8
0
 10
20.2903
 20
31.0431
 11
20.243
 21
31.03
  0
LINE
  8
0
 10
20.243
 20
31.03
 11
20.1951
 21
31.0192
  0
LINE
  8
0
 10
20.1951
 20
31.0192
 11
20.1467
 21
31.0108
  0
LINE
  8
0
 10
20.1467
 20
31.0108
 11
20.098
 21
31.0048
  0
LINE
  8
0
 10
20.098
 20
31.0048
 11
20.0491
 21
31.0012
  0
LINE
  8
0
 10
20.0491
 20
31.0012
 11
20
 21
31
  0
LINE
  8
0
 10
20
 20
31
 11
19.9509
 21
31.0012
  0
LINE
  8
0
 10
7.95093
 20
27.0012
 11
7.90198
 21
27.0048
  0
LINE
  8
0
 10
7.90198
 20
27.0048
 11
7.85326
 21
27.0108
  0
LINE
  8
0
 10
7.85326
 20
27.0108
 11
7.8049
 21
27.0192
  0
LINE
  8
0
 10
7.8049
 20
27.0192
 11
7.75702
 21
27.03
  0
LINE
  8
0
 10
7.75702
 20
27.03
 11
7.7097
 21
27.0431
  0
LINE
  8
0
 10
7.7097
 20
27.0431
 11
7.6631
 21
27.0585
  0
LINE
  8
0
 10
7.6631
 20
27.0585
 11
7.61731
 21
27.0761
  0
LINE
  8
0
 10
7.61731
 20
27.0761
 11
7.57243
 21
27.096
  0
LINE
  8
0
 10
7.57243
 20
27.096
 11
7.52859
 21
27.1181
  0
LINE
  8
0
 10
7.52859
 20
27.1181
 11
7.48589
 21
27.1423
  0
LINE
  8
0
 10
7.48589
 20
27.1423
 11
7.44443
 21
27.1685
  0
LINE
  8
0
 10
7.44443
 20
27.1685
 11
7.4043
 21
27.1968
  0
LINE
  8
0
 10
7.4043
 20
27.1968
 11
7.3656
 21
27.227
  0
LINE
  8
0
 10
7.3656
 20
27.227
 11
7.32843
 21
27.259
  0
LINE
  8
0
 10
7.32843
 20
27.259
 11
7.29289
 21
27.2929
  0
LINE
  8
0
 10
7.29289
 20
27.2929
 11
7.25905
 21
27.3284
  0
LINE
  8
0
 10
7.25905
 20
27.3284
 11
7.22697
 21
27.3656
  0
LINE
  8
0
 10
7.22697
 20
27.3656
 11
7.19678
 21
27.4043
  0
LINE
  8
0
 10
7.19678
 20
27.4043
 11
7.16852
 21
27.4444
  0
LINE
  8
0
 10
7.16852
 20
27.4444
 11
7.14226
 21
27.4859
  0
LINE
  8
0
 10
7.14226
 20
27.4859
 11
7.11807
 21
27.5286
  0
LINE
  8
0
 10
7.11807
 20
27.5286
 11
7.09601
 21
27.5724
  0
LINE
  8
0
 10
7.09601
 20
27.5724
 11
7.07611
 21
27.6173
  0
LINE
  8
0
 10
7.07611
 20
27.6173
 11
7.05844
 21
27.6631
  0
LINE
  8
0
 10
7.05844
 20
27.6631
 11
7.04305
 21
27.7097
  0
LINE
  8
0
 10
7.04305
 20
27.7097
 11
7.02997
 21
27.757
  0
LINE
  8
0
 10
7.02997
 20
27.757
 11
7.01921
 21
27.8049
  0
LINE
  8
0
 10
7.01921
 20
27.8049
 11
7.01082
 21
27.8533
  0
LINE
  8
0
 10
7.01082
 20
27.8533
 11
7.00481
 21
27.902
  0
LINE
  8
0
 10
7.00481
 20
27.902
 11
7.00119
 21
27.9509
  0
LINE
  8
0
 10
7.00119
 20
27.9509
 11
7
 21
28
  0
LINE
  8
0
 10
7
 20
28
 11
7.00119
 21
28.0491
  0
LINE
  8
0
 10
7.00119
 20
28.0491
 11
7.00481
 21
28.098
  0
LINE
  8
0
 10
7.00481
 20
28.098
 11
7.01082
 21
28.1467
  0
LINE
  8
0
 10
7.01082
 20
28.1467
 11
7.01921
 21
28.1951
  0
LINE
  8
0
 10
7.01921
 20
28.1951
 11
7.02997
 21
28.243
  0
LINE
  8
0
 10
7.02997
 20
28.243
 11
7.04305
 21
28.2903
  0
LINE
  8
0
 10
7.04305
 20
28.2903
 11
7.05844
 21
28.3369
  0
LINE
  8
0
 10
7.05844
 20
28.3369
 11
7.07611
 21
28.3827
  0
LINE
  8
0
 10
7.07611
 20
28.3827
 11
7.09601
 21
28.4276
  0
LINE
  8
0
 10
7.09601
 20
28.4276
 11
7.11807
 21
28.4714
  0
LINE
  8
0
 10
7.11807
 20
28.4714
 11
7.14226
 21
28.5141
  0
LINE
  8
0
 10
7.14226
 20
28.5141
 11
7.16852
 21
28.5556
  0
LINE
  8
0
 10
7.16852
 20
28.5556
 11
7.19678
 21
28.5957
  0
LINE
  8
0
 10
7.19678
 20
28.5957
 11
7.22697
 21
28.6344
  0
LINE
  8
0
 10
7.22697
 20
28.6344
 11
7.25905
 21
28.6716
  0
LINE
  8
0
 10
7.25905
 20
28.6716
 11
7.29289
 21
28.7071
  0
LINE
  8
0
 10
7.29289
 20
28.7071
 11
7.32843
 21
28.741
  0
LINE
  8
0
 10
7.32843
 20
28.741
 11
7.3656
 21
28.773
  0
LINE
  8
0
 10
7.3656
 20
28.773
 11
7.4043
 21
28.8032
  0
LINE
  8
0
 10
7.4043
 20
28.8032
 11
7.44443
 21
28.8315
  0
LINE
  8
0
 10
7.44443
 20
28.8315
 11
7.48589
 21
28.8577
  0
LINE
  8
0
 10
7.48589
 20
28.8577
 11
7.52859
 21
28.8819
  0
LINE
  8
0
 10
7.52859
 20
28.8819
 11
7.57243
 21
28.904
  0
LINE
  8
0
 10
7.57243
 20
28.904
 11
7.61731
 21
28.9239
  0
LINE
  8
0
 10
7.61731
 20
28.9239
 11
7.6631
 21
28.9415
  0
LINE
  8
0
 10
7.6631
 20
28.9415
 11
7.7097
 21
28.9569
  0
LINE
  8
0
 10
7.7097
 20
28.9569
 11
7.75702
 21
28.97
  0
LINE
  8
0
 10
7.75702
 20
28.97
 11
7.8049
 21
28.9808
  0
LINE
  8
0
 10
7.8049
 20
28.9808
 11
7.85326
 21
28.9892
  0
LINE
  8
0
 10
7.85326
 20
28.9892
 11
7.90198
 21
28.9952
  0
LINE
  8
0
 10
7.90198
 20
28.9952
 11
7.95093
 21
28.9988
  0
LINE
  8
0
 10
7.95093
 20
28.9988
 11
8
 21
29
  0
LINE
  8
0
 10
8
 20
29
 11
8.04906
 21
28.9988
  0
LINE
  8
0
 10
8.04906
 20
28.9988
 11
8.09801
 21
28.9952
  0
LINE
  8
0
 10
8.09801
 20
28.9952
 11
8.14673
 21
28.9892
  0
LINE
  8
0
 10
8.14673
 20
28.9892
 11
8.19508
 21
28.9808
  0
LINE
  8
0
 10
8.19508
 20
28.9808
 11
8.24297
 21
28.97
  0
LINE
  8
0
 10
8.24297
 20
28.97
 11
8.29028
 21
28.9569
  0
LINE
  8
0
 10
8.29028
 20
28.9569
 11
8.33688
 21
28.9415
  0
LINE
  8
0
 10
8.33688
 20
28.9415
 11
8.38268
 21
28.9239
  0
LINE
  8
0
 10
8.38268
 20
28.9239
 11
8.42755
 21
28.904
  0
LINE
  8
0
 10
8.42755
 20
28.904
 11
8.47139
 21
28.8819
  0
LINE
  8
0
 10
8.47139
 20
28.8819
 11
8.5141
 21
28.8577
  0
LINE
  8
0
 10
8.5141
 20
28.8577
 11
8.55556
 21
28.8315
  0
LINE
  8
0
 10
8.55556
 20
28.8315
 11
8.59569
 21
28.8032
  0
LINE
  8
0
 10
8.59569
 20
28.8032
 11
8.63438
 21
28.773
  0
LINE
  8
0
 10
8.63438
 20
28.773
 11
8.67155
 21
28.741
  0
LINE
  8
0
 10
8.67155
 20
28.741
 11
8.70709
 21
28.7071
  0
LINE
  8
0
 10
8.70709
 20
28.7071
 11
8.74094
 21
28.6716
  0
LINE
  8
0
 10
8.74094
 20
28.6716
 11
8.77301
 21
28.6344
  0
LINE
  8
0
 10
8.77301
 20
28.6344
 11
8.80321
 21
28.5957
  0
LINE
  8
0
 10
8.80321
 20
28.5957
 11
8.83147
 21
28.5556
  0
LINE
  8
0
 10
8.83147
 20
28.5556
 11
8.85773
 21
28.5141
  0
LINE
  8
0
 10
8.85773
 20
28.5141
 11
8.88191
 21
28.4714
  0
LINE
  8
0
 10
8.88191
 20
28.4714
 11
8.90398
 21
28.4276
  0
LINE
  8
0
 10
8.90398
 20
28.4276
 11
8.92387
 21
28.3827
  0
LINE
  8
0
 10
8.92387
 20
28.3827
 11
8.94154
 21
28.3369
  0
LINE
  8
0
 10
8.94154
 20
28.3369
 11
8.95694
 21
28.2903
  0
LINE
  8
0
 10
8.95694
 20
28.2903
 11
8.97002
 21
28.243
  0
LINE
  8
0
 10
8.97002
 20
28.243
 11
8.98077
 21
28.1951
  0
LINE
  8
0
 10
8.98077
 20
28.1951
 11
8.98917
 21
28.1467
  0
LINE
  8
0
 10
8.98917
 20
28.1467
 11
8.99518
 21
28.098
  0
LINE
  8
0
 10
8.99518
 20
28.098
 11
8.99879
 21
28.0491
  0
LINE
  8
0
 10
8.99879
 20
28.0491
 11
9
 21
28
  0
LINE
  8
0
 10
9
 20
28
 11
8.99879
 21
27.9509
  0
LINE
  8
0
 10
8.99879
 20
27.9509
 11
8.99518
 21
27.902
  0
LINE
  8
0
 10
8.99518
 20
27.902
 11
8.98917
 21
27.8533
  0
LINE
  8
0
 10
8.98917
 20
27.8533
 11
8.98077
 21
27.8049
  0
LINE
  8
0
 10
8.98077
 20
27.8049
 11
8.97002
 21
27.757
  0
LINE
  8
0
 10
8.97002
 20
27.757
 11
8.95694
 21
27.7097
  0
LINE
  8
0
 10
8.95694
 20
27.7097
 11
8.94154
 21
27.6631
  0
LINE
  8
0
 10
8.94154
 20
27.6631
 11
8.92387
 21
27.6173
  0
LINE
  8
0
 10
8.92387
 20
27.6173
 11
8.90398
 21
27.5724
  0
LINE
  8
0
 10
8.90398
 20
27.5724
 11
8.88191
 21
27.5286
  0
LINE
  8
0
 10
8.88191
 20
27.5286
 11
8.85773
 21
27.4859
  0
LINE
  8
0
 10
8.85773
 20
27.4859
 11
8.83147
 21
27.4444
  0
LINE
  8
0
 10
8.83147
 20
27.4444
 11
8.80321
 21
27.4043
  0
LINE
  8
0
 10
8.80321
 20
27.4043
 11
8.77301
 21
27.3656
  0
LINE
  8
0
 10
8.77301
 20
27.3656
 11
8.74094
 21
27.3284
  0
LINE
  8
0
 10
8.74094
 20
27.3284
 11
8.70709
 21
27.2929
  0
LINE
  8
0
 10
8.70709
 20
27.2929
 11
8.67155
 21
27.259
  0
LINE
  8
0
 10
8.67155
 20
27.259
 11
8.63438
 21
27.227
  0
LINE
  8
0
 10
8.63438
 20
27.227
 11
8.59569
 21
27.1968
  0
LINE
  8
0
 10
8.59569
 20
27.1968
 11
8.55556
 21
27.1685
  0
LINE
  8
0
 10
8.55556
 20
27.1685
 11
8.5141
 21
27.1423
  0
LINE
  8
0
 10
8.5141
 20
27.1423
 11
8.47139
 21
27.1181
  0
LINE
  8
0
 10
8.47139
 20
27.1181
 11
8.42755
 21
27.096
  0
LINE
  8
0
 10
8.42755
 20
27.096
 11
8.38268
 21
27.0761
  0
LINE
  8
0
 10
8.38268
 20
27.0761
 11
8.33688
 21
27.0585
  0
LINE
  8
0
 10
8.33688
 20
27.0585
 11
8.29028
 21
27.0431
  0
LINE
  8
0
 10
8.29028
 20
27.0431
 11
8.24297
 21
27.03
  0
LINE
  8
0
 10
8.24297
 20
27.03
 11
8.19508
 21
27.0192
  0
LINE
  8
0
 10
8.19508
 20
27.0192
 11
8.14673
 21
27.0108
  0
LINE
  8
0
 10
8.14673
 20
27.0108
 11
8.09801
 21
27.0048
  0
LINE
  8
0
 10
8.09801
 20
27.0048
 11
8.04906
 21
27.0012
  0
LINE
  8
0
 10
8.04906
 20
27.0012
 11
8
 21
27
  0
LINE
  8
0
 10
8
 20
27
 11
7.95093
 21
27.0012
  0
LINE
  8
0
 10
31.9509
 20
27.0012
 11
31.902
 21
27.0048
  0
LINE
  8
0
 10
31.902
 20
27.0048
 11
31.8533
 21
27.0108
  0
LINE
  8
0
 10
31.8533
 20
27.0108
 11
31.8049
 21
27.0192
  0
LINE
  8
0
 10
31.8049
 20
27.0192
 11
31.757
 21
27.03
  0
LINE
  8
0
 10
31.757
 20
27.03
 11
31.7097
 21
27.0431
  0
LINE
  8
0
 10
31.7097
 20
27.0431
 11
31.6631
 21
27.0585
  0
LINE
  8
0
 10
31.6631
 20
27.0585
 11
31.6173
 21
27.0761
  0
LINE
  8
0
 10
31.6173
 20
27.0761
 11
31.5724
 21
27.096
  0
LINE
  8
0
 10
31.5724
 20
27.096
 11
31.5286
 21
27.1181
  0
LINE
  8
0
 10
31.5286
 20
27.1181
 11
31.4859
 21
27.1423
  0
LINE
  8
0
 10
31.4859
 20
27.1423
 11
31.4444
 21
27.1685
  0
LINE
  8
0
 10
31.4444
 20
27.1685
 11
31.4043
 21
27.1968
  0
LINE
  8
0
 10
31.4043
 20
27.1968
 11
31.3656
 21
27.227
  0
LINE
  8
0
 10
31.3656
 20
27.227
 11
31.3284
 21
27.259
  0
LINE
  8
0
 10
31.3284
 20
27.259
 11
31.2929
 21
27.2929
  0
LINE
  8
0
 10
31.2929
 20
27.2929
 11
31.259
 21
27.3284
  0
LINE
  8
0
 10
31.259
 20
27.3284
 11
31.227
 21
27.3656
  0
LINE
  8
0
 10
31.227
 20
27.3656
 11
31.1968
 21
27.4043
  0
LINE
  8
0
 10
31.1968
 20
27.4043
 11
31.1685
 21
27.4444
  0
LINE
  8
0
 10
31.1685
 20
27.4444
 11
31.1423
 21
27.4859
  0
LINE
  8
0
 10
31.1423
 20
27.4859
 11
31.1181
 21
27.5286
  0
LINE
  8
0
 10
31.1181
 20
27.5286
 11
31.096
 21
27.5724
  0
LINE
  8
0
 10
31.096
 20
27.5724
 11
31.0761
 21
27.6173
  0
LINE
  8
0
 10
31.0761
 20
27.6173
 11
31.0585
 21
27.6631
  0
LINE
  8
0
 10
31.0585
 20
27.6631
 11
31.0431
 21
27.7097
  0
LINE
  8
0
 10
31.0431
 20
27.7097
 11
31.03
 21
27.757
  0
LINE
  8
0
 10
31.03
 20
27.757
 11
31.0192
 21
27.8049
  0
LINE
  8
0
 10
31.0192
 20
27.8049
 11
31.0108
 21
27.8533
  0
LINE
  8
0
 10
31.0108
 20
27.8533
 11
31.0048
 21
27.902
  0
LINE
  8
0
 10
31.0048
 20
27.902
 11
31.0012
 21
27.9509
  0
LINE
  8
0
 10
31.0012
 20
27.9509
 11
31
 21
28
  0
LINE
  8
0
 10
31
 20
28
 11
31.0012
 21
28.0491
  0
LINE
  8
0
 10
31.0012
 20
28.0491
 11
31.0048
 21
28.098
  0
LINE
  8
0
 10
31.0048
 20
28.098
 11
31.0108
 21
28.1467
  0
LINE
  8
0
 10
31.0108
 20
28.1467
 11
31.0192
 21
28.1951
  0
LINE
  8
0
 10
31.0192
 20
28.1951
 11
31.03
 21
28.243
  0
LINE
  8
0
 10
31.03
 20
28.243
 11
31.0431
 21
28.2903
  0
LINE
  8
0
 10
31.0431
 20
28.2903
 11
31.0585
 21
28.3369
  0
LINE
  8
0
 10
31.0585
 20
28.3369
 11
31.0761
 21
28.3827
  0
LINE
  8
0
 10
31.0761
 20
28.3827
 11
31.096
 21
28.4276
  0
LINE
  8
0
 10
31.096
 20
28.4276
 11
31.1181
 21
28.4714
  0
LINE
  8
0
 10
31.1181
 20
28.4714
 11
31.1423
 21
28.5141
  0
LINE
  8
0
 10
31.1423
 20
28.5141
 11
31.1685
 21
28.5556
  0
LINE
  8
0
 10
31.1685
 20
28.5556
 11
31.1968
 21
28.5957
  0
LINE
  8
0
 10
31.1968
 20
28.5957
 11
31.227
 21
28.6344
  0
LINE
  8
0
 10
31.227
 20
28.6344
 11
31.259
 21
28.6716
  0
LINE
  8
0
 10
31.259
 20
28.6716
 11
31.2929
 21
28.7071
  0
LINE
  8
0
 10
31.2929
 20
28.7071
 11
31.3284
 21
28.741
  0
LINE
  8
0
 10
31.3284
 20
28.741
 11
31.3656
 21
28.773
  0
LINE
  8
0
 10
31.3656
 20
28.773
 11
31.4043
 21
28.8032
  0
LINE
  8
0
 10
31.4043
 20
28.8032
 11
31.4444
 21
28.8315
  0
LINE
  8
0
 10
31.4444
 20
28.8315
 11
31.4859
 21
28.8577
  0
LINE
  8
0
 10
31.4859
 20
28.8577
 11
31.5286
 21
28.8819
  0
LINE
  8
0
 10
31.5286
 20
28.8819
 11
31.5724
 21
28.904
  0
LINE
  8
0
 10
31.5724
 20
28.904
 11
31.6173
 21
28.9239
  0
LINE
  8
0
 10
31.6173
 20
28.9239
 11
31.6631
 21
28.9415
  0
LINE
  8
0
 10
31.6631
 20
28.9415
 11
31.7097
 21
28.9569
  0
LINE
  8
0
 10
31.7097
 20
28.9569
 11
31.757
 21
28.97
  0
LINE
  8
0
 10
31.757
 20
28.97
 11
31.8049
 21
28.9808
  0
LINE
  8
0
 10
31.8049
 20
28.9808
 11
31.8533
 21
28.9892
  0
LINE
  8
0
 10
31.8533
 20
28.9892
 11
31.902
 21
28.9952
  0
LINE
  8
0
 10
31.902
 20
28.9952
 11
31.9509
 21
28.9988
  0
LINE
  8
0
 10
31.9509
 20
28.9988
 11
32
 21
29
  0
LINE
  8
0
 10
32
 20
29
 11
32.0491
 21
28.9988
  0
LINE
  8
0
 10
32.0491
 20
28.9988
 11
32.098
 21
28.9952
  0
LINE
  8
0
 10
32.098
 20
28.9952
 11
32.1467
 21
28.9892
  0
LINE
  8
0
 10
32.1467
 20
28.9892
 11
32.1951
 21
28.9808
  0
LINE
  8
0
 10
32.1951
 20
28.9808
 11
32.243
 21
28.97
  0
LINE
  8
0
 10
32.243
 20
28.97
 11
32.2903
 21
28.9569
  0
LINE
  8
0
 10
32.2903
 20
28.9569
 11
32.3369
 21
28.9415
  0
LINE
  8
0
 10
32.3369
 20
28.9415
 11
32.3827
 21
28.9239
  0
LINE
  8
0
 10
32.3827
 20
28.9239
 11
32.4276
 21
28.904
  0
LINE
  8
0
 10
32.4276
 20
28.904
 11
32.4714
 21
28.8819
  0
LINE
  8
0
 10
32.4714
 20
28.8819
 11
32.5141
 21
28.8577
  0
LINE
  8
0
 10
32.5141
 20
28.8577
 11
32.5556
 21
28.8315
  0
LINE
  8
0
 10
32.5556
 20
28.8315
 11
32.5957
 21
28.8032
  0
LINE
  8
0
 10
32.5957
 20
28.8032
 11
32.6344
 21
28.773
  0
LINE
  8
0
 10
32.6344
 20
28.773
 11
32.6716
 21
28.741
  0
LINE
  8
0
 10
32.6716
 20
28.741
 11
32.7071
 21
28.7071
  0
LINE
  8
0
 10
32.7071
 20
28.7071
 11
32.741
 21
28.6716
  0
LINE
  8
0
 10
32.741
 20
28.6716
 11
32.773
 21
28.6344
  0
LINE
  8
0
 10
32.773
 20
28.6344
 11
32.8032
 21
28.5957
  0
LINE
  8
0
 10
32.8032
 20
28.5957
 11
32.8315
 21
28.5556
  0
LINE
  8
0
 10
32.8315
 20
28.5556
 11
32.8577
 21
28.5141
  0
LINE
  8
0
 10
32.8577
 20
28.5141
 11
32.8819
 21
28.4714
  0
LINE
  8
0
 10
32.8819
 20
28.4714
 11
32.904
 21
28.4276
  0
LINE
  8
0
 10
32.904
 20
28.4276
 11
32.9239
 21
28.3827
  0
LINE
  8
0
 10
32.9239
 20
28.3827
 11
32.9415
 21
28.3369
  0
LINE
  8
0
 10
32.9415
 20
28.3369
 11
32.9569
 21
28.2903
  0
LINE
  8
0
 10
32.9569
 20
28.2903
 11
32.97
 21
28.243
  0
LINE
  8
0
 10
32.97
 20
28.243
 11
32.9808
 21
28.1951
  0
LINE
  8
0
 10
32.9808
 20
28.1951
 11
32.9892
 21
28.1467
  0
LINE
  8
0
 10
32.9892
 20
28.1467
 11
32.9952
 21
28.098
  0
LINE
  8
0
 10
32.9952
 20
28.098
 11
32.9988
 21
28.0491
  0
LINE
  8
0
 10
32.9988
 20
28.0491
 11
33
 21
28
  0
LINE
  8
0
 10
33
 20
28
 11
32.9988
 21
27.9509
  0
LINE
  8
0
 10
32.9988
 20
27.9509
 11
32.9952
 21
27.902
  0
LINE
  8
0
 10
32.9952
 20
27.902
 11
32.9892
 21
27.8533
  0
LINE
  8
0
 10
32.9892
 20
27.8533
 11
32.9808
 21
27.8049
  0
LINE
  8
0
 10
32.9808
 20
27.8049
 11
32.97
 21
27.757
  0
LINE
  8
0
 10
32.97
 20
27.757
 11
32.9569
 21
27.7097
  0
LINE
  8
0
 10
32.9569
 20
27.7097
 11
32.9415
 21
27.6631
  0
LINE
  8
0
 10
32.9415
 20
27.6631
 11
32.9239
 21
27.6173
  0
LINE
  8
0
 10
32.9239
 20
27.6173
 11
32.904
 21
27.5724
  0
LINE
  8
0
 10
32.904
 20
27.5724
 11
32.8819
 21
27.5286
  0
LINE
  8
0
 10
32.8819
 20
27.5286
 11
32.8577
 21
27.4859
  0
LINE
  8
0
 10
32.8577
 20
27.4859
 11
32.8315
 21
27.4444
  0
LINE
  8
0
 10
32.8315
 20
27.4444
 11
32.8032
 21
27.4043
  0
LINE
  8
0
 10
32.8032
 20
27.4043
 11
32.773
 21
27.3656
  0
LINE
  8
0
 10
32.773
 20
27.3656
 11
32.741
 21
27.3284
  0
LINE
  8
0
 10
32.741
 20
27.3284
 11
32.7071
 21
27.2929
  0
LINE
  8
0
 10
32.7071
 20
27.2929
 11
32.6716
 21
27.259
  0
LINE
  8
0
 10
32.6716
 20
27.259
 11
32.6344
 21
27.227
  0
LINE
  8
0
 10
32.6344
 20
27.227
 11
32.5957
 21
27.1968
  0
LINE
  8
0
 10
32.5957
 20
27.1968
 11
32.5556
 21
27.1685
  0
LINE
  8
0
 10
32.5556
 20
27.1685
 11
32.5141
 21
27.1423
  0
LINE
  8
0
 10
32.5141
 20
27.1423
 11
32.4714
 21
27.1181
  0
LINE
  8
0
 10
32.4714
 20
27.1181
 11
32.4276
 21
27.096
  0
LINE
  8
0
 10
32.4276
 20
27.096
 11
32.3827
 21
27.0761
  0
LINE
  8
0
 10
32.3827
 20
27.0761
 11
32.3369
 21
27.0585
  0
LINE
  8
0
 10
32.3369
 20
27.0585
 11
32.2903
 21
27.0431
  0
LINE
  8
0
 10
32.2903
 20
27.0431
 11
32.243
 21
27.03
  0
LINE
  8
0
 10
32.243
 20
27.03
 11
32.1951
 21
27.0192
  0
LINE
  8
0
 10
32.1951
 20
27.0192
 11
32.1467
 21
27.0108
  0
LINE
  8
0
 10
32.1467
 20
27.0108
 11
32.098
 21
27.0048
  0
LINE
  8
0
 10
32.098
 20
27.0048
 11
32.0491
 21
27.0012
  0
LINE
  8
0
 10
32.0491
 20
27.0012
 11
32
 21
27
  0
LINE
  8
0
 10
32
 20
27
 11
31.9509
 21
27.0012
  0
LINE
  8
0
 10
15.9509
 20
19.0012
 11
15.902
 21
19.0048
  0
LINE
  8
0
 10
15.902
 20
19.0048
 11
15.8533
 21
19.0108
  0
LINE
  8
0
 10
15.8533
 20
19.0108
 11
15.8049
 21
19.0192
  0
LINE
  8
0
 10
15.8049
 20
19.0192
 11
15.757
 21
19.03
  0
LINE
  8
0
 10
15.757
 20
19.03
 11
15.7097
 21
19.0431
  0
LINE
  8
0
 10
15.7097
 20
19.0431
 11
15.6631
 21
19.0585
  0
LINE
  8
0
 10
15.6631
 20
19.0585
 11
15.6173
 21
19.0761
  0
LINE
  8
0
 10
15.6173
 20
19.0761
 11
15.5724
 21
19.096
  0
LINE
  8
0
 10
15.5724
 20
19.096
 11
15.5286
 21
19.1181
  0
LINE
  8
0
 10
15.5286
 20
19.1181
 11
15.4859
 21
19.1423
  0
LINE
  8
0
 10
15.4859
 20
19.1423
 11
15.4444
 21
19.1685
  0
LINE
  8
0
 10
15.4444
 20
19.1685
 11
15.4043
 21
19.1968
  0
LINE
  8
0
 10
15.4043
 20
19.1968
 11
15.3656
 21
19.227
  0
LINE
  8
0
 10
15.3656
 20
19.227
 11
15.3284
 21
19.259
  0
LINE
  8
0
 10
15.3284
 20
19.259
 11
15.2929
 21
19.2929
  0
LINE
  8
0
 10
15.2929
 20
19.2929
 11
15.259
 21
19.3284
  0
LINE
  8
0
 10
15.259
 20
19.3284
 11
15.227
 21
19.3656
  0
LINE
  8
0
 10
15.227
 20
19.3656
 11
15.1968
 21
19.4043
  0
LINE
  8
0
 10
15.1968
 20
19.4043
 11
15.1685
 21
19.4444
  0
LINE
  8
0
 10
15.1685
 20
19.4444
 11
15.1423
 21
19.4859
  0
LINE
  8
0
 10
15.1423
 20
19.4859
 11
15.1181
 21
19.5286
  0
LINE
  8
0
 10
15.1181
 20
19.5286
 11
15.096
 21
19.5724
  0
LINE
  8
0
 10
15.096
 20
19.5724
 11
15.0761
 21
19.6173
  0
LINE
  8
0
 10
15.0761
 20
19.6173
 11
15.0585
 21
19.6631
  0
LINE
  8
0
 10
15.0585
 20
19.6631
 11
15.0431
 21
19.7097
  0
LINE
  8
0
 10
15.0431
 20
19.7097
 11
15.03
 21
19.757
  0
LINE
  8
0
 10
15.03
 20
19.757
 11
15.0192
 21
19.8049
  0
LINE
  8
0
 10
15.0192
 20
19.8049
 11
15.0108
 21
19.8533
  0
LINE
  8
0
 10
15.0108
 20
19.8533
 11
15.0048
 21
19.902
  0
LINE
  8
0
 10
15.0048
 20
19.902
 11
15.0012
 21
19.9509
  0
LINE
  8
0
 10
15.0012
 20
19.9509
 11
15
 21
20
  0
LINE
  8
0
 10
15
 20
20
 11
15.0012
 21
20.0491
  0
LINE
  8
0
 10
15.0012
 20
20.0491
 11
15.0048
 21
20.098
  0
LINE
  8
0
 10
15.0048
 20
20.098
 11
15.0108
 21
20.1467
  0
LINE
  8
0
 10
15.0108
 20
20.1467
 11
15.0192
 21
20.1951
  0
LINE
  8
0
 10
15.0192
 20
20.1951
 11
15.03
 21
20.243
  0
LINE
  8
0
 10
15.03
 20
20.243
 11
15.0431
 21
20.2903
  0
LINE
  8
0
 10
15.0431
 20
20.2903
 11
15.0585
 21
20.3369
  0
LINE
  8
0
 10
15.0585
 20
20.3369
 11
15.0761
 21
20.3827
  0
LINE
  8
0
 10
15.0761
 20
20.3827
 11
15.096
 21
20.4276
  0
LINE
  8
0
 10
15.096
 20
20.4276
 11
15.1181
 21
20.4714
  0
LINE
  8
0
 10
15.1181
 20
20.4714
 11
15.1423
 21
20.5141
  0
LINE
  8
0
 10
15.1423
 20
20.5141
 11
15.1685
 21
20.5556
  0
LINE
  8
0
 10
15.1685
 20
20.5556
 11
15.1968
 21
20.5957
  0
LINE
  8
0
 10
15.1968
 20
20.5957
 11
15.227
 21
20.6344
  0
LINE
  8
0
 10
15.227
 20
20.6344
 11
15.259
 21
20.6716
  0
LINE
  8
0
 10
15.259
 20
20.6716
 11
15.2929
 21
20.7071
  0
LINE
  8
0
 10
15.2929
 20
20.7071
 11
15.3284
 21
20.741
  0
LINE
  8
0
 10
15.3284
 20
20.741
 11
15.3656
 21
20.773
  0
LINE
  8
0
 10
15.3656
 20
20.773
 11
15.4043
 21
20.8032
  0
LINE
  8
0
 10
15.4043
 20
20.8032
 11
15.4444
 21
20.8315
  0
LINE
  8
0
 10
15.4444
 20
20.8315
 11
15.4859
 21
20.8577
  0
LINE
  8
0
 10
15.4859
 20
20.8577
 11
15.5286
 21
20.8819
  0
LINE
  8
0
 10
15.5286
 20
20.8819
 11
15.5724
 21
20.904
  0
LINE
  8
0
 10
15.5724
 20
20.904
 11
15.6173
 21
20.9239
  0
LINE
  8
0
 10
15.6173
 20
20.9239
 11
15.6631
 21
20.9415
  0
LINE
  8
0
 10
15.6631
 20
20.9415
 11
15.7097
 21
20.9569
  0
LINE
  8
0
 10
15.7097
 20
20.9569
 11
15.757
 21
20.97
  0
LINE
  8
0
 10
15.757
 20
20.97
 11
15.8049
 21
20.9808
  0
LINE
  8
0
 10
15.8049
 20
20.9808
 11
15.8533
 21
20.9892
  0
LINE
  8
0
 10
15.8533
 20
20.9892
 11
15.902
 21
20.9952
  0
LINE
  8
0
 10
15.902
 20
20.9952
 11
15.9509
 21
20.9988
  0
LINE
  8
0
 10
15.9509
 20
20.9988
 11
16
 21
21
  0
LINE
  8
0
 10
16
 20
21
 11
16.0491
 21
20.9988
  0
LINE
  8
0
 10
16.0491
 20
20.9988
 11
16.098
 21
20.9952
  0
LINE
  8
0
 10
16.098
 20
20.9952
 11
16.1467
 21
20.9892
  0
LINE
  8
0
 10
16.1467
 20
20.9892
 11
16.1951
 21
20.9808
  0
LINE
  8
0
 10
16.1951
 20
20.9808
 11
16.243
 21
20.97
  0
LINE
  8
0
 10
16.243
 20
20.97
 11
16.2903
 21
20.9569
  0
LINE
  8
0
 10
16.2903
 20
20.9569
 11
16.3369
 21
20.9415
  0
LINE
  8
0
 10
16.3369
 20
20.9415
 11
16.3827
 21
20.9239
  0
LINE
  8
0
 10
16.3827
 20
20.9239
 11
16.4276
 21
20.904
  0
LINE
  8
0
 10
16.4276
 20
20.904
 11
16.4714
 21
20.8819
  0
LINE
  8
0
 10
16.4714
 20
20.8819
 11
16.5141
 21
20.8577
  0
LINE
  8
0
 10
16.5141
 20
20.8577
 11
16.5556
 21
20.8315
  0
LINE
  8
0
 10
16.5556
 20
20.8315
 11
16.5957
 21
20.8032
  0
LINE
  8
0
 10
16.5957
 20
20.8032
 11
16.6344
 21
20.773
  0
LINE
  8
0
 10
16.6344
 20
20.773
 11
16.6716
 21
20.741
  0
LINE
  8
0
 10
16.6716
 20
20.741
 11
16.7071
 21
20.7071
  0
LINE
  8
0
 10
16.7071
 20
20.7071
 11
16.741
 21
20.6716
  0
LINE
  8
0
 10
16.741
 20
20.6716
 11
16.773
 21
20.6344
  0
LINE
  8
0
 10
16.773
 20
20.6344
 11
16.8032
 21
20.5957
  0
LINE
  8
0
 10
16.8032
 20
20.5957
 11
16.8315
 21
20.5556
  0
LINE
  8
0
 10
16.8315
 20
20.5556
 11
16.8577
 21
20.5141
  0
LINE
  8
0
 10
16.8577
 20
20.5141
 11
16.8819
 21
20.4714
  0
LINE
  8
0
 10
16.8819
 20
20.4714
 11
16.904
 21
20.4276
  0
LINE
  8
0
 10
16.904
 20
20.4276
 11
16.9239
 21
20.3827
  0
LINE
  8
0
 10
16.9239
 20
20.3827
 11
16.9415
 21
20.3369
  0
LINE
  8
0
 10
16.9415
 20
20.3369
 11
16.9569
 21
20.2903
  0
LINE
  8
0
 10
16.9569
 20
20.2903
 11
16.97
 21
20.243
  0
LINE
  8
0
 10
16.97
 20
20.243
 11
16.9808
 21
20.1951
  0
LINE
  8
0
 10
16.9808
 20
20.1951
 11
16.9892
 21
20.1467
  0
LINE
  8
0
 10
16.9892
 20
20.1467
 11
16.9952
 21
20.098
  0
LINE
  8
0
 10
16.9952
 20
20.098
 11
16.9988
 21
20.0491
  0
LINE
  8
0
 10
16.9988
 20
20.0491
 11
17
 21
20
  0
LINE
  8
0
 10
17
 20
20
 11
16.9988
 21
19.9509
  0
LINE
  8
0
 10
16.9988
 20
19.9509
 11
16.9952
 21
19.902
  0
LINE
  8
0
 10
16.9952
 20
19.902
 11
16.9892
 21
19.8533
  0
LINE
  8
0
 10
16.9892
 20
19.8533
 11
16.9808
 21
19.8049
  0
LINE
  8
0
 10
16.9808
 20
19.8049
 11
16.97
 21
19.757
  0
LINE
  8
0
 10
16.97
 20
19.757
 11
16.9569
 21
19.7097
  0
LINE
  8
0
 10
16.9569
 20
19.7097
 11
16.9415
 21
19.6631
  0
LINE
  8
0
 10
16.9415
 20
19.6631
 11
16.9239
 21
19.6173
  0
LINE
  8
0
 10
16.9239
 20
19.6173
 11
16.904
 21
19.5724
  0
LINE
  8
0
 10
16.904
 20
19.5724
 11
16.8819
 21
19.5286
  0
LINE
  8
0
 10
16.8819
 20
19.5286
 11
16.8577
 21
19.4859
  0
LINE
  8
0
 10
16.8577
 20
19.4859
 11
16.8315
 21
19.4444
  0
LINE
  8
0
 10
16.8315
 20
19.4444
 11
16.8032
 21
19.4043
  0
LINE
  8
0
 10
16.8032
 20
19.4043
 11
16.773
 21
19.3656
  0
LINE
  8
0
 10
16.773
 20
19.3656
 11
16.741
 21
19.3284
  0
LINE
  8
0
 10
16.741
 20
19.3284
 11
16.7071
 21
19.2929
  0
LINE
  8
0
 10
16.7071
 20
19.2929
 11
16.6716
 21
19.259
  0
LINE
  8
0
 10
16.6716
 20
19.259
 11
16.6344
 21
19.227
  0
LINE
  8
0
 10
16.6344
 20
19.227
 11
16.5957
 21
19.1968
  0
LINE
  8
0
 10
16.5957
 20
19.1968
 11
16.5556
 21
19.1685
  0
LINE
  8
0
 10
16.5556
 20
19.1685
 11
16.5141
 21
19.1423
  0
LINE
  8
0
 10
16.5141
 20
19.1423
 11
16.4714
 21
19.1181
  0
LINE
  8
0
 10
16.4714
 20
19.1181
 11
16.4276
 21
19.096
  0
LINE
  8
0
 10
16.4276
 20
19.096
 11
16.3827
 21
19.0761
  0
LINE
  8
0
 10
16.3827
 20
19.0761
 11
16.3369
 21
19.0585
  0
LINE
  8
0
 10
16.3369
 20
19.0585
 11
16.2903
 21
19.0431
  0
LINE
  8
0
 10
16.2903
 20
19.0431
 11
16.243
 21
19.03
  0
LINE
  8
0
 10
16.243
 20
19.03
 11
16.1951
 21
19.0192
  0
LINE
  8
0
 10
16.1951
 20
19.0192
 11
16.1467
 21
19.0108
  0
LINE
  8
0
 10
16.1467
 20
19.0108
 11
16.098
 21
19.0048
  0
LINE
  8
0
 10
16.098
 20
19.0048
 11
16.0491
 21
19.0012
  0
LINE
  8
0
 10
16.0491
 20
19.0012
 11
16
 21
19
  0
LINE
  8
0
 10
16
 20
19
 11
15.9509
 21
19.0012
  0
LINE
  8
0
 10
-8.04906
 20
19.0012
 11
-8.09801
 21
19.0048
  0
LINE
  8
0
 10
-8.09801
 20
19.0048
 11
-8.14673
 21
19.0108
  0
LINE
  8
0
 10
-8.14673
 20
19.0108
 11
-8.19508
 21
19.0192
  0
LINE
  8
0
 10
-8.19508
 20
19.0192
 11
-8.24297
 21
19.03
  0
LINE
  8
0
 10
-8.24297
 20
19.03
 11
-8.29028
 21
19.0431
  0
LINE
  8
0
 10
-8.29028
 20
19.0431
 11
-8.33688
 21
19.0585
  0
LINE
  8
0
 10
-8.33688
 20
19.0585
 11
-8.38268
 21
19.0761
  0
LINE
  8
0
 10
-8.38268
 20
19.0761
 11
-8.42755
 21
19.096
  0
LINE
  8
0
 10
-8.42755
 20
19.096
 11
-8.47139
 21
19.1181
  0
LINE
  8
0
 10
-8.47139
 20
19.1181
 11
-8.5141
 21
19.1423
  0
LINE
  8
0
 10
-8.5141
 20
19.1423
 11
-8.55556
 21
19.1685
  0
LINE
  8
0
 10
-8.55556
 20
19.1685
 11
-8.59569
 21
19.1968
  0
LINE
  8
0
 10
-8.59569
 20
19.1968
 11
-8.63438
 21
19.227
  0
LINE
  8
0
 10
-8.63438
 20
19.227
 11
-8.67155
 21
19.259
  0
LINE
  8
0
 10
-8.67155
 20
19.259
 11
-8.70709
 21
19.2929
  0
LINE
  8
0
 10
-8.70709
 20
19.2929
 11
-8.74094
 21
19.3284
  0
LINE
  8
0
 10
-8.74094
 20
19.3284
 11
-8.77301
 21
19.3656
  0
LINE
  8
0
 10
-8.77301
 20
19.3656
 11
-8.80321
 21
19.4043
  0
LINE
  8
0
 10
-8.80321
 20
19.4043
 11
-8.83147
 21
19.4444
  0
LINE
  8
0
 10
-8.83147
 20
19.4444
 11
-8.85773
 21
19.4859
  0
LINE
  8
0
 10
-8.85773
 20
19.4859
 11
-8.88191
 21
19.5286
  0
LINE
  8
0
 10
-8.88191
 20
19.5286
 11
-8.90398
 21
19.5724
  0
LINE
  8
0
 10
-8.90398
 20
19.5724
 11
-8.92387
 21
19.6173
  0
LINE
  8
0
 10
-8.92387
 20
19.6173
 11
-8.94154
 21
19.6631
  0
LINE
  8
0
 10
-8.94154
 20
19.6631
 11
-8.95694
 21
19.7097
  0
LINE
  8
0
 10
-8.95694
 20
19.7097
 11
-8.97002
 21
19.757
  0
LINE
  8
0
 10
-8.97002
 20
19.757
 11
-8.98077
 21
19.8049
  0
LINE
  8
0
 10
-8.98077
 20
19.8049
 11
-8.98917
 21
19.8533
  0
LINE
  8
0
 10
-8.98917
 20
19.8533
 11
-8.99518
 21
19.902
  0
LINE
  8
0
 10
-8.99518
 20
19.902
 11
-8.99879
 21
19.9509
  0
LINE
  8
0
 10
-8.99879
 20
19.9509
 11
-9
 21
20
  0
LINE
  8
0
 10
-9
 20
20
 11
-8.99879
 21
20.0491
  0
LINE
  8
0
 10
-8.99879
 20
20.0491
 11
-8.99518
 21
20.098
  0
LINE
  8
0
 10
-8.99518
 20
20.098
 11
-8.98917
 21
20.1467
  0
LINE
  8
0
 10
-8.98917
 20
20.1467
 11
-8.98077
 21
20.1951
  0
LINE
  8
0
 10
-8.98077
 20
20.1951
 11
-8.97002
 21
20.243
  0
LINE
  8
0
 10
-8.97002
 20
20.243
 11
-8.95694
 21
20.2903
  0
LINE
  8
0
 10
-8.95694
 20
20.2903
 11
-8.94154
 21
20.3369
  0
LINE
  8
0
 10
-8.94154
 20
20.3369
 11
-8.92387
 21
20.3827
  0
LINE
  8
0
 10
-8.92387
 20
20.3827
 11
-8.90398
 21
20.4276
  0
LINE
  8
0
 10
-8.90398
 20
20.4276
 11
-8.88191
 21
20.4714
  0
LINE
  8
0
 10
-8.88191
 20
20.4714
 11
-8.85773
 21
20.5141
  0
LINE
  8
0
 10
-8.85773
 20
20.5141
 11
-8.83147
 21
20.5556
  0
LINE
  8
0
 10
-8.83147
 20
20.5556
 11
-8.80321
 21
20.5957
  0
LINE
  8
0
 10
-8.80321
 20
20.5957
 11
-8.77301
 21
20.6344
  0
LINE
  8
0
 10
-8.77301
 20
20.6344
 11
-8.74094
 21
20.6716
  0
LINE
  8
0
 10
-8.74094
 20
20.6716
 11
-8.70709
 21
20.7071
  0
LINE
  8
0
 10
-8.70709
 20
20.7071
 11
-8.67155
 21
20.741
  0
LINE
  8
0
 10
-8.67155
 20
20.741
 11
-8.63438
 21
20.773
  0
LINE
  8
0
 10
-8.63438
 20
20.773
 11
-8.59569
 21
20.8032
  0
LINE
  8
0
 10
-8.59569
 20
20.8032
 11
-8.55556
 21
20.8315
  0
LINE
  8
0
 10
-8.55556
 20
20.8315
 11
-8.5141
 21
20.8577
  0
LINE
  8
0
 10
-8.5141
 20
20.8577
 11
-8.47139
 21
20.8819
  0
LINE
  8
0
 10
-8.47139
 20
20.8819
 11
-8.42755
 21
20.904
  0
LINE
  8
0
 10
-8.42755
 20
20.904
 11
-8.38268
 21
20.9239
  0
LINE
  8
0
 10
-8.38268
 20
20.9239
 11
-8.33688
 21
20.9415
  0
LINE
  8
0
 10
-8.33688
 20
20.9415
 11
-8.29028
 21
20.9569
  0
LINE
  8
0
 10
-8.29028
 20
20.9569
 11
-8.24297
 21
20.97
  0
LINE
  8
0
 10
-8.24297
 20
20.97
 11
-8.19508
 21
20.9808
  0
LINE
  8
0
 10
-8.19508
 20
20.9808
 11
-8.14673
 21
20.9892
  0
LINE
  8
0
 10
-8.14673
 20
20.9892
 11
-8.09801
 21
20.9952
  0
LINE
  8
0
 10
-8.09801
 20
20.9952
 11
-8.04906
 21
20.9988
  0
LINE
  8
0
 10
-8.04906
 20
20.9988
 11
-8
 21
21
  0
LINE
  8
0
 10
-8
 20
21
 11
-7.95093
 21
20.9988
  0
LINE
  8
0
 10
-7.95093
 20
20.9988
 11
-7.90198
 21
20.9952
  0
LINE
  8
0
 10
-7.90198
 20
20.9952
 11
-7.85326
 21
20.9892
  0
LINE
  8
0
 10
-7.85326
 20
20.9892
 11
-7.8049
 21
20.9808
  0
LINE
  8
0
 10
-7.8049
 20
20.9808
 11
-7.75702
 21
20.97
  0
LINE
  8
0
 10
-7.75702
 20
20.97
 11
-7.7097
 21
20.9569
  0
LINE
  8
0
 10
-7.7097
 20
20.9569
 11
-7.6631
 21
20.9415
  0
LINE
  8
0
 10
-7.6631
 20
20.9415
 11
-7.61731
 21
20.9239
  0
LINE
  8
0
 10
-7.61731
 20
20.9239
 11
-7.57243
 21
20.904
  0
LINE
  8
0
 10
-7.57243
 20
20.904
 11
-7.52859
 21
20.8819
  0
LINE
  8
0
 10
-7.52859
 20
20.8819
 11
-7.48589
 21
20.8577
  0
LINE
  8
0
 10
-7.48589
 20
20.8577
 11
-7.44443
 21
20.8315
  0
LINE
  8
0
 10
-7.44443
 20
20.8315
 11
-7.4043
 21
20.8032
  0
LINE
  8
0
 10
-7.4043
 20
20.8032
 11
-7.3656
 21
20.773
  0
LINE
  8
0
 10
-7.3656
 20
20.773
 11
-7.32843
 21
20.741
  0
LINE
  8
0
 10
-7.32843
 20
20.741
 11
-7.29289
 21
20.7071
  0
LINE
  8
0
 10
-7.29289
 20
20.7071
 11
-7.25905
 21
20.6716
  0
LINE
  8
0
 10
-7.25905
 20
20.6716
 11
-7.22697
 21
20.6344
  0
LINE
  8
0
 10
-7.22697
 20
20.6344
 11
-7.19678
 21
20.5957
  0
LINE
  8
0
 10
-7.19678
 20
20.5957
 11
-7.16852
 21
20.5556
  0
LINE
  8
0
 10
-7.16852
 20
20.5556
 11
-7.14226
 21
20.5141
  0
LINE
  8
0
 10
-7.14226
 20
20.5141
 11
-7.11807
 21
20.4714
  0
LINE
  8
0
 10
-7.11807
 20
20.4714
 11
-7.09601
 21
20.4276
  0
LINE
  8
0
 10
-7.09601
 20
20.4276
 11
-7.07611
 21
20.3827
  0
LINE
  8
0
 10
-7.07611
 20
20.3827
 11
-7.05844
 21
20.3369
  0
LINE
  8
0
 10
-7.05844
 20
20.3369
 11
-7.04305
 21
20.2903
  0
LINE
  8
0
 10
-7.04305
 20
20.2903
 11
-7.02997
 21
20.243
  0
LINE
  8
0
 10
-7.02997
 20
20.243
 11
-7.01921
 21
20.1951
  0
LINE
  8
0
 10
-7.01921
 20
20.1951
 11
-7.01082
 21
20.1467
  0
LINE
  8
0
 10
-7.01082
 20
20.1467
 11
-7.00481
 21
20.098
  0
LINE
  8
0
 10
-7.00481
 20
20.098
 11
-7.00119
 21
20.0491
  0
LINE
  8
0
 10
-7.00119
 20
20.0491
 11
-7
 21
20
  0
LINE
  8
0
 10
-7
 20
20
 11
-7.00119
 21
19.9509
  0
LINE
  8
0
 10
-7.00119
 20
19.9509
 11
-7.00481
 21
19.902
  0
LINE
  8
0
 10
-7.00481
 20
19.902
 11
-7.01082
 21
19.8533
  0
LINE
  8
0
 10
-7.01082
 20
19.8533
 11
-7.01921
 21
19.8049
  0
LINE
  8
0
 10
-7.01921
 20
19.8049
 11
-7.02997
 21
19.757
  0
LINE
  8
0
 10
-7.02997
 20
19.757
 11
-7.04305
 21
19.7097
  0
LINE
  8
0
 10
-7.04305
 20
19.7097
 11
-7.05844
 21
19.6631
  0
LINE
  8
0
 10
-7.05844
 20
19.6631
 11
-7.07611
 21
19.6173
  0
LINE
  8
0
 10
-7.07611
 20
19.6173
 11
-7.09601
 21
19.5724
  0
LINE
  8
0
 10
-7.09601
 20
19.5724
 11
-7.11807
 21
19.5286
  0
LINE
  8
0
 10
-7.11807
 20
19.5286
 11
-7.14226
 21
19.4859
  0
LINE
  8
0
 10
-7.14226
 20
19.4859
 11
-7.16852
 21
19.4444
  0
LINE
  8
0
 10
-7.16852
 20
19.4444
 11
-7.19678
 21
19.4043
  0
LINE
  8
0
 10
-7.19678
 20
19.4043
 11
-7.22697
 21
19.3656
  0
LINE
  8
0
 10
-7.22697
 20
19.3656
 11
-7.25905
 21
19.3284
  0
LINE
  8
0
 10
-7.25905
 20
19.3284
 11
-7.29289
 21
19.2929
  0
LINE
  8
0
 10
-7.29289
 20
19.2929
 11
-7.32843
 21
19.259
  0
LINE
  8
0
 10
-7.32843
 20
19.259
 11
-7.3656
 21
19.227
  0
LINE
  8
0
 10
-7.3656
 20
19.227
 11
-7.4043
 21
19.1968
  0
LINE
  8
0
 10
-7.4043
 20
19.1968
 11
-7.44443
 21
19.1685
  0
LINE
  8
0
 10
-7.44443
 20
19.1685
 11
-7.48589
 21
19.1423
  0
LINE
  8
0
 10
-7.48589
 20
19.1423
 11
-7.52859
 21
19.1181
  0
LINE
  8
0
 10
-7.52859
 20
19.1181
 11
-7.57243
 21
19.096
  0
LINE
  8
0
 10
-7.57243
 20
19.096
 11
-7.61731
 21
19.0761
  0
LINE
  8
0
 10
-7.61731
 20
19.0761
 11
-7.6631
 21
19.0585
  0
LINE
  8
0
 10
-7.6631
 20
19.0585
 11
-7.7097
 21
19.0431
  0
LINE
  8
0
 10
-7.7097
 20
19.0431
 11
-7.75702
 21
19.03
  0
LINE
  8
0
 10
-7.75702
 20
19.03
 11
-7.8049
 21
19.0192
  0
LINE
  8
0
 10
-7.8049
 20
19.0192
 11
-7.85326
 21
19.0108
  0
LINE
  8
0
 10
-7.85326
 20
19.0108
 11
-7.90198
 21
19.0048
  0
LINE
  8
0
 10
-7.90198
 20
19.0048
 11
-7.95093
 21
19.0012
  0
LINE
  8
0
 10
-7.95093
 20
19.0012
 11
-8
 21
19
  0
LINE
  8
0
 10
-8
 20
19
 11
-8.04906
 21
19.0012
  0
LINE
  8
0
 10
3.95093
 20
15.0012
 11
3.90198
 21
15.0048
  0
LINE
  8
0
 10
3.90198
 20
15.0048
 11
3.85326
 21
15.0108
  0
LINE
  8
0
 10
3.85326
 20
15.0108
 11
3.8049
 21
15.0192
  0
LINE
  8
0
 10
3.8049
 20
15.0192
 11
3.75702
 21
15.03
  0
LINE
  8
0
 10
3.75702
 20
15.03
 11
3.7097
 21
15.0431
  0
LINE
  8
0
 10
3.7097
 20
15.0431
 11
3.6631
 21
15.0585
  0
LINE
  8
0
 10
3.6631
 20
15.0585
 11
3.61731
 21
15.0761
  0
LINE
  8
0
 10
3.61731
 20
15.0761
 11
3.57243
 21
15.096
  0
LINE
  8
0
 10
3.57243
 20
15.096
 11
3.52859
 21
15.1181
  0
LINE
  8
0
 10
3.52859
 20
15.1181
 11
3.48589
 21
15.1423
  0
LINE
  8
0
 10
3.48589
 20
15.1423
 11
3.44443
 21
15.1685
  0
LINE
  8
0
 10
3.44443
 20
15.1685
 11
3.4043
 21
15.1968
  0
LINE
  8
0
 10
3.4043
 20
15.1968
 11
3.3656
 21
15.227
  0
LINE
  8
0
 10
3.3656
 20
15.227
 11
3.32843
 21
15.259
  0
LINE
  8
0
 10
3.32843
 20
15.259
 11
3.29289
 21
15.2929
  0
LINE
  8
0
 10
3.29289
 20
15.2929
 11
3.25905
 21
15.3284
  0
LINE
  8
0
 10
3.25905
 20
15.3284
 11
3.22697
 21
15.3656
  0
LINE
  8
0
 10
3.22697
 20
15.3656
 11
3.19678
 21
15.4043
  0
LINE
  8
0
 10
3.19678
 20
15.4043
 11
3.16852
 21
15.4444
  0
LINE
  8
0
 10
3.16852
 20
15.4444
 11
3.14226
 21
15.4859
  0
LINE
  8
0
 10
3.14226
 20
15.4859
 11
3.11807
 21
15.5286
  0
LINE
  8
0
 10
3.11807
 20
15.5286
 11
3.09601
 21
15.5724
  0
LINE
  8
0
 10
3.09601
 20
15.5724
 11
3.07611
 21
15.6173
  0
LINE
  8
0
 10
3.07611
 20
15.6173
 11
3.05844
 21
15.6631
  0
LINE
  8
0
 10
3.05844
 20
15.6631
 11
3.04305
 21
15.7097
  0
LINE
  8
0
 10
3.04305
 20
15.7097
 11
3.02997
 21
15.757
  0
LINE
  8
0
 10
3.02997
 20
15.757
 11
3.01921
 21
15.8049
  0
LINE
  8
0
 10
3.01921
 20
15.8049
 11
3.01082
 21
15.8533
  0
LINE
  8
0
 10
3.01082
 20
15.8533
 11
3.00481
 21
15.902
  0
LINE
  8
0
 10
3.00481
 20
15.902
 11
3.00119
 21
15.9509
  0
LINE
  8
0
 10
3.00119
 20
15.9509
 11
3
 21
16
  0
LINE
  8
0
 10
3
 20
16
 11
3.00119
 21
16.0491
  0
LINE
  8
0
 10
3.00119
 20
16.0491
 11
3.00481
 21
16.098
  0
LINE
  8
0
 10
3.00481
 20
16.098
 11
3.01082
 21
16.1467
  0
LINE
  8
0
 10
3.01082
 20
16.1467
 11
3.01921
 21
16.1951
  0
LINE
  8
0
 10
3.01921
 20
16.1951
 11
3.02997
 21
16.243
  0
LINE
  8
0
 10
3.02997
 20
16.243
 11
3.04305
 21
16.2903
  0
LINE
  8
0
 10
3.04305
 20
16.2903
 11
3.05844
 21
16.3369
  0
LINE
  8
0
 10
3.05844
 20
16.3369
 11
3.07611
 21
16.3827
  0
LINE
  8
0
 10
3.07611
 20
16.3827
 11
3.09601
 21
16.4276
  0
LINE
  8
0
 10
3.09601
 20
16.4276
 11
3.11807
 21
16.4714
  0
LINE
  8
0
 10
3.11807
 20
16.4714
 11
3.14226
 21
16.5141
  0
LINE
  8
0
 10
3.14226
 20
16.5141
 11
3.16852
 21
16.5556
  0
LINE
  8
0
 10
3.16852
 20
16.5556
 11
3.19678
 21
16.5957
  0
LINE
  8
0
 10
3.19678
 20
16.5957
 11
3.22697
 21
16.6344
  0
LINE
  8
0
 10
3.22697
 20
16.6344
 11
3.25905
 21
16.6716
  0
LINE
  8
0
 10
3.25905
 20
16.6716
 11
3.29289
 21
16.7071
  0
LINE
  8
0
 10
3.29289
 20
16.7071
 11
3.32843
 21
16.741
  0
LINE
  8
0
 10
3.32843
 20
16.741
 11
3.3656
 21
16.773
  0
LINE
  8
0
 10
3.3656
 20
16.773
 11
3.4043
 21
16.8032
  0
LINE
  8
0
 10
3.4043
 20
16.8032
 11
3.44443
 21
16.8315
  0
LINE
  8
0
 10
3.44443
 20
16.8315
 11
3.48589
 21
16.8577
  0
LINE
  8
0
 10
3.48589
 20
16.8577
 11
3.52859
 21
16.8819
  0
LINE
  8
0
 10
3.52859
 20
16.8819
 11
3.57243
 21
16.904
  0
LINE
  8
0
 10
3.57243
 20
16.904
 11
3.61731
 21
16.9239
  0
LINE
  8
0
 10
3.61731
 20
16.9239
 11
3.6631
 21
16.9415
  0
LINE
  8
0
 10
3.6631
 20
16.9415
 11
3.7097
 21
16.9569
  0
LINE
  8
0
 10
3.7097
 20
16.9569
 11
3.75702
 21
16.97
  0
LINE
  8
0
 10
3.75702
 20
16.97
 11
3.8049
 21
16.9808
  0
LINE
  8
0
 10
3.8049
 20
16.9808
 11
3.85326
 21
16.9892
  0
LINE
  8
0
 10
3.85326
 20
16.9892
 11
3.90198
 21
16.9952
  0
LINE
  8
0
 10
3.90198
 20
16.9952
 11
3.95093
 21
16.9988
  0
LINE
  8
0
 10
3.95093
 20
16.9988
 11
4
 21
17
  0
LINE
  8
0
 10
4
 20
17
 11
4.04906
 21
16.9988
  0
LINE
  8
0
 10
4.04906
 20
16.9988
 11
4.09801
 21
16.9952
  0
LINE
  8
0
 10
4.09801
 20
16.9952
 11
4.14673
 21
16.9892
  0
LINE
  8
0
 10
4.14673
 20
16.9892
 11
4.19508
 21
16.9808
  0
LINE
  8
0
 10
4.19508
 20
16.9808
 11
4.24297
 21
16.97
  0
LINE
  8
0
 10
4.24297
 20
16.97
 11
4.29028
 21
16.9569
  0
LINE
  8
0
 10
4.29028
 20
16.9569
 11
4.33688
 21
16.9415
  0
LINE
  8
0
 10
4.33688
 20
16.9415
 11
4.38268
 21
16.9239
  0
LINE
  8
0
 10
4.38268
 20
16.9239
 11
4.42755
 21
16.904
  0
LINE
  8
0
 10
4.42755
 20
16.904
 11
4.47139
 21
16.8819
  0
LINE
  8
0
 10
4.47139
 20
16.8819
 11
4.5141
 21
16.8577
  0
LINE
  8
0
 10
4.5141
 20
16.8577
 11
4.55556
 21
16.8315
  0
LINE
  8
0
 10
4.55556
 20
16.8315
 11
4.59569
 21
16.8032
  0
LINE
  8
0
 10
4.59569
 20
16.8032
 11
4.63438
 21
16.773
  0
LINE
  8
0
 10
4.63438
 20
16.773
 11
4.67155
 21
16.741
  0
LINE
  8
0
 10
4.67155
 20
16.741
 11
4.70709
 21
16.7071
  0
LINE
  8
0
 10
4.70709
 20
16.7071
 11
4.74094
 21
16.6716
  0
LINE
  8
0
 10
4.74094
 20
16.6716
 11
4.77301
 21
16.6344
  0
LINE
  8
0
 10
4.77301
 20
16.6344
 11
4.80321
 21
16.5957
  0
LINE
  8
0
 10
4.80321
 20
16.5957
 11
4.83147
 21
16.5556
  0
LINE
  8
0
 10
4.83147
 20
16.5556
 11
4.85773
 21
16.5141
  0
LINE
  8
0
 10
4.85773
 20
16.5141
 11
4.88191
 21
16.4714
  0
LINE
  8
0
 10
4.88191
 20
16.4714
 11
4.90398
 21
16.4276
  0
LINE
  8
0
 10
4.90398
 20
16.4276
 11
4.92387
 21
16.3827
  0
LINE
  8
0
 10
4.92387
 20
16.3827
 11
4.94154
 21
16.3369
  0
LINE
  8
0
 10
4.94154
 20
16.3369
 11
4.95694
 21
16.2903
  0
LINE
  8
0
 10
4.95694
 20
16.2903
 11
4.97002
 21
16.243
  0
LINE
  8
0
 10
4.97002
 20
16.243
 11
4.98077
 21
16.1951
  0
LINE
  8
0
 10
4.98077
 20
16.1951
 11
4.98917
 21
16.1467
  0
LINE
  8
0
 10
4.98917
 20
16.1467
 11
4.99518
 21
16.098
  0
LINE
  8
0
 10
4.99518
 20
16.098
 11
4.99879
 21
16.0491
  0
LINE
  8
0
 10
4.99879
 20
16.0491
 11
5
 21
16
  0
LINE
  8
0
 10
5
 20
16
 11
4.99879
 21
15.9509
  0
LINE
  8
0
 10
4.99879
 20
15.9509
 11
4.99518
 21
15.902
  0
LINE
  8
0
 10
4.99518
 20
15.902
 11
4.98917
 21
15.8533
  0
LINE
  8
0
 10
4.98917
 20
15.8533
 11
4.98077
 21
15.8049
  0
LINE
  8
0
 10
4.98077
 20
15.8049
 11
4.97002
 21
15.757
  0
LINE
  8
0
 10
4.97002
 20
15.757
 11
4.95694
 21
15.7097
  0
LINE
  8
0
 10
4.95694
 20
15.7097
 11
4.94154
 21
15.6631
  0
LINE
  8
0
 10
4.94154
 20
15.6631
 11
4.92387
 21
15.6173
  0
LINE
  8
0
 10
4.92387
 20
15.6173
 11
4.90398
 21
15.5724
  0
LINE
  8
0
 10
4.90398
 20
15.5724
 11
4.88191
 21
15.5286
  0
LINE
  8
0
 10
4.88191
 20
15.5286
 11
4.85773
 21
15.4859
  0
LINE
  8
0
 10
4.85773
 20
15.4859
 11
4.83147
 21
15.4444
  0
LINE
  8
0
 10
4.83147
 20
15.4444
 11
4.80321
 21
15.4043
  0
LINE
  8
0
 10
4.80321
 20
15.4043
 11
4.77301
 21
15.3656
  0
LINE
  8
0
 10
4.77301
 20
15.3656
 11
4.74094
 21
15.3284
  0
LINE
  8
0
 10
4.74094
 20
15.3284
 11
4.70709
 21
15.2929
  0
LINE
  8
0
 10
4.70709
 20
15.2929
 11
4.67155
 21
15.259
  0
LINE
  8
0
 10
4.67155
 20
15.259
 11
4.63438
 21
15.227
  0
LINE
  8
0
 10
4.63438
 20
15.227
 11
4.59569
 21
15.1968
  0
LINE
  8
0
 10
4.59569
 20
15.1968
 11
4.55556
 21
15.1685
  0
LINE
  8
0
 10
4.55556
 20
15.1685
 11
4.5141
 21
15.1423
  0
LINE
  8
0
 10
4.5141
 20
15.1423
 11
4.47139
 21
15.1181
  0
LINE
  8
0
 10
4.47139
 20
15.1181
 11
4.42755
 21
15.096
  0
LINE
  8
0
 10
4.42755
 20
15.096
 11
4.38268
 21
15.0761
  0
LINE
  8
0
 10
4.38268
 20
15.0761
 11
4.33688
 21
15.0585
  0
LINE
  8
0
 10
4.33688
 20
15.0585
 11
4.29028
 21
15.0431
  0
LINE
  8
0
 10
4.29028
 20
15.0431
 11
4.24297
 21
15.03
  0
LINE
  8
0
 10
4.24297
 20
15.03
 11
4.19508
 21
15.0192
  0
LINE
  8
0
 10
4.19508
 20
15.0192
 11
4.14673
 21
15.0108
  0
LINE
  8
0
 10
4.14673
 20
15.0108
 11
4.09801
 21
15.0048
  0
LINE
  8
0
 10
4.09801
 20
15.0048
 11
4.04906
 21
15.0012
  0
LINE
  8
0
 10
4.04906
 20
15.0012
 11
4
 21
15
  0
LINE
  8
0
 10
4
 20
15
 11
3.95093
 21
15.0012
  0
LINE
  8
0
 10
27.9509
 20
15.0012
 11
27.902
 21
15.0048
  0
LINE
  8
0
 10
27.902
 20
15.0048
 11
27.8533
 21
15.0108
  0
LINE
  8
0
 10
27.8533
 20
15.0108
 11
27.8049
 21
15.0192
  0
LINE
  8
0
 10
27.8049
 20
15.0192
 11
27.757
 21
15.03
  0
LINE
  8
0
 10
27.757
 20
15.03
 11
27.7097
 21
15.0431
  0
LINE
  8
0
 10
27.7097
 20
15.0431
 11
27.6631
 21
15.0585
  0
LINE
  8
0
 10
27.6631
 20
15.0585
 11
27.6173
 21
15.0761
  0
LINE
  8
0
 10
27.6173
 20
15.0761
 11
27.5724
 21
15.096
  0
LINE
  8
0
 10
27.5724
 20
15.096
 11
27.5286
 21
15.1181
  0
LINE
  8
0
 10
27.5286
 20
15.1181
 11
27.4859
 21
15.1423
  0
LINE
  8
0
 10
27.4859
 20
15.1423
 11
27.4444
 21
15.1685
  0
LINE
  8
0
 10
27.4444
 20
15.1685
 11
27.4043
 21
15.1968
  0
LINE
  8
0
 10
27.4043
 20
15.1968
 11
27.3656
 21
15.227
  0
LINE
  8
0
 10
27.3656
 20
15.227
 11
27.3284
 21
15.259
  0
LINE
  8
0
 10
27.3284
 20
15.259
 11
27.2929
 21
15.2929
  0
LINE
  8
0
 10
27.2929
 20
15.2929
 11
27.259
 21
15.3284
  0
LINE
  8
0
 10
27.259
 20
15.3284
 11
27.227
 21
15.3656
  0
LINE
  8
0
 10
27.227
 20
15.3656
 11
27.1968
 21
15.4043
  0
LINE
  8
0
 10
27.1968
 20
15.4043
 11
27.1685
 21
15.4444
  0
LINE
  8
0
 10
27.1685
 20
15.4444
 11
27.1423
 21
15.4859
  0
LINE
  8
0
 10
27.1423
 20
15.4859
 11
27.1181
 21
15.5286
  0
LINE
  8
0
 10
27.1181
 20
15.5286
 11
27.096
 21
15.5724
  0
LINE
  8
0
 10
27.096
 20
15.5724
 11
27.0761
 21
15.6173
  0
LINE
  8
0
 10
27.0761
 20
15.6173
 11
27.0585
 21
15.6631
  0
LINE
  8
0
 10
27.0585
 20
15.6631
 11
27.0431
 21
15.7097
  0
LINE
  8
0
 10
27.0431
 20
15.7097
 11
27.03
 21
15.757
  0
LINE
  8
0
 10
27.03
 20
15.757
 11
27.0192
 21
15.8049
  0
LINE
  8
0
 10
27.0192
 20
15.8049
 11
27.0108
 21
15.8533
  0
LINE
  8
0
 10
27.0108
 20
15.8533
 11
27.0048
 21
15.902
  0
LINE
  8
0
 10
27.0048
 20
15.902
 11
27.0012
 21
15.9509
  0
LINE
  8
0
 10
27.0012
 20
15.9509
 11
27
 21
16
  0
LINE
  8
0
 10
27
 20
16
 11
27.0012
 21
16.0491
  0
LINE
  8
0
 10
27.0012
 20
16.0491
 11
27.0048
 21
16.098
  0
LINE
  8
0
 10
27.0048
 20
16.098
 11
27.0108
 21
16.1467
  0
LINE
  8
0
 10
27.0108
 20
16.1467
 11
27.0192
 21
16.1951
  0
LINE
  8
0
 10
27.0192
 20
16.1951
 11
27.03
 21
16.243
  0
LINE
  8
0
 10
27.03
 20
16.243
 11
27.0431
 21
16.2903
  0
LINE
  8
0
 10
27.0431
 20
16.2903
 11
27.0585
 21
16.3369
  0
LINE
  8
0
 10
27.0585
 20
16.3369
 11
27.0761
 21
16.3827
  0
LINE
  8
0
 10
27.0761
 20
16.3827
 11
27.096
 21
16.4276
  0
LINE
  8
0
 10
27.096
 20
16.4276
 11
27.1181
 21
16.4714
  0
LINE
  8
0
 10
27.1181
 20
16.4714
 11
27.1423
 21
16.5141
  0
LINE
  8
0
 10
27.1423
 20
16.5141
 11
27.1685
 21
16.5556
  0
LINE
  8
0
 10
27.1685
 20
16.5556
 11
27.1968
 21
16.5957
  0
LINE
  8
0
 10
27.1968
 20
16.5957
 11
27.227
 21
16.6344
  0
LINE
  8
0
 10
27.227
 20
16.6344
 11
27.259
 21
16.6716
  0
LINE
  8
0
 10
27.259
 20
16.6716
 11
27.2929
 21
16.7071
  0
LINE
  8
0
 10
27.2929
 20
16.7071
 11
27.3284
 21
16.741
  0
LINE
  8
0
 10
27.3284
 20
16.741
 11
27.3656
 21
16.773
  0
LINE
  8
0
 10
27.3656
 20
16.773
 11
27.4043
 21
16.8032
  0
LINE
  8
0
 10
27.4043
 20
16.8032
 11
27.4444
 21
16.8315
  0
LINE
  8
0
 10
27.4444
 20
16.8315
 11
27.4859
 21
16.8577
  0
LINE
  8
0
 10
27.4859
 20
16.8577
 11
27.5286
 21
16.8819
  0
LINE
  8
0
 10
27.5286
 20
16.8819
 11
27.5724
 21
16.904
  0
LINE
  8
0
 10
27.5724
 20
16.904
 11
27.6173
 21
16.9239
  0
LINE
  8
0
 10
27.6173
 20
16.9239
 11
27.6631
 21
16.9415
  0
LINE
  8
0
 10
27.6631
 20
16.9415
 11
27.7097
 21
16.9569
  0
LINE
  8
0
 10
27.7097
 20
16.9569
 11
27.757
 21
16.97
  0
LINE
  8
0
 10
27.757
 20
16.97
 11
27.8049
 21
16.9808
  0
LINE
  8
0
 10
27.8049
 20
16.9808
 11
27.8533
 21
16.9892
  0
LINE
  8
0
 10
27.8533
 20
16.9892
 11
27.902
 21
16.9952
  0
LINE
  8
0
 10
27.902
 20
16.9952
 11
27.9509
 21
16.9988
  0
LINE
  8
0
 10
27.9509
 20
16.9988
 11
28
 21
17
  0
LINE
  8
0
 10
28
 20
17
 11
28.0491
 21
16.9988
  0
LINE
  8
0
 10
28.0491
 20
16.9988
 11
28.098
 21
16.9952
  0
LINE
  8
0
 10
28.098
 20
16.9952
 11
28.1467
 21
16.9892
  0
LINE
  8
0
 10
28.1467
 20
16.9892
 11
28.1951
 21
16.9808
  0
LINE
  8
0
 10
28.1951
 20
16.9808
 11
28.243
 21
16.97
  0
LINE
  8
0
 10
28.243
 20
16.97
 11
28.2903
 21
16.9569
  0
LINE
  8
0
 10
28.2903
 20
16.9569
 11
28.3369
 21
16.9415
  0
LINE
  8
0
 10
28.3369
 20
16.9415
 11
28.3827
 21
16.9239
  0
LINE
  8
0
 10
28.3827
 20
16.9239
 11
28.4276
 21
16.904
  0
LINE
  8
0
 10
28.4276
 20
16.904
 11
28.4714
 21
16.8819
  0
LINE
  8
0
 10
28.4714
 20
16.8819
 11
28.5141
 21
16.8577
  0
LINE
  8
0
 10
28.5141
 20
16.8577
 11
28.5556
 21
16.8315
  0
LINE
  8
0
 10
28.5556
 20
16.8315
 11
28.5957
 21
16.8032
  0
LINE
  8
0
 10
28.5957
 20
16.8032
 11
28.6344
 21
16.773
  0
LINE
  8
0
 10
28.6344
 20
16.773
 11
28.6716
 21
16.741
  0
LINE
  8
0
 10
28.6716
 20
16.741
 11
28.7071
 21
16.7071
  0
LINE
  8
0
 10
28.7071
 20
16.7071
 11
28.741
 21
16.6716
  0
LINE
  8
0
 10
28.741
 20
16.6716
 11
28.773
 21
16.6344
  0
LINE
  8
0
 10
28.773
 20
16.6344
 11
28.8032
 21
16.5957
  0
LINE
  8
0
 10
28.8032
 20
16.5957
 11
28.8315
 21
16.5556
  0
LINE
  8
0
 10
28.8315
 20
16.5556
 11
28.8577
 21
16.5141
  0
LINE
  8
0
 10
28.8577
 20
16.5141
 11
28.8819
 21
16.4714
  0
LINE
  8
0
 10
28.8819
 20
16.4714
 11
28.904
 21
16.4276
  0
LINE
  8
0
 10
28.904
 20
16.4276
 11
28.9239
 21
16.3827
  0
LINE
  8
0
 10
28.9239
 20
16.3827
 11
28.9415
 21
16.3369
  0
LINE
  8
0
 10
28.9415
 20
16.3369
 11
28.9569
 21
16.2903
  0
LINE
  8
0
 10
28.9569
 20
16.2903
 11
28.97
 21
16.243
  0
LINE
  8
0
 10
28.97
 20
16.243
 11
28.9808
 21
16.1951
  0
LINE
  8
0
 10
28.9808
 20
16.1951
 11
28.9892
 21
16.1467
  0
LINE
  8
0
 10
28.9892
 20
16.1467
 11
28.9952
 21
16.098
  0
LINE
  8
0
 10
28.9952
 20
16.098
 11
28.9988
 21
16.0491
  0
LINE
  8
0
 10
28.9988
 20
16.0491
 11
29
 21
16
  0
LINE
  8
0
 10
29
 20
16
 11
28.9988
 21
15.9509
  0
LINE
  8
0
 10
28.9988
 20
15.9509
 11
28.9952
 21
15.902
  0
LINE
  8
0
 10
28.9952
 20
15.902
 11
28.9892
 21
15.8533
  0
LINE
  8
0
 10
28.9892
 20
15.8533
 11
28.9808
 21
15.8049
  0
LINE
  8
0
 10
28.9808
 20
15.8049
 11
28.97
 21
15.757
  0
LINE
  8
0
 10
28.97
 20
15.757
 11
28.9569
 21
15.7097
  0
LINE
  8
0
 10
28.9569
 20
15.7097
 11
28.9415
 21
15.6631
  0
LINE
  8
0
 10
28.9415
 20
15.6631
 11
28.9239
 21
15.6173
  0
LINE
  8
0
 10
28.9239
 20
15.6173
 11
28.904
 21
15.5724
  0
LINE
  8
0
 10
28.904
 20
15.5724
 11
28.8819
 21
15.5286
  0
LINE
  8
0
 10
28.8819
 20
15.5286
 11
28.8577
 21
15.4859
  0
LINE
  8
0
 10
28.8577
 20
15.4859
 11
28.8315
 21
15.4444
  0
LINE
  8
0
 10
28.8315
 20
15.4444
 11
28.8032
 21
15.4043
  0
LINE
  8
0
 10
28.8032
 20
15.4043
 11
28.773
 21
15.3656
  0
LINE
  8
0
 10
28.773
 20
15.3656
 11
28.741
 21
15.3284
  0
LINE
  8
0
 10
28.741
 20
15.3284
 11
28.7071
 21
15.2929
  0
LINE
  8
0
 10
28.7071
 20
15.2929
 11
28.6716
 21
15.259
  0
LINE
  8
0
 10
28.6716
 20
15.259
 11
28.6344
 21
15.227
  0
LINE
  8
0
 10
28.6344
 20
15.227
 11
28.5957
 21
15.1968
  0
LINE
  8
0
 10
28.5957
 20
15.1968
 11
28.5556
 21
15.1685
  0
LINE
  8
0
 10
28.5556
 20
15.1685
 11
28.5141
 21
15.1423
  0
LINE
  8
0
 10
28.5141
 20
15.1423
 11
28.4714
 21
15.1181
  0
LINE
  8
0
 10
28.4714
 20
15.1181
 11
28.4276
 21
15.096
  0
LINE
  8
0
 10
28.4276
 20
15.096
 11
28.3827
 21
15.0761
  0
LINE
  8
0
 10
28.3827
 20
15.0761
 11
28.3369
 21
15.0585
  0
LINE
  8
0
 10
28.3369
 20
15.0585
 11
28.2903
 21
15.0431
  0
LINE
  8
0
 10
28.2903
 20
15.0431
 11
28.243
 21
15.03
  0
LINE
  8
0
 10
28.243
 20
15.03
 11
28.1951
 21
15.0192
  0
LINE
  8
0
 10
28.1951
 20
15.0192
 11
28.1467
 21
15.0108
  0
LINE
  8
0
 10
28.1467
 20
15.0108
 11
28.098
 21
15.0048
  0
LINE
  8
0
 10
28.098
 20
15.0048
 11
28.0491
 21
15.0012
  0
LINE
  8
0
 10
28.0491
 20
15.0012
 11
28
 21
15
  0
LINE
  8
0
 10
28
 20
15
 11
27.9509
 21
15.0012
  0
LINE
  8
0
 10
8
 20
12
 11
12
 21
16
  0
LINE
  8
0
 10
12
 20
16
 11
16
 21
12
  0
LINE
  8
0
 10
16
 20
12
 11
12
 21
8
  0
LINE
  8
0
 10
12
 20
8
 11
8
 21
12
  0
LINE
  8
0
 10
19.9509
 20
7.00119
 11
19.902
 21
7.00481
  0
LINE
  8
0
 10
19.902
 20
7.00481
 11
19.8533
 21
7.01082
  0
LINE
  8
0
 10
19.8533
 20
7.01082
 11
19.8049
 21
7.01921
  0
LINE
  8
0
 10
19.8049
 20
7.01921
 11
19.757
 21
7.02997
  0
LINE
  8
0
 10
19.757
 20
7.02997
 11
19.7097
 21
7.04305
  0
LINE
  8
0
 10
19.7097
 20
7.04305
 11
19.6631
 21
7.05844
  0
LINE
  8
0
 10
19.6631
 20
7.05844
 11
19.6173
 21
7.07611
  0
LINE
  8
0
 10
19.6173
 20
7.07611
 11
19.5724
 21
7.09601
  0
LINE
  8
0
 10
19.5724
 20
7.09601
 11
19.5286
 21
7.11807
  0
LINE
  8
0
 10
19.5286
 20
7.11807
 11
19.4859
 21
7.14226
  0
LINE
  8
0
 10
19.4859
 20
7.14226
 11
19.4444
 21
7.16852
  0
LINE
  8
0
 10
19.4444
 20
7.16852
 11
19.4043
 21
7.19678
  0
LINE
  8
0
 10
19.4043
 20
7.19678
 11
19.3656
 21
7.22697
  0
LINE
  8
0
 10
19.3656
 20
7.22697
 11
19.3284
 21
7.25905
  0
LINE
  8
0
 10
19.3284
 20
7.25905
 11
19.2929
 21
7.29289
  0
LINE
  8
0
 10
19.2929
 20
7.29289
 11
19.259
 21
7.32843
  0
LINE
  8
0
 10
19.259
 20
7.32843
 11
19.227
 21
7.3656
  0
LINE
  8
0
 10
19.227
 20
7.3656
 11
19.1968
 21
7.4043
  0
LINE
  8
0
 10
19.1968
 20
7.4043
 11
19.1685
 21
7.44443
  0
LINE
  8
0
 10
19.1685
 20
7.44443
 11
19.1423
 21
7.48589
  0
LINE
  8
0
 10
19.1423
 20
7.48589
 11
19.1181
 21
7.52859
  0
LINE
  8
0
 10
19.1181
 20
7.52859
 11
19.096
 21
7.57243
  0
LINE
  8
0
 10
19.096
 20
7.57243
 11
19.0761
 21
7.61731
  0
LINE
  8
0
 10
19.0761
 20
7.61731
 11
19.0585
 21
7.6631
  0
LINE
  8
0
 10
19.0585
 20
7.6631
 11
19.0431
 21
7.7097
  0
LINE
  8
0
 10
19.0431
 20
7.7097
 11
19.03
 21
7.75702
  0
LINE
  8
0
 10
19.03
 20
7.75702
 11
19.0192
 21
7.8049
  0
LINE
  8
0
 10
19.0192
 20
7.8049
 11
19.0108
 21
7.85326
  0
LINE
  8
0
 10
19.0108
 20
7.85326
 11
19.0048
 21
7.90198
  0
LINE
  8
0
 10
19.0048
 20
7.90198
 11
19.0012
 21
7.95093
  0
LINE
  8
0
 10
19.0012
 20
7.95093
 11
19
 21
8
  0
LINE
  8
0
 10
19
 20
8
 11
19.0012
 21
8.04906
  0
LINE
  8
0
 10
19.0012
 20
8.04906
 11
19.0048
 21
8.09801
  0
LINE
  8
0
 10
19.0048
 20
8.09801
 11
19.0108
 21
8.14673
  0
LINE
  8
0
 10
19.0108
 20
8.14673
 11
19.0192
 21
8.19508
  0
LINE
  8
0
 10
19.0192
 20
8.19508
 11
19.03
 21
8.24297
  0
LINE
  8
0
 10
19.03
 20
8.24297
 11
19.0431
 21
8.29028
  0
LINE
  8
0
 10
19.0431
 20
8.29028
 11
19.0585
 21
8.33688
  0
LINE
  8
0
 10
19.0585
 20
8.33688
 11
19.0761
 21
8.38268
  0
LINE
  8
0
 10
19.0761
 20
8.38268
 11
19.096
 21
8.42755
  0
LINE
  8
0
 10
19.096
 20
8.42755
 11
19.1181
 21
8.47139
  0
LINE
  8
0
 10
19.1181
 20
8.47139
 11
19.1423
 21
8.5141
  0
LINE
  8
0
 10
19.1423
 20
8.5141
 11
19.1685
 21
8.55556
  0
LINE
  8
0
 10
19.1685
 20
8.55556
 11
19.1968
 21
8.59569
  0
LINE
  8
0
 10
19.1968
 20
8.59569
 11
19.227
 21
8.63438
  0
LINE
  8
0
 10
19.227
 20
8.63438
 11
19.259
 21
8.67155
  0
LINE
  8
0
 10
19.259
 20
8.67155
 11
19.2929
 21
8.70709
  0
LINE
  8
0
 10
19.2929
 20
8.70709
 11
19.3284
 21
8.74094
  0
LINE
  8
0
 10
19.3284
 20
8.74094
 11
19.3656
 21
8.77301
  0
LINE
  8
0
 10
19.3656
 20
8.77301
 11
19.4043
 21
8.80321
  0
LINE
  8
0
 10
19.4043
 20
8.80321
 11
19.4444
 21
8.83147
  0
LINE
  8
0
 10
19.4444
 20
8.83147
 11
19.4859
 21
8.85773
  0
LINE
  8
0
 10
19.4859
 20
8.85773
 11
19.5286
 21
8.88191
  0
LINE
  8
0
 10
19.5286
 20
8.88191
 11
19.5724
 21
8.90398
  0
LINE
  8
0
 10
19.5724
 20
8.90398
 11
19.6173
 21
8.92387
  0
LINE
  8
0
 10
19.6173
 20
8.92387
 11
19.6631
 21
8.94154
  0
LINE
  8
0
 10
19.6631
 20
8.94154
 11
19.7097
 21
8.95694
  0
LINE
  8
0
 10
19.7097
 20
8.95694
 11
19.757
 21
8.97002
  0
LINE
  8
0
 10
19.757
 20
8.97002
 11
19.8049
 21
8.98077
  0
LINE
  8
0
 10
19.8049
 20
8.98077
 11
19.8533
 21
8.98917
  0
LINE
  8
0
 10
19.8533
 20
8.98917
 11
19.902
 21
8.99518
  0
LINE
  8
0
 10
19.902
 20
8.99518
 11
19.9509
 21
8.99879
  0
LINE
  8
0
 10
19.9509
 20
8.99879
 11
20
 21
9
  0
LINE
  8
0
 10
20
 20
9
 11
20.0491
 21
8.99879
  0
LINE
  8
0
 10
20.0491
 20
8.99879
 11
20.098
 21
8.99518
  0
LINE
  8
0
 10
20.098
 20
8.99518
 11
20.1467
 21
8.98917
  0
LINE
  8
0
 10
20.1467
 20
8.98917
 11
20.1951
 21
8.98077
  0
LINE
  8
0
 10
20.1951
 20
8.98077
 11
20.243
 21
8.97002
  0
LINE
  8
0
 10
20.243
 20
8.97002
 11
20.2903
 21
8.95694
  0
LINE
  8
0
 10
20.2903
 20
8.95694
 11
20.3369
 21
8.94154
  0
LINE
  8
0
 10
20.3369
 20
8.94154
 11
20.3827
 21
8.92387
  0
LINE
  8
0
 10
20.3827
 20
8.92387
 11
20.4276
 21
8.90398
  0
LINE
  8
0
 10
20.4276
 20
8.90398
 11
20.4714
 21
8.88191
  0
LINE
  8
0
 10
20.4714
 20
8.88191
 11
20.5141
 21
8.85773
  0
LINE
  8
0
 10
20.5141
 20
8.85773
 11
20.5556
 21
8.83147
  0
LINE
  8
0
 10
20.5556
 20
8.83147
 11
20.5957
 21
8.80321
  0
LINE
  8
0
 10
20.5957
 20
8.80321
 11
20.6344
 21
8.77301
  0
LINE
  8
0
 10
20.6344
 20
8.77301
 11
20.6716
 21
8.74094
  0
LINE
  8
0
 10
20.6716
 20
8.74094
 11
20.7071
 21
8.70709
  0
LINE
  8
0
 10
20.7071
 20
8.70709
 11
20.741
 21
8.67155
  0
LINE
  8
0
 10
20.741
 20
8.67155
 11
20.773
 21
8.63438
  0
LINE
  8
0
 10
20.773
 20
8.63438
 11
20.8032
 21
8.59569
  0
LINE
  8
0
 10
20.8032
 20
8.59569
 11
20.8315
 21
8.55556
  0
LINE
  8
0
 10
20.8315
 20
8.55556
 11
20.8577
 21
8.5141
  0
LINE
  8
0
 10
20.8577
 20
8.5141
 11
20.8819
 21
8.47139
  0
LINE
  8
0
 10
20.8819
 20
8.47139
 11
20.904
 21
8.42755
  0
LINE
  8
0
 10
20.904
 20
8.42755
 11
20.9239
 21
8.38268
  0
LINE
  8
0
 10
20.9239
 20
8.38268
 11
20.9415
 21
8.33688
  0
LINE
  8
0
 10
20.9415
 20
8.33688
 11
20.9569
 21
8.29028
  0
LINE
  8
0
 10
20.9569
 20
8.29028
 11
20.97
 21
8.24297
  0
LINE
  8
0
 10
20.97
 20
8.24297
 11
20.9808
 21
8.19508
  0
LINE
  8
0
 10
20.9808
 20
8.19508
 11
20.9892
 21
8.14673
  0
LINE
  8
0
 10
20.9892
 20
8.14673
 11
20.9952
 21
8.09801
  0
LINE
  8
0
 10
20.9952
 20
8.09801
 11
20.9988
 21
8.04906
  0
LINE
  8
0
 10
20.9988
 20
8.04906
 11
21
 21
8
  0
LINE
  8
0
 10
21
 20
8
 11
20.9988
 21
7.95093
  0
LINE
  8
0
 10
20.9988
 20
7.95093
 11
20.9952
 21
7.90198
  0
LINE
  8
0
 10
20.9952
 20
7.90198
 11
20.9892
 21
7.85326
  0
LINE
  8
0
 10
20.9892
 20
7.85326
 11
20.9808
 21
7.8049
  0
LINE
  8
0
 10
20.9808
 20
7.8049
 11
20.97
 21
7.75702
  0
LINE
  8
0
 10
20.97
 20
7.75702
 11
20.9569
 21
7.7097
  0
LINE
  8
0
 10
20.9569
 20
7.7097
 11
20.9415
 21
7.6631
  0
LINE
  8
0
 10
20.9415
 20
7.6631
 11
20.9239
 21
7.61731
  0
LINE
  8
0
 10
20.9239
 20
7.61731
 11
20.904
 21
7.57243
  0
LINE
  8
0
 10
20.904
 20
7.57243
 11
20.8819
 21
7.52859
  0
LINE
  8
0
 10
20.8819
 20
7.52859
 11
20.8577
 21
7.48589
  0
LINE
  8
0
 10
20.8577
 20
7.48589
 11
20.8315
 21
7.44443
  0
LINE
  8
0
 10
20.8315
 20
7.44443
 11
20.8032
 21
7.4043
  0
LINE
  8
0
 10
20.8032
 20
7.4043
 11
20.773
 21
7.3656
  0
LINE
  8
0
 10
20.773
 20
7.3656
 11
20.741
 21
7.32843
  0
LINE
  8
0
 10
20.741
 20
7.32843
 11
20.7071
 21
7.29289
  0
LINE
  8
0
 10
20.7071
 20
7.29289
 11
20.6716
 21
7.25905
  0
LINE
  8
0
 10
20.6716
 20
7.25905
 11
20.6344
 21
7.22697
  0
LINE
  8
0
 10
20.6344
 20
7.22697
 11
20.5957
 21
7.19678
  0
LINE
  8
0
 10
20.5957
 20
7.19678
 11
20.5556
 21
7.16852
  0
LINE
  8
0
 10
20.5556
 20
7.16852
 11
20.5141
 21
7.14226
  0
LINE
  8
0
 10
20.5141
 20
7.14226
 11
20.4714
 21
7.11807
  0
LINE
  8
0
 10
20.4714
 20
7.11807
 11
20.4276
 21
7.09601
  0
LINE
  8
0
 10
20.4276
 20
7.09601
 11
20.3827
 21
7.07611
  0
LINE
  8
0
 10
20.3827
 20
7.07611
 11
20.3369
 21
7.05844
  0
LINE
  8
0
 10
20.3369
 20
7.05844
 11
20.2903
 21
7.04305
  0
LINE
  8
0
 10
20.2903
 20
7.04305
 11
20.243
 21
7.02997
  0
LINE
  8
0
 10
20.243
 20
7.02997
 11
20.1951
 21
7.01921
  0
LINE
  8
0
 10
20.1951
 20
7.01921
 11
20.1467
 21
7.01082
  0
LINE
  8
0
 10
20.1467
 20
7.01082
 11
20.098
 21
7.00481
  0
LINE
  8
0
 10
20.098
 20
7.00481
 11
20.0491
 21
7.00119
  0
LINE
  8
0
 10
20.0491
 20
7.00119
 11
20
 21
7
  0
LINE
  8
0
 10
20
 20
7
 11
19.9509
 21
7.00119
  0
LINE
  8
0
 10
-4.04906
 20
7.00119
 11
-4.09801
 21
7.00481
  0
LINE
  8
0
 10
-4.09801
 20
7.00481
 11
-4.14673
 21
7.01082
  0
LINE
  8
0
 10
-4.14673
 20
7.01082
 11
-4.19508
 21
7.01921
  0
LINE
  8
0
 10
-4.19508
 20
7.01921
 11
-4.24297
 21
7.02997
  0
LINE
  8
0
 10
-4.24297
 20
7.02997
 11
-4.29028
 21
7.04305
  0
LINE
  8
0
 10
-4.29028
 20
7.04305
 11
-4.33688
 21
7.05844
  0
LINE
  8
0
 10
-4.33688
 20
7.05844
 11
-4.38268
 21
7.07611
  0
LINE
  8
0
 10
-4.38268
 20
7.07611
 11
-4.42755
 21
7.09601
  0
LINE
  8
0
 10
-4.42755
 20
7.09601
 11
-4.47139
 21
7.11807
  0
LINE
  8
0
 10
-4.47139
 20
7.11807
 11
-4.5141
 21
7.14226
  0
LINE
  8
0
 10
-4.5141
 20
7.14226
 11
-4.55556
 21
7.16852
  0
LINE
  8
0
 10
-4.55556
 20
7.16852
 11
-4.59569
 21
7.19678
  0
LINE
  8
0
 10
-4.59569
 20
7.19678
 11
-4.63438
 21
7.22697
  0
LINE
  8
0
 10
-4.63438
 20
7.22697
 11
-4.67155
 21
7.25905
  0
LINE
  8
0
 10
-4.67155
 20
7.25905
 11
-4.70709
 21
7.29289
  0
LINE
  8
0
 10
-4.70709
 20
7.29289
 11
-4.74094
 21
7.32843
  0
LINE
  8
0
 10
-4.74094
 20
7.32843
 11
-4.77301
 21
7.3656
  0
LINE
  8
0
 10
-4.77301
 20
7.3656
 11
-4.80321
 21
7.4043
  0
LINE
  8
0
 10
-4.80321
 20
7.4043
 11
-4.83147
 21
7.44443
  0
LINE
  8
0
 10
-4.83147
 20
7.44443
 11
-4.85773
 21
7.48589
  0
LINE
  8
0
 10
-4.85773
 20
7.48589
 11
-4.88191
 21
7.52859
  0
LINE
  8
0
 10
-4.88191
 20
7.52859
 11
-4.90398
 21
7.57243
  0
LINE
  8
0
 10
-4.90398
 20
7.57243
 11
-4.92387
 21
7.61731
  0
LINE
  8
0
 10
-4.92387
 20
7.61731
 11
-4.94154
 21
7.6631
  0
LINE
  8
0
 10
-4.94154
 20
7.6631
 11
-4.95694
 21
7.7097
  0
LINE
  8
0
 10
-4.95694
 20
7.7097
 11
-4.97002
 21
7.75702
  0
LINE
  8
0
 10
-4.97002
 20
7.75702
 11
-4.98077
 21
7.8049
  0
LINE
  8
0
 10
-4.98077
 20
7.8049
 11
-4.98917
 21
7.85326
  0
LINE
  8
0
 10
-4.98917
 20
7.85326
 11
-4.99518
 21
7.90198
  0
LINE
  8
0
 10
-4.99518
 20
7.90198
 11
-4.99879
 21
7.95093
  0
LINE
  8
0
 10
-4.99879
 20
7.95093
 11
-5
 21
8
  0
LINE
  8
0
 10
-5
 20
8
 11
-4.99879
 21
8.04906
  0
LINE
  8
0
 10
-4.99879
 20
8.04906
 11
-4.99518
 21
8.09801
  0
LINE
  8
0
 10
-4.99518
 20
8.09801
 11
-4.98917
 21
8.14673
  0
LINE
  8
0
 10
-4.98917
 20
8.14673
 11
-4.98077
 21
8.19508
  0
LINE
  8
0
 10
-4.98077
 20
8.19508
 11
-4.97002
 21
8.24297
  0
LINE
  8
0
 10
-4.97002
 20
8.24297
 11
-4.95694
 21
8.29028
  0
LINE
  8
0
 10
-4.95694
 20
8.29028
 11
-4.94154
 21
8.33688
  0
LINE
  8
0
 10
-4.94154
 20
8.33688
 11
-4.92387
 21
8.38268
  0
LINE
  8
0
 10
-4.92387
 20
8.38268
 11
-4.90398
 21
8.42755
  0
LINE
  8
0
 10
-4.90398
 20
8.42755
 11
-4.88191
 21
8.47139
  0
LINE
  8
0
 10
-4.88191
 20
8.47139
 11
-4.85773
 21
8.5141
  0
LINE
  8
0
 10
-4.85773
 20
8.5141
 11
-4.83147
 21
8.55556
  0
LINE
  8
0
 10
-4.83147
 20
8.55556
 11
-4.80321
 21
8.59569
  0
LINE
  8
0
 10
-4.80321
 20
8.59569
 11
-4.77301
 21
8.63438
  0
LINE
  8
0
 10
-4.77301
 20
8.63438
 11
-4.74094
 21
8.67155
  0
LINE
  8
0
 10
-4.74094
 20
8.67155
 11
-4.70709
 21
8.70709
  0
LINE
  8
0
 10
-4.70709
 20
8.70709
 11
-4.67155
 21
8.74094
  0
LINE
  8
0
 10
-4.67155
 20
8.74094
 11
-4.63438
 21
8.77301
  0
LINE
  8
0
 10
-4.63438
 20
8.77301
 11
-4.59569
 21
8.80321
  0
LINE
  8
0
 10
-4.59569
 20
8.80321
 11
-4.55556
 21
8.83147
  0
LINE
  8
0
 10
-4.55556
 20
8.83147
 11
-4.5141
 21
8.85773
  0
LINE
  8
0
 10
-4.5141
 20
8.85773
 11
-4.47139
 21
8.88191
  0
LINE
  8
0
 10
-4.47139
 20
8.88191
 11
-4.42755
 21
8.90398
  0
LINE
  8
0
 10
-4.42755
 20
8.90398
 11
-4.38268
 21
8.92387
  0
LINE
  8
0
 10
-4.38268
 20
8.92387
 11
-4.33688
 21
8.94154
  0
LINE
  8
0
 10
-4.33688
 20
8.94154
 11
-4.29028
 21
8.95694
  0
LINE
  8
0
 10
-4.29028
 20
8.95694
 11
-4.24297
 21
8.97002
  0
LINE
  8
0
 10
-4.24297
 20
8.97002
 11
-4.19508
 21
8.98077
  0
LINE
  8
0
 10
-4.19508
 20
8.98077
 11
-4.14673
 21
8.98917
  0
LINE
  8
0
 10
-4.14673
 20
8.98917
 11
-4.09801
 21
8.99518
  0
LINE
  8
0
 10
-4.09801
 20
8.99518
 11
-4.04906
 21
8.99879
  0
LINE
  8
0
 10
-4.04906
 20
8.99879
 11
-4
 21
9
  0
LINE
  8
0
 10
-4
 20
9
 11
-3.95093
 21
8.99879
  0
LINE
  8
0
 10
-3.95093
 20
8.99879
 11
-3.90198
 21
8.99518
  0
LINE
  8
0
 10
-3.90198
 20
8.99518
 11
-3.85326
 21
8.98917
  0
LINE
  8
0
 10
-3.85326
 20
8.98917
 11
-3.8049
 21
8.98077
  0
LINE
  8
0
 10
-3.8049
 20
8.98077
 11
-3.75702
 21
8.97002
  0
LINE
  8
0
 10
-3.75702
 20
8.97002
 11
-3.7097
 21
8.95694
  0
LINE
  8
0
 10
-3.7097
 20
8.95694
 11
-3.6631
 21
8.94154
  0
LINE
  8
0
 10
-3.6631
 20
8.94154
 11
-3.61731
 21
8.92387
  0
LINE
  8
0
 10
-3.61731
 20
8.92387
 11
-3.57243
 21
8.90398
  0
LINE
  8
0
 10
-3.57243
 20
8.90398
 11
-3.52859
 21
8.88191
  0
LINE
  8
0
 10
-3.52859
 20
8.88191
 11
-3.48589
 21
8.85773
  0
LINE
  8
0
 10
-3.48589
 20
8.85773
 11
-3.44443
 21
8.83147
  0
LINE
  8
0
 10
-3.44443
 20
8.83147
 11
-3.4043
 21
8.80321
  0
LINE
  8
0
 10
-3.4043
 20
8.80321
 11
-3.3656
 21
8.77301
  0
LINE
  8
0
 10
-3.3656
 20
8.77301
 11
-3.32843
 21
8.74094
  0
LINE
  8
0
 10
-3.32843
 20
8.74094
 11
-3.29289
 21
8.70709
  0
LINE
  8
0
 10
-3.29289
 20
8.70709
 11
-3.25905
 21
8.67155
  0
LINE
  8
0
 10
-3.25905
 20
8.67155
 11
-3.22697
 21
8.63438
  0
LINE
  8
0
 10
-3.22697
 20
8.63438
 11
-3.19678
 21
8.59569
  0
LINE
  8
0
 10
-3.19678
 20
8.59569
 11
-3.16852
 21
8.55556
  0
LINE
  8
0
 10
-3.16852
 20
8.55556
 11
-3.14226
 21
8.5141
  0
LINE
  8
0
 10
-3.14226
 20
8.5141
 11
-3.11807
 21
8.47139
  0
LINE
  8
0
 10
-3.11807
 20
8.47139
 11
-3.09601
 21
8.42755
  0
LINE
  8
0
 10
-3.09601
 20
8.42755
 11
-3.07611
 21
8.38268
  0
LINE
  8
0
 10
-3.07611
 20
8.38268
 11
-3.05844
 21
8.33688
  0
LINE
  8
0
 10
-3.05844
 20
8.33688
 11
-3.04305
 21
8.29028
  0
LINE
  8
0
 10
-3.04305
 20
8.29028
 11
-3.02997
 21
8.24297
  0
LINE
  8
0
 10
-3.02997
 20
8.24297
 11
-3.01921
 21
8.19508
  0
LINE
  8
0
 10
-3.01921
 20
8.19508
 11
-3.01082
 21
8.14673
  0
LINE
  8
0
 10
-3.01082
 20
8.14673
 11
-3.00481
 21
8.09801
  0
LINE
  8
0
 10
-3.00481
 20
8.09801
 11
-3.00119
 21
8.04906
  0
LINE
  8
0
 10
-3.00119
 20
8.04906
 11
-3
 21
8
  0
LINE
  8
0
 10
-3
 20
8
 11
-3.00119
 21
7.95093
  0
LINE
  8
0
 10
-3.00119
 20
7.95093
 11
-3.00481
 21
7.90198
  0
LINE
  8
0
 10
-3.00481
 20
7.90198
 11
-3.01082
 21
7.85326
  0
LINE
  8
0
 10
-3.01082
 20
7.85326
 11
-3.01921
 21
7.8049
  0
LINE
  8
0
 10
-3.01921
 20
7.8049
 11
-3.02997
 21
7.75702
  0
LINE
  8
0
 10
-3.02997
 20
7.75702
 11
-3.04305
 21
7.7097
  0
LINE
  8
0
 10
-3.04305
 20
7.7097
 11
-3.05844
 21
7.6631
  0
LINE
  8
0
 10
-3.05844
 20
7.6631
 11
-3.07611
 21
7.61731
  0
LINE
  8
0
 10
-3.07611
 20
7.61731
 11
-3.09601
 21
7.57243
  0
LINE
  8
0
 10
-3.09601
 20
7.57243
 11
-3.11807
 21
7.52859
  0
LINE
  8
0
 10
-3.11807
 20
7.52859
 11
-3.14226
 21
7.48589
  0
LINE
  8
0
 10
-3.14226
 20
7.48589
 11
-3.16852
 21
7.44443
  0
LINE
  8
0
 10
-3.16852
 20
7.44443
 11
-3.19678
 21
7.4043
  0
LINE
  8
0
 10
-3.19678
 20
7.4043
 11
-3.22697
 21
7.3656
  0
LINE
  8
0
 10
-3.22697
 20
7.3656
 11
-3.25905
 21
7.32843
  0
LINE
  8
0
 10
-3.25905
 20
7.32843
 11
-3.29289
 21
7.29289
  0
LINE
  8
0
 10
-3.29289
 20
7.29289
 11
-3.32843
 21
7.25905
  0
LINE
  8
0
 10
-3.32843
 20
7.25905
 11
-3.3656
 21
7.22697
  0
LINE
  8
0
 10
-3.3656
 20
7.22697
 11
-3.4043
 21
7.19678
  0
LINE
  8
0
 10
-3.4043
 20
7.19678
 11
-3.44443
 21
7.16852
  0
LINE
  8
0
 10
-3.44443
 20
7.16852
 11
-3.48589
 21
7.14226
  0
LINE
  8
0
 10
-3.48589
 20
7.14226
 11
-3.52859
 21
7.11807
  0
LINE
  8
0
 10
-3.52859
 20
7.11807
 11
-3.57243
 21
7.09601
  0
LINE
  8
0
 10
-3.57243
 20
7.09601
 11
-3.61731
 21
7.07611
  0
LINE
  8
0
 10
-3.61731
 20
7.07611
 11
-3.6631
 21
7.05844
  0
LINE
  8
0
 10
-3.6631
 20
7.05844
 11
-3.7097
 21
7.04305
  0
LINE
  8
0
 10
-3.7097
 20
7.04305
 11
-3.75702
 21
7.02997
  0
LINE
  8
0
 10
-3.75702
 20
7.02997
 11
-3.8049
 21
7.01921
  0
LINE
  8
0
 10
-3.8049
 20
7.01921
 11
-3.85326
 21
7.01082
  0
LINE
  8
0
 10
-3.85326
 20
7.01082
 11
-3.90198
 21
7.00481
  0
LINE
  8
0
 10
-3.90198
 20
7.00481
 11
-3.95093
 21
7.00119
  0
LINE
  8
0
 10
-3.95093
 20
7.00119
 11
-4
 21
7
  0
LINE
  8
0
 10
-4
 20
7
 11
-4.04906
 21
7.00119
  0
LINE
  8
0
 10
31.9509
 20
3.00119
 11
31.902
 21
3.00481
  0
LINE
  8
0
 10
31.902
 20
3.00481
 11
31.8533
 21
3.01082
  0
LINE
  8
0
 10
31.8533
 20
3.01082
 11
31.8049
 21
3.01921
  0
LINE
  8
0
 10
31.8049
 20
3.01921
 11
31.757
 21
3.02997
  0
LINE
  8
0
 10
31.757
 20
3.02997
 11
31.7097
 21
3.04305
  0
LINE
  8
0
 10
31.7097
 20
3.04305
 11
31.6631
 21
3.05844
  0
LINE
  8
0
 10
31.6631
 20
3.05844
 11
31.6173
 21
3.07611
  0
LINE
  8
0
 10
31.6173
 20
3.07611
 11
31.5724
 21
3.09601
  0
LINE
  8
0
 10
31.5724
 20
3.09601
 11
31.5286
 21
3.11807
  0
LINE
  8
0
 10
31.5286
 20
3.11807
 11
31.4859
 21
3.14226
  0
LINE
  8
0
 10
31.4859
 20
3.14226
 11
31.4444
 21
3.16852
  0
LINE
  8
0
 10
31.4444
 20
3.16852
 11
31.4043
 21
3.19678
  0
LINE
  8
0
 10
31.4043
 20
3.19678
 11
31.3656
 21
3.22697
  0
LINE
  8
0
 10
31.3656
 20
3.22697
 11
31.3284
 21
3.25905
  0
LINE
  8
0
 10
31.3284
 20
3.25905
 11
31.2929
 21
3.29289
  0
LINE
  8
0
 10
31.2929
 20
3.29289
 11
31.259
 21
3.32843
  0
LINE
  8
0
 10
31.259
 20
3.32843
 11
31.227
 21
3.3656
  0
LINE
  8
0
 10
31.227
 20
3.3656
 11
31.1968
 21
3.4043
  0
LINE
  8
0
 10
31.1968
 20
3.4043
 11
31.1685
 21
3.44443
  0
LINE
  8
0
 10
31.1685
 20
3.44443
 11
31.1423
 21
3.48589
  0
LINE
  8
0
 10
31.1423
 20
3.48589
 11
31.1181
 21
3.52859
  0
LINE
  8
0
 10
31.1181
 20
3.52859
 11
31.096
 21
3.57243
  0
LINE
  8
0
 10
31.096
 20
3.57243
 11
31.0761
 21
3.61731
  0
LINE
  8
0
 10
31.0761
 20
3.61731
 11
31.0585
 21
3.6631
  0
LINE
  8
0
 10
31.0585
 20
3.6631
 11
31.0431
 21
3.7097
  0
LINE
  8
0
 10
31.0431
 20
3.7097
 11
31.03
 21
3.75702
  0
LINE
  8
0
 10
31.03
 20
3.75702
 11
31.0192
 21
3.8049
  0
LINE
  8
0
 10
31.0192
 20
3.8049
 11
31.0108
 21
3.85326
  0
LINE
  8
0
 10
31.0108
 20
3.85326
 11
31.0048
 21
3.90198
  0
LINE
  8
0
 10
31.0048
 20
3.90198
 11
31.0012
 21
3.95093
  0
LINE
  8
0
 10
31.0012
 20
3.95093
 11
31
 21
4
  0
LINE
  8
0
 10
31
 20
4
 11
31.0012
 21
4.04906
  0
LINE
  8
0
 10
31.0012
 20
4.04906
 11
31.0048
 21
4.09801
  0
LINE
  8
0
 10
31.0048
 20
4.09801
 11
31.0108
 21
4.14673
  0
LINE
  8
0
 10
31.0108
 20
4.14673
 11
31.0192
 21
4.19508
  0
LINE
  8
0
 10
31.0192
 20
4.19508
 11
31.03
 21
4.24297
  0
LINE
  8
0
 10
31.03
 20
4.24297
 11
31.0431
 21
4.29028
  0
LINE
  8
0
 10
31.0431
 20
4.29028
 11
31.0585
 21
4.33688
  0
LINE
  8
0
 10
31.0585
 20
4.33688
 11
31.0761
 21
4.38268
  0
LINE
  8
0
 10
31.0761
 20
4.38268
 11
31.096
 21
4.42755
  0
LINE
  8
0
 10
31.096
 20
4.42755
 11
31.1181
 21
4.47139
  0
LINE
  8
0
 10
31.1181
 20
4.47139
 11
31.1423
 21
4.5141
  0
LINE
  8
0
 10
31.1423
 20
4.5141
 11
31.1685
 21
4.55556
  0
LINE
  8
0
 10
31.1685
 20
4.55556
 11
31.1968
 21
4.59569
  0
LINE
  8
0
 10
31.1968
 20
4.59569
 11
31.227
 21
4.63438
  0
LINE
  8
0
 10
31.227
 20
4.63438
 11
31.259
 21
4.67155
  0
LINE
  8
0
 10
31.259
 20
4.67155
 11
31.2929
 21
4.70709
  0
LINE
  8
0
 10
31.2929
 20
4.70709
 11
31.3284
 21
4.74094
  0
LINE
  8
0
 10
31.3284
 20
4.74094
 11
31.3656
 21
4.77301
  0
LINE
  8
0
 10
31.3656
 20
4.77301
 11
31.4043
 21
4.80321
  0
LINE
  8
0
 10
31.4043
 20
4.80321
 11
31.4444
 21
4.83147
  0
LINE
  8
0
 10
31.4444
 20
4.83147
 11
31.4859
 21
4.85773
  0
LINE
  8
0
 10
31.4859
 20
4.85773
 11
31.5286
 21
4.88191
  0
LINE
  8
0
 10
31.5286
 20
4.88191
 11
31.5724
 21
4.90398
  0
LINE
  8
0
 10
31.5724
 20
4.90398
 11
31.6173
 21
4.92387
  0
LINE
  8
0
 10
31.6173
 20
4.92387
 11
31.6631
 21
4.94154
  0
LINE
  8
0
 10
31.6631
 20
4.94154
 11
31.7097
 21
4.95694
  0
LINE
  8
0
 10
31.7097
 20
4.95694
 11
31.757
 21
4.97002
  0
LINE
  8
0
 10
31.757
 20
4.97002
 11
31.8049
 21
4.98077
  0
LINE
  8
0
 10
31.8049
 20
4.98077
 11
31.8533
 21
4.98917
  0
LINE
  8
0
 10
31.8533
 20
4.98917
 11
31.902
 21
4.99518
  0
LINE
  8
0
 10
31.902
 20
4.99518
 11
31.9509
 21
4.99879
  0
LINE
  8
0
 10
31.9509
 20
4.99879
 11
32
 21
5
  0
LINE
  8
0
 10
32
 20
5
 11
32.0491
 21
4.99879
  0
LINE
  8
0
 10
32.0491
 20
4.99879
 11
32.098
 21
4.99518
  0
LINE
  8
0
 10
32.098
 20
4.99518
 11
32.1467
 21
4.98917
  0
LINE
  8
0
 10
32.1467
 20
4.98917
 11
32.1951
 21
4.98077
  0
LINE
  8
0
 10
32.1951
 20
4.98077
 11
32.243
 21
4.97002
  0
LINE
  8
0
 10
32.243
 20
4.97002
 11
32.2903
 21
4.95694
  0
LINE
  8
0
 10
32.2903
 20
4.95694
 11
32.3369
 21
4.94154
  0
LINE
  8
0
 10
32.3369
 20
4.94154
 11
32.3827
 21
4.92387
  0
LINE
  8
0
 10
32.3827
 20
4.92387
 11
32.4276
 21
4.90398
  0
LINE
  8
0
 10
32.4276
 20
4.90398
 11
32.4714
 21
4.88191
  0
LINE
  8
0
 10
32.4714
 20
4.88191
 11
32.5141
 21
4.85773
  0
LINE
  8
0
 10
32.5141
 20
4.85773
 11
32.5556
 21
4.83147
  0
LINE
  8
0
 10
32.5556
 20
4.83147
 11
32.5957
 21
4.80321
  0
LINE
  8
0
 10
32.5957
 20
4.80321
 11
32.6344
 21
4.77301
  0
LINE
  8
0
 10
32.6344
 20
4.77301
 11
32.6716
 21
4.74094
  0
LINE
  8
0
 10
32.6716
 20
4.74094
 11
32.7071
 21
4.70709
  0
LINE
  8
0
 10
32.7071
 20
4.70709
 11
32.741
 21
4.67155
  0
LINE
  8
0
 10
32.741
 20
4.67155
 11
32.773
 21
4.63438
  0
LINE
  8
0
 10
32.773
 20
4.63438
 11
32.8032
 21
4.59569
  0
LINE
  8
0
 10
32.8032
 20
4.59569
 11
32.8315
 21
4.55556
  0
LINE
  8
0
 10
32.8315
 20
4.55556
 11
32.8577
 21
4.5141
  0
LINE
  8
0
 10
32.8577
 20
4.5141
 11
32.8819
 21
4.47139
  0
LINE
  8
0
 10
32.8819
 20
4.47139
 11
32.904
 21
4.42755
  0
LINE
  8
0
 10
32.904
 20
4.42755
 11
32.9239
 21
4.38268
  0
LINE
  8
0
 10
32.9239
 20
4.38268
 11
32.9415
 21
4.33688
  0
LINE
  8
0
 10
32.9415
 20
4.33688
 11
32.9569
 21
4.29028
  0
LINE
  8
0
 10
32.9569
 20
4.29028
 11
32.97
 21
4.24297
  0
LINE
  8
0
 10
32.97
 20
4.24297
 11
32.9808
 21
4.19508
  0
LINE
  8
0
 10
32.9808
 20
4.19508
 11
32.9892
 21
4.14673
  0
LINE
  8
0
 10
32.9892
 20
4.14673
 11
32.9952
 21
4.09801
  0
LINE
  8
0
 10
32.9952
 20
4.09801
 11
32.9988
 21
4.04906
  0
LINE
  8
0
 10
32.9988
 20
4.04906
 11
33
 21
4
  0
LINE
  8
0
 10
33
 20
4
 11
32.9988
 21
3.95093
  0
LINE
  8
0
 10
32.9988
 20
3.95093
 11
32.9952
 21
3.90198
  0
LINE
  8
0
 10
32.9952
 20
3.90198
 11
32.9892
 21
3.85326
  0
LINE
  8
0
 10
32.9892
 20
3.85326
 11
32.9808
 21
3.8049
  0
LINE
  8
0
 10
32.9808
 20
3.8049
 11
32.97
 21
3.75702
  0
LINE
  8
0
 10
32.97
 20
3.75702
 11
32.9569
 21
3.7097
  0
LINE
  8
0
 10
32.9569
 20
3.7097
 11
32.9415
 21
3.6631
  0
LINE
  8
0
 10
32.9415
 20
3.6631
 11
32.9239
 21
3.61731
  0
LINE
  8
0
 10
32.9239
 20
3.61731
 11
32.904
 21
3.57243
  0
LINE
  8
0
 10
32.904
 20
3.57243
 11
32.8819
 21
3.52859
  0
LINE
  8
0
 10
32.8819
 20
3.52859
 11
32.8577
 21
3.48589
  0
LINE
  8
0
 10
32.8577
 20
3.48589
 11
32.8315
 21
3.44443
  0
LINE
  8
0
 10
32.8315
 20
3.44443
 11
32.8032
 21
3.4043
  0
LINE
  8
0
 10
32.8032
 20
3.4043
 11
32.773
 21
3.3656
  0
LINE
  8
0
 10
32.773
 20
3.3656
 11
32.741
 21
3.32843
  0
LINE
  8
0
 10
32.741
 20
3.32843
 11
32.7071
 21
3.29289
  0
LINE
  8
0
 10
32.7071
 20
3.29289
 11
32.6716
 21
3.25905
  0
LINE
  8
0
 10
32.6716
 20
3.25905
 11
32.6344
 21
3.22697
  0
LINE
  8
0
 10
32.6344
 20
3.22697
 11
32.5957
 21
3.19678
  0
LINE
  8
0
 10
32.5957
 20
3.19678
 11
32.5556
 21
3.16852
  0
LINE
  8
0
 10
32.5556
 20
3.16852
 11
32.5141
 21
3.14226
  0
LINE
  8
0
 10
32.5141
 20
3.14226
 11
32.4714
 21
3.11807
  0
LINE
  8
0
 10
32.4714
 20
3.11807
 11
32.4276
 21
3.09601
  0
LINE
  8
0
 10
32.4276
 20
3.09601
 11
32.3827
 21
3.07611
  0
LINE
  8
0
 10
32.3827
 20
3.07611
 11
32.3369
 21
3.05844
  0
LINE
  8
0
 10
32.3369
 20
3.05844
 11
32.2903
 21
3.04305
  0
LINE
  8
0
 10
32.2903
 20
3.04305
 11
32.243
 21
3.02997
  0
LINE
  8
0
 10
32.243
 20
3.02997
 11
32.1951
 21
3.01921
  0
LINE
  8
0
 10
32.1951
 20
3.01921
 11
32.1467
 21
3.01082
  0
LINE
  8
0
 10
32.1467
 20
3.01082
 11
32.098
 21
3.00481
  0
LINE
  8
0
 10
32.098
 20
3.00481
 11
32.0491
 21
3.00119
  0
LINE
  8
0
 10
32.0491
 20
3.00119
 11
32
 21
3
  0
LINE
  8
0
 10
32
 20
3
 11
31.9509
 21
3.00119
  0
LINE
  8
0
 10
7.95093
 20
3.00119
 11
7.90198
 21
3.00481
  0
LINE
  8
0
 10
7.90198
 20
3.00481
 11
7.85326
 21
3.01082
  0
LINE
  8
0
 10
7.85326
 20
3.01082
 11
7.8049
 21
3.01921
  0
LINE
  8
0
 10
7.8049
 20
3.01921
 11
7.75702
 21
3.02997
  0
LINE
  8
0
 10
7.75702
 20
3.02997
 11
7.7097
 21
3.04305
  0
LINE
  8
0
 10
7.7097
 20
3.04305
 11
7.6631
 21
3.05844
  0
LINE
  8
0
 10
7.6631
 20
3.05844
 11
7.61731
 21
3.07611
  0
LINE
  8
0
 10
7.61731
 20
3.07611
 11
7.57243
 21
3.09601
  0
LINE
  8
0
 10
7.57243
 20
3.09601
 11
7.52859
 21
3.11807
  0
LINE
  8
0
 10
7.52859
 20
3.11807
 11
7.48589
 21
3.14226
  0
LINE
  8
0
 10
7.48589
 20
3.14226
 11
7.44443
 21
3.16852
  0
LINE
  8
0
 10
7.44443
 20
3.16852
 11
7.4043
 21
3.19678
  0
LINE
  8
0
 10
7.4043
 20
3.19678
 11
7.3656
 21
3.22697
  0
LINE
  8
0
 10
7.3656
 20
3.22697
 11
7.32843
 21
3.25905
  0
LINE
  8
0
 10
7.32843
 20
3.25905
 11
7.29289
 21
3.29289
  0
LINE
  8
0
 10
7.29289
 20
3.29289
 11
7.25905
 21
3.32843
  0
LINE
  8
0
 10
7.25905
 20
3.32843
 11
7.22697
 21
3.3656
  0
LINE
  8
0
 10
7.22697
 20
3.3656
 11
7.19678
 21
3.4043
  0
LINE
  8
0
 10
7.19678
 20
3.4043
 11
7.16852
 21
3.44443
  0
LINE
  8
0
 10
7.16852
 20
3.44443
 11
7.14226
 21
3.48589
  0
LINE
  8
0
 10
7.14226
 20
3.48589
 11
7.11807
 21
3.52859
  0
LINE
  8
0
 10
7.11807
 20
3.52859
 11
7.09601
 21
3.57243
  0
LINE
  8
0
 10
7.09601
 20
3.57243
 11
7.07611
 21
3.61731
  0
LINE
  8
0
 10
7.07611
 20
3.61731
 11
7.05844
 21
3.6631
  0
LINE
  8
0
 10
7.05844
 20
3.6631
 11
7.04305
 21
3.7097
  0
LINE
  8
0
 10
7.04305
 20
3.7097
 11
7.02997
 21
3.75702
  0
LINE
  8
0
 10
7.02997
 20
3.75702
 11
7.01921
 21
3.8049
  0
LINE
  8
0
 10
7.01921
 20
3.8049
 11
7.01082
 21
3.85326
  0
LINE
  8
0
 10
7.01082
 20
3.85326
 11
7.00481
 21
3.90198
  0
LINE
  8
0
 10
7.00481
 20
3.90198
 11
7.00119
 21
3.95093
  0
LINE
  8
0
 10
7.00119
 20
3.95093
 11
7
 21
4
  0
LINE
  8
0
 10
7
 20
4
 11
7.00119
 21
4.04906
  0
LINE
  8
0
 10
7.00119
 20
4.04906
 11
7.00481
 21
4.09801
  0
LINE
  8
0
 10
7.00481
 20
4.09801
 11
7.01082
 21
4.14673
  0
LINE
  8
0
 10
7.01082
 20
4.14673
 11
7.01921
 21
4.19508
  0
LINE
  8
0
 10
7.01921
 20
4.19508
 11
7.02997
 21
4.24297
  0
LINE
  8
0
 10
7.02997
 20
4.24297
 11
7.04305
 21
4.29028
  0
LINE
  8
0
 10
7.04305
 20
4.29028
 11
7.05844
 21
4.33688
  0
LINE
  8
0
 10
7.05844
 20
4.33688
 11
7.07611
 21
4.38268
  0
LINE
  8
0
 10
7.07611
 20
4.38268
 11
7.09601
 21
4.42755
  0
LINE
  8
0
 10
7.09601
 20
4.42755
 11
7.11807
 21
4.47139
  0
LINE
  8
0
 10
7.11807
 20
4.47139
 11
7.14226
 21
4.5141
  0
LINE
  8
0
 10
7.14226
 20
4.5141
 11
7.16852
 21
4.55556
  0
LINE
  8
0
 10
7.16852
 20
4.55556
 11
7.19678
 21
4.59569
  0
LINE
  8
0
 10
7.19678
 20
4.59569
 11
7.22697
 21
4.63438
  0
LINE
  8
0
 10
7.22697
 20
4.63438
 11
7.25905
 21
4.67155
  0
LINE
  8
0
 10
7.25905
 20
4.67155
 11
7.29289
 21
4.70709
  0
LINE
  8
0
 10
7.29289
 20
4.70709
 11
7.32843
 21
4.74094
  0
LINE
  8
0
 10
7.32843
 20
4.74094
 11
7.3656
 21
4.77301
  0
LINE
  8
0
 10
7.3656
 20
4.77301
 11
7.4043
 21
4.80321
  0
LINE
  8
0
 10
7.4043
 20
4.80321
 11
7.44443
 21
4.83147
  0
LINE
  8
0
 10
7.44443
 20
4.83147
 11
7.48589
 21
4.85773
  0
LINE
  8
0
 10
7.48589
 20
4.85773
 11
7.52859
 21
4.88191
  0
LINE
  8
0
 10
7.52859
 20
4.88191
 11
7.57243
 21
4.90398
  0
LINE
  8
0
 10
7.57243
 20
4.90398
 11
7.61731
 21
4.92387
  0
LINE
  8
0
 10
7.61731
 20
4.92387
 11
7.6631
 21
4.94154
  0
LINE
  8
0
 10
7.6631
 20
4.94154
 11
7.7097
 21
4.95694
  0
LINE
  8
0
 10
7.7097
 20
4.95694
 11
7.75702
 21
4.97002
  0
LINE
  8
0
 10
7.75702
 20
4.97002
 11
7.8049
 21
4.98077
  0
LINE
  8
0
 10
7.8049
 20
4.98077
 11
7.85326
 21
4.98917
  0
LINE
  8
0
 10
7.85326
 20
4.98917
 11
7.90198
 21
4.99518
  0
LINE
  8
0
 10
7.90198
 20
4.99518
 11
7.95093
 21
4.99879
  0
LINE
  8
0
 10
7.95093
 20
4.99879
 11
8
 21
5
  0
LINE
  8
0
 10
8
 20
5
 11
8.04906
 21
4.99879
  0
LINE
  8
0
 10
8.04906
 20
4.99879
 11
8.09801
 21
4.99518
  0
LINE
  8
0
 10
8.09801
 20
4.99518
 11
8.14673
 21
4.98917
  0
LINE
  8
0
 10
8.14673
 20
4.98917
 11
8.19508
 21
4.98077
  0
LINE
  8
0
 10
8.19508
 20
4.98077
 11
8.24297
 21
4.97002
  0
LINE
  8
0
 10
8.24297
 20
4.97002
 11
8.29028
 21
4.95694
  0
LINE
  8
0
 10
8.29028
 20
4.95694
 11
8.33688
 21
4.94154
  0
LINE
  8
0
 10
8.33688
 20
4.94154
 11
8.38268
 21
4.92387
  0
LINE
  8
0
 10
8.38268
 20
4.92387
 11
8.42755
 21
4.90398
  0
LINE
  8
0
 10
8.42755
 20
4.90398
 11
8.47139
 21
4.88191
  0
LINE
  8
0
 10
8.47139
 20
4.88191
 11
8.5141
 21
4.85773
  0
LINE
  8
0
 10
8.5141
 20
4.85773
 11
8.55556
 21
4.83147
  0
LINE
  8
0
 10
8.55556
 20
4.83147
 11
8.59569
 21
4.80321
  0
LINE
  8
0
 10
8.59569
 20
4.80321
 11
8.63438
 21
4.77301
  0
LINE
  8
0
 10
8.63438
 20
4.77301
 11
8.67155
 21
4.74094
  0
LINE
  8
0
 10
8.67155
 20
4.74094
 11
8.70709
 21
4.70709
  0
LINE
  8
0
 10
8.70709
 20
4.70709
 11
8.74094
 21
4.67155
  0
LINE
  8
0
 10
8.74094
 20
4.67155
 11
8.77301
 21
4.63438
  0
LINE
  8
0
 10
8.77301
 20
4.63438
 11
8.80321
 21
4.59569
  0
LINE
  8
0
 10
8.80321
 20
4.59569
 11
8.83147
 21
4.55556
  0
LINE
  8
0
 10
8.83147
 20
4.55556
 11
8.85773
 21
4.5141
  0
LINE
  8
0
 10
8.85773
 20
4.5141
 11
8.88191
 21
4.47139
  0
LINE
  8
0
 10
8.88191
 20
4.47139
 11
8.90398
 21
4.42755
  0
LINE
  8
0
 10
8.90398
 20
4.42755
 11
8.92387
 21
4.38268
  0
LINE
  8
0
 10
8.92387
 20
4.38268
 11
8.94154
 21
4.33688
  0
LINE
  8
0
 10
8.94154
 20
4.33688
 11
8.95694
 21
4.29028
  0
LINE
  8
0
 10
8.95694
 20
4.29028
 11
8.97002
 21
4.24297
  0
LINE
  8
0
 10
8.97002
 20
4.24297
 11
8.98077
 21
4.19508
  0
LINE
  8
0
 10
8.98077
 20
4.19508
 11
8.98917
 21
4.14673
  0
LINE
  8
0
 10
8.98917
 20
4.14673
 11
8.99518
 21
4.09801
  0
LINE
  8
0
 10
8.99518
 20
4.09801
 11
8.99879
 21
4.04906
  0
LINE
  8
0
 10
8.99879
 20
4.04906
 11
9
 21
4
  0
LINE
  8
0
 10
9
 20
4
 11
8.99879
 21
3.95093
  0
LINE
  8
0
 10
8.99879
 20
3.95093
 11
8.99518
 21
3.90198
  0
LINE
  8
0
 10
8.99518
 20
3.90198
 11
8.98917
 21
3.85326
  0
LINE
  8
0
 10
8.98917
 20
3.85326
 11
8.98077
 21
3.8049
  0
LINE
  8
0
 10
8.98077
 20
3.8049
 11
8.97002
 21
3.75702
  0
LINE
  8
0
 10
8.97002
 20
3.75702
 11
8.95694
 21
3.7097
  0
LINE
  8
0
 10
8.95694
 20
3.7097
 11
8.94154
 21
3.6631
  0
LINE
  8
0
 10
8.94154
 20
3.6631
 11
8.92387
 21
3.61731
  0
LINE
  8
0
 10
8.92387
 20
3.61731
 11
8.90398
 21
3.57243
  0
LINE
  8
0
 10
8.90398
 20
3.57243
 11
8.88191
 21
3.52859
  0
LINE
  8
0
 10
8.88191
 20
3.52859
 11
8.85773
 21
3.48589
  0
LINE
  8
0
 10
8.85773
 20
3.48589
 11
8.83147
 21
3.44443
  0
LINE
  8
0
 10
8.83147
 20
3.44443
 11
8.80321
 21
3.4043
  0
LINE
  8
0
 10
8.80321
 20
3.4043
 11
8.77301
 21
3.3656
  0
LINE
  8
0
 10
8.77301
 20
3.3656
 11
8.74094
 21
3.32843
  0
LINE
  8
0
 10
8.74094
 20
3.32843
 11
8.70709
 21
3.29289
  0
LINE
  8
0
 10
8.70709
 20
3.29289
 11
8.67155
 21
3.25905
  0
LINE
  8
0
 10
8.67155
 20
3.25905
 11
8.63438
 21
3.22697
  0
LINE
  8
0
 10
8.63438
 20
3.22697
 11
8.59569
 21
3.19678
  0
LINE
  8
0
 10
8.59569
 20
3.19678
 11
8.55556
 21
3.16852
  0
LINE
  8
0
 10
8.55556
 20
3.16852
 11
8.5141
 21
3.14226
  0
LINE
  8
0
 10
8.5141
 20
3.14226
 11
8.47139
 21
3.11807
  0
LINE
  8
0
 10
8.47139
 20
3.11807
 11
8.42755
 21
3.09601
  0
LINE
  8
0
 10
8.42755
 20
3.09601
 11
8.38268
 21
3.07611
  0
LINE
  8
0
 10
8.38268
 20
3.07611
 11
8.33688
 21
3.05844
  0
LINE
  8
0
 10
8.33688
 20
3.05844
 11
8.29028
 21
3.04305
  0
LINE
  8
0
 10
8.29028
 20
3.04305
 11
8.24297
 21
3.02997
  0
LINE
  8
0
 10
8.24297
 20
3.02997
 11
8.19508
 21
3.01921
  0
LINE
  8
0
 10
8.19508
 20
3.01921
 11
8.14673
 21
3.01082
  0
LINE
  8
0
 10
8.14673
 20
3.01082
 11
8.09801
 21
3.00481
  0
LINE
  8
0
 10
8.09801
 20
3.00481
 11
8.04906
 21
3.00119
  0
LINE
  8
0
 10
8.04906
 20
3.00119
 11
8
 21
3
  0
LINE
  8
0
 10
8
 20
3
 11
7.95093
 21
3.00119
  0
LINE
  8
0
 10
-8.04906
 20
-4.99879
 11
-8.09801
 21
-4.99518
  0
LINE
  8
0
 10
-8.09801
 20
-4.99518
 11
-8.14673
 21
-4.98917
  0
LINE
  8
0
 10
-8.14673
 20
-4.98917
 11
-8.19508
 21
-4.98077
  0
LINE
  8
0
 10
-8.19508
 20
-4.98077
 11
-8.24297
 21
-4.97002
  0
LINE
  8
0
 10
-8.24297
 20
-4.97002
 11
-8.29028
 21
-4.95694
  0
LINE
  8
0
 10
-8.29028
 20
-4.95694
 11
-8.33688
 21
-4.94154
  0
LINE
  8
0
 10
-8.33688
 20
-4.94154
 11
-8.38268
 21
-4.92387
  0
LINE
  8
0
 10
-8.38268
 20
-4.92387
 11
-8.42755
 21
-4.90398
  0
LINE
  8
0
 10
-8.42755
 20
-4.90398
 11
-8.47139
 21
-4.88191
  0
LINE
  8
0
 10
-8.47139
 20
-4.88191
 11
-8.5141
 21
-4.85773
  0
LINE
  8
0
 10
-8.5141
 20
-4.85773
 11
-8.55556
 21
-4.83147
  0
LINE
  8
0
 10
-8.55556
 20
-4.83147
 11
-8.59569
 21
-4.80321
  0
LINE
  8
0
 10
-8.59569
 20
-4.80321
 11
-8.63438
 21
-4.77301
  0
LINE
  8
0
 10
-8.63438
 20
-4.77301
 11
-8.67155
 21
-4.74094
  0
LINE
  8
0
 10
-8.67155
 20
-4.74094
 11
-8.70709
 21
-4.70709
  0
LINE
  8
0
 10
-8.70709
 20
-4.70709
 11
-8.74094
 21
-4.67155
  0
LINE
  8
0
 10
-8.74094
 20
-4.67155
 11
-8.77301
 21
-4.63438
  0
LINE
  8
0
 10
-8.77301
 20
-4.63438
 11
-8.80321
 21
-4.59569
  0
LINE
  8
0
 10
-8.80321
 20
-4.59569
 11
-8.83147
 21
-4.55556
  0
LINE
  8
0
 10
-8.83147
 20
-4.55556
 11
-8.85773
 21
-4.5141
  0
LINE
  8
0
 10
-8.85773
 20
-4.5141
 11
-8.88191
 21
-4.47139
  0
LINE
  8
0
 10
-8.88191
 20
-4.47139
 11
-8.90398
 21
-4.42755
  0
LINE
  8
0
 10
-8.90398
 20
-4.42755
 11
-8.92387
 21
-4.38268
  0
LINE
  8
0
 10
-8.92387
 20
-4.38268
 11
-8.94154
 21
-4.33688
  0
LINE
  8
0
 10
-8.94154
 20
-4.33688
 11
-8.95694
 21
-4.29028
  0
LINE
  8
0
 10
-8.95694
 20
-4.29028
 11
-8.97002
 21
-4.24297
  0
LINE
  8
0
 10
-8.97002
 20
-4.24297
 11
-8.98077
 21
-4.19508
  0
LINE
  8
0
 10
-8.98077
 20
-4.19508
 11
-8.98917
 21
-4.14673
  0
LINE
  8
0
 10
-8.98917
 20
-4.14673
 11
-8.99518
 21
-4.09801
  0
LINE
  8
0
 10
-8.99518
 20
-4.09801
 11
-8.99879
 21
-4.04906
  0
LINE
  8
0
 10
-8.99879
 20
-4.04906
 11
-9
 21
-4
  0
LINE
  8
0
 10
-9
 20
-4
 11
-8.99879
 21
-3.95093
  0
LINE
  8
0
 10
-8.99879
 20
-3.95093
 11
-8.99518
 21
-3.90198
  0
LINE
  8
0
 10
-8.99518
 20
-3.90198
 11
-8.98917
 21
-3.85326
  0
LINE
  8
0
 10
-8.98917
 20
-3.85326
 11
-8.98077
 21
-3.8049
  0
LINE
  8
0
 10
-8.98077
 20
-3.8049
 11
-8.97002
 21
-3.75702
  0
LINE
  8
0
 10
-8.97002
 20
-3.75702
 11
-8.95694
 21
-3.7097
  0
LINE
  8
0
 10
-8.95694
 20
-3.7097
 11
-8.94154
 21
-3.6631
  0
LINE
  8
0
 10
-8.94154
 20
-3.6631
 11
-8.92387
 21
-3.61731
  0
LINE
  8
0
 10
-8.92387
 20
-3.61731
 11
-8.90398
 21
-3.57243
  0
LINE
  8
0
 10
-8.90398
 20
-3.57243
 11
-8.88191
 21
-3.52859
  0
LINE
  8
0
 10
-8.88191
 20
-3.52859
 11
-8.85773
 21
-3.48589
  0
LINE
  8
0
 10
-8.85773
 20
-3.48589
 11
-8.83147
 21
-3.44443
  0
LINE
  8
0
 10
-8.83147
 20
-3.44443
 11
-8.80321
 21
-3.4043
  0
LINE
  8
0
 10
-8.80321
 20
-3.4043
 11
-8.77301
 21
-3.3656
  0
LINE
  8
0
 10
-8.77301
 20
-3.3656
 11
-8.74094
 21
-3.32843
  0
LINE
  8
0
 10
-8.74094
 20
-3.32843
 11
-8.70709
 21
-3.29289
  0
LINE
  8
0
 10
-8.70709
 20
-3.29289
 11
-8.67155
 21
-3.25905
  0
LINE
  8
0
 10
-8.67155
 20
-3.25905
 11
-8.63438
 21
-3.22697
  0
LINE
  8
0
 10
-8.63438
 20
-3.22697
 11
-8.59569
 21
-3.19678
  0
LINE
  8
0
 10
-8.59569
 20
-3.19678
 11
-8.55556
 21
-3.16852
  0
LINE
  8
0
 10
-8.55556
 20
-3.16852
 11
-8.5141
 21
-3.14226
  0
LINE
  8
0
 10
-8.5141
 20
-3.14226
 11
-8.47139
 21
-3.11807
  0
LINE
  8
0
 10
-8.47139
 20
-3.11807
 11
-8.42755
 21
-3.09601
  0
LINE
  8
0
 10
-8.42755
 20
-3.09601
 11
-8.38268
 21
-3.07611
  0
LINE
  8
0
 10
-8.38268
 20
-3.07611
 11
-8.33688
 21
-3.05844
  0
LINE
  8
0
 10
-8.33688
 20
-3.05844
 11
-8.29028
 21
-3.04305
  0
LINE
  8
0
 10
-8.29028
 20
-3.04305
 11
-8.24297
 21
-3.02997
  0
LINE
  8
0
 10
-8.24297
 20
-3.02997
 11
-8.19508
 21
-3.01921
  0
LINE
  8
0
 10
-8.19508
 20
-3.01921
 11
-8.14673
 21
-3.01082
  0
LINE
  8
0
 10
-8.14673
 20
-3.01082
 11
-8.09801
 21
-3.00481
  0
LINE
  8
0
 10
-8.09801
 20
-3.00481
 11
-8.04906
 21
-3.00119
  0
LINE
  8
0
 10
-8.04906
 20
-3.00119
 11
-8
 21
-3
  0
LINE
  8
0
 10
-8
 20
-3
 11
-7.95093
 21
-3.00119
  0
LINE
  8
0
 10
-7.95093
 20
-3.00119
 11
-7.90198
 21
-3.00481
  0
LINE
  8
0
 10
-7.90198
 20
-3.00481
 11
-7.85326
 21
-3.01082
  0
LINE
  8
0
 10
-7.85326
 20
-3.01082
 11
-7.8049
 21
-3.01921
  0
LINE
  8
0
 10
-7.8049
 20
-3.01921
 11
-7.75702
 21
-3.02997
  0
LINE
  8
0
 10
-7.75702
 20
-3.02997
 11
-7.7097
 21
-3.04305
  0
LINE
  8
0
 10
-7.7097
 20
-3.04305
 11
-7.6631
 21
-3.05844
  0
LINE
  8
0
 10
-7.6631
 20
-3.05844
 11
-7.61731
 21
-3.07611
  0
LINE
  8
0
 10
-7.61731
 20
-3.07611
 11
-7.57243
 21
-3.09601
  0
LINE
  8
0
 10
-7.57243
 20
-3.09601
 11
-7.52859
 21
-3.11807
  0
LINE
  8
0
 10
-7.52859
 20
-3.11807
 11
-7.48589
 21
-3.14226
  0
LINE
  8
0
 10
-7.48589
 20
-3.14226
 11
-7.44443
 21
-3.16852
  0
LINE
  8
0
 10
-7.44443
 20
-3.16852
 11
-7.4043
 21
-3.19678
  0
LINE
  8
0
 10
-7.4043
 20
-3.19678
 11
-7.3656
 21
-3.22697
  0
LINE
  8
0
 10
-7.3656
 20
-3.22697
 11
-7.32843
 21
-3.25905
  0
LINE
  8
0
 10
-7.32843
 20
-3.25905
 11
-7.29289
 21
-3.29289
  0
LINE
  8
0
 10
-7.29289
 20
-3.29289
 11
-7.25905
 21
-3.32843
  0
LINE
  8
0
 10
-7.25905
 20
-3.32843
 11
-7.22697
 21
-3.3656
  0
LINE
  8
0
 10
-7.22697
 20
-3.3656
 11
-7.19678
 21
-3.4043
  0
LINE
  8
0
 10
-7.19678
 20
-3.4043
 11
-7.16852
 21
-3.44443
  0
LINE
  8
0
 10
-7.16852
 20
-3.44443
 11
-7.14226
 21
-3.48589
  0
LINE
  8
0
 10
-7.14226
 20
-3.48589
 11
-7.11807
 21
-3.52859
  0
LINE
  8
0
 10
-7.11807
 20
-3.52859
 11
-7.09601
 21
-3.57243
  0
LINE
  8
0
 10
-7.09601
 20
-3.57243
 11
-7.07611
 21
-3.61731
  0
LINE
  8
0
 10
-7.07611
 20
-3.61731
 11
-7.05844
 21
-3.6631
  0
LINE
  8
0
 10
-7.05844
 20
-3.6631
 11
-7.04305
 21
-3.7097
  0
LINE
  8
0
 10
-7.04305
 20
-3.7097
 11
-7.02997
 21
-3.75702
  0
LINE
  8
0
 10
-7.02997
 20
-3.75702
 11
-7.01921
 21
-3.8049
  0
LINE
  8
0
 10
-7.01921
 20
-3.8049
 11
-7.01082
 21
-3.85326
  0
LINE
  8
0
 10
-7.01082
 20
-3.85326
 11
-7.00481
 21
-3.90198
  0
LINE
  8
0
 10
-7.00481
 20
-3.90198
 11
-7.00119
 21
-3.95093
  0
LINE
  8
0
 10
-7.00119
 20
-3.95093
 11
-7
 21
-4
  0
LINE
  8
0
 10
-7
 20
-4
 11
-7.00119
 21
-4.04906
  0
LINE
  8
0
 10
-7.00119
 20
-4.04906
 11
-7.00481
 21
-4.09801
  0
LINE
  8
0
 10
-7.00481
 20
-4.09801
 11
-7.01082
 21
-4.14673
  0
LINE
  8
0
 10
-7.01082
 20
-4.14673
 11
-7.01921
 21
-4.19508
  0
LINE
  8
0
 10
-7.01921
 20
-4.19508
 11
-7.02997
 21
-4.24297
  0
LINE
  8
0
 10
-7.02997
 20
-4.24297
 11
-7.04305
 21
-4.29028
  0
LINE
  8
0
 10
-7.04305
 20
-4.29028
 11
-7.05844
 21
-4.33688
  0
LINE
  8
0
 10
-7.05844
 20
-4.33688
 11
-7.07611
 21
-4.38268
  0
LINE
  8
0
 10
-7.07611
 20
-4.38268
 11
-7.09601
 21
-4.42755
  0
LINE
  8
0
 10
-7.09601
 20
-4.42755
 11
-7.11807
 21
-4.47139
  0
LINE
  8
0
 10
-7.11807
 20
-4.47139
 11
-7.14226
 21
-4.5141
  0
LINE
  8
0
 10
-7.14226
 20
-4.5141
 11
-7.16852
 21
-4.55556
  0
LINE
  8
0
 10
-7.16852
 20
-4.55556
 11
-7.19678
 21
-4.59569
  0
LINE
  8
0
 10
-7.19678
 20
-4.59569
 11
-7.22697
 21
-4.63438
  0
LINE
  8
0
 10
-7.22697
 20
-4.63438
 11
-7.25905
 21
-4.67155
  0
LINE
  8
0
 10
-7.25905
 20
-4.67155
 11
-7.29289
 21
-4.70709
  0
LINE
  8
0
 10
-7.29289
 20
-4.70709
 11
-7.32843
 21
-4.74094
  0
LINE
  8
0
 10
-7.32843
 20
-4.74094
 11
-7.3656
 21
-4.77301
  0
LINE
  8
0
 10
-7.3656
 20
-4.77301
 11
-7.4043
 21
-4.80321
  0
LINE
  8
0
 10
-7.4043
 20
-4.80321
 11
-7.44443
 21
-4.83147
  0
LINE
  8
0
 10
-7.44443
 20
-4.83147
 11
-7.48589
 21
-4.85773
  0
LINE
  8
0
 10
-7.48589
 20
-4.85773
 11
-7.52859
 21
-4.88191
  0
LINE
  8
0
 10
-7.52859
 20
-4.88191
 11
-7.57243
 21
-4.90398
  0
LINE
  8
0
 10
-7.57243
 20
-4.90398
 11
-7.61731
 21
-4.92387
  0
LINE
  8
0
 10
-7.61731
 20
-4.92387
 11
-7.6631
 21
-4.94154
  0
LINE
  8
0
 10
-7.6631
 20
-4.94154
 11
-7.7097
 21
-4.95694
  0
LINE
  8
0
 10
-7.7097
 20
-4.95694
 11
-7.75702
 21
-4.97002
  0
LINE
  8
0
 10
-7.75702
 20
-4.97002
 11
-7.8049
 21
-4.98077
  0
LINE
  8
0
 10
-7.8049
 20
-4.98077
 11
-7.85326
 21
-4.98917
  0
LINE
  8
0
 10
-7.85326
 20
-4.98917
 11
-7.90198
 21
-4.99518
  0
LINE
  8
0
 10
-7.90198
 20
-4.99518
 11
-7.95093
 21
-4.99879
  0
LINE
  8
0
 10
-7.95093
 20
-4.99879
 11
-8
 21
-5
  0
LINE
  8
0
 10
-8
 20
-5
 11
-8.04906
 21
-4.99879
  0
LINE
  8
0
 10
15.9509
 20
-4.99879
 11
15.902
 21
-4.99518
  0
LINE
  8
0
 10
15.902
 20
-4.99518
 11
15.8533
 21
-4.98917
  0
LINE
  8
0
 10
15.8533
 20
-4.98917
 11
15.8049
 21
-4.98077
  0
LINE
  8
0
 10
15.8049
 20
-4.98077
 11
15.757
 21
-4.97002
  0
LINE
  8
0
 10
15.757
 20
-4.97002
 11
15.7097
 21
-4.95694
  0
LINE
  8
0
 10
15.7097
 20
-4.95694
 11
15.6631
 21
-4.94154
  0
LINE
  8
0
 10
15.6631
 20
-4.94154
 11
15.6173
 21
-4.92387
  0
LINE
  8
0
 10
15.6173
 20
-4.92387
 11
15.5724
 21
-4.90398
  0
LINE
  8
0
 10
15.5724
 20
-4.90398
 11
15.5286
 21
-4.88191
  0
LINE
  8
0
 10
15.5286
 20
-4.88191
 11
15.4859
 21
-4.85773
  0
LINE
  8
0
 10
15.4859
 20
-4.85773
 11
15.4444
 21
-4.83147
  0
LINE
  8
0
 10
15.4444
 20
-4.83147
 11
15.4043
 21
-4.80321
  0
LINE
  8
0
 10
15.4043
 20
-4.80321
 11
15.3656
 21
-4.77301
  0
LINE
  8
0
 10
15.3656
 20
-4.77301
 11
15.3284
 21
-4.74094
  0
LINE
  8
0
 10
15.3284
 20
-4.74094
 11
15.2929
 21
-4.70709
  0
LINE
  8
0
 10
15.2929
 20
-4.70709
 11
15.259
 21
-4.67155
  0
LINE
  8
0
 10
15.259
 20
-4.67155
 11
15.227
 21
-4.63438
  0
LINE
  8
0
 10
15.227
 20
-4.63438
 11
15.1968
 21
-4.59569
  0
LINE
  8
0
 10
15.1968
 20
-4.59569
 11
15.1685
 21
-4.55556
  0
LINE
  8
0
 10
15.1685
 20
-4.55556
 11
15.1423
 21
-4.5141
  0
LINE
  8
0
 10
15.1423
 20
-4.5141
 11
15.1181
 21
-4.47139
  0
LINE
  8
0
 10
15.1181
 20
-4.47139
 11
15.096
 21
-4.42755
  0
LINE
  8
0
 10
15.096
 20
-4.42755
 11
15.0761
 21
-4.38268
  0
LINE
  8
0
 10
15.0761
 20
-4.38268
 11
15.0585
 21
-4.33688
  0
LINE
  8
0
 10
15.0585
 20
-4.33688
 11
15.0431
 21
-4.29028
  0
LINE
  8
0
 10
15.0431
 20
-4.29028
 11
15.03
 21
-4.24297
  0
LINE
  8
0
 10
15.03
 20
-4.24297
 11
15.0192
 21
-4.19508
  0
LINE
  8
0
 10
15.0192
 20
-4.19508
 11
15.0108
 21
-4.14673
  0
LINE
  8
0
 10
15.0108
 20
-4.14673
 11
15.0048
 21
-4.09801
  0
LINE
  8
0
 10
15.0048
 20
-4.09801
 11
15.0012
 21
-4.04906
  0
LINE
  8
0
 10
15.0012
 20
-4.04906
 11
15
 21
-4
  0
LINE
  8
0
 10
15
 20
-4
 11
15.0012
 21
-3.95093
  0
LINE
  8
0
 10
15.0012
 20
-3.95093
 11
15.0048
 21
-3.90198
  0
LINE
  8
0
 10
15.0048
 20
-3.90198
 11
15.0108
 21
-3.85326
  0
LINE
  8
0
 10
15.0108
 20
-3.85326
 11
15.0192
 21
-3.8049
  0
LINE
  8
0
 10
15.0192
 20
-3.8049
 11
15.03
 21
-3.75702
  0
LINE
  8
0
 10
15.03
 20
-3.75702
 11
15.0431
 21
-3.7097
  0
LINE
  8
0
 10
15.0431
 20
-3.7097
 11
15.0585
 21
-3.6631
  0
LINE
  8
0
 10
15.0585
 20
-3.6631
 11
15.0761
 21
-3.61731
  0
LINE
  8
0
 10
15.0761
 20
-3.61731
 11
15.096
 21
-3.57243
  0
LINE
  8
0
 10
15.096
 20
-3.57243
 11
15.1181
 21
-3.52859
  0
LINE
  8
0
 10
15.1181
 20
-3.52859
 11
15.1423
 21
-3.48589
  0
LINE
  8
0
 10
15.1423
 20
-3.48589
 11
15.1685
 21
-3.44443
  0
LINE
  8
0
 10
15.1685
 20
-3.44443
 11
15.1968
 21
-3.4043
  0
LINE
  8
0
 10
15.1968
 20
-3.4043
 11
15.227
 21
-3.3656
  0
LINE
  8
0
 10
15.227
 20
-3.3656
 11
15.259
 21
-3.32843
  0
LINE
  8
0
 10
15.259
 20
-3.32843
 11
15.2929
 21
-3.29289
  0
LINE
  8
0
 10
15.2929
 20
-3.29289
 11
15.3284
 21
-3.25905
  0
LINE
  8
0
 10
15.3284
 20
-3.25905
 11
15.3656
 21
-3.22697
  0
LINE
  8
0
 10
15.3656
 20
-3.22697
 11
15.4043
 21
-3.19678
  0
LINE
  8
0
 10
15.4043
 20
-3.19678
 11
15.4444
 21
-3.16852
  0
LINE
  8
0
 10
15.4444
 20
-3.16852
 11
15.4859
 21
-3.14226
  0
LINE
  8
0
 10
15.4859
 20
-3.14226
 11
15.5286
 21
-3.11807
  0
LINE
  8
0
 10
15.5286
 20
-3.11807
 11
15.5724
 21
-3.09601
  0
LINE
  8
0
 10
15.5724
 20
-3.09601
 11
15.6173
 21
-3.07611
  0
LINE
  8
0
 10
15.6173
 20
-3.07611
 11
15.6631
 21
-3.05844
  0
LINE
  8
0
 10
15.6631
 20
-3.05844
 11
15.7097
 21
-3.04305
  0
LINE
  8
0
 10
15.7097
 20
-3.04305
 11
15.757
 21
-3.02997
  0
LINE
  8
0
 10
15.757
 20
-3.02997
 11
15.8049
 21
-3.01921
  0
LINE
  8
0
 10
15.8049
 20
-3.01921
 11
15.8533
 21
-3.01082
  0
LINE
  8
0
 10
15.8533
 20
-3.01082
 11
15.902
 21
-3.00481
  0
LINE
  8
0
 10
15.902
 20
-3.00481
 11
15.9509
 21
-3.00119
  0
LINE
  8
0
 10
15.9509
 20
-3.00119
 11
16
 21
-3
  0
LINE
  8
0
 10
16
 20
-3
 11
16.0491
 21
-3.00119
  0
LINE
  8
0
 10
16.0491
 20
-3.00119
 11
16.098
 21
-3.00481
  0
LINE
  8
0
 10
16.098
 20
-3.00481
 11
16.1467
 21
-3.01082
  0
LINE
  8
0
 10
16.1467
 20
-3.01082
 11
16.1951
 21
-3.01921
  0
LINE
  8
0
 10
16.1951
 20
-3.01921
 11
16.243
 21
-3.02997
  0
LINE
  8
0
 10
16.243
 20
-3.02997
 11
16.2903
 21
-3.04305
  0
LINE
  8
0
 10
16.2903
 20
-3.04305
 11
16.3369
 21
-3.05844
  0
LINE
  8
0
 10
16.3369
 20
-3.05844
 11
16.3827
 21
-3.07611
  0
LINE
  8
0
 10
16.3827
 20
-3.07611
 11
16.4276
 21
-3.09601
  0
LINE
  8
0
 10
16.4276
 20
-3.09601
 11
16.4714
 21
-3.11807
  0
LINE
  8
0
 10
16.4714
 20
-3.11807
 11
16.5141
 21
-3.14226
  0
LINE
  8
0
 10
16.5141
 20
-3.14226
 11
16.5556
 21
-3.16852
  0
LINE
  8
0
 10
16.5556
 20
-3.16852
 11
16.5957
 21
-3.19678
  0
LINE
  8
0
 10
16.5957
 20
-3.19678
 11
16.6344
 21
-3.22697
  0
LINE
  8
0
 10
16.6344
 20
-3.22697
 11
16.6716
 21
-3.25905
  0
LINE
  8
0
 10
16.6716
 20
-3.25905
 11
16.7071
 21
-3.29289
  0
LINE
  8
0
 10
16.7071
 20
-3.29289
 11
16.741
 21
-3.32843
  0
LINE
  8
0
 10
16.741
 20
-3.32843
 11
16.773
 21
-3.3656
  0
LINE
  8
0
 10
16.773
 20
-3.3656
 11
16.8032
 21
-3.4043
  0
LINE
  8
0
 10
16.8032
 20
-3.4043
 11
16.8315
 21
-3.44443
  0
LINE
  8
0
 10
16.8315
 20
-3.44443
 11
16.8577
 21
-3.48589
  0
LINE
  8
0
 10
16.8577
 20
-3.48589
 11
16.8819
 21
-3.52859
  0
LINE
  8
0
 10
16.8819
 20
-3.52859
 11
16.904
 21
-3.57243
  0
LINE
  8
0
 10
16.904
 20
-3.57243
 11
16.9239
 21
-3.61731
  0
LINE
  8
0
 10
16.9239
 20
-3.61731
 11
16.9415
 21
-3.6631
  0
LINE
  8
0
 10
16.9415
 20
-3.6631
 11
16.9569
 21
-3.7097
  0
LINE
  8
0
 10
16.9569
 20
-3.7097
 11
16.97
 21
-3.75702
  0
LINE
  8
0
 10
16.97
 20
-3.75702
 11
16.9808
 21
-3.8049
  0
LINE
  8
0
 10
16.9808
 20
-3.8049
 11
16.9892
 21
-3.85326
  0
LINE
  8
0
 10
16.9892
 20
-3.85326
 11
16.9952
 21
-3.90198
  0
LINE
  8
0
 10
16.9952
 20
-3.90198
 11
16.9988
 21
-3.95093
  0
LINE
  8
0
 10
16.9988
 20
-3.95093
 11
17
 21
-4
  0
LINE
  8
0
 10
17
 20
-4
 11
16.9988
 21
-4.04906
  0
LINE
  8
0
 10
16.9988
 20
-4.04906
 11
16.9952
 21
-4.09801
  0
LINE
  8
0
 10
16.9952
 20
-4.09801
 11
16.9892
 21
-4.14673
  0
LINE
  8
0
 10
16.9892
 20
-4.14673
 11
16.9808
 21
-4.19508
  0
LINE
  8
0
 10
16.9808
 20
-4.19508
 11
16.97
 21
-4.24297
  0
LINE
  8
0
 10
16.97
 20
-4.24297
 11
16.9569
 21
-4.29028
  0
LINE
  8
0
 10
16.9569
 20
-4.29028
 11
16.9415
 21
-4.33688
  0
LINE
  8
0
 10
16.9415
 20
-4.33688
 11
16.9239
 21
-4.38268
  0
LINE
  8
0
 10
16.9239
 20
-4.38268
 11
16.904
 21
-4.42755
  0
LINE
  8
0
 10
16.904
 20
-4.42755
 11
16.8819
 21
-4.47139
  0
LINE
  8
0
 10
16.8819
 20
-4.47139
 11
16.8577
 21
-4.5141
  0
LINE
  8
0
 10
16.8577
 20
-4.5141
 11
16.8315
 21
-4.55556
  0
LINE
  8
0
 10
16.8315
 20
-4.55556
 11
16.8032
 21
-4.59569
  0
LINE
  8
0
 10
16.8032
 20
-4.59569
 11
16.773
 21
-4.63438
  0
LINE
  8
0
 10
16.773
 20
-4.63438
 11
16.741
 21
-4.67155
  0
LINE
  8
0
 10
16.741
 20
-4.67155
 11
16.7071
 21
-4.70709
  0
LINE
  8
0
 10
16.7071
 20
-4.70709
 11
16.6716
 21
-4.74094
  0
LINE
  8
0
 10
16.6716
 20
-4.74094
 11
16.6344
 21
-4.77301
  0
LINE
  8
0
 10
16.6344
 20
-4.77301
 11
16.5957
 21
-4.80321
  0
LINE
  8
0
 10
16.5957
 20
-4.80321
 11
16.5556
 21
-4.83147
  0
LINE
  8
0
 10
16.5556
 20
-4.83147
 11
16.5141
 21
-4.85773
  0
LINE
  8
0
 10
16.5141
 20
-4.85773
 11
16.4714
 21
-4.88191
  0
LINE
  8
0
 10
16.4714
 20
-4.88191
 11
16.4276
 21
-4.90398
  0
LINE
  8
0
 10
16.4276
 20
-4.90398
 11
16.3827
 21
-4.92387
  0
LINE
  8
0
 10
16.3827
 20
-4.92387
 11
16.3369
 21
-4.94154
  0
LINE
  8
0
 10
16.3369
 20
-4.94154
 11
16.2903
 21
-4.95694
  0
LINE
  8
0
 10
16.2903
 20
-4.95694
 11
16.243
 21
-4.97002
  0
LINE
  8
0
 10
16.243
 20
-4.97002
 11
16.1951
 21
-4.98077
  0
LINE
  8
0
 10
16.1951
 20
-4.98077
 11
16.1467
 21
-4.98917
  0
LINE
  8
0
 10
16.1467
 20
-4.98917
 11
16.098
 21
-4.99518
  0
LINE
  8
0
 10
16.098
 20
-4.99518
 11
16.0491
 21
-4.99879
  0
LINE
  8
0
 10
16.0491
 20
-4.99879
 11
16
 21
-5
  0
LINE
  8
0
 10
16
 20
-5
 11
15.9509
 21
-4.99879
  0
LINE
  8
0
 10
3.95093
 20
-8.99879
 11
3.90198
 21
-8.99518
  0
LINE
  8
0
 10
3.90198
 20
-8.99518
 11
3.85326
 21
-8.98917
  0
LINE
  8
0
 10
3.85326
 20
-8.98917
 11
3.8049
 21
-8.98077
  0
LINE
  8
0
 10
3.8049
 20
-8.98077
 11
3.75702
 21
-8.97002
  0
LINE
  8
0
 10
3.75702
 20
-8.97002
 11
3.7097
 21
-8.95694
  0
LINE
  8
0
 10
3.7097
 20
-8.95694
 11
3.6631
 21
-8.94154
  0
LINE
  8
0
 10
3.6631
 20
-8.94154
 11
3.61731
 21
-8.92387
  0
LINE
  8
0
 10
3.61731
 20
-8.92387
 11
3.57243
 21
-8.90398
  0
LINE
  8
0
 10
3.57243
 20
-8.90398
 11
3.52859
 21
-8.88191
  0
LINE
  8
0
 10
3.52859
 20
-8.88191
 11
3.48589
 21
-8.85773
  0
LINE
  8
0
 10
3.48589
 20
-8.85773
 11
3.44443
 21
-8.83147
  0
LINE
  8
0
 10
3.44443
 20
-8.83147
 11
3.4043
 21
-8.80321
  0
LINE
  8
0
 10
3.4043
 20
-8.80321
 11
3.3656
 21
-8.77301
  0
LINE
  8
0
 10
3.3656
 20
-8.77301
 11
3.32843
 21
-8.74094
  0
LINE
  8
0
 10
3.32843
 20
-8.74094
 11
3.29289
 21
-8.70709
  0
LINE
  8
0
 10
3.29289
 20
-8.70709
 11
3.25905
 21
-8.67155
  0
LINE
  8
0
 10
3.25905
 20
-8.67155
 11
3.22697
 21
-8.63438
  0
LINE
  8
0
 10
3.22697
 20
-8.63438
 11
3.19678
 21
-8.59569
  0
LINE
  8
0
 10
3.19678
 20
-8.59569
 11
3.16852
 21
-8.55556
  0
LINE
  8
0
 10
3.16852
 20
-8.55556
 11
3.14226
 21
-8.5141
  0
LINE
  8
0
 10
3.14226
 20
-8.5141
 11
3.11807
 21
-8.47139
  0
LINE
  8
0
 10
3.11807
 20
-8.47139
 11
3.09601
 21
-8.42755
  0
LINE
  8
0
 10
3.09601
 20
-8.42755
 11
3.07611
 21
-8.38268
  0
LINE
  8
0
 10
3.07611
 20
-8.38268
 11
3.05844
 21
-8.33688
  0
LINE
  8
0
 10
3.05844
 20
-8.33688
 11
3.04305
 21
-8.29028
  0
LINE
  8
0
 10
3.04305
 20
-8.29028
 11
3.02997
 21
-8.24297
  0
LINE
  8
0
 10
3.02997
 20
-8.24297
 11
3.01921
 21
-8.19508
  0
LINE
  8
0
 10
3.01921
 20
-8.19508
 11
3.01082
 21
-8.14673
  0
LINE
  8
0
 10
3.01082
 20
-8.14673
 11
3.00481
 21
-8.09801
  0
LINE
  8
0
 10
3.00481
 20
-8.09801
 11
3.00119
 21
-8.04906
  0
LINE
  8
0
 10
3.00119
 20
-8.04906
 11
3
 21
-8
  0
LINE
  8
0
 10
3
 20
-8
 11
3.00119
 21
-7.95093
  0
LINE
  8
0
 10
3.00119
 20
-7.95093
 11
3.00481
 21
-7.90198
  0
LINE
  8
0
 10
3.00481
 20
-7.90198
 11
3.01082
 21
-7.85326
  0
LINE
  8
0
 10
3.01082
 20
-7.85326
 11
3.01921
 21
-7.8049
  0
LINE
  8
0
 10
3.01921
 20
-7.8049
 11
3.02997
 21
-7.75702
  0
LINE
  8
0
 10
3.02997
 20
-7.75702
 11
3.04305
 21
-7.7097
  0
LINE
  8
0
 10
3.04305
 20
-7.7097
 11
3.05844
 21
-7.6631
  0
LINE
  8
0
 10
3.05844
 20
-7.6631
 11
3.07611
 21
-7.61731
  0
LINE
  8
0
 10
3.07611
 20
-7.61731
 11
3.09601
 21
-7.57243
  0
LINE
  8
0
 10
3.09601
 20
-7.57243
 11
3.11807
 21
-7.52859
  0
LINE
  8
0
 10
3.11807
 20
-7.52859
 11
3.14226
 21
-7.48589
  0
LINE
  8
0
 10
3.14226
 20
-7.48589
 11
3.16852
 21
-7.44443
  0
LINE
  8
0
 10
3.16852
 20
-7.44443
 11
3.19678
 21
-7.4043
  0
LINE
  8
0
 10
3.19678
 20
-7.4043
 11
3.22697
 21
-7.3656
  0
LINE
  8
0
 10
3.22697
 20
-7.3656
 11
3.25905
 21
-7.32843
  0
LINE
  8
0
 10
3.25905
 20
-7.32843
 11
3.29289
 21
-7.29289
  0
LINE
  8
0
 10
3.29289
 20
-7.29289
 11
3.32843
 21
-7.25905
  0
LINE
  8
0
 10
3.32843
 20
-7.25905
 11
3.3656
 21
-7.22697
  0
LINE
  8
0
 10
3.3656
 20
-7.22697
 11
3.4043
 21
-7.19678
  0
LINE
  8
0
 10
3.4043
 20
-7.19678
 11
3.44443
 21
-7.16852
  0
LINE
  8
0
 10
3.44443
 20
-7.16852
 11
3.48589
 21
-7.14226
  0
LINE
  8
0
 10
3.48589
 20
-7.14226
 11
3.52859
 21
-7.11807
  0
LINE
  8
0
 10
3.52859
 20
-7.11807
 11
3.57243
 21
-7.09601
  0
LINE
  8
0
 10
3.57243
 20
-7.09601
 11
3.61731
 21
-7.07611
  0
LINE
  8
0
 10
3.61731
 20
-7.07611
 11
3.6631
 21
-7.05844
  0
LINE
  8
0
 10
3.6631
 20
-7.05844
 11
3.7097
 21
-7.04305
  0
LINE
  8
0
 10
3.7097
 20
-7.04305
 11
3.75702
 21
-7.02997
  0
LINE
  8
0
 10
3.75702
 20
-7.02997
 11
3.8049
 21
-7.01921
  0
LINE
  8
0
 10
3.8049
 20
-7.01921
 11
3.85326
 21
-7.01082
  0
LINE
  8
0
 10
3.85326
 20
-7.01082
 11
3.90198
 21
-7.00481
  0
LINE
  8
0
 10
3.90198
 20
-7.00481
 11
3.95093
 21
-7.00119
  0
LINE
  8
0
 10
3.95093
 20
-7.00119
 11
4
 21
-7
  0
LINE
  8
0
 10
4
 20
-7
 11
4.04906
 21
-7.00119
  0
LINE
  8
0
 10
4.04906
 20
-7.00119
 11
4.09801
 21
-7.00481
  0
LINE
  8
0
 10
4.09801
 20
-7.00481
 11
4.14673
 21
-7.01082
  0
LINE
  8
0
 10
4.14673
 20
-7.01082
 11
4.19508
 21
-7.01921
  0
LINE
  8
0
 10
4.19508
 20
-7.01921
 11
4.24297
 21
-7.02997
  0
LINE
  8
0
 10
4.24297
 20
-7.02997
 11
4.29028
 21
-7.04305
  0
LINE
  8
0
 10
4.29028
 20
-7.04305
 11
4.33688
 21
-7.05844
  0
LINE
  8
0
 10
4.33688
 20
-7.05844
 11
4.38268
 21
-7.07611
  0
LINE
  8
0
 10
4.38268
 20
-7.07611
 11
4.42755
 21
-7.09601
  0
LINE
  8
0
 10
4.42755
 20
-7.09601
 11
4.47139
 21
-7.11807
  0
LINE
  8
0
 10
4.47139
 20
-7.11807
 11
4.5141
 21
-7.14226
  0
LINE
  8
0
 10
4.5141
 20
-7.14226
 11
4.55556
 21
-7.16852
  0
LINE
  8
0
 10
4.55556
 20
-7.16852
 11
4.59569
 21
-7.19678
  0
LINE
  8
0
 10
4.59569
 20
-7.19678
 11
4.63438
 21
-7.22697
  0
LINE
  8
0
 10
4.63438
 20
-7.22697
 11
4.67155
 21
-7.25905
  0
LINE
  8
0
 10
4.67155
 20
-7.25905
 11
4.70709
 21
-7.29289
  0
LINE
  8
0
 10
4.70709
 20
-7.29289
 11
4.74094
 21
-7.32843
  0
LINE
  8
0
 10
4.74094
 20
-7.32843
 11
4.77301
 21
-7.3656
  0
LINE
  8
0
 10
4.77301
 20
-7.3656
 11
4.80321
 21
-7.4043
  0
LINE
  8
0
 10
4.80321
 20
-7.4043
 11
4.83147
 21
-7.44443
  0
LINE
  8
0
 10
4.83147
 20
-7.44443
 11
4.85773
 21
-7.48589
  0
LINE
  8
0
 10
4.85773
 20
-7.48589
 11
4.88191
 21
-7.52859
  0
LINE
  8
0
 10
4.88191
 20
-7.52859
 11
4.90398
 21
-7.57243
  0
LINE
  8
0
 10
4.90398
 20
-7.57243
 11
4.92387
 21
-7.61731
  0
LINE
  8
0
 10
4.92387
 20
-7.61731
 11
4.94154
 21
-7.6631
  0
LINE
  8
0
 10
4.94154
 20
-7.6631
 11
4.95694
 21
-7.7097
  0
LINE
  8
0
 10
4.95694
 20
-7.7097
 11
4.97002
 21
-7.75702
  0
LINE
  8
0
 10
4.97002
 20
-7.75702
 11
4.98077
 21
-7.8049
  0
LINE
  8
0
 10
4.98077
 20
-7.8049
 11
4.98917
 21
-7.85326
  0
LINE
  8
0
 10
4.98917
 20
-7.85326
 11
4.99518
 21
-7.90198
  0
LINE
  8
0
 10
4.99518
 20
-7.90198
 11
4.99879
 21
-7.95093
  0
LINE
  8
0
 10
4.99879
 20
-7.95093
 11
5
 21
-8
  0
LINE
  8
0
 10
5
 20
-8
 11
4.99879
 21
-8.04906
  0
LINE
  8
0
 10
4.99879
 20
-8.04906
 11
4.99518
 21
-8.09801
  0
LINE
  8
0
 10
4.99518
 20
-8.09801
 11
4.98917
 21
-8.14673
  0
LINE
  8
0
 10
4.98917
 20
-8.14673
 11
4.98077
 21
-8.19508
  0
LINE
  8
0
 10
4.98077
 20
-8.19508
 11
4.97002
 21
-8.24297
  0
LINE
  8
0
 10
4.97002
 20
-8.24297
 11
4.95694
 21
-8.29028
  0
LINE
  8
0
 10
4.95694
 20
-8.29028
 11
4.94154
 21
-8.33688
  0
LINE
  8
0
 10
4.94154
 20
-8.33688
 11
4.92387
 21
-8.38268
  0
LINE
  8
0
 10
4.92387
 20
-8.38268
 11
4.90398
 21
-8.42755
  0
LINE
  8
0
 10
4.90398
 20
-8.42755
 11
4.88191
 21
-8.47139
  0
LINE
  8
0
 10
4.88191
 20
-8.47139
 11
4.85773
 21
-8.5141
  0
LINE
  8
0
 10
4.85773
 20
-8.5141
 11
4.83147
 21
-8.55556
  0
LINE
  8
0
 10
4.83147
 20
-8.55556
 11
4.80321
 21
-8.59569
  0
LINE
  8
0
 10
4.80321
 20
-8.59569
 11
4.77301
 21
-8.63438
  0
LINE
  8
0
 10
4.77301
 20
-8.63438
 11
4.74094
 21
-8.67155
  0
LINE
  8
0
 10
4.74094
 20
-8.67155
 11
4.70709
 21
-8.70709
  0
LINE
  8
0
 10
4.70709
 20
-8.70709
 11
4.67155
 21
-8.74094
  0
LINE
  8
0
 10
4.67155
 20
-8.74094
 11
4.63438
 21
-8.77301
  0
LINE
  8
0
 10
4.63438
 20
-8.77301
 11
4.59569
 21
-8.80321
  0
LINE
  8
0
 10
4.59569
 20
-8.80321
 11
4.55556
 21
-8.83147
  0
LINE
  8
0
 10
4.55556
 20
-8.83147
 11
4.5141
 21
-8.85773
  0
LINE
  8
0
 10
4.5141
 20
-8.85773
 11
4.47139
 21
-8.88191
  0
LINE
  8
0
 10
4.47139
 20
-8.88191
 11
4.42755
 21
-8.90398
  0
LINE
  8
0
 10
4.42755
 20
-8.90398
 11
4.38268
 21
-8.92387
  0
LINE
  8
0
 10
4.38268
 20
-8.92387
 11
4.33688
 21
-8.94154
  0
LINE
  8
0
 10
4.33688
 20
-8.94154
 11
4.29028
 21
-8.95694
  0
LINE
  8
0
 10
4.29028
 20
-8.95694
 11
4.24297
 21
-8.97002
  0
LINE
  8
0
 10
4.24297
 20
-8.97002
 11
4.19508
 21
-8.98077
  0
LINE
  8
0
 10
4.19508
 20
-8.98077
 11
4.14673
 21
-8.98917
  0
LINE
  8
0
 10
4.14673
 20
-8.98917
 11
4.09801
 21
-8.99518
  0
LINE
  8
0
 10
4.09801
 20
-8.99518
 11
4.04906
 21
-8.99879
  0
LINE
  8
0
 10
4.04906
 20
-8.99879
 11
4
 21
-9
  0
LINE
  8
0
 10
4
 20
-9
 11
3.95093
 21
-8.99879
  0
LINE
  8
0
 10
27.9509
 20
-8.99879
 11
27.902
 21
-8.99518
  0
LINE
  8
0
 10
27.902
 20
-8.99518
 11
27.8533
 21
-8.98917
  0
LINE
  8
0
 10
27.8533
 20
-8.98917
 11
27.8049
 21
-8.98077
  0
LINE
  8
0
 10
27.8049
 20
-8.98077
 11
27.757
 21
-8.97002
  0
LINE
  8
0
 10
27.757
 20
-8.97002
 11
27.7097
 21
-8.95694
  0
LINE
  8
0
 10
27.7097
 20
-8.95694
 11
27.6631
 21
-8.94154
  0
LINE
  8
0
 10
27.6631
 20
-8.94154
 11
27.6173
 21
-8.92387
  0
LINE
  8
0
 10
27.6173
 20
-8.92387
 11
27.5724
 21
-8.90398
  0
LINE
  8
0
 10
27.5724
 20
-8.90398
 11
27.5286
 21
-8.88191
  0
LINE
  8
0
 10
27.5286
 20
-8.88191
 11
27.4859
 21
-8.85773
  0
LINE
  8
0
 10
27.4859
 20
-8.85773
 11
27.4444
 21
-8.83147
  0
LINE
  8
0
 10
27.4444
 20
-8.83147
 11
27.4043
 21
-8.80321
  0
LINE
  8
0
 10
27.4043
 20
-8.80321
 11
27.3656
 21
-8.77301
  0
LINE
  8
0
 10
27.3656
 20
-8.77301
 11
27.3284
 21
-8.74094
  0
LINE
  8
0
 10
27.3284
 20
-8.74094
 11
27.2929
 21
-8.70709
  0
LINE
  8
0
 10
27.2929
 20
-8.70709
 11
27.259
 21
-8.67155
  0
LINE
  8
0
 10
27.259
 20
-8.67155
 11
27.227
 21
-8.63438
  0
LINE
  8
0
 10
27.227
 20
-8.63438
 11
27.1968
 21
-8.59569
  0
LINE
  8
0
 10
27.1968
 20
-8.59569
 11
27.1685
 21
-8.55556
  0
LINE
  8
0
 10
27.1685
 20
-8.55556
 11
27.1423
 21
-8.5141
  0
LINE
  8
0
 10
27.1423
 20
-8.5141
 11
27.1181
 21
-8.47139
  0
LINE
  8
0
 10
27.1181
 20
-8.47139
 11
27.096
 21
-8.42755
  0
LINE
  8
0
 10
27.096
 20
-8.42755
 11
27.0761
 21
-8.38268
  0
LINE
  8
0
 10
27.0761
 20
-8.38268
 11
27.0585
 21
-8.33688
  0
LINE
  8
0
 10
27.0585
 20
-8.33688
 11
27.0431
 21
-8.29028
  0
LINE
  8
0
 10
27.0431
 20
-8.29028
 11
27.03
 21
-8.24297
  0
LINE
  8
0
 10
27.03
 20
-8.24297
 11
27.0192
 21
-8.19508
  0
LINE
  8
0
 10
27.0192
 20
-8.19508
 11
27.0108
 21
-8.14673
  0
LINE
  8
0
 10
27.0108
 20
-8.14673
 11
27.0048
 21
-8.09801
  0
LINE
  8
0
 10
27.0048
 20
-8.09801
 11
27.0012
 21
-8.04906
  0
LINE
  8
0
 10
27.0012
 20
-8.04906
 11
27
 21
-8
  0
LINE
  8
0
 10
27
 20
-8
 11
27.0012
 21
-7.95093
  0
LINE
  8
0
 10
27.0012
 20
-7.95093
 11
27.0048
 21
-7.90198
  0
LINE
  8
0
 10
27.0048
 20
-7.90198
 11
27.0108
 21
-7.85326
  0
LINE
  8
0
 10
27.0108
 20
-7.85326
 11
27.0192
 21
-7.8049
  0
LINE
  8
0
 10
27.0192
 20
-7.8049
 11
27.03
 21
-7.75702
  0
LINE
  8
0
 10
27.03
 20
-7.75702
 11
27.0431
 21
-7.7097
  0
LINE
  8
0
 10
27.0431
 20
-7.7097
 11
27.0585
 21
-7.6631
  0
LINE
  8
0
 10
27.0585
 20
-7.6631
 11
27.0761
 21
-7.61731
  0
LINE
  8
0
 10
27.0761
 20
-7.61731
 11
27.096
 21
-7.57243
  0
LINE
  8
0
 10
27.096
 20
-7.57243
 11
27.1181
 21
-7.52859
  0
LINE
  8
0
 10
27.1181
 20
-7.52859
 11
27.1423
 21
-7.48589
  0
LINE
  8
0
 10
27.1423
 20
-7.48589
 11
27.1685
 21
-7.44443
  0
LINE
  8
0
 10
27.1685
 20
-7.44443
 11
27.1968
 21
-7.4043
  0
LINE
  8
0
 10
27.1968
 20
-7.4043
 11
27.227
 21
-7.3656
  0
LINE
  8
0
 10
27.227
 20
-7.3656
 11
27.259
 21
-7.32843
  0
LINE
  8
0
 10
27.259
 20
-7.32843
 11
27.2929
 21
-7.29289
  0
LINE
  8
0
 10
27.2929
 20
-7.29289
 11
27.3284
 21
-7.25905
  0
LINE
  8
0
 10
27.3284
 20
-7.25905
 11
27.3656
 21
-7.22697
  0
LINE
  8
0
 10
27.3656
 20
-7.22697
 11
27.4043
 21
-7.19678
  0
LINE
  8
0
 10
27.4043
 20
-7.19678
 11
27.4444
 21
-7.16852
  0
LINE
  8
0
 10
27.4444
 20
-7.16852
 11
27.4859
 21
-7.14226
  0
LINE
  8
0
 10
27.4859
 20
-7.14226
 11
27.5286
 21
-7.11807
  0
LINE
  8
0
 10
27.5286
 20
-7.11807
 11
27.5724
 21
-7.09601
  0
LINE
  8
0
 10
27.5724
 20
-7.09601
 11
27.6173
 21
-7.07611
  0
LINE
  8
0
 10
27.6173
 20
-7.07611
 11
27.6631
 21
-7.05844
  0
LINE
  8
0
 10
27.6631
 20
-7.05844
 11
27.7097
 21
-7.04305
  0
LINE
  8
0
 10
27.7097
 20
-7.04305
 11
27.757
 21
-7.02997
  0
LINE
  8
0
 10
27.757
 20
-7.02997
 11
27.8049
 21
-7.01921
  0
LINE
  8
0
 10
27.8049
 20
-7.01921
 11
27.8533
 21
-7.01082
  0
LINE
  8
0
 10
27.8533
 20
-7.01082
 11
27.902
 21
-7.00481
  0
LINE
  8
0
 10
27.902
 20
-7.00481
 11
27.9509
 21
-7.00119
  0
LINE
  8
0
 10
27.9509
 20
-7.00119
 11
28
 21
-7
  0
LINE
  8
0
 10
28
 20
-7
 11
28.0491
 21
-7.00119
  0
LINE
  8
0
 10
28.0491
 20
-7.00119
 11
28.098
 21
-7.00481
  0
LINE
  8
0
 10
28.098
 20
-7.00481
 11
28.1467
 21
-7.01082
  0
LINE
  8
0
 10
28.1467
 20
-7.01082
 11
28.1951
 21
-7.01921
  0
LINE
  8
0
 10
28.1951
 20
-7.01921
 11
28.243
 21
-7.02997
  0
LINE
  8
0
 10
28.243
 20
-7.02997
 11
28.2903
 21
-7.04305
  0
LINE
  8
0
 10
28.2903
 20
-7.04305
 11
28.3369
 21
-7.05844
  0
LINE
  8
0
 10
28.3369
 20
-7.05844
 11
28.3827
 21
-7.07611
  0
LINE
  8
0
 10
28.3827
 20
-7.07611
 11
28.4276
 21
-7.09601
  0
LINE
  8
0
 10
28.4276
 20
-7.09601
 11
28.4714
 21
-7.11807
  0
LINE
  8
0
 10
28.4714
 20
-7.11807
 11
28.5141
 21
-7.14226
  0
LINE
  8
0
 10
28.5141
 20
-7.14226
 11
28.5556
 21
-7.16852
  0
LINE
  8
0
 10
28.5556
 20
-7.16852
 11
28.5957
 21
-7.19678
  0
LINE
  8
0
 10
28.5957
 20
-7.19678
 11
28.6344
 21
-7.22697
  0
LINE
  8
0
 10
28.6344
 20
-7.22697
 11
28.6716
 21
-7.25905
  0
LINE
  8
0
 10
28.6716
 20
-7.25905
 11
28.7071
 21
-7.29289
  0
LINE
  8
0
 10
28.7071
 20
-7.29289
 11
28.741
 21
-7.32843
  0
LINE
  8
0
 10
28.741
 20
-7.32843
 11
28.773
 21
-7.3656
  0
LINE
  8
0
 10
28.773
 20
-7.3656
 11
28.8032
 21
-7.4043
  0
LINE
  8
0
 10
28.8032
 20
-7.4043
 11
28.8315
 21
-7.44443
  0
LINE
  8
0
 10
28.8315
 20
-7.44443
 11
28.8577
 21
-7.48589
  0
LINE
  8
0
 10
28.8577
 20
-7.48589
 11
28.8819
 21
-7.52859
  0
LINE
  8
0
 10
28.8819
 20
-7.52859
 11
28.904
 21
-7.57243
  0
LINE
  8
0
 10
28.904
 20
-7.57243
 11
28.9239
 21
-7.61731
  0
LINE
  8
0
 10
28.9239
 20
-7.61731
 11
28.9415
 21
-7.6631
  0
LINE
  8
0
 10
28.9415
 20
-7.6631
 11
28.9569
 21
-7.7097
  0
LINE
  8
0
 10
28.9569
 20
-7.7097
 11
28.97
 21
-7.75702
  0
LINE
  8
0
 10
28.97
 20
-7.75702
 11
28.9808
 21
-7.8049
  0
LINE
  8
0
 10
28.9808
 20
-7.8049
 11
28.9892
 21
-7.85326
  0
LINE
  8
0
 10
28.9892
 20
-7.85326
 11
28.9952
 21
-7.90198
  0
LINE
  8
0
 10
28.9952
 20
-7.90198
 11
28.9988
 21
-7.95093
  0
LINE
  8
0
 10
28.9988
 20
-7.95093
 11
29
 21
-8
  0
LINE
  8
0
 10
29
 20
-8
 11
28.9988
 21
-8.04906
  0
LINE
  8
0
 10
28.9988
 20
-8.04906
 11
28.9952
 21
-8.09801
  0
LINE
  8
0
 10
28.9952
 20
-8.09801
 11
28.9892
 21
-8.14673
  0
LINE
  8
0
 10
28.9892
 20
-8.14673
 11
28.9808
 21
-8.19508
  0
LINE
  8
0
 10
28.9808
 20
-8.19508
 11
28.97
 21
-8.24297
  0
LINE
  8
0
 10
28.97
 20
-8.24297
 11
28.9569
 21
-8.29028
  0
LINE
  8
0
 10
28.9569
 20
-8.29028
 11
28.9415
 21
-8.33688
  0
LINE
  8
0
 10
28.9415
 20
-8.33688
 11
28.9239
 21
-8.38268
  0
LINE
  8
0
 10
28.9239
 20
-8.38268
 11
28.904
 21
-8.42755
  0
LINE
  8
0
 10
28.904
 20
-8.42755
 11
28.8819
 21
-8.47139
  0
LINE
  8
0
 10
28.8819
 20
-8.47139
 11
28.8577
 21
-8.5141
  0
LINE
  8
0
 10
28.8577
 20
-8.5141
 11
28.8315
 21
-8.55556
  0
LINE
  8
0
 10
28.8315
 20
-8.55556
 11
28.8032
 21
-8.59569
  0
LINE
  8
0
 10
28.8032
 20
-8.59569
 11
28.773
 21
-8.63438
  0
LINE
  8
0
 10
28.773
 20
-8.63438
 11
28.741
 21
-8.67155
  0
LINE
  8
0
 10
28.741
 20
-8.67155
 11
28.7071
 21
-8.70709
  0
LINE
  8
0
 10
28.7071
 20
-8.70709
 11
28.6716
 21
-8.74094
  0
LINE
  8
0
 10
28.6716
 20
-8.74094
 11
28.6344
 21
-8.77301
  0
LINE
  8
0
 10
28.6344
 20
-8.77301
 11
28.5957
 21
-8.80321
  0
LINE
  8
0
 10
28.5957
 20
-8.80321
 11
28.5556
 21
-8.83147
  0
LINE
  8
0
 10
28.5556
 20
-8.83147
 11
28.5141
 21
-8.85773
  0
LINE
  8
0
 10
28.5141
 20
-8.85773
 11
28.4714
 21
-8.88191
  0
LINE
  8
0
 10
28.4714
 20
-8.88191
 11
28.4276
 21
-8.90398
  0
LINE
  8
0
 10
28.4276
 20
-8.90398
 11
28.3827
 21
-8.92387
  0
LINE
  8
0
 10
28.3827
 20
-8.92387
 11
28.3369
 21
-8.94154
  0
LINE
  8
0
 10
28.3369
 20
-8.94154
 11
28.2903
 21
-8.95694
  0
LINE
  8
0
 10
28.2903
 20
-8.95694
 11
28.243
 21
-8.97002
  0
LINE
  8
0
 10
28.243
 20
-8.97002
 11
28.1951
 21
-8.98077
  0
LINE
  8
0
 10
28.1951
 20
-8.98077
 11
28.1467
 21
-8.98917
  0
LINE
  8
0
 10
28.1467
 20
-8.98917
 11
28.098
 21
-8.99518
  0
LINE
  8
0
 10
28.098
 20
-8.99518
 11
28.0491
 21
-8.99879
  0
LINE
  8
0
 10
28.0491
 20
-8.99879
 11
28
 21
-9
  0
LINE
  8
0
 10
28
 20
-9
 11
27.9509
 21
-8.99879
  0
ENDSEC
  0
SECTION
  2
OBJECTS
  0
DICTIONARY
  0
ENDSEC
  0
EOF
