  0
SECTION
  2
BLOCKS
  0
ENDSEC
  0
SECTION
  2
ENTITIES
  0
LINE
  8
0
 10
12
 20
-8
 11
12
 21
8
  0
LINE
  8
0
 10
12
 20
8
 11
8
 21
12
  0
LINE
  8
0
 10
8
 20
12
 11
-8
 21
12
  0
LINE
  8
0
 10
-8
 20
12
 11
-12
 21
8
  0
LINE
  8
0
 10
-12
 20
8
 11
-12
 21
-8
  0
LINE
  8
0
 10
-12
 20
-8
 11
-8
 21
-12
  0
LINE
  8
0
 10
-8
 20
-12
 11
8
 21
-12
  0
LINE
  8
0
 10
8
 20
-12
 11
12
 21
-8
  0
LINE
  8
0
 10
-4.04906
 20
7.00119
 11
-4.09801
 21
7.00481
  0
LINE
  8
0
 10
-4.09801
 20
7.00481
 11
-4.14673
 21
7.01082
  0
LINE
  8
0
 10
-4.14673
 20
7.01082
 11
-4.19508
 21
7.01921
  0
LINE
  8
0
 10
-4.19508
 20
7.01921
 11
-4.24297
 21
7.02997
  0
LINE
  8
0
 10
-4.24297
 20
7.02997
 11
-4.29028
 21
7.04305
  0
LINE
  8
0
 10
-4.29028
 20
7.04305
 11
-4.33688
 21
7.05844
  0
LINE
  8
0
 10
-4.33688
 20
7.05844
 11
-4.38268
 21
7.07611
  0
LINE
  8
0
 10
-4.38268
 20
7.07611
 11
-4.42755
 21
7.09601
  0
LINE
  8
0
 10
-4.42755
 20
7.09601
 11
-4.47139
 21
7.11807
  0
LINE
  8
0
 10
-4.47139
 20
7.11807
 11
-4.5141
 21
7.14226
  0
LINE
  8
0
 10
-4.5141
 20
7.14226
 11
-4.55556
 21
7.16852
  0
LINE
  8
0
 10
-4.55556
 20
7.16852
 11
-4.59569
 21
7.19678
  0
LINE
  8
0
 10
-4.59569
 20
7.19678
 11
-4.63438
 21
7.22697
  0
LINE
  8
0
 10
-4.63438
 20
7.22697
 11
-4.67155
 21
7.25905
  0
LINE
  8
0
 10
-4.67155
 20
7.25905
 11
-4.70709
 21
7.29289
  0
LINE
  8
0
 10
-4.70709
 20
7.29289
 11
-4.74094
 21
7.32843
  0
LINE
  8
0
 10
-4.74094
 20
7.32843
 11
-4.77301
 21
7.3656
  0
LINE
  8
0
 10
-4.77301
 20
7.3656
 11
-4.80321
 21
7.4043
  0
LINE
  8
0
 10
-4.80321
 20
7.4043
 11
-4.83147
 21
7.44443
  0
LINE
  8
0
 10
-4.83147
 20
7.44443
 11
-4.85773
 21
7.48589
  0
LINE
  8
0
 10
-4.85773
 20
7.48589
 11
-4.88191
 21
7.52859
  0
LINE
  8
0
 10
-4.88191
 20
7.52859
 11
-4.90398
 21
7.57243
  0
LINE
  8
0
 10
-4.90398
 20
7.57243
 11
-4.92387
 21
7.61731
  0
LINE
  8
0
 10
-4.92387
 20
7.61731
 11
-4.94154
 21
7.6631
  0
LINE
  8
0
 10
-4.94154
 20
7.6631
 11
-4.95694
 21
7.7097
  0
LINE
  8
0
 10
-4.95694
 20
7.7097
 11
-4.97002
 21
7.75702
  0
LINE
  8
0
 10
-4.97002
 20
7.75702
 11
-4.98077
 21
7.8049
  0
LINE
  8
0
 10
-4.98077
 20
7.8049
 11
-4.98917
 21
7.85326
  0
LINE
  8
0
 10
-4.98917
 20
7.85326
 11
-4.99518
 21
7.90198
  0
LINE
  8
0
 10
-4.99518
 20
7.90198
 11
-4.99879
 21
7.95093
  0
LINE
  8
0
 10
-4.99879
 20
7.95093
 11
-5
 21
8
  0
LINE
  8
0
 10
-5
 20
8
 11
-4.99879
 21
8.04906
  0
LINE
  8
0
 10
-4.99879
 20
8.04906
 11
-4.99518
 21
8.09801
  0
LINE
  8
0
 10
-4.99518
 20
8.09801
 11
-4.98917
 21
8.14673
  0
LINE
  8
0
 10
-4.98917
 20
8.14673
 11
-4.98077
 21
8.19508
  0
LINE
  8
0
 10
-4.98077
 20
8.19508
 11
-4.97002
 21
8.24297
  0
LINE
  8
0
 10
-4.97002
 20
8.24297
 11
-4.95694
 21
8.29028
  0
LINE
  8
0
 10
-4.95694
 20
8.29028
 11
-4.94154
 21
8.33688
  0
LINE
  8
0
 10
-4.94154
 20
8.33688
 11
-4.92387
 21
8.38268
  0
LINE
  8
0
 10
-4.92387
 20
8.38268
 11
-4.90398
 21
8.42755
  0
LINE
  8
0
 10
-4.90398
 20
8.42755
 11
-4.88191
 21
8.47139
  0
LINE
  8
0
 10
-4.88191
 20
8.47139
 11
-4.85773
 21
8.5141
  0
LINE
  8
0
 10
-4.85773
 20
8.5141
 11
-4.83147
 21
8.55556
  0
LINE
  8
0
 10
-4.83147
 20
8.55556
 11
-4.80321
 21
8.59569
  0
LINE
  8
0
 10
-4.80321
 20
8.59569
 11
-4.77301
 21
8.63438
  0
LINE
  8
0
 10
-4.77301
 20
8.63438
 11
-4.74094
 21
8.67155
  0
LINE
  8
0
 10
-4.74094
 20
8.67155
 11
-4.70709
 21
8.70709
  0
LINE
  8
0
 10
-4.70709
 20
8.70709
 11
-4.67155
 21
8.74094
  0
LINE
  8
0
 10
-4.67155
 20
8.74094
 11
-4.63438
 21
8.77301
  0
LINE
  8
0
 10
-4.63438
 20
8.77301
 11
-4.59569
 21
8.80321
  0
LINE
  8
0
 10
-4.59569
 20
8.80321
 11
-4.55556
 21
8.83147
  0
LINE
  8
0
 10
-4.55556
 20
8.83147
 11
-4.5141
 21
8.85773
  0
LINE
  8
0
 10
-4.5141
 20
8.85773
 11
-4.47139
 21
8.88191
  0
LINE
  8
0
 10
-4.47139
 20
8.88191
 11
-4.42755
 21
8.90398
  0
LINE
  8
0
 10
-4.42755
 20
8.90398
 11
-4.38268
 21
8.92387
  0
LINE
  8
0
 10
-4.38268
 20
8.92387
 11
-4.33688
 21
8.94154
  0
LINE
  8
0
 10
-4.33688
 20
8.94154
 11
-4.29028
 21
8.95694
  0
LINE
  8
0
 10
-4.29028
 20
8.95694
 11
-4.24297
 21
8.97002
  0
LINE
  8
0
 10
-4.24297
 20
8.97002
 11
-4.19508
 21
8.98077
  0
LINE
  8
0
 10
-4.19508
 20
8.98077
 11
-4.14673
 21
8.98917
  0
LINE
  8
0
 10
-4.14673
 20
8.98917
 11
-4.09801
 21
8.99518
  0
LINE
  8
0
 10
-4.09801
 20
8.99518
 11
-4.04906
 21
8.99879
  0
LINE
  8
0
 10
-4.04906
 20
8.99879
 11
-4
 21
9
  0
LINE
  8
0
 10
-4
 20
9
 11
-3.95093
 21
8.99879
  0
LINE
  8
0
 10
-3.95093
 20
8.99879
 11
-3.90198
 21
8.99518
  0
LINE
  8
0
 10
-3.90198
 20
8.99518
 11
-3.85326
 21
8.98917
  0
LINE
  8
0
 10
-3.85326
 20
8.98917
 11
-3.8049
 21
8.98077
  0
LINE
  8
0
 10
-3.8049
 20
8.98077
 11
-3.75702
 21
8.97002
  0
LINE
  8
0
 10
-3.75702
 20
8.97002
 11
-3.7097
 21
8.95694
  0
LINE
  8
0
 10
-3.7097
 20
8.95694
 11
-3.6631
 21
8.94154
  0
LINE
  8
0
 10
-3.6631
 20
8.94154
 11
-3.61731
 21
8.92387
  0
LINE
  8
0
 10
-3.61731
 20
8.92387
 11
-3.57243
 21
8.90398
  0
LINE
  8
0
 10
-3.57243
 20
8.90398
 11
-3.52859
 21
8.88191
  0
LINE
  8
0
 10
-3.52859
 20
8.88191
 11
-3.48589
 21
8.85773
  0
LINE
  8
0
 10
-3.48589
 20
8.85773
 11
-3.44443
 21
8.83147
  0
LINE
  8
0
 10
-3.44443
 20
8.83147
 11
-3.4043
 21
8.80321
  0
LINE
  8
0
 10
-3.4043
 20
8.80321
 11
-3.3656
 21
8.77301
  0
LINE
  8
0
 10
-3.3656
 20
8.77301
 11
-3.32843
 21
8.74094
  0
LINE
  8
0
 10
-3.32843
 20
8.74094
 11
-3.29289
 21
8.70709
  0
LINE
  8
0
 10
-3.29289
 20
8.70709
 11
-3.25905
 21
8.67155
  0
LINE
  8
0
 10
-3.25905
 20
8.67155
 11
-3.22697
 21
8.63438
  0
LINE
  8
0
 10
-3.22697
 20
8.63438
 11
-3.19678
 21
8.59569
  0
LINE
  8
0
 10
-3.19678
 20
8.59569
 11
-3.16852
 21
8.55556
  0
LINE
  8
0
 10
-3.16852
 20
8.55556
 11
-3.14226
 21
8.5141
  0
LINE
  8
0
 10
-3.14226
 20
8.5141
 11
-3.11807
 21
8.47139
  0
LINE
  8
0
 10
-3.11807
 20
8.47139
 11
-3.09601
 21
8.42755
  0
LINE
  8
0
 10
-3.09601
 20
8.42755
 11
-3.07611
 21
8.38268
  0
LINE
  8
0
 10
-3.07611
 20
8.38268
 11
-3.05844
 21
8.33688
  0
LINE
  8
0
 10
-3.05844
 20
8.33688
 11
-3.04305
 21
8.29028
  0
LINE
  8
0
 10
-3.04305
 20
8.29028
 11
-3.02997
 21
8.24297
  0
LINE
  8
0
 10
-3.02997
 20
8.24297
 11
-3.01921
 21
8.19508
  0
LINE
  8
0
 10
-3.01921
 20
8.19508
 11
-3.01082
 21
8.14673
  0
LINE
  8
0
 10
-3.01082
 20
8.14673
 11
-3.00481
 21
8.09801
  0
LINE
  8
0
 10
-3.00481
 20
8.09801
 11
-3.00119
 21
8.04906
  0
LINE
  8
0
 10
-3.00119
 20
8.04906
 11
-3
 21
8
  0
LINE
  8
0
 10
-3
 20
8
 11
-3.00119
 21
7.95093
  0
LINE
  8
0
 10
-3.00119
 20
7.95093
 11
-3.00481
 21
7.90198
  0
LINE
  8
0
 10
-3.00481
 20
7.90198
 11
-3.01082
 21
7.85326
  0
LINE
  8
0
 10
-3.01082
 20
7.85326
 11
-3.01921
 21
7.8049
  0
LINE
  8
0
 10
-3.01921
 20
7.8049
 11
-3.02997
 21
7.75702
  0
LINE
  8
0
 10
-3.02997
 20
7.75702
 11
-3.04305
 21
7.7097
  0
LINE
  8
0
 10
-3.04305
 20
7.7097
 11
-3.05844
 21
7.6631
  0
LINE
  8
0
 10
-3.05844
 20
7.6631
 11
-3.07611
 21
7.61731
  0
LINE
  8
0
 10
-3.07611
 20
7.61731
 11
-3.09601
 21
7.57243
  0
LINE
  8
0
 10
-3.09601
 20
7.57243
 11
-3.11807
 21
7.52859
  0
LINE
  8
0
 10
-3.11807
 20
7.52859
 11
-3.14226
 21
7.48589
  0
LINE
  8
0
 10
-3.14226
 20
7.48589
 11
-3.16852
 21
7.44443
  0
LINE
  8
0
 10
-3.16852
 20
7.44443
 11
-3.19678
 21
7.4043
  0
LINE
  8
0
 10
-3.19678
 20
7.4043
 11
-3.22697
 21
7.3656
  0
LINE
  8
0
 10
-3.22697
 20
7.3656
 11
-3.25905
 21
7.32843
  0
LINE
  8
0
 10
-3.25905
 20
7.32843
 11
-3.29289
 21
7.29289
  0
LINE
  8
0
 10
-3.29289
 20
7.29289
 11
-3.32843
 21
7.25905
  0
LINE
  8
0
 10
-3.32843
 20
7.25905
 11
-3.3656
 21
7.22697
  0
LINE
  8
0
 10
-3.3656
 20
7.22697
 11
-3.4043
 21
7.19678
  0
LINE
  8
0
 10
-3.4043
 20
7.19678
 11
-3.44443
 21
7.16852
  0
LINE
  8
0
 10
-3.44443
 20
7.16852
 11
-3.48589
 21
7.14226
  0
LINE
  8
0
 10
-3.48589
 20
7.14226
 11
-3.52859
 21
7.11807
  0
LINE
  8
0
 10
-3.52859
 20
7.11807
 11
-3.57243
 21
7.09601
  0
LINE
  8
0
 10
-3.57243
 20
7.09601
 11
-3.61731
 21
7.07611
  0
LINE
  8
0
 10
-3.61731
 20
7.07611
 11
-3.6631
 21
7.05844
  0
LINE
  8
0
 10
-3.6631
 20
7.05844
 11
-3.7097
 21
7.04305
  0
LINE
  8
0
 10
-3.7097
 20
7.04305
 11
-3.75702
 21
7.02997
  0
LINE
  8
0
 10
-3.75702
 20
7.02997
 11
-3.8049
 21
7.01921
  0
LINE
  8
0
 10
-3.8049
 20
7.01921
 11
-3.85326
 21
7.01082
  0
LINE
  8
0
 10
-3.85326
 20
7.01082
 11
-3.90198
 21
7.00481
  0
LINE
  8
0
 10
-3.90198
 20
7.00481
 11
-3.95093
 21
7.00119
  0
LINE
  8
0
 10
-3.95093
 20
7.00119
 11
-4
 21
7
  0
LINE
  8
0
 10
-4
 20
7
 11
-4.04906
 21
7.00119
  0
LINE
  8
0
 10
7.95093
 20
3.00119
 11
7.90198
 21
3.00481
  0
LINE
  8
0
 10
7.90198
 20
3.00481
 11
7.85326
 21
3.01082
  0
LINE
  8
0
 10
7.85326
 20
3.01082
 11
7.8049
 21
3.01921
  0
LINE
  8
0
 10
7.8049
 20
3.01921
 11
7.75702
 21
3.02997
  0
LINE
  8
0
 10
7.75702
 20
3.02997
 11
7.7097
 21
3.04305
  0
LINE
  8
0
 10
7.7097
 20
3.04305
 11
7.6631
 21
3.05844
  0
LINE
  8
0
 10
7.6631
 20
3.05844
 11
7.61731
 21
3.07611
  0
LINE
  8
0
 10
7.61731
 20
3.07611
 11
7.57243
 21
3.09601
  0
LINE
  8
0
 10
7.57243
 20
3.09601
 11
7.52859
 21
3.11807
  0
LINE
  8
0
 10
7.52859
 20
3.11807
 11
7.48589
 21
3.14226
  0
LINE
  8
0
 10
7.48589
 20
3.14226
 11
7.44443
 21
3.16852
  0
LINE
  8
0
 10
7.44443
 20
3.16852
 11
7.4043
 21
3.19678
  0
LINE
  8
0
 10
7.4043
 20
3.19678
 11
7.3656
 21
3.22697
  0
LINE
  8
0
 10
7.3656
 20
3.22697
 11
7.32843
 21
3.25905
  0
LINE
  8
0
 10
7.32843
 20
3.25905
 11
7.29289
 21
3.29289
  0
LINE
  8
0
 10
7.29289
 20
3.29289
 11
7.25905
 21
3.32843
  0
LINE
  8
0
 10
7.25905
 20
3.32843
 11
7.22697
 21
3.3656
  0
LINE
  8
0
 10
7.22697
 20
3.3656
 11
7.19678
 21
3.4043
  0
LINE
  8
0
 10
7.19678
 20
3.4043
 11
7.16852
 21
3.44443
  0
LINE
  8
0
 10
7.16852
 20
3.44443
 11
7.14226
 21
3.48589
  0
LINE
  8
0
 10
7.14226
 20
3.48589
 11
7.11807
 21
3.52859
  0
LINE
  8
0
 10
7.11807
 20
3.52859
 11
7.09601
 21
3.57243
  0
LINE
  8
0
 10
7.09601
 20
3.57243
 11
7.07611
 21
3.61731
  0
LINE
  8
0
 10
7.07611
 20
3.61731
 11
7.05844
 21
3.6631
  0
LINE
  8
0
 10
7.05844
 20
3.6631
 11
7.04305
 21
3.7097
  0
LINE
  8
0
 10
7.04305
 20
3.7097
 11
7.02997
 21
3.75702
  0
LINE
  8
0
 10
7.02997
 20
3.75702
 11
7.01921
 21
3.8049
  0
LINE
  8
0
 10
7.01921
 20
3.8049
 11
7.01082
 21
3.85326
  0
LINE
  8
0
 10
7.01082
 20
3.85326
 11
7.00481
 21
3.90198
  0
LINE
  8
0
 10
7.00481
 20
3.90198
 11
7.00119
 21
3.95093
  0
LINE
  8
0
 10
7.00119
 20
3.95093
 11
7
 21
4
  0
LINE
  8
0
 10
7
 20
4
 11
7.00119
 21
4.04906
  0
LINE
  8
0
 10
7.00119
 20
4.04906
 11
7.00481
 21
4.09801
  0
LINE
  8
0
 10
7.00481
 20
4.09801
 11
7.01082
 21
4.14673
  0
LINE
  8
0
 10
7.01082
 20
4.14673
 11
7.01921
 21
4.19508
  0
LINE
  8
0
 10
7.01921
 20
4.19508
 11
7.02997
 21
4.24297
  0
LINE
  8
0
 10
7.02997
 20
4.24297
 11
7.04305
 21
4.29028
  0
LINE
  8
0
 10
7.04305
 20
4.29028
 11
7.05844
 21
4.33688
  0
LINE
  8
0
 10
7.05844
 20
4.33688
 11
7.07611
 21
4.38268
  0
LINE
  8
0
 10
7.07611
 20
4.38268
 11
7.09601
 21
4.42755
  0
LINE
  8
0
 10
7.09601
 20
4.42755
 11
7.11807
 21
4.47139
  0
LINE
  8
0
 10
7.11807
 20
4.47139
 11
7.14226
 21
4.5141
  0
LINE
  8
0
 10
7.14226
 20
4.5141
 11
7.16852
 21
4.55556
  0
LINE
  8
0
 10
7.16852
 20
4.55556
 11
7.19678
 21
4.59569
  0
LINE
  8
0
 10
7.19678
 20
4.59569
 11
7.22697
 21
4.63438
  0
LINE
  8
0
 10
7.22697
 20
4.63438
 11
7.25905
 21
4.67155
  0
LINE
  8
0
 10
7.25905
 20
4.67155
 11
7.29289
 21
4.70709
  0
LINE
  8
0
 10
7.29289
 20
4.70709
 11
7.32843
 21
4.74094
  0
LINE
  8
0
 10
7.32843
 20
4.74094
 11
7.3656
 21
4.77301
  0
LINE
  8
0
 10
7.3656
 20
4.77301
 11
7.4043
 21
4.80321
  0
LINE
  8
0
 10
7.4043
 20
4.80321
 11
7.44443
 21
4.83147
  0
LINE
  8
0
 10
7.44443
 20
4.83147
 11
7.48589
 21
4.85773
  0
LINE
  8
0
 10
7.48589
 20
4.85773
 11
7.52859
 21
4.88191
  0
LINE
  8
0
 10
7.52859
 20
4.88191
 11
7.57243
 21
4.90398
  0
LINE
  8
0
 10
7.57243
 20
4.90398
 11
7.61731
 21
4.92387
  0
LINE
  8
0
 10
7.61731
 20
4.92387
 11
7.6631
 21
4.94154
  0
LINE
  8
0
 10
7.6631
 20
4.94154
 11
7.7097
 21
4.95694
  0
LINE
  8
0
 10
7.7097
 20
4.95694
 11
7.75702
 21
4.97002
  0
LINE
  8
0
 10
7.75702
 20
4.97002
 11
7.8049
 21
4.98077
  0
LINE
  8
0
 10
7.8049
 20
4.98077
 11
7.85326
 21
4.98917
  0
LINE
  8
0
 10
7.85326
 20
4.98917
 11
7.90198
 21
4.99518
  0
LINE
  8
0
 10
7.90198
 20
4.99518
 11
7.95093
 21
4.99879
  0
LINE
  8
0
 10
7.95093
 20
4.99879
 11
8
 21
5
  0
LINE
  8
0
 10
8
 20
5
 11
8.04906
 21
4.99879
  0
LINE
  8
0
 10
8.04906
 20
4.99879
 11
8.09801
 21
4.99518
  0
LINE
  8
0
 10
8.09801
 20
4.99518
 11
8.14673
 21
4.98917
  0
LINE
  8
0
 10
8.14673
 20
4.98917
 11
8.19508
 21
4.98077
  0
LINE
  8
0
 10
8.19508
 20
4.98077
 11
8.24297
 21
4.97002
  0
LINE
  8
0
 10
8.24297
 20
4.97002
 11
8.29028
 21
4.95694
  0
LINE
  8
0
 10
8.29028
 20
4.95694
 11
8.33688
 21
4.94154
  0
LINE
  8
0
 10
8.33688
 20
4.94154
 11
8.38268
 21
4.92387
  0
LINE
  8
0
 10
8.38268
 20
4.92387
 11
8.42755
 21
4.90398
  0
LINE
  8
0
 10
8.42755
 20
4.90398
 11
8.47139
 21
4.88191
  0
LINE
  8
0
 10
8.47139
 20
4.88191
 11
8.5141
 21
4.85773
  0
LINE
  8
0
 10
8.5141
 20
4.85773
 11
8.55556
 21
4.83147
  0
LINE
  8
0
 10
8.55556
 20
4.83147
 11
8.59569
 21
4.80321
  0
LINE
  8
0
 10
8.59569
 20
4.80321
 11
8.63438
 21
4.77301
  0
LINE
  8
0
 10
8.63438
 20
4.77301
 11
8.67155
 21
4.74094
  0
LINE
  8
0
 10
8.67155
 20
4.74094
 11
8.70709
 21
4.70709
  0
LINE
  8
0
 10
8.70709
 20
4.70709
 11
8.74094
 21
4.67155
  0
LINE
  8
0
 10
8.74094
 20
4.67155
 11
8.77301
 21
4.63438
  0
LINE
  8
0
 10
8.77301
 20
4.63438
 11
8.80321
 21
4.59569
  0
LINE
  8
0
 10
8.80321
 20
4.59569
 11
8.83147
 21
4.55556
  0
LINE
  8
0
 10
8.83147
 20
4.55556
 11
8.85773
 21
4.5141
  0
LINE
  8
0
 10
8.85773
 20
4.5141
 11
8.88191
 21
4.47139
  0
LINE
  8
0
 10
8.88191
 20
4.47139
 11
8.90398
 21
4.42755
  0
LINE
  8
0
 10
8.90398
 20
4.42755
 11
8.92387
 21
4.38268
  0
LINE
  8
0
 10
8.92387
 20
4.38268
 11
8.94154
 21
4.33688
  0
LINE
  8
0
 10
8.94154
 20
4.33688
 11
8.95694
 21
4.29028
  0
LINE
  8
0
 10
8.95694
 20
4.29028
 11
8.97002
 21
4.24297
  0
LINE
  8
0
 10
8.97002
 20
4.24297
 11
8.98077
 21
4.19508
  0
LINE
  8
0
 10
8.98077
 20
4.19508
 11
8.98917
 21
4.14673
  0
LINE
  8
0
 10
8.98917
 20
4.14673
 11
8.99518
 21
4.09801
  0
LINE
  8
0
 10
8.99518
 20
4.09801
 11
8.99879
 21
4.04906
  0
LINE
  8
0
 10
8.99879
 20
4.04906
 11
9
 21
4
  0
LINE
  8
0
 10
9
 20
4
 11
8.99879
 21
3.95093
  0
LINE
  8
0
 10
8.99879
 20
3.95093
 11
8.99518
 21
3.90198
  0
LINE
  8
0
 10
8.99518
 20
3.90198
 11
8.98917
 21
3.85326
  0
LINE
  8
0
 10
8.98917
 20
3.85326
 11
8.98077
 21
3.8049
  0
LINE
  8
0
 10
8.98077
 20
3.8049
 11
8.97002
 21
3.75702
  0
LINE
  8
0
 10
8.97002
 20
3.75702
 11
8.95694
 21
3.7097
  0
LINE
  8
0
 10
8.95694
 20
3.7097
 11
8.94154
 21
3.6631
  0
LINE
  8
0
 10
8.94154
 20
3.6631
 11
8.92387
 21
3.61731
  0
LINE
  8
0
 10
8.92387
 20
3.61731
 11
8.90398
 21
3.57243
  0
LINE
  8
0
 10
8.90398
 20
3.57243
 11
8.88191
 21
3.52859
  0
LINE
  8
0
 10
8.88191
 20
3.52859
 11
8.85773
 21
3.48589
  0
LINE
  8
0
 10
8.85773
 20
3.48589
 11
8.83147
 21
3.44443
  0
LINE
  8
0
 10
8.83147
 20
3.44443
 11
8.80321
 21
3.4043
  0
LINE
  8
0
 10
8.80321
 20
3.4043
 11
8.77301
 21
3.3656
  0
LINE
  8
0
 10
8.77301
 20
3.3656
 11
8.74094
 21
3.32843
  0
LINE
  8
0
 10
8.74094
 20
3.32843
 11
8.70709
 21
3.29289
  0
LINE
  8
0
 10
8.70709
 20
3.29289
 11
8.67155
 21
3.25905
  0
LINE
  8
0
 10
8.67155
 20
3.25905
 11
8.63438
 21
3.22697
  0
LINE
  8
0
 10
8.63438
 20
3.22697
 11
8.59569
 21
3.19678
  0
LINE
  8
0
 10
8.59569
 20
3.19678
 11
8.55556
 21
3.16852
  0
LINE
  8
0
 10
8.55556
 20
3.16852
 11
8.5141
 21
3.14226
  0
LINE
  8
0
 10
8.5141
 20
3.14226
 11
8.47139
 21
3.11807
  0
LINE
  8
0
 10
8.47139
 20
3.11807
 11
8.42755
 21
3.09601
  0
LINE
  8
0
 10
8.42755
 20
3.09601
 11
8.38268
 21
3.07611
  0
LINE
  8
0
 10
8.38268
 20
3.07611
 11
8.33688
 21
3.05844
  0
LINE
  8
0
 10
8.33688
 20
3.05844
 11
8.29028
 21
3.04305
  0
LINE
  8
0
 10
8.29028
 20
3.04305
 11
8.24297
 21
3.02997
  0
LINE
  8
0
 10
8.24297
 20
3.02997
 11
8.19508
 21
3.01921
  0
LINE
  8
0
 10
8.19508
 20
3.01921
 11
8.14673
 21
3.01082
  0
LINE
  8
0
 10
8.14673
 20
3.01082
 11
8.09801
 21
3.00481
  0
LINE
  8
0
 10
8.09801
 20
3.00481
 11
8.04906
 21
3.00119
  0
LINE
  8
0
 10
8.04906
 20
3.00119
 11
8
 21
3
  0
LINE
  8
0
 10
8
 20
3
 11
7.95093
 21
3.00119
  0
LINE
  8
0
 10
-8.04906
 20
-4.99879
 11
-8.09801
 21
-4.99518
  0
LINE
  8
0
 10
-8.09801
 20
-4.99518
 11
-8.14673
 21
-4.98917
  0
LINE
  8
0
 10
-8.14673
 20
-4.98917
 11
-8.19508
 21
-4.98077
  0
LINE
  8
0
 10
-8.19508
 20
-4.98077
 11
-8.24297
 21
-4.97002
  0
LINE
  8
0
 10
-8.24297
 20
-4.97002
 11
-8.29028
 21
-4.95694
  0
LINE
  8
0
 10
-8.29028
 20
-4.95694
 11
-8.33688
 21
-4.94154
  0
LINE
  8
0
 10
-8.33688
 20
-4.94154
 11
-8.38268
 21
-4.92387
  0
LINE
  8
0
 10
-8.38268
 20
-4.92387
 11
-8.42755
 21
-4.90398
  0
LINE
  8
0
 10
-8.42755
 20
-4.90398
 11
-8.47139
 21
-4.88191
  0
LINE
  8
0
 10
-8.47139
 20
-4.88191
 11
-8.5141
 21
-4.85773
  0
LINE
  8
0
 10
-8.5141
 20
-4.85773
 11
-8.55556
 21
-4.83147
  0
LINE
  8
0
 10
-8.55556
 20
-4.83147
 11
-8.59569
 21
-4.80321
  0
LINE
  8
0
 10
-8.59569
 20
-4.80321
 11
-8.63438
 21
-4.77301
  0
LINE
  8
0
 10
-8.63438
 20
-4.77301
 11
-8.67155
 21
-4.74094
  0
LINE
  8
0
 10
-8.67155
 20
-4.74094
 11
-8.70709
 21
-4.70709
  0
LINE
  8
0
 10
-8.70709
 20
-4.70709
 11
-8.74094
 21
-4.67155
  0
LINE
  8
0
 10
-8.74094
 20
-4.67155
 11
-8.77301
 21
-4.63438
  0
LINE
  8
0
 10
-8.77301
 20
-4.63438
 11
-8.80321
 21
-4.59569
  0
LINE
  8
0
 10
-8.80321
 20
-4.59569
 11
-8.83147
 21
-4.55556
  0
LINE
  8
0
 10
-8.83147
 20
-4.55556
 11
-8.85773
 21
-4.5141
  0
LINE
  8
0
 10
-8.85773
 20
-4.5141
 11
-8.88191
 21
-4.47139
  0
LINE
  8
0
 10
-8.88191
 20
-4.47139
 11
-8.90398
 21
-4.42755
  0
LINE
  8
0
 10
-8.90398
 20
-4.42755
 11
-8.92387
 21
-4.38268
  0
LINE
  8
0
 10
-8.92387
 20
-4.38268
 11
-8.94154
 21
-4.33688
  0
LINE
  8
0
 10
-8.94154
 20
-4.33688
 11
-8.95694
 21
-4.29028
  0
LINE
  8
0
 10
-8.95694
 20
-4.29028
 11
-8.97002
 21
-4.24297
  0
LINE
  8
0
 10
-8.97002
 20
-4.24297
 11
-8.98077
 21
-4.19508
  0
LINE
  8
0
 10
-8.98077
 20
-4.19508
 11
-8.98917
 21
-4.14673
  0
LINE
  8
0
 10
-8.98917
 20
-4.14673
 11
-8.99518
 21
-4.09801
  0
LINE
  8
0
 10
-8.99518
 20
-4.09801
 11
-8.99879
 21
-4.04906
  0
LINE
  8
0
 10
-8.99879
 20
-4.04906
 11
-9
 21
-4
  0
LINE
  8
0
 10
-9
 20
-4
 11
-8.99879
 21
-3.95093
  0
LINE
  8
0
 10
-8.99879
 20
-3.95093
 11
-8.99518
 21
-3.90198
  0
LINE
  8
0
 10
-8.99518
 20
-3.90198
 11
-8.98917
 21
-3.85326
  0
LINE
  8
0
 10
-8.98917
 20
-3.85326
 11
-8.98077
 21
-3.8049
  0
LINE
  8
0
 10
-8.98077
 20
-3.8049
 11
-8.97002
 21
-3.75702
  0
LINE
  8
0
 10
-8.97002
 20
-3.75702
 11
-8.95694
 21
-3.7097
  0
LINE
  8
0
 10
-8.95694
 20
-3.7097
 11
-8.94154
 21
-3.6631
  0
LINE
  8
0
 10
-8.94154
 20
-3.6631
 11
-8.92387
 21
-3.61731
  0
LINE
  8
0
 10
-8.92387
 20
-3.61731
 11
-8.90398
 21
-3.57243
  0
LINE
  8
0
 10
-8.90398
 20
-3.57243
 11
-8.88191
 21
-3.52859
  0
LINE
  8
0
 10
-8.88191
 20
-3.52859
 11
-8.85773
 21
-3.48589
  0
LINE
  8
0
 10
-8.85773
 20
-3.48589
 11
-8.83147
 21
-3.44443
  0
LINE
  8
0
 10
-8.83147
 20
-3.44443
 11
-8.80321
 21
-3.4043
  0
LINE
  8
0
 10
-8.80321
 20
-3.4043
 11
-8.77301
 21
-3.3656
  0
LINE
  8
0
 10
-8.77301
 20
-3.3656
 11
-8.74094
 21
-3.32843
  0
LINE
  8
0
 10
-8.74094
 20
-3.32843
 11
-8.70709
 21
-3.29289
  0
LINE
  8
0
 10
-8.70709
 20
-3.29289
 11
-8.67155
 21
-3.25905
  0
LINE
  8
0
 10
-8.67155
 20
-3.25905
 11
-8.63438
 21
-3.22697
  0
LINE
  8
0
 10
-8.63438
 20
-3.22697
 11
-8.59569
 21
-3.19678
  0
LINE
  8
0
 10
-8.59569
 20
-3.19678
 11
-8.55556
 21
-3.16852
  0
LINE
  8
0
 10
-8.55556
 20
-3.16852
 11
-8.5141
 21
-3.14226
  0
LINE
  8
0
 10
-8.5141
 20
-3.14226
 11
-8.47139
 21
-3.11807
  0
LINE
  8
0
 10
-8.47139
 20
-3.11807
 11
-8.42755
 21
-3.09601
  0
LINE
  8
0
 10
-8.42755
 20
-3.09601
 11
-8.38268
 21
-3.07611
  0
LINE
  8
0
 10
-8.38268
 20
-3.07611
 11
-8.33688
 21
-3.05844
  0
LINE
  8
0
 10
-8.33688
 20
-3.05844
 11
-8.29028
 21
-3.04305
  0
LINE
  8
0
 10
-8.29028
 20
-3.04305
 11
-8.24297
 21
-3.02997
  0
LINE
  8
0
 10
-8.24297
 20
-3.02997
 11
-8.19508
 21
-3.01921
  0
LINE
  8
0
 10
-8.19508
 20
-3.01921
 11
-8.14673
 21
-3.01082
  0
LINE
  8
0
 10
-8.14673
 20
-3.01082
 11
-8.09801
 21
-3.00481
  0
LINE
  8
0
 10
-8.09801
 20
-3.00481
 11
-8.04906
 21
-3.00119
  0
LINE
  8
0
 10
-8.04906
 20
-3.00119
 11
-8
 21
-3
  0
LINE
  8
0
 10
-8
 20
-3
 11
-7.95093
 21
-3.00119
  0
LINE
  8
0
 10
-7.95093
 20
-3.00119
 11
-7.90198
 21
-3.00481
  0
LINE
  8
0
 10
-7.90198
 20
-3.00481
 11
-7.85326
 21
-3.01082
  0
LINE
  8
0
 10
-7.85326
 20
-3.01082
 11
-7.8049
 21
-3.01921
  0
LINE
  8
0
 10
-7.8049
 20
-3.01921
 11
-7.75702
 21
-3.02997
  0
LINE
  8
0
 10
-7.75702
 20
-3.02997
 11
-7.7097
 21
-3.04305
  0
LINE
  8
0
 10
-7.7097
 20
-3.04305
 11
-7.6631
 21
-3.05844
  0
LINE
  8
0
 10
-7.6631
 20
-3.05844
 11
-7.61731
 21
-3.07611
  0
LINE
  8
0
 10
-7.61731
 20
-3.07611
 11
-7.57243
 21
-3.09601
  0
LINE
  8
0
 10
-7.57243
 20
-3.09601
 11
-7.52859
 21
-3.11807
  0
LINE
  8
0
 10
-7.52859
 20
-3.11807
 11
-7.48589
 21
-3.14226
  0
LINE
  8
0
 10
-7.48589
 20
-3.14226
 11
-7.44443
 21
-3.16852
  0
LINE
  8
0
 10
-7.44443
 20
-3.16852
 11
-7.4043
 21
-3.19678
  0
LINE
  8
0
 10
-7.4043
 20
-3.19678
 11
-7.3656
 21
-3.22697
  0
LINE
  8
0
 10
-7.3656
 20
-3.22697
 11
-7.32843
 21
-3.25905
  0
LINE
  8
0
 10
-7.32843
 20
-3.25905
 11
-7.29289
 21
-3.29289
  0
LINE
  8
0
 10
-7.29289
 20
-3.29289
 11
-7.25905
 21
-3.32843
  0
LINE
  8
0
 10
-7.25905
 20
-3.32843
 11
-7.22697
 21
-3.3656
  0
LINE
  8
0
 10
-7.22697
 20
-3.3656
 11
-7.19678
 21
-3.4043
  0
LINE
  8
0
 10
-7.19678
 20
-3.4043
 11
-7.16852
 21
-3.44443
  0
LINE
  8
0
 10
-7.16852
 20
-3.44443
 11
-7.14226
 21
-3.48589
  0
LINE
  8
0
 10
-7.14226
 20
-3.48589
 11
-7.11807
 21
-3.52859
  0
LINE
  8
0
 10
-7.11807
 20
-3.52859
 11
-7.09601
 21
-3.57243
  0
LINE
  8
0
 10
-7.09601
 20
-3.57243
 11
-7.07611
 21
-3.61731
  0
LINE
  8
0
 10
-7.07611
 20
-3.61731
 11
-7.05844
 21
-3.6631
  0
LINE
  8
0
 10
-7.05844
 20
-3.6631
 11
-7.04305
 21
-3.7097
  0
LINE
  8
0
 10
-7.04305
 20
-3.7097
 11
-7.02997
 21
-3.75702
  0
LINE
  8
0
 10
-7.02997
 20
-3.75702
 11
-7.01921
 21
-3.8049
  0
LINE
  8
0
 10
-7.01921
 20
-3.8049
 11
-7.01082
 21
-3.85326
  0
LINE
  8
0
 10
-7.01082
 20
-3.85326
 11
-7.00481
 21
-3.90198
  0
LINE
  8
0
 10
-7.00481
 20
-3.90198
 11
-7.00119
 21
-3.95093
  0
LINE
  8
0
 10
-7.00119
 20
-3.95093
 11
-7
 21
-4
  0
LINE
  8
0
 10
-7
 20
-4
 11
-7.00119
 21
-4.04906
  0
LINE
  8
0
 10
-7.00119
 20
-4.04906
 11
-7.00481
 21
-4.09801
  0
LINE
  8
0
 10
-7.00481
 20
-4.09801
 11
-7.01082
 21
-4.14673
  0
LINE
  8
0
 10
-7.01082
 20
-4.14673
 11
-7.01921
 21
-4.19508
  0
LINE
  8
0
 10
-7.01921
 20
-4.19508
 11
-7.02997
 21
-4.24297
  0
LINE
  8
0
 10
-7.02997
 20
-4.24297
 11
-7.04305
 21
-4.29028
  0
LINE
  8
0
 10
-7.04305
 20
-4.29028
 11
-7.05844
 21
-4.33688
  0
LINE
  8
0
 10
-7.05844
 20
-4.33688
 11
-7.07611
 21
-4.38268
  0
LINE
  8
0
 10
-7.07611
 20
-4.38268
 11
-7.09601
 21
-4.42755
  0
LINE
  8
0
 10
-7.09601
 20
-4.42755
 11
-7.11807
 21
-4.47139
  0
LINE
  8
0
 10
-7.11807
 20
-4.47139
 11
-7.14226
 21
-4.5141
  0
LINE
  8
0
 10
-7.14226
 20
-4.5141
 11
-7.16852
 21
-4.55556
  0
LINE
  8
0
 10
-7.16852
 20
-4.55556
 11
-7.19678
 21
-4.59569
  0
LINE
  8
0
 10
-7.19678
 20
-4.59569
 11
-7.22697
 21
-4.63438
  0
LINE
  8
0
 10
-7.22697
 20
-4.63438
 11
-7.25905
 21
-4.67155
  0
LINE
  8
0
 10
-7.25905
 20
-4.67155
 11
-7.29289
 21
-4.70709
  0
LINE
  8
0
 10
-7.29289
 20
-4.70709
 11
-7.32843
 21
-4.74094
  0
LINE
  8
0
 10
-7.32843
 20
-4.74094
 11
-7.3656
 21
-4.77301
  0
LINE
  8
0
 10
-7.3656
 20
-4.77301
 11
-7.4043
 21
-4.80321
  0
LINE
  8
0
 10
-7.4043
 20
-4.80321
 11
-7.44443
 21
-4.83147
  0
LINE
  8
0
 10
-7.44443
 20
-4.83147
 11
-7.48589
 21
-4.85773
  0
LINE
  8
0
 10
-7.48589
 20
-4.85773
 11
-7.52859
 21
-4.88191
  0
LINE
  8
0
 10
-7.52859
 20
-4.88191
 11
-7.57243
 21
-4.90398
  0
LINE
  8
0
 10
-7.57243
 20
-4.90398
 11
-7.61731
 21
-4.92387
  0
LINE
  8
0
 10
-7.61731
 20
-4.92387
 11
-7.6631
 21
-4.94154
  0
LINE
  8
0
 10
-7.6631
 20
-4.94154
 11
-7.7097
 21
-4.95694
  0
LINE
  8
0
 10
-7.7097
 20
-4.95694
 11
-7.75702
 21
-4.97002
  0
LINE
  8
0
 10
-7.75702
 20
-4.97002
 11
-7.8049
 21
-4.98077
  0
LINE
  8
0
 10
-7.8049
 20
-4.98077
 11
-7.85326
 21
-4.98917
  0
LINE
  8
0
 10
-7.85326
 20
-4.98917
 11
-7.90198
 21
-4.99518
  0
LINE
  8
0
 10
-7.90198
 20
-4.99518
 11
-7.95093
 21
-4.99879
  0
LINE
  8
0
 10
-7.95093
 20
-4.99879
 11
-8
 21
-5
  0
LINE
  8
0
 10
-8
 20
-5
 11
-8.04906
 21
-4.99879
  0
LINE
  8
0
 10
3.95093
 20
-8.99879
 11
3.90198
 21
-8.99518
  0
LINE
  8
0
 10
3.90198
 20
-8.99518
 11
3.85326
 21
-8.98917
  0
LINE
  8
0
 10
3.85326
 20
-8.98917
 11
3.8049
 21
-8.98077
  0
LINE
  8
0
 10
3.8049
 20
-8.98077
 11
3.75702
 21
-8.97002
  0
LINE
  8
0
 10
3.75702
 20
-8.97002
 11
3.7097
 21
-8.95694
  0
LINE
  8
0
 10
3.7097
 20
-8.95694
 11
3.6631
 21
-8.94154
  0
LINE
  8
0
 10
3.6631
 20
-8.94154
 11
3.61731
 21
-8.92387
  0
LINE
  8
0
 10
3.61731
 20
-8.92387
 11
3.57243
 21
-8.90398
  0
LINE
  8
0
 10
3.57243
 20
-8.90398
 11
3.52859
 21
-8.88191
  0
LINE
  8
0
 10
3.52859
 20
-8.88191
 11
3.48589
 21
-8.85773
  0
LINE
  8
0
 10
3.48589
 20
-8.85773
 11
3.44443
 21
-8.83147
  0
LINE
  8
0
 10
3.44443
 20
-8.83147
 11
3.4043
 21
-8.80321
  0
LINE
  8
0
 10
3.4043
 20
-8.80321
 11
3.3656
 21
-8.77301
  0
LINE
  8
0
 10
3.3656
 20
-8.77301
 11
3.32843
 21
-8.74094
  0
LINE
  8
0
 10
3.32843
 20
-8.74094
 11
3.29289
 21
-8.70709
  0
LINE
  8
0
 10
3.29289
 20
-8.70709
 11
3.25905
 21
-8.67155
  0
LINE
  8
0
 10
3.25905
 20
-8.67155
 11
3.22697
 21
-8.63438
  0
LINE
  8
0
 10
3.22697
 20
-8.63438
 11
3.19678
 21
-8.59569
  0
LINE
  8
0
 10
3.19678
 20
-8.59569
 11
3.16852
 21
-8.55556
  0
LINE
  8
0
 10
3.16852
 20
-8.55556
 11
3.14226
 21
-8.5141
  0
LINE
  8
0
 10
3.14226
 20
-8.5141
 11
3.11807
 21
-8.47139
  0
LINE
  8
0
 10
3.11807
 20
-8.47139
 11
3.09601
 21
-8.42755
  0
LINE
  8
0
 10
3.09601
 20
-8.42755
 11
3.07611
 21
-8.38268
  0
LINE
  8
0
 10
3.07611
 20
-8.38268
 11
3.05844
 21
-8.33688
  0
LINE
  8
0
 10
3.05844
 20
-8.33688
 11
3.04305
 21
-8.29028
  0
LINE
  8
0
 10
3.04305
 20
-8.29028
 11
3.02997
 21
-8.24297
  0
LINE
  8
0
 10
3.02997
 20
-8.24297
 11
3.01921
 21
-8.19508
  0
LINE
  8
0
 10
3.01921
 20
-8.19508
 11
3.01082
 21
-8.14673
  0
LINE
  8
0
 10
3.01082
 20
-8.14673
 11
3.00481
 21
-8.09801
  0
LINE
  8
0
 10
3.00481
 20
-8.09801
 11
3.00119
 21
-8.04906
  0
LINE
  8
0
 10
3.00119
 20
-8.04906
 11
3
 21
-8
  0
LINE
  8
0
 10
3
 20
-8
 11
3.00119
 21
-7.95093
  0
LINE
  8
0
 10
3.00119
 20
-7.95093
 11
3.00481
 21
-7.90198
  0
LINE
  8
0
 10
3.00481
 20
-7.90198
 11
3.01082
 21
-7.85326
  0
LINE
  8
0
 10
3.01082
 20
-7.85326
 11
3.01921
 21
-7.8049
  0
LINE
  8
0
 10
3.01921
 20
-7.8049
 11
3.02997
 21
-7.75702
  0
LINE
  8
0
 10
3.02997
 20
-7.75702
 11
3.04305
 21
-7.7097
  0
LINE
  8
0
 10
3.04305
 20
-7.7097
 11
3.05844
 21
-7.6631
  0
LINE
  8
0
 10
3.05844
 20
-7.6631
 11
3.07611
 21
-7.61731
  0
LINE
  8
0
 10
3.07611
 20
-7.61731
 11
3.09601
 21
-7.57243
  0
LINE
  8
0
 10
3.09601
 20
-7.57243
 11
3.11807
 21
-7.52859
  0
LINE
  8
0
 10
3.11807
 20
-7.52859
 11
3.14226
 21
-7.48589
  0
LINE
  8
0
 10
3.14226
 20
-7.48589
 11
3.16852
 21
-7.44443
  0
LINE
  8
0
 10
3.16852
 20
-7.44443
 11
3.19678
 21
-7.4043
  0
LINE
  8
0
 10
3.19678
 20
-7.4043
 11
3.22697
 21
-7.3656
  0
LINE
  8
0
 10
3.22697
 20
-7.3656
 11
3.25905
 21
-7.32843
  0
LINE
  8
0
 10
3.25905
 20
-7.32843
 11
3.29289
 21
-7.29289
  0
LINE
  8
0
 10
3.29289
 20
-7.29289
 11
3.32843
 21
-7.25905
  0
LINE
  8
0
 10
3.32843
 20
-7.25905
 11
3.3656
 21
-7.22697
  0
LINE
  8
0
 10
3.3656
 20
-7.22697
 11
3.4043
 21
-7.19678
  0
LINE
  8
0
 10
3.4043
 20
-7.19678
 11
3.44443
 21
-7.16852
  0
LINE
  8
0
 10
3.44443
 20
-7.16852
 11
3.48589
 21
-7.14226
  0
LINE
  8
0
 10
3.48589
 20
-7.14226
 11
3.52859
 21
-7.11807
  0
LINE
  8
0
 10
3.52859
 20
-7.11807
 11
3.57243
 21
-7.09601
  0
LINE
  8
0
 10
3.57243
 20
-7.09601
 11
3.61731
 21
-7.07611
  0
LINE
  8
0
 10
3.61731
 20
-7.07611
 11
3.6631
 21
-7.05844
  0
LINE
  8
0
 10
3.6631
 20
-7.05844
 11
3.7097
 21
-7.04305
  0
LINE
  8
0
 10
3.7097
 20
-7.04305
 11
3.75702
 21
-7.02997
  0
LINE
  8
0
 10
3.75702
 20
-7.02997
 11
3.8049
 21
-7.01921
  0
LINE
  8
0
 10
3.8049
 20
-7.01921
 11
3.85326
 21
-7.01082
  0
LINE
  8
0
 10
3.85326
 20
-7.01082
 11
3.90198
 21
-7.00481
  0
LINE
  8
0
 10
3.90198
 20
-7.00481
 11
3.95093
 21
-7.00119
  0
LINE
  8
0
 10
3.95093
 20
-7.00119
 11
4
 21
-7
  0
LINE
  8
0
 10
4
 20
-7
 11
4.04906
 21
-7.00119
  0
LINE
  8
0
 10
4.04906
 20
-7.00119
 11
4.09801
 21
-7.00481
  0
LINE
  8
0
 10
4.09801
 20
-7.00481
 11
4.14673
 21
-7.01082
  0
LINE
  8
0
 10
4.14673
 20
-7.01082
 11
4.19508
 21
-7.01921
  0
LINE
  8
0
 10
4.19508
 20
-7.01921
 11
4.24297
 21
-7.02997
  0
LINE
  8
0
 10
4.24297
 20
-7.02997
 11
4.29028
 21
-7.04305
  0
LINE
  8
0
 10
4.29028
 20
-7.04305
 11
4.33688
 21
-7.05844
  0
LINE
  8
0
 10
4.33688
 20
-7.05844
 11
4.38268
 21
-7.07611
  0
LINE
  8
0
 10
4.38268
 20
-7.07611
 11
4.42755
 21
-7.09601
  0
LINE
  8
0
 10
4.42755
 20
-7.09601
 11
4.47139
 21
-7.11807
  0
LINE
  8
0
 10
4.47139
 20
-7.11807
 11
4.5141
 21
-7.14226
  0
LINE
  8
0
 10
4.5141
 20
-7.14226
 11
4.55556
 21
-7.16852
  0
LINE
  8
0
 10
4.55556
 20
-7.16852
 11
4.59569
 21
-7.19678
  0
LINE
  8
0
 10
4.59569
 20
-7.19678
 11
4.63438
 21
-7.22697
  0
LINE
  8
0
 10
4.63438
 20
-7.22697
 11
4.67155
 21
-7.25905
  0
LINE
  8
0
 10
4.67155
 20
-7.25905
 11
4.70709
 21
-7.29289
  0
LINE
  8
0
 10
4.70709
 20
-7.29289
 11
4.74094
 21
-7.32843
  0
LINE
  8
0
 10
4.74094
 20
-7.32843
 11
4.77301
 21
-7.3656
  0
LINE
  8
0
 10
4.77301
 20
-7.3656
 11
4.80321
 21
-7.4043
  0
LINE
  8
0
 10
4.80321
 20
-7.4043
 11
4.83147
 21
-7.44443
  0
LINE
  8
0
 10
4.83147
 20
-7.44443
 11
4.85773
 21
-7.48589
  0
LINE
  8
0
 10
4.85773
 20
-7.48589
 11
4.88191
 21
-7.52859
  0
LINE
  8
0
 10
4.88191
 20
-7.52859
 11
4.90398
 21
-7.57243
  0
LINE
  8
0
 10
4.90398
 20
-7.57243
 11
4.92387
 21
-7.61731
  0
LINE
  8
0
 10
4.92387
 20
-7.61731
 11
4.94154
 21
-7.6631
  0
LINE
  8
0
 10
4.94154
 20
-7.6631
 11
4.95694
 21
-7.7097
  0
LINE
  8
0
 10
4.95694
 20
-7.7097
 11
4.97002
 21
-7.75702
  0
LINE
  8
0
 10
4.97002
 20
-7.75702
 11
4.98077
 21
-7.8049
  0
LINE
  8
0
 10
4.98077
 20
-7.8049
 11
4.98917
 21
-7.85326
  0
LINE
  8
0
 10
4.98917
 20
-7.85326
 11
4.99518
 21
-7.90198
  0
LINE
  8
0
 10
4.99518
 20
-7.90198
 11
4.99879
 21
-7.95093
  0
LINE
  8
0
 10
4.99879
 20
-7.95093
 11
5
 21
-8
  0
LINE
  8
0
 10
5
 20
-8
 11
4.99879
 21
-8.04906
  0
LINE
  8
0
 10
4.99879
 20
-8.04906
 11
4.99518
 21
-8.09801
  0
LINE
  8
0
 10
4.99518
 20
-8.09801
 11
4.98917
 21
-8.14673
  0
LINE
  8
0
 10
4.98917
 20
-8.14673
 11
4.98077
 21
-8.19508
  0
LINE
  8
0
 10
4.98077
 20
-8.19508
 11
4.97002
 21
-8.24297
  0
LINE
  8
0
 10
4.97002
 20
-8.24297
 11
4.95694
 21
-8.29028
  0
LINE
  8
0
 10
4.95694
 20
-8.29028
 11
4.94154
 21
-8.33688
  0
LINE
  8
0
 10
4.94154
 20
-8.33688
 11
4.92387
 21
-8.38268
  0
LINE
  8
0
 10
4.92387
 20
-8.38268
 11
4.90398
 21
-8.42755
  0
LINE
  8
0
 10
4.90398
 20
-8.42755
 11
4.88191
 21
-8.47139
  0
LINE
  8
0
 10
4.88191
 20
-8.47139
 11
4.85773
 21
-8.5141
  0
LINE
  8
0
 10
4.85773
 20
-8.5141
 11
4.83147
 21
-8.55556
  0
LINE
  8
0
 10
4.83147
 20
-8.55556
 11
4.80321
 21
-8.59569
  0
LINE
  8
0
 10
4.80321
 20
-8.59569
 11
4.77301
 21
-8.63438
  0
LINE
  8
0
 10
4.77301
 20
-8.63438
 11
4.74094
 21
-8.67155
  0
LINE
  8
0
 10
4.74094
 20
-8.67155
 11
4.70709
 21
-8.70709
  0
LINE
  8
0
 10
4.70709
 20
-8.70709
 11
4.67155
 21
-8.74094
  0
LINE
  8
0
 10
4.67155
 20
-8.74094
 11
4.63438
 21
-8.77301
  0
LINE
  8
0
 10
4.63438
 20
-8.77301
 11
4.59569
 21
-8.80321
  0
LINE
  8
0
 10
4.59569
 20
-8.80321
 11
4.55556
 21
-8.83147
  0
LINE
  8
0
 10
4.55556
 20
-8.83147
 11
4.5141
 21
-8.85773
  0
LINE
  8
0
 10
4.5141
 20
-8.85773
 11
4.47139
 21
-8.88191
  0
LINE
  8
0
 10
4.47139
 20
-8.88191
 11
4.42755
 21
-8.90398
  0
LINE
  8
0
 10
4.42755
 20
-8.90398
 11
4.38268
 21
-8.92387
  0
LINE
  8
0
 10
4.38268
 20
-8.92387
 11
4.33688
 21
-8.94154
  0
LINE
  8
0
 10
4.33688
 20
-8.94154
 11
4.29028
 21
-8.95694
  0
LINE
  8
0
 10
4.29028
 20
-8.95694
 11
4.24297
 21
-8.97002
  0
LINE
  8
0
 10
4.24297
 20
-8.97002
 11
4.19508
 21
-8.98077
  0
LINE
  8
0
 10
4.19508
 20
-8.98077
 11
4.14673
 21
-8.98917
  0
LINE
  8
0
 10
4.14673
 20
-8.98917
 11
4.09801
 21
-8.99518
  0
LINE
  8
0
 10
4.09801
 20
-8.99518
 11
4.04906
 21
-8.99879
  0
LINE
  8
0
 10
4.04906
 20
-8.99879
 11
4
 21
-9
  0
LINE
  8
0
 10
4
 20
-9
 11
3.95093
 21
-8.99879
  0
ENDSEC
  0
SECTION
  2
OBJECTS
  0
DICTIONARY
  0
ENDSEC
  0
EOF
