  0
SECTION
  2
BLOCKS
  0
ENDSEC
  0
SECTION
  2
ENTITIES
  0
LINE
  8
0
 10
12
 20
-8
 11
12
 21
8
  0
LINE
  8
0
 10
12
 20
8
 11
8
 21
12
  0
LINE
  8
0
 10
8
 20
12
 11
12
 21
16
  0
LINE
  8
0
 10
12
 20
16
 11
12
 21
32
  0
LINE
  8
0
 10
12
 20
32
 11
8
 21
36
  0
LINE
  8
0
 10
8
 20
36
 11
12
 21
40
  0
LINE
  8
0
 10
12
 20
40
 11
12
 21
56
  0
LINE
  8
0
 10
12
 20
56
 11
8
 21
60
  0
LINE
  8
0
 10
8
 20
60
 11
12
 21
64
  0
LINE
  8
0
 10
12
 20
64
 11
12
 21
80
  0
LINE
  8
0
 10
12
 20
80
 11
8
 21
84
  0
LINE
  8
0
 10
8
 20
84
 11
-8
 21
84
  0
LINE
  8
0
 10
-8
 20
84
 11
-12
 21
80
  0
LINE
  8
0
 10
-12
 20
80
 11
-12
 21
64
  0
LINE
  8
0
 10
-12
 20
64
 11
-8
 21
60
  0
LINE
  8
0
 10
-8
 20
60
 11
-12
 21
56
  0
LINE
  8
0
 10
-12
 20
56
 11
-12
 21
40
  0
LINE
  8
0
 10
-12
 20
40
 11
-8
 21
36
  0
LINE
  8
0
 10
-8
 20
36
 11
-12
 21
32
  0
LINE
  8
0
 10
-12
 20
32
 11
-12
 21
16
  0
LINE
  8
0
 10
-12
 20
16
 11
-8
 21
12
  0
LINE
  8
0
 10
-8
 20
12
 11
-12
 21
8
  0
LINE
  8
0
 10
-12
 20
8
 11
-12
 21
-8
  0
LINE
  8
0
 10
-12
 20
-8
 11
-8
 21
-12
  0
LINE
  8
0
 10
-8
 20
-12
 11
8
 21
-12
  0
LINE
  8
0
 10
8
 20
-12
 11
12
 21
-8
  0
LINE
  8
0
 10
-4.04906
 20
79.0012
 11
-4.09801
 21
79.0048
  0
LINE
  8
0
 10
-4.09801
 20
79.0048
 11
-4.14673
 21
79.0108
  0
LINE
  8
0
 10
-4.14673
 20
79.0108
 11
-4.19508
 21
79.0192
  0
LINE
  8
0
 10
-4.19508
 20
79.0192
 11
-4.24297
 21
79.03
  0
LINE
  8
0
 10
-4.24297
 20
79.03
 11
-4.29028
 21
79.0431
  0
LINE
  8
0
 10
-4.29028
 20
79.0431
 11
-4.33688
 21
79.0585
  0
LINE
  8
0
 10
-4.33688
 20
79.0585
 11
-4.38268
 21
79.0761
  0
LINE
  8
0
 10
-4.38268
 20
79.0761
 11
-4.42755
 21
79.096
  0
LINE
  8
0
 10
-4.42755
 20
79.096
 11
-4.47139
 21
79.1181
  0
LINE
  8
0
 10
-4.47139
 20
79.1181
 11
-4.5141
 21
79.1423
  0
LINE
  8
0
 10
-4.5141
 20
79.1423
 11
-4.55556
 21
79.1685
  0
LINE
  8
0
 10
-4.55556
 20
79.1685
 11
-4.59569
 21
79.1968
  0
LINE
  8
0
 10
-4.59569
 20
79.1968
 11
-4.63438
 21
79.227
  0
LINE
  8
0
 10
-4.63438
 20
79.227
 11
-4.67155
 21
79.259
  0
LINE
  8
0
 10
-4.67155
 20
79.259
 11
-4.70709
 21
79.2929
  0
LINE
  8
0
 10
-4.70709
 20
79.2929
 11
-4.74094
 21
79.3284
  0
LINE
  8
0
 10
-4.74094
 20
79.3284
 11
-4.77301
 21
79.3656
  0
LINE
  8
0
 10
-4.77301
 20
79.3656
 11
-4.80321
 21
79.4043
  0
LINE
  8
0
 10
-4.80321
 20
79.4043
 11
-4.83147
 21
79.4444
  0
LINE
  8
0
 10
-4.83147
 20
79.4444
 11
-4.85773
 21
79.4859
  0
LINE
  8
0
 10
-4.85773
 20
79.4859
 11
-4.88191
 21
79.5286
  0
LINE
  8
0
 10
-4.88191
 20
79.5286
 11
-4.90398
 21
79.5724
  0
LINE
  8
0
 10
-4.90398
 20
79.5724
 11
-4.92387
 21
79.6173
  0
LINE
  8
0
 10
-4.92387
 20
79.6173
 11
-4.94154
 21
79.6631
  0
LINE
  8
0
 10
-4.94154
 20
79.6631
 11
-4.95694
 21
79.7097
  0
LINE
  8
0
 10
-4.95694
 20
79.7097
 11
-4.97002
 21
79.757
  0
LINE
  8
0
 10
-4.97002
 20
79.757
 11
-4.98077
 21
79.8049
  0
LINE
  8
0
 10
-4.98077
 20
79.8049
 11
-4.98917
 21
79.8533
  0
LINE
  8
0
 10
-4.98917
 20
79.8533
 11
-4.99518
 21
79.902
  0
LINE
  8
0
 10
-4.99518
 20
79.902
 11
-4.99879
 21
79.9509
  0
LINE
  8
0
 10
-4.99879
 20
79.9509
 11
-5
 21
80
  0
LINE
  8
0
 10
-5
 20
80
 11
-4.99879
 21
80.0491
  0
LINE
  8
0
 10
-4.99879
 20
80.0491
 11
-4.99518
 21
80.098
  0
LINE
  8
0
 10
-4.99518
 20
80.098
 11
-4.98917
 21
80.1467
  0
LINE
  8
0
 10
-4.98917
 20
80.1467
 11
-4.98077
 21
80.1951
  0
LINE
  8
0
 10
-4.98077
 20
80.1951
 11
-4.97002
 21
80.243
  0
LINE
  8
0
 10
-4.97002
 20
80.243
 11
-4.95694
 21
80.2903
  0
LINE
  8
0
 10
-4.95694
 20
80.2903
 11
-4.94154
 21
80.3369
  0
LINE
  8
0
 10
-4.94154
 20
80.3369
 11
-4.92387
 21
80.3827
  0
LINE
  8
0
 10
-4.92387
 20
80.3827
 11
-4.90398
 21
80.4276
  0
LINE
  8
0
 10
-4.90398
 20
80.4276
 11
-4.88191
 21
80.4714
  0
LINE
  8
0
 10
-4.88191
 20
80.4714
 11
-4.85773
 21
80.5141
  0
LINE
  8
0
 10
-4.85773
 20
80.5141
 11
-4.83147
 21
80.5556
  0
LINE
  8
0
 10
-4.83147
 20
80.5556
 11
-4.80321
 21
80.5957
  0
LINE
  8
0
 10
-4.80321
 20
80.5957
 11
-4.77301
 21
80.6344
  0
LINE
  8
0
 10
-4.77301
 20
80.6344
 11
-4.74094
 21
80.6716
  0
LINE
  8
0
 10
-4.74094
 20
80.6716
 11
-4.70709
 21
80.7071
  0
LINE
  8
0
 10
-4.70709
 20
80.7071
 11
-4.67155
 21
80.741
  0
LINE
  8
0
 10
-4.67155
 20
80.741
 11
-4.63438
 21
80.773
  0
LINE
  8
0
 10
-4.63438
 20
80.773
 11
-4.59569
 21
80.8032
  0
LINE
  8
0
 10
-4.59569
 20
80.8032
 11
-4.55556
 21
80.8315
  0
LINE
  8
0
 10
-4.55556
 20
80.8315
 11
-4.5141
 21
80.8577
  0
LINE
  8
0
 10
-4.5141
 20
80.8577
 11
-4.47139
 21
80.8819
  0
LINE
  8
0
 10
-4.47139
 20
80.8819
 11
-4.42755
 21
80.904
  0
LINE
  8
0
 10
-4.42755
 20
80.904
 11
-4.38268
 21
80.9239
  0
LINE
  8
0
 10
-4.38268
 20
80.9239
 11
-4.33688
 21
80.9415
  0
LINE
  8
0
 10
-4.33688
 20
80.9415
 11
-4.29028
 21
80.9569
  0
LINE
  8
0
 10
-4.29028
 20
80.9569
 11
-4.24297
 21
80.97
  0
LINE
  8
0
 10
-4.24297
 20
80.97
 11
-4.19508
 21
80.9808
  0
LINE
  8
0
 10
-4.19508
 20
80.9808
 11
-4.14673
 21
80.9892
  0
LINE
  8
0
 10
-4.14673
 20
80.9892
 11
-4.09801
 21
80.9952
  0
LINE
  8
0
 10
-4.09801
 20
80.9952
 11
-4.04906
 21
80.9988
  0
LINE
  8
0
 10
-4.04906
 20
80.9988
 11
-4
 21
81
  0
LINE
  8
0
 10
-4
 20
81
 11
-3.95093
 21
80.9988
  0
LINE
  8
0
 10
-3.95093
 20
80.9988
 11
-3.90198
 21
80.9952
  0
LINE
  8
0
 10
-3.90198
 20
80.9952
 11
-3.85326
 21
80.9892
  0
LINE
  8
0
 10
-3.85326
 20
80.9892
 11
-3.8049
 21
80.9808
  0
LINE
  8
0
 10
-3.8049
 20
80.9808
 11
-3.75702
 21
80.97
  0
LINE
  8
0
 10
-3.75702
 20
80.97
 11
-3.7097
 21
80.9569
  0
LINE
  8
0
 10
-3.7097
 20
80.9569
 11
-3.6631
 21
80.9415
  0
LINE
  8
0
 10
-3.6631
 20
80.9415
 11
-3.61731
 21
80.9239
  0
LINE
  8
0
 10
-3.61731
 20
80.9239
 11
-3.57243
 21
80.904
  0
LINE
  8
0
 10
-3.57243
 20
80.904
 11
-3.52859
 21
80.8819
  0
LINE
  8
0
 10
-3.52859
 20
80.8819
 11
-3.48589
 21
80.8577
  0
LINE
  8
0
 10
-3.48589
 20
80.8577
 11
-3.44443
 21
80.8315
  0
LINE
  8
0
 10
-3.44443
 20
80.8315
 11
-3.4043
 21
80.8032
  0
LINE
  8
0
 10
-3.4043
 20
80.8032
 11
-3.3656
 21
80.773
  0
LINE
  8
0
 10
-3.3656
 20
80.773
 11
-3.32843
 21
80.741
  0
LINE
  8
0
 10
-3.32843
 20
80.741
 11
-3.29289
 21
80.7071
  0
LINE
  8
0
 10
-3.29289
 20
80.7071
 11
-3.25905
 21
80.6716
  0
LINE
  8
0
 10
-3.25905
 20
80.6716
 11
-3.22697
 21
80.6344
  0
LINE
  8
0
 10
-3.22697
 20
80.6344
 11
-3.19678
 21
80.5957
  0
LINE
  8
0
 10
-3.19678
 20
80.5957
 11
-3.16852
 21
80.5556
  0
LINE
  8
0
 10
-3.16852
 20
80.5556
 11
-3.14226
 21
80.5141
  0
LINE
  8
0
 10
-3.14226
 20
80.5141
 11
-3.11807
 21
80.4714
  0
LINE
  8
0
 10
-3.11807
 20
80.4714
 11
-3.09601
 21
80.4276
  0
LINE
  8
0
 10
-3.09601
 20
80.4276
 11
-3.07611
 21
80.3827
  0
LINE
  8
0
 10
-3.07611
 20
80.3827
 11
-3.05844
 21
80.3369
  0
LINE
  8
0
 10
-3.05844
 20
80.3369
 11
-3.04305
 21
80.2903
  0
LINE
  8
0
 10
-3.04305
 20
80.2903
 11
-3.02997
 21
80.243
  0
LINE
  8
0
 10
-3.02997
 20
80.243
 11
-3.01921
 21
80.1951
  0
LINE
  8
0
 10
-3.01921
 20
80.1951
 11
-3.01082
 21
80.1467
  0
LINE
  8
0
 10
-3.01082
 20
80.1467
 11
-3.00481
 21
80.098
  0
LINE
  8
0
 10
-3.00481
 20
80.098
 11
-3.00119
 21
80.0491
  0
LINE
  8
0
 10
-3.00119
 20
80.0491
 11
-3
 21
80
  0
LINE
  8
0
 10
-3
 20
80
 11
-3.00119
 21
79.9509
  0
LINE
  8
0
 10
-3.00119
 20
79.9509
 11
-3.00481
 21
79.902
  0
LINE
  8
0
 10
-3.00481
 20
79.902
 11
-3.01082
 21
79.8533
  0
LINE
  8
0
 10
-3.01082
 20
79.8533
 11
-3.01921
 21
79.8049
  0
LINE
  8
0
 10
-3.01921
 20
79.8049
 11
-3.02997
 21
79.757
  0
LINE
  8
0
 10
-3.02997
 20
79.757
 11
-3.04305
 21
79.7097
  0
LINE
  8
0
 10
-3.04305
 20
79.7097
 11
-3.05844
 21
79.6631
  0
LINE
  8
0
 10
-3.05844
 20
79.6631
 11
-3.07611
 21
79.6173
  0
LINE
  8
0
 10
-3.07611
 20
79.6173
 11
-3.09601
 21
79.5724
  0
LINE
  8
0
 10
-3.09601
 20
79.5724
 11
-3.11807
 21
79.5286
  0
LINE
  8
0
 10
-3.11807
 20
79.5286
 11
-3.14226
 21
79.4859
  0
LINE
  8
0
 10
-3.14226
 20
79.4859
 11
-3.16852
 21
79.4444
  0
LINE
  8
0
 10
-3.16852
 20
79.4444
 11
-3.19678
 21
79.4043
  0
LINE
  8
0
 10
-3.19678
 20
79.4043
 11
-3.22697
 21
79.3656
  0
LINE
  8
0
 10
-3.22697
 20
79.3656
 11
-3.25905
 21
79.3284
  0
LINE
  8
0
 10
-3.25905
 20
79.3284
 11
-3.29289
 21
79.2929
  0
LINE
  8
0
 10
-3.29289
 20
79.2929
 11
-3.32843
 21
79.259
  0
LINE
  8
0
 10
-3.32843
 20
79.259
 11
-3.3656
 21
79.227
  0
LINE
  8
0
 10
-3.3656
 20
79.227
 11
-3.4043
 21
79.1968
  0
LINE
  8
0
 10
-3.4043
 20
79.1968
 11
-3.44443
 21
79.1685
  0
LINE
  8
0
 10
-3.44443
 20
79.1685
 11
-3.48589
 21
79.1423
  0
LINE
  8
0
 10
-3.48589
 20
79.1423
 11
-3.52859
 21
79.1181
  0
LINE
  8
0
 10
-3.52859
 20
79.1181
 11
-3.57243
 21
79.096
  0
LINE
  8
0
 10
-3.57243
 20
79.096
 11
-3.61731
 21
79.0761
  0
LINE
  8
0
 10
-3.61731
 20
79.0761
 11
-3.6631
 21
79.0585
  0
LINE
  8
0
 10
-3.6631
 20
79.0585
 11
-3.7097
 21
79.0431
  0
LINE
  8
0
 10
-3.7097
 20
79.0431
 11
-3.75702
 21
79.03
  0
LINE
  8
0
 10
-3.75702
 20
79.03
 11
-3.8049
 21
79.0192
  0
LINE
  8
0
 10
-3.8049
 20
79.0192
 11
-3.85326
 21
79.0108
  0
LINE
  8
0
 10
-3.85326
 20
79.0108
 11
-3.90198
 21
79.0048
  0
LINE
  8
0
 10
-3.90198
 20
79.0048
 11
-3.95093
 21
79.0012
  0
LINE
  8
0
 10
-3.95093
 20
79.0012
 11
-4
 21
79
  0
LINE
  8
0
 10
-4
 20
79
 11
-4.04906
 21
79.0012
  0
LINE
  8
0
 10
7.95093
 20
75.0012
 11
7.90198
 21
75.0048
  0
LINE
  8
0
 10
7.90198
 20
75.0048
 11
7.85326
 21
75.0108
  0
LINE
  8
0
 10
7.85326
 20
75.0108
 11
7.8049
 21
75.0192
  0
LINE
  8
0
 10
7.8049
 20
75.0192
 11
7.75702
 21
75.03
  0
LINE
  8
0
 10
7.75702
 20
75.03
 11
7.7097
 21
75.0431
  0
LINE
  8
0
 10
7.7097
 20
75.0431
 11
7.6631
 21
75.0585
  0
LINE
  8
0
 10
7.6631
 20
75.0585
 11
7.61731
 21
75.0761
  0
LINE
  8
0
 10
7.61731
 20
75.0761
 11
7.57243
 21
75.096
  0
LINE
  8
0
 10
7.57243
 20
75.096
 11
7.52859
 21
75.1181
  0
LINE
  8
0
 10
7.52859
 20
75.1181
 11
7.48589
 21
75.1423
  0
LINE
  8
0
 10
7.48589
 20
75.1423
 11
7.44443
 21
75.1685
  0
LINE
  8
0
 10
7.44443
 20
75.1685
 11
7.4043
 21
75.1968
  0
LINE
  8
0
 10
7.4043
 20
75.1968
 11
7.3656
 21
75.227
  0
LINE
  8
0
 10
7.3656
 20
75.227
 11
7.32843
 21
75.259
  0
LINE
  8
0
 10
7.32843
 20
75.259
 11
7.29289
 21
75.2929
  0
LINE
  8
0
 10
7.29289
 20
75.2929
 11
7.25905
 21
75.3284
  0
LINE
  8
0
 10
7.25905
 20
75.3284
 11
7.22697
 21
75.3656
  0
LINE
  8
0
 10
7.22697
 20
75.3656
 11
7.19678
 21
75.4043
  0
LINE
  8
0
 10
7.19678
 20
75.4043
 11
7.16852
 21
75.4444
  0
LINE
  8
0
 10
7.16852
 20
75.4444
 11
7.14226
 21
75.4859
  0
LINE
  8
0
 10
7.14226
 20
75.4859
 11
7.11807
 21
75.5286
  0
LINE
  8
0
 10
7.11807
 20
75.5286
 11
7.09601
 21
75.5724
  0
LINE
  8
0
 10
7.09601
 20
75.5724
 11
7.07611
 21
75.6173
  0
LINE
  8
0
 10
7.07611
 20
75.6173
 11
7.05844
 21
75.6631
  0
LINE
  8
0
 10
7.05844
 20
75.6631
 11
7.04305
 21
75.7097
  0
LINE
  8
0
 10
7.04305
 20
75.7097
 11
7.02997
 21
75.757
  0
LINE
  8
0
 10
7.02997
 20
75.757
 11
7.01921
 21
75.8049
  0
LINE
  8
0
 10
7.01921
 20
75.8049
 11
7.01082
 21
75.8533
  0
LINE
  8
0
 10
7.01082
 20
75.8533
 11
7.00481
 21
75.902
  0
LINE
  8
0
 10
7.00481
 20
75.902
 11
7.00119
 21
75.9509
  0
LINE
  8
0
 10
7.00119
 20
75.9509
 11
7
 21
76
  0
LINE
  8
0
 10
7
 20
76
 11
7.00119
 21
76.0491
  0
LINE
  8
0
 10
7.00119
 20
76.0491
 11
7.00481
 21
76.098
  0
LINE
  8
0
 10
7.00481
 20
76.098
 11
7.01082
 21
76.1467
  0
LINE
  8
0
 10
7.01082
 20
76.1467
 11
7.01921
 21
76.1951
  0
LINE
  8
0
 10
7.01921
 20
76.1951
 11
7.02997
 21
76.243
  0
LINE
  8
0
 10
7.02997
 20
76.243
 11
7.04305
 21
76.2903
  0
LINE
  8
0
 10
7.04305
 20
76.2903
 11
7.05844
 21
76.3369
  0
LINE
  8
0
 10
7.05844
 20
76.3369
 11
7.07611
 21
76.3827
  0
LINE
  8
0
 10
7.07611
 20
76.3827
 11
7.09601
 21
76.4276
  0
LINE
  8
0
 10
7.09601
 20
76.4276
 11
7.11807
 21
76.4714
  0
LINE
  8
0
 10
7.11807
 20
76.4714
 11
7.14226
 21
76.5141
  0
LINE
  8
0
 10
7.14226
 20
76.5141
 11
7.16852
 21
76.5556
  0
LINE
  8
0
 10
7.16852
 20
76.5556
 11
7.19678
 21
76.5957
  0
LINE
  8
0
 10
7.19678
 20
76.5957
 11
7.22697
 21
76.6344
  0
LINE
  8
0
 10
7.22697
 20
76.6344
 11
7.25905
 21
76.6716
  0
LINE
  8
0
 10
7.25905
 20
76.6716
 11
7.29289
 21
76.7071
  0
LINE
  8
0
 10
7.29289
 20
76.7071
 11
7.32843
 21
76.741
  0
LINE
  8
0
 10
7.32843
 20
76.741
 11
7.3656
 21
76.773
  0
LINE
  8
0
 10
7.3656
 20
76.773
 11
7.4043
 21
76.8032
  0
LINE
  8
0
 10
7.4043
 20
76.8032
 11
7.44443
 21
76.8315
  0
LINE
  8
0
 10
7.44443
 20
76.8315
 11
7.48589
 21
76.8577
  0
LINE
  8
0
 10
7.48589
 20
76.8577
 11
7.52859
 21
76.8819
  0
LINE
  8
0
 10
7.52859
 20
76.8819
 11
7.57243
 21
76.904
  0
LINE
  8
0
 10
7.57243
 20
76.904
 11
7.61731
 21
76.9239
  0
LINE
  8
0
 10
7.61731
 20
76.9239
 11
7.6631
 21
76.9415
  0
LINE
  8
0
 10
7.6631
 20
76.9415
 11
7.7097
 21
76.9569
  0
LINE
  8
0
 10
7.7097
 20
76.9569
 11
7.75702
 21
76.97
  0
LINE
  8
0
 10
7.75702
 20
76.97
 11
7.8049
 21
76.9808
  0
LINE
  8
0
 10
7.8049
 20
76.9808
 11
7.85326
 21
76.9892
  0
LINE
  8
0
 10
7.85326
 20
76.9892
 11
7.90198
 21
76.9952
  0
LINE
  8
0
 10
7.90198
 20
76.9952
 11
7.95093
 21
76.9988
  0
LINE
  8
0
 10
7.95093
 20
76.9988
 11
8
 21
77
  0
LINE
  8
0
 10
8
 20
77
 11
8.04906
 21
76.9988
  0
LINE
  8
0
 10
8.04906
 20
76.9988
 11
8.09801
 21
76.9952
  0
LINE
  8
0
 10
8.09801
 20
76.9952
 11
8.14673
 21
76.9892
  0
LINE
  8
0
 10
8.14673
 20
76.9892
 11
8.19508
 21
76.9808
  0
LINE
  8
0
 10
8.19508
 20
76.9808
 11
8.24297
 21
76.97
  0
LINE
  8
0
 10
8.24297
 20
76.97
 11
8.29028
 21
76.9569
  0
LINE
  8
0
 10
8.29028
 20
76.9569
 11
8.33688
 21
76.9415
  0
LINE
  8
0
 10
8.33688
 20
76.9415
 11
8.38268
 21
76.9239
  0
LINE
  8
0
 10
8.38268
 20
76.9239
 11
8.42755
 21
76.904
  0
LINE
  8
0
 10
8.42755
 20
76.904
 11
8.47139
 21
76.8819
  0
LINE
  8
0
 10
8.47139
 20
76.8819
 11
8.5141
 21
76.8577
  0
LINE
  8
0
 10
8.5141
 20
76.8577
 11
8.55556
 21
76.8315
  0
LINE
  8
0
 10
8.55556
 20
76.8315
 11
8.59569
 21
76.8032
  0
LINE
  8
0
 10
8.59569
 20
76.8032
 11
8.63438
 21
76.773
  0
LINE
  8
0
 10
8.63438
 20
76.773
 11
8.67155
 21
76.741
  0
LINE
  8
0
 10
8.67155
 20
76.741
 11
8.70709
 21
76.7071
  0
LINE
  8
0
 10
8.70709
 20
76.7071
 11
8.74094
 21
76.6716
  0
LINE
  8
0
 10
8.74094
 20
76.6716
 11
8.77301
 21
76.6344
  0
LINE
  8
0
 10
8.77301
 20
76.6344
 11
8.80321
 21
76.5957
  0
LINE
  8
0
 10
8.80321
 20
76.5957
 11
8.83147
 21
76.5556
  0
LINE
  8
0
 10
8.83147
 20
76.5556
 11
8.85773
 21
76.5141
  0
LINE
  8
0
 10
8.85773
 20
76.5141
 11
8.88191
 21
76.4714
  0
LINE
  8
0
 10
8.88191
 20
76.4714
 11
8.90398
 21
76.4276
  0
LINE
  8
0
 10
8.90398
 20
76.4276
 11
8.92387
 21
76.3827
  0
LINE
  8
0
 10
8.92387
 20
76.3827
 11
8.94154
 21
76.3369
  0
LINE
  8
0
 10
8.94154
 20
76.3369
 11
8.95694
 21
76.2903
  0
LINE
  8
0
 10
8.95694
 20
76.2903
 11
8.97002
 21
76.243
  0
LINE
  8
0
 10
8.97002
 20
76.243
 11
8.98077
 21
76.1951
  0
LINE
  8
0
 10
8.98077
 20
76.1951
 11
8.98917
 21
76.1467
  0
LINE
  8
0
 10
8.98917
 20
76.1467
 11
8.99518
 21
76.098
  0
LINE
  8
0
 10
8.99518
 20
76.098
 11
8.99879
 21
76.0491
  0
LINE
  8
0
 10
8.99879
 20
76.0491
 11
9
 21
76
  0
LINE
  8
0
 10
9
 20
76
 11
8.99879
 21
75.9509
  0
LINE
  8
0
 10
8.99879
 20
75.9509
 11
8.99518
 21
75.902
  0
LINE
  8
0
 10
8.99518
 20
75.902
 11
8.98917
 21
75.8533
  0
LINE
  8
0
 10
8.98917
 20
75.8533
 11
8.98077
 21
75.8049
  0
LINE
  8
0
 10
8.98077
 20
75.8049
 11
8.97002
 21
75.757
  0
LINE
  8
0
 10
8.97002
 20
75.757
 11
8.95694
 21
75.7097
  0
LINE
  8
0
 10
8.95694
 20
75.7097
 11
8.94154
 21
75.6631
  0
LINE
  8
0
 10
8.94154
 20
75.6631
 11
8.92387
 21
75.6173
  0
LINE
  8
0
 10
8.92387
 20
75.6173
 11
8.90398
 21
75.5724
  0
LINE
  8
0
 10
8.90398
 20
75.5724
 11
8.88191
 21
75.5286
  0
LINE
  8
0
 10
8.88191
 20
75.5286
 11
8.85773
 21
75.4859
  0
LINE
  8
0
 10
8.85773
 20
75.4859
 11
8.83147
 21
75.4444
  0
LINE
  8
0
 10
8.83147
 20
75.4444
 11
8.80321
 21
75.4043
  0
LINE
  8
0
 10
8.80321
 20
75.4043
 11
8.77301
 21
75.3656
  0
LINE
  8
0
 10
8.77301
 20
75.3656
 11
8.74094
 21
75.3284
  0
LINE
  8
0
 10
8.74094
 20
75.3284
 11
8.70709
 21
75.2929
  0
LINE
  8
0
 10
8.70709
 20
75.2929
 11
8.67155
 21
75.259
  0
LINE
  8
0
 10
8.67155
 20
75.259
 11
8.63438
 21
75.227
  0
LINE
  8
0
 10
8.63438
 20
75.227
 11
8.59569
 21
75.1968
  0
LINE
  8
0
 10
8.59569
 20
75.1968
 11
8.55556
 21
75.1685
  0
LINE
  8
0
 10
8.55556
 20
75.1685
 11
8.5141
 21
75.1423
  0
LINE
  8
0
 10
8.5141
 20
75.1423
 11
8.47139
 21
75.1181
  0
LINE
  8
0
 10
8.47139
 20
75.1181
 11
8.42755
 21
75.096
  0
LINE
  8
0
 10
8.42755
 20
75.096
 11
8.38268
 21
75.0761
  0
LINE
  8
0
 10
8.38268
 20
75.0761
 11
8.33688
 21
75.0585
  0
LINE
  8
0
 10
8.33688
 20
75.0585
 11
8.29028
 21
75.0431
  0
LINE
  8
0
 10
8.29028
 20
75.0431
 11
8.24297
 21
75.03
  0
LINE
  8
0
 10
8.24297
 20
75.03
 11
8.19508
 21
75.0192
  0
LINE
  8
0
 10
8.19508
 20
75.0192
 11
8.14673
 21
75.0108
  0
LINE
  8
0
 10
8.14673
 20
75.0108
 11
8.09801
 21
75.0048
  0
LINE
  8
0
 10
8.09801
 20
75.0048
 11
8.04906
 21
75.0012
  0
LINE
  8
0
 10
8.04906
 20
75.0012
 11
8
 21
75
  0
LINE
  8
0
 10
8
 20
75
 11
7.95093
 21
75.0012
  0
LINE
  8
0
 10
-8.04906
 20
67.0012
 11
-8.09801
 21
67.0048
  0
LINE
  8
0
 10
-8.09801
 20
67.0048
 11
-8.14673
 21
67.0108
  0
LINE
  8
0
 10
-8.14673
 20
67.0108
 11
-8.19508
 21
67.0192
  0
LINE
  8
0
 10
-8.19508
 20
67.0192
 11
-8.24297
 21
67.03
  0
LINE
  8
0
 10
-8.24297
 20
67.03
 11
-8.29028
 21
67.0431
  0
LINE
  8
0
 10
-8.29028
 20
67.0431
 11
-8.33688
 21
67.0585
  0
LINE
  8
0
 10
-8.33688
 20
67.0585
 11
-8.38268
 21
67.0761
  0
LINE
  8
0
 10
-8.38268
 20
67.0761
 11
-8.42755
 21
67.096
  0
LINE
  8
0
 10
-8.42755
 20
67.096
 11
-8.47139
 21
67.1181
  0
LINE
  8
0
 10
-8.47139
 20
67.1181
 11
-8.5141
 21
67.1423
  0
LINE
  8
0
 10
-8.5141
 20
67.1423
 11
-8.55556
 21
67.1685
  0
LINE
  8
0
 10
-8.55556
 20
67.1685
 11
-8.59569
 21
67.1968
  0
LINE
  8
0
 10
-8.59569
 20
67.1968
 11
-8.63438
 21
67.227
  0
LINE
  8
0
 10
-8.63438
 20
67.227
 11
-8.67155
 21
67.259
  0
LINE
  8
0
 10
-8.67155
 20
67.259
 11
-8.70709
 21
67.2929
  0
LINE
  8
0
 10
-8.70709
 20
67.2929
 11
-8.74094
 21
67.3284
  0
LINE
  8
0
 10
-8.74094
 20
67.3284
 11
-8.77301
 21
67.3656
  0
LINE
  8
0
 10
-8.77301
 20
67.3656
 11
-8.80321
 21
67.4043
  0
LINE
  8
0
 10
-8.80321
 20
67.4043
 11
-8.83147
 21
67.4444
  0
LINE
  8
0
 10
-8.83147
 20
67.4444
 11
-8.85773
 21
67.4859
  0
LINE
  8
0
 10
-8.85773
 20
67.4859
 11
-8.88191
 21
67.5286
  0
LINE
  8
0
 10
-8.88191
 20
67.5286
 11
-8.90398
 21
67.5724
  0
LINE
  8
0
 10
-8.90398
 20
67.5724
 11
-8.92387
 21
67.6173
  0
LINE
  8
0
 10
-8.92387
 20
67.6173
 11
-8.94154
 21
67.6631
  0
LINE
  8
0
 10
-8.94154
 20
67.6631
 11
-8.95694
 21
67.7097
  0
LINE
  8
0
 10
-8.95694
 20
67.7097
 11
-8.97002
 21
67.757
  0
LINE
  8
0
 10
-8.97002
 20
67.757
 11
-8.98077
 21
67.8049
  0
LINE
  8
0
 10
-8.98077
 20
67.8049
 11
-8.98917
 21
67.8533
  0
LINE
  8
0
 10
-8.98917
 20
67.8533
 11
-8.99518
 21
67.902
  0
LINE
  8
0
 10
-8.99518
 20
67.902
 11
-8.99879
 21
67.9509
  0
LINE
  8
0
 10
-8.99879
 20
67.9509
 11
-9
 21
68
  0
LINE
  8
0
 10
-9
 20
68
 11
-8.99879
 21
68.0491
  0
LINE
  8
0
 10
-8.99879
 20
68.0491
 11
-8.99518
 21
68.098
  0
LINE
  8
0
 10
-8.99518
 20
68.098
 11
-8.98917
 21
68.1467
  0
LINE
  8
0
 10
-8.98917
 20
68.1467
 11
-8.98077
 21
68.1951
  0
LINE
  8
0
 10
-8.98077
 20
68.1951
 11
-8.97002
 21
68.243
  0
LINE
  8
0
 10
-8.97002
 20
68.243
 11
-8.95694
 21
68.2903
  0
LINE
  8
0
 10
-8.95694
 20
68.2903
 11
-8.94154
 21
68.3369
  0
LINE
  8
0
 10
-8.94154
 20
68.3369
 11
-8.92387
 21
68.3827
  0
LINE
  8
0
 10
-8.92387
 20
68.3827
 11
-8.90398
 21
68.4276
  0
LINE
  8
0
 10
-8.90398
 20
68.4276
 11
-8.88191
 21
68.4714
  0
LINE
  8
0
 10
-8.88191
 20
68.4714
 11
-8.85773
 21
68.5141
  0
LINE
  8
0
 10
-8.85773
 20
68.5141
 11
-8.83147
 21
68.5556
  0
LINE
  8
0
 10
-8.83147
 20
68.5556
 11
-8.80321
 21
68.5957
  0
LINE
  8
0
 10
-8.80321
 20
68.5957
 11
-8.77301
 21
68.6344
  0
LINE
  8
0
 10
-8.77301
 20
68.6344
 11
-8.74094
 21
68.6716
  0
LINE
  8
0
 10
-8.74094
 20
68.6716
 11
-8.70709
 21
68.7071
  0
LINE
  8
0
 10
-8.70709
 20
68.7071
 11
-8.67155
 21
68.741
  0
LINE
  8
0
 10
-8.67155
 20
68.741
 11
-8.63438
 21
68.773
  0
LINE
  8
0
 10
-8.63438
 20
68.773
 11
-8.59569
 21
68.8032
  0
LINE
  8
0
 10
-8.59569
 20
68.8032
 11
-8.55556
 21
68.8315
  0
LINE
  8
0
 10
-8.55556
 20
68.8315
 11
-8.5141
 21
68.8577
  0
LINE
  8
0
 10
-8.5141
 20
68.8577
 11
-8.47139
 21
68.8819
  0
LINE
  8
0
 10
-8.47139
 20
68.8819
 11
-8.42755
 21
68.904
  0
LINE
  8
0
 10
-8.42755
 20
68.904
 11
-8.38268
 21
68.9239
  0
LINE
  8
0
 10
-8.38268
 20
68.9239
 11
-8.33688
 21
68.9415
  0
LINE
  8
0
 10
-8.33688
 20
68.9415
 11
-8.29028
 21
68.9569
  0
LINE
  8
0
 10
-8.29028
 20
68.9569
 11
-8.24297
 21
68.97
  0
LINE
  8
0
 10
-8.24297
 20
68.97
 11
-8.19508
 21
68.9808
  0
LINE
  8
0
 10
-8.19508
 20
68.9808
 11
-8.14673
 21
68.9892
  0
LINE
  8
0
 10
-8.14673
 20
68.9892
 11
-8.09801
 21
68.9952
  0
LINE
  8
0
 10
-8.09801
 20
68.9952
 11
-8.04906
 21
68.9988
  0
LINE
  8
0
 10
-8.04906
 20
68.9988
 11
-8
 21
69
  0
LINE
  8
0
 10
-8
 20
69
 11
-7.95093
 21
68.9988
  0
LINE
  8
0
 10
-7.95093
 20
68.9988
 11
-7.90198
 21
68.9952
  0
LINE
  8
0
 10
-7.90198
 20
68.9952
 11
-7.85326
 21
68.9892
  0
LINE
  8
0
 10
-7.85326
 20
68.9892
 11
-7.8049
 21
68.9808
  0
LINE
  8
0
 10
-7.8049
 20
68.9808
 11
-7.75702
 21
68.97
  0
LINE
  8
0
 10
-7.75702
 20
68.97
 11
-7.7097
 21
68.9569
  0
LINE
  8
0
 10
-7.7097
 20
68.9569
 11
-7.6631
 21
68.9415
  0
LINE
  8
0
 10
-7.6631
 20
68.9415
 11
-7.61731
 21
68.9239
  0
LINE
  8
0
 10
-7.61731
 20
68.9239
 11
-7.57243
 21
68.904
  0
LINE
  8
0
 10
-7.57243
 20
68.904
 11
-7.52859
 21
68.8819
  0
LINE
  8
0
 10
-7.52859
 20
68.8819
 11
-7.48589
 21
68.8577
  0
LINE
  8
0
 10
-7.48589
 20
68.8577
 11
-7.44443
 21
68.8315
  0
LINE
  8
0
 10
-7.44443
 20
68.8315
 11
-7.4043
 21
68.8032
  0
LINE
  8
0
 10
-7.4043
 20
68.8032
 11
-7.3656
 21
68.773
  0
LINE
  8
0
 10
-7.3656
 20
68.773
 11
-7.32843
 21
68.741
  0
LINE
  8
0
 10
-7.32843
 20
68.741
 11
-7.29289
 21
68.7071
  0
LINE
  8
0
 10
-7.29289
 20
68.7071
 11
-7.25905
 21
68.6716
  0
LINE
  8
0
 10
-7.25905
 20
68.6716
 11
-7.22697
 21
68.6344
  0
LINE
  8
0
 10
-7.22697
 20
68.6344
 11
-7.19678
 21
68.5957
  0
LINE
  8
0
 10
-7.19678
 20
68.5957
 11
-7.16852
 21
68.5556
  0
LINE
  8
0
 10
-7.16852
 20
68.5556
 11
-7.14226
 21
68.5141
  0
LINE
  8
0
 10
-7.14226
 20
68.5141
 11
-7.11807
 21
68.4714
  0
LINE
  8
0
 10
-7.11807
 20
68.4714
 11
-7.09601
 21
68.4276
  0
LINE
  8
0
 10
-7.09601
 20
68.4276
 11
-7.07611
 21
68.3827
  0
LINE
  8
0
 10
-7.07611
 20
68.3827
 11
-7.05844
 21
68.3369
  0
LINE
  8
0
 10
-7.05844
 20
68.3369
 11
-7.04305
 21
68.2903
  0
LINE
  8
0
 10
-7.04305
 20
68.2903
 11
-7.02997
 21
68.243
  0
LINE
  8
0
 10
-7.02997
 20
68.243
 11
-7.01921
 21
68.1951
  0
LINE
  8
0
 10
-7.01921
 20
68.1951
 11
-7.01082
 21
68.1467
  0
LINE
  8
0
 10
-7.01082
 20
68.1467
 11
-7.00481
 21
68.098
  0
LINE
  8
0
 10
-7.00481
 20
68.098
 11
-7.00119
 21
68.0491
  0
LINE
  8
0
 10
-7.00119
 20
68.0491
 11
-7
 21
68
  0
LINE
  8
0
 10
-7
 20
68
 11
-7.00119
 21
67.9509
  0
LINE
  8
0
 10
-7.00119
 20
67.9509
 11
-7.00481
 21
67.902
  0
LINE
  8
0
 10
-7.00481
 20
67.902
 11
-7.01082
 21
67.8533
  0
LINE
  8
0
 10
-7.01082
 20
67.8533
 11
-7.01921
 21
67.8049
  0
LINE
  8
0
 10
-7.01921
 20
67.8049
 11
-7.02997
 21
67.757
  0
LINE
  8
0
 10
-7.02997
 20
67.757
 11
-7.04305
 21
67.7097
  0
LINE
  8
0
 10
-7.04305
 20
67.7097
 11
-7.05844
 21
67.6631
  0
LINE
  8
0
 10
-7.05844
 20
67.6631
 11
-7.07611
 21
67.6173
  0
LINE
  8
0
 10
-7.07611
 20
67.6173
 11
-7.09601
 21
67.5724
  0
LINE
  8
0
 10
-7.09601
 20
67.5724
 11
-7.11807
 21
67.5286
  0
LINE
  8
0
 10
-7.11807
 20
67.5286
 11
-7.14226
 21
67.4859
  0
LINE
  8
0
 10
-7.14226
 20
67.4859
 11
-7.16852
 21
67.4444
  0
LINE
  8
0
 10
-7.16852
 20
67.4444
 11
-7.19678
 21
67.4043
  0
LINE
  8
0
 10
-7.19678
 20
67.4043
 11
-7.22697
 21
67.3656
  0
LINE
  8
0
 10
-7.22697
 20
67.3656
 11
-7.25905
 21
67.3284
  0
LINE
  8
0
 10
-7.25905
 20
67.3284
 11
-7.29289
 21
67.2929
  0
LINE
  8
0
 10
-7.29289
 20
67.2929
 11
-7.32843
 21
67.259
  0
LINE
  8
0
 10
-7.32843
 20
67.259
 11
-7.3656
 21
67.227
  0
LINE
  8
0
 10
-7.3656
 20
67.227
 11
-7.4043
 21
67.1968
  0
LINE
  8
0
 10
-7.4043
 20
67.1968
 11
-7.44443
 21
67.1685
  0
LINE
  8
0
 10
-7.44443
 20
67.1685
 11
-7.48589
 21
67.1423
  0
LINE
  8
0
 10
-7.48589
 20
67.1423
 11
-7.52859
 21
67.1181
  0
LINE
  8
0
 10
-7.52859
 20
67.1181
 11
-7.57243
 21
67.096
  0
LINE
  8
0
 10
-7.57243
 20
67.096
 11
-7.61731
 21
67.0761
  0
LINE
  8
0
 10
-7.61731
 20
67.0761
 11
-7.6631
 21
67.0585
  0
LINE
  8
0
 10
-7.6631
 20
67.0585
 11
-7.7097
 21
67.0431
  0
LINE
  8
0
 10
-7.7097
 20
67.0431
 11
-7.75702
 21
67.03
  0
LINE
  8
0
 10
-7.75702
 20
67.03
 11
-7.8049
 21
67.0192
  0
LINE
  8
0
 10
-7.8049
 20
67.0192
 11
-7.85326
 21
67.0108
  0
LINE
  8
0
 10
-7.85326
 20
67.0108
 11
-7.90198
 21
67.0048
  0
LINE
  8
0
 10
-7.90198
 20
67.0048
 11
-7.95093
 21
67.0012
  0
LINE
  8
0
 10
-7.95093
 20
67.0012
 11
-8
 21
67
  0
LINE
  8
0
 10
-8
 20
67
 11
-8.04906
 21
67.0012
  0
LINE
  8
0
 10
3.95093
 20
63.0012
 11
3.90198
 21
63.0048
  0
LINE
  8
0
 10
3.90198
 20
63.0048
 11
3.85326
 21
63.0108
  0
LINE
  8
0
 10
3.85326
 20
63.0108
 11
3.8049
 21
63.0192
  0
LINE
  8
0
 10
3.8049
 20
63.0192
 11
3.75702
 21
63.03
  0
LINE
  8
0
 10
3.75702
 20
63.03
 11
3.7097
 21
63.0431
  0
LINE
  8
0
 10
3.7097
 20
63.0431
 11
3.6631
 21
63.0585
  0
LINE
  8
0
 10
3.6631
 20
63.0585
 11
3.61731
 21
63.0761
  0
LINE
  8
0
 10
3.61731
 20
63.0761
 11
3.57243
 21
63.096
  0
LINE
  8
0
 10
3.57243
 20
63.096
 11
3.52859
 21
63.1181
  0
LINE
  8
0
 10
3.52859
 20
63.1181
 11
3.48589
 21
63.1423
  0
LINE
  8
0
 10
3.48589
 20
63.1423
 11
3.44443
 21
63.1685
  0
LINE
  8
0
 10
3.44443
 20
63.1685
 11
3.4043
 21
63.1968
  0
LINE
  8
0
 10
3.4043
 20
63.1968
 11
3.3656
 21
63.227
  0
LINE
  8
0
 10
3.3656
 20
63.227
 11
3.32843
 21
63.259
  0
LINE
  8
0
 10
3.32843
 20
63.259
 11
3.29289
 21
63.2929
  0
LINE
  8
0
 10
3.29289
 20
63.2929
 11
3.25905
 21
63.3284
  0
LINE
  8
0
 10
3.25905
 20
63.3284
 11
3.22697
 21
63.3656
  0
LINE
  8
0
 10
3.22697
 20
63.3656
 11
3.19678
 21
63.4043
  0
LINE
  8
0
 10
3.19678
 20
63.4043
 11
3.16852
 21
63.4444
  0
LINE
  8
0
 10
3.16852
 20
63.4444
 11
3.14226
 21
63.4859
  0
LINE
  8
0
 10
3.14226
 20
63.4859
 11
3.11807
 21
63.5286
  0
LINE
  8
0
 10
3.11807
 20
63.5286
 11
3.09601
 21
63.5724
  0
LINE
  8
0
 10
3.09601
 20
63.5724
 11
3.07611
 21
63.6173
  0
LINE
  8
0
 10
3.07611
 20
63.6173
 11
3.05844
 21
63.6631
  0
LINE
  8
0
 10
3.05844
 20
63.6631
 11
3.04305
 21
63.7097
  0
LINE
  8
0
 10
3.04305
 20
63.7097
 11
3.02997
 21
63.757
  0
LINE
  8
0
 10
3.02997
 20
63.757
 11
3.01921
 21
63.8049
  0
LINE
  8
0
 10
3.01921
 20
63.8049
 11
3.01082
 21
63.8533
  0
LINE
  8
0
 10
3.01082
 20
63.8533
 11
3.00481
 21
63.902
  0
LINE
  8
0
 10
3.00481
 20
63.902
 11
3.00119
 21
63.9509
  0
LINE
  8
0
 10
3.00119
 20
63.9509
 11
3
 21
64
  0
LINE
  8
0
 10
3
 20
64
 11
3.00119
 21
64.0491
  0
LINE
  8
0
 10
3.00119
 20
64.0491
 11
3.00481
 21
64.098
  0
LINE
  8
0
 10
3.00481
 20
64.098
 11
3.01082
 21
64.1467
  0
LINE
  8
0
 10
3.01082
 20
64.1467
 11
3.01921
 21
64.1951
  0
LINE
  8
0
 10
3.01921
 20
64.1951
 11
3.02997
 21
64.243
  0
LINE
  8
0
 10
3.02997
 20
64.243
 11
3.04305
 21
64.2903
  0
LINE
  8
0
 10
3.04305
 20
64.2903
 11
3.05844
 21
64.3369
  0
LINE
  8
0
 10
3.05844
 20
64.3369
 11
3.07611
 21
64.3827
  0
LINE
  8
0
 10
3.07611
 20
64.3827
 11
3.09601
 21
64.4276
  0
LINE
  8
0
 10
3.09601
 20
64.4276
 11
3.11807
 21
64.4714
  0
LINE
  8
0
 10
3.11807
 20
64.4714
 11
3.14226
 21
64.5141
  0
LINE
  8
0
 10
3.14226
 20
64.5141
 11
3.16852
 21
64.5556
  0
LINE
  8
0
 10
3.16852
 20
64.5556
 11
3.19678
 21
64.5957
  0
LINE
  8
0
 10
3.19678
 20
64.5957
 11
3.22697
 21
64.6344
  0
LINE
  8
0
 10
3.22697
 20
64.6344
 11
3.25905
 21
64.6716
  0
LINE
  8
0
 10
3.25905
 20
64.6716
 11
3.29289
 21
64.7071
  0
LINE
  8
0
 10
3.29289
 20
64.7071
 11
3.32843
 21
64.741
  0
LINE
  8
0
 10
3.32843
 20
64.741
 11
3.3656
 21
64.773
  0
LINE
  8
0
 10
3.3656
 20
64.773
 11
3.4043
 21
64.8032
  0
LINE
  8
0
 10
3.4043
 20
64.8032
 11
3.44443
 21
64.8315
  0
LINE
  8
0
 10
3.44443
 20
64.8315
 11
3.48589
 21
64.8577
  0
LINE
  8
0
 10
3.48589
 20
64.8577
 11
3.52859
 21
64.8819
  0
LINE
  8
0
 10
3.52859
 20
64.8819
 11
3.57243
 21
64.904
  0
LINE
  8
0
 10
3.57243
 20
64.904
 11
3.61731
 21
64.9239
  0
LINE
  8
0
 10
3.61731
 20
64.9239
 11
3.6631
 21
64.9415
  0
LINE
  8
0
 10
3.6631
 20
64.9415
 11
3.7097
 21
64.9569
  0
LINE
  8
0
 10
3.7097
 20
64.9569
 11
3.75702
 21
64.97
  0
LINE
  8
0
 10
3.75702
 20
64.97
 11
3.8049
 21
64.9808
  0
LINE
  8
0
 10
3.8049
 20
64.9808
 11
3.85326
 21
64.9892
  0
LINE
  8
0
 10
3.85326
 20
64.9892
 11
3.90198
 21
64.9952
  0
LINE
  8
0
 10
3.90198
 20
64.9952
 11
3.95093
 21
64.9988
  0
LINE
  8
0
 10
3.95093
 20
64.9988
 11
4
 21
65
  0
LINE
  8
0
 10
4
 20
65
 11
4.04906
 21
64.9988
  0
LINE
  8
0
 10
4.04906
 20
64.9988
 11
4.09801
 21
64.9952
  0
LINE
  8
0
 10
4.09801
 20
64.9952
 11
4.14673
 21
64.9892
  0
LINE
  8
0
 10
4.14673
 20
64.9892
 11
4.19508
 21
64.9808
  0
LINE
  8
0
 10
4.19508
 20
64.9808
 11
4.24297
 21
64.97
  0
LINE
  8
0
 10
4.24297
 20
64.97
 11
4.29028
 21
64.9569
  0
LINE
  8
0
 10
4.29028
 20
64.9569
 11
4.33688
 21
64.9415
  0
LINE
  8
0
 10
4.33688
 20
64.9415
 11
4.38268
 21
64.9239
  0
LINE
  8
0
 10
4.38268
 20
64.9239
 11
4.42755
 21
64.904
  0
LINE
  8
0
 10
4.42755
 20
64.904
 11
4.47139
 21
64.8819
  0
LINE
  8
0
 10
4.47139
 20
64.8819
 11
4.5141
 21
64.8577
  0
LINE
  8
0
 10
4.5141
 20
64.8577
 11
4.55556
 21
64.8315
  0
LINE
  8
0
 10
4.55556
 20
64.8315
 11
4.59569
 21
64.8032
  0
LINE
  8
0
 10
4.59569
 20
64.8032
 11
4.63438
 21
64.773
  0
LINE
  8
0
 10
4.63438
 20
64.773
 11
4.67155
 21
64.741
  0
LINE
  8
0
 10
4.67155
 20
64.741
 11
4.70709
 21
64.7071
  0
LINE
  8
0
 10
4.70709
 20
64.7071
 11
4.74094
 21
64.6716
  0
LINE
  8
0
 10
4.74094
 20
64.6716
 11
4.77301
 21
64.6344
  0
LINE
  8
0
 10
4.77301
 20
64.6344
 11
4.80321
 21
64.5957
  0
LINE
  8
0
 10
4.80321
 20
64.5957
 11
4.83147
 21
64.5556
  0
LINE
  8
0
 10
4.83147
 20
64.5556
 11
4.85773
 21
64.5141
  0
LINE
  8
0
 10
4.85773
 20
64.5141
 11
4.88191
 21
64.4714
  0
LINE
  8
0
 10
4.88191
 20
64.4714
 11
4.90398
 21
64.4276
  0
LINE
  8
0
 10
4.90398
 20
64.4276
 11
4.92387
 21
64.3827
  0
LINE
  8
0
 10
4.92387
 20
64.3827
 11
4.94154
 21
64.3369
  0
LINE
  8
0
 10
4.94154
 20
64.3369
 11
4.95694
 21
64.2903
  0
LINE
  8
0
 10
4.95694
 20
64.2903
 11
4.97002
 21
64.243
  0
LINE
  8
0
 10
4.97002
 20
64.243
 11
4.98077
 21
64.1951
  0
LINE
  8
0
 10
4.98077
 20
64.1951
 11
4.98917
 21
64.1467
  0
LINE
  8
0
 10
4.98917
 20
64.1467
 11
4.99518
 21
64.098
  0
LINE
  8
0
 10
4.99518
 20
64.098
 11
4.99879
 21
64.0491
  0
LINE
  8
0
 10
4.99879
 20
64.0491
 11
5
 21
64
  0
LINE
  8
0
 10
5
 20
64
 11
4.99879
 21
63.9509
  0
LINE
  8
0
 10
4.99879
 20
63.9509
 11
4.99518
 21
63.902
  0
LINE
  8
0
 10
4.99518
 20
63.902
 11
4.98917
 21
63.8533
  0
LINE
  8
0
 10
4.98917
 20
63.8533
 11
4.98077
 21
63.8049
  0
LINE
  8
0
 10
4.98077
 20
63.8049
 11
4.97002
 21
63.757
  0
LINE
  8
0
 10
4.97002
 20
63.757
 11
4.95694
 21
63.7097
  0
LINE
  8
0
 10
4.95694
 20
63.7097
 11
4.94154
 21
63.6631
  0
LINE
  8
0
 10
4.94154
 20
63.6631
 11
4.92387
 21
63.6173
  0
LINE
  8
0
 10
4.92387
 20
63.6173
 11
4.90398
 21
63.5724
  0
LINE
  8
0
 10
4.90398
 20
63.5724
 11
4.88191
 21
63.5286
  0
LINE
  8
0
 10
4.88191
 20
63.5286
 11
4.85773
 21
63.4859
  0
LINE
  8
0
 10
4.85773
 20
63.4859
 11
4.83147
 21
63.4444
  0
LINE
  8
0
 10
4.83147
 20
63.4444
 11
4.80321
 21
63.4043
  0
LINE
  8
0
 10
4.80321
 20
63.4043
 11
4.77301
 21
63.3656
  0
LINE
  8
0
 10
4.77301
 20
63.3656
 11
4.74094
 21
63.3284
  0
LINE
  8
0
 10
4.74094
 20
63.3284
 11
4.70709
 21
63.2929
  0
LINE
  8
0
 10
4.70709
 20
63.2929
 11
4.67155
 21
63.259
  0
LINE
  8
0
 10
4.67155
 20
63.259
 11
4.63438
 21
63.227
  0
LINE
  8
0
 10
4.63438
 20
63.227
 11
4.59569
 21
63.1968
  0
LINE
  8
0
 10
4.59569
 20
63.1968
 11
4.55556
 21
63.1685
  0
LINE
  8
0
 10
4.55556
 20
63.1685
 11
4.5141
 21
63.1423
  0
LINE
  8
0
 10
4.5141
 20
63.1423
 11
4.47139
 21
63.1181
  0
LINE
  8
0
 10
4.47139
 20
63.1181
 11
4.42755
 21
63.096
  0
LINE
  8
0
 10
4.42755
 20
63.096
 11
4.38268
 21
63.0761
  0
LINE
  8
0
 10
4.38268
 20
63.0761
 11
4.33688
 21
63.0585
  0
LINE
  8
0
 10
4.33688
 20
63.0585
 11
4.29028
 21
63.0431
  0
LINE
  8
0
 10
4.29028
 20
63.0431
 11
4.24297
 21
63.03
  0
LINE
  8
0
 10
4.24297
 20
63.03
 11
4.19508
 21
63.0192
  0
LINE
  8
0
 10
4.19508
 20
63.0192
 11
4.14673
 21
63.0108
  0
LINE
  8
0
 10
4.14673
 20
63.0108
 11
4.09801
 21
63.0048
  0
LINE
  8
0
 10
4.09801
 20
63.0048
 11
4.04906
 21
63.0012
  0
LINE
  8
0
 10
4.04906
 20
63.0012
 11
4
 21
63
  0
LINE
  8
0
 10
4
 20
63
 11
3.95093
 21
63.0012
  0
LINE
  8
0
 10
-4.04906
 20
55.0012
 11
-4.09801
 21
55.0048
  0
LINE
  8
0
 10
-4.09801
 20
55.0048
 11
-4.14673
 21
55.0108
  0
LINE
  8
0
 10
-4.14673
 20
55.0108
 11
-4.19508
 21
55.0192
  0
LINE
  8
0
 10
-4.19508
 20
55.0192
 11
-4.24297
 21
55.03
  0
LINE
  8
0
 10
-4.24297
 20
55.03
 11
-4.29028
 21
55.0431
  0
LINE
  8
0
 10
-4.29028
 20
55.0431
 11
-4.33688
 21
55.0585
  0
LINE
  8
0
 10
-4.33688
 20
55.0585
 11
-4.38268
 21
55.0761
  0
LINE
  8
0
 10
-4.38268
 20
55.0761
 11
-4.42755
 21
55.096
  0
LINE
  8
0
 10
-4.42755
 20
55.096
 11
-4.47139
 21
55.1181
  0
LINE
  8
0
 10
-4.47139
 20
55.1181
 11
-4.5141
 21
55.1423
  0
LINE
  8
0
 10
-4.5141
 20
55.1423
 11
-4.55556
 21
55.1685
  0
LINE
  8
0
 10
-4.55556
 20
55.1685
 11
-4.59569
 21
55.1968
  0
LINE
  8
0
 10
-4.59569
 20
55.1968
 11
-4.63438
 21
55.227
  0
LINE
  8
0
 10
-4.63438
 20
55.227
 11
-4.67155
 21
55.259
  0
LINE
  8
0
 10
-4.67155
 20
55.259
 11
-4.70709
 21
55.2929
  0
LINE
  8
0
 10
-4.70709
 20
55.2929
 11
-4.74094
 21
55.3284
  0
LINE
  8
0
 10
-4.74094
 20
55.3284
 11
-4.77301
 21
55.3656
  0
LINE
  8
0
 10
-4.77301
 20
55.3656
 11
-4.80321
 21
55.4043
  0
LINE
  8
0
 10
-4.80321
 20
55.4043
 11
-4.83147
 21
55.4444
  0
LINE
  8
0
 10
-4.83147
 20
55.4444
 11
-4.85773
 21
55.4859
  0
LINE
  8
0
 10
-4.85773
 20
55.4859
 11
-4.88191
 21
55.5286
  0
LINE
  8
0
 10
-4.88191
 20
55.5286
 11
-4.90398
 21
55.5724
  0
LINE
  8
0
 10
-4.90398
 20
55.5724
 11
-4.92387
 21
55.6173
  0
LINE
  8
0
 10
-4.92387
 20
55.6173
 11
-4.94154
 21
55.6631
  0
LINE
  8
0
 10
-4.94154
 20
55.6631
 11
-4.95694
 21
55.7097
  0
LINE
  8
0
 10
-4.95694
 20
55.7097
 11
-4.97002
 21
55.757
  0
LINE
  8
0
 10
-4.97002
 20
55.757
 11
-4.98077
 21
55.8049
  0
LINE
  8
0
 10
-4.98077
 20
55.8049
 11
-4.98917
 21
55.8533
  0
LINE
  8
0
 10
-4.98917
 20
55.8533
 11
-4.99518
 21
55.902
  0
LINE
  8
0
 10
-4.99518
 20
55.902
 11
-4.99879
 21
55.9509
  0
LINE
  8
0
 10
-4.99879
 20
55.9509
 11
-5
 21
56
  0
LINE
  8
0
 10
-5
 20
56
 11
-4.99879
 21
56.0491
  0
LINE
  8
0
 10
-4.99879
 20
56.0491
 11
-4.99518
 21
56.098
  0
LINE
  8
0
 10
-4.99518
 20
56.098
 11
-4.98917
 21
56.1467
  0
LINE
  8
0
 10
-4.98917
 20
56.1467
 11
-4.98077
 21
56.1951
  0
LINE
  8
0
 10
-4.98077
 20
56.1951
 11
-4.97002
 21
56.243
  0
LINE
  8
0
 10
-4.97002
 20
56.243
 11
-4.95694
 21
56.2903
  0
LINE
  8
0
 10
-4.95694
 20
56.2903
 11
-4.94154
 21
56.3369
  0
LINE
  8
0
 10
-4.94154
 20
56.3369
 11
-4.92387
 21
56.3827
  0
LINE
  8
0
 10
-4.92387
 20
56.3827
 11
-4.90398
 21
56.4276
  0
LINE
  8
0
 10
-4.90398
 20
56.4276
 11
-4.88191
 21
56.4714
  0
LINE
  8
0
 10
-4.88191
 20
56.4714
 11
-4.85773
 21
56.5141
  0
LINE
  8
0
 10
-4.85773
 20
56.5141
 11
-4.83147
 21
56.5556
  0
LINE
  8
0
 10
-4.83147
 20
56.5556
 11
-4.80321
 21
56.5957
  0
LINE
  8
0
 10
-4.80321
 20
56.5957
 11
-4.77301
 21
56.6344
  0
LINE
  8
0
 10
-4.77301
 20
56.6344
 11
-4.74094
 21
56.6716
  0
LINE
  8
0
 10
-4.74094
 20
56.6716
 11
-4.70709
 21
56.7071
  0
LINE
  8
0
 10
-4.70709
 20
56.7071
 11
-4.67155
 21
56.741
  0
LINE
  8
0
 10
-4.67155
 20
56.741
 11
-4.63438
 21
56.773
  0
LINE
  8
0
 10
-4.63438
 20
56.773
 11
-4.59569
 21
56.8032
  0
LINE
  8
0
 10
-4.59569
 20
56.8032
 11
-4.55556
 21
56.8315
  0
LINE
  8
0
 10
-4.55556
 20
56.8315
 11
-4.5141
 21
56.8577
  0
LINE
  8
0
 10
-4.5141
 20
56.8577
 11
-4.47139
 21
56.8819
  0
LINE
  8
0
 10
-4.47139
 20
56.8819
 11
-4.42755
 21
56.904
  0
LINE
  8
0
 10
-4.42755
 20
56.904
 11
-4.38268
 21
56.9239
  0
LINE
  8
0
 10
-4.38268
 20
56.9239
 11
-4.33688
 21
56.9415
  0
LINE
  8
0
 10
-4.33688
 20
56.9415
 11
-4.29028
 21
56.9569
  0
LINE
  8
0
 10
-4.29028
 20
56.9569
 11
-4.24297
 21
56.97
  0
LINE
  8
0
 10
-4.24297
 20
56.97
 11
-4.19508
 21
56.9808
  0
LINE
  8
0
 10
-4.19508
 20
56.9808
 11
-4.14673
 21
56.9892
  0
LINE
  8
0
 10
-4.14673
 20
56.9892
 11
-4.09801
 21
56.9952
  0
LINE
  8
0
 10
-4.09801
 20
56.9952
 11
-4.04906
 21
56.9988
  0
LINE
  8
0
 10
-4.04906
 20
56.9988
 11
-4
 21
57
  0
LINE
  8
0
 10
-4
 20
57
 11
-3.95093
 21
56.9988
  0
LINE
  8
0
 10
-3.95093
 20
56.9988
 11
-3.90198
 21
56.9952
  0
LINE
  8
0
 10
-3.90198
 20
56.9952
 11
-3.85326
 21
56.9892
  0
LINE
  8
0
 10
-3.85326
 20
56.9892
 11
-3.8049
 21
56.9808
  0
LINE
  8
0
 10
-3.8049
 20
56.9808
 11
-3.75702
 21
56.97
  0
LINE
  8
0
 10
-3.75702
 20
56.97
 11
-3.7097
 21
56.9569
  0
LINE
  8
0
 10
-3.7097
 20
56.9569
 11
-3.6631
 21
56.9415
  0
LINE
  8
0
 10
-3.6631
 20
56.9415
 11
-3.61731
 21
56.9239
  0
LINE
  8
0
 10
-3.61731
 20
56.9239
 11
-3.57243
 21
56.904
  0
LINE
  8
0
 10
-3.57243
 20
56.904
 11
-3.52859
 21
56.8819
  0
LINE
  8
0
 10
-3.52859
 20
56.8819
 11
-3.48589
 21
56.8577
  0
LINE
  8
0
 10
-3.48589
 20
56.8577
 11
-3.44443
 21
56.8315
  0
LINE
  8
0
 10
-3.44443
 20
56.8315
 11
-3.4043
 21
56.8032
  0
LINE
  8
0
 10
-3.4043
 20
56.8032
 11
-3.3656
 21
56.773
  0
LINE
  8
0
 10
-3.3656
 20
56.773
 11
-3.32843
 21
56.741
  0
LINE
  8
0
 10
-3.32843
 20
56.741
 11
-3.29289
 21
56.7071
  0
LINE
  8
0
 10
-3.29289
 20
56.7071
 11
-3.25905
 21
56.6716
  0
LINE
  8
0
 10
-3.25905
 20
56.6716
 11
-3.22697
 21
56.6344
  0
LINE
  8
0
 10
-3.22697
 20
56.6344
 11
-3.19678
 21
56.5957
  0
LINE
  8
0
 10
-3.19678
 20
56.5957
 11
-3.16852
 21
56.5556
  0
LINE
  8
0
 10
-3.16852
 20
56.5556
 11
-3.14226
 21
56.5141
  0
LINE
  8
0
 10
-3.14226
 20
56.5141
 11
-3.11807
 21
56.4714
  0
LINE
  8
0
 10
-3.11807
 20
56.4714
 11
-3.09601
 21
56.4276
  0
LINE
  8
0
 10
-3.09601
 20
56.4276
 11
-3.07611
 21
56.3827
  0
LINE
  8
0
 10
-3.07611
 20
56.3827
 11
-3.05844
 21
56.3369
  0
LINE
  8
0
 10
-3.05844
 20
56.3369
 11
-3.04305
 21
56.2903
  0
LINE
  8
0
 10
-3.04305
 20
56.2903
 11
-3.02997
 21
56.243
  0
LINE
  8
0
 10
-3.02997
 20
56.243
 11
-3.01921
 21
56.1951
  0
LINE
  8
0
 10
-3.01921
 20
56.1951
 11
-3.01082
 21
56.1467
  0
LINE
  8
0
 10
-3.01082
 20
56.1467
 11
-3.00481
 21
56.098
  0
LINE
  8
0
 10
-3.00481
 20
56.098
 11
-3.00119
 21
56.0491
  0
LINE
  8
0
 10
-3.00119
 20
56.0491
 11
-3
 21
56
  0
LINE
  8
0
 10
-3
 20
56
 11
-3.00119
 21
55.9509
  0
LINE
  8
0
 10
-3.00119
 20
55.9509
 11
-3.00481
 21
55.902
  0
LINE
  8
0
 10
-3.00481
 20
55.902
 11
-3.01082
 21
55.8533
  0
LINE
  8
0
 10
-3.01082
 20
55.8533
 11
-3.01921
 21
55.8049
  0
LINE
  8
0
 10
-3.01921
 20
55.8049
 11
-3.02997
 21
55.757
  0
LINE
  8
0
 10
-3.02997
 20
55.757
 11
-3.04305
 21
55.7097
  0
LINE
  8
0
 10
-3.04305
 20
55.7097
 11
-3.05844
 21
55.6631
  0
LINE
  8
0
 10
-3.05844
 20
55.6631
 11
-3.07611
 21
55.6173
  0
LINE
  8
0
 10
-3.07611
 20
55.6173
 11
-3.09601
 21
55.5724
  0
LINE
  8
0
 10
-3.09601
 20
55.5724
 11
-3.11807
 21
55.5286
  0
LINE
  8
0
 10
-3.11807
 20
55.5286
 11
-3.14226
 21
55.4859
  0
LINE
  8
0
 10
-3.14226
 20
55.4859
 11
-3.16852
 21
55.4444
  0
LINE
  8
0
 10
-3.16852
 20
55.4444
 11
-3.19678
 21
55.4043
  0
LINE
  8
0
 10
-3.19678
 20
55.4043
 11
-3.22697
 21
55.3656
  0
LINE
  8
0
 10
-3.22697
 20
55.3656
 11
-3.25905
 21
55.3284
  0
LINE
  8
0
 10
-3.25905
 20
55.3284
 11
-3.29289
 21
55.2929
  0
LINE
  8
0
 10
-3.29289
 20
55.2929
 11
-3.32843
 21
55.259
  0
LINE
  8
0
 10
-3.32843
 20
55.259
 11
-3.3656
 21
55.227
  0
LINE
  8
0
 10
-3.3656
 20
55.227
 11
-3.4043
 21
55.1968
  0
LINE
  8
0
 10
-3.4043
 20
55.1968
 11
-3.44443
 21
55.1685
  0
LINE
  8
0
 10
-3.44443
 20
55.1685
 11
-3.48589
 21
55.1423
  0
LINE
  8
0
 10
-3.48589
 20
55.1423
 11
-3.52859
 21
55.1181
  0
LINE
  8
0
 10
-3.52859
 20
55.1181
 11
-3.57243
 21
55.096
  0
LINE
  8
0
 10
-3.57243
 20
55.096
 11
-3.61731
 21
55.0761
  0
LINE
  8
0
 10
-3.61731
 20
55.0761
 11
-3.6631
 21
55.0585
  0
LINE
  8
0
 10
-3.6631
 20
55.0585
 11
-3.7097
 21
55.0431
  0
LINE
  8
0
 10
-3.7097
 20
55.0431
 11
-3.75702
 21
55.03
  0
LINE
  8
0
 10
-3.75702
 20
55.03
 11
-3.8049
 21
55.0192
  0
LINE
  8
0
 10
-3.8049
 20
55.0192
 11
-3.85326
 21
55.0108
  0
LINE
  8
0
 10
-3.85326
 20
55.0108
 11
-3.90198
 21
55.0048
  0
LINE
  8
0
 10
-3.90198
 20
55.0048
 11
-3.95093
 21
55.0012
  0
LINE
  8
0
 10
-3.95093
 20
55.0012
 11
-4
 21
55
  0
LINE
  8
0
 10
-4
 20
55
 11
-4.04906
 21
55.0012
  0
LINE
  8
0
 10
7.95093
 20
51.0012
 11
7.90198
 21
51.0048
  0
LINE
  8
0
 10
7.90198
 20
51.0048
 11
7.85326
 21
51.0108
  0
LINE
  8
0
 10
7.85326
 20
51.0108
 11
7.8049
 21
51.0192
  0
LINE
  8
0
 10
7.8049
 20
51.0192
 11
7.75702
 21
51.03
  0
LINE
  8
0
 10
7.75702
 20
51.03
 11
7.7097
 21
51.0431
  0
LINE
  8
0
 10
7.7097
 20
51.0431
 11
7.6631
 21
51.0585
  0
LINE
  8
0
 10
7.6631
 20
51.0585
 11
7.61731
 21
51.0761
  0
LINE
  8
0
 10
7.61731
 20
51.0761
 11
7.57243
 21
51.096
  0
LINE
  8
0
 10
7.57243
 20
51.096
 11
7.52859
 21
51.1181
  0
LINE
  8
0
 10
7.52859
 20
51.1181
 11
7.48589
 21
51.1423
  0
LINE
  8
0
 10
7.48589
 20
51.1423
 11
7.44443
 21
51.1685
  0
LINE
  8
0
 10
7.44443
 20
51.1685
 11
7.4043
 21
51.1968
  0
LINE
  8
0
 10
7.4043
 20
51.1968
 11
7.3656
 21
51.227
  0
LINE
  8
0
 10
7.3656
 20
51.227
 11
7.32843
 21
51.259
  0
LINE
  8
0
 10
7.32843
 20
51.259
 11
7.29289
 21
51.2929
  0
LINE
  8
0
 10
7.29289
 20
51.2929
 11
7.25905
 21
51.3284
  0
LINE
  8
0
 10
7.25905
 20
51.3284
 11
7.22697
 21
51.3656
  0
LINE
  8
0
 10
7.22697
 20
51.3656
 11
7.19678
 21
51.4043
  0
LINE
  8
0
 10
7.19678
 20
51.4043
 11
7.16852
 21
51.4444
  0
LINE
  8
0
 10
7.16852
 20
51.4444
 11
7.14226
 21
51.4859
  0
LINE
  8
0
 10
7.14226
 20
51.4859
 11
7.11807
 21
51.5286
  0
LINE
  8
0
 10
7.11807
 20
51.5286
 11
7.09601
 21
51.5724
  0
LINE
  8
0
 10
7.09601
 20
51.5724
 11
7.07611
 21
51.6173
  0
LINE
  8
0
 10
7.07611
 20
51.6173
 11
7.05844
 21
51.6631
  0
LINE
  8
0
 10
7.05844
 20
51.6631
 11
7.04305
 21
51.7097
  0
LINE
  8
0
 10
7.04305
 20
51.7097
 11
7.02997
 21
51.757
  0
LINE
  8
0
 10
7.02997
 20
51.757
 11
7.01921
 21
51.8049
  0
LINE
  8
0
 10
7.01921
 20
51.8049
 11
7.01082
 21
51.8533
  0
LINE
  8
0
 10
7.01082
 20
51.8533
 11
7.00481
 21
51.902
  0
LINE
  8
0
 10
7.00481
 20
51.902
 11
7.00119
 21
51.9509
  0
LINE
  8
0
 10
7.00119
 20
51.9509
 11
7
 21
52
  0
LINE
  8
0
 10
7
 20
52
 11
7.00119
 21
52.0491
  0
LINE
  8
0
 10
7.00119
 20
52.0491
 11
7.00481
 21
52.098
  0
LINE
  8
0
 10
7.00481
 20
52.098
 11
7.01082
 21
52.1467
  0
LINE
  8
0
 10
7.01082
 20
52.1467
 11
7.01921
 21
52.1951
  0
LINE
  8
0
 10
7.01921
 20
52.1951
 11
7.02997
 21
52.243
  0
LINE
  8
0
 10
7.02997
 20
52.243
 11
7.04305
 21
52.2903
  0
LINE
  8
0
 10
7.04305
 20
52.2903
 11
7.05844
 21
52.3369
  0
LINE
  8
0
 10
7.05844
 20
52.3369
 11
7.07611
 21
52.3827
  0
LINE
  8
0
 10
7.07611
 20
52.3827
 11
7.09601
 21
52.4276
  0
LINE
  8
0
 10
7.09601
 20
52.4276
 11
7.11807
 21
52.4714
  0
LINE
  8
0
 10
7.11807
 20
52.4714
 11
7.14226
 21
52.5141
  0
LINE
  8
0
 10
7.14226
 20
52.5141
 11
7.16852
 21
52.5556
  0
LINE
  8
0
 10
7.16852
 20
52.5556
 11
7.19678
 21
52.5957
  0
LINE
  8
0
 10
7.19678
 20
52.5957
 11
7.22697
 21
52.6344
  0
LINE
  8
0
 10
7.22697
 20
52.6344
 11
7.25905
 21
52.6716
  0
LINE
  8
0
 10
7.25905
 20
52.6716
 11
7.29289
 21
52.7071
  0
LINE
  8
0
 10
7.29289
 20
52.7071
 11
7.32843
 21
52.741
  0
LINE
  8
0
 10
7.32843
 20
52.741
 11
7.3656
 21
52.773
  0
LINE
  8
0
 10
7.3656
 20
52.773
 11
7.4043
 21
52.8032
  0
LINE
  8
0
 10
7.4043
 20
52.8032
 11
7.44443
 21
52.8315
  0
LINE
  8
0
 10
7.44443
 20
52.8315
 11
7.48589
 21
52.8577
  0
LINE
  8
0
 10
7.48589
 20
52.8577
 11
7.52859
 21
52.8819
  0
LINE
  8
0
 10
7.52859
 20
52.8819
 11
7.57243
 21
52.904
  0
LINE
  8
0
 10
7.57243
 20
52.904
 11
7.61731
 21
52.9239
  0
LINE
  8
0
 10
7.61731
 20
52.9239
 11
7.6631
 21
52.9415
  0
LINE
  8
0
 10
7.6631
 20
52.9415
 11
7.7097
 21
52.9569
  0
LINE
  8
0
 10
7.7097
 20
52.9569
 11
7.75702
 21
52.97
  0
LINE
  8
0
 10
7.75702
 20
52.97
 11
7.8049
 21
52.9808
  0
LINE
  8
0
 10
7.8049
 20
52.9808
 11
7.85326
 21
52.9892
  0
LINE
  8
0
 10
7.85326
 20
52.9892
 11
7.90198
 21
52.9952
  0
LINE
  8
0
 10
7.90198
 20
52.9952
 11
7.95093
 21
52.9988
  0
LINE
  8
0
 10
7.95093
 20
52.9988
 11
8
 21
53
  0
LINE
  8
0
 10
8
 20
53
 11
8.04906
 21
52.9988
  0
LINE
  8
0
 10
8.04906
 20
52.9988
 11
8.09801
 21
52.9952
  0
LINE
  8
0
 10
8.09801
 20
52.9952
 11
8.14673
 21
52.9892
  0
LINE
  8
0
 10
8.14673
 20
52.9892
 11
8.19508
 21
52.9808
  0
LINE
  8
0
 10
8.19508
 20
52.9808
 11
8.24297
 21
52.97
  0
LINE
  8
0
 10
8.24297
 20
52.97
 11
8.29028
 21
52.9569
  0
LINE
  8
0
 10
8.29028
 20
52.9569
 11
8.33688
 21
52.9415
  0
LINE
  8
0
 10
8.33688
 20
52.9415
 11
8.38268
 21
52.9239
  0
LINE
  8
0
 10
8.38268
 20
52.9239
 11
8.42755
 21
52.904
  0
LINE
  8
0
 10
8.42755
 20
52.904
 11
8.47139
 21
52.8819
  0
LINE
  8
0
 10
8.47139
 20
52.8819
 11
8.5141
 21
52.8577
  0
LINE
  8
0
 10
8.5141
 20
52.8577
 11
8.55556
 21
52.8315
  0
LINE
  8
0
 10
8.55556
 20
52.8315
 11
8.59569
 21
52.8032
  0
LINE
  8
0
 10
8.59569
 20
52.8032
 11
8.63438
 21
52.773
  0
LINE
  8
0
 10
8.63438
 20
52.773
 11
8.67155
 21
52.741
  0
LINE
  8
0
 10
8.67155
 20
52.741
 11
8.70709
 21
52.7071
  0
LINE
  8
0
 10
8.70709
 20
52.7071
 11
8.74094
 21
52.6716
  0
LINE
  8
0
 10
8.74094
 20
52.6716
 11
8.77301
 21
52.6344
  0
LINE
  8
0
 10
8.77301
 20
52.6344
 11
8.80321
 21
52.5957
  0
LINE
  8
0
 10
8.80321
 20
52.5957
 11
8.83147
 21
52.5556
  0
LINE
  8
0
 10
8.83147
 20
52.5556
 11
8.85773
 21
52.5141
  0
LINE
  8
0
 10
8.85773
 20
52.5141
 11
8.88191
 21
52.4714
  0
LINE
  8
0
 10
8.88191
 20
52.4714
 11
8.90398
 21
52.4276
  0
LINE
  8
0
 10
8.90398
 20
52.4276
 11
8.92387
 21
52.3827
  0
LINE
  8
0
 10
8.92387
 20
52.3827
 11
8.94154
 21
52.3369
  0
LINE
  8
0
 10
8.94154
 20
52.3369
 11
8.95694
 21
52.2903
  0
LINE
  8
0
 10
8.95694
 20
52.2903
 11
8.97002
 21
52.243
  0
LINE
  8
0
 10
8.97002
 20
52.243
 11
8.98077
 21
52.1951
  0
LINE
  8
0
 10
8.98077
 20
52.1951
 11
8.98917
 21
52.1467
  0
LINE
  8
0
 10
8.98917
 20
52.1467
 11
8.99518
 21
52.098
  0
LINE
  8
0
 10
8.99518
 20
52.098
 11
8.99879
 21
52.0491
  0
LINE
  8
0
 10
8.99879
 20
52.0491
 11
9
 21
52
  0
LINE
  8
0
 10
9
 20
52
 11
8.99879
 21
51.9509
  0
LINE
  8
0
 10
8.99879
 20
51.9509
 11
8.99518
 21
51.902
  0
LINE
  8
0
 10
8.99518
 20
51.902
 11
8.98917
 21
51.8533
  0
LINE
  8
0
 10
8.98917
 20
51.8533
 11
8.98077
 21
51.8049
  0
LINE
  8
0
 10
8.98077
 20
51.8049
 11
8.97002
 21
51.757
  0
LINE
  8
0
 10
8.97002
 20
51.757
 11
8.95694
 21
51.7097
  0
LINE
  8
0
 10
8.95694
 20
51.7097
 11
8.94154
 21
51.6631
  0
LINE
  8
0
 10
8.94154
 20
51.6631
 11
8.92387
 21
51.6173
  0
LINE
  8
0
 10
8.92387
 20
51.6173
 11
8.90398
 21
51.5724
  0
LINE
  8
0
 10
8.90398
 20
51.5724
 11
8.88191
 21
51.5286
  0
LINE
  8
0
 10
8.88191
 20
51.5286
 11
8.85773
 21
51.4859
  0
LINE
  8
0
 10
8.85773
 20
51.4859
 11
8.83147
 21
51.4444
  0
LINE
  8
0
 10
8.83147
 20
51.4444
 11
8.80321
 21
51.4043
  0
LINE
  8
0
 10
8.80321
 20
51.4043
 11
8.77301
 21
51.3656
  0
LINE
  8
0
 10
8.77301
 20
51.3656
 11
8.74094
 21
51.3284
  0
LINE
  8
0
 10
8.74094
 20
51.3284
 11
8.70709
 21
51.2929
  0
LINE
  8
0
 10
8.70709
 20
51.2929
 11
8.67155
 21
51.259
  0
LINE
  8
0
 10
8.67155
 20
51.259
 11
8.63438
 21
51.227
  0
LINE
  8
0
 10
8.63438
 20
51.227
 11
8.59569
 21
51.1968
  0
LINE
  8
0
 10
8.59569
 20
51.1968
 11
8.55556
 21
51.1685
  0
LINE
  8
0
 10
8.55556
 20
51.1685
 11
8.5141
 21
51.1423
  0
LINE
  8
0
 10
8.5141
 20
51.1423
 11
8.47139
 21
51.1181
  0
LINE
  8
0
 10
8.47139
 20
51.1181
 11
8.42755
 21
51.096
  0
LINE
  8
0
 10
8.42755
 20
51.096
 11
8.38268
 21
51.0761
  0
LINE
  8
0
 10
8.38268
 20
51.0761
 11
8.33688
 21
51.0585
  0
LINE
  8
0
 10
8.33688
 20
51.0585
 11
8.29028
 21
51.0431
  0
LINE
  8
0
 10
8.29028
 20
51.0431
 11
8.24297
 21
51.03
  0
LINE
  8
0
 10
8.24297
 20
51.03
 11
8.19508
 21
51.0192
  0
LINE
  8
0
 10
8.19508
 20
51.0192
 11
8.14673
 21
51.0108
  0
LINE
  8
0
 10
8.14673
 20
51.0108
 11
8.09801
 21
51.0048
  0
LINE
  8
0
 10
8.09801
 20
51.0048
 11
8.04906
 21
51.0012
  0
LINE
  8
0
 10
8.04906
 20
51.0012
 11
8
 21
51
  0
LINE
  8
0
 10
8
 20
51
 11
7.95093
 21
51.0012
  0
LINE
  8
0
 10
-8.04906
 20
43.0012
 11
-8.09801
 21
43.0048
  0
LINE
  8
0
 10
-8.09801
 20
43.0048
 11
-8.14673
 21
43.0108
  0
LINE
  8
0
 10
-8.14673
 20
43.0108
 11
-8.19508
 21
43.0192
  0
LINE
  8
0
 10
-8.19508
 20
43.0192
 11
-8.24297
 21
43.03
  0
LINE
  8
0
 10
-8.24297
 20
43.03
 11
-8.29028
 21
43.0431
  0
LINE
  8
0
 10
-8.29028
 20
43.0431
 11
-8.33688
 21
43.0585
  0
LINE
  8
0
 10
-8.33688
 20
43.0585
 11
-8.38268
 21
43.0761
  0
LINE
  8
0
 10
-8.38268
 20
43.0761
 11
-8.42755
 21
43.096
  0
LINE
  8
0
 10
-8.42755
 20
43.096
 11
-8.47139
 21
43.1181
  0
LINE
  8
0
 10
-8.47139
 20
43.1181
 11
-8.5141
 21
43.1423
  0
LINE
  8
0
 10
-8.5141
 20
43.1423
 11
-8.55556
 21
43.1685
  0
LINE
  8
0
 10
-8.55556
 20
43.1685
 11
-8.59569
 21
43.1968
  0
LINE
  8
0
 10
-8.59569
 20
43.1968
 11
-8.63438
 21
43.227
  0
LINE
  8
0
 10
-8.63438
 20
43.227
 11
-8.67155
 21
43.259
  0
LINE
  8
0
 10
-8.67155
 20
43.259
 11
-8.70709
 21
43.2929
  0
LINE
  8
0
 10
-8.70709
 20
43.2929
 11
-8.74094
 21
43.3284
  0
LINE
  8
0
 10
-8.74094
 20
43.3284
 11
-8.77301
 21
43.3656
  0
LINE
  8
0
 10
-8.77301
 20
43.3656
 11
-8.80321
 21
43.4043
  0
LINE
  8
0
 10
-8.80321
 20
43.4043
 11
-8.83147
 21
43.4444
  0
LINE
  8
0
 10
-8.83147
 20
43.4444
 11
-8.85773
 21
43.4859
  0
LINE
  8
0
 10
-8.85773
 20
43.4859
 11
-8.88191
 21
43.5286
  0
LINE
  8
0
 10
-8.88191
 20
43.5286
 11
-8.90398
 21
43.5724
  0
LINE
  8
0
 10
-8.90398
 20
43.5724
 11
-8.92387
 21
43.6173
  0
LINE
  8
0
 10
-8.92387
 20
43.6173
 11
-8.94154
 21
43.6631
  0
LINE
  8
0
 10
-8.94154
 20
43.6631
 11
-8.95694
 21
43.7097
  0
LINE
  8
0
 10
-8.95694
 20
43.7097
 11
-8.97002
 21
43.757
  0
LINE
  8
0
 10
-8.97002
 20
43.757
 11
-8.98077
 21
43.8049
  0
LINE
  8
0
 10
-8.98077
 20
43.8049
 11
-8.98917
 21
43.8533
  0
LINE
  8
0
 10
-8.98917
 20
43.8533
 11
-8.99518
 21
43.902
  0
LINE
  8
0
 10
-8.99518
 20
43.902
 11
-8.99879
 21
43.9509
  0
LINE
  8
0
 10
-8.99879
 20
43.9509
 11
-9
 21
44
  0
LINE
  8
0
 10
-9
 20
44
 11
-8.99879
 21
44.0491
  0
LINE
  8
0
 10
-8.99879
 20
44.0491
 11
-8.99518
 21
44.098
  0
LINE
  8
0
 10
-8.99518
 20
44.098
 11
-8.98917
 21
44.1467
  0
LINE
  8
0
 10
-8.98917
 20
44.1467
 11
-8.98077
 21
44.1951
  0
LINE
  8
0
 10
-8.98077
 20
44.1951
 11
-8.97002
 21
44.243
  0
LINE
  8
0
 10
-8.97002
 20
44.243
 11
-8.95694
 21
44.2903
  0
LINE
  8
0
 10
-8.95694
 20
44.2903
 11
-8.94154
 21
44.3369
  0
LINE
  8
0
 10
-8.94154
 20
44.3369
 11
-8.92387
 21
44.3827
  0
LINE
  8
0
 10
-8.92387
 20
44.3827
 11
-8.90398
 21
44.4276
  0
LINE
  8
0
 10
-8.90398
 20
44.4276
 11
-8.88191
 21
44.4714
  0
LINE
  8
0
 10
-8.88191
 20
44.4714
 11
-8.85773
 21
44.5141
  0
LINE
  8
0
 10
-8.85773
 20
44.5141
 11
-8.83147
 21
44.5556
  0
LINE
  8
0
 10
-8.83147
 20
44.5556
 11
-8.80321
 21
44.5957
  0
LINE
  8
0
 10
-8.80321
 20
44.5957
 11
-8.77301
 21
44.6344
  0
LINE
  8
0
 10
-8.77301
 20
44.6344
 11
-8.74094
 21
44.6716
  0
LINE
  8
0
 10
-8.74094
 20
44.6716
 11
-8.70709
 21
44.7071
  0
LINE
  8
0
 10
-8.70709
 20
44.7071
 11
-8.67155
 21
44.741
  0
LINE
  8
0
 10
-8.67155
 20
44.741
 11
-8.63438
 21
44.773
  0
LINE
  8
0
 10
-8.63438
 20
44.773
 11
-8.59569
 21
44.8032
  0
LINE
  8
0
 10
-8.59569
 20
44.8032
 11
-8.55556
 21
44.8315
  0
LINE
  8
0
 10
-8.55556
 20
44.8315
 11
-8.5141
 21
44.8577
  0
LINE
  8
0
 10
-8.5141
 20
44.8577
 11
-8.47139
 21
44.8819
  0
LINE
  8
0
 10
-8.47139
 20
44.8819
 11
-8.42755
 21
44.904
  0
LINE
  8
0
 10
-8.42755
 20
44.904
 11
-8.38268
 21
44.9239
  0
LINE
  8
0
 10
-8.38268
 20
44.9239
 11
-8.33688
 21
44.9415
  0
LINE
  8
0
 10
-8.33688
 20
44.9415
 11
-8.29028
 21
44.9569
  0
LINE
  8
0
 10
-8.29028
 20
44.9569
 11
-8.24297
 21
44.97
  0
LINE
  8
0
 10
-8.24297
 20
44.97
 11
-8.19508
 21
44.9808
  0
LINE
  8
0
 10
-8.19508
 20
44.9808
 11
-8.14673
 21
44.9892
  0
LINE
  8
0
 10
-8.14673
 20
44.9892
 11
-8.09801
 21
44.9952
  0
LINE
  8
0
 10
-8.09801
 20
44.9952
 11
-8.04906
 21
44.9988
  0
LINE
  8
0
 10
-8.04906
 20
44.9988
 11
-8
 21
45
  0
LINE
  8
0
 10
-8
 20
45
 11
-7.95093
 21
44.9988
  0
LINE
  8
0
 10
-7.95093
 20
44.9988
 11
-7.90198
 21
44.9952
  0
LINE
  8
0
 10
-7.90198
 20
44.9952
 11
-7.85326
 21
44.9892
  0
LINE
  8
0
 10
-7.85326
 20
44.9892
 11
-7.8049
 21
44.9808
  0
LINE
  8
0
 10
-7.8049
 20
44.9808
 11
-7.75702
 21
44.97
  0
LINE
  8
0
 10
-7.75702
 20
44.97
 11
-7.7097
 21
44.9569
  0
LINE
  8
0
 10
-7.7097
 20
44.9569
 11
-7.6631
 21
44.9415
  0
LINE
  8
0
 10
-7.6631
 20
44.9415
 11
-7.61731
 21
44.9239
  0
LINE
  8
0
 10
-7.61731
 20
44.9239
 11
-7.57243
 21
44.904
  0
LINE
  8
0
 10
-7.57243
 20
44.904
 11
-7.52859
 21
44.8819
  0
LINE
  8
0
 10
-7.52859
 20
44.8819
 11
-7.48589
 21
44.8577
  0
LINE
  8
0
 10
-7.48589
 20
44.8577
 11
-7.44443
 21
44.8315
  0
LINE
  8
0
 10
-7.44443
 20
44.8315
 11
-7.4043
 21
44.8032
  0
LINE
  8
0
 10
-7.4043
 20
44.8032
 11
-7.3656
 21
44.773
  0
LINE
  8
0
 10
-7.3656
 20
44.773
 11
-7.32843
 21
44.741
  0
LINE
  8
0
 10
-7.32843
 20
44.741
 11
-7.29289
 21
44.7071
  0
LINE
  8
0
 10
-7.29289
 20
44.7071
 11
-7.25905
 21
44.6716
  0
LINE
  8
0
 10
-7.25905
 20
44.6716
 11
-7.22697
 21
44.6344
  0
LINE
  8
0
 10
-7.22697
 20
44.6344
 11
-7.19678
 21
44.5957
  0
LINE
  8
0
 10
-7.19678
 20
44.5957
 11
-7.16852
 21
44.5556
  0
LINE
  8
0
 10
-7.16852
 20
44.5556
 11
-7.14226
 21
44.5141
  0
LINE
  8
0
 10
-7.14226
 20
44.5141
 11
-7.11807
 21
44.4714
  0
LINE
  8
0
 10
-7.11807
 20
44.4714
 11
-7.09601
 21
44.4276
  0
LINE
  8
0
 10
-7.09601
 20
44.4276
 11
-7.07611
 21
44.3827
  0
LINE
  8
0
 10
-7.07611
 20
44.3827
 11
-7.05844
 21
44.3369
  0
LINE
  8
0
 10
-7.05844
 20
44.3369
 11
-7.04305
 21
44.2903
  0
LINE
  8
0
 10
-7.04305
 20
44.2903
 11
-7.02997
 21
44.243
  0
LINE
  8
0
 10
-7.02997
 20
44.243
 11
-7.01921
 21
44.1951
  0
LINE
  8
0
 10
-7.01921
 20
44.1951
 11
-7.01082
 21
44.1467
  0
LINE
  8
0
 10
-7.01082
 20
44.1467
 11
-7.00481
 21
44.098
  0
LINE
  8
0
 10
-7.00481
 20
44.098
 11
-7.00119
 21
44.0491
  0
LINE
  8
0
 10
-7.00119
 20
44.0491
 11
-7
 21
44
  0
LINE
  8
0
 10
-7
 20
44
 11
-7.00119
 21
43.9509
  0
LINE
  8
0
 10
-7.00119
 20
43.9509
 11
-7.00481
 21
43.902
  0
LINE
  8
0
 10
-7.00481
 20
43.902
 11
-7.01082
 21
43.8533
  0
LINE
  8
0
 10
-7.01082
 20
43.8533
 11
-7.01921
 21
43.8049
  0
LINE
  8
0
 10
-7.01921
 20
43.8049
 11
-7.02997
 21
43.757
  0
LINE
  8
0
 10
-7.02997
 20
43.757
 11
-7.04305
 21
43.7097
  0
LINE
  8
0
 10
-7.04305
 20
43.7097
 11
-7.05844
 21
43.6631
  0
LINE
  8
0
 10
-7.05844
 20
43.6631
 11
-7.07611
 21
43.6173
  0
LINE
  8
0
 10
-7.07611
 20
43.6173
 11
-7.09601
 21
43.5724
  0
LINE
  8
0
 10
-7.09601
 20
43.5724
 11
-7.11807
 21
43.5286
  0
LINE
  8
0
 10
-7.11807
 20
43.5286
 11
-7.14226
 21
43.4859
  0
LINE
  8
0
 10
-7.14226
 20
43.4859
 11
-7.16852
 21
43.4444
  0
LINE
  8
0
 10
-7.16852
 20
43.4444
 11
-7.19678
 21
43.4043
  0
LINE
  8
0
 10
-7.19678
 20
43.4043
 11
-7.22697
 21
43.3656
  0
LINE
  8
0
 10
-7.22697
 20
43.3656
 11
-7.25905
 21
43.3284
  0
LINE
  8
0
 10
-7.25905
 20
43.3284
 11
-7.29289
 21
43.2929
  0
LINE
  8
0
 10
-7.29289
 20
43.2929
 11
-7.32843
 21
43.259
  0
LINE
  8
0
 10
-7.32843
 20
43.259
 11
-7.3656
 21
43.227
  0
LINE
  8
0
 10
-7.3656
 20
43.227
 11
-7.4043
 21
43.1968
  0
LINE
  8
0
 10
-7.4043
 20
43.1968
 11
-7.44443
 21
43.1685
  0
LINE
  8
0
 10
-7.44443
 20
43.1685
 11
-7.48589
 21
43.1423
  0
LINE
  8
0
 10
-7.48589
 20
43.1423
 11
-7.52859
 21
43.1181
  0
LINE
  8
0
 10
-7.52859
 20
43.1181
 11
-7.57243
 21
43.096
  0
LINE
  8
0
 10
-7.57243
 20
43.096
 11
-7.61731
 21
43.0761
  0
LINE
  8
0
 10
-7.61731
 20
43.0761
 11
-7.6631
 21
43.0585
  0
LINE
  8
0
 10
-7.6631
 20
43.0585
 11
-7.7097
 21
43.0431
  0
LINE
  8
0
 10
-7.7097
 20
43.0431
 11
-7.75702
 21
43.03
  0
LINE
  8
0
 10
-7.75702
 20
43.03
 11
-7.8049
 21
43.0192
  0
LINE
  8
0
 10
-7.8049
 20
43.0192
 11
-7.85326
 21
43.0108
  0
LINE
  8
0
 10
-7.85326
 20
43.0108
 11
-7.90198
 21
43.0048
  0
LINE
  8
0
 10
-7.90198
 20
43.0048
 11
-7.95093
 21
43.0012
  0
LINE
  8
0
 10
-7.95093
 20
43.0012
 11
-8
 21
43
  0
LINE
  8
0
 10
-8
 20
43
 11
-8.04906
 21
43.0012
  0
LINE
  8
0
 10
3.95093
 20
39.0012
 11
3.90198
 21
39.0048
  0
LINE
  8
0
 10
3.90198
 20
39.0048
 11
3.85326
 21
39.0108
  0
LINE
  8
0
 10
3.85326
 20
39.0108
 11
3.8049
 21
39.0192
  0
LINE
  8
0
 10
3.8049
 20
39.0192
 11
3.75702
 21
39.03
  0
LINE
  8
0
 10
3.75702
 20
39.03
 11
3.7097
 21
39.0431
  0
LINE
  8
0
 10
3.7097
 20
39.0431
 11
3.6631
 21
39.0585
  0
LINE
  8
0
 10
3.6631
 20
39.0585
 11
3.61731
 21
39.0761
  0
LINE
  8
0
 10
3.61731
 20
39.0761
 11
3.57243
 21
39.096
  0
LINE
  8
0
 10
3.57243
 20
39.096
 11
3.52859
 21
39.1181
  0
LINE
  8
0
 10
3.52859
 20
39.1181
 11
3.48589
 21
39.1423
  0
LINE
  8
0
 10
3.48589
 20
39.1423
 11
3.44443
 21
39.1685
  0
LINE
  8
0
 10
3.44443
 20
39.1685
 11
3.4043
 21
39.1968
  0
LINE
  8
0
 10
3.4043
 20
39.1968
 11
3.3656
 21
39.227
  0
LINE
  8
0
 10
3.3656
 20
39.227
 11
3.32843
 21
39.259
  0
LINE
  8
0
 10
3.32843
 20
39.259
 11
3.29289
 21
39.2929
  0
LINE
  8
0
 10
3.29289
 20
39.2929
 11
3.25905
 21
39.3284
  0
LINE
  8
0
 10
3.25905
 20
39.3284
 11
3.22697
 21
39.3656
  0
LINE
  8
0
 10
3.22697
 20
39.3656
 11
3.19678
 21
39.4043
  0
LINE
  8
0
 10
3.19678
 20
39.4043
 11
3.16852
 21
39.4444
  0
LINE
  8
0
 10
3.16852
 20
39.4444
 11
3.14226
 21
39.4859
  0
LINE
  8
0
 10
3.14226
 20
39.4859
 11
3.11807
 21
39.5286
  0
LINE
  8
0
 10
3.11807
 20
39.5286
 11
3.09601
 21
39.5724
  0
LINE
  8
0
 10
3.09601
 20
39.5724
 11
3.07611
 21
39.6173
  0
LINE
  8
0
 10
3.07611
 20
39.6173
 11
3.05844
 21
39.6631
  0
LINE
  8
0
 10
3.05844
 20
39.6631
 11
3.04305
 21
39.7097
  0
LINE
  8
0
 10
3.04305
 20
39.7097
 11
3.02997
 21
39.757
  0
LINE
  8
0
 10
3.02997
 20
39.757
 11
3.01921
 21
39.8049
  0
LINE
  8
0
 10
3.01921
 20
39.8049
 11
3.01082
 21
39.8533
  0
LINE
  8
0
 10
3.01082
 20
39.8533
 11
3.00481
 21
39.902
  0
LINE
  8
0
 10
3.00481
 20
39.902
 11
3.00119
 21
39.9509
  0
LINE
  8
0
 10
3.00119
 20
39.9509
 11
3
 21
40
  0
LINE
  8
0
 10
3
 20
40
 11
3.00119
 21
40.0491
  0
LINE
  8
0
 10
3.00119
 20
40.0491
 11
3.00481
 21
40.098
  0
LINE
  8
0
 10
3.00481
 20
40.098
 11
3.01082
 21
40.1467
  0
LINE
  8
0
 10
3.01082
 20
40.1467
 11
3.01921
 21
40.1951
  0
LINE
  8
0
 10
3.01921
 20
40.1951
 11
3.02997
 21
40.243
  0
LINE
  8
0
 10
3.02997
 20
40.243
 11
3.04305
 21
40.2903
  0
LINE
  8
0
 10
3.04305
 20
40.2903
 11
3.05844
 21
40.3369
  0
LINE
  8
0
 10
3.05844
 20
40.3369
 11
3.07611
 21
40.3827
  0
LINE
  8
0
 10
3.07611
 20
40.3827
 11
3.09601
 21
40.4276
  0
LINE
  8
0
 10
3.09601
 20
40.4276
 11
3.11807
 21
40.4714
  0
LINE
  8
0
 10
3.11807
 20
40.4714
 11
3.14226
 21
40.5141
  0
LINE
  8
0
 10
3.14226
 20
40.5141
 11
3.16852
 21
40.5556
  0
LINE
  8
0
 10
3.16852
 20
40.5556
 11
3.19678
 21
40.5957
  0
LINE
  8
0
 10
3.19678
 20
40.5957
 11
3.22697
 21
40.6344
  0
LINE
  8
0
 10
3.22697
 20
40.6344
 11
3.25905
 21
40.6716
  0
LINE
  8
0
 10
3.25905
 20
40.6716
 11
3.29289
 21
40.7071
  0
LINE
  8
0
 10
3.29289
 20
40.7071
 11
3.32843
 21
40.741
  0
LINE
  8
0
 10
3.32843
 20
40.741
 11
3.3656
 21
40.773
  0
LINE
  8
0
 10
3.3656
 20
40.773
 11
3.4043
 21
40.8032
  0
LINE
  8
0
 10
3.4043
 20
40.8032
 11
3.44443
 21
40.8315
  0
LINE
  8
0
 10
3.44443
 20
40.8315
 11
3.48589
 21
40.8577
  0
LINE
  8
0
 10
3.48589
 20
40.8577
 11
3.52859
 21
40.8819
  0
LINE
  8
0
 10
3.52859
 20
40.8819
 11
3.57243
 21
40.904
  0
LINE
  8
0
 10
3.57243
 20
40.904
 11
3.61731
 21
40.9239
  0
LINE
  8
0
 10
3.61731
 20
40.9239
 11
3.6631
 21
40.9415
  0
LINE
  8
0
 10
3.6631
 20
40.9415
 11
3.7097
 21
40.9569
  0
LINE
  8
0
 10
3.7097
 20
40.9569
 11
3.75702
 21
40.97
  0
LINE
  8
0
 10
3.75702
 20
40.97
 11
3.8049
 21
40.9808
  0
LINE
  8
0
 10
3.8049
 20
40.9808
 11
3.85326
 21
40.9892
  0
LINE
  8
0
 10
3.85326
 20
40.9892
 11
3.90198
 21
40.9952
  0
LINE
  8
0
 10
3.90198
 20
40.9952
 11
3.95093
 21
40.9988
  0
LINE
  8
0
 10
3.95093
 20
40.9988
 11
4
 21
41
  0
LINE
  8
0
 10
4
 20
41
 11
4.04906
 21
40.9988
  0
LINE
  8
0
 10
4.04906
 20
40.9988
 11
4.09801
 21
40.9952
  0
LINE
  8
0
 10
4.09801
 20
40.9952
 11
4.14673
 21
40.9892
  0
LINE
  8
0
 10
4.14673
 20
40.9892
 11
4.19508
 21
40.9808
  0
LINE
  8
0
 10
4.19508
 20
40.9808
 11
4.24297
 21
40.97
  0
LINE
  8
0
 10
4.24297
 20
40.97
 11
4.29028
 21
40.9569
  0
LINE
  8
0
 10
4.29028
 20
40.9569
 11
4.33688
 21
40.9415
  0
LINE
  8
0
 10
4.33688
 20
40.9415
 11
4.38268
 21
40.9239
  0
LINE
  8
0
 10
4.38268
 20
40.9239
 11
4.42755
 21
40.904
  0
LINE
  8
0
 10
4.42755
 20
40.904
 11
4.47139
 21
40.8819
  0
LINE
  8
0
 10
4.47139
 20
40.8819
 11
4.5141
 21
40.8577
  0
LINE
  8
0
 10
4.5141
 20
40.8577
 11
4.55556
 21
40.8315
  0
LINE
  8
0
 10
4.55556
 20
40.8315
 11
4.59569
 21
40.8032
  0
LINE
  8
0
 10
4.59569
 20
40.8032
 11
4.63438
 21
40.773
  0
LINE
  8
0
 10
4.63438
 20
40.773
 11
4.67155
 21
40.741
  0
LINE
  8
0
 10
4.67155
 20
40.741
 11
4.70709
 21
40.7071
  0
LINE
  8
0
 10
4.70709
 20
40.7071
 11
4.74094
 21
40.6716
  0
LINE
  8
0
 10
4.74094
 20
40.6716
 11
4.77301
 21
40.6344
  0
LINE
  8
0
 10
4.77301
 20
40.6344
 11
4.80321
 21
40.5957
  0
LINE
  8
0
 10
4.80321
 20
40.5957
 11
4.83147
 21
40.5556
  0
LINE
  8
0
 10
4.83147
 20
40.5556
 11
4.85773
 21
40.5141
  0
LINE
  8
0
 10
4.85773
 20
40.5141
 11
4.88191
 21
40.4714
  0
LINE
  8
0
 10
4.88191
 20
40.4714
 11
4.90398
 21
40.4276
  0
LINE
  8
0
 10
4.90398
 20
40.4276
 11
4.92387
 21
40.3827
  0
LINE
  8
0
 10
4.92387
 20
40.3827
 11
4.94154
 21
40.3369
  0
LINE
  8
0
 10
4.94154
 20
40.3369
 11
4.95694
 21
40.2903
  0
LINE
  8
0
 10
4.95694
 20
40.2903
 11
4.97002
 21
40.243
  0
LINE
  8
0
 10
4.97002
 20
40.243
 11
4.98077
 21
40.1951
  0
LINE
  8
0
 10
4.98077
 20
40.1951
 11
4.98917
 21
40.1467
  0
LINE
  8
0
 10
4.98917
 20
40.1467
 11
4.99518
 21
40.098
  0
LINE
  8
0
 10
4.99518
 20
40.098
 11
4.99879
 21
40.0491
  0
LINE
  8
0
 10
4.99879
 20
40.0491
 11
5
 21
40
  0
LINE
  8
0
 10
5
 20
40
 11
4.99879
 21
39.9509
  0
LINE
  8
0
 10
4.99879
 20
39.9509
 11
4.99518
 21
39.902
  0
LINE
  8
0
 10
4.99518
 20
39.902
 11
4.98917
 21
39.8533
  0
LINE
  8
0
 10
4.98917
 20
39.8533
 11
4.98077
 21
39.8049
  0
LINE
  8
0
 10
4.98077
 20
39.8049
 11
4.97002
 21
39.757
  0
LINE
  8
0
 10
4.97002
 20
39.757
 11
4.95694
 21
39.7097
  0
LINE
  8
0
 10
4.95694
 20
39.7097
 11
4.94154
 21
39.6631
  0
LINE
  8
0
 10
4.94154
 20
39.6631
 11
4.92387
 21
39.6173
  0
LINE
  8
0
 10
4.92387
 20
39.6173
 11
4.90398
 21
39.5724
  0
LINE
  8
0
 10
4.90398
 20
39.5724
 11
4.88191
 21
39.5286
  0
LINE
  8
0
 10
4.88191
 20
39.5286
 11
4.85773
 21
39.4859
  0
LINE
  8
0
 10
4.85773
 20
39.4859
 11
4.83147
 21
39.4444
  0
LINE
  8
0
 10
4.83147
 20
39.4444
 11
4.80321
 21
39.4043
  0
LINE
  8
0
 10
4.80321
 20
39.4043
 11
4.77301
 21
39.3656
  0
LINE
  8
0
 10
4.77301
 20
39.3656
 11
4.74094
 21
39.3284
  0
LINE
  8
0
 10
4.74094
 20
39.3284
 11
4.70709
 21
39.2929
  0
LINE
  8
0
 10
4.70709
 20
39.2929
 11
4.67155
 21
39.259
  0
LINE
  8
0
 10
4.67155
 20
39.259
 11
4.63438
 21
39.227
  0
LINE
  8
0
 10
4.63438
 20
39.227
 11
4.59569
 21
39.1968
  0
LINE
  8
0
 10
4.59569
 20
39.1968
 11
4.55556
 21
39.1685
  0
LINE
  8
0
 10
4.55556
 20
39.1685
 11
4.5141
 21
39.1423
  0
LINE
  8
0
 10
4.5141
 20
39.1423
 11
4.47139
 21
39.1181
  0
LINE
  8
0
 10
4.47139
 20
39.1181
 11
4.42755
 21
39.096
  0
LINE
  8
0
 10
4.42755
 20
39.096
 11
4.38268
 21
39.0761
  0
LINE
  8
0
 10
4.38268
 20
39.0761
 11
4.33688
 21
39.0585
  0
LINE
  8
0
 10
4.33688
 20
39.0585
 11
4.29028
 21
39.0431
  0
LINE
  8
0
 10
4.29028
 20
39.0431
 11
4.24297
 21
39.03
  0
LINE
  8
0
 10
4.24297
 20
39.03
 11
4.19508
 21
39.0192
  0
LINE
  8
0
 10
4.19508
 20
39.0192
 11
4.14673
 21
39.0108
  0
LINE
  8
0
 10
4.14673
 20
39.0108
 11
4.09801
 21
39.0048
  0
LINE
  8
0
 10
4.09801
 20
39.0048
 11
4.04906
 21
39.0012
  0
LINE
  8
0
 10
4.04906
 20
39.0012
 11
4
 21
39
  0
LINE
  8
0
 10
4
 20
39
 11
3.95093
 21
39.0012
  0
LINE
  8
0
 10
-4.04906
 20
31.0012
 11
-4.09801
 21
31.0048
  0
LINE
  8
0
 10
-4.09801
 20
31.0048
 11
-4.14673
 21
31.0108
  0
LINE
  8
0
 10
-4.14673
 20
31.0108
 11
-4.19508
 21
31.0192
  0
LINE
  8
0
 10
-4.19508
 20
31.0192
 11
-4.24297
 21
31.03
  0
LINE
  8
0
 10
-4.24297
 20
31.03
 11
-4.29028
 21
31.0431
  0
LINE
  8
0
 10
-4.29028
 20
31.0431
 11
-4.33688
 21
31.0585
  0
LINE
  8
0
 10
-4.33688
 20
31.0585
 11
-4.38268
 21
31.0761
  0
LINE
  8
0
 10
-4.38268
 20
31.0761
 11
-4.42755
 21
31.096
  0
LINE
  8
0
 10
-4.42755
 20
31.096
 11
-4.47139
 21
31.1181
  0
LINE
  8
0
 10
-4.47139
 20
31.1181
 11
-4.5141
 21
31.1423
  0
LINE
  8
0
 10
-4.5141
 20
31.1423
 11
-4.55556
 21
31.1685
  0
LINE
  8
0
 10
-4.55556
 20
31.1685
 11
-4.59569
 21
31.1968
  0
LINE
  8
0
 10
-4.59569
 20
31.1968
 11
-4.63438
 21
31.227
  0
LINE
  8
0
 10
-4.63438
 20
31.227
 11
-4.67155
 21
31.259
  0
LINE
  8
0
 10
-4.67155
 20
31.259
 11
-4.70709
 21
31.2929
  0
LINE
  8
0
 10
-4.70709
 20
31.2929
 11
-4.74094
 21
31.3284
  0
LINE
  8
0
 10
-4.74094
 20
31.3284
 11
-4.77301
 21
31.3656
  0
LINE
  8
0
 10
-4.77301
 20
31.3656
 11
-4.80321
 21
31.4043
  0
LINE
  8
0
 10
-4.80321
 20
31.4043
 11
-4.83147
 21
31.4444
  0
LINE
  8
0
 10
-4.83147
 20
31.4444
 11
-4.85773
 21
31.4859
  0
LINE
  8
0
 10
-4.85773
 20
31.4859
 11
-4.88191
 21
31.5286
  0
LINE
  8
0
 10
-4.88191
 20
31.5286
 11
-4.90398
 21
31.5724
  0
LINE
  8
0
 10
-4.90398
 20
31.5724
 11
-4.92387
 21
31.6173
  0
LINE
  8
0
 10
-4.92387
 20
31.6173
 11
-4.94154
 21
31.6631
  0
LINE
  8
0
 10
-4.94154
 20
31.6631
 11
-4.95694
 21
31.7097
  0
LINE
  8
0
 10
-4.95694
 20
31.7097
 11
-4.97002
 21
31.757
  0
LINE
  8
0
 10
-4.97002
 20
31.757
 11
-4.98077
 21
31.8049
  0
LINE
  8
0
 10
-4.98077
 20
31.8049
 11
-4.98917
 21
31.8533
  0
LINE
  8
0
 10
-4.98917
 20
31.8533
 11
-4.99518
 21
31.902
  0
LINE
  8
0
 10
-4.99518
 20
31.902
 11
-4.99879
 21
31.9509
  0
LINE
  8
0
 10
-4.99879
 20
31.9509
 11
-5
 21
32
  0
LINE
  8
0
 10
-5
 20
32
 11
-4.99879
 21
32.0491
  0
LINE
  8
0
 10
-4.99879
 20
32.0491
 11
-4.99518
 21
32.098
  0
LINE
  8
0
 10
-4.99518
 20
32.098
 11
-4.98917
 21
32.1467
  0
LINE
  8
0
 10
-4.98917
 20
32.1467
 11
-4.98077
 21
32.1951
  0
LINE
  8
0
 10
-4.98077
 20
32.1951
 11
-4.97002
 21
32.243
  0
LINE
  8
0
 10
-4.97002
 20
32.243
 11
-4.95694
 21
32.2903
  0
LINE
  8
0
 10
-4.95694
 20
32.2903
 11
-4.94154
 21
32.3369
  0
LINE
  8
0
 10
-4.94154
 20
32.3369
 11
-4.92387
 21
32.3827
  0
LINE
  8
0
 10
-4.92387
 20
32.3827
 11
-4.90398
 21
32.4276
  0
LINE
  8
0
 10
-4.90398
 20
32.4276
 11
-4.88191
 21
32.4714
  0
LINE
  8
0
 10
-4.88191
 20
32.4714
 11
-4.85773
 21
32.5141
  0
LINE
  8
0
 10
-4.85773
 20
32.5141
 11
-4.83147
 21
32.5556
  0
LINE
  8
0
 10
-4.83147
 20
32.5556
 11
-4.80321
 21
32.5957
  0
LINE
  8
0
 10
-4.80321
 20
32.5957
 11
-4.77301
 21
32.6344
  0
LINE
  8
0
 10
-4.77301
 20
32.6344
 11
-4.74094
 21
32.6716
  0
LINE
  8
0
 10
-4.74094
 20
32.6716
 11
-4.70709
 21
32.7071
  0
LINE
  8
0
 10
-4.70709
 20
32.7071
 11
-4.67155
 21
32.741
  0
LINE
  8
0
 10
-4.67155
 20
32.741
 11
-4.63438
 21
32.773
  0
LINE
  8
0
 10
-4.63438
 20
32.773
 11
-4.59569
 21
32.8032
  0
LINE
  8
0
 10
-4.59569
 20
32.8032
 11
-4.55556
 21
32.8315
  0
LINE
  8
0
 10
-4.55556
 20
32.8315
 11
-4.5141
 21
32.8577
  0
LINE
  8
0
 10
-4.5141
 20
32.8577
 11
-4.47139
 21
32.8819
  0
LINE
  8
0
 10
-4.47139
 20
32.8819
 11
-4.42755
 21
32.904
  0
LINE
  8
0
 10
-4.42755
 20
32.904
 11
-4.38268
 21
32.9239
  0
LINE
  8
0
 10
-4.38268
 20
32.9239
 11
-4.33688
 21
32.9415
  0
LINE
  8
0
 10
-4.33688
 20
32.9415
 11
-4.29028
 21
32.9569
  0
LINE
  8
0
 10
-4.29028
 20
32.9569
 11
-4.24297
 21
32.97
  0
LINE
  8
0
 10
-4.24297
 20
32.97
 11
-4.19508
 21
32.9808
  0
LINE
  8
0
 10
-4.19508
 20
32.9808
 11
-4.14673
 21
32.9892
  0
LINE
  8
0
 10
-4.14673
 20
32.9892
 11
-4.09801
 21
32.9952
  0
LINE
  8
0
 10
-4.09801
 20
32.9952
 11
-4.04906
 21
32.9988
  0
LINE
  8
0
 10
-4.04906
 20
32.9988
 11
-4
 21
33
  0
LINE
  8
0
 10
-4
 20
33
 11
-3.95093
 21
32.9988
  0
LINE
  8
0
 10
-3.95093
 20
32.9988
 11
-3.90198
 21
32.9952
  0
LINE
  8
0
 10
-3.90198
 20
32.9952
 11
-3.85326
 21
32.9892
  0
LINE
  8
0
 10
-3.85326
 20
32.9892
 11
-3.8049
 21
32.9808
  0
LINE
  8
0
 10
-3.8049
 20
32.9808
 11
-3.75702
 21
32.97
  0
LINE
  8
0
 10
-3.75702
 20
32.97
 11
-3.7097
 21
32.9569
  0
LINE
  8
0
 10
-3.7097
 20
32.9569
 11
-3.6631
 21
32.9415
  0
LINE
  8
0
 10
-3.6631
 20
32.9415
 11
-3.61731
 21
32.9239
  0
LINE
  8
0
 10
-3.61731
 20
32.9239
 11
-3.57243
 21
32.904
  0
LINE
  8
0
 10
-3.57243
 20
32.904
 11
-3.52859
 21
32.8819
  0
LINE
  8
0
 10
-3.52859
 20
32.8819
 11
-3.48589
 21
32.8577
  0
LINE
  8
0
 10
-3.48589
 20
32.8577
 11
-3.44443
 21
32.8315
  0
LINE
  8
0
 10
-3.44443
 20
32.8315
 11
-3.4043
 21
32.8032
  0
LINE
  8
0
 10
-3.4043
 20
32.8032
 11
-3.3656
 21
32.773
  0
LINE
  8
0
 10
-3.3656
 20
32.773
 11
-3.32843
 21
32.741
  0
LINE
  8
0
 10
-3.32843
 20
32.741
 11
-3.29289
 21
32.7071
  0
LINE
  8
0
 10
-3.29289
 20
32.7071
 11
-3.25905
 21
32.6716
  0
LINE
  8
0
 10
-3.25905
 20
32.6716
 11
-3.22697
 21
32.6344
  0
LINE
  8
0
 10
-3.22697
 20
32.6344
 11
-3.19678
 21
32.5957
  0
LINE
  8
0
 10
-3.19678
 20
32.5957
 11
-3.16852
 21
32.5556
  0
LINE
  8
0
 10
-3.16852
 20
32.5556
 11
-3.14226
 21
32.5141
  0
LINE
  8
0
 10
-3.14226
 20
32.5141
 11
-3.11807
 21
32.4714
  0
LINE
  8
0
 10
-3.11807
 20
32.4714
 11
-3.09601
 21
32.4276
  0
LINE
  8
0
 10
-3.09601
 20
32.4276
 11
-3.07611
 21
32.3827
  0
LINE
  8
0
 10
-3.07611
 20
32.3827
 11
-3.05844
 21
32.3369
  0
LINE
  8
0
 10
-3.05844
 20
32.3369
 11
-3.04305
 21
32.2903
  0
LINE
  8
0
 10
-3.04305
 20
32.2903
 11
-3.02997
 21
32.243
  0
LINE
  8
0
 10
-3.02997
 20
32.243
 11
-3.01921
 21
32.1951
  0
LINE
  8
0
 10
-3.01921
 20
32.1951
 11
-3.01082
 21
32.1467
  0
LINE
  8
0
 10
-3.01082
 20
32.1467
 11
-3.00481
 21
32.098
  0
LINE
  8
0
 10
-3.00481
 20
32.098
 11
-3.00119
 21
32.0491
  0
LINE
  8
0
 10
-3.00119
 20
32.0491
 11
-3
 21
32
  0
LINE
  8
0
 10
-3
 20
32
 11
-3.00119
 21
31.9509
  0
LINE
  8
0
 10
-3.00119
 20
31.9509
 11
-3.00481
 21
31.902
  0
LINE
  8
0
 10
-3.00481
 20
31.902
 11
-3.01082
 21
31.8533
  0
LINE
  8
0
 10
-3.01082
 20
31.8533
 11
-3.01921
 21
31.8049
  0
LINE
  8
0
 10
-3.01921
 20
31.8049
 11
-3.02997
 21
31.757
  0
LINE
  8
0
 10
-3.02997
 20
31.757
 11
-3.04305
 21
31.7097
  0
LINE
  8
0
 10
-3.04305
 20
31.7097
 11
-3.05844
 21
31.6631
  0
LINE
  8
0
 10
-3.05844
 20
31.6631
 11
-3.07611
 21
31.6173
  0
LINE
  8
0
 10
-3.07611
 20
31.6173
 11
-3.09601
 21
31.5724
  0
LINE
  8
0
 10
-3.09601
 20
31.5724
 11
-3.11807
 21
31.5286
  0
LINE
  8
0
 10
-3.11807
 20
31.5286
 11
-3.14226
 21
31.4859
  0
LINE
  8
0
 10
-3.14226
 20
31.4859
 11
-3.16852
 21
31.4444
  0
LINE
  8
0
 10
-3.16852
 20
31.4444
 11
-3.19678
 21
31.4043
  0
LINE
  8
0
 10
-3.19678
 20
31.4043
 11
-3.22697
 21
31.3656
  0
LINE
  8
0
 10
-3.22697
 20
31.3656
 11
-3.25905
 21
31.3284
  0
LINE
  8
0
 10
-3.25905
 20
31.3284
 11
-3.29289
 21
31.2929
  0
LINE
  8
0
 10
-3.29289
 20
31.2929
 11
-3.32843
 21
31.259
  0
LINE
  8
0
 10
-3.32843
 20
31.259
 11
-3.3656
 21
31.227
  0
LINE
  8
0
 10
-3.3656
 20
31.227
 11
-3.4043
 21
31.1968
  0
LINE
  8
0
 10
-3.4043
 20
31.1968
 11
-3.44443
 21
31.1685
  0
LINE
  8
0
 10
-3.44443
 20
31.1685
 11
-3.48589
 21
31.1423
  0
LINE
  8
0
 10
-3.48589
 20
31.1423
 11
-3.52859
 21
31.1181
  0
LINE
  8
0
 10
-3.52859
 20
31.1181
 11
-3.57243
 21
31.096
  0
LINE
  8
0
 10
-3.57243
 20
31.096
 11
-3.61731
 21
31.0761
  0
LINE
  8
0
 10
-3.61731
 20
31.0761
 11
-3.6631
 21
31.0585
  0
LINE
  8
0
 10
-3.6631
 20
31.0585
 11
-3.7097
 21
31.0431
  0
LINE
  8
0
 10
-3.7097
 20
31.0431
 11
-3.75702
 21
31.03
  0
LINE
  8
0
 10
-3.75702
 20
31.03
 11
-3.8049
 21
31.0192
  0
LINE
  8
0
 10
-3.8049
 20
31.0192
 11
-3.85326
 21
31.0108
  0
LINE
  8
0
 10
-3.85326
 20
31.0108
 11
-3.90198
 21
31.0048
  0
LINE
  8
0
 10
-3.90198
 20
31.0048
 11
-3.95093
 21
31.0012
  0
LINE
  8
0
 10
-3.95093
 20
31.0012
 11
-4
 21
31
  0
LINE
  8
0
 10
-4
 20
31
 11
-4.04906
 21
31.0012
  0
LINE
  8
0
 10
7.95093
 20
27.0012
 11
7.90198
 21
27.0048
  0
LINE
  8
0
 10
7.90198
 20
27.0048
 11
7.85326
 21
27.0108
  0
LINE
  8
0
 10
7.85326
 20
27.0108
 11
7.8049
 21
27.0192
  0
LINE
  8
0
 10
7.8049
 20
27.0192
 11
7.75702
 21
27.03
  0
LINE
  8
0
 10
7.75702
 20
27.03
 11
7.7097
 21
27.0431
  0
LINE
  8
0
 10
7.7097
 20
27.0431
 11
7.6631
 21
27.0585
  0
LINE
  8
0
 10
7.6631
 20
27.0585
 11
7.61731
 21
27.0761
  0
LINE
  8
0
 10
7.61731
 20
27.0761
 11
7.57243
 21
27.096
  0
LINE
  8
0
 10
7.57243
 20
27.096
 11
7.52859
 21
27.1181
  0
LINE
  8
0
 10
7.52859
 20
27.1181
 11
7.48589
 21
27.1423
  0
LINE
  8
0
 10
7.48589
 20
27.1423
 11
7.44443
 21
27.1685
  0
LINE
  8
0
 10
7.44443
 20
27.1685
 11
7.4043
 21
27.1968
  0
LINE
  8
0
 10
7.4043
 20
27.1968
 11
7.3656
 21
27.227
  0
LINE
  8
0
 10
7.3656
 20
27.227
 11
7.32843
 21
27.259
  0
LINE
  8
0
 10
7.32843
 20
27.259
 11
7.29289
 21
27.2929
  0
LINE
  8
0
 10
7.29289
 20
27.2929
 11
7.25905
 21
27.3284
  0
LINE
  8
0
 10
7.25905
 20
27.3284
 11
7.22697
 21
27.3656
  0
LINE
  8
0
 10
7.22697
 20
27.3656
 11
7.19678
 21
27.4043
  0
LINE
  8
0
 10
7.19678
 20
27.4043
 11
7.16852
 21
27.4444
  0
LINE
  8
0
 10
7.16852
 20
27.4444
 11
7.14226
 21
27.4859
  0
LINE
  8
0
 10
7.14226
 20
27.4859
 11
7.11807
 21
27.5286
  0
LINE
  8
0
 10
7.11807
 20
27.5286
 11
7.09601
 21
27.5724
  0
LINE
  8
0
 10
7.09601
 20
27.5724
 11
7.07611
 21
27.6173
  0
LINE
  8
0
 10
7.07611
 20
27.6173
 11
7.05844
 21
27.6631
  0
LINE
  8
0
 10
7.05844
 20
27.6631
 11
7.04305
 21
27.7097
  0
LINE
  8
0
 10
7.04305
 20
27.7097
 11
7.02997
 21
27.757
  0
LINE
  8
0
 10
7.02997
 20
27.757
 11
7.01921
 21
27.8049
  0
LINE
  8
0
 10
7.01921
 20
27.8049
 11
7.01082
 21
27.8533
  0
LINE
  8
0
 10
7.01082
 20
27.8533
 11
7.00481
 21
27.902
  0
LINE
  8
0
 10
7.00481
 20
27.902
 11
7.00119
 21
27.9509
  0
LINE
  8
0
 10
7.00119
 20
27.9509
 11
7
 21
28
  0
LINE
  8
0
 10
7
 20
28
 11
7.00119
 21
28.0491
  0
LINE
  8
0
 10
7.00119
 20
28.0491
 11
7.00481
 21
28.098
  0
LINE
  8
0
 10
7.00481
 20
28.098
 11
7.01082
 21
28.1467
  0
LINE
  8
0
 10
7.01082
 20
28.1467
 11
7.01921
 21
28.1951
  0
LINE
  8
0
 10
7.01921
 20
28.1951
 11
7.02997
 21
28.243
  0
LINE
  8
0
 10
7.02997
 20
28.243
 11
7.04305
 21
28.2903
  0
LINE
  8
0
 10
7.04305
 20
28.2903
 11
7.05844
 21
28.3369
  0
LINE
  8
0
 10
7.05844
 20
28.3369
 11
7.07611
 21
28.3827
  0
LINE
  8
0
 10
7.07611
 20
28.3827
 11
7.09601
 21
28.4276
  0
LINE
  8
0
 10
7.09601
 20
28.4276
 11
7.11807
 21
28.4714
  0
LINE
  8
0
 10
7.11807
 20
28.4714
 11
7.14226
 21
28.5141
  0
LINE
  8
0
 10
7.14226
 20
28.5141
 11
7.16852
 21
28.5556
  0
LINE
  8
0
 10
7.16852
 20
28.5556
 11
7.19678
 21
28.5957
  0
LINE
  8
0
 10
7.19678
 20
28.5957
 11
7.22697
 21
28.6344
  0
LINE
  8
0
 10
7.22697
 20
28.6344
 11
7.25905
 21
28.6716
  0
LINE
  8
0
 10
7.25905
 20
28.6716
 11
7.29289
 21
28.7071
  0
LINE
  8
0
 10
7.29289
 20
28.7071
 11
7.32843
 21
28.741
  0
LINE
  8
0
 10
7.32843
 20
28.741
 11
7.3656
 21
28.773
  0
LINE
  8
0
 10
7.3656
 20
28.773
 11
7.4043
 21
28.8032
  0
LINE
  8
0
 10
7.4043
 20
28.8032
 11
7.44443
 21
28.8315
  0
LINE
  8
0
 10
7.44443
 20
28.8315
 11
7.48589
 21
28.8577
  0
LINE
  8
0
 10
7.48589
 20
28.8577
 11
7.52859
 21
28.8819
  0
LINE
  8
0
 10
7.52859
 20
28.8819
 11
7.57243
 21
28.904
  0
LINE
  8
0
 10
7.57243
 20
28.904
 11
7.61731
 21
28.9239
  0
LINE
  8
0
 10
7.61731
 20
28.9239
 11
7.6631
 21
28.9415
  0
LINE
  8
0
 10
7.6631
 20
28.9415
 11
7.7097
 21
28.9569
  0
LINE
  8
0
 10
7.7097
 20
28.9569
 11
7.75702
 21
28.97
  0
LINE
  8
0
 10
7.75702
 20
28.97
 11
7.8049
 21
28.9808
  0
LINE
  8
0
 10
7.8049
 20
28.9808
 11
7.85326
 21
28.9892
  0
LINE
  8
0
 10
7.85326
 20
28.9892
 11
7.90198
 21
28.9952
  0
LINE
  8
0
 10
7.90198
 20
28.9952
 11
7.95093
 21
28.9988
  0
LINE
  8
0
 10
7.95093
 20
28.9988
 11
8
 21
29
  0
LINE
  8
0
 10
8
 20
29
 11
8.04906
 21
28.9988
  0
LINE
  8
0
 10
8.04906
 20
28.9988
 11
8.09801
 21
28.9952
  0
LINE
  8
0
 10
8.09801
 20
28.9952
 11
8.14673
 21
28.9892
  0
LINE
  8
0
 10
8.14673
 20
28.9892
 11
8.19508
 21
28.9808
  0
LINE
  8
0
 10
8.19508
 20
28.9808
 11
8.24297
 21
28.97
  0
LINE
  8
0
 10
8.24297
 20
28.97
 11
8.29028
 21
28.9569
  0
LINE
  8
0
 10
8.29028
 20
28.9569
 11
8.33688
 21
28.9415
  0
LINE
  8
0
 10
8.33688
 20
28.9415
 11
8.38268
 21
28.9239
  0
LINE
  8
0
 10
8.38268
 20
28.9239
 11
8.42755
 21
28.904
  0
LINE
  8
0
 10
8.42755
 20
28.904
 11
8.47139
 21
28.8819
  0
LINE
  8
0
 10
8.47139
 20
28.8819
 11
8.5141
 21
28.8577
  0
LINE
  8
0
 10
8.5141
 20
28.8577
 11
8.55556
 21
28.8315
  0
LINE
  8
0
 10
8.55556
 20
28.8315
 11
8.59569
 21
28.8032
  0
LINE
  8
0
 10
8.59569
 20
28.8032
 11
8.63438
 21
28.773
  0
LINE
  8
0
 10
8.63438
 20
28.773
 11
8.67155
 21
28.741
  0
LINE
  8
0
 10
8.67155
 20
28.741
 11
8.70709
 21
28.7071
  0
LINE
  8
0
 10
8.70709
 20
28.7071
 11
8.74094
 21
28.6716
  0
LINE
  8
0
 10
8.74094
 20
28.6716
 11
8.77301
 21
28.6344
  0
LINE
  8
0
 10
8.77301
 20
28.6344
 11
8.80321
 21
28.5957
  0
LINE
  8
0
 10
8.80321
 20
28.5957
 11
8.83147
 21
28.5556
  0
LINE
  8
0
 10
8.83147
 20
28.5556
 11
8.85773
 21
28.5141
  0
LINE
  8
0
 10
8.85773
 20
28.5141
 11
8.88191
 21
28.4714
  0
LINE
  8
0
 10
8.88191
 20
28.4714
 11
8.90398
 21
28.4276
  0
LINE
  8
0
 10
8.90398
 20
28.4276
 11
8.92387
 21
28.3827
  0
LINE
  8
0
 10
8.92387
 20
28.3827
 11
8.94154
 21
28.3369
  0
LINE
  8
0
 10
8.94154
 20
28.3369
 11
8.95694
 21
28.2903
  0
LINE
  8
0
 10
8.95694
 20
28.2903
 11
8.97002
 21
28.243
  0
LINE
  8
0
 10
8.97002
 20
28.243
 11
8.98077
 21
28.1951
  0
LINE
  8
0
 10
8.98077
 20
28.1951
 11
8.98917
 21
28.1467
  0
LINE
  8
0
 10
8.98917
 20
28.1467
 11
8.99518
 21
28.098
  0
LINE
  8
0
 10
8.99518
 20
28.098
 11
8.99879
 21
28.0491
  0
LINE
  8
0
 10
8.99879
 20
28.0491
 11
9
 21
28
  0
LINE
  8
0
 10
9
 20
28
 11
8.99879
 21
27.9509
  0
LINE
  8
0
 10
8.99879
 20
27.9509
 11
8.99518
 21
27.902
  0
LINE
  8
0
 10
8.99518
 20
27.902
 11
8.98917
 21
27.8533
  0
LINE
  8
0
 10
8.98917
 20
27.8533
 11
8.98077
 21
27.8049
  0
LINE
  8
0
 10
8.98077
 20
27.8049
 11
8.97002
 21
27.757
  0
LINE
  8
0
 10
8.97002
 20
27.757
 11
8.95694
 21
27.7097
  0
LINE
  8
0
 10
8.95694
 20
27.7097
 11
8.94154
 21
27.6631
  0
LINE
  8
0
 10
8.94154
 20
27.6631
 11
8.92387
 21
27.6173
  0
LINE
  8
0
 10
8.92387
 20
27.6173
 11
8.90398
 21
27.5724
  0
LINE
  8
0
 10
8.90398
 20
27.5724
 11
8.88191
 21
27.5286
  0
LINE
  8
0
 10
8.88191
 20
27.5286
 11
8.85773
 21
27.4859
  0
LINE
  8
0
 10
8.85773
 20
27.4859
 11
8.83147
 21
27.4444
  0
LINE
  8
0
 10
8.83147
 20
27.4444
 11
8.80321
 21
27.4043
  0
LINE
  8
0
 10
8.80321
 20
27.4043
 11
8.77301
 21
27.3656
  0
LINE
  8
0
 10
8.77301
 20
27.3656
 11
8.74094
 21
27.3284
  0
LINE
  8
0
 10
8.74094
 20
27.3284
 11
8.70709
 21
27.2929
  0
LINE
  8
0
 10
8.70709
 20
27.2929
 11
8.67155
 21
27.259
  0
LINE
  8
0
 10
8.67155
 20
27.259
 11
8.63438
 21
27.227
  0
LINE
  8
0
 10
8.63438
 20
27.227
 11
8.59569
 21
27.1968
  0
LINE
  8
0
 10
8.59569
 20
27.1968
 11
8.55556
 21
27.1685
  0
LINE
  8
0
 10
8.55556
 20
27.1685
 11
8.5141
 21
27.1423
  0
LINE
  8
0
 10
8.5141
 20
27.1423
 11
8.47139
 21
27.1181
  0
LINE
  8
0
 10
8.47139
 20
27.1181
 11
8.42755
 21
27.096
  0
LINE
  8
0
 10
8.42755
 20
27.096
 11
8.38268
 21
27.0761
  0
LINE
  8
0
 10
8.38268
 20
27.0761
 11
8.33688
 21
27.0585
  0
LINE
  8
0
 10
8.33688
 20
27.0585
 11
8.29028
 21
27.0431
  0
LINE
  8
0
 10
8.29028
 20
27.0431
 11
8.24297
 21
27.03
  0
LINE
  8
0
 10
8.24297
 20
27.03
 11
8.19508
 21
27.0192
  0
LINE
  8
0
 10
8.19508
 20
27.0192
 11
8.14673
 21
27.0108
  0
LINE
  8
0
 10
8.14673
 20
27.0108
 11
8.09801
 21
27.0048
  0
LINE
  8
0
 10
8.09801
 20
27.0048
 11
8.04906
 21
27.0012
  0
LINE
  8
0
 10
8.04906
 20
27.0012
 11
8
 21
27
  0
LINE
  8
0
 10
8
 20
27
 11
7.95093
 21
27.0012
  0
LINE
  8
0
 10
-8.04906
 20
19.0012
 11
-8.09801
 21
19.0048
  0
LINE
  8
0
 10
-8.09801
 20
19.0048
 11
-8.14673
 21
19.0108
  0
LINE
  8
0
 10
-8.14673
 20
19.0108
 11
-8.19508
 21
19.0192
  0
LINE
  8
0
 10
-8.19508
 20
19.0192
 11
-8.24297
 21
19.03
  0
LINE
  8
0
 10
-8.24297
 20
19.03
 11
-8.29028
 21
19.0431
  0
LINE
  8
0
 10
-8.29028
 20
19.0431
 11
-8.33688
 21
19.0585
  0
LINE
  8
0
 10
-8.33688
 20
19.0585
 11
-8.38268
 21
19.0761
  0
LINE
  8
0
 10
-8.38268
 20
19.0761
 11
-8.42755
 21
19.096
  0
LINE
  8
0
 10
-8.42755
 20
19.096
 11
-8.47139
 21
19.1181
  0
LINE
  8
0
 10
-8.47139
 20
19.1181
 11
-8.5141
 21
19.1423
  0
LINE
  8
0
 10
-8.5141
 20
19.1423
 11
-8.55556
 21
19.1685
  0
LINE
  8
0
 10
-8.55556
 20
19.1685
 11
-8.59569
 21
19.1968
  0
LINE
  8
0
 10
-8.59569
 20
19.1968
 11
-8.63438
 21
19.227
  0
LINE
  8
0
 10
-8.63438
 20
19.227
 11
-8.67155
 21
19.259
  0
LINE
  8
0
 10
-8.67155
 20
19.259
 11
-8.70709
 21
19.2929
  0
LINE
  8
0
 10
-8.70709
 20
19.2929
 11
-8.74094
 21
19.3284
  0
LINE
  8
0
 10
-8.74094
 20
19.3284
 11
-8.77301
 21
19.3656
  0
LINE
  8
0
 10
-8.77301
 20
19.3656
 11
-8.80321
 21
19.4043
  0
LINE
  8
0
 10
-8.80321
 20
19.4043
 11
-8.83147
 21
19.4444
  0
LINE
  8
0
 10
-8.83147
 20
19.4444
 11
-8.85773
 21
19.4859
  0
LINE
  8
0
 10
-8.85773
 20
19.4859
 11
-8.88191
 21
19.5286
  0
LINE
  8
0
 10
-8.88191
 20
19.5286
 11
-8.90398
 21
19.5724
  0
LINE
  8
0
 10
-8.90398
 20
19.5724
 11
-8.92387
 21
19.6173
  0
LINE
  8
0
 10
-8.92387
 20
19.6173
 11
-8.94154
 21
19.6631
  0
LINE
  8
0
 10
-8.94154
 20
19.6631
 11
-8.95694
 21
19.7097
  0
LINE
  8
0
 10
-8.95694
 20
19.7097
 11
-8.97002
 21
19.757
  0
LINE
  8
0
 10
-8.97002
 20
19.757
 11
-8.98077
 21
19.8049
  0
LINE
  8
0
 10
-8.98077
 20
19.8049
 11
-8.98917
 21
19.8533
  0
LINE
  8
0
 10
-8.98917
 20
19.8533
 11
-8.99518
 21
19.902
  0
LINE
  8
0
 10
-8.99518
 20
19.902
 11
-8.99879
 21
19.9509
  0
LINE
  8
0
 10
-8.99879
 20
19.9509
 11
-9
 21
20
  0
LINE
  8
0
 10
-9
 20
20
 11
-8.99879
 21
20.0491
  0
LINE
  8
0
 10
-8.99879
 20
20.0491
 11
-8.99518
 21
20.098
  0
LINE
  8
0
 10
-8.99518
 20
20.098
 11
-8.98917
 21
20.1467
  0
LINE
  8
0
 10
-8.98917
 20
20.1467
 11
-8.98077
 21
20.1951
  0
LINE
  8
0
 10
-8.98077
 20
20.1951
 11
-8.97002
 21
20.243
  0
LINE
  8
0
 10
-8.97002
 20
20.243
 11
-8.95694
 21
20.2903
  0
LINE
  8
0
 10
-8.95694
 20
20.2903
 11
-8.94154
 21
20.3369
  0
LINE
  8
0
 10
-8.94154
 20
20.3369
 11
-8.92387
 21
20.3827
  0
LINE
  8
0
 10
-8.92387
 20
20.3827
 11
-8.90398
 21
20.4276
  0
LINE
  8
0
 10
-8.90398
 20
20.4276
 11
-8.88191
 21
20.4714
  0
LINE
  8
0
 10
-8.88191
 20
20.4714
 11
-8.85773
 21
20.5141
  0
LINE
  8
0
 10
-8.85773
 20
20.5141
 11
-8.83147
 21
20.5556
  0
LINE
  8
0
 10
-8.83147
 20
20.5556
 11
-8.80321
 21
20.5957
  0
LINE
  8
0
 10
-8.80321
 20
20.5957
 11
-8.77301
 21
20.6344
  0
LINE
  8
0
 10
-8.77301
 20
20.6344
 11
-8.74094
 21
20.6716
  0
LINE
  8
0
 10
-8.74094
 20
20.6716
 11
-8.70709
 21
20.7071
  0
LINE
  8
0
 10
-8.70709
 20
20.7071
 11
-8.67155
 21
20.741
  0
LINE
  8
0
 10
-8.67155
 20
20.741
 11
-8.63438
 21
20.773
  0
LINE
  8
0
 10
-8.63438
 20
20.773
 11
-8.59569
 21
20.8032
  0
LINE
  8
0
 10
-8.59569
 20
20.8032
 11
-8.55556
 21
20.8315
  0
LINE
  8
0
 10
-8.55556
 20
20.8315
 11
-8.5141
 21
20.8577
  0
LINE
  8
0
 10
-8.5141
 20
20.8577
 11
-8.47139
 21
20.8819
  0
LINE
  8
0
 10
-8.47139
 20
20.8819
 11
-8.42755
 21
20.904
  0
LINE
  8
0
 10
-8.42755
 20
20.904
 11
-8.38268
 21
20.9239
  0
LINE
  8
0
 10
-8.38268
 20
20.9239
 11
-8.33688
 21
20.9415
  0
LINE
  8
0
 10
-8.33688
 20
20.9415
 11
-8.29028
 21
20.9569
  0
LINE
  8
0
 10
-8.29028
 20
20.9569
 11
-8.24297
 21
20.97
  0
LINE
  8
0
 10
-8.24297
 20
20.97
 11
-8.19508
 21
20.9808
  0
LINE
  8
0
 10
-8.19508
 20
20.9808
 11
-8.14673
 21
20.9892
  0
LINE
  8
0
 10
-8.14673
 20
20.9892
 11
-8.09801
 21
20.9952
  0
LINE
  8
0
 10
-8.09801
 20
20.9952
 11
-8.04906
 21
20.9988
  0
LINE
  8
0
 10
-8.04906
 20
20.9988
 11
-8
 21
21
  0
LINE
  8
0
 10
-8
 20
21
 11
-7.95093
 21
20.9988
  0
LINE
  8
0
 10
-7.95093
 20
20.9988
 11
-7.90198
 21
20.9952
  0
LINE
  8
0
 10
-7.90198
 20
20.9952
 11
-7.85326
 21
20.9892
  0
LINE
  8
0
 10
-7.85326
 20
20.9892
 11
-7.8049
 21
20.9808
  0
LINE
  8
0
 10
-7.8049
 20
20.9808
 11
-7.75702
 21
20.97
  0
LINE
  8
0
 10
-7.75702
 20
20.97
 11
-7.7097
 21
20.9569
  0
LINE
  8
0
 10
-7.7097
 20
20.9569
 11
-7.6631
 21
20.9415
  0
LINE
  8
0
 10
-7.6631
 20
20.9415
 11
-7.61731
 21
20.9239
  0
LINE
  8
0
 10
-7.61731
 20
20.9239
 11
-7.57243
 21
20.904
  0
LINE
  8
0
 10
-7.57243
 20
20.904
 11
-7.52859
 21
20.8819
  0
LINE
  8
0
 10
-7.52859
 20
20.8819
 11
-7.48589
 21
20.8577
  0
LINE
  8
0
 10
-7.48589
 20
20.8577
 11
-7.44443
 21
20.8315
  0
LINE
  8
0
 10
-7.44443
 20
20.8315
 11
-7.4043
 21
20.8032
  0
LINE
  8
0
 10
-7.4043
 20
20.8032
 11
-7.3656
 21
20.773
  0
LINE
  8
0
 10
-7.3656
 20
20.773
 11
-7.32843
 21
20.741
  0
LINE
  8
0
 10
-7.32843
 20
20.741
 11
-7.29289
 21
20.7071
  0
LINE
  8
0
 10
-7.29289
 20
20.7071
 11
-7.25905
 21
20.6716
  0
LINE
  8
0
 10
-7.25905
 20
20.6716
 11
-7.22697
 21
20.6344
  0
LINE
  8
0
 10
-7.22697
 20
20.6344
 11
-7.19678
 21
20.5957
  0
LINE
  8
0
 10
-7.19678
 20
20.5957
 11
-7.16852
 21
20.5556
  0
LINE
  8
0
 10
-7.16852
 20
20.5556
 11
-7.14226
 21
20.5141
  0
LINE
  8
0
 10
-7.14226
 20
20.5141
 11
-7.11807
 21
20.4714
  0
LINE
  8
0
 10
-7.11807
 20
20.4714
 11
-7.09601
 21
20.4276
  0
LINE
  8
0
 10
-7.09601
 20
20.4276
 11
-7.07611
 21
20.3827
  0
LINE
  8
0
 10
-7.07611
 20
20.3827
 11
-7.05844
 21
20.3369
  0
LINE
  8
0
 10
-7.05844
 20
20.3369
 11
-7.04305
 21
20.2903
  0
LINE
  8
0
 10
-7.04305
 20
20.2903
 11
-7.02997
 21
20.243
  0
LINE
  8
0
 10
-7.02997
 20
20.243
 11
-7.01921
 21
20.1951
  0
LINE
  8
0
 10
-7.01921
 20
20.1951
 11
-7.01082
 21
20.1467
  0
LINE
  8
0
 10
-7.01082
 20
20.1467
 11
-7.00481
 21
20.098
  0
LINE
  8
0
 10
-7.00481
 20
20.098
 11
-7.00119
 21
20.0491
  0
LINE
  8
0
 10
-7.00119
 20
20.0491
 11
-7
 21
20
  0
LINE
  8
0
 10
-7
 20
20
 11
-7.00119
 21
19.9509
  0
LINE
  8
0
 10
-7.00119
 20
19.9509
 11
-7.00481
 21
19.902
  0
LINE
  8
0
 10
-7.00481
 20
19.902
 11
-7.01082
 21
19.8533
  0
LINE
  8
0
 10
-7.01082
 20
19.8533
 11
-7.01921
 21
19.8049
  0
LINE
  8
0
 10
-7.01921
 20
19.8049
 11
-7.02997
 21
19.757
  0
LINE
  8
0
 10
-7.02997
 20
19.757
 11
-7.04305
 21
19.7097
  0
LINE
  8
0
 10
-7.04305
 20
19.7097
 11
-7.05844
 21
19.6631
  0
LINE
  8
0
 10
-7.05844
 20
19.6631
 11
-7.07611
 21
19.6173
  0
LINE
  8
0
 10
-7.07611
 20
19.6173
 11
-7.09601
 21
19.5724
  0
LINE
  8
0
 10
-7.09601
 20
19.5724
 11
-7.11807
 21
19.5286
  0
LINE
  8
0
 10
-7.11807
 20
19.5286
 11
-7.14226
 21
19.4859
  0
LINE
  8
0
 10
-7.14226
 20
19.4859
 11
-7.16852
 21
19.4444
  0
LINE
  8
0
 10
-7.16852
 20
19.4444
 11
-7.19678
 21
19.4043
  0
LINE
  8
0
 10
-7.19678
 20
19.4043
 11
-7.22697
 21
19.3656
  0
LINE
  8
0
 10
-7.22697
 20
19.3656
 11
-7.25905
 21
19.3284
  0
LINE
  8
0
 10
-7.25905
 20
19.3284
 11
-7.29289
 21
19.2929
  0
LINE
  8
0
 10
-7.29289
 20
19.2929
 11
-7.32843
 21
19.259
  0
LINE
  8
0
 10
-7.32843
 20
19.259
 11
-7.3656
 21
19.227
  0
LINE
  8
0
 10
-7.3656
 20
19.227
 11
-7.4043
 21
19.1968
  0
LINE
  8
0
 10
-7.4043
 20
19.1968
 11
-7.44443
 21
19.1685
  0
LINE
  8
0
 10
-7.44443
 20
19.1685
 11
-7.48589
 21
19.1423
  0
LINE
  8
0
 10
-7.48589
 20
19.1423
 11
-7.52859
 21
19.1181
  0
LINE
  8
0
 10
-7.52859
 20
19.1181
 11
-7.57243
 21
19.096
  0
LINE
  8
0
 10
-7.57243
 20
19.096
 11
-7.61731
 21
19.0761
  0
LINE
  8
0
 10
-7.61731
 20
19.0761
 11
-7.6631
 21
19.0585
  0
LINE
  8
0
 10
-7.6631
 20
19.0585
 11
-7.7097
 21
19.0431
  0
LINE
  8
0
 10
-7.7097
 20
19.0431
 11
-7.75702
 21
19.03
  0
LINE
  8
0
 10
-7.75702
 20
19.03
 11
-7.8049
 21
19.0192
  0
LINE
  8
0
 10
-7.8049
 20
19.0192
 11
-7.85326
 21
19.0108
  0
LINE
  8
0
 10
-7.85326
 20
19.0108
 11
-7.90198
 21
19.0048
  0
LINE
  8
0
 10
-7.90198
 20
19.0048
 11
-7.95093
 21
19.0012
  0
LINE
  8
0
 10
-7.95093
 20
19.0012
 11
-8
 21
19
  0
LINE
  8
0
 10
-8
 20
19
 11
-8.04906
 21
19.0012
  0
LINE
  8
0
 10
3.95093
 20
15.0012
 11
3.90198
 21
15.0048
  0
LINE
  8
0
 10
3.90198
 20
15.0048
 11
3.85326
 21
15.0108
  0
LINE
  8
0
 10
3.85326
 20
15.0108
 11
3.8049
 21
15.0192
  0
LINE
  8
0
 10
3.8049
 20
15.0192
 11
3.75702
 21
15.03
  0
LINE
  8
0
 10
3.75702
 20
15.03
 11
3.7097
 21
15.0431
  0
LINE
  8
0
 10
3.7097
 20
15.0431
 11
3.6631
 21
15.0585
  0
LINE
  8
0
 10
3.6631
 20
15.0585
 11
3.61731
 21
15.0761
  0
LINE
  8
0
 10
3.61731
 20
15.0761
 11
3.57243
 21
15.096
  0
LINE
  8
0
 10
3.57243
 20
15.096
 11
3.52859
 21
15.1181
  0
LINE
  8
0
 10
3.52859
 20
15.1181
 11
3.48589
 21
15.1423
  0
LINE
  8
0
 10
3.48589
 20
15.1423
 11
3.44443
 21
15.1685
  0
LINE
  8
0
 10
3.44443
 20
15.1685
 11
3.4043
 21
15.1968
  0
LINE
  8
0
 10
3.4043
 20
15.1968
 11
3.3656
 21
15.227
  0
LINE
  8
0
 10
3.3656
 20
15.227
 11
3.32843
 21
15.259
  0
LINE
  8
0
 10
3.32843
 20
15.259
 11
3.29289
 21
15.2929
  0
LINE
  8
0
 10
3.29289
 20
15.2929
 11
3.25905
 21
15.3284
  0
LINE
  8
0
 10
3.25905
 20
15.3284
 11
3.22697
 21
15.3656
  0
LINE
  8
0
 10
3.22697
 20
15.3656
 11
3.19678
 21
15.4043
  0
LINE
  8
0
 10
3.19678
 20
15.4043
 11
3.16852
 21
15.4444
  0
LINE
  8
0
 10
3.16852
 20
15.4444
 11
3.14226
 21
15.4859
  0
LINE
  8
0
 10
3.14226
 20
15.4859
 11
3.11807
 21
15.5286
  0
LINE
  8
0
 10
3.11807
 20
15.5286
 11
3.09601
 21
15.5724
  0
LINE
  8
0
 10
3.09601
 20
15.5724
 11
3.07611
 21
15.6173
  0
LINE
  8
0
 10
3.07611
 20
15.6173
 11
3.05844
 21
15.6631
  0
LINE
  8
0
 10
3.05844
 20
15.6631
 11
3.04305
 21
15.7097
  0
LINE
  8
0
 10
3.04305
 20
15.7097
 11
3.02997
 21
15.757
  0
LINE
  8
0
 10
3.02997
 20
15.757
 11
3.01921
 21
15.8049
  0
LINE
  8
0
 10
3.01921
 20
15.8049
 11
3.01082
 21
15.8533
  0
LINE
  8
0
 10
3.01082
 20
15.8533
 11
3.00481
 21
15.902
  0
LINE
  8
0
 10
3.00481
 20
15.902
 11
3.00119
 21
15.9509
  0
LINE
  8
0
 10
3.00119
 20
15.9509
 11
3
 21
16
  0
LINE
  8
0
 10
3
 20
16
 11
3.00119
 21
16.0491
  0
LINE
  8
0
 10
3.00119
 20
16.0491
 11
3.00481
 21
16.098
  0
LINE
  8
0
 10
3.00481
 20
16.098
 11
3.01082
 21
16.1467
  0
LINE
  8
0
 10
3.01082
 20
16.1467
 11
3.01921
 21
16.1951
  0
LINE
  8
0
 10
3.01921
 20
16.1951
 11
3.02997
 21
16.243
  0
LINE
  8
0
 10
3.02997
 20
16.243
 11
3.04305
 21
16.2903
  0
LINE
  8
0
 10
3.04305
 20
16.2903
 11
3.05844
 21
16.3369
  0
LINE
  8
0
 10
3.05844
 20
16.3369
 11
3.07611
 21
16.3827
  0
LINE
  8
0
 10
3.07611
 20
16.3827
 11
3.09601
 21
16.4276
  0
LINE
  8
0
 10
3.09601
 20
16.4276
 11
3.11807
 21
16.4714
  0
LINE
  8
0
 10
3.11807
 20
16.4714
 11
3.14226
 21
16.5141
  0
LINE
  8
0
 10
3.14226
 20
16.5141
 11
3.16852
 21
16.5556
  0
LINE
  8
0
 10
3.16852
 20
16.5556
 11
3.19678
 21
16.5957
  0
LINE
  8
0
 10
3.19678
 20
16.5957
 11
3.22697
 21
16.6344
  0
LINE
  8
0
 10
3.22697
 20
16.6344
 11
3.25905
 21
16.6716
  0
LINE
  8
0
 10
3.25905
 20
16.6716
 11
3.29289
 21
16.7071
  0
LINE
  8
0
 10
3.29289
 20
16.7071
 11
3.32843
 21
16.741
  0
LINE
  8
0
 10
3.32843
 20
16.741
 11
3.3656
 21
16.773
  0
LINE
  8
0
 10
3.3656
 20
16.773
 11
3.4043
 21
16.8032
  0
LINE
  8
0
 10
3.4043
 20
16.8032
 11
3.44443
 21
16.8315
  0
LINE
  8
0
 10
3.44443
 20
16.8315
 11
3.48589
 21
16.8577
  0
LINE
  8
0
 10
3.48589
 20
16.8577
 11
3.52859
 21
16.8819
  0
LINE
  8
0
 10
3.52859
 20
16.8819
 11
3.57243
 21
16.904
  0
LINE
  8
0
 10
3.57243
 20
16.904
 11
3.61731
 21
16.9239
  0
LINE
  8
0
 10
3.61731
 20
16.9239
 11
3.6631
 21
16.9415
  0
LINE
  8
0
 10
3.6631
 20
16.9415
 11
3.7097
 21
16.9569
  0
LINE
  8
0
 10
3.7097
 20
16.9569
 11
3.75702
 21
16.97
  0
LINE
  8
0
 10
3.75702
 20
16.97
 11
3.8049
 21
16.9808
  0
LINE
  8
0
 10
3.8049
 20
16.9808
 11
3.85326
 21
16.9892
  0
LINE
  8
0
 10
3.85326
 20
16.9892
 11
3.90198
 21
16.9952
  0
LINE
  8
0
 10
3.90198
 20
16.9952
 11
3.95093
 21
16.9988
  0
LINE
  8
0
 10
3.95093
 20
16.9988
 11
4
 21
17
  0
LINE
  8
0
 10
4
 20
17
 11
4.04906
 21
16.9988
  0
LINE
  8
0
 10
4.04906
 20
16.9988
 11
4.09801
 21
16.9952
  0
LINE
  8
0
 10
4.09801
 20
16.9952
 11
4.14673
 21
16.9892
  0
LINE
  8
0
 10
4.14673
 20
16.9892
 11
4.19508
 21
16.9808
  0
LINE
  8
0
 10
4.19508
 20
16.9808
 11
4.24297
 21
16.97
  0
LINE
  8
0
 10
4.24297
 20
16.97
 11
4.29028
 21
16.9569
  0
LINE
  8
0
 10
4.29028
 20
16.9569
 11
4.33688
 21
16.9415
  0
LINE
  8
0
 10
4.33688
 20
16.9415
 11
4.38268
 21
16.9239
  0
LINE
  8
0
 10
4.38268
 20
16.9239
 11
4.42755
 21
16.904
  0
LINE
  8
0
 10
4.42755
 20
16.904
 11
4.47139
 21
16.8819
  0
LINE
  8
0
 10
4.47139
 20
16.8819
 11
4.5141
 21
16.8577
  0
LINE
  8
0
 10
4.5141
 20
16.8577
 11
4.55556
 21
16.8315
  0
LINE
  8
0
 10
4.55556
 20
16.8315
 11
4.59569
 21
16.8032
  0
LINE
  8
0
 10
4.59569
 20
16.8032
 11
4.63438
 21
16.773
  0
LINE
  8
0
 10
4.63438
 20
16.773
 11
4.67155
 21
16.741
  0
LINE
  8
0
 10
4.67155
 20
16.741
 11
4.70709
 21
16.7071
  0
LINE
  8
0
 10
4.70709
 20
16.7071
 11
4.74094
 21
16.6716
  0
LINE
  8
0
 10
4.74094
 20
16.6716
 11
4.77301
 21
16.6344
  0
LINE
  8
0
 10
4.77301
 20
16.6344
 11
4.80321
 21
16.5957
  0
LINE
  8
0
 10
4.80321
 20
16.5957
 11
4.83147
 21
16.5556
  0
LINE
  8
0
 10
4.83147
 20
16.5556
 11
4.85773
 21
16.5141
  0
LINE
  8
0
 10
4.85773
 20
16.5141
 11
4.88191
 21
16.4714
  0
LINE
  8
0
 10
4.88191
 20
16.4714
 11
4.90398
 21
16.4276
  0
LINE
  8
0
 10
4.90398
 20
16.4276
 11
4.92387
 21
16.3827
  0
LINE
  8
0
 10
4.92387
 20
16.3827
 11
4.94154
 21
16.3369
  0
LINE
  8
0
 10
4.94154
 20
16.3369
 11
4.95694
 21
16.2903
  0
LINE
  8
0
 10
4.95694
 20
16.2903
 11
4.97002
 21
16.243
  0
LINE
  8
0
 10
4.97002
 20
16.243
 11
4.98077
 21
16.1951
  0
LINE
  8
0
 10
4.98077
 20
16.1951
 11
4.98917
 21
16.1467
  0
LINE
  8
0
 10
4.98917
 20
16.1467
 11
4.99518
 21
16.098
  0
LINE
  8
0
 10
4.99518
 20
16.098
 11
4.99879
 21
16.0491
  0
LINE
  8
0
 10
4.99879
 20
16.0491
 11
5
 21
16
  0
LINE
  8
0
 10
5
 20
16
 11
4.99879
 21
15.9509
  0
LINE
  8
0
 10
4.99879
 20
15.9509
 11
4.99518
 21
15.902
  0
LINE
  8
0
 10
4.99518
 20
15.902
 11
4.98917
 21
15.8533
  0
LINE
  8
0
 10
4.98917
 20
15.8533
 11
4.98077
 21
15.8049
  0
LINE
  8
0
 10
4.98077
 20
15.8049
 11
4.97002
 21
15.757
  0
LINE
  8
0
 10
4.97002
 20
15.757
 11
4.95694
 21
15.7097
  0
LINE
  8
0
 10
4.95694
 20
15.7097
 11
4.94154
 21
15.6631
  0
LINE
  8
0
 10
4.94154
 20
15.6631
 11
4.92387
 21
15.6173
  0
LINE
  8
0
 10
4.92387
 20
15.6173
 11
4.90398
 21
15.5724
  0
LINE
  8
0
 10
4.90398
 20
15.5724
 11
4.88191
 21
15.5286
  0
LINE
  8
0
 10
4.88191
 20
15.5286
 11
4.85773
 21
15.4859
  0
LINE
  8
0
 10
4.85773
 20
15.4859
 11
4.83147
 21
15.4444
  0
LINE
  8
0
 10
4.83147
 20
15.4444
 11
4.80321
 21
15.4043
  0
LINE
  8
0
 10
4.80321
 20
15.4043
 11
4.77301
 21
15.3656
  0
LINE
  8
0
 10
4.77301
 20
15.3656
 11
4.74094
 21
15.3284
  0
LINE
  8
0
 10
4.74094
 20
15.3284
 11
4.70709
 21
15.2929
  0
LINE
  8
0
 10
4.70709
 20
15.2929
 11
4.67155
 21
15.259
  0
LINE
  8
0
 10
4.67155
 20
15.259
 11
4.63438
 21
15.227
  0
LINE
  8
0
 10
4.63438
 20
15.227
 11
4.59569
 21
15.1968
  0
LINE
  8
0
 10
4.59569
 20
15.1968
 11
4.55556
 21
15.1685
  0
LINE
  8
0
 10
4.55556
 20
15.1685
 11
4.5141
 21
15.1423
  0
LINE
  8
0
 10
4.5141
 20
15.1423
 11
4.47139
 21
15.1181
  0
LINE
  8
0
 10
4.47139
 20
15.1181
 11
4.42755
 21
15.096
  0
LINE
  8
0
 10
4.42755
 20
15.096
 11
4.38268
 21
15.0761
  0
LINE
  8
0
 10
4.38268
 20
15.0761
 11
4.33688
 21
15.0585
  0
LINE
  8
0
 10
4.33688
 20
15.0585
 11
4.29028
 21
15.0431
  0
LINE
  8
0
 10
4.29028
 20
15.0431
 11
4.24297
 21
15.03
  0
LINE
  8
0
 10
4.24297
 20
15.03
 11
4.19508
 21
15.0192
  0
LINE
  8
0
 10
4.19508
 20
15.0192
 11
4.14673
 21
15.0108
  0
LINE
  8
0
 10
4.14673
 20
15.0108
 11
4.09801
 21
15.0048
  0
LINE
  8
0
 10
4.09801
 20
15.0048
 11
4.04906
 21
15.0012
  0
LINE
  8
0
 10
4.04906
 20
15.0012
 11
4
 21
15
  0
LINE
  8
0
 10
4
 20
15
 11
3.95093
 21
15.0012
  0
LINE
  8
0
 10
-4.04906
 20
7.00119
 11
-4.09801
 21
7.00481
  0
LINE
  8
0
 10
-4.09801
 20
7.00481
 11
-4.14673
 21
7.01082
  0
LINE
  8
0
 10
-4.14673
 20
7.01082
 11
-4.19508
 21
7.01921
  0
LINE
  8
0
 10
-4.19508
 20
7.01921
 11
-4.24297
 21
7.02997
  0
LINE
  8
0
 10
-4.24297
 20
7.02997
 11
-4.29028
 21
7.04305
  0
LINE
  8
0
 10
-4.29028
 20
7.04305
 11
-4.33688
 21
7.05844
  0
LINE
  8
0
 10
-4.33688
 20
7.05844
 11
-4.38268
 21
7.07611
  0
LINE
  8
0
 10
-4.38268
 20
7.07611
 11
-4.42755
 21
7.09601
  0
LINE
  8
0
 10
-4.42755
 20
7.09601
 11
-4.47139
 21
7.11807
  0
LINE
  8
0
 10
-4.47139
 20
7.11807
 11
-4.5141
 21
7.14226
  0
LINE
  8
0
 10
-4.5141
 20
7.14226
 11
-4.55556
 21
7.16852
  0
LINE
  8
0
 10
-4.55556
 20
7.16852
 11
-4.59569
 21
7.19678
  0
LINE
  8
0
 10
-4.59569
 20
7.19678
 11
-4.63438
 21
7.22697
  0
LINE
  8
0
 10
-4.63438
 20
7.22697
 11
-4.67155
 21
7.25905
  0
LINE
  8
0
 10
-4.67155
 20
7.25905
 11
-4.70709
 21
7.29289
  0
LINE
  8
0
 10
-4.70709
 20
7.29289
 11
-4.74094
 21
7.32843
  0
LINE
  8
0
 10
-4.74094
 20
7.32843
 11
-4.77301
 21
7.3656
  0
LINE
  8
0
 10
-4.77301
 20
7.3656
 11
-4.80321
 21
7.4043
  0
LINE
  8
0
 10
-4.80321
 20
7.4043
 11
-4.83147
 21
7.44443
  0
LINE
  8
0
 10
-4.83147
 20
7.44443
 11
-4.85773
 21
7.48589
  0
LINE
  8
0
 10
-4.85773
 20
7.48589
 11
-4.88191
 21
7.52859
  0
LINE
  8
0
 10
-4.88191
 20
7.52859
 11
-4.90398
 21
7.57243
  0
LINE
  8
0
 10
-4.90398
 20
7.57243
 11
-4.92387
 21
7.61731
  0
LINE
  8
0
 10
-4.92387
 20
7.61731
 11
-4.94154
 21
7.6631
  0
LINE
  8
0
 10
-4.94154
 20
7.6631
 11
-4.95694
 21
7.7097
  0
LINE
  8
0
 10
-4.95694
 20
7.7097
 11
-4.97002
 21
7.75702
  0
LINE
  8
0
 10
-4.97002
 20
7.75702
 11
-4.98077
 21
7.8049
  0
LINE
  8
0
 10
-4.98077
 20
7.8049
 11
-4.98917
 21
7.85326
  0
LINE
  8
0
 10
-4.98917
 20
7.85326
 11
-4.99518
 21
7.90198
  0
LINE
  8
0
 10
-4.99518
 20
7.90198
 11
-4.99879
 21
7.95093
  0
LINE
  8
0
 10
-4.99879
 20
7.95093
 11
-5
 21
8
  0
LINE
  8
0
 10
-5
 20
8
 11
-4.99879
 21
8.04906
  0
LINE
  8
0
 10
-4.99879
 20
8.04906
 11
-4.99518
 21
8.09801
  0
LINE
  8
0
 10
-4.99518
 20
8.09801
 11
-4.98917
 21
8.14673
  0
LINE
  8
0
 10
-4.98917
 20
8.14673
 11
-4.98077
 21
8.19508
  0
LINE
  8
0
 10
-4.98077
 20
8.19508
 11
-4.97002
 21
8.24297
  0
LINE
  8
0
 10
-4.97002
 20
8.24297
 11
-4.95694
 21
8.29028
  0
LINE
  8
0
 10
-4.95694
 20
8.29028
 11
-4.94154
 21
8.33688
  0
LINE
  8
0
 10
-4.94154
 20
8.33688
 11
-4.92387
 21
8.38268
  0
LINE
  8
0
 10
-4.92387
 20
8.38268
 11
-4.90398
 21
8.42755
  0
LINE
  8
0
 10
-4.90398
 20
8.42755
 11
-4.88191
 21
8.47139
  0
LINE
  8
0
 10
-4.88191
 20
8.47139
 11
-4.85773
 21
8.5141
  0
LINE
  8
0
 10
-4.85773
 20
8.5141
 11
-4.83147
 21
8.55556
  0
LINE
  8
0
 10
-4.83147
 20
8.55556
 11
-4.80321
 21
8.59569
  0
LINE
  8
0
 10
-4.80321
 20
8.59569
 11
-4.77301
 21
8.63438
  0
LINE
  8
0
 10
-4.77301
 20
8.63438
 11
-4.74094
 21
8.67155
  0
LINE
  8
0
 10
-4.74094
 20
8.67155
 11
-4.70709
 21
8.70709
  0
LINE
  8
0
 10
-4.70709
 20
8.70709
 11
-4.67155
 21
8.74094
  0
LINE
  8
0
 10
-4.67155
 20
8.74094
 11
-4.63438
 21
8.77301
  0
LINE
  8
0
 10
-4.63438
 20
8.77301
 11
-4.59569
 21
8.80321
  0
LINE
  8
0
 10
-4.59569
 20
8.80321
 11
-4.55556
 21
8.83147
  0
LINE
  8
0
 10
-4.55556
 20
8.83147
 11
-4.5141
 21
8.85773
  0
LINE
  8
0
 10
-4.5141
 20
8.85773
 11
-4.47139
 21
8.88191
  0
LINE
  8
0
 10
-4.47139
 20
8.88191
 11
-4.42755
 21
8.90398
  0
LINE
  8
0
 10
-4.42755
 20
8.90398
 11
-4.38268
 21
8.92387
  0
LINE
  8
0
 10
-4.38268
 20
8.92387
 11
-4.33688
 21
8.94154
  0
LINE
  8
0
 10
-4.33688
 20
8.94154
 11
-4.29028
 21
8.95694
  0
LINE
  8
0
 10
-4.29028
 20
8.95694
 11
-4.24297
 21
8.97002
  0
LINE
  8
0
 10
-4.24297
 20
8.97002
 11
-4.19508
 21
8.98077
  0
LINE
  8
0
 10
-4.19508
 20
8.98077
 11
-4.14673
 21
8.98917
  0
LINE
  8
0
 10
-4.14673
 20
8.98917
 11
-4.09801
 21
8.99518
  0
LINE
  8
0
 10
-4.09801
 20
8.99518
 11
-4.04906
 21
8.99879
  0
LINE
  8
0
 10
-4.04906
 20
8.99879
 11
-4
 21
9
  0
LINE
  8
0
 10
-4
 20
9
 11
-3.95093
 21
8.99879
  0
LINE
  8
0
 10
-3.95093
 20
8.99879
 11
-3.90198
 21
8.99518
  0
LINE
  8
0
 10
-3.90198
 20
8.99518
 11
-3.85326
 21
8.98917
  0
LINE
  8
0
 10
-3.85326
 20
8.98917
 11
-3.8049
 21
8.98077
  0
LINE
  8
0
 10
-3.8049
 20
8.98077
 11
-3.75702
 21
8.97002
  0
LINE
  8
0
 10
-3.75702
 20
8.97002
 11
-3.7097
 21
8.95694
  0
LINE
  8
0
 10
-3.7097
 20
8.95694
 11
-3.6631
 21
8.94154
  0
LINE
  8
0
 10
-3.6631
 20
8.94154
 11
-3.61731
 21
8.92387
  0
LINE
  8
0
 10
-3.61731
 20
8.92387
 11
-3.57243
 21
8.90398
  0
LINE
  8
0
 10
-3.57243
 20
8.90398
 11
-3.52859
 21
8.88191
  0
LINE
  8
0
 10
-3.52859
 20
8.88191
 11
-3.48589
 21
8.85773
  0
LINE
  8
0
 10
-3.48589
 20
8.85773
 11
-3.44443
 21
8.83147
  0
LINE
  8
0
 10
-3.44443
 20
8.83147
 11
-3.4043
 21
8.80321
  0
LINE
  8
0
 10
-3.4043
 20
8.80321
 11
-3.3656
 21
8.77301
  0
LINE
  8
0
 10
-3.3656
 20
8.77301
 11
-3.32843
 21
8.74094
  0
LINE
  8
0
 10
-3.32843
 20
8.74094
 11
-3.29289
 21
8.70709
  0
LINE
  8
0
 10
-3.29289
 20
8.70709
 11
-3.25905
 21
8.67155
  0
LINE
  8
0
 10
-3.25905
 20
8.67155
 11
-3.22697
 21
8.63438
  0
LINE
  8
0
 10
-3.22697
 20
8.63438
 11
-3.19678
 21
8.59569
  0
LINE
  8
0
 10
-3.19678
 20
8.59569
 11
-3.16852
 21
8.55556
  0
LINE
  8
0
 10
-3.16852
 20
8.55556
 11
-3.14226
 21
8.5141
  0
LINE
  8
0
 10
-3.14226
 20
8.5141
 11
-3.11807
 21
8.47139
  0
LINE
  8
0
 10
-3.11807
 20
8.47139
 11
-3.09601
 21
8.42755
  0
LINE
  8
0
 10
-3.09601
 20
8.42755
 11
-3.07611
 21
8.38268
  0
LINE
  8
0
 10
-3.07611
 20
8.38268
 11
-3.05844
 21
8.33688
  0
LINE
  8
0
 10
-3.05844
 20
8.33688
 11
-3.04305
 21
8.29028
  0
LINE
  8
0
 10
-3.04305
 20
8.29028
 11
-3.02997
 21
8.24297
  0
LINE
  8
0
 10
-3.02997
 20
8.24297
 11
-3.01921
 21
8.19508
  0
LINE
  8
0
 10
-3.01921
 20
8.19508
 11
-3.01082
 21
8.14673
  0
LINE
  8
0
 10
-3.01082
 20
8.14673
 11
-3.00481
 21
8.09801
  0
LINE
  8
0
 10
-3.00481
 20
8.09801
 11
-3.00119
 21
8.04906
  0
LINE
  8
0
 10
-3.00119
 20
8.04906
 11
-3
 21
8
  0
LINE
  8
0
 10
-3
 20
8
 11
-3.00119
 21
7.95093
  0
LINE
  8
0
 10
-3.00119
 20
7.95093
 11
-3.00481
 21
7.90198
  0
LINE
  8
0
 10
-3.00481
 20
7.90198
 11
-3.01082
 21
7.85326
  0
LINE
  8
0
 10
-3.01082
 20
7.85326
 11
-3.01921
 21
7.8049
  0
LINE
  8
0
 10
-3.01921
 20
7.8049
 11
-3.02997
 21
7.75702
  0
LINE
  8
0
 10
-3.02997
 20
7.75702
 11
-3.04305
 21
7.7097
  0
LINE
  8
0
 10
-3.04305
 20
7.7097
 11
-3.05844
 21
7.6631
  0
LINE
  8
0
 10
-3.05844
 20
7.6631
 11
-3.07611
 21
7.61731
  0
LINE
  8
0
 10
-3.07611
 20
7.61731
 11
-3.09601
 21
7.57243
  0
LINE
  8
0
 10
-3.09601
 20
7.57243
 11
-3.11807
 21
7.52859
  0
LINE
  8
0
 10
-3.11807
 20
7.52859
 11
-3.14226
 21
7.48589
  0
LINE
  8
0
 10
-3.14226
 20
7.48589
 11
-3.16852
 21
7.44443
  0
LINE
  8
0
 10
-3.16852
 20
7.44443
 11
-3.19678
 21
7.4043
  0
LINE
  8
0
 10
-3.19678
 20
7.4043
 11
-3.22697
 21
7.3656
  0
LINE
  8
0
 10
-3.22697
 20
7.3656
 11
-3.25905
 21
7.32843
  0
LINE
  8
0
 10
-3.25905
 20
7.32843
 11
-3.29289
 21
7.29289
  0
LINE
  8
0
 10
-3.29289
 20
7.29289
 11
-3.32843
 21
7.25905
  0
LINE
  8
0
 10
-3.32843
 20
7.25905
 11
-3.3656
 21
7.22697
  0
LINE
  8
0
 10
-3.3656
 20
7.22697
 11
-3.4043
 21
7.19678
  0
LINE
  8
0
 10
-3.4043
 20
7.19678
 11
-3.44443
 21
7.16852
  0
LINE
  8
0
 10
-3.44443
 20
7.16852
 11
-3.48589
 21
7.14226
  0
LINE
  8
0
 10
-3.48589
 20
7.14226
 11
-3.52859
 21
7.11807
  0
LINE
  8
0
 10
-3.52859
 20
7.11807
 11
-3.57243
 21
7.09601
  0
LINE
  8
0
 10
-3.57243
 20
7.09601
 11
-3.61731
 21
7.07611
  0
LINE
  8
0
 10
-3.61731
 20
7.07611
 11
-3.6631
 21
7.05844
  0
LINE
  8
0
 10
-3.6631
 20
7.05844
 11
-3.7097
 21
7.04305
  0
LINE
  8
0
 10
-3.7097
 20
7.04305
 11
-3.75702
 21
7.02997
  0
LINE
  8
0
 10
-3.75702
 20
7.02997
 11
-3.8049
 21
7.01921
  0
LINE
  8
0
 10
-3.8049
 20
7.01921
 11
-3.85326
 21
7.01082
  0
LINE
  8
0
 10
-3.85326
 20
7.01082
 11
-3.90198
 21
7.00481
  0
LINE
  8
0
 10
-3.90198
 20
7.00481
 11
-3.95093
 21
7.00119
  0
LINE
  8
0
 10
-3.95093
 20
7.00119
 11
-4
 21
7
  0
LINE
  8
0
 10
-4
 20
7
 11
-4.04906
 21
7.00119
  0
LINE
  8
0
 10
7.95093
 20
3.00119
 11
7.90198
 21
3.00481
  0
LINE
  8
0
 10
7.90198
 20
3.00481
 11
7.85326
 21
3.01082
  0
LINE
  8
0
 10
7.85326
 20
3.01082
 11
7.8049
 21
3.01921
  0
LINE
  8
0
 10
7.8049
 20
3.01921
 11
7.75702
 21
3.02997
  0
LINE
  8
0
 10
7.75702
 20
3.02997
 11
7.7097
 21
3.04305
  0
LINE
  8
0
 10
7.7097
 20
3.04305
 11
7.6631
 21
3.05844
  0
LINE
  8
0
 10
7.6631
 20
3.05844
 11
7.61731
 21
3.07611
  0
LINE
  8
0
 10
7.61731
 20
3.07611
 11
7.57243
 21
3.09601
  0
LINE
  8
0
 10
7.57243
 20
3.09601
 11
7.52859
 21
3.11807
  0
LINE
  8
0
 10
7.52859
 20
3.11807
 11
7.48589
 21
3.14226
  0
LINE
  8
0
 10
7.48589
 20
3.14226
 11
7.44443
 21
3.16852
  0
LINE
  8
0
 10
7.44443
 20
3.16852
 11
7.4043
 21
3.19678
  0
LINE
  8
0
 10
7.4043
 20
3.19678
 11
7.3656
 21
3.22697
  0
LINE
  8
0
 10
7.3656
 20
3.22697
 11
7.32843
 21
3.25905
  0
LINE
  8
0
 10
7.32843
 20
3.25905
 11
7.29289
 21
3.29289
  0
LINE
  8
0
 10
7.29289
 20
3.29289
 11
7.25905
 21
3.32843
  0
LINE
  8
0
 10
7.25905
 20
3.32843
 11
7.22697
 21
3.3656
  0
LINE
  8
0
 10
7.22697
 20
3.3656
 11
7.19678
 21
3.4043
  0
LINE
  8
0
 10
7.19678
 20
3.4043
 11
7.16852
 21
3.44443
  0
LINE
  8
0
 10
7.16852
 20
3.44443
 11
7.14226
 21
3.48589
  0
LINE
  8
0
 10
7.14226
 20
3.48589
 11
7.11807
 21
3.52859
  0
LINE
  8
0
 10
7.11807
 20
3.52859
 11
7.09601
 21
3.57243
  0
LINE
  8
0
 10
7.09601
 20
3.57243
 11
7.07611
 21
3.61731
  0
LINE
  8
0
 10
7.07611
 20
3.61731
 11
7.05844
 21
3.6631
  0
LINE
  8
0
 10
7.05844
 20
3.6631
 11
7.04305
 21
3.7097
  0
LINE
  8
0
 10
7.04305
 20
3.7097
 11
7.02997
 21
3.75702
  0
LINE
  8
0
 10
7.02997
 20
3.75702
 11
7.01921
 21
3.8049
  0
LINE
  8
0
 10
7.01921
 20
3.8049
 11
7.01082
 21
3.85326
  0
LINE
  8
0
 10
7.01082
 20
3.85326
 11
7.00481
 21
3.90198
  0
LINE
  8
0
 10
7.00481
 20
3.90198
 11
7.00119
 21
3.95093
  0
LINE
  8
0
 10
7.00119
 20
3.95093
 11
7
 21
4
  0
LINE
  8
0
 10
7
 20
4
 11
7.00119
 21
4.04906
  0
LINE
  8
0
 10
7.00119
 20
4.04906
 11
7.00481
 21
4.09801
  0
LINE
  8
0
 10
7.00481
 20
4.09801
 11
7.01082
 21
4.14673
  0
LINE
  8
0
 10
7.01082
 20
4.14673
 11
7.01921
 21
4.19508
  0
LINE
  8
0
 10
7.01921
 20
4.19508
 11
7.02997
 21
4.24297
  0
LINE
  8
0
 10
7.02997
 20
4.24297
 11
7.04305
 21
4.29028
  0
LINE
  8
0
 10
7.04305
 20
4.29028
 11
7.05844
 21
4.33688
  0
LINE
  8
0
 10
7.05844
 20
4.33688
 11
7.07611
 21
4.38268
  0
LINE
  8
0
 10
7.07611
 20
4.38268
 11
7.09601
 21
4.42755
  0
LINE
  8
0
 10
7.09601
 20
4.42755
 11
7.11807
 21
4.47139
  0
LINE
  8
0
 10
7.11807
 20
4.47139
 11
7.14226
 21
4.5141
  0
LINE
  8
0
 10
7.14226
 20
4.5141
 11
7.16852
 21
4.55556
  0
LINE
  8
0
 10
7.16852
 20
4.55556
 11
7.19678
 21
4.59569
  0
LINE
  8
0
 10
7.19678
 20
4.59569
 11
7.22697
 21
4.63438
  0
LINE
  8
0
 10
7.22697
 20
4.63438
 11
7.25905
 21
4.67155
  0
LINE
  8
0
 10
7.25905
 20
4.67155
 11
7.29289
 21
4.70709
  0
LINE
  8
0
 10
7.29289
 20
4.70709
 11
7.32843
 21
4.74094
  0
LINE
  8
0
 10
7.32843
 20
4.74094
 11
7.3656
 21
4.77301
  0
LINE
  8
0
 10
7.3656
 20
4.77301
 11
7.4043
 21
4.80321
  0
LINE
  8
0
 10
7.4043
 20
4.80321
 11
7.44443
 21
4.83147
  0
LINE
  8
0
 10
7.44443
 20
4.83147
 11
7.48589
 21
4.85773
  0
LINE
  8
0
 10
7.48589
 20
4.85773
 11
7.52859
 21
4.88191
  0
LINE
  8
0
 10
7.52859
 20
4.88191
 11
7.57243
 21
4.90398
  0
LINE
  8
0
 10
7.57243
 20
4.90398
 11
7.61731
 21
4.92387
  0
LINE
  8
0
 10
7.61731
 20
4.92387
 11
7.6631
 21
4.94154
  0
LINE
  8
0
 10
7.6631
 20
4.94154
 11
7.7097
 21
4.95694
  0
LINE
  8
0
 10
7.7097
 20
4.95694
 11
7.75702
 21
4.97002
  0
LINE
  8
0
 10
7.75702
 20
4.97002
 11
7.8049
 21
4.98077
  0
LINE
  8
0
 10
7.8049
 20
4.98077
 11
7.85326
 21
4.98917
  0
LINE
  8
0
 10
7.85326
 20
4.98917
 11
7.90198
 21
4.99518
  0
LINE
  8
0
 10
7.90198
 20
4.99518
 11
7.95093
 21
4.99879
  0
LINE
  8
0
 10
7.95093
 20
4.99879
 11
8
 21
5
  0
LINE
  8
0
 10
8
 20
5
 11
8.04906
 21
4.99879
  0
LINE
  8
0
 10
8.04906
 20
4.99879
 11
8.09801
 21
4.99518
  0
LINE
  8
0
 10
8.09801
 20
4.99518
 11
8.14673
 21
4.98917
  0
LINE
  8
0
 10
8.14673
 20
4.98917
 11
8.19508
 21
4.98077
  0
LINE
  8
0
 10
8.19508
 20
4.98077
 11
8.24297
 21
4.97002
  0
LINE
  8
0
 10
8.24297
 20
4.97002
 11
8.29028
 21
4.95694
  0
LINE
  8
0
 10
8.29028
 20
4.95694
 11
8.33688
 21
4.94154
  0
LINE
  8
0
 10
8.33688
 20
4.94154
 11
8.38268
 21
4.92387
  0
LINE
  8
0
 10
8.38268
 20
4.92387
 11
8.42755
 21
4.90398
  0
LINE
  8
0
 10
8.42755
 20
4.90398
 11
8.47139
 21
4.88191
  0
LINE
  8
0
 10
8.47139
 20
4.88191
 11
8.5141
 21
4.85773
  0
LINE
  8
0
 10
8.5141
 20
4.85773
 11
8.55556
 21
4.83147
  0
LINE
  8
0
 10
8.55556
 20
4.83147
 11
8.59569
 21
4.80321
  0
LINE
  8
0
 10
8.59569
 20
4.80321
 11
8.63438
 21
4.77301
  0
LINE
  8
0
 10
8.63438
 20
4.77301
 11
8.67155
 21
4.74094
  0
LINE
  8
0
 10
8.67155
 20
4.74094
 11
8.70709
 21
4.70709
  0
LINE
  8
0
 10
8.70709
 20
4.70709
 11
8.74094
 21
4.67155
  0
LINE
  8
0
 10
8.74094
 20
4.67155
 11
8.77301
 21
4.63438
  0
LINE
  8
0
 10
8.77301
 20
4.63438
 11
8.80321
 21
4.59569
  0
LINE
  8
0
 10
8.80321
 20
4.59569
 11
8.83147
 21
4.55556
  0
LINE
  8
0
 10
8.83147
 20
4.55556
 11
8.85773
 21
4.5141
  0
LINE
  8
0
 10
8.85773
 20
4.5141
 11
8.88191
 21
4.47139
  0
LINE
  8
0
 10
8.88191
 20
4.47139
 11
8.90398
 21
4.42755
  0
LINE
  8
0
 10
8.90398
 20
4.42755
 11
8.92387
 21
4.38268
  0
LINE
  8
0
 10
8.92387
 20
4.38268
 11
8.94154
 21
4.33688
  0
LINE
  8
0
 10
8.94154
 20
4.33688
 11
8.95694
 21
4.29028
  0
LINE
  8
0
 10
8.95694
 20
4.29028
 11
8.97002
 21
4.24297
  0
LINE
  8
0
 10
8.97002
 20
4.24297
 11
8.98077
 21
4.19508
  0
LINE
  8
0
 10
8.98077
 20
4.19508
 11
8.98917
 21
4.14673
  0
LINE
  8
0
 10
8.98917
 20
4.14673
 11
8.99518
 21
4.09801
  0
LINE
  8
0
 10
8.99518
 20
4.09801
 11
8.99879
 21
4.04906
  0
LINE
  8
0
 10
8.99879
 20
4.04906
 11
9
 21
4
  0
LINE
  8
0
 10
9
 20
4
 11
8.99879
 21
3.95093
  0
LINE
  8
0
 10
8.99879
 20
3.95093
 11
8.99518
 21
3.90198
  0
LINE
  8
0
 10
8.99518
 20
3.90198
 11
8.98917
 21
3.85326
  0
LINE
  8
0
 10
8.98917
 20
3.85326
 11
8.98077
 21
3.8049
  0
LINE
  8
0
 10
8.98077
 20
3.8049
 11
8.97002
 21
3.75702
  0
LINE
  8
0
 10
8.97002
 20
3.75702
 11
8.95694
 21
3.7097
  0
LINE
  8
0
 10
8.95694
 20
3.7097
 11
8.94154
 21
3.6631
  0
LINE
  8
0
 10
8.94154
 20
3.6631
 11
8.92387
 21
3.61731
  0
LINE
  8
0
 10
8.92387
 20
3.61731
 11
8.90398
 21
3.57243
  0
LINE
  8
0
 10
8.90398
 20
3.57243
 11
8.88191
 21
3.52859
  0
LINE
  8
0
 10
8.88191
 20
3.52859
 11
8.85773
 21
3.48589
  0
LINE
  8
0
 10
8.85773
 20
3.48589
 11
8.83147
 21
3.44443
  0
LINE
  8
0
 10
8.83147
 20
3.44443
 11
8.80321
 21
3.4043
  0
LINE
  8
0
 10
8.80321
 20
3.4043
 11
8.77301
 21
3.3656
  0
LINE
  8
0
 10
8.77301
 20
3.3656
 11
8.74094
 21
3.32843
  0
LINE
  8
0
 10
8.74094
 20
3.32843
 11
8.70709
 21
3.29289
  0
LINE
  8
0
 10
8.70709
 20
3.29289
 11
8.67155
 21
3.25905
  0
LINE
  8
0
 10
8.67155
 20
3.25905
 11
8.63438
 21
3.22697
  0
LINE
  8
0
 10
8.63438
 20
3.22697
 11
8.59569
 21
3.19678
  0
LINE
  8
0
 10
8.59569
 20
3.19678
 11
8.55556
 21
3.16852
  0
LINE
  8
0
 10
8.55556
 20
3.16852
 11
8.5141
 21
3.14226
  0
LINE
  8
0
 10
8.5141
 20
3.14226
 11
8.47139
 21
3.11807
  0
LINE
  8
0
 10
8.47139
 20
3.11807
 11
8.42755
 21
3.09601
  0
LINE
  8
0
 10
8.42755
 20
3.09601
 11
8.38268
 21
3.07611
  0
LINE
  8
0
 10
8.38268
 20
3.07611
 11
8.33688
 21
3.05844
  0
LINE
  8
0
 10
8.33688
 20
3.05844
 11
8.29028
 21
3.04305
  0
LINE
  8
0
 10
8.29028
 20
3.04305
 11
8.24297
 21
3.02997
  0
LINE
  8
0
 10
8.24297
 20
3.02997
 11
8.19508
 21
3.01921
  0
LINE
  8
0
 10
8.19508
 20
3.01921
 11
8.14673
 21
3.01082
  0
LINE
  8
0
 10
8.14673
 20
3.01082
 11
8.09801
 21
3.00481
  0
LINE
  8
0
 10
8.09801
 20
3.00481
 11
8.04906
 21
3.00119
  0
LINE
  8
0
 10
8.04906
 20
3.00119
 11
8
 21
3
  0
LINE
  8
0
 10
8
 20
3
 11
7.95093
 21
3.00119
  0
LINE
  8
0
 10
-8.04906
 20
-4.99879
 11
-8.09801
 21
-4.99518
  0
LINE
  8
0
 10
-8.09801
 20
-4.99518
 11
-8.14673
 21
-4.98917
  0
LINE
  8
0
 10
-8.14673
 20
-4.98917
 11
-8.19508
 21
-4.98077
  0
LINE
  8
0
 10
-8.19508
 20
-4.98077
 11
-8.24297
 21
-4.97002
  0
LINE
  8
0
 10
-8.24297
 20
-4.97002
 11
-8.29028
 21
-4.95694
  0
LINE
  8
0
 10
-8.29028
 20
-4.95694
 11
-8.33688
 21
-4.94154
  0
LINE
  8
0
 10
-8.33688
 20
-4.94154
 11
-8.38268
 21
-4.92387
  0
LINE
  8
0
 10
-8.38268
 20
-4.92387
 11
-8.42755
 21
-4.90398
  0
LINE
  8
0
 10
-8.42755
 20
-4.90398
 11
-8.47139
 21
-4.88191
  0
LINE
  8
0
 10
-8.47139
 20
-4.88191
 11
-8.5141
 21
-4.85773
  0
LINE
  8
0
 10
-8.5141
 20
-4.85773
 11
-8.55556
 21
-4.83147
  0
LINE
  8
0
 10
-8.55556
 20
-4.83147
 11
-8.59569
 21
-4.80321
  0
LINE
  8
0
 10
-8.59569
 20
-4.80321
 11
-8.63438
 21
-4.77301
  0
LINE
  8
0
 10
-8.63438
 20
-4.77301
 11
-8.67155
 21
-4.74094
  0
LINE
  8
0
 10
-8.67155
 20
-4.74094
 11
-8.70709
 21
-4.70709
  0
LINE
  8
0
 10
-8.70709
 20
-4.70709
 11
-8.74094
 21
-4.67155
  0
LINE
  8
0
 10
-8.74094
 20
-4.67155
 11
-8.77301
 21
-4.63438
  0
LINE
  8
0
 10
-8.77301
 20
-4.63438
 11
-8.80321
 21
-4.59569
  0
LINE
  8
0
 10
-8.80321
 20
-4.59569
 11
-8.83147
 21
-4.55556
  0
LINE
  8
0
 10
-8.83147
 20
-4.55556
 11
-8.85773
 21
-4.5141
  0
LINE
  8
0
 10
-8.85773
 20
-4.5141
 11
-8.88191
 21
-4.47139
  0
LINE
  8
0
 10
-8.88191
 20
-4.47139
 11
-8.90398
 21
-4.42755
  0
LINE
  8
0
 10
-8.90398
 20
-4.42755
 11
-8.92387
 21
-4.38268
  0
LINE
  8
0
 10
-8.92387
 20
-4.38268
 11
-8.94154
 21
-4.33688
  0
LINE
  8
0
 10
-8.94154
 20
-4.33688
 11
-8.95694
 21
-4.29028
  0
LINE
  8
0
 10
-8.95694
 20
-4.29028
 11
-8.97002
 21
-4.24297
  0
LINE
  8
0
 10
-8.97002
 20
-4.24297
 11
-8.98077
 21
-4.19508
  0
LINE
  8
0
 10
-8.98077
 20
-4.19508
 11
-8.98917
 21
-4.14673
  0
LINE
  8
0
 10
-8.98917
 20
-4.14673
 11
-8.99518
 21
-4.09801
  0
LINE
  8
0
 10
-8.99518
 20
-4.09801
 11
-8.99879
 21
-4.04906
  0
LINE
  8
0
 10
-8.99879
 20
-4.04906
 11
-9
 21
-4
  0
LINE
  8
0
 10
-9
 20
-4
 11
-8.99879
 21
-3.95093
  0
LINE
  8
0
 10
-8.99879
 20
-3.95093
 11
-8.99518
 21
-3.90198
  0
LINE
  8
0
 10
-8.99518
 20
-3.90198
 11
-8.98917
 21
-3.85326
  0
LINE
  8
0
 10
-8.98917
 20
-3.85326
 11
-8.98077
 21
-3.8049
  0
LINE
  8
0
 10
-8.98077
 20
-3.8049
 11
-8.97002
 21
-3.75702
  0
LINE
  8
0
 10
-8.97002
 20
-3.75702
 11
-8.95694
 21
-3.7097
  0
LINE
  8
0
 10
-8.95694
 20
-3.7097
 11
-8.94154
 21
-3.6631
  0
LINE
  8
0
 10
-8.94154
 20
-3.6631
 11
-8.92387
 21
-3.61731
  0
LINE
  8
0
 10
-8.92387
 20
-3.61731
 11
-8.90398
 21
-3.57243
  0
LINE
  8
0
 10
-8.90398
 20
-3.57243
 11
-8.88191
 21
-3.52859
  0
LINE
  8
0
 10
-8.88191
 20
-3.52859
 11
-8.85773
 21
-3.48589
  0
LINE
  8
0
 10
-8.85773
 20
-3.48589
 11
-8.83147
 21
-3.44443
  0
LINE
  8
0
 10
-8.83147
 20
-3.44443
 11
-8.80321
 21
-3.4043
  0
LINE
  8
0
 10
-8.80321
 20
-3.4043
 11
-8.77301
 21
-3.3656
  0
LINE
  8
0
 10
-8.77301
 20
-3.3656
 11
-8.74094
 21
-3.32843
  0
LINE
  8
0
 10
-8.74094
 20
-3.32843
 11
-8.70709
 21
-3.29289
  0
LINE
  8
0
 10
-8.70709
 20
-3.29289
 11
-8.67155
 21
-3.25905
  0
LINE
  8
0
 10
-8.67155
 20
-3.25905
 11
-8.63438
 21
-3.22697
  0
LINE
  8
0
 10
-8.63438
 20
-3.22697
 11
-8.59569
 21
-3.19678
  0
LINE
  8
0
 10
-8.59569
 20
-3.19678
 11
-8.55556
 21
-3.16852
  0
LINE
  8
0
 10
-8.55556
 20
-3.16852
 11
-8.5141
 21
-3.14226
  0
LINE
  8
0
 10
-8.5141
 20
-3.14226
 11
-8.47139
 21
-3.11807
  0
LINE
  8
0
 10
-8.47139
 20
-3.11807
 11
-8.42755
 21
-3.09601
  0
LINE
  8
0
 10
-8.42755
 20
-3.09601
 11
-8.38268
 21
-3.07611
  0
LINE
  8
0
 10
-8.38268
 20
-3.07611
 11
-8.33688
 21
-3.05844
  0
LINE
  8
0
 10
-8.33688
 20
-3.05844
 11
-8.29028
 21
-3.04305
  0
LINE
  8
0
 10
-8.29028
 20
-3.04305
 11
-8.24297
 21
-3.02997
  0
LINE
  8
0
 10
-8.24297
 20
-3.02997
 11
-8.19508
 21
-3.01921
  0
LINE
  8
0
 10
-8.19508
 20
-3.01921
 11
-8.14673
 21
-3.01082
  0
LINE
  8
0
 10
-8.14673
 20
-3.01082
 11
-8.09801
 21
-3.00481
  0
LINE
  8
0
 10
-8.09801
 20
-3.00481
 11
-8.04906
 21
-3.00119
  0
LINE
  8
0
 10
-8.04906
 20
-3.00119
 11
-8
 21
-3
  0
LINE
  8
0
 10
-8
 20
-3
 11
-7.95093
 21
-3.00119
  0
LINE
  8
0
 10
-7.95093
 20
-3.00119
 11
-7.90198
 21
-3.00481
  0
LINE
  8
0
 10
-7.90198
 20
-3.00481
 11
-7.85326
 21
-3.01082
  0
LINE
  8
0
 10
-7.85326
 20
-3.01082
 11
-7.8049
 21
-3.01921
  0
LINE
  8
0
 10
-7.8049
 20
-3.01921
 11
-7.75702
 21
-3.02997
  0
LINE
  8
0
 10
-7.75702
 20
-3.02997
 11
-7.7097
 21
-3.04305
  0
LINE
  8
0
 10
-7.7097
 20
-3.04305
 11
-7.6631
 21
-3.05844
  0
LINE
  8
0
 10
-7.6631
 20
-3.05844
 11
-7.61731
 21
-3.07611
  0
LINE
  8
0
 10
-7.61731
 20
-3.07611
 11
-7.57243
 21
-3.09601
  0
LINE
  8
0
 10
-7.57243
 20
-3.09601
 11
-7.52859
 21
-3.11807
  0
LINE
  8
0
 10
-7.52859
 20
-3.11807
 11
-7.48589
 21
-3.14226
  0
LINE
  8
0
 10
-7.48589
 20
-3.14226
 11
-7.44443
 21
-3.16852
  0
LINE
  8
0
 10
-7.44443
 20
-3.16852
 11
-7.4043
 21
-3.19678
  0
LINE
  8
0
 10
-7.4043
 20
-3.19678
 11
-7.3656
 21
-3.22697
  0
LINE
  8
0
 10
-7.3656
 20
-3.22697
 11
-7.32843
 21
-3.25905
  0
LINE
  8
0
 10
-7.32843
 20
-3.25905
 11
-7.29289
 21
-3.29289
  0
LINE
  8
0
 10
-7.29289
 20
-3.29289
 11
-7.25905
 21
-3.32843
  0
LINE
  8
0
 10
-7.25905
 20
-3.32843
 11
-7.22697
 21
-3.3656
  0
LINE
  8
0
 10
-7.22697
 20
-3.3656
 11
-7.19678
 21
-3.4043
  0
LINE
  8
0
 10
-7.19678
 20
-3.4043
 11
-7.16852
 21
-3.44443
  0
LINE
  8
0
 10
-7.16852
 20
-3.44443
 11
-7.14226
 21
-3.48589
  0
LINE
  8
0
 10
-7.14226
 20
-3.48589
 11
-7.11807
 21
-3.52859
  0
LINE
  8
0
 10
-7.11807
 20
-3.52859
 11
-7.09601
 21
-3.57243
  0
LINE
  8
0
 10
-7.09601
 20
-3.57243
 11
-7.07611
 21
-3.61731
  0
LINE
  8
0
 10
-7.07611
 20
-3.61731
 11
-7.05844
 21
-3.6631
  0
LINE
  8
0
 10
-7.05844
 20
-3.6631
 11
-7.04305
 21
-3.7097
  0
LINE
  8
0
 10
-7.04305
 20
-3.7097
 11
-7.02997
 21
-3.75702
  0
LINE
  8
0
 10
-7.02997
 20
-3.75702
 11
-7.01921
 21
-3.8049
  0
LINE
  8
0
 10
-7.01921
 20
-3.8049
 11
-7.01082
 21
-3.85326
  0
LINE
  8
0
 10
-7.01082
 20
-3.85326
 11
-7.00481
 21
-3.90198
  0
LINE
  8
0
 10
-7.00481
 20
-3.90198
 11
-7.00119
 21
-3.95093
  0
LINE
  8
0
 10
-7.00119
 20
-3.95093
 11
-7
 21
-4
  0
LINE
  8
0
 10
-7
 20
-4
 11
-7.00119
 21
-4.04906
  0
LINE
  8
0
 10
-7.00119
 20
-4.04906
 11
-7.00481
 21
-4.09801
  0
LINE
  8
0
 10
-7.00481
 20
-4.09801
 11
-7.01082
 21
-4.14673
  0
LINE
  8
0
 10
-7.01082
 20
-4.14673
 11
-7.01921
 21
-4.19508
  0
LINE
  8
0
 10
-7.01921
 20
-4.19508
 11
-7.02997
 21
-4.24297
  0
LINE
  8
0
 10
-7.02997
 20
-4.24297
 11
-7.04305
 21
-4.29028
  0
LINE
  8
0
 10
-7.04305
 20
-4.29028
 11
-7.05844
 21
-4.33688
  0
LINE
  8
0
 10
-7.05844
 20
-4.33688
 11
-7.07611
 21
-4.38268
  0
LINE
  8
0
 10
-7.07611
 20
-4.38268
 11
-7.09601
 21
-4.42755
  0
LINE
  8
0
 10
-7.09601
 20
-4.42755
 11
-7.11807
 21
-4.47139
  0
LINE
  8
0
 10
-7.11807
 20
-4.47139
 11
-7.14226
 21
-4.5141
  0
LINE
  8
0
 10
-7.14226
 20
-4.5141
 11
-7.16852
 21
-4.55556
  0
LINE
  8
0
 10
-7.16852
 20
-4.55556
 11
-7.19678
 21
-4.59569
  0
LINE
  8
0
 10
-7.19678
 20
-4.59569
 11
-7.22697
 21
-4.63438
  0
LINE
  8
0
 10
-7.22697
 20
-4.63438
 11
-7.25905
 21
-4.67155
  0
LINE
  8
0
 10
-7.25905
 20
-4.67155
 11
-7.29289
 21
-4.70709
  0
LINE
  8
0
 10
-7.29289
 20
-4.70709
 11
-7.32843
 21
-4.74094
  0
LINE
  8
0
 10
-7.32843
 20
-4.74094
 11
-7.3656
 21
-4.77301
  0
LINE
  8
0
 10
-7.3656
 20
-4.77301
 11
-7.4043
 21
-4.80321
  0
LINE
  8
0
 10
-7.4043
 20
-4.80321
 11
-7.44443
 21
-4.83147
  0
LINE
  8
0
 10
-7.44443
 20
-4.83147
 11
-7.48589
 21
-4.85773
  0
LINE
  8
0
 10
-7.48589
 20
-4.85773
 11
-7.52859
 21
-4.88191
  0
LINE
  8
0
 10
-7.52859
 20
-4.88191
 11
-7.57243
 21
-4.90398
  0
LINE
  8
0
 10
-7.57243
 20
-4.90398
 11
-7.61731
 21
-4.92387
  0
LINE
  8
0
 10
-7.61731
 20
-4.92387
 11
-7.6631
 21
-4.94154
  0
LINE
  8
0
 10
-7.6631
 20
-4.94154
 11
-7.7097
 21
-4.95694
  0
LINE
  8
0
 10
-7.7097
 20
-4.95694
 11
-7.75702
 21
-4.97002
  0
LINE
  8
0
 10
-7.75702
 20
-4.97002
 11
-7.8049
 21
-4.98077
  0
LINE
  8
0
 10
-7.8049
 20
-4.98077
 11
-7.85326
 21
-4.98917
  0
LINE
  8
0
 10
-7.85326
 20
-4.98917
 11
-7.90198
 21
-4.99518
  0
LINE
  8
0
 10
-7.90198
 20
-4.99518
 11
-7.95093
 21
-4.99879
  0
LINE
  8
0
 10
-7.95093
 20
-4.99879
 11
-8
 21
-5
  0
LINE
  8
0
 10
-8
 20
-5
 11
-8.04906
 21
-4.99879
  0
LINE
  8
0
 10
3.95093
 20
-8.99879
 11
3.90198
 21
-8.99518
  0
LINE
  8
0
 10
3.90198
 20
-8.99518
 11
3.85326
 21
-8.98917
  0
LINE
  8
0
 10
3.85326
 20
-8.98917
 11
3.8049
 21
-8.98077
  0
LINE
  8
0
 10
3.8049
 20
-8.98077
 11
3.75702
 21
-8.97002
  0
LINE
  8
0
 10
3.75702
 20
-8.97002
 11
3.7097
 21
-8.95694
  0
LINE
  8
0
 10
3.7097
 20
-8.95694
 11
3.6631
 21
-8.94154
  0
LINE
  8
0
 10
3.6631
 20
-8.94154
 11
3.61731
 21
-8.92387
  0
LINE
  8
0
 10
3.61731
 20
-8.92387
 11
3.57243
 21
-8.90398
  0
LINE
  8
0
 10
3.57243
 20
-8.90398
 11
3.52859
 21
-8.88191
  0
LINE
  8
0
 10
3.52859
 20
-8.88191
 11
3.48589
 21
-8.85773
  0
LINE
  8
0
 10
3.48589
 20
-8.85773
 11
3.44443
 21
-8.83147
  0
LINE
  8
0
 10
3.44443
 20
-8.83147
 11
3.4043
 21
-8.80321
  0
LINE
  8
0
 10
3.4043
 20
-8.80321
 11
3.3656
 21
-8.77301
  0
LINE
  8
0
 10
3.3656
 20
-8.77301
 11
3.32843
 21
-8.74094
  0
LINE
  8
0
 10
3.32843
 20
-8.74094
 11
3.29289
 21
-8.70709
  0
LINE
  8
0
 10
3.29289
 20
-8.70709
 11
3.25905
 21
-8.67155
  0
LINE
  8
0
 10
3.25905
 20
-8.67155
 11
3.22697
 21
-8.63438
  0
LINE
  8
0
 10
3.22697
 20
-8.63438
 11
3.19678
 21
-8.59569
  0
LINE
  8
0
 10
3.19678
 20
-8.59569
 11
3.16852
 21
-8.55556
  0
LINE
  8
0
 10
3.16852
 20
-8.55556
 11
3.14226
 21
-8.5141
  0
LINE
  8
0
 10
3.14226
 20
-8.5141
 11
3.11807
 21
-8.47139
  0
LINE
  8
0
 10
3.11807
 20
-8.47139
 11
3.09601
 21
-8.42755
  0
LINE
  8
0
 10
3.09601
 20
-8.42755
 11
3.07611
 21
-8.38268
  0
LINE
  8
0
 10
3.07611
 20
-8.38268
 11
3.05844
 21
-8.33688
  0
LINE
  8
0
 10
3.05844
 20
-8.33688
 11
3.04305
 21
-8.29028
  0
LINE
  8
0
 10
3.04305
 20
-8.29028
 11
3.02997
 21
-8.24297
  0
LINE
  8
0
 10
3.02997
 20
-8.24297
 11
3.01921
 21
-8.19508
  0
LINE
  8
0
 10
3.01921
 20
-8.19508
 11
3.01082
 21
-8.14673
  0
LINE
  8
0
 10
3.01082
 20
-8.14673
 11
3.00481
 21
-8.09801
  0
LINE
  8
0
 10
3.00481
 20
-8.09801
 11
3.00119
 21
-8.04906
  0
LINE
  8
0
 10
3.00119
 20
-8.04906
 11
3
 21
-8
  0
LINE
  8
0
 10
3
 20
-8
 11
3.00119
 21
-7.95093
  0
LINE
  8
0
 10
3.00119
 20
-7.95093
 11
3.00481
 21
-7.90198
  0
LINE
  8
0
 10
3.00481
 20
-7.90198
 11
3.01082
 21
-7.85326
  0
LINE
  8
0
 10
3.01082
 20
-7.85326
 11
3.01921
 21
-7.8049
  0
LINE
  8
0
 10
3.01921
 20
-7.8049
 11
3.02997
 21
-7.75702
  0
LINE
  8
0
 10
3.02997
 20
-7.75702
 11
3.04305
 21
-7.7097
  0
LINE
  8
0
 10
3.04305
 20
-7.7097
 11
3.05844
 21
-7.6631
  0
LINE
  8
0
 10
3.05844
 20
-7.6631
 11
3.07611
 21
-7.61731
  0
LINE
  8
0
 10
3.07611
 20
-7.61731
 11
3.09601
 21
-7.57243
  0
LINE
  8
0
 10
3.09601
 20
-7.57243
 11
3.11807
 21
-7.52859
  0
LINE
  8
0
 10
3.11807
 20
-7.52859
 11
3.14226
 21
-7.48589
  0
LINE
  8
0
 10
3.14226
 20
-7.48589
 11
3.16852
 21
-7.44443
  0
LINE
  8
0
 10
3.16852
 20
-7.44443
 11
3.19678
 21
-7.4043
  0
LINE
  8
0
 10
3.19678
 20
-7.4043
 11
3.22697
 21
-7.3656
  0
LINE
  8
0
 10
3.22697
 20
-7.3656
 11
3.25905
 21
-7.32843
  0
LINE
  8
0
 10
3.25905
 20
-7.32843
 11
3.29289
 21
-7.29289
  0
LINE
  8
0
 10
3.29289
 20
-7.29289
 11
3.32843
 21
-7.25905
  0
LINE
  8
0
 10
3.32843
 20
-7.25905
 11
3.3656
 21
-7.22697
  0
LINE
  8
0
 10
3.3656
 20
-7.22697
 11
3.4043
 21
-7.19678
  0
LINE
  8
0
 10
3.4043
 20
-7.19678
 11
3.44443
 21
-7.16852
  0
LINE
  8
0
 10
3.44443
 20
-7.16852
 11
3.48589
 21
-7.14226
  0
LINE
  8
0
 10
3.48589
 20
-7.14226
 11
3.52859
 21
-7.11807
  0
LINE
  8
0
 10
3.52859
 20
-7.11807
 11
3.57243
 21
-7.09601
  0
LINE
  8
0
 10
3.57243
 20
-7.09601
 11
3.61731
 21
-7.07611
  0
LINE
  8
0
 10
3.61731
 20
-7.07611
 11
3.6631
 21
-7.05844
  0
LINE
  8
0
 10
3.6631
 20
-7.05844
 11
3.7097
 21
-7.04305
  0
LINE
  8
0
 10
3.7097
 20
-7.04305
 11
3.75702
 21
-7.02997
  0
LINE
  8
0
 10
3.75702
 20
-7.02997
 11
3.8049
 21
-7.01921
  0
LINE
  8
0
 10
3.8049
 20
-7.01921
 11
3.85326
 21
-7.01082
  0
LINE
  8
0
 10
3.85326
 20
-7.01082
 11
3.90198
 21
-7.00481
  0
LINE
  8
0
 10
3.90198
 20
-7.00481
 11
3.95093
 21
-7.00119
  0
LINE
  8
0
 10
3.95093
 20
-7.00119
 11
4
 21
-7
  0
LINE
  8
0
 10
4
 20
-7
 11
4.04906
 21
-7.00119
  0
LINE
  8
0
 10
4.04906
 20
-7.00119
 11
4.09801
 21
-7.00481
  0
LINE
  8
0
 10
4.09801
 20
-7.00481
 11
4.14673
 21
-7.01082
  0
LINE
  8
0
 10
4.14673
 20
-7.01082
 11
4.19508
 21
-7.01921
  0
LINE
  8
0
 10
4.19508
 20
-7.01921
 11
4.24297
 21
-7.02997
  0
LINE
  8
0
 10
4.24297
 20
-7.02997
 11
4.29028
 21
-7.04305
  0
LINE
  8
0
 10
4.29028
 20
-7.04305
 11
4.33688
 21
-7.05844
  0
LINE
  8
0
 10
4.33688
 20
-7.05844
 11
4.38268
 21
-7.07611
  0
LINE
  8
0
 10
4.38268
 20
-7.07611
 11
4.42755
 21
-7.09601
  0
LINE
  8
0
 10
4.42755
 20
-7.09601
 11
4.47139
 21
-7.11807
  0
LINE
  8
0
 10
4.47139
 20
-7.11807
 11
4.5141
 21
-7.14226
  0
LINE
  8
0
 10
4.5141
 20
-7.14226
 11
4.55556
 21
-7.16852
  0
LINE
  8
0
 10
4.55556
 20
-7.16852
 11
4.59569
 21
-7.19678
  0
LINE
  8
0
 10
4.59569
 20
-7.19678
 11
4.63438
 21
-7.22697
  0
LINE
  8
0
 10
4.63438
 20
-7.22697
 11
4.67155
 21
-7.25905
  0
LINE
  8
0
 10
4.67155
 20
-7.25905
 11
4.70709
 21
-7.29289
  0
LINE
  8
0
 10
4.70709
 20
-7.29289
 11
4.74094
 21
-7.32843
  0
LINE
  8
0
 10
4.74094
 20
-7.32843
 11
4.77301
 21
-7.3656
  0
LINE
  8
0
 10
4.77301
 20
-7.3656
 11
4.80321
 21
-7.4043
  0
LINE
  8
0
 10
4.80321
 20
-7.4043
 11
4.83147
 21
-7.44443
  0
LINE
  8
0
 10
4.83147
 20
-7.44443
 11
4.85773
 21
-7.48589
  0
LINE
  8
0
 10
4.85773
 20
-7.48589
 11
4.88191
 21
-7.52859
  0
LINE
  8
0
 10
4.88191
 20
-7.52859
 11
4.90398
 21
-7.57243
  0
LINE
  8
0
 10
4.90398
 20
-7.57243
 11
4.92387
 21
-7.61731
  0
LINE
  8
0
 10
4.92387
 20
-7.61731
 11
4.94154
 21
-7.6631
  0
LINE
  8
0
 10
4.94154
 20
-7.6631
 11
4.95694
 21
-7.7097
  0
LINE
  8
0
 10
4.95694
 20
-7.7097
 11
4.97002
 21
-7.75702
  0
LINE
  8
0
 10
4.97002
 20
-7.75702
 11
4.98077
 21
-7.8049
  0
LINE
  8
0
 10
4.98077
 20
-7.8049
 11
4.98917
 21
-7.85326
  0
LINE
  8
0
 10
4.98917
 20
-7.85326
 11
4.99518
 21
-7.90198
  0
LINE
  8
0
 10
4.99518
 20
-7.90198
 11
4.99879
 21
-7.95093
  0
LINE
  8
0
 10
4.99879
 20
-7.95093
 11
5
 21
-8
  0
LINE
  8
0
 10
5
 20
-8
 11
4.99879
 21
-8.04906
  0
LINE
  8
0
 10
4.99879
 20
-8.04906
 11
4.99518
 21
-8.09801
  0
LINE
  8
0
 10
4.99518
 20
-8.09801
 11
4.98917
 21
-8.14673
  0
LINE
  8
0
 10
4.98917
 20
-8.14673
 11
4.98077
 21
-8.19508
  0
LINE
  8
0
 10
4.98077
 20
-8.19508
 11
4.97002
 21
-8.24297
  0
LINE
  8
0
 10
4.97002
 20
-8.24297
 11
4.95694
 21
-8.29028
  0
LINE
  8
0
 10
4.95694
 20
-8.29028
 11
4.94154
 21
-8.33688
  0
LINE
  8
0
 10
4.94154
 20
-8.33688
 11
4.92387
 21
-8.38268
  0
LINE
  8
0
 10
4.92387
 20
-8.38268
 11
4.90398
 21
-8.42755
  0
LINE
  8
0
 10
4.90398
 20
-8.42755
 11
4.88191
 21
-8.47139
  0
LINE
  8
0
 10
4.88191
 20
-8.47139
 11
4.85773
 21
-8.5141
  0
LINE
  8
0
 10
4.85773
 20
-8.5141
 11
4.83147
 21
-8.55556
  0
LINE
  8
0
 10
4.83147
 20
-8.55556
 11
4.80321
 21
-8.59569
  0
LINE
  8
0
 10
4.80321
 20
-8.59569
 11
4.77301
 21
-8.63438
  0
LINE
  8
0
 10
4.77301
 20
-8.63438
 11
4.74094
 21
-8.67155
  0
LINE
  8
0
 10
4.74094
 20
-8.67155
 11
4.70709
 21
-8.70709
  0
LINE
  8
0
 10
4.70709
 20
-8.70709
 11
4.67155
 21
-8.74094
  0
LINE
  8
0
 10
4.67155
 20
-8.74094
 11
4.63438
 21
-8.77301
  0
LINE
  8
0
 10
4.63438
 20
-8.77301
 11
4.59569
 21
-8.80321
  0
LINE
  8
0
 10
4.59569
 20
-8.80321
 11
4.55556
 21
-8.83147
  0
LINE
  8
0
 10
4.55556
 20
-8.83147
 11
4.5141
 21
-8.85773
  0
LINE
  8
0
 10
4.5141
 20
-8.85773
 11
4.47139
 21
-8.88191
  0
LINE
  8
0
 10
4.47139
 20
-8.88191
 11
4.42755
 21
-8.90398
  0
LINE
  8
0
 10
4.42755
 20
-8.90398
 11
4.38268
 21
-8.92387
  0
LINE
  8
0
 10
4.38268
 20
-8.92387
 11
4.33688
 21
-8.94154
  0
LINE
  8
0
 10
4.33688
 20
-8.94154
 11
4.29028
 21
-8.95694
  0
LINE
  8
0
 10
4.29028
 20
-8.95694
 11
4.24297
 21
-8.97002
  0
LINE
  8
0
 10
4.24297
 20
-8.97002
 11
4.19508
 21
-8.98077
  0
LINE
  8
0
 10
4.19508
 20
-8.98077
 11
4.14673
 21
-8.98917
  0
LINE
  8
0
 10
4.14673
 20
-8.98917
 11
4.09801
 21
-8.99518
  0
LINE
  8
0
 10
4.09801
 20
-8.99518
 11
4.04906
 21
-8.99879
  0
LINE
  8
0
 10
4.04906
 20
-8.99879
 11
4
 21
-9
  0
LINE
  8
0
 10
4
 20
-9
 11
3.95093
 21
-8.99879
  0
ENDSEC
  0
SECTION
  2
OBJECTS
  0
DICTIONARY
  0
ENDSEC
  0
EOF
