G04 #@! TF.GenerationSoftware,KiCad,Pcbnew,5.1.5+dfsg1-2build2*
G04 #@! TF.CreationDate,2021-02-09T17:16:18+01:00*
G04 #@! TF.ProjectId,base2.0,62617365-322e-4302-9e6b-696361645f70,rev?*
G04 #@! TF.SameCoordinates,Original*
G04 #@! TF.FileFunction,Legend,Bot*
G04 #@! TF.FilePolarity,Positive*
%FSLAX46Y46*%
G04 Gerber Fmt 4.6, Leading zero omitted, Abs format (unit mm)*
G04 Created by KiCad (PCBNEW 5.1.5+dfsg1-2build2) date 2021-02-09 17:16:18*
%MOMM*%
%LPD*%
G04 APERTURE LIST*
%ADD10C,0.120000*%
%ADD11C,0.150000*%
G04 APERTURE END LIST*
D10*
G04 #@! TO.C,S2*
X136046000Y-105270000D02*
X136046000Y-106485000D01*
X136106000Y-101310000D02*
X136106000Y-99050000D01*
X136606000Y-101310000D02*
X136606000Y-99050000D01*
X141206000Y-102910000D02*
X142206000Y-102910000D01*
X141206000Y-101310000D02*
X141206000Y-102910000D01*
X142206000Y-101310000D02*
X141206000Y-101310000D01*
X142206000Y-102910000D02*
X142206000Y-101310000D01*
X136606000Y-102910000D02*
X135606000Y-102910000D01*
X136606000Y-101310000D02*
X136606000Y-102910000D01*
X135606000Y-101310000D02*
X136606000Y-101310000D01*
X135606000Y-102910000D02*
X135606000Y-101310000D01*
X142966000Y-105270000D02*
X142046000Y-105270000D01*
X134846000Y-105270000D02*
X135766000Y-105270000D01*
X140406000Y-103410000D02*
X140406000Y-99050000D01*
X137406000Y-103410000D02*
X140406000Y-103410000D01*
X137406000Y-99050000D02*
X137406000Y-103410000D01*
X142046000Y-105270000D02*
X141766000Y-105270000D01*
X142046000Y-106870000D02*
X142046000Y-105270000D01*
X142966000Y-106870000D02*
X142046000Y-106870000D01*
X142966000Y-99050000D02*
X142966000Y-106870000D01*
X134846000Y-99050000D02*
X142966000Y-99050000D01*
X134846000Y-106870000D02*
X134846000Y-99050000D01*
X135766000Y-106870000D02*
X134846000Y-106870000D01*
X135766000Y-105270000D02*
X135766000Y-106870000D01*
X136046000Y-105270000D02*
X135766000Y-105270000D01*
G04 #@! TO.C,S1*
X145063000Y-105270000D02*
X145063000Y-106485000D01*
X145123000Y-101310000D02*
X145123000Y-99050000D01*
X145623000Y-101310000D02*
X145623000Y-99050000D01*
X150223000Y-102910000D02*
X151223000Y-102910000D01*
X150223000Y-101310000D02*
X150223000Y-102910000D01*
X151223000Y-101310000D02*
X150223000Y-101310000D01*
X151223000Y-102910000D02*
X151223000Y-101310000D01*
X145623000Y-102910000D02*
X144623000Y-102910000D01*
X145623000Y-101310000D02*
X145623000Y-102910000D01*
X144623000Y-101310000D02*
X145623000Y-101310000D01*
X144623000Y-102910000D02*
X144623000Y-101310000D01*
X151983000Y-105270000D02*
X151063000Y-105270000D01*
X143863000Y-105270000D02*
X144783000Y-105270000D01*
X149423000Y-103410000D02*
X149423000Y-99050000D01*
X146423000Y-103410000D02*
X149423000Y-103410000D01*
X146423000Y-99050000D02*
X146423000Y-103410000D01*
X151063000Y-105270000D02*
X150783000Y-105270000D01*
X151063000Y-106870000D02*
X151063000Y-105270000D01*
X151983000Y-106870000D02*
X151063000Y-106870000D01*
X151983000Y-99050000D02*
X151983000Y-106870000D01*
X143863000Y-99050000D02*
X151983000Y-99050000D01*
X143863000Y-106870000D02*
X143863000Y-99050000D01*
X144783000Y-106870000D02*
X143863000Y-106870000D01*
X144783000Y-105270000D02*
X144783000Y-106870000D01*
X145063000Y-105270000D02*
X144783000Y-105270000D01*
G04 #@! TO.C,J4*
X137674513Y-120829290D02*
X138459401Y-120044401D01*
X137137111Y-120291889D02*
X137674513Y-120829290D01*
X137783033Y-118571165D02*
X138169487Y-118184710D01*
X136599710Y-119754487D02*
X136986165Y-119368033D01*
X138169487Y-118184710D02*
X137317424Y-117332647D01*
X136599710Y-119754487D02*
X135747647Y-118902424D01*
X136749992Y-117900079D02*
X137317424Y-117332647D01*
X135747647Y-118902424D02*
X136315079Y-118334992D01*
G04 #@! TO.C,S2*
D11*
X139667904Y-108364761D02*
X139525047Y-108412380D01*
X139286952Y-108412380D01*
X139191714Y-108364761D01*
X139144095Y-108317142D01*
X139096476Y-108221904D01*
X139096476Y-108126666D01*
X139144095Y-108031428D01*
X139191714Y-107983809D01*
X139286952Y-107936190D01*
X139477428Y-107888571D01*
X139572666Y-107840952D01*
X139620285Y-107793333D01*
X139667904Y-107698095D01*
X139667904Y-107602857D01*
X139620285Y-107507619D01*
X139572666Y-107460000D01*
X139477428Y-107412380D01*
X139239333Y-107412380D01*
X139096476Y-107460000D01*
X138715523Y-107507619D02*
X138667904Y-107460000D01*
X138572666Y-107412380D01*
X138334571Y-107412380D01*
X138239333Y-107460000D01*
X138191714Y-107507619D01*
X138144095Y-107602857D01*
X138144095Y-107698095D01*
X138191714Y-107840952D01*
X138763142Y-108412380D01*
X138144095Y-108412380D01*
G04 #@! TO.C,S1*
X153923904Y-104163761D02*
X153781047Y-104211380D01*
X153542952Y-104211380D01*
X153447714Y-104163761D01*
X153400095Y-104116142D01*
X153352476Y-104020904D01*
X153352476Y-103925666D01*
X153400095Y-103830428D01*
X153447714Y-103782809D01*
X153542952Y-103735190D01*
X153733428Y-103687571D01*
X153828666Y-103639952D01*
X153876285Y-103592333D01*
X153923904Y-103497095D01*
X153923904Y-103401857D01*
X153876285Y-103306619D01*
X153828666Y-103259000D01*
X153733428Y-103211380D01*
X153495333Y-103211380D01*
X153352476Y-103259000D01*
X152400095Y-104211380D02*
X152971523Y-104211380D01*
X152685809Y-104211380D02*
X152685809Y-103211380D01*
X152781047Y-103354238D01*
X152876285Y-103449476D01*
X152971523Y-103497095D01*
G04 #@! TO.C,J4*
X139802477Y-117360072D02*
X140307553Y-117865148D01*
X140442240Y-117932492D01*
X140576927Y-117932492D01*
X140711614Y-117865148D01*
X140778957Y-117797805D01*
X139398416Y-118235538D02*
X139869820Y-118706942D01*
X139297400Y-117797805D02*
X139970835Y-118134522D01*
X139533103Y-118572255D01*
G04 #@! TD*
M02*
