G04 #@! TF.GenerationSoftware,KiCad,Pcbnew,5.1.5+dfsg1-2build2*
G04 #@! TF.CreationDate,2021-02-09T17:16:18+01:00*
G04 #@! TF.ProjectId,base2.0,62617365-322e-4302-9e6b-696361645f70,rev?*
G04 #@! TF.SameCoordinates,Original*
G04 #@! TF.FileFunction,Copper,L4,Bot*
G04 #@! TF.FilePolarity,Positive*
%FSLAX46Y46*%
G04 Gerber Fmt 4.6, Leading zero omitted, Abs format (unit mm)*
G04 Created by KiCad (PCBNEW 5.1.5+dfsg1-2build2) date 2021-02-09 17:16:18*
%MOMM*%
%LPD*%
G04 APERTURE LIST*
G04 #@! TA.AperFunction,ComponentPad*
%ADD10C,1.000000*%
G04 #@! TD*
G04 #@! TA.AperFunction,ComponentPad*
%ADD11O,1.200000X1.750000*%
G04 #@! TD*
G04 #@! TA.AperFunction,ComponentPad*
%ADD12C,0.350000*%
G04 #@! TD*
G04 #@! TA.AperFunction,ComponentPad*
%ADD13C,1.000000*%
G04 #@! TD*
G04 #@! TA.AperFunction,ComponentPad*
%ADD14O,1.000000X1.000000*%
G04 #@! TD*
G04 #@! TA.AperFunction,ComponentPad*
%ADD15R,1.000000X1.000000*%
G04 #@! TD*
G04 #@! TA.AperFunction,ComponentPad*
%ADD16C,3.800000*%
G04 #@! TD*
G04 #@! TA.AperFunction,ViaPad*
%ADD17C,0.800000*%
G04 #@! TD*
G04 #@! TA.AperFunction,Conductor*
%ADD18C,1.000000*%
G04 #@! TD*
G04 #@! TA.AperFunction,Conductor*
%ADD19C,0.500000*%
G04 #@! TD*
G04 #@! TA.AperFunction,Conductor*
%ADD20C,0.250000*%
G04 #@! TD*
G04 #@! TA.AperFunction,Conductor*
%ADD21C,0.254000*%
G04 #@! TD*
G04 APERTURE END LIST*
D10*
G04 #@! TO.P,U2,1*
G04 #@! TO.N,+3V3*
X157324501Y-108810501D03*
G04 #@! TO.P,U2,2*
G04 #@! TO.N,GND*
X157324501Y-110080501D03*
G04 #@! TO.P,U2,3*
G04 #@! TO.N,I2C_SDA*
X157324501Y-111350501D03*
G04 #@! TO.P,U2,4*
G04 #@! TO.N,I2C_SCL*
X157324501Y-112620501D03*
G04 #@! TO.P,U2,5*
G04 #@! TO.N,FDCAN_TX*
X156689501Y-113890501D03*
G04 #@! TO.P,U2,6*
G04 #@! TO.N,FDCAN_RX*
X156689501Y-115160501D03*
G04 #@! TO.P,U2,7*
G04 #@! TO.N,USART1_RX*
X156689501Y-116430501D03*
G04 #@! TO.P,U2,8*
G04 #@! TO.N,USART1_TX*
X156689501Y-117700501D03*
G04 #@! TO.P,U2,9*
G04 #@! TO.N,GND*
X148434501Y-121510501D03*
G04 #@! TO.P,U2,10*
G04 #@! TO.N,USART2*
X147164501Y-121510501D03*
G04 #@! TO.P,U2,11*
G04 #@! TO.N,MOSI*
X145894501Y-121510501D03*
G04 #@! TO.P,U2,12*
G04 #@! TO.N,MISO*
X144624501Y-121510501D03*
G04 #@! TO.P,U2,13*
G04 #@! TO.N,SCK*
X143354501Y-121510501D03*
G04 #@! TO.P,U2,14*
G04 #@! TO.N,ADC2*
X142084501Y-121510501D03*
G04 #@! TO.P,U2,15*
G04 #@! TO.N,ADC1*
X140814501Y-121510501D03*
G04 #@! TO.P,U2,16*
G04 #@! TO.N,VCC*
X139544501Y-121510501D03*
G04 #@! TD*
D11*
G04 #@! TO.P,S2,3*
G04 #@! TO.N,GND*
X140906000Y-105410000D03*
G04 #@! TO.P,S2,2*
G04 #@! TO.N,VCC*
X138906000Y-105410000D03*
G04 #@! TA.AperFunction,ComponentPad*
D12*
G04 #@! TO.P,S2,1*
G04 #@! TO.N,USART2*
G36*
X137280505Y-104536204D02*
G01*
X137304773Y-104539804D01*
X137328572Y-104545765D01*
X137351671Y-104554030D01*
X137373850Y-104564520D01*
X137394893Y-104577132D01*
X137414599Y-104591747D01*
X137432777Y-104608223D01*
X137449253Y-104626401D01*
X137463868Y-104646107D01*
X137476480Y-104667150D01*
X137486970Y-104689329D01*
X137495235Y-104712428D01*
X137501196Y-104736227D01*
X137504796Y-104760495D01*
X137506000Y-104784999D01*
X137506000Y-106035001D01*
X137504796Y-106059505D01*
X137501196Y-106083773D01*
X137495235Y-106107572D01*
X137486970Y-106130671D01*
X137476480Y-106152850D01*
X137463868Y-106173893D01*
X137449253Y-106193599D01*
X137432777Y-106211777D01*
X137414599Y-106228253D01*
X137394893Y-106242868D01*
X137373850Y-106255480D01*
X137351671Y-106265970D01*
X137328572Y-106274235D01*
X137304773Y-106280196D01*
X137280505Y-106283796D01*
X137256001Y-106285000D01*
X136555999Y-106285000D01*
X136531495Y-106283796D01*
X136507227Y-106280196D01*
X136483428Y-106274235D01*
X136460329Y-106265970D01*
X136438150Y-106255480D01*
X136417107Y-106242868D01*
X136397401Y-106228253D01*
X136379223Y-106211777D01*
X136362747Y-106193599D01*
X136348132Y-106173893D01*
X136335520Y-106152850D01*
X136325030Y-106130671D01*
X136316765Y-106107572D01*
X136310804Y-106083773D01*
X136307204Y-106059505D01*
X136306000Y-106035001D01*
X136306000Y-104784999D01*
X136307204Y-104760495D01*
X136310804Y-104736227D01*
X136316765Y-104712428D01*
X136325030Y-104689329D01*
X136335520Y-104667150D01*
X136348132Y-104646107D01*
X136362747Y-104626401D01*
X136379223Y-104608223D01*
X136397401Y-104591747D01*
X136417107Y-104577132D01*
X136438150Y-104564520D01*
X136460329Y-104554030D01*
X136483428Y-104545765D01*
X136507227Y-104539804D01*
X136531495Y-104536204D01*
X136555999Y-104535000D01*
X137256001Y-104535000D01*
X137280505Y-104536204D01*
G37*
G04 #@! TD.AperFunction*
G04 #@! TD*
D11*
G04 #@! TO.P,S1,3*
G04 #@! TO.N,GND*
X149923000Y-105410000D03*
G04 #@! TO.P,S1,2*
G04 #@! TO.N,VCC*
X147923000Y-105410000D03*
G04 #@! TA.AperFunction,ComponentPad*
D12*
G04 #@! TO.P,S1,1*
G04 #@! TO.N,USART2*
G36*
X146297505Y-104536204D02*
G01*
X146321773Y-104539804D01*
X146345572Y-104545765D01*
X146368671Y-104554030D01*
X146390850Y-104564520D01*
X146411893Y-104577132D01*
X146431599Y-104591747D01*
X146449777Y-104608223D01*
X146466253Y-104626401D01*
X146480868Y-104646107D01*
X146493480Y-104667150D01*
X146503970Y-104689329D01*
X146512235Y-104712428D01*
X146518196Y-104736227D01*
X146521796Y-104760495D01*
X146523000Y-104784999D01*
X146523000Y-106035001D01*
X146521796Y-106059505D01*
X146518196Y-106083773D01*
X146512235Y-106107572D01*
X146503970Y-106130671D01*
X146493480Y-106152850D01*
X146480868Y-106173893D01*
X146466253Y-106193599D01*
X146449777Y-106211777D01*
X146431599Y-106228253D01*
X146411893Y-106242868D01*
X146390850Y-106255480D01*
X146368671Y-106265970D01*
X146345572Y-106274235D01*
X146321773Y-106280196D01*
X146297505Y-106283796D01*
X146273001Y-106285000D01*
X145572999Y-106285000D01*
X145548495Y-106283796D01*
X145524227Y-106280196D01*
X145500428Y-106274235D01*
X145477329Y-106265970D01*
X145455150Y-106255480D01*
X145434107Y-106242868D01*
X145414401Y-106228253D01*
X145396223Y-106211777D01*
X145379747Y-106193599D01*
X145365132Y-106173893D01*
X145352520Y-106152850D01*
X145342030Y-106130671D01*
X145333765Y-106107572D01*
X145327804Y-106083773D01*
X145324204Y-106059505D01*
X145323000Y-106035001D01*
X145323000Y-104784999D01*
X145324204Y-104760495D01*
X145327804Y-104736227D01*
X145333765Y-104712428D01*
X145342030Y-104689329D01*
X145352520Y-104667150D01*
X145365132Y-104646107D01*
X145379747Y-104626401D01*
X145396223Y-104608223D01*
X145414401Y-104591747D01*
X145434107Y-104577132D01*
X145455150Y-104564520D01*
X145477329Y-104554030D01*
X145500428Y-104545765D01*
X145524227Y-104539804D01*
X145548495Y-104536204D01*
X145572999Y-104535000D01*
X146273001Y-104535000D01*
X146297505Y-104536204D01*
G37*
G04 #@! TD.AperFunction*
G04 #@! TD*
D13*
G04 #@! TO.P,J4,2*
G04 #@! TO.N,GND*
X137023974Y-118608974D02*
X137023974Y-118608974D01*
G04 #@! TA.AperFunction,ComponentPad*
D12*
G04 #@! TO.P,J4,1*
G04 #@! TO.N,NRTS*
G36*
X137922000Y-120214107D02*
G01*
X137214893Y-119507000D01*
X137922000Y-118799893D01*
X138629107Y-119507000D01*
X137922000Y-120214107D01*
G37*
G04 #@! TD.AperFunction*
G04 #@! TD*
D14*
G04 #@! TO.P,J3,5*
G04 #@! TO.N,GND*
X150622000Y-108407200D03*
G04 #@! TO.P,J3,4*
G04 #@! TO.N,JTMS-SWDIO*
X149352000Y-108407200D03*
G04 #@! TO.P,J3,3*
G04 #@! TO.N,JTCK-SWCLI*
X148082000Y-108407200D03*
G04 #@! TO.P,J3,2*
G04 #@! TO.N,+3V3*
X146812000Y-108407200D03*
D15*
G04 #@! TO.P,J3,1*
G04 #@! TO.N,VCC*
X145542000Y-108407200D03*
G04 #@! TD*
D16*
G04 #@! TO.P,J2,1*
G04 #@! TO.N,Net-(J2-Pad1)*
X154500000Y-106700000D03*
G04 #@! TD*
G04 #@! TO.P,J1,1*
G04 #@! TO.N,Net-(J1-Pad1)*
X138500000Y-114700000D03*
G04 #@! TD*
D17*
G04 #@! TO.N,+3V3*
X136779000Y-99822000D03*
X135763000Y-99822000D03*
X136779000Y-100711000D03*
X135763000Y-100711000D03*
X135763000Y-101600000D03*
X136779000Y-101600000D03*
X136779000Y-102489000D03*
X136779000Y-103378000D03*
X135763000Y-102489000D03*
X135763000Y-103378000D03*
X148082000Y-119634000D03*
G04 #@! TO.N,GND*
X150749000Y-99949000D03*
X150749000Y-100965000D03*
X151765000Y-100965000D03*
X151765000Y-99949000D03*
X152781000Y-99949000D03*
X152781000Y-100965000D03*
X153797000Y-100965000D03*
X153797000Y-99949000D03*
X139192000Y-99695000D03*
X140081000Y-99695000D03*
X135763000Y-108204000D03*
X144780000Y-113030000D03*
X141224000Y-113919000D03*
X143741999Y-108077000D03*
G04 #@! TO.N,USART2*
X142809501Y-118662817D03*
X146558000Y-120015000D03*
X141097000Y-107823000D03*
G04 #@! TO.N,I2C_SDA*
X146151600Y-109778800D03*
G04 #@! TO.N,I2C_SCL*
X147357670Y-110137606D03*
G04 #@! TD*
D18*
G04 #@! TO.N,VCC*
X138906000Y-108236000D02*
X138906000Y-105410000D01*
X137922000Y-109220000D02*
X138906000Y-108236000D01*
X136779000Y-109220000D02*
X137922000Y-109220000D01*
X135329511Y-118384127D02*
X135329511Y-110669489D01*
X138455885Y-121510501D02*
X135329511Y-118384127D01*
X135329511Y-110669489D02*
X136779000Y-109220000D01*
X139544501Y-121510501D02*
X138455885Y-121510501D01*
D19*
X145542000Y-108271198D02*
X147234798Y-106578400D01*
X145542000Y-108407200D02*
X145542000Y-108271198D01*
X147234798Y-106098202D02*
X147923000Y-105410000D01*
X147234798Y-106578400D02*
X147234798Y-106098202D01*
D20*
G04 #@! TO.N,USART2*
X145205817Y-118662817D02*
X146558000Y-120015000D01*
X142809501Y-118662817D02*
X145205817Y-118662817D01*
D19*
X142809501Y-109535501D02*
X141097000Y-107823000D01*
X142809501Y-118662817D02*
X142809501Y-109535501D01*
D20*
G04 #@! TO.N,I2C_SDA*
X146551599Y-109378801D02*
X154082801Y-109378801D01*
X146151600Y-109778800D02*
X146551599Y-109378801D01*
X156054501Y-111350501D02*
X157324501Y-111350501D01*
X154082801Y-109378801D02*
X156054501Y-111350501D01*
G04 #@! TO.N,I2C_SCL*
X147357670Y-110137606D02*
X154205196Y-110137606D01*
X156617395Y-112620501D02*
X157324501Y-112620501D01*
X154205196Y-110208302D02*
X156617395Y-112620501D01*
X154205196Y-110137606D02*
X154205196Y-110208302D01*
G04 #@! TD*
D21*
G04 #@! TO.N,VCC*
G36*
X138300624Y-99424604D02*
G01*
X138265000Y-99603699D01*
X138265000Y-99786301D01*
X138300624Y-99965396D01*
X138370504Y-100134099D01*
X138471952Y-100285928D01*
X138601072Y-100415048D01*
X138752901Y-100516496D01*
X138921604Y-100586376D01*
X139100699Y-100622000D01*
X139283301Y-100622000D01*
X139462396Y-100586376D01*
X139631099Y-100516496D01*
X139636500Y-100512887D01*
X139641901Y-100516496D01*
X139810604Y-100586376D01*
X139989699Y-100622000D01*
X140172301Y-100622000D01*
X140351396Y-100586376D01*
X140520099Y-100516496D01*
X140671928Y-100415048D01*
X140801048Y-100285928D01*
X140902496Y-100134099D01*
X140972376Y-99965396D01*
X141008000Y-99786301D01*
X141008000Y-99603699D01*
X140972376Y-99424604D01*
X140938367Y-99342501D01*
X149225000Y-99342501D01*
X149225000Y-104249898D01*
X149122235Y-104334235D01*
X148981400Y-104505843D01*
X148876750Y-104701630D01*
X148812307Y-104914070D01*
X148796000Y-105079636D01*
X148796000Y-105740365D01*
X148812307Y-105905931D01*
X148876751Y-106118371D01*
X148981401Y-106314157D01*
X149122236Y-106485765D01*
X149225000Y-106570101D01*
X149225000Y-106807000D01*
X146349646Y-106807000D01*
X146425083Y-106799570D01*
X146571321Y-106755209D01*
X146706095Y-106683171D01*
X146824225Y-106586225D01*
X146921171Y-106468095D01*
X146993209Y-106333321D01*
X147037570Y-106187083D01*
X147052549Y-106035001D01*
X147052549Y-104784999D01*
X147037570Y-104632917D01*
X146993209Y-104486679D01*
X146921171Y-104351905D01*
X146824225Y-104233775D01*
X146706095Y-104136829D01*
X146571321Y-104064791D01*
X146425083Y-104020430D01*
X146273001Y-104005451D01*
X145572999Y-104005451D01*
X145420917Y-104020430D01*
X145274679Y-104064791D01*
X145139905Y-104136829D01*
X145021775Y-104233775D01*
X144924829Y-104351905D01*
X144852791Y-104486679D01*
X144808430Y-104632917D01*
X144793451Y-104784999D01*
X144793451Y-106035001D01*
X144808430Y-106187083D01*
X144852791Y-106333321D01*
X144924829Y-106468095D01*
X145021775Y-106586225D01*
X145139905Y-106683171D01*
X145274679Y-106755209D01*
X145420917Y-106799570D01*
X145496354Y-106807000D01*
X141012130Y-106807000D01*
X141126931Y-106795693D01*
X141339371Y-106731250D01*
X141535157Y-106626600D01*
X141706765Y-106485765D01*
X141847600Y-106314157D01*
X141952250Y-106118370D01*
X142016693Y-105905930D01*
X142033000Y-105740364D01*
X142033000Y-105079635D01*
X142016693Y-104914069D01*
X141952250Y-104701629D01*
X141847600Y-104505843D01*
X141706765Y-104334235D01*
X141535157Y-104193400D01*
X141339370Y-104088750D01*
X141126930Y-104024307D01*
X140906000Y-104002547D01*
X140685069Y-104024307D01*
X140472629Y-104088750D01*
X140276843Y-104193400D01*
X140105235Y-104334235D01*
X139964400Y-104505843D01*
X139859750Y-104701630D01*
X139795307Y-104914070D01*
X139779000Y-105079636D01*
X139779000Y-105740365D01*
X139795307Y-105905931D01*
X139859751Y-106118371D01*
X139964401Y-106314157D01*
X140105236Y-106485765D01*
X140276844Y-106626600D01*
X140472630Y-106731250D01*
X140685070Y-106795693D01*
X140799870Y-106807000D01*
X137541000Y-106807000D01*
X137541000Y-106759250D01*
X137554321Y-106755209D01*
X137689095Y-106683171D01*
X137807225Y-106586225D01*
X137904171Y-106468095D01*
X137976209Y-106333321D01*
X138020570Y-106187083D01*
X138035549Y-106035001D01*
X138035549Y-104784999D01*
X138020570Y-104632917D01*
X137976209Y-104486679D01*
X137904171Y-104351905D01*
X137807225Y-104233775D01*
X137689095Y-104136829D01*
X137554321Y-104064791D01*
X137541000Y-104060750D01*
X137541000Y-103906142D01*
X137600496Y-103817099D01*
X137670376Y-103648396D01*
X137706000Y-103469301D01*
X137706000Y-103286699D01*
X137670376Y-103107604D01*
X137600496Y-102938901D01*
X137596887Y-102933500D01*
X137600496Y-102928099D01*
X137670376Y-102759396D01*
X137706000Y-102580301D01*
X137706000Y-102397699D01*
X137670376Y-102218604D01*
X137600496Y-102049901D01*
X137596887Y-102044500D01*
X137600496Y-102039099D01*
X137670376Y-101870396D01*
X137706000Y-101691301D01*
X137706000Y-101508699D01*
X137670376Y-101329604D01*
X137600496Y-101160901D01*
X137596887Y-101155500D01*
X137600496Y-101150099D01*
X137670376Y-100981396D01*
X137706000Y-100802301D01*
X137706000Y-100619699D01*
X137670376Y-100440604D01*
X137600496Y-100271901D01*
X137596887Y-100266500D01*
X137600496Y-100261099D01*
X137670376Y-100092396D01*
X137706000Y-99913301D01*
X137706000Y-99730699D01*
X137670376Y-99551604D01*
X137600496Y-99382901D01*
X137573502Y-99342501D01*
X138334633Y-99342501D01*
X138300624Y-99424604D01*
G37*
X138300624Y-99424604D02*
X138265000Y-99603699D01*
X138265000Y-99786301D01*
X138300624Y-99965396D01*
X138370504Y-100134099D01*
X138471952Y-100285928D01*
X138601072Y-100415048D01*
X138752901Y-100516496D01*
X138921604Y-100586376D01*
X139100699Y-100622000D01*
X139283301Y-100622000D01*
X139462396Y-100586376D01*
X139631099Y-100516496D01*
X139636500Y-100512887D01*
X139641901Y-100516496D01*
X139810604Y-100586376D01*
X139989699Y-100622000D01*
X140172301Y-100622000D01*
X140351396Y-100586376D01*
X140520099Y-100516496D01*
X140671928Y-100415048D01*
X140801048Y-100285928D01*
X140902496Y-100134099D01*
X140972376Y-99965396D01*
X141008000Y-99786301D01*
X141008000Y-99603699D01*
X140972376Y-99424604D01*
X140938367Y-99342501D01*
X149225000Y-99342501D01*
X149225000Y-104249898D01*
X149122235Y-104334235D01*
X148981400Y-104505843D01*
X148876750Y-104701630D01*
X148812307Y-104914070D01*
X148796000Y-105079636D01*
X148796000Y-105740365D01*
X148812307Y-105905931D01*
X148876751Y-106118371D01*
X148981401Y-106314157D01*
X149122236Y-106485765D01*
X149225000Y-106570101D01*
X149225000Y-106807000D01*
X146349646Y-106807000D01*
X146425083Y-106799570D01*
X146571321Y-106755209D01*
X146706095Y-106683171D01*
X146824225Y-106586225D01*
X146921171Y-106468095D01*
X146993209Y-106333321D01*
X147037570Y-106187083D01*
X147052549Y-106035001D01*
X147052549Y-104784999D01*
X147037570Y-104632917D01*
X146993209Y-104486679D01*
X146921171Y-104351905D01*
X146824225Y-104233775D01*
X146706095Y-104136829D01*
X146571321Y-104064791D01*
X146425083Y-104020430D01*
X146273001Y-104005451D01*
X145572999Y-104005451D01*
X145420917Y-104020430D01*
X145274679Y-104064791D01*
X145139905Y-104136829D01*
X145021775Y-104233775D01*
X144924829Y-104351905D01*
X144852791Y-104486679D01*
X144808430Y-104632917D01*
X144793451Y-104784999D01*
X144793451Y-106035001D01*
X144808430Y-106187083D01*
X144852791Y-106333321D01*
X144924829Y-106468095D01*
X145021775Y-106586225D01*
X145139905Y-106683171D01*
X145274679Y-106755209D01*
X145420917Y-106799570D01*
X145496354Y-106807000D01*
X141012130Y-106807000D01*
X141126931Y-106795693D01*
X141339371Y-106731250D01*
X141535157Y-106626600D01*
X141706765Y-106485765D01*
X141847600Y-106314157D01*
X141952250Y-106118370D01*
X142016693Y-105905930D01*
X142033000Y-105740364D01*
X142033000Y-105079635D01*
X142016693Y-104914069D01*
X141952250Y-104701629D01*
X141847600Y-104505843D01*
X141706765Y-104334235D01*
X141535157Y-104193400D01*
X141339370Y-104088750D01*
X141126930Y-104024307D01*
X140906000Y-104002547D01*
X140685069Y-104024307D01*
X140472629Y-104088750D01*
X140276843Y-104193400D01*
X140105235Y-104334235D01*
X139964400Y-104505843D01*
X139859750Y-104701630D01*
X139795307Y-104914070D01*
X139779000Y-105079636D01*
X139779000Y-105740365D01*
X139795307Y-105905931D01*
X139859751Y-106118371D01*
X139964401Y-106314157D01*
X140105236Y-106485765D01*
X140276844Y-106626600D01*
X140472630Y-106731250D01*
X140685070Y-106795693D01*
X140799870Y-106807000D01*
X137541000Y-106807000D01*
X137541000Y-106759250D01*
X137554321Y-106755209D01*
X137689095Y-106683171D01*
X137807225Y-106586225D01*
X137904171Y-106468095D01*
X137976209Y-106333321D01*
X138020570Y-106187083D01*
X138035549Y-106035001D01*
X138035549Y-104784999D01*
X138020570Y-104632917D01*
X137976209Y-104486679D01*
X137904171Y-104351905D01*
X137807225Y-104233775D01*
X137689095Y-104136829D01*
X137554321Y-104064791D01*
X137541000Y-104060750D01*
X137541000Y-103906142D01*
X137600496Y-103817099D01*
X137670376Y-103648396D01*
X137706000Y-103469301D01*
X137706000Y-103286699D01*
X137670376Y-103107604D01*
X137600496Y-102938901D01*
X137596887Y-102933500D01*
X137600496Y-102928099D01*
X137670376Y-102759396D01*
X137706000Y-102580301D01*
X137706000Y-102397699D01*
X137670376Y-102218604D01*
X137600496Y-102049901D01*
X137596887Y-102044500D01*
X137600496Y-102039099D01*
X137670376Y-101870396D01*
X137706000Y-101691301D01*
X137706000Y-101508699D01*
X137670376Y-101329604D01*
X137600496Y-101160901D01*
X137596887Y-101155500D01*
X137600496Y-101150099D01*
X137670376Y-100981396D01*
X137706000Y-100802301D01*
X137706000Y-100619699D01*
X137670376Y-100440604D01*
X137600496Y-100271901D01*
X137596887Y-100266500D01*
X137600496Y-100261099D01*
X137670376Y-100092396D01*
X137706000Y-99913301D01*
X137706000Y-99730699D01*
X137670376Y-99551604D01*
X137600496Y-99382901D01*
X137573502Y-99342501D01*
X138334633Y-99342501D01*
X138300624Y-99424604D01*
G04 #@! TD*
M02*
