G04 #@! TF.GenerationSoftware,KiCad,Pcbnew,5.1.5+dfsg1-2build2*
G04 #@! TF.CreationDate,2021-02-09T17:16:18+01:00*
G04 #@! TF.ProjectId,base2.0,62617365-322e-4302-9e6b-696361645f70,rev?*
G04 #@! TF.SameCoordinates,Original*
G04 #@! TF.FileFunction,Copper,L3,Inr*
G04 #@! TF.FilePolarity,Positive*
%FSLAX46Y46*%
G04 Gerber Fmt 4.6, Leading zero omitted, Abs format (unit mm)*
G04 Created by KiCad (PCBNEW 5.1.5+dfsg1-2build2) date 2021-02-09 17:16:18*
%MOMM*%
%LPD*%
G04 APERTURE LIST*
G04 #@! TA.AperFunction,ViaPad*
%ADD10C,1.000000*%
G04 #@! TD*
G04 #@! TA.AperFunction,ViaPad*
%ADD11O,1.200000X1.750000*%
G04 #@! TD*
G04 #@! TA.AperFunction,ViaPad*
%ADD12C,0.350000*%
G04 #@! TD*
G04 #@! TA.AperFunction,ViaPad*
%ADD13C,1.000000*%
G04 #@! TD*
G04 #@! TA.AperFunction,ViaPad*
%ADD14O,1.000000X1.000000*%
G04 #@! TD*
G04 #@! TA.AperFunction,ViaPad*
%ADD15R,1.000000X1.000000*%
G04 #@! TD*
G04 #@! TA.AperFunction,ViaPad*
%ADD16C,3.800000*%
G04 #@! TD*
G04 #@! TA.AperFunction,ViaPad*
%ADD17C,0.800000*%
G04 #@! TD*
G04 #@! TA.AperFunction,Conductor*
%ADD18C,0.254000*%
G04 #@! TD*
G04 APERTURE END LIST*
D10*
G04 #@! TO.N,+3V3*
G04 #@! TO.C,U2*
X157324501Y-108810501D03*
G04 #@! TO.N,GND*
X157324501Y-110080501D03*
G04 #@! TO.N,I2C_SDA*
X157324501Y-111350501D03*
G04 #@! TO.N,I2C_SCL*
X157324501Y-112620501D03*
G04 #@! TO.N,FDCAN_TX*
X156689501Y-113890501D03*
G04 #@! TO.N,FDCAN_RX*
X156689501Y-115160501D03*
G04 #@! TO.N,USART1_RX*
X156689501Y-116430501D03*
G04 #@! TO.N,USART1_TX*
X156689501Y-117700501D03*
G04 #@! TO.N,GND*
X148434501Y-121510501D03*
G04 #@! TO.N,USART2*
X147164501Y-121510501D03*
G04 #@! TO.N,MOSI*
X145894501Y-121510501D03*
G04 #@! TO.N,MISO*
X144624501Y-121510501D03*
G04 #@! TO.N,SCK*
X143354501Y-121510501D03*
G04 #@! TO.N,ADC2*
X142084501Y-121510501D03*
G04 #@! TO.N,ADC1*
X140814501Y-121510501D03*
G04 #@! TO.N,VCC*
X139544501Y-121510501D03*
G04 #@! TD*
D11*
G04 #@! TO.N,GND*
G04 #@! TO.C,S2*
X140906000Y-105410000D03*
G04 #@! TO.N,VCC*
X138906000Y-105410000D03*
G04 #@! TA.AperFunction,ViaPad*
D12*
G04 #@! TO.N,USART2*
G36*
X137280505Y-104536204D02*
G01*
X137304773Y-104539804D01*
X137328572Y-104545765D01*
X137351671Y-104554030D01*
X137373850Y-104564520D01*
X137394893Y-104577132D01*
X137414599Y-104591747D01*
X137432777Y-104608223D01*
X137449253Y-104626401D01*
X137463868Y-104646107D01*
X137476480Y-104667150D01*
X137486970Y-104689329D01*
X137495235Y-104712428D01*
X137501196Y-104736227D01*
X137504796Y-104760495D01*
X137506000Y-104784999D01*
X137506000Y-106035001D01*
X137504796Y-106059505D01*
X137501196Y-106083773D01*
X137495235Y-106107572D01*
X137486970Y-106130671D01*
X137476480Y-106152850D01*
X137463868Y-106173893D01*
X137449253Y-106193599D01*
X137432777Y-106211777D01*
X137414599Y-106228253D01*
X137394893Y-106242868D01*
X137373850Y-106255480D01*
X137351671Y-106265970D01*
X137328572Y-106274235D01*
X137304773Y-106280196D01*
X137280505Y-106283796D01*
X137256001Y-106285000D01*
X136555999Y-106285000D01*
X136531495Y-106283796D01*
X136507227Y-106280196D01*
X136483428Y-106274235D01*
X136460329Y-106265970D01*
X136438150Y-106255480D01*
X136417107Y-106242868D01*
X136397401Y-106228253D01*
X136379223Y-106211777D01*
X136362747Y-106193599D01*
X136348132Y-106173893D01*
X136335520Y-106152850D01*
X136325030Y-106130671D01*
X136316765Y-106107572D01*
X136310804Y-106083773D01*
X136307204Y-106059505D01*
X136306000Y-106035001D01*
X136306000Y-104784999D01*
X136307204Y-104760495D01*
X136310804Y-104736227D01*
X136316765Y-104712428D01*
X136325030Y-104689329D01*
X136335520Y-104667150D01*
X136348132Y-104646107D01*
X136362747Y-104626401D01*
X136379223Y-104608223D01*
X136397401Y-104591747D01*
X136417107Y-104577132D01*
X136438150Y-104564520D01*
X136460329Y-104554030D01*
X136483428Y-104545765D01*
X136507227Y-104539804D01*
X136531495Y-104536204D01*
X136555999Y-104535000D01*
X137256001Y-104535000D01*
X137280505Y-104536204D01*
G37*
G04 #@! TD.AperFunction*
G04 #@! TD*
D11*
G04 #@! TO.N,GND*
G04 #@! TO.C,S1*
X149923000Y-105410000D03*
G04 #@! TO.N,VCC*
X147923000Y-105410000D03*
G04 #@! TA.AperFunction,ViaPad*
D12*
G04 #@! TO.N,USART2*
G36*
X146297505Y-104536204D02*
G01*
X146321773Y-104539804D01*
X146345572Y-104545765D01*
X146368671Y-104554030D01*
X146390850Y-104564520D01*
X146411893Y-104577132D01*
X146431599Y-104591747D01*
X146449777Y-104608223D01*
X146466253Y-104626401D01*
X146480868Y-104646107D01*
X146493480Y-104667150D01*
X146503970Y-104689329D01*
X146512235Y-104712428D01*
X146518196Y-104736227D01*
X146521796Y-104760495D01*
X146523000Y-104784999D01*
X146523000Y-106035001D01*
X146521796Y-106059505D01*
X146518196Y-106083773D01*
X146512235Y-106107572D01*
X146503970Y-106130671D01*
X146493480Y-106152850D01*
X146480868Y-106173893D01*
X146466253Y-106193599D01*
X146449777Y-106211777D01*
X146431599Y-106228253D01*
X146411893Y-106242868D01*
X146390850Y-106255480D01*
X146368671Y-106265970D01*
X146345572Y-106274235D01*
X146321773Y-106280196D01*
X146297505Y-106283796D01*
X146273001Y-106285000D01*
X145572999Y-106285000D01*
X145548495Y-106283796D01*
X145524227Y-106280196D01*
X145500428Y-106274235D01*
X145477329Y-106265970D01*
X145455150Y-106255480D01*
X145434107Y-106242868D01*
X145414401Y-106228253D01*
X145396223Y-106211777D01*
X145379747Y-106193599D01*
X145365132Y-106173893D01*
X145352520Y-106152850D01*
X145342030Y-106130671D01*
X145333765Y-106107572D01*
X145327804Y-106083773D01*
X145324204Y-106059505D01*
X145323000Y-106035001D01*
X145323000Y-104784999D01*
X145324204Y-104760495D01*
X145327804Y-104736227D01*
X145333765Y-104712428D01*
X145342030Y-104689329D01*
X145352520Y-104667150D01*
X145365132Y-104646107D01*
X145379747Y-104626401D01*
X145396223Y-104608223D01*
X145414401Y-104591747D01*
X145434107Y-104577132D01*
X145455150Y-104564520D01*
X145477329Y-104554030D01*
X145500428Y-104545765D01*
X145524227Y-104539804D01*
X145548495Y-104536204D01*
X145572999Y-104535000D01*
X146273001Y-104535000D01*
X146297505Y-104536204D01*
G37*
G04 #@! TD.AperFunction*
G04 #@! TD*
D13*
G04 #@! TO.N,GND*
G04 #@! TO.C,J4*
X137023974Y-118608974D02*
X137023974Y-118608974D01*
G04 #@! TA.AperFunction,ViaPad*
D12*
G04 #@! TO.N,NRTS*
G36*
X137922000Y-120214107D02*
G01*
X137214893Y-119507000D01*
X137922000Y-118799893D01*
X138629107Y-119507000D01*
X137922000Y-120214107D01*
G37*
G04 #@! TD.AperFunction*
G04 #@! TD*
D14*
G04 #@! TO.N,GND*
G04 #@! TO.C,J3*
X150622000Y-108407200D03*
G04 #@! TO.N,JTMS-SWDIO*
X149352000Y-108407200D03*
G04 #@! TO.N,JTCK-SWCLI*
X148082000Y-108407200D03*
G04 #@! TO.N,+3V3*
X146812000Y-108407200D03*
D15*
G04 #@! TO.N,VCC*
X145542000Y-108407200D03*
G04 #@! TD*
D16*
G04 #@! TO.N,Net-(J2-Pad1)*
G04 #@! TO.C,J2*
X154500000Y-106700000D03*
G04 #@! TD*
G04 #@! TO.N,Net-(J1-Pad1)*
G04 #@! TO.C,J1*
X138500000Y-114700000D03*
G04 #@! TD*
D17*
G04 #@! TO.N,+3V3*
X136779000Y-99822000D03*
X135763000Y-99822000D03*
X136779000Y-100711000D03*
X135763000Y-100711000D03*
X135763000Y-101600000D03*
X136779000Y-101600000D03*
X136779000Y-102489000D03*
X136779000Y-103378000D03*
X135763000Y-102489000D03*
X135763000Y-103378000D03*
X148082000Y-119634000D03*
G04 #@! TO.N,GND*
X150749000Y-99949000D03*
X150749000Y-100965000D03*
X151765000Y-100965000D03*
X151765000Y-99949000D03*
X152781000Y-99949000D03*
X152781000Y-100965000D03*
X153797000Y-100965000D03*
X153797000Y-99949000D03*
X139192000Y-99695000D03*
X140081000Y-99695000D03*
X135763000Y-108204000D03*
X144780000Y-113030000D03*
X141224000Y-113919000D03*
X143741999Y-108077000D03*
G04 #@! TO.N,USART2*
X142809501Y-118662817D03*
X146558000Y-120015000D03*
X141097000Y-107823000D03*
G04 #@! TO.N,I2C_SDA*
X146151600Y-109778800D03*
G04 #@! TO.N,I2C_SCL*
X147357670Y-110137606D03*
G04 #@! TD*
D18*
G04 #@! TO.N,+3V3*
G36*
X138588464Y-99199691D02*
G01*
X138503431Y-99326952D01*
X138444859Y-99468357D01*
X138415000Y-99618472D01*
X138415000Y-99771528D01*
X138444859Y-99921643D01*
X138503431Y-100063048D01*
X138588464Y-100190309D01*
X138696691Y-100298536D01*
X138823952Y-100383569D01*
X138965357Y-100442141D01*
X139115472Y-100472000D01*
X139268528Y-100472000D01*
X139418643Y-100442141D01*
X139560048Y-100383569D01*
X139636500Y-100332485D01*
X139712952Y-100383569D01*
X139854357Y-100442141D01*
X140004472Y-100472000D01*
X140157528Y-100472000D01*
X140307643Y-100442141D01*
X140449048Y-100383569D01*
X140576309Y-100298536D01*
X140684536Y-100190309D01*
X140769569Y-100063048D01*
X140828141Y-99921643D01*
X140858000Y-99771528D01*
X140858000Y-99618472D01*
X140828141Y-99468357D01*
X140769569Y-99326952D01*
X140684536Y-99199691D01*
X140677346Y-99192501D01*
X150569404Y-99192501D01*
X150522357Y-99201859D01*
X150380952Y-99260431D01*
X150253691Y-99345464D01*
X150145464Y-99453691D01*
X150060431Y-99580952D01*
X150001859Y-99722357D01*
X149972000Y-99872472D01*
X149972000Y-100025528D01*
X150001859Y-100175643D01*
X150060431Y-100317048D01*
X150145464Y-100444309D01*
X150158155Y-100457000D01*
X150145464Y-100469691D01*
X150060431Y-100596952D01*
X150001859Y-100738357D01*
X149972000Y-100888472D01*
X149972000Y-101041528D01*
X150001859Y-101191643D01*
X150060431Y-101333048D01*
X150145464Y-101460309D01*
X150253691Y-101568536D01*
X150380952Y-101653569D01*
X150522357Y-101712141D01*
X150672472Y-101742000D01*
X150825528Y-101742000D01*
X150975643Y-101712141D01*
X151117048Y-101653569D01*
X151244309Y-101568536D01*
X151257000Y-101555845D01*
X151269691Y-101568536D01*
X151396952Y-101653569D01*
X151538357Y-101712141D01*
X151688472Y-101742000D01*
X151841528Y-101742000D01*
X151991643Y-101712141D01*
X152133048Y-101653569D01*
X152260309Y-101568536D01*
X152273000Y-101555845D01*
X152285691Y-101568536D01*
X152412952Y-101653569D01*
X152554357Y-101712141D01*
X152704472Y-101742000D01*
X152857528Y-101742000D01*
X153007643Y-101712141D01*
X153149048Y-101653569D01*
X153276309Y-101568536D01*
X153289000Y-101555845D01*
X153301691Y-101568536D01*
X153428952Y-101653569D01*
X153570357Y-101712141D01*
X153720472Y-101742000D01*
X153873528Y-101742000D01*
X154023643Y-101712141D01*
X154165048Y-101653569D01*
X154292309Y-101568536D01*
X154400536Y-101460309D01*
X154485569Y-101333048D01*
X154544141Y-101191643D01*
X154574000Y-101041528D01*
X154574000Y-100888472D01*
X154544141Y-100738357D01*
X154485569Y-100596952D01*
X154400536Y-100469691D01*
X154387845Y-100457000D01*
X154400536Y-100444309D01*
X154485569Y-100317048D01*
X154544141Y-100175643D01*
X154574000Y-100025528D01*
X154574000Y-99872472D01*
X154544141Y-99722357D01*
X154485569Y-99580952D01*
X154400536Y-99453691D01*
X154292309Y-99345464D01*
X154165048Y-99260431D01*
X154023643Y-99201859D01*
X153976596Y-99192501D01*
X154331922Y-99192501D01*
X158052502Y-102913082D01*
X158052502Y-109591473D01*
X158005711Y-109521446D01*
X157883556Y-109399291D01*
X157739916Y-109303314D01*
X157580312Y-109237204D01*
X157410878Y-109203501D01*
X157238124Y-109203501D01*
X157068690Y-109237204D01*
X156909086Y-109303314D01*
X156765446Y-109399291D01*
X156643291Y-109521446D01*
X156547314Y-109665086D01*
X156481204Y-109824690D01*
X156447501Y-109994124D01*
X156447501Y-110166878D01*
X156481204Y-110336312D01*
X156547314Y-110495916D01*
X156643291Y-110639556D01*
X156719236Y-110715501D01*
X156643291Y-110791446D01*
X156547314Y-110935086D01*
X156481204Y-111094690D01*
X156447501Y-111264124D01*
X156447501Y-111436878D01*
X156481204Y-111606312D01*
X156547314Y-111765916D01*
X156643291Y-111909556D01*
X156719236Y-111985501D01*
X156643291Y-112061446D01*
X156547314Y-112205086D01*
X156481204Y-112364690D01*
X156447501Y-112534124D01*
X156447501Y-112706878D01*
X156481204Y-112876312D01*
X156542985Y-113025464D01*
X156433690Y-113047204D01*
X156274086Y-113113314D01*
X156130446Y-113209291D01*
X156008291Y-113331446D01*
X155912314Y-113475086D01*
X155846204Y-113634690D01*
X155812501Y-113804124D01*
X155812501Y-113976878D01*
X155846204Y-114146312D01*
X155912314Y-114305916D01*
X156008291Y-114449556D01*
X156084236Y-114525501D01*
X156008291Y-114601446D01*
X155912314Y-114745086D01*
X155846204Y-114904690D01*
X155812501Y-115074124D01*
X155812501Y-115246878D01*
X155846204Y-115416312D01*
X155912314Y-115575916D01*
X156008291Y-115719556D01*
X156084236Y-115795501D01*
X156008291Y-115871446D01*
X155912314Y-116015086D01*
X155846204Y-116174690D01*
X155812501Y-116344124D01*
X155812501Y-116516878D01*
X155846204Y-116686312D01*
X155912314Y-116845916D01*
X156008291Y-116989556D01*
X156084236Y-117065501D01*
X156008291Y-117141446D01*
X155912314Y-117285086D01*
X155846204Y-117444690D01*
X155812501Y-117614124D01*
X155812501Y-117786878D01*
X155846204Y-117956312D01*
X155912314Y-118115916D01*
X156008291Y-118259556D01*
X156130446Y-118381711D01*
X156274086Y-118477688D01*
X156433690Y-118543798D01*
X156603124Y-118577501D01*
X156775878Y-118577501D01*
X156945312Y-118543798D01*
X157104916Y-118477688D01*
X157248556Y-118381711D01*
X157370711Y-118259556D01*
X157466688Y-118115916D01*
X157532798Y-117956312D01*
X157566501Y-117786878D01*
X157566501Y-117614124D01*
X157532798Y-117444690D01*
X157466688Y-117285086D01*
X157370711Y-117141446D01*
X157294766Y-117065501D01*
X157370711Y-116989556D01*
X157466688Y-116845916D01*
X157532798Y-116686312D01*
X157566501Y-116516878D01*
X157566501Y-116344124D01*
X157532798Y-116174690D01*
X157466688Y-116015086D01*
X157370711Y-115871446D01*
X157294766Y-115795501D01*
X157370711Y-115719556D01*
X157466688Y-115575916D01*
X157532798Y-115416312D01*
X157566501Y-115246878D01*
X157566501Y-115074124D01*
X157532798Y-114904690D01*
X157466688Y-114745086D01*
X157370711Y-114601446D01*
X157294766Y-114525501D01*
X157370711Y-114449556D01*
X157466688Y-114305916D01*
X157532798Y-114146312D01*
X157566501Y-113976878D01*
X157566501Y-113804124D01*
X157532798Y-113634690D01*
X157471017Y-113485538D01*
X157580312Y-113463798D01*
X157739916Y-113397688D01*
X157883556Y-113301711D01*
X158005711Y-113179556D01*
X158052501Y-113109529D01*
X158052501Y-118517921D01*
X154331922Y-122238501D01*
X148923530Y-122238501D01*
X148993556Y-122191711D01*
X149115711Y-122069556D01*
X149211688Y-121925916D01*
X149277798Y-121766312D01*
X149311501Y-121596878D01*
X149311501Y-121424124D01*
X149277798Y-121254690D01*
X149211688Y-121095086D01*
X149115711Y-120951446D01*
X148993556Y-120829291D01*
X148849916Y-120733314D01*
X148690312Y-120667204D01*
X148520878Y-120633501D01*
X148348124Y-120633501D01*
X148178690Y-120667204D01*
X148019086Y-120733314D01*
X147875446Y-120829291D01*
X147799501Y-120905236D01*
X147723556Y-120829291D01*
X147579916Y-120733314D01*
X147420312Y-120667204D01*
X147250878Y-120633501D01*
X147078124Y-120633501D01*
X147010900Y-120646873D01*
X147053309Y-120618536D01*
X147161536Y-120510309D01*
X147246569Y-120383048D01*
X147305141Y-120241643D01*
X147335000Y-120091528D01*
X147335000Y-119938472D01*
X147305141Y-119788357D01*
X147246569Y-119646952D01*
X147161536Y-119519691D01*
X147053309Y-119411464D01*
X146926048Y-119326431D01*
X146784643Y-119267859D01*
X146634528Y-119238000D01*
X146481472Y-119238000D01*
X146331357Y-119267859D01*
X146189952Y-119326431D01*
X146062691Y-119411464D01*
X145954464Y-119519691D01*
X145869431Y-119646952D01*
X145810859Y-119788357D01*
X145781000Y-119938472D01*
X145781000Y-120091528D01*
X145810859Y-120241643D01*
X145869431Y-120383048D01*
X145954464Y-120510309D01*
X146062691Y-120618536D01*
X146129261Y-120663017D01*
X145980878Y-120633501D01*
X145808124Y-120633501D01*
X145638690Y-120667204D01*
X145479086Y-120733314D01*
X145335446Y-120829291D01*
X145259501Y-120905236D01*
X145183556Y-120829291D01*
X145039916Y-120733314D01*
X144880312Y-120667204D01*
X144710878Y-120633501D01*
X144538124Y-120633501D01*
X144368690Y-120667204D01*
X144209086Y-120733314D01*
X144065446Y-120829291D01*
X143989501Y-120905236D01*
X143913556Y-120829291D01*
X143769916Y-120733314D01*
X143610312Y-120667204D01*
X143440878Y-120633501D01*
X143268124Y-120633501D01*
X143098690Y-120667204D01*
X142939086Y-120733314D01*
X142795446Y-120829291D01*
X142719501Y-120905236D01*
X142643556Y-120829291D01*
X142499916Y-120733314D01*
X142340312Y-120667204D01*
X142170878Y-120633501D01*
X141998124Y-120633501D01*
X141828690Y-120667204D01*
X141669086Y-120733314D01*
X141525446Y-120829291D01*
X141449501Y-120905236D01*
X141373556Y-120829291D01*
X141229916Y-120733314D01*
X141070312Y-120667204D01*
X140900878Y-120633501D01*
X140728124Y-120633501D01*
X140558690Y-120667204D01*
X140399086Y-120733314D01*
X140255446Y-120829291D01*
X140179501Y-120905236D01*
X140103556Y-120829291D01*
X139959916Y-120733314D01*
X139800312Y-120667204D01*
X139630878Y-120633501D01*
X139458124Y-120633501D01*
X139288690Y-120667204D01*
X139129086Y-120733314D01*
X138985446Y-120829291D01*
X138863291Y-120951446D01*
X138767314Y-121095086D01*
X138701204Y-121254690D01*
X138667501Y-121424124D01*
X138667501Y-121596878D01*
X138701204Y-121766312D01*
X138767314Y-121925916D01*
X138863291Y-122069556D01*
X138985446Y-122191711D01*
X139055472Y-122238501D01*
X138727081Y-122238501D01*
X135011177Y-118522597D01*
X136146974Y-118522597D01*
X136146974Y-118695351D01*
X136180677Y-118864785D01*
X136246787Y-119024389D01*
X136342764Y-119168029D01*
X136464919Y-119290184D01*
X136608559Y-119386161D01*
X136768163Y-119452271D01*
X136840051Y-119466571D01*
X136836069Y-119507000D01*
X136843348Y-119580905D01*
X136864905Y-119651970D01*
X136899912Y-119717463D01*
X136947024Y-119774869D01*
X137654131Y-120481976D01*
X137711537Y-120529088D01*
X137777030Y-120564095D01*
X137848095Y-120585652D01*
X137922000Y-120592931D01*
X137995905Y-120585652D01*
X138066970Y-120564095D01*
X138132463Y-120529088D01*
X138189869Y-120481976D01*
X138896976Y-119774869D01*
X138944088Y-119717463D01*
X138979095Y-119651970D01*
X139000652Y-119580905D01*
X139007931Y-119507000D01*
X139000652Y-119433095D01*
X138979095Y-119362030D01*
X138944088Y-119296537D01*
X138896976Y-119239131D01*
X138244134Y-118586289D01*
X142032501Y-118586289D01*
X142032501Y-118739345D01*
X142062360Y-118889460D01*
X142120932Y-119030865D01*
X142205965Y-119158126D01*
X142314192Y-119266353D01*
X142441453Y-119351386D01*
X142582858Y-119409958D01*
X142732973Y-119439817D01*
X142886029Y-119439817D01*
X143036144Y-119409958D01*
X143177549Y-119351386D01*
X143304810Y-119266353D01*
X143413037Y-119158126D01*
X143498070Y-119030865D01*
X143556642Y-118889460D01*
X143586501Y-118739345D01*
X143586501Y-118586289D01*
X143556642Y-118436174D01*
X143498070Y-118294769D01*
X143413037Y-118167508D01*
X143304810Y-118059281D01*
X143177549Y-117974248D01*
X143036144Y-117915676D01*
X142886029Y-117885817D01*
X142732973Y-117885817D01*
X142582858Y-117915676D01*
X142441453Y-117974248D01*
X142314192Y-118059281D01*
X142205965Y-118167508D01*
X142120932Y-118294769D01*
X142062360Y-118436174D01*
X142032501Y-118586289D01*
X138244134Y-118586289D01*
X138189869Y-118532024D01*
X138132463Y-118484912D01*
X138066970Y-118449905D01*
X137995905Y-118428348D01*
X137922000Y-118421069D01*
X137881571Y-118425051D01*
X137867271Y-118353163D01*
X137801161Y-118193559D01*
X137705184Y-118049919D01*
X137583029Y-117927764D01*
X137439389Y-117831787D01*
X137279785Y-117765677D01*
X137110351Y-117731974D01*
X136937597Y-117731974D01*
X136768163Y-117765677D01*
X136608559Y-117831787D01*
X136464919Y-117927764D01*
X136342764Y-118049919D01*
X136246787Y-118193559D01*
X136180677Y-118353163D01*
X136146974Y-118522597D01*
X135011177Y-118522597D01*
X135006501Y-118517922D01*
X135006501Y-114475735D01*
X136223000Y-114475735D01*
X136223000Y-114924265D01*
X136310504Y-115364176D01*
X136482149Y-115778564D01*
X136731339Y-116151503D01*
X137048497Y-116468661D01*
X137421436Y-116717851D01*
X137835824Y-116889496D01*
X138275735Y-116977000D01*
X138724265Y-116977000D01*
X139164176Y-116889496D01*
X139578564Y-116717851D01*
X139951503Y-116468661D01*
X140268661Y-116151503D01*
X140517851Y-115778564D01*
X140689496Y-115364176D01*
X140777000Y-114924265D01*
X140777000Y-114554815D01*
X140855952Y-114607569D01*
X140997357Y-114666141D01*
X141147472Y-114696000D01*
X141300528Y-114696000D01*
X141450643Y-114666141D01*
X141592048Y-114607569D01*
X141719309Y-114522536D01*
X141827536Y-114414309D01*
X141912569Y-114287048D01*
X141971141Y-114145643D01*
X142001000Y-113995528D01*
X142001000Y-113842472D01*
X141971141Y-113692357D01*
X141912569Y-113550952D01*
X141827536Y-113423691D01*
X141719309Y-113315464D01*
X141592048Y-113230431D01*
X141450643Y-113171859D01*
X141300528Y-113142000D01*
X141147472Y-113142000D01*
X140997357Y-113171859D01*
X140855952Y-113230431D01*
X140728691Y-113315464D01*
X140620464Y-113423691D01*
X140535431Y-113550952D01*
X140510681Y-113610705D01*
X140268661Y-113248497D01*
X139973636Y-112953472D01*
X144003000Y-112953472D01*
X144003000Y-113106528D01*
X144032859Y-113256643D01*
X144091431Y-113398048D01*
X144176464Y-113525309D01*
X144284691Y-113633536D01*
X144411952Y-113718569D01*
X144553357Y-113777141D01*
X144703472Y-113807000D01*
X144856528Y-113807000D01*
X145006643Y-113777141D01*
X145148048Y-113718569D01*
X145275309Y-113633536D01*
X145383536Y-113525309D01*
X145468569Y-113398048D01*
X145527141Y-113256643D01*
X145557000Y-113106528D01*
X145557000Y-112953472D01*
X145527141Y-112803357D01*
X145468569Y-112661952D01*
X145383536Y-112534691D01*
X145275309Y-112426464D01*
X145148048Y-112341431D01*
X145006643Y-112282859D01*
X144856528Y-112253000D01*
X144703472Y-112253000D01*
X144553357Y-112282859D01*
X144411952Y-112341431D01*
X144284691Y-112426464D01*
X144176464Y-112534691D01*
X144091431Y-112661952D01*
X144032859Y-112803357D01*
X144003000Y-112953472D01*
X139973636Y-112953472D01*
X139951503Y-112931339D01*
X139578564Y-112682149D01*
X139164176Y-112510504D01*
X138724265Y-112423000D01*
X138275735Y-112423000D01*
X137835824Y-112510504D01*
X137421436Y-112682149D01*
X137048497Y-112931339D01*
X136731339Y-113248497D01*
X136482149Y-113621436D01*
X136310504Y-114035824D01*
X136223000Y-114475735D01*
X135006501Y-114475735D01*
X135006501Y-108383596D01*
X135015859Y-108430643D01*
X135074431Y-108572048D01*
X135159464Y-108699309D01*
X135267691Y-108807536D01*
X135394952Y-108892569D01*
X135536357Y-108951141D01*
X135686472Y-108981000D01*
X135839528Y-108981000D01*
X135989643Y-108951141D01*
X136131048Y-108892569D01*
X136258309Y-108807536D01*
X136366536Y-108699309D01*
X136451569Y-108572048D01*
X136510141Y-108430643D01*
X136540000Y-108280528D01*
X136540000Y-108127472D01*
X136510141Y-107977357D01*
X136451569Y-107835952D01*
X136391781Y-107746472D01*
X140320000Y-107746472D01*
X140320000Y-107899528D01*
X140349859Y-108049643D01*
X140408431Y-108191048D01*
X140493464Y-108318309D01*
X140601691Y-108426536D01*
X140728952Y-108511569D01*
X140870357Y-108570141D01*
X141020472Y-108600000D01*
X141173528Y-108600000D01*
X141323643Y-108570141D01*
X141465048Y-108511569D01*
X141592309Y-108426536D01*
X141700536Y-108318309D01*
X141785569Y-108191048D01*
X141844141Y-108049643D01*
X141853921Y-108000472D01*
X142964999Y-108000472D01*
X142964999Y-108153528D01*
X142994858Y-108303643D01*
X143053430Y-108445048D01*
X143138463Y-108572309D01*
X143246690Y-108680536D01*
X143373951Y-108765569D01*
X143515356Y-108824141D01*
X143665471Y-108854000D01*
X143818527Y-108854000D01*
X143968642Y-108824141D01*
X144110047Y-108765569D01*
X144237308Y-108680536D01*
X144345535Y-108572309D01*
X144430568Y-108445048D01*
X144489140Y-108303643D01*
X144518999Y-108153528D01*
X144518999Y-108000472D01*
X144500447Y-107907200D01*
X144663176Y-107907200D01*
X144663176Y-108907200D01*
X144670455Y-108981105D01*
X144692012Y-109052170D01*
X144727019Y-109117663D01*
X144774131Y-109175069D01*
X144831537Y-109222181D01*
X144897030Y-109257188D01*
X144968095Y-109278745D01*
X145042000Y-109286024D01*
X145546372Y-109286024D01*
X145463031Y-109410752D01*
X145404459Y-109552157D01*
X145374600Y-109702272D01*
X145374600Y-109855328D01*
X145404459Y-110005443D01*
X145463031Y-110146848D01*
X145548064Y-110274109D01*
X145656291Y-110382336D01*
X145783552Y-110467369D01*
X145924957Y-110525941D01*
X146075072Y-110555800D01*
X146228128Y-110555800D01*
X146378243Y-110525941D01*
X146519648Y-110467369D01*
X146624283Y-110397454D01*
X146669101Y-110505654D01*
X146754134Y-110632915D01*
X146862361Y-110741142D01*
X146989622Y-110826175D01*
X147131027Y-110884747D01*
X147281142Y-110914606D01*
X147434198Y-110914606D01*
X147584313Y-110884747D01*
X147725718Y-110826175D01*
X147852979Y-110741142D01*
X147961206Y-110632915D01*
X148046239Y-110505654D01*
X148104811Y-110364249D01*
X148134670Y-110214134D01*
X148134670Y-110061078D01*
X148104811Y-109910963D01*
X148046239Y-109769558D01*
X147961206Y-109642297D01*
X147852979Y-109534070D01*
X147725718Y-109449037D01*
X147584313Y-109390465D01*
X147434198Y-109360606D01*
X147281142Y-109360606D01*
X147131027Y-109390465D01*
X146989622Y-109449037D01*
X146884987Y-109518952D01*
X146840169Y-109410752D01*
X146755136Y-109283491D01*
X146646909Y-109175264D01*
X146519648Y-109090231D01*
X146395981Y-109039006D01*
X146413545Y-108981105D01*
X146420824Y-108907200D01*
X146420824Y-108320823D01*
X147205000Y-108320823D01*
X147205000Y-108493577D01*
X147238703Y-108663011D01*
X147304813Y-108822615D01*
X147400790Y-108966255D01*
X147522945Y-109088410D01*
X147666585Y-109184387D01*
X147826189Y-109250497D01*
X147995623Y-109284200D01*
X148168377Y-109284200D01*
X148337811Y-109250497D01*
X148497415Y-109184387D01*
X148641055Y-109088410D01*
X148717000Y-109012465D01*
X148792945Y-109088410D01*
X148936585Y-109184387D01*
X149096189Y-109250497D01*
X149265623Y-109284200D01*
X149438377Y-109284200D01*
X149607811Y-109250497D01*
X149767415Y-109184387D01*
X149911055Y-109088410D01*
X149987000Y-109012465D01*
X150062945Y-109088410D01*
X150206585Y-109184387D01*
X150366189Y-109250497D01*
X150535623Y-109284200D01*
X150708377Y-109284200D01*
X150877811Y-109250497D01*
X151037415Y-109184387D01*
X151181055Y-109088410D01*
X151303210Y-108966255D01*
X151399187Y-108822615D01*
X151465297Y-108663011D01*
X151499000Y-108493577D01*
X151499000Y-108320823D01*
X151465297Y-108151389D01*
X151399187Y-107991785D01*
X151303210Y-107848145D01*
X151181055Y-107725990D01*
X151037415Y-107630013D01*
X150877811Y-107563903D01*
X150708377Y-107530200D01*
X150535623Y-107530200D01*
X150366189Y-107563903D01*
X150206585Y-107630013D01*
X150062945Y-107725990D01*
X149987000Y-107801935D01*
X149911055Y-107725990D01*
X149767415Y-107630013D01*
X149607811Y-107563903D01*
X149438377Y-107530200D01*
X149265623Y-107530200D01*
X149096189Y-107563903D01*
X148936585Y-107630013D01*
X148792945Y-107725990D01*
X148717000Y-107801935D01*
X148641055Y-107725990D01*
X148497415Y-107630013D01*
X148337811Y-107563903D01*
X148168377Y-107530200D01*
X147995623Y-107530200D01*
X147826189Y-107563903D01*
X147666585Y-107630013D01*
X147522945Y-107725990D01*
X147400790Y-107848145D01*
X147304813Y-107991785D01*
X147238703Y-108151389D01*
X147205000Y-108320823D01*
X146420824Y-108320823D01*
X146420824Y-107907200D01*
X146413545Y-107833295D01*
X146391988Y-107762230D01*
X146356981Y-107696737D01*
X146309869Y-107639331D01*
X146252463Y-107592219D01*
X146186970Y-107557212D01*
X146115905Y-107535655D01*
X146042000Y-107528376D01*
X145042000Y-107528376D01*
X144968095Y-107535655D01*
X144897030Y-107557212D01*
X144831537Y-107592219D01*
X144774131Y-107639331D01*
X144727019Y-107696737D01*
X144692012Y-107762230D01*
X144670455Y-107833295D01*
X144663176Y-107907200D01*
X144500447Y-107907200D01*
X144489140Y-107850357D01*
X144430568Y-107708952D01*
X144345535Y-107581691D01*
X144237308Y-107473464D01*
X144110047Y-107388431D01*
X143968642Y-107329859D01*
X143818527Y-107300000D01*
X143665471Y-107300000D01*
X143515356Y-107329859D01*
X143373951Y-107388431D01*
X143246690Y-107473464D01*
X143138463Y-107581691D01*
X143053430Y-107708952D01*
X142994858Y-107850357D01*
X142964999Y-108000472D01*
X141853921Y-108000472D01*
X141874000Y-107899528D01*
X141874000Y-107746472D01*
X141844141Y-107596357D01*
X141785569Y-107454952D01*
X141700536Y-107327691D01*
X141592309Y-107219464D01*
X141465048Y-107134431D01*
X141323643Y-107075859D01*
X141173528Y-107046000D01*
X141020472Y-107046000D01*
X140870357Y-107075859D01*
X140728952Y-107134431D01*
X140601691Y-107219464D01*
X140493464Y-107327691D01*
X140408431Y-107454952D01*
X140349859Y-107596357D01*
X140320000Y-107746472D01*
X136391781Y-107746472D01*
X136366536Y-107708691D01*
X136258309Y-107600464D01*
X136131048Y-107515431D01*
X135989643Y-107456859D01*
X135839528Y-107427000D01*
X135686472Y-107427000D01*
X135536357Y-107456859D01*
X135394952Y-107515431D01*
X135267691Y-107600464D01*
X135159464Y-107708691D01*
X135074431Y-107835952D01*
X135015859Y-107977357D01*
X135006501Y-108024404D01*
X135006501Y-104784999D01*
X135927176Y-104784999D01*
X135927176Y-106035001D01*
X135939259Y-106157678D01*
X135975042Y-106275641D01*
X136033152Y-106384356D01*
X136111354Y-106479646D01*
X136206644Y-106557848D01*
X136315359Y-106615958D01*
X136433322Y-106651741D01*
X136555999Y-106663824D01*
X137256001Y-106663824D01*
X137378678Y-106651741D01*
X137496641Y-106615958D01*
X137605356Y-106557848D01*
X137700646Y-106479646D01*
X137778848Y-106384356D01*
X137836958Y-106275641D01*
X137872741Y-106157678D01*
X137884824Y-106035001D01*
X137884824Y-105087008D01*
X137929000Y-105087008D01*
X137929000Y-105732993D01*
X137943137Y-105876525D01*
X137999003Y-106060691D01*
X138089725Y-106230418D01*
X138211815Y-106379186D01*
X138360583Y-106501276D01*
X138530310Y-106591997D01*
X138714476Y-106647863D01*
X138906000Y-106666727D01*
X139097525Y-106647863D01*
X139281691Y-106591997D01*
X139451418Y-106501276D01*
X139600186Y-106379186D01*
X139722276Y-106230418D01*
X139812997Y-106060691D01*
X139868863Y-105876524D01*
X139883000Y-105732992D01*
X139883000Y-105087008D01*
X139929000Y-105087008D01*
X139929000Y-105732993D01*
X139943137Y-105876525D01*
X139999003Y-106060691D01*
X140089725Y-106230418D01*
X140211815Y-106379186D01*
X140360583Y-106501276D01*
X140530310Y-106591997D01*
X140714476Y-106647863D01*
X140906000Y-106666727D01*
X141097525Y-106647863D01*
X141281691Y-106591997D01*
X141451418Y-106501276D01*
X141600186Y-106379186D01*
X141722276Y-106230418D01*
X141812997Y-106060691D01*
X141868863Y-105876524D01*
X141883000Y-105732992D01*
X141883000Y-105087007D01*
X141868863Y-104943475D01*
X141820790Y-104784999D01*
X144944176Y-104784999D01*
X144944176Y-106035001D01*
X144956259Y-106157678D01*
X144992042Y-106275641D01*
X145050152Y-106384356D01*
X145128354Y-106479646D01*
X145223644Y-106557848D01*
X145332359Y-106615958D01*
X145450322Y-106651741D01*
X145572999Y-106663824D01*
X146273001Y-106663824D01*
X146395678Y-106651741D01*
X146513641Y-106615958D01*
X146622356Y-106557848D01*
X146717646Y-106479646D01*
X146795848Y-106384356D01*
X146853958Y-106275641D01*
X146889741Y-106157678D01*
X146901824Y-106035001D01*
X146901824Y-105087008D01*
X146946000Y-105087008D01*
X146946000Y-105732993D01*
X146960137Y-105876525D01*
X147016003Y-106060691D01*
X147106725Y-106230418D01*
X147228815Y-106379186D01*
X147377583Y-106501276D01*
X147547310Y-106591997D01*
X147731476Y-106647863D01*
X147923000Y-106666727D01*
X148114525Y-106647863D01*
X148298691Y-106591997D01*
X148468418Y-106501276D01*
X148617186Y-106379186D01*
X148739276Y-106230418D01*
X148829997Y-106060691D01*
X148885863Y-105876524D01*
X148900000Y-105732992D01*
X148900000Y-105087008D01*
X148946000Y-105087008D01*
X148946000Y-105732993D01*
X148960137Y-105876525D01*
X149016003Y-106060691D01*
X149106725Y-106230418D01*
X149228815Y-106379186D01*
X149377583Y-106501276D01*
X149547310Y-106591997D01*
X149731476Y-106647863D01*
X149923000Y-106666727D01*
X150114525Y-106647863D01*
X150298691Y-106591997D01*
X150468418Y-106501276D01*
X150499539Y-106475735D01*
X152223000Y-106475735D01*
X152223000Y-106924265D01*
X152310504Y-107364176D01*
X152482149Y-107778564D01*
X152731339Y-108151503D01*
X153048497Y-108468661D01*
X153421436Y-108717851D01*
X153835824Y-108889496D01*
X154275735Y-108977000D01*
X154724265Y-108977000D01*
X155164176Y-108889496D01*
X155578564Y-108717851D01*
X155951503Y-108468661D01*
X156268661Y-108151503D01*
X156517851Y-107778564D01*
X156689496Y-107364176D01*
X156777000Y-106924265D01*
X156777000Y-106475735D01*
X156689496Y-106035824D01*
X156517851Y-105621436D01*
X156268661Y-105248497D01*
X155951503Y-104931339D01*
X155578564Y-104682149D01*
X155164176Y-104510504D01*
X154724265Y-104423000D01*
X154275735Y-104423000D01*
X153835824Y-104510504D01*
X153421436Y-104682149D01*
X153048497Y-104931339D01*
X152731339Y-105248497D01*
X152482149Y-105621436D01*
X152310504Y-106035824D01*
X152223000Y-106475735D01*
X150499539Y-106475735D01*
X150617186Y-106379186D01*
X150739276Y-106230418D01*
X150829997Y-106060691D01*
X150885863Y-105876524D01*
X150900000Y-105732992D01*
X150900000Y-105087007D01*
X150885863Y-104943475D01*
X150829997Y-104759309D01*
X150739276Y-104589582D01*
X150617186Y-104440814D01*
X150468418Y-104318724D01*
X150298690Y-104228003D01*
X150114524Y-104172137D01*
X149923000Y-104153273D01*
X149731475Y-104172137D01*
X149547309Y-104228003D01*
X149377582Y-104318724D01*
X149228814Y-104440814D01*
X149106724Y-104589582D01*
X149016003Y-104759310D01*
X148960137Y-104943476D01*
X148946000Y-105087008D01*
X148900000Y-105087008D01*
X148900000Y-105087007D01*
X148885863Y-104943475D01*
X148829997Y-104759309D01*
X148739276Y-104589582D01*
X148617186Y-104440814D01*
X148468418Y-104318724D01*
X148298690Y-104228003D01*
X148114524Y-104172137D01*
X147923000Y-104153273D01*
X147731475Y-104172137D01*
X147547309Y-104228003D01*
X147377582Y-104318724D01*
X147228814Y-104440814D01*
X147106724Y-104589582D01*
X147016003Y-104759310D01*
X146960137Y-104943476D01*
X146946000Y-105087008D01*
X146901824Y-105087008D01*
X146901824Y-104784999D01*
X146889741Y-104662322D01*
X146853958Y-104544359D01*
X146795848Y-104435644D01*
X146717646Y-104340354D01*
X146622356Y-104262152D01*
X146513641Y-104204042D01*
X146395678Y-104168259D01*
X146273001Y-104156176D01*
X145572999Y-104156176D01*
X145450322Y-104168259D01*
X145332359Y-104204042D01*
X145223644Y-104262152D01*
X145128354Y-104340354D01*
X145050152Y-104435644D01*
X144992042Y-104544359D01*
X144956259Y-104662322D01*
X144944176Y-104784999D01*
X141820790Y-104784999D01*
X141812997Y-104759309D01*
X141722276Y-104589582D01*
X141600186Y-104440814D01*
X141451418Y-104318724D01*
X141281690Y-104228003D01*
X141097524Y-104172137D01*
X140906000Y-104153273D01*
X140714475Y-104172137D01*
X140530309Y-104228003D01*
X140360582Y-104318724D01*
X140211814Y-104440814D01*
X140089724Y-104589582D01*
X139999003Y-104759310D01*
X139943137Y-104943476D01*
X139929000Y-105087008D01*
X139883000Y-105087008D01*
X139883000Y-105087007D01*
X139868863Y-104943475D01*
X139812997Y-104759309D01*
X139722276Y-104589582D01*
X139600186Y-104440814D01*
X139451418Y-104318724D01*
X139281690Y-104228003D01*
X139097524Y-104172137D01*
X138906000Y-104153273D01*
X138714475Y-104172137D01*
X138530309Y-104228003D01*
X138360582Y-104318724D01*
X138211814Y-104440814D01*
X138089724Y-104589582D01*
X137999003Y-104759310D01*
X137943137Y-104943476D01*
X137929000Y-105087008D01*
X137884824Y-105087008D01*
X137884824Y-104784999D01*
X137872741Y-104662322D01*
X137836958Y-104544359D01*
X137778848Y-104435644D01*
X137700646Y-104340354D01*
X137605356Y-104262152D01*
X137496641Y-104204042D01*
X137378678Y-104168259D01*
X137256001Y-104156176D01*
X136555999Y-104156176D01*
X136433322Y-104168259D01*
X136315359Y-104204042D01*
X136206644Y-104262152D01*
X136111354Y-104340354D01*
X136033152Y-104435644D01*
X135975042Y-104544359D01*
X135939259Y-104662322D01*
X135927176Y-104784999D01*
X135006501Y-104784999D01*
X135006501Y-99192501D01*
X138595654Y-99192501D01*
X138588464Y-99199691D01*
G37*
X138588464Y-99199691D02*
X138503431Y-99326952D01*
X138444859Y-99468357D01*
X138415000Y-99618472D01*
X138415000Y-99771528D01*
X138444859Y-99921643D01*
X138503431Y-100063048D01*
X138588464Y-100190309D01*
X138696691Y-100298536D01*
X138823952Y-100383569D01*
X138965357Y-100442141D01*
X139115472Y-100472000D01*
X139268528Y-100472000D01*
X139418643Y-100442141D01*
X139560048Y-100383569D01*
X139636500Y-100332485D01*
X139712952Y-100383569D01*
X139854357Y-100442141D01*
X140004472Y-100472000D01*
X140157528Y-100472000D01*
X140307643Y-100442141D01*
X140449048Y-100383569D01*
X140576309Y-100298536D01*
X140684536Y-100190309D01*
X140769569Y-100063048D01*
X140828141Y-99921643D01*
X140858000Y-99771528D01*
X140858000Y-99618472D01*
X140828141Y-99468357D01*
X140769569Y-99326952D01*
X140684536Y-99199691D01*
X140677346Y-99192501D01*
X150569404Y-99192501D01*
X150522357Y-99201859D01*
X150380952Y-99260431D01*
X150253691Y-99345464D01*
X150145464Y-99453691D01*
X150060431Y-99580952D01*
X150001859Y-99722357D01*
X149972000Y-99872472D01*
X149972000Y-100025528D01*
X150001859Y-100175643D01*
X150060431Y-100317048D01*
X150145464Y-100444309D01*
X150158155Y-100457000D01*
X150145464Y-100469691D01*
X150060431Y-100596952D01*
X150001859Y-100738357D01*
X149972000Y-100888472D01*
X149972000Y-101041528D01*
X150001859Y-101191643D01*
X150060431Y-101333048D01*
X150145464Y-101460309D01*
X150253691Y-101568536D01*
X150380952Y-101653569D01*
X150522357Y-101712141D01*
X150672472Y-101742000D01*
X150825528Y-101742000D01*
X150975643Y-101712141D01*
X151117048Y-101653569D01*
X151244309Y-101568536D01*
X151257000Y-101555845D01*
X151269691Y-101568536D01*
X151396952Y-101653569D01*
X151538357Y-101712141D01*
X151688472Y-101742000D01*
X151841528Y-101742000D01*
X151991643Y-101712141D01*
X152133048Y-101653569D01*
X152260309Y-101568536D01*
X152273000Y-101555845D01*
X152285691Y-101568536D01*
X152412952Y-101653569D01*
X152554357Y-101712141D01*
X152704472Y-101742000D01*
X152857528Y-101742000D01*
X153007643Y-101712141D01*
X153149048Y-101653569D01*
X153276309Y-101568536D01*
X153289000Y-101555845D01*
X153301691Y-101568536D01*
X153428952Y-101653569D01*
X153570357Y-101712141D01*
X153720472Y-101742000D01*
X153873528Y-101742000D01*
X154023643Y-101712141D01*
X154165048Y-101653569D01*
X154292309Y-101568536D01*
X154400536Y-101460309D01*
X154485569Y-101333048D01*
X154544141Y-101191643D01*
X154574000Y-101041528D01*
X154574000Y-100888472D01*
X154544141Y-100738357D01*
X154485569Y-100596952D01*
X154400536Y-100469691D01*
X154387845Y-100457000D01*
X154400536Y-100444309D01*
X154485569Y-100317048D01*
X154544141Y-100175643D01*
X154574000Y-100025528D01*
X154574000Y-99872472D01*
X154544141Y-99722357D01*
X154485569Y-99580952D01*
X154400536Y-99453691D01*
X154292309Y-99345464D01*
X154165048Y-99260431D01*
X154023643Y-99201859D01*
X153976596Y-99192501D01*
X154331922Y-99192501D01*
X158052502Y-102913082D01*
X158052502Y-109591473D01*
X158005711Y-109521446D01*
X157883556Y-109399291D01*
X157739916Y-109303314D01*
X157580312Y-109237204D01*
X157410878Y-109203501D01*
X157238124Y-109203501D01*
X157068690Y-109237204D01*
X156909086Y-109303314D01*
X156765446Y-109399291D01*
X156643291Y-109521446D01*
X156547314Y-109665086D01*
X156481204Y-109824690D01*
X156447501Y-109994124D01*
X156447501Y-110166878D01*
X156481204Y-110336312D01*
X156547314Y-110495916D01*
X156643291Y-110639556D01*
X156719236Y-110715501D01*
X156643291Y-110791446D01*
X156547314Y-110935086D01*
X156481204Y-111094690D01*
X156447501Y-111264124D01*
X156447501Y-111436878D01*
X156481204Y-111606312D01*
X156547314Y-111765916D01*
X156643291Y-111909556D01*
X156719236Y-111985501D01*
X156643291Y-112061446D01*
X156547314Y-112205086D01*
X156481204Y-112364690D01*
X156447501Y-112534124D01*
X156447501Y-112706878D01*
X156481204Y-112876312D01*
X156542985Y-113025464D01*
X156433690Y-113047204D01*
X156274086Y-113113314D01*
X156130446Y-113209291D01*
X156008291Y-113331446D01*
X155912314Y-113475086D01*
X155846204Y-113634690D01*
X155812501Y-113804124D01*
X155812501Y-113976878D01*
X155846204Y-114146312D01*
X155912314Y-114305916D01*
X156008291Y-114449556D01*
X156084236Y-114525501D01*
X156008291Y-114601446D01*
X155912314Y-114745086D01*
X155846204Y-114904690D01*
X155812501Y-115074124D01*
X155812501Y-115246878D01*
X155846204Y-115416312D01*
X155912314Y-115575916D01*
X156008291Y-115719556D01*
X156084236Y-115795501D01*
X156008291Y-115871446D01*
X155912314Y-116015086D01*
X155846204Y-116174690D01*
X155812501Y-116344124D01*
X155812501Y-116516878D01*
X155846204Y-116686312D01*
X155912314Y-116845916D01*
X156008291Y-116989556D01*
X156084236Y-117065501D01*
X156008291Y-117141446D01*
X155912314Y-117285086D01*
X155846204Y-117444690D01*
X155812501Y-117614124D01*
X155812501Y-117786878D01*
X155846204Y-117956312D01*
X155912314Y-118115916D01*
X156008291Y-118259556D01*
X156130446Y-118381711D01*
X156274086Y-118477688D01*
X156433690Y-118543798D01*
X156603124Y-118577501D01*
X156775878Y-118577501D01*
X156945312Y-118543798D01*
X157104916Y-118477688D01*
X157248556Y-118381711D01*
X157370711Y-118259556D01*
X157466688Y-118115916D01*
X157532798Y-117956312D01*
X157566501Y-117786878D01*
X157566501Y-117614124D01*
X157532798Y-117444690D01*
X157466688Y-117285086D01*
X157370711Y-117141446D01*
X157294766Y-117065501D01*
X157370711Y-116989556D01*
X157466688Y-116845916D01*
X157532798Y-116686312D01*
X157566501Y-116516878D01*
X157566501Y-116344124D01*
X157532798Y-116174690D01*
X157466688Y-116015086D01*
X157370711Y-115871446D01*
X157294766Y-115795501D01*
X157370711Y-115719556D01*
X157466688Y-115575916D01*
X157532798Y-115416312D01*
X157566501Y-115246878D01*
X157566501Y-115074124D01*
X157532798Y-114904690D01*
X157466688Y-114745086D01*
X157370711Y-114601446D01*
X157294766Y-114525501D01*
X157370711Y-114449556D01*
X157466688Y-114305916D01*
X157532798Y-114146312D01*
X157566501Y-113976878D01*
X157566501Y-113804124D01*
X157532798Y-113634690D01*
X157471017Y-113485538D01*
X157580312Y-113463798D01*
X157739916Y-113397688D01*
X157883556Y-113301711D01*
X158005711Y-113179556D01*
X158052501Y-113109529D01*
X158052501Y-118517921D01*
X154331922Y-122238501D01*
X148923530Y-122238501D01*
X148993556Y-122191711D01*
X149115711Y-122069556D01*
X149211688Y-121925916D01*
X149277798Y-121766312D01*
X149311501Y-121596878D01*
X149311501Y-121424124D01*
X149277798Y-121254690D01*
X149211688Y-121095086D01*
X149115711Y-120951446D01*
X148993556Y-120829291D01*
X148849916Y-120733314D01*
X148690312Y-120667204D01*
X148520878Y-120633501D01*
X148348124Y-120633501D01*
X148178690Y-120667204D01*
X148019086Y-120733314D01*
X147875446Y-120829291D01*
X147799501Y-120905236D01*
X147723556Y-120829291D01*
X147579916Y-120733314D01*
X147420312Y-120667204D01*
X147250878Y-120633501D01*
X147078124Y-120633501D01*
X147010900Y-120646873D01*
X147053309Y-120618536D01*
X147161536Y-120510309D01*
X147246569Y-120383048D01*
X147305141Y-120241643D01*
X147335000Y-120091528D01*
X147335000Y-119938472D01*
X147305141Y-119788357D01*
X147246569Y-119646952D01*
X147161536Y-119519691D01*
X147053309Y-119411464D01*
X146926048Y-119326431D01*
X146784643Y-119267859D01*
X146634528Y-119238000D01*
X146481472Y-119238000D01*
X146331357Y-119267859D01*
X146189952Y-119326431D01*
X146062691Y-119411464D01*
X145954464Y-119519691D01*
X145869431Y-119646952D01*
X145810859Y-119788357D01*
X145781000Y-119938472D01*
X145781000Y-120091528D01*
X145810859Y-120241643D01*
X145869431Y-120383048D01*
X145954464Y-120510309D01*
X146062691Y-120618536D01*
X146129261Y-120663017D01*
X145980878Y-120633501D01*
X145808124Y-120633501D01*
X145638690Y-120667204D01*
X145479086Y-120733314D01*
X145335446Y-120829291D01*
X145259501Y-120905236D01*
X145183556Y-120829291D01*
X145039916Y-120733314D01*
X144880312Y-120667204D01*
X144710878Y-120633501D01*
X144538124Y-120633501D01*
X144368690Y-120667204D01*
X144209086Y-120733314D01*
X144065446Y-120829291D01*
X143989501Y-120905236D01*
X143913556Y-120829291D01*
X143769916Y-120733314D01*
X143610312Y-120667204D01*
X143440878Y-120633501D01*
X143268124Y-120633501D01*
X143098690Y-120667204D01*
X142939086Y-120733314D01*
X142795446Y-120829291D01*
X142719501Y-120905236D01*
X142643556Y-120829291D01*
X142499916Y-120733314D01*
X142340312Y-120667204D01*
X142170878Y-120633501D01*
X141998124Y-120633501D01*
X141828690Y-120667204D01*
X141669086Y-120733314D01*
X141525446Y-120829291D01*
X141449501Y-120905236D01*
X141373556Y-120829291D01*
X141229916Y-120733314D01*
X141070312Y-120667204D01*
X140900878Y-120633501D01*
X140728124Y-120633501D01*
X140558690Y-120667204D01*
X140399086Y-120733314D01*
X140255446Y-120829291D01*
X140179501Y-120905236D01*
X140103556Y-120829291D01*
X139959916Y-120733314D01*
X139800312Y-120667204D01*
X139630878Y-120633501D01*
X139458124Y-120633501D01*
X139288690Y-120667204D01*
X139129086Y-120733314D01*
X138985446Y-120829291D01*
X138863291Y-120951446D01*
X138767314Y-121095086D01*
X138701204Y-121254690D01*
X138667501Y-121424124D01*
X138667501Y-121596878D01*
X138701204Y-121766312D01*
X138767314Y-121925916D01*
X138863291Y-122069556D01*
X138985446Y-122191711D01*
X139055472Y-122238501D01*
X138727081Y-122238501D01*
X135011177Y-118522597D01*
X136146974Y-118522597D01*
X136146974Y-118695351D01*
X136180677Y-118864785D01*
X136246787Y-119024389D01*
X136342764Y-119168029D01*
X136464919Y-119290184D01*
X136608559Y-119386161D01*
X136768163Y-119452271D01*
X136840051Y-119466571D01*
X136836069Y-119507000D01*
X136843348Y-119580905D01*
X136864905Y-119651970D01*
X136899912Y-119717463D01*
X136947024Y-119774869D01*
X137654131Y-120481976D01*
X137711537Y-120529088D01*
X137777030Y-120564095D01*
X137848095Y-120585652D01*
X137922000Y-120592931D01*
X137995905Y-120585652D01*
X138066970Y-120564095D01*
X138132463Y-120529088D01*
X138189869Y-120481976D01*
X138896976Y-119774869D01*
X138944088Y-119717463D01*
X138979095Y-119651970D01*
X139000652Y-119580905D01*
X139007931Y-119507000D01*
X139000652Y-119433095D01*
X138979095Y-119362030D01*
X138944088Y-119296537D01*
X138896976Y-119239131D01*
X138244134Y-118586289D01*
X142032501Y-118586289D01*
X142032501Y-118739345D01*
X142062360Y-118889460D01*
X142120932Y-119030865D01*
X142205965Y-119158126D01*
X142314192Y-119266353D01*
X142441453Y-119351386D01*
X142582858Y-119409958D01*
X142732973Y-119439817D01*
X142886029Y-119439817D01*
X143036144Y-119409958D01*
X143177549Y-119351386D01*
X143304810Y-119266353D01*
X143413037Y-119158126D01*
X143498070Y-119030865D01*
X143556642Y-118889460D01*
X143586501Y-118739345D01*
X143586501Y-118586289D01*
X143556642Y-118436174D01*
X143498070Y-118294769D01*
X143413037Y-118167508D01*
X143304810Y-118059281D01*
X143177549Y-117974248D01*
X143036144Y-117915676D01*
X142886029Y-117885817D01*
X142732973Y-117885817D01*
X142582858Y-117915676D01*
X142441453Y-117974248D01*
X142314192Y-118059281D01*
X142205965Y-118167508D01*
X142120932Y-118294769D01*
X142062360Y-118436174D01*
X142032501Y-118586289D01*
X138244134Y-118586289D01*
X138189869Y-118532024D01*
X138132463Y-118484912D01*
X138066970Y-118449905D01*
X137995905Y-118428348D01*
X137922000Y-118421069D01*
X137881571Y-118425051D01*
X137867271Y-118353163D01*
X137801161Y-118193559D01*
X137705184Y-118049919D01*
X137583029Y-117927764D01*
X137439389Y-117831787D01*
X137279785Y-117765677D01*
X137110351Y-117731974D01*
X136937597Y-117731974D01*
X136768163Y-117765677D01*
X136608559Y-117831787D01*
X136464919Y-117927764D01*
X136342764Y-118049919D01*
X136246787Y-118193559D01*
X136180677Y-118353163D01*
X136146974Y-118522597D01*
X135011177Y-118522597D01*
X135006501Y-118517922D01*
X135006501Y-114475735D01*
X136223000Y-114475735D01*
X136223000Y-114924265D01*
X136310504Y-115364176D01*
X136482149Y-115778564D01*
X136731339Y-116151503D01*
X137048497Y-116468661D01*
X137421436Y-116717851D01*
X137835824Y-116889496D01*
X138275735Y-116977000D01*
X138724265Y-116977000D01*
X139164176Y-116889496D01*
X139578564Y-116717851D01*
X139951503Y-116468661D01*
X140268661Y-116151503D01*
X140517851Y-115778564D01*
X140689496Y-115364176D01*
X140777000Y-114924265D01*
X140777000Y-114554815D01*
X140855952Y-114607569D01*
X140997357Y-114666141D01*
X141147472Y-114696000D01*
X141300528Y-114696000D01*
X141450643Y-114666141D01*
X141592048Y-114607569D01*
X141719309Y-114522536D01*
X141827536Y-114414309D01*
X141912569Y-114287048D01*
X141971141Y-114145643D01*
X142001000Y-113995528D01*
X142001000Y-113842472D01*
X141971141Y-113692357D01*
X141912569Y-113550952D01*
X141827536Y-113423691D01*
X141719309Y-113315464D01*
X141592048Y-113230431D01*
X141450643Y-113171859D01*
X141300528Y-113142000D01*
X141147472Y-113142000D01*
X140997357Y-113171859D01*
X140855952Y-113230431D01*
X140728691Y-113315464D01*
X140620464Y-113423691D01*
X140535431Y-113550952D01*
X140510681Y-113610705D01*
X140268661Y-113248497D01*
X139973636Y-112953472D01*
X144003000Y-112953472D01*
X144003000Y-113106528D01*
X144032859Y-113256643D01*
X144091431Y-113398048D01*
X144176464Y-113525309D01*
X144284691Y-113633536D01*
X144411952Y-113718569D01*
X144553357Y-113777141D01*
X144703472Y-113807000D01*
X144856528Y-113807000D01*
X145006643Y-113777141D01*
X145148048Y-113718569D01*
X145275309Y-113633536D01*
X145383536Y-113525309D01*
X145468569Y-113398048D01*
X145527141Y-113256643D01*
X145557000Y-113106528D01*
X145557000Y-112953472D01*
X145527141Y-112803357D01*
X145468569Y-112661952D01*
X145383536Y-112534691D01*
X145275309Y-112426464D01*
X145148048Y-112341431D01*
X145006643Y-112282859D01*
X144856528Y-112253000D01*
X144703472Y-112253000D01*
X144553357Y-112282859D01*
X144411952Y-112341431D01*
X144284691Y-112426464D01*
X144176464Y-112534691D01*
X144091431Y-112661952D01*
X144032859Y-112803357D01*
X144003000Y-112953472D01*
X139973636Y-112953472D01*
X139951503Y-112931339D01*
X139578564Y-112682149D01*
X139164176Y-112510504D01*
X138724265Y-112423000D01*
X138275735Y-112423000D01*
X137835824Y-112510504D01*
X137421436Y-112682149D01*
X137048497Y-112931339D01*
X136731339Y-113248497D01*
X136482149Y-113621436D01*
X136310504Y-114035824D01*
X136223000Y-114475735D01*
X135006501Y-114475735D01*
X135006501Y-108383596D01*
X135015859Y-108430643D01*
X135074431Y-108572048D01*
X135159464Y-108699309D01*
X135267691Y-108807536D01*
X135394952Y-108892569D01*
X135536357Y-108951141D01*
X135686472Y-108981000D01*
X135839528Y-108981000D01*
X135989643Y-108951141D01*
X136131048Y-108892569D01*
X136258309Y-108807536D01*
X136366536Y-108699309D01*
X136451569Y-108572048D01*
X136510141Y-108430643D01*
X136540000Y-108280528D01*
X136540000Y-108127472D01*
X136510141Y-107977357D01*
X136451569Y-107835952D01*
X136391781Y-107746472D01*
X140320000Y-107746472D01*
X140320000Y-107899528D01*
X140349859Y-108049643D01*
X140408431Y-108191048D01*
X140493464Y-108318309D01*
X140601691Y-108426536D01*
X140728952Y-108511569D01*
X140870357Y-108570141D01*
X141020472Y-108600000D01*
X141173528Y-108600000D01*
X141323643Y-108570141D01*
X141465048Y-108511569D01*
X141592309Y-108426536D01*
X141700536Y-108318309D01*
X141785569Y-108191048D01*
X141844141Y-108049643D01*
X141853921Y-108000472D01*
X142964999Y-108000472D01*
X142964999Y-108153528D01*
X142994858Y-108303643D01*
X143053430Y-108445048D01*
X143138463Y-108572309D01*
X143246690Y-108680536D01*
X143373951Y-108765569D01*
X143515356Y-108824141D01*
X143665471Y-108854000D01*
X143818527Y-108854000D01*
X143968642Y-108824141D01*
X144110047Y-108765569D01*
X144237308Y-108680536D01*
X144345535Y-108572309D01*
X144430568Y-108445048D01*
X144489140Y-108303643D01*
X144518999Y-108153528D01*
X144518999Y-108000472D01*
X144500447Y-107907200D01*
X144663176Y-107907200D01*
X144663176Y-108907200D01*
X144670455Y-108981105D01*
X144692012Y-109052170D01*
X144727019Y-109117663D01*
X144774131Y-109175069D01*
X144831537Y-109222181D01*
X144897030Y-109257188D01*
X144968095Y-109278745D01*
X145042000Y-109286024D01*
X145546372Y-109286024D01*
X145463031Y-109410752D01*
X145404459Y-109552157D01*
X145374600Y-109702272D01*
X145374600Y-109855328D01*
X145404459Y-110005443D01*
X145463031Y-110146848D01*
X145548064Y-110274109D01*
X145656291Y-110382336D01*
X145783552Y-110467369D01*
X145924957Y-110525941D01*
X146075072Y-110555800D01*
X146228128Y-110555800D01*
X146378243Y-110525941D01*
X146519648Y-110467369D01*
X146624283Y-110397454D01*
X146669101Y-110505654D01*
X146754134Y-110632915D01*
X146862361Y-110741142D01*
X146989622Y-110826175D01*
X147131027Y-110884747D01*
X147281142Y-110914606D01*
X147434198Y-110914606D01*
X147584313Y-110884747D01*
X147725718Y-110826175D01*
X147852979Y-110741142D01*
X147961206Y-110632915D01*
X148046239Y-110505654D01*
X148104811Y-110364249D01*
X148134670Y-110214134D01*
X148134670Y-110061078D01*
X148104811Y-109910963D01*
X148046239Y-109769558D01*
X147961206Y-109642297D01*
X147852979Y-109534070D01*
X147725718Y-109449037D01*
X147584313Y-109390465D01*
X147434198Y-109360606D01*
X147281142Y-109360606D01*
X147131027Y-109390465D01*
X146989622Y-109449037D01*
X146884987Y-109518952D01*
X146840169Y-109410752D01*
X146755136Y-109283491D01*
X146646909Y-109175264D01*
X146519648Y-109090231D01*
X146395981Y-109039006D01*
X146413545Y-108981105D01*
X146420824Y-108907200D01*
X146420824Y-108320823D01*
X147205000Y-108320823D01*
X147205000Y-108493577D01*
X147238703Y-108663011D01*
X147304813Y-108822615D01*
X147400790Y-108966255D01*
X147522945Y-109088410D01*
X147666585Y-109184387D01*
X147826189Y-109250497D01*
X147995623Y-109284200D01*
X148168377Y-109284200D01*
X148337811Y-109250497D01*
X148497415Y-109184387D01*
X148641055Y-109088410D01*
X148717000Y-109012465D01*
X148792945Y-109088410D01*
X148936585Y-109184387D01*
X149096189Y-109250497D01*
X149265623Y-109284200D01*
X149438377Y-109284200D01*
X149607811Y-109250497D01*
X149767415Y-109184387D01*
X149911055Y-109088410D01*
X149987000Y-109012465D01*
X150062945Y-109088410D01*
X150206585Y-109184387D01*
X150366189Y-109250497D01*
X150535623Y-109284200D01*
X150708377Y-109284200D01*
X150877811Y-109250497D01*
X151037415Y-109184387D01*
X151181055Y-109088410D01*
X151303210Y-108966255D01*
X151399187Y-108822615D01*
X151465297Y-108663011D01*
X151499000Y-108493577D01*
X151499000Y-108320823D01*
X151465297Y-108151389D01*
X151399187Y-107991785D01*
X151303210Y-107848145D01*
X151181055Y-107725990D01*
X151037415Y-107630013D01*
X150877811Y-107563903D01*
X150708377Y-107530200D01*
X150535623Y-107530200D01*
X150366189Y-107563903D01*
X150206585Y-107630013D01*
X150062945Y-107725990D01*
X149987000Y-107801935D01*
X149911055Y-107725990D01*
X149767415Y-107630013D01*
X149607811Y-107563903D01*
X149438377Y-107530200D01*
X149265623Y-107530200D01*
X149096189Y-107563903D01*
X148936585Y-107630013D01*
X148792945Y-107725990D01*
X148717000Y-107801935D01*
X148641055Y-107725990D01*
X148497415Y-107630013D01*
X148337811Y-107563903D01*
X148168377Y-107530200D01*
X147995623Y-107530200D01*
X147826189Y-107563903D01*
X147666585Y-107630013D01*
X147522945Y-107725990D01*
X147400790Y-107848145D01*
X147304813Y-107991785D01*
X147238703Y-108151389D01*
X147205000Y-108320823D01*
X146420824Y-108320823D01*
X146420824Y-107907200D01*
X146413545Y-107833295D01*
X146391988Y-107762230D01*
X146356981Y-107696737D01*
X146309869Y-107639331D01*
X146252463Y-107592219D01*
X146186970Y-107557212D01*
X146115905Y-107535655D01*
X146042000Y-107528376D01*
X145042000Y-107528376D01*
X144968095Y-107535655D01*
X144897030Y-107557212D01*
X144831537Y-107592219D01*
X144774131Y-107639331D01*
X144727019Y-107696737D01*
X144692012Y-107762230D01*
X144670455Y-107833295D01*
X144663176Y-107907200D01*
X144500447Y-107907200D01*
X144489140Y-107850357D01*
X144430568Y-107708952D01*
X144345535Y-107581691D01*
X144237308Y-107473464D01*
X144110047Y-107388431D01*
X143968642Y-107329859D01*
X143818527Y-107300000D01*
X143665471Y-107300000D01*
X143515356Y-107329859D01*
X143373951Y-107388431D01*
X143246690Y-107473464D01*
X143138463Y-107581691D01*
X143053430Y-107708952D01*
X142994858Y-107850357D01*
X142964999Y-108000472D01*
X141853921Y-108000472D01*
X141874000Y-107899528D01*
X141874000Y-107746472D01*
X141844141Y-107596357D01*
X141785569Y-107454952D01*
X141700536Y-107327691D01*
X141592309Y-107219464D01*
X141465048Y-107134431D01*
X141323643Y-107075859D01*
X141173528Y-107046000D01*
X141020472Y-107046000D01*
X140870357Y-107075859D01*
X140728952Y-107134431D01*
X140601691Y-107219464D01*
X140493464Y-107327691D01*
X140408431Y-107454952D01*
X140349859Y-107596357D01*
X140320000Y-107746472D01*
X136391781Y-107746472D01*
X136366536Y-107708691D01*
X136258309Y-107600464D01*
X136131048Y-107515431D01*
X135989643Y-107456859D01*
X135839528Y-107427000D01*
X135686472Y-107427000D01*
X135536357Y-107456859D01*
X135394952Y-107515431D01*
X135267691Y-107600464D01*
X135159464Y-107708691D01*
X135074431Y-107835952D01*
X135015859Y-107977357D01*
X135006501Y-108024404D01*
X135006501Y-104784999D01*
X135927176Y-104784999D01*
X135927176Y-106035001D01*
X135939259Y-106157678D01*
X135975042Y-106275641D01*
X136033152Y-106384356D01*
X136111354Y-106479646D01*
X136206644Y-106557848D01*
X136315359Y-106615958D01*
X136433322Y-106651741D01*
X136555999Y-106663824D01*
X137256001Y-106663824D01*
X137378678Y-106651741D01*
X137496641Y-106615958D01*
X137605356Y-106557848D01*
X137700646Y-106479646D01*
X137778848Y-106384356D01*
X137836958Y-106275641D01*
X137872741Y-106157678D01*
X137884824Y-106035001D01*
X137884824Y-105087008D01*
X137929000Y-105087008D01*
X137929000Y-105732993D01*
X137943137Y-105876525D01*
X137999003Y-106060691D01*
X138089725Y-106230418D01*
X138211815Y-106379186D01*
X138360583Y-106501276D01*
X138530310Y-106591997D01*
X138714476Y-106647863D01*
X138906000Y-106666727D01*
X139097525Y-106647863D01*
X139281691Y-106591997D01*
X139451418Y-106501276D01*
X139600186Y-106379186D01*
X139722276Y-106230418D01*
X139812997Y-106060691D01*
X139868863Y-105876524D01*
X139883000Y-105732992D01*
X139883000Y-105087008D01*
X139929000Y-105087008D01*
X139929000Y-105732993D01*
X139943137Y-105876525D01*
X139999003Y-106060691D01*
X140089725Y-106230418D01*
X140211815Y-106379186D01*
X140360583Y-106501276D01*
X140530310Y-106591997D01*
X140714476Y-106647863D01*
X140906000Y-106666727D01*
X141097525Y-106647863D01*
X141281691Y-106591997D01*
X141451418Y-106501276D01*
X141600186Y-106379186D01*
X141722276Y-106230418D01*
X141812997Y-106060691D01*
X141868863Y-105876524D01*
X141883000Y-105732992D01*
X141883000Y-105087007D01*
X141868863Y-104943475D01*
X141820790Y-104784999D01*
X144944176Y-104784999D01*
X144944176Y-106035001D01*
X144956259Y-106157678D01*
X144992042Y-106275641D01*
X145050152Y-106384356D01*
X145128354Y-106479646D01*
X145223644Y-106557848D01*
X145332359Y-106615958D01*
X145450322Y-106651741D01*
X145572999Y-106663824D01*
X146273001Y-106663824D01*
X146395678Y-106651741D01*
X146513641Y-106615958D01*
X146622356Y-106557848D01*
X146717646Y-106479646D01*
X146795848Y-106384356D01*
X146853958Y-106275641D01*
X146889741Y-106157678D01*
X146901824Y-106035001D01*
X146901824Y-105087008D01*
X146946000Y-105087008D01*
X146946000Y-105732993D01*
X146960137Y-105876525D01*
X147016003Y-106060691D01*
X147106725Y-106230418D01*
X147228815Y-106379186D01*
X147377583Y-106501276D01*
X147547310Y-106591997D01*
X147731476Y-106647863D01*
X147923000Y-106666727D01*
X148114525Y-106647863D01*
X148298691Y-106591997D01*
X148468418Y-106501276D01*
X148617186Y-106379186D01*
X148739276Y-106230418D01*
X148829997Y-106060691D01*
X148885863Y-105876524D01*
X148900000Y-105732992D01*
X148900000Y-105087008D01*
X148946000Y-105087008D01*
X148946000Y-105732993D01*
X148960137Y-105876525D01*
X149016003Y-106060691D01*
X149106725Y-106230418D01*
X149228815Y-106379186D01*
X149377583Y-106501276D01*
X149547310Y-106591997D01*
X149731476Y-106647863D01*
X149923000Y-106666727D01*
X150114525Y-106647863D01*
X150298691Y-106591997D01*
X150468418Y-106501276D01*
X150499539Y-106475735D01*
X152223000Y-106475735D01*
X152223000Y-106924265D01*
X152310504Y-107364176D01*
X152482149Y-107778564D01*
X152731339Y-108151503D01*
X153048497Y-108468661D01*
X153421436Y-108717851D01*
X153835824Y-108889496D01*
X154275735Y-108977000D01*
X154724265Y-108977000D01*
X155164176Y-108889496D01*
X155578564Y-108717851D01*
X155951503Y-108468661D01*
X156268661Y-108151503D01*
X156517851Y-107778564D01*
X156689496Y-107364176D01*
X156777000Y-106924265D01*
X156777000Y-106475735D01*
X156689496Y-106035824D01*
X156517851Y-105621436D01*
X156268661Y-105248497D01*
X155951503Y-104931339D01*
X155578564Y-104682149D01*
X155164176Y-104510504D01*
X154724265Y-104423000D01*
X154275735Y-104423000D01*
X153835824Y-104510504D01*
X153421436Y-104682149D01*
X153048497Y-104931339D01*
X152731339Y-105248497D01*
X152482149Y-105621436D01*
X152310504Y-106035824D01*
X152223000Y-106475735D01*
X150499539Y-106475735D01*
X150617186Y-106379186D01*
X150739276Y-106230418D01*
X150829997Y-106060691D01*
X150885863Y-105876524D01*
X150900000Y-105732992D01*
X150900000Y-105087007D01*
X150885863Y-104943475D01*
X150829997Y-104759309D01*
X150739276Y-104589582D01*
X150617186Y-104440814D01*
X150468418Y-104318724D01*
X150298690Y-104228003D01*
X150114524Y-104172137D01*
X149923000Y-104153273D01*
X149731475Y-104172137D01*
X149547309Y-104228003D01*
X149377582Y-104318724D01*
X149228814Y-104440814D01*
X149106724Y-104589582D01*
X149016003Y-104759310D01*
X148960137Y-104943476D01*
X148946000Y-105087008D01*
X148900000Y-105087008D01*
X148900000Y-105087007D01*
X148885863Y-104943475D01*
X148829997Y-104759309D01*
X148739276Y-104589582D01*
X148617186Y-104440814D01*
X148468418Y-104318724D01*
X148298690Y-104228003D01*
X148114524Y-104172137D01*
X147923000Y-104153273D01*
X147731475Y-104172137D01*
X147547309Y-104228003D01*
X147377582Y-104318724D01*
X147228814Y-104440814D01*
X147106724Y-104589582D01*
X147016003Y-104759310D01*
X146960137Y-104943476D01*
X146946000Y-105087008D01*
X146901824Y-105087008D01*
X146901824Y-104784999D01*
X146889741Y-104662322D01*
X146853958Y-104544359D01*
X146795848Y-104435644D01*
X146717646Y-104340354D01*
X146622356Y-104262152D01*
X146513641Y-104204042D01*
X146395678Y-104168259D01*
X146273001Y-104156176D01*
X145572999Y-104156176D01*
X145450322Y-104168259D01*
X145332359Y-104204042D01*
X145223644Y-104262152D01*
X145128354Y-104340354D01*
X145050152Y-104435644D01*
X144992042Y-104544359D01*
X144956259Y-104662322D01*
X144944176Y-104784999D01*
X141820790Y-104784999D01*
X141812997Y-104759309D01*
X141722276Y-104589582D01*
X141600186Y-104440814D01*
X141451418Y-104318724D01*
X141281690Y-104228003D01*
X141097524Y-104172137D01*
X140906000Y-104153273D01*
X140714475Y-104172137D01*
X140530309Y-104228003D01*
X140360582Y-104318724D01*
X140211814Y-104440814D01*
X140089724Y-104589582D01*
X139999003Y-104759310D01*
X139943137Y-104943476D01*
X139929000Y-105087008D01*
X139883000Y-105087008D01*
X139883000Y-105087007D01*
X139868863Y-104943475D01*
X139812997Y-104759309D01*
X139722276Y-104589582D01*
X139600186Y-104440814D01*
X139451418Y-104318724D01*
X139281690Y-104228003D01*
X139097524Y-104172137D01*
X138906000Y-104153273D01*
X138714475Y-104172137D01*
X138530309Y-104228003D01*
X138360582Y-104318724D01*
X138211814Y-104440814D01*
X138089724Y-104589582D01*
X137999003Y-104759310D01*
X137943137Y-104943476D01*
X137929000Y-105087008D01*
X137884824Y-105087008D01*
X137884824Y-104784999D01*
X137872741Y-104662322D01*
X137836958Y-104544359D01*
X137778848Y-104435644D01*
X137700646Y-104340354D01*
X137605356Y-104262152D01*
X137496641Y-104204042D01*
X137378678Y-104168259D01*
X137256001Y-104156176D01*
X136555999Y-104156176D01*
X136433322Y-104168259D01*
X136315359Y-104204042D01*
X136206644Y-104262152D01*
X136111354Y-104340354D01*
X136033152Y-104435644D01*
X135975042Y-104544359D01*
X135939259Y-104662322D01*
X135927176Y-104784999D01*
X135006501Y-104784999D01*
X135006501Y-99192501D01*
X138595654Y-99192501D01*
X138588464Y-99199691D01*
G04 #@! TD*
M02*
