G04 #@! TF.GenerationSoftware,KiCad,Pcbnew,5.1.5+dfsg1-2build2*
G04 #@! TF.CreationDate,2021-02-09T17:16:18+01:00*
G04 #@! TF.ProjectId,base2.0,62617365-322e-4302-9e6b-696361645f70,rev?*
G04 #@! TF.SameCoordinates,Original*
G04 #@! TF.FileFunction,Soldermask,Top*
G04 #@! TF.FilePolarity,Negative*
%FSLAX46Y46*%
G04 Gerber Fmt 4.6, Leading zero omitted, Abs format (unit mm)*
G04 Created by KiCad (PCBNEW 5.1.5+dfsg1-2build2) date 2021-02-09 17:16:18*
%MOMM*%
%LPD*%
G04 APERTURE LIST*
%ADD10C,0.350000*%
G04 APERTURE END LIST*
D10*
G36*
X139705222Y-120980675D02*
G01*
X139805496Y-121022210D01*
X139805497Y-121022211D01*
X139895743Y-121082511D01*
X139972491Y-121159259D01*
X139972492Y-121159261D01*
X140032792Y-121249506D01*
X140064017Y-121324890D01*
X140075568Y-121346501D01*
X140091113Y-121365442D01*
X140110055Y-121380988D01*
X140131666Y-121392539D01*
X140155115Y-121399652D01*
X140179501Y-121402054D01*
X140203887Y-121399652D01*
X140227336Y-121392539D01*
X140248947Y-121380988D01*
X140267888Y-121365443D01*
X140283434Y-121346501D01*
X140294985Y-121324890D01*
X140326210Y-121249506D01*
X140386510Y-121159261D01*
X140386511Y-121159259D01*
X140463259Y-121082511D01*
X140553505Y-121022211D01*
X140553506Y-121022210D01*
X140653780Y-120980675D01*
X140760231Y-120959501D01*
X140868771Y-120959501D01*
X140975222Y-120980675D01*
X141075496Y-121022210D01*
X141075497Y-121022211D01*
X141165743Y-121082511D01*
X141242491Y-121159259D01*
X141242492Y-121159261D01*
X141302792Y-121249506D01*
X141334017Y-121324890D01*
X141345568Y-121346501D01*
X141361113Y-121365442D01*
X141380055Y-121380988D01*
X141401666Y-121392539D01*
X141425115Y-121399652D01*
X141449501Y-121402054D01*
X141473887Y-121399652D01*
X141497336Y-121392539D01*
X141518947Y-121380988D01*
X141537888Y-121365443D01*
X141553434Y-121346501D01*
X141564985Y-121324890D01*
X141596210Y-121249506D01*
X141656510Y-121159261D01*
X141656511Y-121159259D01*
X141733259Y-121082511D01*
X141823505Y-121022211D01*
X141823506Y-121022210D01*
X141923780Y-120980675D01*
X142030231Y-120959501D01*
X142138771Y-120959501D01*
X142245222Y-120980675D01*
X142345496Y-121022210D01*
X142345497Y-121022211D01*
X142435743Y-121082511D01*
X142512491Y-121159259D01*
X142512492Y-121159261D01*
X142572792Y-121249506D01*
X142604017Y-121324890D01*
X142615568Y-121346501D01*
X142631113Y-121365442D01*
X142650055Y-121380988D01*
X142671666Y-121392539D01*
X142695115Y-121399652D01*
X142719501Y-121402054D01*
X142743887Y-121399652D01*
X142767336Y-121392539D01*
X142788947Y-121380988D01*
X142807888Y-121365443D01*
X142823434Y-121346501D01*
X142834985Y-121324890D01*
X142866210Y-121249506D01*
X142926510Y-121159261D01*
X142926511Y-121159259D01*
X143003259Y-121082511D01*
X143093505Y-121022211D01*
X143093506Y-121022210D01*
X143193780Y-120980675D01*
X143300231Y-120959501D01*
X143408771Y-120959501D01*
X143515222Y-120980675D01*
X143615496Y-121022210D01*
X143615497Y-121022211D01*
X143705743Y-121082511D01*
X143782491Y-121159259D01*
X143782492Y-121159261D01*
X143842792Y-121249506D01*
X143874017Y-121324890D01*
X143885568Y-121346501D01*
X143901113Y-121365442D01*
X143920055Y-121380988D01*
X143941666Y-121392539D01*
X143965115Y-121399652D01*
X143989501Y-121402054D01*
X144013887Y-121399652D01*
X144037336Y-121392539D01*
X144058947Y-121380988D01*
X144077888Y-121365443D01*
X144093434Y-121346501D01*
X144104985Y-121324890D01*
X144136210Y-121249506D01*
X144196510Y-121159261D01*
X144196511Y-121159259D01*
X144273259Y-121082511D01*
X144363505Y-121022211D01*
X144363506Y-121022210D01*
X144463780Y-120980675D01*
X144570231Y-120959501D01*
X144678771Y-120959501D01*
X144785222Y-120980675D01*
X144885496Y-121022210D01*
X144885497Y-121022211D01*
X144975743Y-121082511D01*
X145052491Y-121159259D01*
X145052492Y-121159261D01*
X145112792Y-121249506D01*
X145144017Y-121324890D01*
X145155568Y-121346501D01*
X145171113Y-121365442D01*
X145190055Y-121380988D01*
X145211666Y-121392539D01*
X145235115Y-121399652D01*
X145259501Y-121402054D01*
X145283887Y-121399652D01*
X145307336Y-121392539D01*
X145328947Y-121380988D01*
X145347888Y-121365443D01*
X145363434Y-121346501D01*
X145374985Y-121324890D01*
X145406210Y-121249506D01*
X145466510Y-121159261D01*
X145466511Y-121159259D01*
X145543259Y-121082511D01*
X145633505Y-121022211D01*
X145633506Y-121022210D01*
X145733780Y-120980675D01*
X145840231Y-120959501D01*
X145948771Y-120959501D01*
X146055222Y-120980675D01*
X146155496Y-121022210D01*
X146155497Y-121022211D01*
X146245743Y-121082511D01*
X146322491Y-121159259D01*
X146322492Y-121159261D01*
X146382792Y-121249506D01*
X146414017Y-121324890D01*
X146425568Y-121346501D01*
X146441113Y-121365442D01*
X146460055Y-121380988D01*
X146481666Y-121392539D01*
X146505115Y-121399652D01*
X146529501Y-121402054D01*
X146553887Y-121399652D01*
X146577336Y-121392539D01*
X146598947Y-121380988D01*
X146617888Y-121365443D01*
X146633434Y-121346501D01*
X146644985Y-121324890D01*
X146676210Y-121249506D01*
X146736510Y-121159261D01*
X146736511Y-121159259D01*
X146813259Y-121082511D01*
X146903505Y-121022211D01*
X146903506Y-121022210D01*
X147003780Y-120980675D01*
X147110231Y-120959501D01*
X147218771Y-120959501D01*
X147325222Y-120980675D01*
X147425496Y-121022210D01*
X147425497Y-121022211D01*
X147515743Y-121082511D01*
X147592491Y-121159259D01*
X147592492Y-121159261D01*
X147652792Y-121249506D01*
X147684017Y-121324890D01*
X147695568Y-121346501D01*
X147711113Y-121365442D01*
X147730055Y-121380988D01*
X147751666Y-121392539D01*
X147775115Y-121399652D01*
X147799501Y-121402054D01*
X147823887Y-121399652D01*
X147847336Y-121392539D01*
X147868947Y-121380988D01*
X147887888Y-121365443D01*
X147903434Y-121346501D01*
X147914985Y-121324890D01*
X147946210Y-121249506D01*
X148006510Y-121159261D01*
X148006511Y-121159259D01*
X148083259Y-121082511D01*
X148173505Y-121022211D01*
X148173506Y-121022210D01*
X148273780Y-120980675D01*
X148380231Y-120959501D01*
X148488771Y-120959501D01*
X148595222Y-120980675D01*
X148695496Y-121022210D01*
X148695497Y-121022211D01*
X148785743Y-121082511D01*
X148862491Y-121159259D01*
X148862492Y-121159261D01*
X148922792Y-121249506D01*
X148964327Y-121349780D01*
X148985501Y-121456231D01*
X148985501Y-121564771D01*
X148964327Y-121671222D01*
X148922792Y-121771496D01*
X148922791Y-121771497D01*
X148862491Y-121861743D01*
X148785743Y-121938491D01*
X148740313Y-121968846D01*
X148695496Y-121998792D01*
X148595222Y-122040327D01*
X148488771Y-122061501D01*
X148380231Y-122061501D01*
X148273780Y-122040327D01*
X148173506Y-121998792D01*
X148128689Y-121968846D01*
X148083259Y-121938491D01*
X148006511Y-121861743D01*
X147946211Y-121771497D01*
X147946210Y-121771496D01*
X147914985Y-121696112D01*
X147903434Y-121674501D01*
X147887889Y-121655560D01*
X147868947Y-121640014D01*
X147847336Y-121628463D01*
X147823887Y-121621350D01*
X147799501Y-121618948D01*
X147775115Y-121621350D01*
X147751666Y-121628463D01*
X147730055Y-121640014D01*
X147711114Y-121655559D01*
X147695568Y-121674501D01*
X147684017Y-121696112D01*
X147652792Y-121771496D01*
X147652791Y-121771497D01*
X147592491Y-121861743D01*
X147515743Y-121938491D01*
X147470313Y-121968846D01*
X147425496Y-121998792D01*
X147325222Y-122040327D01*
X147218771Y-122061501D01*
X147110231Y-122061501D01*
X147003780Y-122040327D01*
X146903506Y-121998792D01*
X146858689Y-121968846D01*
X146813259Y-121938491D01*
X146736511Y-121861743D01*
X146676211Y-121771497D01*
X146676210Y-121771496D01*
X146644985Y-121696112D01*
X146633434Y-121674501D01*
X146617889Y-121655560D01*
X146598947Y-121640014D01*
X146577336Y-121628463D01*
X146553887Y-121621350D01*
X146529501Y-121618948D01*
X146505115Y-121621350D01*
X146481666Y-121628463D01*
X146460055Y-121640014D01*
X146441114Y-121655559D01*
X146425568Y-121674501D01*
X146414017Y-121696112D01*
X146382792Y-121771496D01*
X146382791Y-121771497D01*
X146322491Y-121861743D01*
X146245743Y-121938491D01*
X146200313Y-121968846D01*
X146155496Y-121998792D01*
X146055222Y-122040327D01*
X145948771Y-122061501D01*
X145840231Y-122061501D01*
X145733780Y-122040327D01*
X145633506Y-121998792D01*
X145588689Y-121968846D01*
X145543259Y-121938491D01*
X145466511Y-121861743D01*
X145406211Y-121771497D01*
X145406210Y-121771496D01*
X145374985Y-121696112D01*
X145363434Y-121674501D01*
X145347889Y-121655560D01*
X145328947Y-121640014D01*
X145307336Y-121628463D01*
X145283887Y-121621350D01*
X145259501Y-121618948D01*
X145235115Y-121621350D01*
X145211666Y-121628463D01*
X145190055Y-121640014D01*
X145171114Y-121655559D01*
X145155568Y-121674501D01*
X145144017Y-121696112D01*
X145112792Y-121771496D01*
X145112791Y-121771497D01*
X145052491Y-121861743D01*
X144975743Y-121938491D01*
X144930313Y-121968846D01*
X144885496Y-121998792D01*
X144785222Y-122040327D01*
X144678771Y-122061501D01*
X144570231Y-122061501D01*
X144463780Y-122040327D01*
X144363506Y-121998792D01*
X144318689Y-121968846D01*
X144273259Y-121938491D01*
X144196511Y-121861743D01*
X144136211Y-121771497D01*
X144136210Y-121771496D01*
X144104985Y-121696112D01*
X144093434Y-121674501D01*
X144077889Y-121655560D01*
X144058947Y-121640014D01*
X144037336Y-121628463D01*
X144013887Y-121621350D01*
X143989501Y-121618948D01*
X143965115Y-121621350D01*
X143941666Y-121628463D01*
X143920055Y-121640014D01*
X143901114Y-121655559D01*
X143885568Y-121674501D01*
X143874017Y-121696112D01*
X143842792Y-121771496D01*
X143842791Y-121771497D01*
X143782491Y-121861743D01*
X143705743Y-121938491D01*
X143660313Y-121968846D01*
X143615496Y-121998792D01*
X143515222Y-122040327D01*
X143408771Y-122061501D01*
X143300231Y-122061501D01*
X143193780Y-122040327D01*
X143093506Y-121998792D01*
X143048689Y-121968846D01*
X143003259Y-121938491D01*
X142926511Y-121861743D01*
X142866211Y-121771497D01*
X142866210Y-121771496D01*
X142834985Y-121696112D01*
X142823434Y-121674501D01*
X142807889Y-121655560D01*
X142788947Y-121640014D01*
X142767336Y-121628463D01*
X142743887Y-121621350D01*
X142719501Y-121618948D01*
X142695115Y-121621350D01*
X142671666Y-121628463D01*
X142650055Y-121640014D01*
X142631114Y-121655559D01*
X142615568Y-121674501D01*
X142604017Y-121696112D01*
X142572792Y-121771496D01*
X142572791Y-121771497D01*
X142512491Y-121861743D01*
X142435743Y-121938491D01*
X142390313Y-121968846D01*
X142345496Y-121998792D01*
X142245222Y-122040327D01*
X142138771Y-122061501D01*
X142030231Y-122061501D01*
X141923780Y-122040327D01*
X141823506Y-121998792D01*
X141778689Y-121968846D01*
X141733259Y-121938491D01*
X141656511Y-121861743D01*
X141596211Y-121771497D01*
X141596210Y-121771496D01*
X141564985Y-121696112D01*
X141553434Y-121674501D01*
X141537889Y-121655560D01*
X141518947Y-121640014D01*
X141497336Y-121628463D01*
X141473887Y-121621350D01*
X141449501Y-121618948D01*
X141425115Y-121621350D01*
X141401666Y-121628463D01*
X141380055Y-121640014D01*
X141361114Y-121655559D01*
X141345568Y-121674501D01*
X141334017Y-121696112D01*
X141302792Y-121771496D01*
X141302791Y-121771497D01*
X141242491Y-121861743D01*
X141165743Y-121938491D01*
X141120313Y-121968846D01*
X141075496Y-121998792D01*
X140975222Y-122040327D01*
X140868771Y-122061501D01*
X140760231Y-122061501D01*
X140653780Y-122040327D01*
X140553506Y-121998792D01*
X140508689Y-121968846D01*
X140463259Y-121938491D01*
X140386511Y-121861743D01*
X140326211Y-121771497D01*
X140326210Y-121771496D01*
X140294985Y-121696112D01*
X140283434Y-121674501D01*
X140267889Y-121655560D01*
X140248947Y-121640014D01*
X140227336Y-121628463D01*
X140203887Y-121621350D01*
X140179501Y-121618948D01*
X140155115Y-121621350D01*
X140131666Y-121628463D01*
X140110055Y-121640014D01*
X140091114Y-121655559D01*
X140075568Y-121674501D01*
X140064017Y-121696112D01*
X140032792Y-121771496D01*
X140032791Y-121771497D01*
X139972491Y-121861743D01*
X139895743Y-121938491D01*
X139850313Y-121968846D01*
X139805496Y-121998792D01*
X139705222Y-122040327D01*
X139598771Y-122061501D01*
X139490231Y-122061501D01*
X139383780Y-122040327D01*
X139283506Y-121998792D01*
X139238689Y-121968846D01*
X139193259Y-121938491D01*
X139116511Y-121861743D01*
X139056211Y-121771497D01*
X139056210Y-121771496D01*
X139014675Y-121671222D01*
X138993501Y-121564771D01*
X138993501Y-121456231D01*
X139014675Y-121349780D01*
X139056210Y-121249506D01*
X139116510Y-121159261D01*
X139116511Y-121159259D01*
X139193259Y-121082511D01*
X139283505Y-121022211D01*
X139283506Y-121022210D01*
X139383780Y-120980675D01*
X139490231Y-120959501D01*
X139598771Y-120959501D01*
X139705222Y-120980675D01*
G37*
G36*
X137184695Y-118079148D02*
G01*
X137284969Y-118120683D01*
X137284970Y-118120684D01*
X137375216Y-118180984D01*
X137451964Y-118257732D01*
X137451965Y-118257734D01*
X137512265Y-118347979D01*
X137553800Y-118448253D01*
X137574974Y-118554704D01*
X137574974Y-118663244D01*
X137553175Y-118772835D01*
X137550773Y-118797221D01*
X137553175Y-118821607D01*
X137560288Y-118845056D01*
X137571839Y-118866667D01*
X137587384Y-118885609D01*
X137606326Y-118901154D01*
X137627937Y-118912705D01*
X137651386Y-118919818D01*
X137675772Y-118922220D01*
X137700158Y-118919818D01*
X137723607Y-118912705D01*
X137745218Y-118901154D01*
X137764154Y-118885614D01*
X137922000Y-118727768D01*
X138701232Y-119507000D01*
X137922000Y-120286232D01*
X137142768Y-119507000D01*
X137300614Y-119349154D01*
X137316154Y-119330218D01*
X137327705Y-119308607D01*
X137334818Y-119285158D01*
X137337220Y-119260772D01*
X137334818Y-119236386D01*
X137327705Y-119212937D01*
X137316154Y-119191326D01*
X137300609Y-119172384D01*
X137281667Y-119156839D01*
X137260056Y-119145288D01*
X137236607Y-119138175D01*
X137212221Y-119135773D01*
X137187835Y-119138175D01*
X137078244Y-119159974D01*
X136969704Y-119159974D01*
X136863253Y-119138800D01*
X136762979Y-119097265D01*
X136718162Y-119067319D01*
X136672732Y-119036964D01*
X136595984Y-118960216D01*
X136556520Y-118901154D01*
X136535683Y-118869969D01*
X136494148Y-118769695D01*
X136472974Y-118663244D01*
X136472974Y-118554704D01*
X136494148Y-118448253D01*
X136535683Y-118347979D01*
X136595983Y-118257734D01*
X136595984Y-118257732D01*
X136672732Y-118180984D01*
X136762978Y-118120684D01*
X136762979Y-118120683D01*
X136863253Y-118079148D01*
X136969704Y-118057974D01*
X137078244Y-118057974D01*
X137184695Y-118079148D01*
G37*
G36*
X149377938Y-119265716D02*
G01*
X149398557Y-119271971D01*
X149417553Y-119282124D01*
X149434208Y-119295792D01*
X149447876Y-119312447D01*
X149458029Y-119331443D01*
X149464284Y-119352062D01*
X149467000Y-119379640D01*
X149467000Y-119888360D01*
X149464284Y-119915938D01*
X149458029Y-119936557D01*
X149447876Y-119955553D01*
X149434208Y-119972208D01*
X149417553Y-119985876D01*
X149398557Y-119996029D01*
X149377938Y-120002284D01*
X149350360Y-120005000D01*
X148891640Y-120005000D01*
X148864062Y-120002284D01*
X148843443Y-119996029D01*
X148824447Y-119985876D01*
X148807792Y-119972208D01*
X148794124Y-119955553D01*
X148783971Y-119936557D01*
X148777716Y-119915938D01*
X148775000Y-119888360D01*
X148775000Y-119379640D01*
X148777716Y-119352062D01*
X148783971Y-119331443D01*
X148794124Y-119312447D01*
X148807792Y-119295792D01*
X148824447Y-119282124D01*
X148843443Y-119271971D01*
X148864062Y-119265716D01*
X148891640Y-119263000D01*
X149350360Y-119263000D01*
X149377938Y-119265716D01*
G37*
G36*
X150347938Y-119265716D02*
G01*
X150368557Y-119271971D01*
X150387553Y-119282124D01*
X150404208Y-119295792D01*
X150417876Y-119312447D01*
X150428029Y-119331443D01*
X150434284Y-119352062D01*
X150437000Y-119379640D01*
X150437000Y-119888360D01*
X150434284Y-119915938D01*
X150428029Y-119936557D01*
X150417876Y-119955553D01*
X150404208Y-119972208D01*
X150387553Y-119985876D01*
X150368557Y-119996029D01*
X150347938Y-120002284D01*
X150320360Y-120005000D01*
X149861640Y-120005000D01*
X149834062Y-120002284D01*
X149813443Y-119996029D01*
X149794447Y-119985876D01*
X149777792Y-119972208D01*
X149764124Y-119955553D01*
X149753971Y-119936557D01*
X149747716Y-119915938D01*
X149745000Y-119888360D01*
X149745000Y-119379640D01*
X149747716Y-119352062D01*
X149753971Y-119331443D01*
X149764124Y-119312447D01*
X149777792Y-119295792D01*
X149794447Y-119282124D01*
X149813443Y-119271971D01*
X149834062Y-119265716D01*
X149861640Y-119263000D01*
X150320360Y-119263000D01*
X150347938Y-119265716D01*
G37*
G36*
X144463855Y-110880583D02*
G01*
X144468529Y-110882001D01*
X144472830Y-110884300D01*
X144479202Y-110889529D01*
X144499576Y-110903143D01*
X144522215Y-110912520D01*
X144546249Y-110917300D01*
X144570753Y-110917300D01*
X144594786Y-110912519D01*
X144617425Y-110903142D01*
X144637798Y-110889529D01*
X144644170Y-110884300D01*
X144648471Y-110882001D01*
X144653145Y-110880583D01*
X144664141Y-110879500D01*
X144952859Y-110879500D01*
X144963855Y-110880583D01*
X144968529Y-110882001D01*
X144972830Y-110884300D01*
X144979202Y-110889529D01*
X144999576Y-110903143D01*
X145022215Y-110912520D01*
X145046249Y-110917300D01*
X145070753Y-110917300D01*
X145094786Y-110912519D01*
X145117425Y-110903142D01*
X145137798Y-110889529D01*
X145144170Y-110884300D01*
X145148471Y-110882001D01*
X145153145Y-110880583D01*
X145164141Y-110879500D01*
X145452859Y-110879500D01*
X145463855Y-110880583D01*
X145468529Y-110882001D01*
X145472830Y-110884300D01*
X145479202Y-110889529D01*
X145499576Y-110903143D01*
X145522215Y-110912520D01*
X145546249Y-110917300D01*
X145570753Y-110917300D01*
X145594786Y-110912519D01*
X145617425Y-110903142D01*
X145637798Y-110889529D01*
X145644170Y-110884300D01*
X145648471Y-110882001D01*
X145653145Y-110880583D01*
X145664141Y-110879500D01*
X145952859Y-110879500D01*
X145963855Y-110880583D01*
X145968529Y-110882001D01*
X145972830Y-110884300D01*
X145979202Y-110889529D01*
X145999576Y-110903143D01*
X146022215Y-110912520D01*
X146046249Y-110917300D01*
X146070753Y-110917300D01*
X146094786Y-110912519D01*
X146117425Y-110903142D01*
X146137798Y-110889529D01*
X146144170Y-110884300D01*
X146148471Y-110882001D01*
X146153145Y-110880583D01*
X146164141Y-110879500D01*
X146452859Y-110879500D01*
X146463855Y-110880583D01*
X146468529Y-110882001D01*
X146472830Y-110884300D01*
X146479202Y-110889529D01*
X146499576Y-110903143D01*
X146522215Y-110912520D01*
X146546249Y-110917300D01*
X146570753Y-110917300D01*
X146594786Y-110912519D01*
X146617425Y-110903142D01*
X146637798Y-110889529D01*
X146644170Y-110884300D01*
X146648471Y-110882001D01*
X146653145Y-110880583D01*
X146664141Y-110879500D01*
X146952859Y-110879500D01*
X146963855Y-110880583D01*
X146968529Y-110882001D01*
X146972830Y-110884300D01*
X146979202Y-110889529D01*
X146999576Y-110903143D01*
X147022215Y-110912520D01*
X147046249Y-110917300D01*
X147070753Y-110917300D01*
X147094786Y-110912519D01*
X147117425Y-110903142D01*
X147137798Y-110889529D01*
X147144170Y-110884300D01*
X147148471Y-110882001D01*
X147153145Y-110880583D01*
X147164141Y-110879500D01*
X147452859Y-110879500D01*
X147463855Y-110880583D01*
X147468529Y-110882001D01*
X147472830Y-110884300D01*
X147479202Y-110889529D01*
X147499576Y-110903143D01*
X147522215Y-110912520D01*
X147546249Y-110917300D01*
X147570753Y-110917300D01*
X147594786Y-110912519D01*
X147617425Y-110903142D01*
X147637798Y-110889529D01*
X147644170Y-110884300D01*
X147648471Y-110882001D01*
X147653145Y-110880583D01*
X147664141Y-110879500D01*
X147952859Y-110879500D01*
X147963855Y-110880583D01*
X147968529Y-110882001D01*
X147972830Y-110884300D01*
X147979202Y-110889529D01*
X147999576Y-110903143D01*
X148022215Y-110912520D01*
X148046249Y-110917300D01*
X148070753Y-110917300D01*
X148094786Y-110912519D01*
X148117425Y-110903142D01*
X148137798Y-110889529D01*
X148144170Y-110884300D01*
X148148471Y-110882001D01*
X148153145Y-110880583D01*
X148164141Y-110879500D01*
X148452859Y-110879500D01*
X148463855Y-110880583D01*
X148468529Y-110882001D01*
X148472830Y-110884300D01*
X148479202Y-110889529D01*
X148499576Y-110903143D01*
X148522215Y-110912520D01*
X148546249Y-110917300D01*
X148570753Y-110917300D01*
X148594786Y-110912519D01*
X148617425Y-110903142D01*
X148637798Y-110889529D01*
X148644170Y-110884300D01*
X148648471Y-110882001D01*
X148653145Y-110880583D01*
X148664141Y-110879500D01*
X148952859Y-110879500D01*
X148963855Y-110880583D01*
X148968529Y-110882001D01*
X148972830Y-110884300D01*
X148979202Y-110889529D01*
X148999576Y-110903143D01*
X149022215Y-110912520D01*
X149046249Y-110917300D01*
X149070753Y-110917300D01*
X149094786Y-110912519D01*
X149117425Y-110903142D01*
X149137798Y-110889529D01*
X149144170Y-110884300D01*
X149148471Y-110882001D01*
X149153145Y-110880583D01*
X149164141Y-110879500D01*
X149452859Y-110879500D01*
X149463855Y-110880583D01*
X149468529Y-110882001D01*
X149472830Y-110884300D01*
X149479202Y-110889529D01*
X149499576Y-110903143D01*
X149522215Y-110912520D01*
X149546249Y-110917300D01*
X149570753Y-110917300D01*
X149594786Y-110912519D01*
X149617425Y-110903142D01*
X149637798Y-110889529D01*
X149644170Y-110884300D01*
X149648471Y-110882001D01*
X149653145Y-110880583D01*
X149664141Y-110879500D01*
X149952859Y-110879500D01*
X149963855Y-110880583D01*
X149968529Y-110882001D01*
X149972831Y-110884300D01*
X149976604Y-110887396D01*
X149979700Y-110891169D01*
X149981999Y-110895471D01*
X149983417Y-110900145D01*
X149984500Y-110911141D01*
X149984500Y-111754501D01*
X149986902Y-111778887D01*
X149994015Y-111802336D01*
X150005566Y-111823947D01*
X150021111Y-111842889D01*
X150040053Y-111858434D01*
X150061664Y-111869985D01*
X150085113Y-111877098D01*
X150109499Y-111879500D01*
X150952859Y-111879500D01*
X150963855Y-111880583D01*
X150968529Y-111882001D01*
X150972831Y-111884300D01*
X150976604Y-111887396D01*
X150979700Y-111891169D01*
X150981999Y-111895471D01*
X150983417Y-111900145D01*
X150984500Y-111911141D01*
X150984500Y-112199859D01*
X150983417Y-112210855D01*
X150981999Y-112215529D01*
X150979700Y-112219830D01*
X150974471Y-112226202D01*
X150960857Y-112246576D01*
X150951480Y-112269215D01*
X150946700Y-112293249D01*
X150946700Y-112317753D01*
X150951481Y-112341786D01*
X150960858Y-112364425D01*
X150974471Y-112384798D01*
X150979700Y-112391170D01*
X150981999Y-112395471D01*
X150983417Y-112400145D01*
X150984500Y-112411141D01*
X150984500Y-112699859D01*
X150983417Y-112710855D01*
X150981999Y-112715529D01*
X150979700Y-112719830D01*
X150974471Y-112726202D01*
X150960857Y-112746576D01*
X150951480Y-112769215D01*
X150946700Y-112793249D01*
X150946700Y-112817753D01*
X150951481Y-112841786D01*
X150960858Y-112864425D01*
X150974471Y-112884798D01*
X150979700Y-112891170D01*
X150981999Y-112895471D01*
X150983417Y-112900145D01*
X150984500Y-112911141D01*
X150984500Y-113199859D01*
X150983417Y-113210855D01*
X150981999Y-113215529D01*
X150979700Y-113219830D01*
X150974471Y-113226202D01*
X150960857Y-113246576D01*
X150951480Y-113269215D01*
X150946700Y-113293249D01*
X150946700Y-113317753D01*
X150951481Y-113341786D01*
X150960858Y-113364425D01*
X150974471Y-113384798D01*
X150979700Y-113391170D01*
X150981999Y-113395471D01*
X150983417Y-113400145D01*
X150984500Y-113411141D01*
X150984500Y-113699859D01*
X150983417Y-113710855D01*
X150981999Y-113715529D01*
X150979700Y-113719830D01*
X150974471Y-113726202D01*
X150960857Y-113746576D01*
X150951480Y-113769215D01*
X150946700Y-113793249D01*
X150946700Y-113817753D01*
X150951481Y-113841786D01*
X150960858Y-113864425D01*
X150974471Y-113884798D01*
X150979700Y-113891170D01*
X150981999Y-113895471D01*
X150983417Y-113900145D01*
X150984500Y-113911141D01*
X150984500Y-114199859D01*
X150983417Y-114210855D01*
X150981999Y-114215529D01*
X150979700Y-114219830D01*
X150974471Y-114226202D01*
X150960857Y-114246576D01*
X150951480Y-114269215D01*
X150946700Y-114293249D01*
X150946700Y-114317753D01*
X150951481Y-114341786D01*
X150960858Y-114364425D01*
X150974471Y-114384798D01*
X150979700Y-114391170D01*
X150981999Y-114395471D01*
X150983417Y-114400145D01*
X150984500Y-114411141D01*
X150984500Y-114699859D01*
X150983417Y-114710855D01*
X150981999Y-114715529D01*
X150979700Y-114719830D01*
X150974471Y-114726202D01*
X150960857Y-114746576D01*
X150951480Y-114769215D01*
X150946700Y-114793249D01*
X150946700Y-114817753D01*
X150951481Y-114841786D01*
X150960858Y-114864425D01*
X150974471Y-114884798D01*
X150979700Y-114891170D01*
X150981999Y-114895471D01*
X150983417Y-114900145D01*
X150984500Y-114911141D01*
X150984500Y-115199859D01*
X150983417Y-115210855D01*
X150981999Y-115215529D01*
X150979700Y-115219830D01*
X150974471Y-115226202D01*
X150960857Y-115246576D01*
X150951480Y-115269215D01*
X150946700Y-115293249D01*
X150946700Y-115317753D01*
X150951481Y-115341786D01*
X150960858Y-115364425D01*
X150974471Y-115384798D01*
X150979700Y-115391170D01*
X150981999Y-115395471D01*
X150983417Y-115400145D01*
X150984500Y-115411141D01*
X150984500Y-115699859D01*
X150983417Y-115710855D01*
X150981999Y-115715529D01*
X150979700Y-115719830D01*
X150974471Y-115726202D01*
X150960857Y-115746576D01*
X150951480Y-115769215D01*
X150946700Y-115793249D01*
X150946700Y-115817753D01*
X150951481Y-115841786D01*
X150960858Y-115864425D01*
X150974471Y-115884798D01*
X150979700Y-115891170D01*
X150981999Y-115895471D01*
X150983417Y-115900145D01*
X150984500Y-115911141D01*
X150984500Y-116199859D01*
X150983417Y-116210855D01*
X150981999Y-116215529D01*
X150979700Y-116219830D01*
X150974471Y-116226202D01*
X150960857Y-116246576D01*
X150951480Y-116269215D01*
X150946700Y-116293249D01*
X150946700Y-116317753D01*
X150951481Y-116341786D01*
X150960858Y-116364425D01*
X150974471Y-116384798D01*
X150979700Y-116391170D01*
X150981999Y-116395471D01*
X150983417Y-116400145D01*
X150984500Y-116411141D01*
X150984500Y-116699859D01*
X150983417Y-116710855D01*
X150981999Y-116715529D01*
X150979700Y-116719830D01*
X150974471Y-116726202D01*
X150960857Y-116746576D01*
X150951480Y-116769215D01*
X150946700Y-116793249D01*
X150946700Y-116817753D01*
X150951481Y-116841786D01*
X150960858Y-116864425D01*
X150974471Y-116884798D01*
X150979700Y-116891170D01*
X150981999Y-116895471D01*
X150983417Y-116900145D01*
X150984500Y-116911141D01*
X150984500Y-117199859D01*
X150983417Y-117210855D01*
X150981999Y-117215529D01*
X150979700Y-117219830D01*
X150974471Y-117226202D01*
X150960857Y-117246576D01*
X150951480Y-117269215D01*
X150946700Y-117293249D01*
X150946700Y-117317753D01*
X150951481Y-117341786D01*
X150960858Y-117364425D01*
X150974471Y-117384798D01*
X150979700Y-117391170D01*
X150981999Y-117395471D01*
X150983417Y-117400145D01*
X150984500Y-117411141D01*
X150984500Y-117699859D01*
X150983417Y-117710855D01*
X150981999Y-117715529D01*
X150979700Y-117719831D01*
X150976604Y-117723604D01*
X150972831Y-117726700D01*
X150968529Y-117728999D01*
X150963855Y-117730417D01*
X150952859Y-117731500D01*
X150109499Y-117731500D01*
X150085113Y-117733902D01*
X150061664Y-117741015D01*
X150040053Y-117752566D01*
X150021111Y-117768111D01*
X150005566Y-117787053D01*
X149994015Y-117808664D01*
X149986902Y-117832113D01*
X149984500Y-117856499D01*
X149984500Y-118699859D01*
X149983417Y-118710855D01*
X149981999Y-118715529D01*
X149979700Y-118719831D01*
X149976604Y-118723604D01*
X149972831Y-118726700D01*
X149968529Y-118728999D01*
X149963855Y-118730417D01*
X149952859Y-118731500D01*
X149664141Y-118731500D01*
X149653145Y-118730417D01*
X149648471Y-118728999D01*
X149644170Y-118726700D01*
X149637798Y-118721471D01*
X149617424Y-118707857D01*
X149594785Y-118698480D01*
X149570751Y-118693700D01*
X149546247Y-118693700D01*
X149522214Y-118698481D01*
X149499575Y-118707858D01*
X149479202Y-118721471D01*
X149472830Y-118726700D01*
X149468529Y-118728999D01*
X149463855Y-118730417D01*
X149452859Y-118731500D01*
X149164141Y-118731500D01*
X149153145Y-118730417D01*
X149148471Y-118728999D01*
X149144170Y-118726700D01*
X149137798Y-118721471D01*
X149117424Y-118707857D01*
X149094785Y-118698480D01*
X149070751Y-118693700D01*
X149046247Y-118693700D01*
X149022214Y-118698481D01*
X148999575Y-118707858D01*
X148979202Y-118721471D01*
X148972830Y-118726700D01*
X148968529Y-118728999D01*
X148963855Y-118730417D01*
X148952859Y-118731500D01*
X148664141Y-118731500D01*
X148653145Y-118730417D01*
X148648471Y-118728999D01*
X148644170Y-118726700D01*
X148637798Y-118721471D01*
X148617424Y-118707857D01*
X148594785Y-118698480D01*
X148570751Y-118693700D01*
X148546247Y-118693700D01*
X148522214Y-118698481D01*
X148499575Y-118707858D01*
X148479202Y-118721471D01*
X148472830Y-118726700D01*
X148468529Y-118728999D01*
X148463855Y-118730417D01*
X148452859Y-118731500D01*
X148164141Y-118731500D01*
X148153145Y-118730417D01*
X148148471Y-118728999D01*
X148144170Y-118726700D01*
X148137798Y-118721471D01*
X148117424Y-118707857D01*
X148094785Y-118698480D01*
X148070751Y-118693700D01*
X148046247Y-118693700D01*
X148022214Y-118698481D01*
X147999575Y-118707858D01*
X147979202Y-118721471D01*
X147972830Y-118726700D01*
X147968529Y-118728999D01*
X147963855Y-118730417D01*
X147952859Y-118731500D01*
X147664141Y-118731500D01*
X147653145Y-118730417D01*
X147648471Y-118728999D01*
X147644170Y-118726700D01*
X147637798Y-118721471D01*
X147617424Y-118707857D01*
X147594785Y-118698480D01*
X147570751Y-118693700D01*
X147546247Y-118693700D01*
X147522214Y-118698481D01*
X147499575Y-118707858D01*
X147479202Y-118721471D01*
X147472830Y-118726700D01*
X147468529Y-118728999D01*
X147463855Y-118730417D01*
X147452859Y-118731500D01*
X147164141Y-118731500D01*
X147153145Y-118730417D01*
X147148471Y-118728999D01*
X147144170Y-118726700D01*
X147137798Y-118721471D01*
X147117424Y-118707857D01*
X147094785Y-118698480D01*
X147070751Y-118693700D01*
X147046247Y-118693700D01*
X147022214Y-118698481D01*
X146999575Y-118707858D01*
X146979202Y-118721471D01*
X146972830Y-118726700D01*
X146968529Y-118728999D01*
X146963855Y-118730417D01*
X146952859Y-118731500D01*
X146664141Y-118731500D01*
X146653145Y-118730417D01*
X146648471Y-118728999D01*
X146644170Y-118726700D01*
X146637798Y-118721471D01*
X146617424Y-118707857D01*
X146594785Y-118698480D01*
X146570751Y-118693700D01*
X146546247Y-118693700D01*
X146522214Y-118698481D01*
X146499575Y-118707858D01*
X146479202Y-118721471D01*
X146472830Y-118726700D01*
X146468529Y-118728999D01*
X146463855Y-118730417D01*
X146452859Y-118731500D01*
X146164141Y-118731500D01*
X146153145Y-118730417D01*
X146148471Y-118728999D01*
X146144170Y-118726700D01*
X146137798Y-118721471D01*
X146117424Y-118707857D01*
X146094785Y-118698480D01*
X146070751Y-118693700D01*
X146046247Y-118693700D01*
X146022214Y-118698481D01*
X145999575Y-118707858D01*
X145979202Y-118721471D01*
X145972830Y-118726700D01*
X145968529Y-118728999D01*
X145963855Y-118730417D01*
X145952859Y-118731500D01*
X145664141Y-118731500D01*
X145653145Y-118730417D01*
X145648471Y-118728999D01*
X145644170Y-118726700D01*
X145637798Y-118721471D01*
X145617424Y-118707857D01*
X145594785Y-118698480D01*
X145570751Y-118693700D01*
X145546247Y-118693700D01*
X145522214Y-118698481D01*
X145499575Y-118707858D01*
X145479202Y-118721471D01*
X145472830Y-118726700D01*
X145468529Y-118728999D01*
X145463855Y-118730417D01*
X145452859Y-118731500D01*
X145164141Y-118731500D01*
X145153145Y-118730417D01*
X145148471Y-118728999D01*
X145144170Y-118726700D01*
X145137798Y-118721471D01*
X145117424Y-118707857D01*
X145094785Y-118698480D01*
X145070751Y-118693700D01*
X145046247Y-118693700D01*
X145022214Y-118698481D01*
X144999575Y-118707858D01*
X144979202Y-118721471D01*
X144972830Y-118726700D01*
X144968529Y-118728999D01*
X144963855Y-118730417D01*
X144952859Y-118731500D01*
X144664141Y-118731500D01*
X144653145Y-118730417D01*
X144648471Y-118728999D01*
X144644170Y-118726700D01*
X144637798Y-118721471D01*
X144617424Y-118707857D01*
X144594785Y-118698480D01*
X144570751Y-118693700D01*
X144546247Y-118693700D01*
X144522214Y-118698481D01*
X144499575Y-118707858D01*
X144479202Y-118721471D01*
X144472830Y-118726700D01*
X144468529Y-118728999D01*
X144463855Y-118730417D01*
X144452859Y-118731500D01*
X144164141Y-118731500D01*
X144153145Y-118730417D01*
X144148471Y-118728999D01*
X144144169Y-118726700D01*
X144140396Y-118723604D01*
X144137300Y-118719831D01*
X144135001Y-118715529D01*
X144133583Y-118710855D01*
X144132500Y-118699859D01*
X144132500Y-117856499D01*
X144130098Y-117832113D01*
X144122985Y-117808664D01*
X144111434Y-117787053D01*
X144095889Y-117768111D01*
X144076947Y-117752566D01*
X144055336Y-117741015D01*
X144031887Y-117733902D01*
X144007501Y-117731500D01*
X143164141Y-117731500D01*
X143153145Y-117730417D01*
X143148471Y-117728999D01*
X143144169Y-117726700D01*
X143140396Y-117723604D01*
X143137300Y-117719831D01*
X143135001Y-117715529D01*
X143133583Y-117710855D01*
X143132500Y-117699859D01*
X143132500Y-117411141D01*
X143133583Y-117400145D01*
X143135001Y-117395471D01*
X143137300Y-117391170D01*
X143142529Y-117384798D01*
X143156143Y-117364424D01*
X143165520Y-117341785D01*
X143170300Y-117317751D01*
X143170300Y-117293247D01*
X143165519Y-117269214D01*
X143156142Y-117246575D01*
X143142529Y-117226202D01*
X143137300Y-117219830D01*
X143135001Y-117215529D01*
X143133583Y-117210855D01*
X143132500Y-117199859D01*
X143132500Y-116911141D01*
X143133583Y-116900145D01*
X143135001Y-116895471D01*
X143137300Y-116891170D01*
X143142529Y-116884798D01*
X143156143Y-116864424D01*
X143165520Y-116841785D01*
X143170300Y-116817751D01*
X143170300Y-116793247D01*
X143165519Y-116769214D01*
X143156142Y-116746575D01*
X143142529Y-116726202D01*
X143137300Y-116719830D01*
X143135001Y-116715529D01*
X143133583Y-116710855D01*
X143132500Y-116699859D01*
X143132500Y-116411141D01*
X143133583Y-116400145D01*
X143135001Y-116395471D01*
X143137300Y-116391170D01*
X143142529Y-116384798D01*
X143156143Y-116364424D01*
X143165520Y-116341785D01*
X143170300Y-116317751D01*
X143170300Y-116293247D01*
X143165519Y-116269214D01*
X143156142Y-116246575D01*
X143142529Y-116226202D01*
X143137300Y-116219830D01*
X143135001Y-116215529D01*
X143133583Y-116210855D01*
X143132500Y-116199859D01*
X143132500Y-115911141D01*
X143133583Y-115900145D01*
X143135001Y-115895471D01*
X143137300Y-115891170D01*
X143142529Y-115884798D01*
X143156143Y-115864424D01*
X143165520Y-115841785D01*
X143170300Y-115817751D01*
X143170300Y-115793247D01*
X143165519Y-115769214D01*
X143156142Y-115746575D01*
X143142529Y-115726202D01*
X143137300Y-115719830D01*
X143135001Y-115715529D01*
X143133583Y-115710855D01*
X143132500Y-115699859D01*
X143132500Y-115411141D01*
X143133583Y-115400145D01*
X143135001Y-115395471D01*
X143137300Y-115391170D01*
X143142529Y-115384798D01*
X143156143Y-115364424D01*
X143165520Y-115341785D01*
X143170300Y-115317751D01*
X143170300Y-115293247D01*
X143165519Y-115269214D01*
X143156142Y-115246575D01*
X143142529Y-115226202D01*
X143137300Y-115219830D01*
X143135001Y-115215529D01*
X143133583Y-115210855D01*
X143132500Y-115199859D01*
X143132500Y-114911141D01*
X143133583Y-114900145D01*
X143135001Y-114895471D01*
X143137300Y-114891170D01*
X143142529Y-114884798D01*
X143156143Y-114864424D01*
X143165520Y-114841785D01*
X143170300Y-114817751D01*
X143170300Y-114793247D01*
X143165519Y-114769214D01*
X143156142Y-114746575D01*
X143142529Y-114726202D01*
X143137300Y-114719830D01*
X143135001Y-114715529D01*
X143133583Y-114710855D01*
X143132500Y-114699859D01*
X143132500Y-114411141D01*
X143133583Y-114400145D01*
X143135001Y-114395471D01*
X143137300Y-114391170D01*
X143142529Y-114384798D01*
X143156143Y-114364424D01*
X143165520Y-114341785D01*
X143170300Y-114317751D01*
X143170300Y-114293247D01*
X143165519Y-114269214D01*
X143156142Y-114246575D01*
X143142529Y-114226202D01*
X143137300Y-114219830D01*
X143135001Y-114215529D01*
X143133583Y-114210855D01*
X143132500Y-114199859D01*
X143132500Y-113911141D01*
X143133583Y-113900145D01*
X143135001Y-113895471D01*
X143137300Y-113891170D01*
X143142529Y-113884798D01*
X143156143Y-113864424D01*
X143165520Y-113841785D01*
X143170300Y-113817751D01*
X143170300Y-113793247D01*
X143165519Y-113769214D01*
X143156142Y-113746575D01*
X143142529Y-113726202D01*
X143137300Y-113719830D01*
X143135001Y-113715529D01*
X143133583Y-113710855D01*
X143132500Y-113699859D01*
X143132500Y-113411141D01*
X143133583Y-113400145D01*
X143135001Y-113395471D01*
X143137300Y-113391170D01*
X143142529Y-113384798D01*
X143156143Y-113364424D01*
X143165520Y-113341785D01*
X143170300Y-113317751D01*
X143170300Y-113293247D01*
X143165519Y-113269214D01*
X143156142Y-113246575D01*
X143142529Y-113226202D01*
X143137300Y-113219830D01*
X143135001Y-113215529D01*
X143133583Y-113210855D01*
X143132500Y-113199859D01*
X143132500Y-112911141D01*
X143133583Y-112900145D01*
X143135001Y-112895471D01*
X143137300Y-112891170D01*
X143142529Y-112884798D01*
X143156143Y-112864424D01*
X143165520Y-112841785D01*
X143170300Y-112817751D01*
X143170300Y-112793247D01*
X143165519Y-112769214D01*
X143156142Y-112746575D01*
X143142529Y-112726202D01*
X143137300Y-112719830D01*
X143135001Y-112715529D01*
X143133583Y-112710855D01*
X143132500Y-112699859D01*
X143132500Y-112411141D01*
X143133583Y-112400145D01*
X143135001Y-112395471D01*
X143137300Y-112391170D01*
X143142529Y-112384798D01*
X143156143Y-112364424D01*
X143165520Y-112341785D01*
X143170300Y-112317751D01*
X143170300Y-112293247D01*
X143165519Y-112269214D01*
X143156142Y-112246575D01*
X143142529Y-112226202D01*
X143137300Y-112219830D01*
X143135001Y-112215529D01*
X143133583Y-112210855D01*
X143132500Y-112199859D01*
X143132500Y-111911141D01*
X143133583Y-111900145D01*
X143135001Y-111895471D01*
X143137300Y-111891169D01*
X143140396Y-111887396D01*
X143144169Y-111884300D01*
X143148471Y-111882001D01*
X143153145Y-111880583D01*
X143164141Y-111879500D01*
X144007501Y-111879500D01*
X144031887Y-111877098D01*
X144055336Y-111869985D01*
X144076947Y-111858434D01*
X144095889Y-111842889D01*
X144111434Y-111823947D01*
X144122985Y-111802336D01*
X144130098Y-111778887D01*
X144132500Y-111754501D01*
X144132500Y-110911141D01*
X144133583Y-110900145D01*
X144135001Y-110895471D01*
X144137300Y-110891169D01*
X144140396Y-110887396D01*
X144144169Y-110884300D01*
X144148471Y-110882001D01*
X144153145Y-110880583D01*
X144164141Y-110879500D01*
X144452859Y-110879500D01*
X144463855Y-110880583D01*
G37*
G36*
X156850222Y-113360675D02*
G01*
X156950496Y-113402210D01*
X156950497Y-113402211D01*
X157040743Y-113462511D01*
X157117491Y-113539259D01*
X157147846Y-113584689D01*
X157177792Y-113629506D01*
X157219327Y-113729780D01*
X157240501Y-113836231D01*
X157240501Y-113944771D01*
X157219327Y-114051222D01*
X157177792Y-114151496D01*
X157177791Y-114151497D01*
X157117491Y-114241743D01*
X157040743Y-114318491D01*
X157005881Y-114341785D01*
X156950496Y-114378792D01*
X156875112Y-114410017D01*
X156853501Y-114421568D01*
X156834560Y-114437113D01*
X156819014Y-114456055D01*
X156807463Y-114477666D01*
X156800350Y-114501115D01*
X156797948Y-114525501D01*
X156800350Y-114549887D01*
X156807463Y-114573336D01*
X156819014Y-114594947D01*
X156834559Y-114613888D01*
X156853501Y-114629434D01*
X156875112Y-114640985D01*
X156950496Y-114672210D01*
X156995313Y-114702156D01*
X157040743Y-114732511D01*
X157117491Y-114809259D01*
X157117492Y-114809261D01*
X157177792Y-114899506D01*
X157219327Y-114999780D01*
X157240501Y-115106231D01*
X157240501Y-115214771D01*
X157219327Y-115321222D01*
X157177792Y-115421496D01*
X157158524Y-115450332D01*
X157117491Y-115511743D01*
X157040743Y-115588491D01*
X156995313Y-115618846D01*
X156950496Y-115648792D01*
X156875112Y-115680017D01*
X156853501Y-115691568D01*
X156834560Y-115707113D01*
X156819014Y-115726055D01*
X156807463Y-115747666D01*
X156800350Y-115771115D01*
X156797948Y-115795501D01*
X156800350Y-115819887D01*
X156807463Y-115843336D01*
X156819014Y-115864947D01*
X156834559Y-115883888D01*
X156853501Y-115899434D01*
X156875112Y-115910985D01*
X156950496Y-115942210D01*
X156962651Y-115950332D01*
X157040743Y-116002511D01*
X157117491Y-116079259D01*
X157117492Y-116079261D01*
X157177792Y-116169506D01*
X157219327Y-116269780D01*
X157240501Y-116376231D01*
X157240501Y-116484771D01*
X157219327Y-116591222D01*
X157177792Y-116691496D01*
X157160972Y-116716669D01*
X157117491Y-116781743D01*
X157040743Y-116858491D01*
X157006770Y-116881191D01*
X156950496Y-116918792D01*
X156875112Y-116950017D01*
X156853501Y-116961568D01*
X156834560Y-116977113D01*
X156819014Y-116996055D01*
X156807463Y-117017666D01*
X156800350Y-117041115D01*
X156797948Y-117065501D01*
X156800350Y-117089887D01*
X156807463Y-117113336D01*
X156819014Y-117134947D01*
X156834559Y-117153888D01*
X156853501Y-117169434D01*
X156875112Y-117180985D01*
X156950496Y-117212210D01*
X156979365Y-117231500D01*
X157040743Y-117272511D01*
X157117491Y-117349259D01*
X157137697Y-117379500D01*
X157177792Y-117439506D01*
X157219327Y-117539780D01*
X157240501Y-117646231D01*
X157240501Y-117754771D01*
X157219327Y-117861222D01*
X157177792Y-117961496D01*
X157177791Y-117961497D01*
X157117491Y-118051743D01*
X157040743Y-118128491D01*
X156995313Y-118158846D01*
X156950496Y-118188792D01*
X156850222Y-118230327D01*
X156743771Y-118251501D01*
X156635231Y-118251501D01*
X156528780Y-118230327D01*
X156428506Y-118188792D01*
X156383689Y-118158846D01*
X156338259Y-118128491D01*
X156261511Y-118051743D01*
X156201211Y-117961497D01*
X156201210Y-117961496D01*
X156159675Y-117861222D01*
X156138501Y-117754771D01*
X156138501Y-117646231D01*
X156159675Y-117539780D01*
X156201210Y-117439506D01*
X156241305Y-117379500D01*
X156261511Y-117349259D01*
X156338259Y-117272511D01*
X156399637Y-117231500D01*
X156428506Y-117212210D01*
X156503890Y-117180985D01*
X156525501Y-117169434D01*
X156544442Y-117153889D01*
X156559988Y-117134947D01*
X156571539Y-117113336D01*
X156578652Y-117089887D01*
X156581054Y-117065501D01*
X156578652Y-117041115D01*
X156571539Y-117017666D01*
X156559988Y-116996055D01*
X156544443Y-116977114D01*
X156525501Y-116961568D01*
X156503890Y-116950017D01*
X156428506Y-116918792D01*
X156372232Y-116881191D01*
X156338259Y-116858491D01*
X156261511Y-116781743D01*
X156218030Y-116716669D01*
X156201210Y-116691496D01*
X156159675Y-116591222D01*
X156138501Y-116484771D01*
X156138501Y-116376231D01*
X156159675Y-116269780D01*
X156201210Y-116169506D01*
X156261510Y-116079261D01*
X156261511Y-116079259D01*
X156338259Y-116002511D01*
X156416351Y-115950332D01*
X156428506Y-115942210D01*
X156503890Y-115910985D01*
X156525501Y-115899434D01*
X156544442Y-115883889D01*
X156559988Y-115864947D01*
X156571539Y-115843336D01*
X156578652Y-115819887D01*
X156581054Y-115795501D01*
X156578652Y-115771115D01*
X156571539Y-115747666D01*
X156559988Y-115726055D01*
X156544443Y-115707114D01*
X156525501Y-115691568D01*
X156503890Y-115680017D01*
X156428506Y-115648792D01*
X156383689Y-115618846D01*
X156338259Y-115588491D01*
X156261511Y-115511743D01*
X156220478Y-115450332D01*
X156201210Y-115421496D01*
X156159675Y-115321222D01*
X156138501Y-115214771D01*
X156138501Y-115106231D01*
X156159675Y-114999780D01*
X156201210Y-114899506D01*
X156261510Y-114809261D01*
X156261511Y-114809259D01*
X156338259Y-114732511D01*
X156383689Y-114702156D01*
X156428506Y-114672210D01*
X156503890Y-114640985D01*
X156525501Y-114629434D01*
X156544442Y-114613889D01*
X156559988Y-114594947D01*
X156571539Y-114573336D01*
X156578652Y-114549887D01*
X156581054Y-114525501D01*
X156578652Y-114501115D01*
X156571539Y-114477666D01*
X156559988Y-114456055D01*
X156544443Y-114437114D01*
X156525501Y-114421568D01*
X156503890Y-114410017D01*
X156428506Y-114378792D01*
X156373121Y-114341785D01*
X156338259Y-114318491D01*
X156261511Y-114241743D01*
X156201211Y-114151497D01*
X156201210Y-114151496D01*
X156159675Y-114051222D01*
X156138501Y-113944771D01*
X156138501Y-113836231D01*
X156159675Y-113729780D01*
X156201210Y-113629506D01*
X156231156Y-113584689D01*
X156261511Y-113539259D01*
X156338259Y-113462511D01*
X156428505Y-113402211D01*
X156428506Y-113402210D01*
X156528780Y-113360675D01*
X156635231Y-113339501D01*
X156743771Y-113339501D01*
X156850222Y-113360675D01*
G37*
G36*
X139069085Y-112823975D02*
G01*
X139424143Y-112971045D01*
X139424145Y-112971046D01*
X139743690Y-113184559D01*
X140015441Y-113456310D01*
X140224517Y-113769215D01*
X140228955Y-113775857D01*
X140376025Y-114130915D01*
X140451000Y-114507842D01*
X140451000Y-114892158D01*
X140376025Y-115269085D01*
X140243722Y-115588492D01*
X140228954Y-115624145D01*
X140015441Y-115943690D01*
X139743690Y-116215441D01*
X139424145Y-116428954D01*
X139424144Y-116428955D01*
X139424143Y-116428955D01*
X139069085Y-116576025D01*
X138692158Y-116651000D01*
X138307842Y-116651000D01*
X137930915Y-116576025D01*
X137575857Y-116428955D01*
X137575856Y-116428955D01*
X137575855Y-116428954D01*
X137256310Y-116215441D01*
X136984559Y-115943690D01*
X136771046Y-115624145D01*
X136756278Y-115588492D01*
X136623975Y-115269085D01*
X136549000Y-114892158D01*
X136549000Y-114507842D01*
X136623975Y-114130915D01*
X136771045Y-113775857D01*
X136775483Y-113769215D01*
X136984559Y-113456310D01*
X137256310Y-113184559D01*
X137575855Y-112971046D01*
X137575857Y-112971045D01*
X137930915Y-112823975D01*
X138307842Y-112749000D01*
X138692158Y-112749000D01*
X139069085Y-112823975D01*
G37*
G36*
X142648938Y-114418716D02*
G01*
X142669557Y-114424971D01*
X142688553Y-114435124D01*
X142705208Y-114448792D01*
X142718876Y-114465447D01*
X142729029Y-114484443D01*
X142735284Y-114505062D01*
X142738000Y-114532640D01*
X142738000Y-114991360D01*
X142735284Y-115018938D01*
X142729029Y-115039557D01*
X142718876Y-115058553D01*
X142705208Y-115075208D01*
X142688553Y-115088876D01*
X142669557Y-115099029D01*
X142648938Y-115105284D01*
X142621360Y-115108000D01*
X142112640Y-115108000D01*
X142085062Y-115105284D01*
X142064443Y-115099029D01*
X142045447Y-115088876D01*
X142028792Y-115075208D01*
X142015124Y-115058553D01*
X142004971Y-115039557D01*
X141998716Y-115018938D01*
X141996000Y-114991360D01*
X141996000Y-114532640D01*
X141998716Y-114505062D01*
X142004971Y-114484443D01*
X142015124Y-114465447D01*
X142028792Y-114448792D01*
X142045447Y-114435124D01*
X142064443Y-114424971D01*
X142085062Y-114418716D01*
X142112640Y-114416000D01*
X142621360Y-114416000D01*
X142648938Y-114418716D01*
G37*
G36*
X142648938Y-113448716D02*
G01*
X142669557Y-113454971D01*
X142688553Y-113465124D01*
X142705208Y-113478792D01*
X142718876Y-113495447D01*
X142729029Y-113514443D01*
X142735284Y-113535062D01*
X142738000Y-113562640D01*
X142738000Y-114021360D01*
X142735284Y-114048938D01*
X142729029Y-114069557D01*
X142718876Y-114088553D01*
X142705208Y-114105208D01*
X142688553Y-114118876D01*
X142669557Y-114129029D01*
X142648938Y-114135284D01*
X142621360Y-114138000D01*
X142112640Y-114138000D01*
X142085062Y-114135284D01*
X142064443Y-114129029D01*
X142045447Y-114118876D01*
X142028792Y-114105208D01*
X142015124Y-114088553D01*
X142004971Y-114069557D01*
X141998716Y-114048938D01*
X141996000Y-114021360D01*
X141996000Y-113562640D01*
X141998716Y-113535062D01*
X142004971Y-113514443D01*
X142015124Y-113495447D01*
X142028792Y-113478792D01*
X142045447Y-113465124D01*
X142064443Y-113454971D01*
X142085062Y-113448716D01*
X142112640Y-113446000D01*
X142621360Y-113446000D01*
X142648938Y-113448716D01*
G37*
G36*
X157485222Y-108280675D02*
G01*
X157585496Y-108322210D01*
X157585497Y-108322211D01*
X157675743Y-108382511D01*
X157752491Y-108459259D01*
X157753968Y-108461470D01*
X157812792Y-108549506D01*
X157854327Y-108649780D01*
X157875501Y-108756231D01*
X157875501Y-108864771D01*
X157854327Y-108971222D01*
X157812792Y-109071496D01*
X157812791Y-109071497D01*
X157752491Y-109161743D01*
X157675743Y-109238491D01*
X157668749Y-109243164D01*
X157585496Y-109298792D01*
X157510112Y-109330017D01*
X157488501Y-109341568D01*
X157469560Y-109357113D01*
X157454014Y-109376055D01*
X157442463Y-109397666D01*
X157435350Y-109421115D01*
X157432948Y-109445501D01*
X157435350Y-109469887D01*
X157442463Y-109493336D01*
X157454014Y-109514947D01*
X157469559Y-109533888D01*
X157488501Y-109549434D01*
X157510112Y-109560985D01*
X157585496Y-109592210D01*
X157585497Y-109592211D01*
X157675743Y-109652511D01*
X157752491Y-109729259D01*
X157761889Y-109743324D01*
X157812792Y-109819506D01*
X157854327Y-109919780D01*
X157875501Y-110026231D01*
X157875501Y-110134771D01*
X157854327Y-110241222D01*
X157812792Y-110341496D01*
X157798051Y-110363557D01*
X157752491Y-110431743D01*
X157675743Y-110508491D01*
X157630313Y-110538846D01*
X157585496Y-110568792D01*
X157510112Y-110600017D01*
X157488501Y-110611568D01*
X157469560Y-110627113D01*
X157454014Y-110646055D01*
X157442463Y-110667666D01*
X157435350Y-110691115D01*
X157432948Y-110715501D01*
X157435350Y-110739887D01*
X157442463Y-110763336D01*
X157454014Y-110784947D01*
X157469559Y-110803888D01*
X157488501Y-110819434D01*
X157510112Y-110830985D01*
X157585496Y-110862210D01*
X157599537Y-110871592D01*
X157675743Y-110922511D01*
X157752491Y-110999259D01*
X157767131Y-111021169D01*
X157812792Y-111089506D01*
X157854327Y-111189780D01*
X157875501Y-111296231D01*
X157875501Y-111404771D01*
X157854327Y-111511222D01*
X157812792Y-111611496D01*
X157812791Y-111611497D01*
X157752491Y-111701743D01*
X157675743Y-111778491D01*
X157648868Y-111796448D01*
X157585496Y-111838792D01*
X157510112Y-111870017D01*
X157488501Y-111881568D01*
X157469560Y-111897113D01*
X157454014Y-111916055D01*
X157442463Y-111937666D01*
X157435350Y-111961115D01*
X157432948Y-111985501D01*
X157435350Y-112009887D01*
X157442463Y-112033336D01*
X157454014Y-112054947D01*
X157469559Y-112073888D01*
X157488501Y-112089434D01*
X157510112Y-112100985D01*
X157585496Y-112132210D01*
X157613617Y-112151000D01*
X157675743Y-112192511D01*
X157752491Y-112269259D01*
X157766516Y-112290249D01*
X157812792Y-112359506D01*
X157854327Y-112459780D01*
X157875501Y-112566231D01*
X157875501Y-112674771D01*
X157854327Y-112781222D01*
X157812792Y-112881496D01*
X157807326Y-112889676D01*
X157752491Y-112971743D01*
X157675743Y-113048491D01*
X157630313Y-113078846D01*
X157585496Y-113108792D01*
X157485222Y-113150327D01*
X157378771Y-113171501D01*
X157270231Y-113171501D01*
X157163780Y-113150327D01*
X157063506Y-113108792D01*
X157018689Y-113078846D01*
X156973259Y-113048491D01*
X156896511Y-112971743D01*
X156841676Y-112889676D01*
X156836210Y-112881496D01*
X156794675Y-112781222D01*
X156773501Y-112674771D01*
X156773501Y-112566231D01*
X156794675Y-112459780D01*
X156836210Y-112359506D01*
X156882486Y-112290249D01*
X156896511Y-112269259D01*
X156973259Y-112192511D01*
X157035385Y-112151000D01*
X157063506Y-112132210D01*
X157138890Y-112100985D01*
X157160501Y-112089434D01*
X157179442Y-112073889D01*
X157194988Y-112054947D01*
X157206539Y-112033336D01*
X157213652Y-112009887D01*
X157216054Y-111985501D01*
X157213652Y-111961115D01*
X157206539Y-111937666D01*
X157194988Y-111916055D01*
X157179443Y-111897114D01*
X157160501Y-111881568D01*
X157138890Y-111870017D01*
X157063506Y-111838792D01*
X157000134Y-111796448D01*
X156973259Y-111778491D01*
X156896511Y-111701743D01*
X156836211Y-111611497D01*
X156836210Y-111611496D01*
X156794675Y-111511222D01*
X156773501Y-111404771D01*
X156773501Y-111296231D01*
X156794675Y-111189780D01*
X156836210Y-111089506D01*
X156881871Y-111021169D01*
X156896511Y-110999259D01*
X156973259Y-110922511D01*
X157049465Y-110871592D01*
X157063506Y-110862210D01*
X157138890Y-110830985D01*
X157160501Y-110819434D01*
X157179442Y-110803889D01*
X157194988Y-110784947D01*
X157206539Y-110763336D01*
X157213652Y-110739887D01*
X157216054Y-110715501D01*
X157213652Y-110691115D01*
X157206539Y-110667666D01*
X157194988Y-110646055D01*
X157179443Y-110627114D01*
X157160501Y-110611568D01*
X157138890Y-110600017D01*
X157063506Y-110568792D01*
X157018689Y-110538846D01*
X156973259Y-110508491D01*
X156896511Y-110431743D01*
X156850951Y-110363557D01*
X156836210Y-110341496D01*
X156794675Y-110241222D01*
X156773501Y-110134771D01*
X156773501Y-110026231D01*
X156794675Y-109919780D01*
X156836210Y-109819506D01*
X156887113Y-109743324D01*
X156896511Y-109729259D01*
X156973259Y-109652511D01*
X157063505Y-109592211D01*
X157063506Y-109592210D01*
X157138890Y-109560985D01*
X157160501Y-109549434D01*
X157179442Y-109533889D01*
X157194988Y-109514947D01*
X157206539Y-109493336D01*
X157213652Y-109469887D01*
X157216054Y-109445501D01*
X157213652Y-109421115D01*
X157206539Y-109397666D01*
X157194988Y-109376055D01*
X157179443Y-109357114D01*
X157160501Y-109341568D01*
X157138890Y-109330017D01*
X157063506Y-109298792D01*
X156980253Y-109243164D01*
X156973259Y-109238491D01*
X156896511Y-109161743D01*
X156836211Y-109071497D01*
X156836210Y-109071496D01*
X156794675Y-108971222D01*
X156773501Y-108864771D01*
X156773501Y-108756231D01*
X156794675Y-108649780D01*
X156836210Y-108549506D01*
X156895034Y-108461470D01*
X156896511Y-108459259D01*
X156973259Y-108382511D01*
X157063505Y-108322211D01*
X157063506Y-108322210D01*
X157163780Y-108280675D01*
X157270231Y-108259501D01*
X157378771Y-108259501D01*
X157485222Y-108280675D01*
G37*
G36*
X155704938Y-112153716D02*
G01*
X155725557Y-112159971D01*
X155744553Y-112170124D01*
X155761208Y-112183792D01*
X155774876Y-112200447D01*
X155785029Y-112219443D01*
X155791284Y-112240062D01*
X155794000Y-112267640D01*
X155794000Y-112776360D01*
X155791284Y-112803938D01*
X155785029Y-112824557D01*
X155774876Y-112843553D01*
X155761208Y-112860208D01*
X155744553Y-112873876D01*
X155725557Y-112884029D01*
X155704938Y-112890284D01*
X155677360Y-112893000D01*
X155218640Y-112893000D01*
X155191062Y-112890284D01*
X155170443Y-112884029D01*
X155151447Y-112873876D01*
X155134792Y-112860208D01*
X155121124Y-112843553D01*
X155110971Y-112824557D01*
X155104716Y-112803938D01*
X155102000Y-112776360D01*
X155102000Y-112267640D01*
X155104716Y-112240062D01*
X155110971Y-112219443D01*
X155121124Y-112200447D01*
X155134792Y-112183792D01*
X155151447Y-112170124D01*
X155170443Y-112159971D01*
X155191062Y-112153716D01*
X155218640Y-112151000D01*
X155677360Y-112151000D01*
X155704938Y-112153716D01*
G37*
G36*
X154734938Y-112153716D02*
G01*
X154755557Y-112159971D01*
X154774553Y-112170124D01*
X154791208Y-112183792D01*
X154804876Y-112200447D01*
X154815029Y-112219443D01*
X154821284Y-112240062D01*
X154824000Y-112267640D01*
X154824000Y-112776360D01*
X154821284Y-112803938D01*
X154815029Y-112824557D01*
X154804876Y-112843553D01*
X154791208Y-112860208D01*
X154774553Y-112873876D01*
X154755557Y-112884029D01*
X154734938Y-112890284D01*
X154707360Y-112893000D01*
X154248640Y-112893000D01*
X154221062Y-112890284D01*
X154200443Y-112884029D01*
X154181447Y-112873876D01*
X154164792Y-112860208D01*
X154151124Y-112843553D01*
X154140971Y-112824557D01*
X154134716Y-112803938D01*
X154132000Y-112776360D01*
X154132000Y-112267640D01*
X154134716Y-112240062D01*
X154140971Y-112219443D01*
X154151124Y-112200447D01*
X154164792Y-112183792D01*
X154181447Y-112170124D01*
X154200443Y-112159971D01*
X154221062Y-112153716D01*
X154248640Y-112151000D01*
X154707360Y-112151000D01*
X154734938Y-112153716D01*
G37*
G36*
X152173938Y-112155716D02*
G01*
X152194557Y-112161971D01*
X152213553Y-112172124D01*
X152230208Y-112185792D01*
X152243876Y-112202447D01*
X152254029Y-112221443D01*
X152260284Y-112242062D01*
X152263000Y-112269640D01*
X152263000Y-112728360D01*
X152260284Y-112755938D01*
X152254029Y-112776557D01*
X152243876Y-112795553D01*
X152230208Y-112812208D01*
X152213553Y-112825876D01*
X152194557Y-112836029D01*
X152173938Y-112842284D01*
X152146360Y-112845000D01*
X151637640Y-112845000D01*
X151610062Y-112842284D01*
X151589443Y-112836029D01*
X151570447Y-112825876D01*
X151553792Y-112812208D01*
X151540124Y-112795553D01*
X151529971Y-112776557D01*
X151523716Y-112755938D01*
X151521000Y-112728360D01*
X151521000Y-112269640D01*
X151523716Y-112242062D01*
X151529971Y-112221443D01*
X151540124Y-112202447D01*
X151553792Y-112185792D01*
X151570447Y-112172124D01*
X151589443Y-112161971D01*
X151610062Y-112155716D01*
X151637640Y-112153000D01*
X152146360Y-112153000D01*
X152173938Y-112155716D01*
G37*
G36*
X136181091Y-110857085D02*
G01*
X136215069Y-110867393D01*
X136246390Y-110884134D01*
X136273839Y-110906661D01*
X136296366Y-110934110D01*
X136313107Y-110965431D01*
X136323415Y-110999409D01*
X136327500Y-111040890D01*
X136327500Y-111717110D01*
X136323415Y-111758591D01*
X136313107Y-111792569D01*
X136296366Y-111823890D01*
X136273839Y-111851339D01*
X136246390Y-111873866D01*
X136215069Y-111890607D01*
X136181091Y-111900915D01*
X136139610Y-111905000D01*
X135538390Y-111905000D01*
X135496909Y-111900915D01*
X135462931Y-111890607D01*
X135431610Y-111873866D01*
X135404161Y-111851339D01*
X135381634Y-111823890D01*
X135364893Y-111792569D01*
X135354585Y-111758591D01*
X135350500Y-111717110D01*
X135350500Y-111040890D01*
X135354585Y-110999409D01*
X135364893Y-110965431D01*
X135381634Y-110934110D01*
X135404161Y-110906661D01*
X135431610Y-110884134D01*
X135462931Y-110867393D01*
X135496909Y-110857085D01*
X135538390Y-110853000D01*
X136139610Y-110853000D01*
X136181091Y-110857085D01*
G37*
G36*
X137756091Y-110857085D02*
G01*
X137790069Y-110867393D01*
X137821390Y-110884134D01*
X137848839Y-110906661D01*
X137871366Y-110934110D01*
X137888107Y-110965431D01*
X137898415Y-110999409D01*
X137902500Y-111040890D01*
X137902500Y-111717110D01*
X137898415Y-111758591D01*
X137888107Y-111792569D01*
X137871366Y-111823890D01*
X137848839Y-111851339D01*
X137821390Y-111873866D01*
X137790069Y-111890607D01*
X137756091Y-111900915D01*
X137714610Y-111905000D01*
X137113390Y-111905000D01*
X137071909Y-111900915D01*
X137037931Y-111890607D01*
X137006610Y-111873866D01*
X136979161Y-111851339D01*
X136956634Y-111823890D01*
X136939893Y-111792569D01*
X136929585Y-111758591D01*
X136925500Y-111717110D01*
X136925500Y-111040890D01*
X136929585Y-110999409D01*
X136939893Y-110965431D01*
X136956634Y-110934110D01*
X136979161Y-110906661D01*
X137006610Y-110884134D01*
X137037931Y-110867393D01*
X137071909Y-110857085D01*
X137113390Y-110853000D01*
X137714610Y-110853000D01*
X137756091Y-110857085D01*
G37*
G36*
X152173938Y-111185716D02*
G01*
X152194557Y-111191971D01*
X152213553Y-111202124D01*
X152230208Y-111215792D01*
X152243876Y-111232447D01*
X152254029Y-111251443D01*
X152260284Y-111272062D01*
X152263000Y-111299640D01*
X152263000Y-111758360D01*
X152260284Y-111785938D01*
X152254029Y-111806557D01*
X152243876Y-111825553D01*
X152230208Y-111842208D01*
X152213553Y-111855876D01*
X152194557Y-111866029D01*
X152173938Y-111872284D01*
X152146360Y-111875000D01*
X151637640Y-111875000D01*
X151610062Y-111872284D01*
X151589443Y-111866029D01*
X151570447Y-111855876D01*
X151553792Y-111842208D01*
X151540124Y-111825553D01*
X151529971Y-111806557D01*
X151523716Y-111785938D01*
X151521000Y-111758360D01*
X151521000Y-111299640D01*
X151523716Y-111272062D01*
X151529971Y-111251443D01*
X151540124Y-111232447D01*
X151553792Y-111215792D01*
X151570447Y-111202124D01*
X151589443Y-111191971D01*
X151610062Y-111185716D01*
X151637640Y-111183000D01*
X152146360Y-111183000D01*
X152173938Y-111185716D01*
G37*
G36*
X139471938Y-111010716D02*
G01*
X139492557Y-111016971D01*
X139511553Y-111027124D01*
X139528208Y-111040792D01*
X139541876Y-111057447D01*
X139552029Y-111076443D01*
X139558284Y-111097062D01*
X139561000Y-111124640D01*
X139561000Y-111633360D01*
X139558284Y-111660938D01*
X139552029Y-111681557D01*
X139541876Y-111700553D01*
X139528208Y-111717208D01*
X139511553Y-111730876D01*
X139492557Y-111741029D01*
X139471938Y-111747284D01*
X139444360Y-111750000D01*
X138985640Y-111750000D01*
X138958062Y-111747284D01*
X138937443Y-111741029D01*
X138918447Y-111730876D01*
X138901792Y-111717208D01*
X138888124Y-111700553D01*
X138877971Y-111681557D01*
X138871716Y-111660938D01*
X138869000Y-111633360D01*
X138869000Y-111124640D01*
X138871716Y-111097062D01*
X138877971Y-111076443D01*
X138888124Y-111057447D01*
X138901792Y-111040792D01*
X138918447Y-111027124D01*
X138937443Y-111016971D01*
X138958062Y-111010716D01*
X138985640Y-111008000D01*
X139444360Y-111008000D01*
X139471938Y-111010716D01*
G37*
G36*
X140441938Y-111010716D02*
G01*
X140462557Y-111016971D01*
X140481553Y-111027124D01*
X140498208Y-111040792D01*
X140511876Y-111057447D01*
X140522029Y-111076443D01*
X140528284Y-111097062D01*
X140531000Y-111124640D01*
X140531000Y-111633360D01*
X140528284Y-111660938D01*
X140522029Y-111681557D01*
X140511876Y-111700553D01*
X140498208Y-111717208D01*
X140481553Y-111730876D01*
X140462557Y-111741029D01*
X140441938Y-111747284D01*
X140414360Y-111750000D01*
X139955640Y-111750000D01*
X139928062Y-111747284D01*
X139907443Y-111741029D01*
X139888447Y-111730876D01*
X139871792Y-111717208D01*
X139858124Y-111700553D01*
X139847971Y-111681557D01*
X139841716Y-111660938D01*
X139839000Y-111633360D01*
X139839000Y-111124640D01*
X139841716Y-111097062D01*
X139847971Y-111076443D01*
X139858124Y-111057447D01*
X139871792Y-111040792D01*
X139888447Y-111027124D01*
X139907443Y-111016971D01*
X139928062Y-111010716D01*
X139955640Y-111008000D01*
X140414360Y-111008000D01*
X140441938Y-111010716D01*
G37*
G36*
X154734938Y-111010716D02*
G01*
X154755557Y-111016971D01*
X154774553Y-111027124D01*
X154791208Y-111040792D01*
X154804876Y-111057447D01*
X154815029Y-111076443D01*
X154821284Y-111097062D01*
X154824000Y-111124640D01*
X154824000Y-111633360D01*
X154821284Y-111660938D01*
X154815029Y-111681557D01*
X154804876Y-111700553D01*
X154791208Y-111717208D01*
X154774553Y-111730876D01*
X154755557Y-111741029D01*
X154734938Y-111747284D01*
X154707360Y-111750000D01*
X154248640Y-111750000D01*
X154221062Y-111747284D01*
X154200443Y-111741029D01*
X154181447Y-111730876D01*
X154164792Y-111717208D01*
X154151124Y-111700553D01*
X154140971Y-111681557D01*
X154134716Y-111660938D01*
X154132000Y-111633360D01*
X154132000Y-111124640D01*
X154134716Y-111097062D01*
X154140971Y-111076443D01*
X154151124Y-111057447D01*
X154164792Y-111040792D01*
X154181447Y-111027124D01*
X154200443Y-111016971D01*
X154221062Y-111010716D01*
X154248640Y-111008000D01*
X154707360Y-111008000D01*
X154734938Y-111010716D01*
G37*
G36*
X155704938Y-111010716D02*
G01*
X155725557Y-111016971D01*
X155744553Y-111027124D01*
X155761208Y-111040792D01*
X155774876Y-111057447D01*
X155785029Y-111076443D01*
X155791284Y-111097062D01*
X155794000Y-111124640D01*
X155794000Y-111633360D01*
X155791284Y-111660938D01*
X155785029Y-111681557D01*
X155774876Y-111700553D01*
X155761208Y-111717208D01*
X155744553Y-111730876D01*
X155725557Y-111741029D01*
X155704938Y-111747284D01*
X155677360Y-111750000D01*
X155218640Y-111750000D01*
X155191062Y-111747284D01*
X155170443Y-111741029D01*
X155151447Y-111730876D01*
X155134792Y-111717208D01*
X155121124Y-111700553D01*
X155110971Y-111681557D01*
X155104716Y-111660938D01*
X155102000Y-111633360D01*
X155102000Y-111124640D01*
X155104716Y-111097062D01*
X155110971Y-111076443D01*
X155121124Y-111057447D01*
X155134792Y-111040792D01*
X155151447Y-111027124D01*
X155170443Y-111016971D01*
X155191062Y-111010716D01*
X155218640Y-111008000D01*
X155677360Y-111008000D01*
X155704938Y-111010716D01*
G37*
G36*
X144045938Y-109742716D02*
G01*
X144066557Y-109748971D01*
X144085553Y-109759124D01*
X144102208Y-109772792D01*
X144115876Y-109789447D01*
X144126029Y-109808443D01*
X144132284Y-109829062D01*
X144135000Y-109856640D01*
X144135000Y-110315360D01*
X144132284Y-110342938D01*
X144126029Y-110363557D01*
X144115876Y-110382553D01*
X144102208Y-110399208D01*
X144085553Y-110412876D01*
X144066557Y-110423029D01*
X144045938Y-110429284D01*
X144018360Y-110432000D01*
X143509640Y-110432000D01*
X143482062Y-110429284D01*
X143461443Y-110423029D01*
X143442447Y-110412876D01*
X143425792Y-110399208D01*
X143412124Y-110382553D01*
X143401971Y-110363557D01*
X143395716Y-110342938D01*
X143393000Y-110315360D01*
X143393000Y-109856640D01*
X143395716Y-109829062D01*
X143401971Y-109808443D01*
X143412124Y-109789447D01*
X143425792Y-109772792D01*
X143442447Y-109759124D01*
X143461443Y-109748971D01*
X143482062Y-109742716D01*
X143509640Y-109740000D01*
X144018360Y-109740000D01*
X144045938Y-109742716D01*
G37*
G36*
X136181091Y-109206085D02*
G01*
X136215069Y-109216393D01*
X136246390Y-109233134D01*
X136273839Y-109255661D01*
X136296366Y-109283110D01*
X136313107Y-109314431D01*
X136323415Y-109348409D01*
X136327500Y-109389890D01*
X136327500Y-110066110D01*
X136323415Y-110107591D01*
X136313107Y-110141569D01*
X136296366Y-110172890D01*
X136273839Y-110200339D01*
X136246390Y-110222866D01*
X136215069Y-110239607D01*
X136181091Y-110249915D01*
X136139610Y-110254000D01*
X135538390Y-110254000D01*
X135496909Y-110249915D01*
X135462931Y-110239607D01*
X135431610Y-110222866D01*
X135404161Y-110200339D01*
X135381634Y-110172890D01*
X135364893Y-110141569D01*
X135354585Y-110107591D01*
X135350500Y-110066110D01*
X135350500Y-109389890D01*
X135354585Y-109348409D01*
X135364893Y-109314431D01*
X135381634Y-109283110D01*
X135404161Y-109255661D01*
X135431610Y-109233134D01*
X135462931Y-109216393D01*
X135496909Y-109206085D01*
X135538390Y-109202000D01*
X136139610Y-109202000D01*
X136181091Y-109206085D01*
G37*
G36*
X137756091Y-109206085D02*
G01*
X137790069Y-109216393D01*
X137821390Y-109233134D01*
X137848839Y-109255661D01*
X137871366Y-109283110D01*
X137888107Y-109314431D01*
X137898415Y-109348409D01*
X137902500Y-109389890D01*
X137902500Y-110066110D01*
X137898415Y-110107591D01*
X137888107Y-110141569D01*
X137871366Y-110172890D01*
X137848839Y-110200339D01*
X137821390Y-110222866D01*
X137790069Y-110239607D01*
X137756091Y-110249915D01*
X137714610Y-110254000D01*
X137113390Y-110254000D01*
X137071909Y-110249915D01*
X137037931Y-110239607D01*
X137006610Y-110222866D01*
X136979161Y-110200339D01*
X136956634Y-110172890D01*
X136939893Y-110141569D01*
X136929585Y-110107591D01*
X136925500Y-110066110D01*
X136925500Y-109389890D01*
X136929585Y-109348409D01*
X136939893Y-109314431D01*
X136956634Y-109283110D01*
X136979161Y-109255661D01*
X137006610Y-109233134D01*
X137037931Y-109216393D01*
X137071909Y-109206085D01*
X137113390Y-109202000D01*
X137714610Y-109202000D01*
X137756091Y-109206085D01*
G37*
G36*
X140416438Y-109359716D02*
G01*
X140437057Y-109365971D01*
X140456053Y-109376124D01*
X140472708Y-109389792D01*
X140486376Y-109406447D01*
X140496529Y-109425443D01*
X140502784Y-109446062D01*
X140505500Y-109473640D01*
X140505500Y-109982360D01*
X140502784Y-110009938D01*
X140496529Y-110030557D01*
X140486376Y-110049553D01*
X140472708Y-110066208D01*
X140456053Y-110079876D01*
X140437057Y-110090029D01*
X140416438Y-110096284D01*
X140388860Y-110099000D01*
X139930140Y-110099000D01*
X139902562Y-110096284D01*
X139881943Y-110090029D01*
X139862947Y-110079876D01*
X139846292Y-110066208D01*
X139832624Y-110049553D01*
X139822471Y-110030557D01*
X139816216Y-110009938D01*
X139813500Y-109982360D01*
X139813500Y-109473640D01*
X139816216Y-109446062D01*
X139822471Y-109425443D01*
X139832624Y-109406447D01*
X139846292Y-109389792D01*
X139862947Y-109376124D01*
X139881943Y-109365971D01*
X139902562Y-109359716D01*
X139930140Y-109357000D01*
X140388860Y-109357000D01*
X140416438Y-109359716D01*
G37*
G36*
X139446438Y-109359716D02*
G01*
X139467057Y-109365971D01*
X139486053Y-109376124D01*
X139502708Y-109389792D01*
X139516376Y-109406447D01*
X139526529Y-109425443D01*
X139532784Y-109446062D01*
X139535500Y-109473640D01*
X139535500Y-109982360D01*
X139532784Y-110009938D01*
X139526529Y-110030557D01*
X139516376Y-110049553D01*
X139502708Y-110066208D01*
X139486053Y-110079876D01*
X139467057Y-110090029D01*
X139446438Y-110096284D01*
X139418860Y-110099000D01*
X138960140Y-110099000D01*
X138932562Y-110096284D01*
X138911943Y-110090029D01*
X138892947Y-110079876D01*
X138876292Y-110066208D01*
X138862624Y-110049553D01*
X138852471Y-110030557D01*
X138846216Y-110009938D01*
X138843500Y-109982360D01*
X138843500Y-109473640D01*
X138846216Y-109446062D01*
X138852471Y-109425443D01*
X138862624Y-109406447D01*
X138876292Y-109389792D01*
X138892947Y-109376124D01*
X138911943Y-109365971D01*
X138932562Y-109359716D01*
X138960140Y-109357000D01*
X139418860Y-109357000D01*
X139446438Y-109359716D01*
G37*
G36*
X144045938Y-108772716D02*
G01*
X144066557Y-108778971D01*
X144085553Y-108789124D01*
X144102208Y-108802792D01*
X144115876Y-108819447D01*
X144126029Y-108838443D01*
X144132284Y-108859062D01*
X144135000Y-108886640D01*
X144135000Y-109345360D01*
X144132284Y-109372938D01*
X144126029Y-109393557D01*
X144115876Y-109412553D01*
X144102208Y-109429208D01*
X144085553Y-109442876D01*
X144066557Y-109453029D01*
X144045938Y-109459284D01*
X144018360Y-109462000D01*
X143509640Y-109462000D01*
X143482062Y-109459284D01*
X143461443Y-109453029D01*
X143442447Y-109442876D01*
X143425792Y-109429208D01*
X143412124Y-109412553D01*
X143401971Y-109393557D01*
X143395716Y-109372938D01*
X143393000Y-109345360D01*
X143393000Y-108886640D01*
X143395716Y-108859062D01*
X143401971Y-108838443D01*
X143412124Y-108819447D01*
X143425792Y-108802792D01*
X143442447Y-108789124D01*
X143461443Y-108778971D01*
X143482062Y-108772716D01*
X143509640Y-108770000D01*
X144018360Y-108770000D01*
X144045938Y-108772716D01*
G37*
G36*
X146093000Y-108079418D02*
G01*
X146095402Y-108103804D01*
X146102515Y-108127253D01*
X146114066Y-108148864D01*
X146129611Y-108167806D01*
X146148553Y-108183351D01*
X146170164Y-108194902D01*
X146193613Y-108202015D01*
X146217999Y-108204417D01*
X146242385Y-108202015D01*
X146265834Y-108194902D01*
X146287445Y-108183351D01*
X146306387Y-108167806D01*
X146321932Y-108148864D01*
X146384009Y-108055960D01*
X146384010Y-108055958D01*
X146460758Y-107979210D01*
X146551004Y-107918910D01*
X146551005Y-107918909D01*
X146651279Y-107877374D01*
X146757730Y-107856200D01*
X146866270Y-107856200D01*
X146972721Y-107877374D01*
X147072995Y-107918909D01*
X147072996Y-107918910D01*
X147163242Y-107979210D01*
X147239990Y-108055958D01*
X147239991Y-108055960D01*
X147300291Y-108146205D01*
X147331516Y-108221589D01*
X147343067Y-108243200D01*
X147358612Y-108262141D01*
X147377554Y-108277687D01*
X147399165Y-108289238D01*
X147422614Y-108296351D01*
X147447000Y-108298753D01*
X147471386Y-108296351D01*
X147494835Y-108289238D01*
X147516446Y-108277687D01*
X147535387Y-108262142D01*
X147550933Y-108243200D01*
X147562484Y-108221589D01*
X147593709Y-108146205D01*
X147654009Y-108055960D01*
X147654010Y-108055958D01*
X147730758Y-107979210D01*
X147821004Y-107918910D01*
X147821005Y-107918909D01*
X147921279Y-107877374D01*
X148027730Y-107856200D01*
X148136270Y-107856200D01*
X148242721Y-107877374D01*
X148342995Y-107918909D01*
X148342996Y-107918910D01*
X148433242Y-107979210D01*
X148509990Y-108055958D01*
X148509991Y-108055960D01*
X148570291Y-108146205D01*
X148601516Y-108221589D01*
X148613067Y-108243200D01*
X148628612Y-108262141D01*
X148647554Y-108277687D01*
X148669165Y-108289238D01*
X148692614Y-108296351D01*
X148717000Y-108298753D01*
X148741386Y-108296351D01*
X148764835Y-108289238D01*
X148786446Y-108277687D01*
X148805387Y-108262142D01*
X148820933Y-108243200D01*
X148832484Y-108221589D01*
X148863709Y-108146205D01*
X148924009Y-108055960D01*
X148924010Y-108055958D01*
X149000758Y-107979210D01*
X149091004Y-107918910D01*
X149091005Y-107918909D01*
X149191279Y-107877374D01*
X149297730Y-107856200D01*
X149406270Y-107856200D01*
X149512721Y-107877374D01*
X149612995Y-107918909D01*
X149612996Y-107918910D01*
X149703242Y-107979210D01*
X149779990Y-108055958D01*
X149779991Y-108055960D01*
X149840291Y-108146205D01*
X149871516Y-108221589D01*
X149883067Y-108243200D01*
X149898612Y-108262141D01*
X149917554Y-108277687D01*
X149939165Y-108289238D01*
X149962614Y-108296351D01*
X149987000Y-108298753D01*
X150011386Y-108296351D01*
X150034835Y-108289238D01*
X150056446Y-108277687D01*
X150075387Y-108262142D01*
X150090933Y-108243200D01*
X150102484Y-108221589D01*
X150133709Y-108146205D01*
X150194009Y-108055960D01*
X150194010Y-108055958D01*
X150270758Y-107979210D01*
X150361004Y-107918910D01*
X150361005Y-107918909D01*
X150461279Y-107877374D01*
X150567730Y-107856200D01*
X150676270Y-107856200D01*
X150782721Y-107877374D01*
X150882995Y-107918909D01*
X150882996Y-107918910D01*
X150973242Y-107979210D01*
X151049990Y-108055958D01*
X151049991Y-108055960D01*
X151110291Y-108146205D01*
X151151826Y-108246479D01*
X151173000Y-108352930D01*
X151173000Y-108461470D01*
X151151826Y-108567921D01*
X151110291Y-108668195D01*
X151110290Y-108668196D01*
X151049990Y-108758442D01*
X150973242Y-108835190D01*
X150937515Y-108859062D01*
X150882995Y-108895491D01*
X150782721Y-108937026D01*
X150676270Y-108958200D01*
X150567730Y-108958200D01*
X150461279Y-108937026D01*
X150361005Y-108895491D01*
X150306485Y-108859062D01*
X150270758Y-108835190D01*
X150194010Y-108758442D01*
X150133710Y-108668196D01*
X150133709Y-108668195D01*
X150102484Y-108592811D01*
X150090933Y-108571200D01*
X150075388Y-108552259D01*
X150056446Y-108536713D01*
X150034835Y-108525162D01*
X150011386Y-108518049D01*
X149987000Y-108515647D01*
X149962614Y-108518049D01*
X149939165Y-108525162D01*
X149917554Y-108536713D01*
X149898613Y-108552258D01*
X149883067Y-108571200D01*
X149871516Y-108592811D01*
X149840291Y-108668195D01*
X149840290Y-108668196D01*
X149779990Y-108758442D01*
X149703242Y-108835190D01*
X149667515Y-108859062D01*
X149612995Y-108895491D01*
X149512721Y-108937026D01*
X149406270Y-108958200D01*
X149297730Y-108958200D01*
X149191279Y-108937026D01*
X149091005Y-108895491D01*
X149036485Y-108859062D01*
X149000758Y-108835190D01*
X148924010Y-108758442D01*
X148863710Y-108668196D01*
X148863709Y-108668195D01*
X148832484Y-108592811D01*
X148820933Y-108571200D01*
X148805388Y-108552259D01*
X148786446Y-108536713D01*
X148764835Y-108525162D01*
X148741386Y-108518049D01*
X148717000Y-108515647D01*
X148692614Y-108518049D01*
X148669165Y-108525162D01*
X148647554Y-108536713D01*
X148628613Y-108552258D01*
X148613067Y-108571200D01*
X148601516Y-108592811D01*
X148570291Y-108668195D01*
X148570290Y-108668196D01*
X148509990Y-108758442D01*
X148433242Y-108835190D01*
X148397515Y-108859062D01*
X148342995Y-108895491D01*
X148242721Y-108937026D01*
X148136270Y-108958200D01*
X148027730Y-108958200D01*
X147921279Y-108937026D01*
X147821005Y-108895491D01*
X147766485Y-108859062D01*
X147730758Y-108835190D01*
X147654010Y-108758442D01*
X147593710Y-108668196D01*
X147593709Y-108668195D01*
X147562484Y-108592811D01*
X147550933Y-108571200D01*
X147535388Y-108552259D01*
X147516446Y-108536713D01*
X147494835Y-108525162D01*
X147471386Y-108518049D01*
X147447000Y-108515647D01*
X147422614Y-108518049D01*
X147399165Y-108525162D01*
X147377554Y-108536713D01*
X147358613Y-108552258D01*
X147343067Y-108571200D01*
X147331516Y-108592811D01*
X147300291Y-108668195D01*
X147300290Y-108668196D01*
X147239990Y-108758442D01*
X147163242Y-108835190D01*
X147127515Y-108859062D01*
X147072995Y-108895491D01*
X146972721Y-108937026D01*
X146866270Y-108958200D01*
X146757730Y-108958200D01*
X146651279Y-108937026D01*
X146551005Y-108895491D01*
X146496485Y-108859062D01*
X146460758Y-108835190D01*
X146384010Y-108758442D01*
X146363012Y-108727016D01*
X146321932Y-108665536D01*
X146306386Y-108646594D01*
X146287444Y-108631049D01*
X146265833Y-108619498D01*
X146242385Y-108612385D01*
X146217998Y-108609983D01*
X146193612Y-108612385D01*
X146170163Y-108619498D01*
X146148553Y-108631049D01*
X146129611Y-108646595D01*
X146114066Y-108665537D01*
X146102515Y-108687148D01*
X146095402Y-108710596D01*
X146093000Y-108734982D01*
X146093000Y-108958200D01*
X144991000Y-108958200D01*
X144991000Y-107856200D01*
X146093000Y-107856200D01*
X146093000Y-108079418D01*
G37*
G36*
X155069085Y-104823975D02*
G01*
X155424143Y-104971045D01*
X155424145Y-104971046D01*
X155743690Y-105184559D01*
X156015441Y-105456310D01*
X156189610Y-105716973D01*
X156228955Y-105775857D01*
X156376025Y-106130915D01*
X156451000Y-106507842D01*
X156451000Y-106892158D01*
X156376025Y-107269085D01*
X156228955Y-107624143D01*
X156228954Y-107624145D01*
X156015441Y-107943690D01*
X155743690Y-108215441D01*
X155424145Y-108428954D01*
X155424144Y-108428955D01*
X155424143Y-108428955D01*
X155069085Y-108576025D01*
X154692158Y-108651000D01*
X154307842Y-108651000D01*
X153930915Y-108576025D01*
X153575857Y-108428955D01*
X153575856Y-108428955D01*
X153575855Y-108428954D01*
X153256310Y-108215441D01*
X152984559Y-107943690D01*
X152771046Y-107624145D01*
X152771045Y-107624143D01*
X152623975Y-107269085D01*
X152549000Y-106892158D01*
X152549000Y-106507842D01*
X152623975Y-106130915D01*
X152771045Y-105775857D01*
X152810390Y-105716973D01*
X152984559Y-105456310D01*
X153256310Y-105184559D01*
X153575855Y-104971046D01*
X153575857Y-104971045D01*
X153930915Y-104823975D01*
X154307842Y-104749000D01*
X154692158Y-104749000D01*
X155069085Y-104823975D01*
G37*
G36*
X141033617Y-104493420D02*
G01*
X141114399Y-104517925D01*
X141156335Y-104530646D01*
X141269424Y-104591094D01*
X141368554Y-104672447D01*
X141449906Y-104771575D01*
X141510354Y-104884664D01*
X141520040Y-104916596D01*
X141547580Y-105007382D01*
X141557000Y-105103027D01*
X141557000Y-105716973D01*
X141547580Y-105812618D01*
X141520040Y-105903404D01*
X141510354Y-105935336D01*
X141449906Y-106048425D01*
X141368554Y-106147554D01*
X141269425Y-106228906D01*
X141156336Y-106289354D01*
X141124404Y-106299040D01*
X141033618Y-106326580D01*
X140906000Y-106339149D01*
X140778383Y-106326580D01*
X140687597Y-106299040D01*
X140655665Y-106289354D01*
X140542576Y-106228906D01*
X140443447Y-106147554D01*
X140362096Y-106048427D01*
X140362095Y-106048425D01*
X140301647Y-105935336D01*
X140301645Y-105935333D01*
X140289237Y-105894427D01*
X140264420Y-105812618D01*
X140255000Y-105716973D01*
X140255000Y-105103028D01*
X140264420Y-105007383D01*
X140301645Y-104884669D01*
X140301646Y-104884665D01*
X140362094Y-104771576D01*
X140443447Y-104672446D01*
X140542575Y-104591094D01*
X140655664Y-104530646D01*
X140697600Y-104517925D01*
X140778382Y-104493420D01*
X140906000Y-104480851D01*
X141033617Y-104493420D01*
G37*
G36*
X139033617Y-104493420D02*
G01*
X139114399Y-104517925D01*
X139156335Y-104530646D01*
X139269424Y-104591094D01*
X139368554Y-104672447D01*
X139449906Y-104771575D01*
X139510354Y-104884664D01*
X139520040Y-104916596D01*
X139547580Y-105007382D01*
X139557000Y-105103027D01*
X139557000Y-105716973D01*
X139547580Y-105812618D01*
X139520040Y-105903404D01*
X139510354Y-105935336D01*
X139449906Y-106048425D01*
X139368554Y-106147554D01*
X139269425Y-106228906D01*
X139156336Y-106289354D01*
X139124404Y-106299040D01*
X139033618Y-106326580D01*
X138906000Y-106339149D01*
X138778383Y-106326580D01*
X138687597Y-106299040D01*
X138655665Y-106289354D01*
X138542576Y-106228906D01*
X138443447Y-106147554D01*
X138362096Y-106048427D01*
X138362095Y-106048425D01*
X138301647Y-105935336D01*
X138301645Y-105935333D01*
X138289237Y-105894427D01*
X138264420Y-105812618D01*
X138255000Y-105716973D01*
X138255000Y-105103028D01*
X138264420Y-105007383D01*
X138301645Y-104884669D01*
X138301646Y-104884665D01*
X138362094Y-104771576D01*
X138443447Y-104672446D01*
X138542575Y-104591094D01*
X138655664Y-104530646D01*
X138697600Y-104517925D01*
X138778382Y-104493420D01*
X138906000Y-104480851D01*
X139033617Y-104493420D01*
G37*
G36*
X150050617Y-104493420D02*
G01*
X150131399Y-104517925D01*
X150173335Y-104530646D01*
X150286424Y-104591094D01*
X150385554Y-104672447D01*
X150466906Y-104771575D01*
X150527354Y-104884664D01*
X150537040Y-104916596D01*
X150564580Y-105007382D01*
X150574000Y-105103027D01*
X150574000Y-105716973D01*
X150564580Y-105812618D01*
X150537040Y-105903404D01*
X150527354Y-105935336D01*
X150466906Y-106048425D01*
X150385554Y-106147554D01*
X150286425Y-106228906D01*
X150173336Y-106289354D01*
X150141404Y-106299040D01*
X150050618Y-106326580D01*
X149923000Y-106339149D01*
X149795383Y-106326580D01*
X149704597Y-106299040D01*
X149672665Y-106289354D01*
X149559576Y-106228906D01*
X149460447Y-106147554D01*
X149379096Y-106048427D01*
X149379095Y-106048425D01*
X149318647Y-105935336D01*
X149318645Y-105935333D01*
X149306237Y-105894427D01*
X149281420Y-105812618D01*
X149272000Y-105716973D01*
X149272000Y-105103028D01*
X149281420Y-105007383D01*
X149318645Y-104884669D01*
X149318646Y-104884665D01*
X149379094Y-104771576D01*
X149460447Y-104672446D01*
X149559575Y-104591094D01*
X149672664Y-104530646D01*
X149714600Y-104517925D01*
X149795382Y-104493420D01*
X149923000Y-104480851D01*
X150050617Y-104493420D01*
G37*
G36*
X148050617Y-104493420D02*
G01*
X148131399Y-104517925D01*
X148173335Y-104530646D01*
X148286424Y-104591094D01*
X148385554Y-104672447D01*
X148466906Y-104771575D01*
X148527354Y-104884664D01*
X148537040Y-104916596D01*
X148564580Y-105007382D01*
X148574000Y-105103027D01*
X148574000Y-105716973D01*
X148564580Y-105812618D01*
X148537040Y-105903404D01*
X148527354Y-105935336D01*
X148466906Y-106048425D01*
X148385554Y-106147554D01*
X148286425Y-106228906D01*
X148173336Y-106289354D01*
X148141404Y-106299040D01*
X148050618Y-106326580D01*
X147923000Y-106339149D01*
X147795383Y-106326580D01*
X147704597Y-106299040D01*
X147672665Y-106289354D01*
X147559576Y-106228906D01*
X147460447Y-106147554D01*
X147379096Y-106048427D01*
X147379095Y-106048425D01*
X147318647Y-105935336D01*
X147318645Y-105935333D01*
X147306237Y-105894427D01*
X147281420Y-105812618D01*
X147272000Y-105716973D01*
X147272000Y-105103028D01*
X147281420Y-105007383D01*
X147318645Y-104884669D01*
X147318646Y-104884665D01*
X147379094Y-104771576D01*
X147460447Y-104672446D01*
X147559575Y-104591094D01*
X147672664Y-104530646D01*
X147714600Y-104517925D01*
X147795382Y-104493420D01*
X147923000Y-104480851D01*
X148050617Y-104493420D01*
G37*
G36*
X146414242Y-104488404D02*
G01*
X146451337Y-104499657D01*
X146485515Y-104517925D01*
X146515481Y-104542519D01*
X146540075Y-104572485D01*
X146558343Y-104606663D01*
X146569596Y-104643758D01*
X146574000Y-104688474D01*
X146574000Y-106131526D01*
X146569596Y-106176242D01*
X146558343Y-106213337D01*
X146540075Y-106247515D01*
X146515481Y-106277481D01*
X146485515Y-106302075D01*
X146451337Y-106320343D01*
X146414242Y-106331596D01*
X146369526Y-106336000D01*
X145476474Y-106336000D01*
X145431758Y-106331596D01*
X145394663Y-106320343D01*
X145360485Y-106302075D01*
X145330519Y-106277481D01*
X145305925Y-106247515D01*
X145287657Y-106213337D01*
X145276404Y-106176242D01*
X145272000Y-106131526D01*
X145272000Y-104688474D01*
X145276404Y-104643758D01*
X145287657Y-104606663D01*
X145305925Y-104572485D01*
X145330519Y-104542519D01*
X145360485Y-104517925D01*
X145394663Y-104499657D01*
X145431758Y-104488404D01*
X145476474Y-104484000D01*
X146369526Y-104484000D01*
X146414242Y-104488404D01*
G37*
G36*
X137397242Y-104488404D02*
G01*
X137434337Y-104499657D01*
X137468515Y-104517925D01*
X137498481Y-104542519D01*
X137523075Y-104572485D01*
X137541343Y-104606663D01*
X137552596Y-104643758D01*
X137557000Y-104688474D01*
X137557000Y-106131526D01*
X137552596Y-106176242D01*
X137541343Y-106213337D01*
X137523075Y-106247515D01*
X137498481Y-106277481D01*
X137468515Y-106302075D01*
X137434337Y-106320343D01*
X137397242Y-106331596D01*
X137352526Y-106336000D01*
X136459474Y-106336000D01*
X136414758Y-106331596D01*
X136377663Y-106320343D01*
X136343485Y-106302075D01*
X136313519Y-106277481D01*
X136288925Y-106247515D01*
X136270657Y-106213337D01*
X136259404Y-106176242D01*
X136255000Y-106131526D01*
X136255000Y-104688474D01*
X136259404Y-104643758D01*
X136270657Y-104606663D01*
X136288925Y-104572485D01*
X136313519Y-104542519D01*
X136343485Y-104517925D01*
X136377663Y-104499657D01*
X136414758Y-104488404D01*
X136459474Y-104484000D01*
X137352526Y-104484000D01*
X137397242Y-104488404D01*
G37*
G36*
X141884000Y-103255000D02*
G01*
X140882000Y-103255000D01*
X140882000Y-102353000D01*
X141884000Y-102353000D01*
X141884000Y-103255000D01*
G37*
G36*
X151345191Y-102068685D02*
G01*
X151379169Y-102078993D01*
X151410490Y-102095734D01*
X151437939Y-102118261D01*
X151460466Y-102145710D01*
X151477207Y-102177031D01*
X151487515Y-102211009D01*
X151491600Y-102252490D01*
X151491600Y-102928710D01*
X151487515Y-102970191D01*
X151477207Y-103004169D01*
X151460466Y-103035490D01*
X151437939Y-103062939D01*
X151410490Y-103085466D01*
X151379169Y-103102207D01*
X151345191Y-103112515D01*
X151303710Y-103116600D01*
X150702490Y-103116600D01*
X150661009Y-103112515D01*
X150627031Y-103102207D01*
X150595710Y-103085466D01*
X150568261Y-103062939D01*
X150545734Y-103035490D01*
X150528993Y-103004169D01*
X150518685Y-102970191D01*
X150514600Y-102928710D01*
X150514600Y-102252490D01*
X150518685Y-102211009D01*
X150528993Y-102177031D01*
X150545734Y-102145710D01*
X150568261Y-102118261D01*
X150595710Y-102095734D01*
X150627031Y-102078993D01*
X150661009Y-102068685D01*
X150702490Y-102064600D01*
X151303710Y-102064600D01*
X151345191Y-102068685D01*
G37*
G36*
X149770191Y-102068685D02*
G01*
X149804169Y-102078993D01*
X149835490Y-102095734D01*
X149862939Y-102118261D01*
X149885466Y-102145710D01*
X149902207Y-102177031D01*
X149912515Y-102211009D01*
X149916600Y-102252490D01*
X149916600Y-102928710D01*
X149912515Y-102970191D01*
X149902207Y-103004169D01*
X149885466Y-103035490D01*
X149862939Y-103062939D01*
X149835490Y-103085466D01*
X149804169Y-103102207D01*
X149770191Y-103112515D01*
X149728710Y-103116600D01*
X149127490Y-103116600D01*
X149086009Y-103112515D01*
X149052031Y-103102207D01*
X149020710Y-103085466D01*
X148993261Y-103062939D01*
X148970734Y-103035490D01*
X148953993Y-103004169D01*
X148943685Y-102970191D01*
X148939600Y-102928710D01*
X148939600Y-102252490D01*
X148943685Y-102211009D01*
X148953993Y-102177031D01*
X148970734Y-102145710D01*
X148993261Y-102118261D01*
X149020710Y-102095734D01*
X149052031Y-102078993D01*
X149086009Y-102068685D01*
X149127490Y-102064600D01*
X149728710Y-102064600D01*
X149770191Y-102068685D01*
G37*
G36*
X153162538Y-102222316D02*
G01*
X153183157Y-102228571D01*
X153202153Y-102238724D01*
X153218808Y-102252392D01*
X153232476Y-102269047D01*
X153242629Y-102288043D01*
X153248884Y-102308662D01*
X153251600Y-102336240D01*
X153251600Y-102844960D01*
X153248884Y-102872538D01*
X153242629Y-102893157D01*
X153232476Y-102912153D01*
X153218808Y-102928808D01*
X153202153Y-102942476D01*
X153183157Y-102952629D01*
X153162538Y-102958884D01*
X153134960Y-102961600D01*
X152676240Y-102961600D01*
X152648662Y-102958884D01*
X152628043Y-102952629D01*
X152609047Y-102942476D01*
X152592392Y-102928808D01*
X152578724Y-102912153D01*
X152568571Y-102893157D01*
X152562316Y-102872538D01*
X152559600Y-102844960D01*
X152559600Y-102336240D01*
X152562316Y-102308662D01*
X152568571Y-102288043D01*
X152578724Y-102269047D01*
X152592392Y-102252392D01*
X152609047Y-102238724D01*
X152628043Y-102228571D01*
X152648662Y-102222316D01*
X152676240Y-102219600D01*
X153134960Y-102219600D01*
X153162538Y-102222316D01*
G37*
G36*
X154132538Y-102222316D02*
G01*
X154153157Y-102228571D01*
X154172153Y-102238724D01*
X154188808Y-102252392D01*
X154202476Y-102269047D01*
X154212629Y-102288043D01*
X154218884Y-102308662D01*
X154221600Y-102336240D01*
X154221600Y-102844960D01*
X154218884Y-102872538D01*
X154212629Y-102893157D01*
X154202476Y-102912153D01*
X154188808Y-102928808D01*
X154172153Y-102942476D01*
X154153157Y-102952629D01*
X154132538Y-102958884D01*
X154104960Y-102961600D01*
X153646240Y-102961600D01*
X153618662Y-102958884D01*
X153598043Y-102952629D01*
X153579047Y-102942476D01*
X153562392Y-102928808D01*
X153548724Y-102912153D01*
X153538571Y-102893157D01*
X153532316Y-102872538D01*
X153529600Y-102844960D01*
X153529600Y-102336240D01*
X153532316Y-102308662D01*
X153538571Y-102288043D01*
X153548724Y-102269047D01*
X153562392Y-102252392D01*
X153579047Y-102238724D01*
X153598043Y-102228571D01*
X153618662Y-102222316D01*
X153646240Y-102219600D01*
X154104960Y-102219600D01*
X154132538Y-102222316D01*
G37*
G36*
X139854938Y-101716216D02*
G01*
X139875557Y-101722471D01*
X139894553Y-101732624D01*
X139911208Y-101746292D01*
X139924876Y-101762947D01*
X139935029Y-101781943D01*
X139941284Y-101802562D01*
X139944000Y-101830140D01*
X139944000Y-102288860D01*
X139941284Y-102316438D01*
X139935029Y-102337057D01*
X139924876Y-102356053D01*
X139911208Y-102372708D01*
X139894553Y-102386376D01*
X139875557Y-102396529D01*
X139854938Y-102402784D01*
X139827360Y-102405500D01*
X139318640Y-102405500D01*
X139291062Y-102402784D01*
X139270443Y-102396529D01*
X139251447Y-102386376D01*
X139234792Y-102372708D01*
X139221124Y-102356053D01*
X139210971Y-102337057D01*
X139204716Y-102316438D01*
X139202000Y-102288860D01*
X139202000Y-101830140D01*
X139204716Y-101802562D01*
X139210971Y-101781943D01*
X139221124Y-101762947D01*
X139234792Y-101746292D01*
X139251447Y-101732624D01*
X139270443Y-101722471D01*
X139291062Y-101716216D01*
X139318640Y-101713500D01*
X139827360Y-101713500D01*
X139854938Y-101716216D01*
G37*
G36*
X145281938Y-101656716D02*
G01*
X145302557Y-101662971D01*
X145321553Y-101673124D01*
X145338208Y-101686792D01*
X145351876Y-101703447D01*
X145362029Y-101722443D01*
X145368284Y-101743062D01*
X145371000Y-101770640D01*
X145371000Y-102229360D01*
X145368284Y-102256938D01*
X145362029Y-102277557D01*
X145351876Y-102296553D01*
X145338208Y-102313208D01*
X145321553Y-102326876D01*
X145302557Y-102337029D01*
X145281938Y-102343284D01*
X145254360Y-102346000D01*
X144745640Y-102346000D01*
X144718062Y-102343284D01*
X144697443Y-102337029D01*
X144678447Y-102326876D01*
X144661792Y-102313208D01*
X144648124Y-102296553D01*
X144637971Y-102277557D01*
X144631716Y-102256938D01*
X144629000Y-102229360D01*
X144629000Y-101770640D01*
X144631716Y-101743062D01*
X144637971Y-101722443D01*
X144648124Y-101703447D01*
X144661792Y-101686792D01*
X144678447Y-101673124D01*
X144697443Y-101662971D01*
X144718062Y-101656716D01*
X144745640Y-101654000D01*
X145254360Y-101654000D01*
X145281938Y-101656716D01*
G37*
G36*
X146781938Y-101626716D02*
G01*
X146802557Y-101632971D01*
X146821553Y-101643124D01*
X146838208Y-101656792D01*
X146851876Y-101673447D01*
X146862029Y-101692443D01*
X146868284Y-101713062D01*
X146871000Y-101740640D01*
X146871000Y-102199360D01*
X146868284Y-102226938D01*
X146862029Y-102247557D01*
X146851876Y-102266553D01*
X146838208Y-102283208D01*
X146821553Y-102296876D01*
X146802557Y-102307029D01*
X146781938Y-102313284D01*
X146754360Y-102316000D01*
X146245640Y-102316000D01*
X146218062Y-102313284D01*
X146197443Y-102307029D01*
X146178447Y-102296876D01*
X146161792Y-102283208D01*
X146148124Y-102266553D01*
X146137971Y-102247557D01*
X146131716Y-102226938D01*
X146129000Y-102199360D01*
X146129000Y-101740640D01*
X146131716Y-101713062D01*
X146137971Y-101692443D01*
X146148124Y-101673447D01*
X146161792Y-101656792D01*
X146178447Y-101643124D01*
X146197443Y-101632971D01*
X146218062Y-101626716D01*
X146245640Y-101624000D01*
X146754360Y-101624000D01*
X146781938Y-101626716D01*
G37*
G36*
X143884000Y-102305000D02*
G01*
X142882000Y-102305000D01*
X142882000Y-101403000D01*
X143884000Y-101403000D01*
X143884000Y-102305000D01*
G37*
G36*
X139854938Y-100746216D02*
G01*
X139875557Y-100752471D01*
X139894553Y-100762624D01*
X139911208Y-100776292D01*
X139924876Y-100792947D01*
X139935029Y-100811943D01*
X139941284Y-100832562D01*
X139944000Y-100860140D01*
X139944000Y-101318860D01*
X139941284Y-101346438D01*
X139935029Y-101367057D01*
X139924876Y-101386053D01*
X139911208Y-101402708D01*
X139894553Y-101416376D01*
X139875557Y-101426529D01*
X139854938Y-101432784D01*
X139827360Y-101435500D01*
X139318640Y-101435500D01*
X139291062Y-101432784D01*
X139270443Y-101426529D01*
X139251447Y-101416376D01*
X139234792Y-101402708D01*
X139221124Y-101386053D01*
X139210971Y-101367057D01*
X139204716Y-101346438D01*
X139202000Y-101318860D01*
X139202000Y-100860140D01*
X139204716Y-100832562D01*
X139210971Y-100811943D01*
X139221124Y-100792947D01*
X139234792Y-100776292D01*
X139251447Y-100762624D01*
X139270443Y-100752471D01*
X139291062Y-100746216D01*
X139318640Y-100743500D01*
X139827360Y-100743500D01*
X139854938Y-100746216D01*
G37*
G36*
X145281938Y-100686716D02*
G01*
X145302557Y-100692971D01*
X145321553Y-100703124D01*
X145338208Y-100716792D01*
X145351876Y-100733447D01*
X145362029Y-100752443D01*
X145368284Y-100773062D01*
X145371000Y-100800640D01*
X145371000Y-101259360D01*
X145368284Y-101286938D01*
X145362029Y-101307557D01*
X145351876Y-101326553D01*
X145338208Y-101343208D01*
X145321553Y-101356876D01*
X145302557Y-101367029D01*
X145281938Y-101373284D01*
X145254360Y-101376000D01*
X144745640Y-101376000D01*
X144718062Y-101373284D01*
X144697443Y-101367029D01*
X144678447Y-101356876D01*
X144661792Y-101343208D01*
X144648124Y-101326553D01*
X144637971Y-101307557D01*
X144631716Y-101286938D01*
X144629000Y-101259360D01*
X144629000Y-100800640D01*
X144631716Y-100773062D01*
X144637971Y-100752443D01*
X144648124Y-100733447D01*
X144661792Y-100716792D01*
X144678447Y-100703124D01*
X144697443Y-100692971D01*
X144718062Y-100686716D01*
X144745640Y-100684000D01*
X145254360Y-100684000D01*
X145281938Y-100686716D01*
G37*
G36*
X141884000Y-101355000D02*
G01*
X140882000Y-101355000D01*
X140882000Y-100453000D01*
X141884000Y-100453000D01*
X141884000Y-101355000D01*
G37*
G36*
X146781938Y-100656716D02*
G01*
X146802557Y-100662971D01*
X146821553Y-100673124D01*
X146838208Y-100686792D01*
X146851876Y-100703447D01*
X146862029Y-100722443D01*
X146868284Y-100743062D01*
X146871000Y-100770640D01*
X146871000Y-101229360D01*
X146868284Y-101256938D01*
X146862029Y-101277557D01*
X146851876Y-101296553D01*
X146838208Y-101313208D01*
X146821553Y-101326876D01*
X146802557Y-101337029D01*
X146781938Y-101343284D01*
X146754360Y-101346000D01*
X146245640Y-101346000D01*
X146218062Y-101343284D01*
X146197443Y-101337029D01*
X146178447Y-101326876D01*
X146161792Y-101313208D01*
X146148124Y-101296553D01*
X146137971Y-101277557D01*
X146131716Y-101256938D01*
X146129000Y-101229360D01*
X146129000Y-100770640D01*
X146131716Y-100743062D01*
X146137971Y-100722443D01*
X146148124Y-100703447D01*
X146161792Y-100686792D01*
X146178447Y-100673124D01*
X146197443Y-100662971D01*
X146218062Y-100656716D01*
X146245640Y-100654000D01*
X146754360Y-100654000D01*
X146781938Y-100656716D01*
G37*
M02*
