G04 #@! TF.GenerationSoftware,KiCad,Pcbnew,5.1.5+dfsg1-2build2*
G04 #@! TF.CreationDate,2021-02-09T17:16:18+01:00*
G04 #@! TF.ProjectId,base2.0,62617365-322e-4302-9e6b-696361645f70,rev?*
G04 #@! TF.SameCoordinates,Original*
G04 #@! TF.FileFunction,Legend,Top*
G04 #@! TF.FilePolarity,Positive*
%FSLAX46Y46*%
G04 Gerber Fmt 4.6, Leading zero omitted, Abs format (unit mm)*
G04 Created by KiCad (PCBNEW 5.1.5+dfsg1-2build2) date 2021-02-09 17:16:18*
%MOMM*%
%LPD*%
G04 APERTURE LIST*
%ADD10C,0.120000*%
%ADD11C,0.150000*%
G04 APERTURE END LIST*
D10*
G04 #@! TO.C,U1*
X143923500Y-111195500D02*
X143448500Y-111195500D01*
X150668500Y-118415500D02*
X150668500Y-117940500D01*
X150193500Y-118415500D02*
X150668500Y-118415500D01*
X143448500Y-118415500D02*
X143448500Y-117940500D01*
X143923500Y-118415500D02*
X143448500Y-118415500D01*
X150668500Y-111195500D02*
X150668500Y-111670500D01*
X150193500Y-111195500D02*
X150668500Y-111195500D01*
D11*
G04 #@! TO.C,U2*
X156529501Y-106715501D02*
G75*
G03X156529501Y-106715501I-2000000J0D01*
G01*
X140529501Y-114715501D02*
G75*
G03X140529501Y-114715501I-2000000J0D01*
G01*
D10*
G04 #@! TO.C,U3*
X143143000Y-103434000D02*
X141683000Y-103434000D01*
X143143000Y-100274000D02*
X140983000Y-100274000D01*
X143143000Y-100274000D02*
X143143000Y-101204000D01*
X143143000Y-103434000D02*
X143143000Y-102504000D01*
G04 #@! TO.C,J3*
X144782000Y-109517200D02*
X144782000Y-108407200D01*
X145542000Y-109517200D02*
X144782000Y-109517200D01*
X146302000Y-107843729D02*
X146302000Y-107297200D01*
X146302000Y-109517200D02*
X146302000Y-108970671D01*
X146302000Y-107297200D02*
X151317000Y-107297200D01*
X146302000Y-109517200D02*
X151317000Y-109517200D01*
X151317000Y-108099670D02*
X151317000Y-107297200D01*
X151317000Y-109517200D02*
X151317000Y-108714730D01*
G04 #@! TO.C,D3*
X148730600Y-103325600D02*
X151015600Y-103325600D01*
X148730600Y-101855600D02*
X148730600Y-103325600D01*
X151015600Y-101855600D02*
X148730600Y-101855600D01*
G04 #@! TO.C,D2*
X135141500Y-112114000D02*
X137426500Y-112114000D01*
X135141500Y-110644000D02*
X135141500Y-112114000D01*
X137426500Y-110644000D02*
X135141500Y-110644000D01*
G04 #@! TO.C,D1*
X135141500Y-110463000D02*
X137426500Y-110463000D01*
X135141500Y-108993000D02*
X135141500Y-110463000D01*
X137426500Y-108993000D02*
X135141500Y-108993000D01*
G04 #@! TO.C,R5*
D11*
X154796333Y-110661380D02*
X154463000Y-110185190D01*
X154224904Y-110661380D02*
X154224904Y-109661380D01*
X154605857Y-109661380D01*
X154701095Y-109709000D01*
X154748714Y-109756619D01*
X154796333Y-109851857D01*
X154796333Y-109994714D01*
X154748714Y-110089952D01*
X154701095Y-110137571D01*
X154605857Y-110185190D01*
X154224904Y-110185190D01*
X155701095Y-109661380D02*
X155224904Y-109661380D01*
X155177285Y-110137571D01*
X155224904Y-110089952D01*
X155320142Y-110042333D01*
X155558238Y-110042333D01*
X155653476Y-110089952D01*
X155701095Y-110137571D01*
X155748714Y-110232809D01*
X155748714Y-110470904D01*
X155701095Y-110566142D01*
X155653476Y-110613761D01*
X155558238Y-110661380D01*
X155320142Y-110661380D01*
X155224904Y-110613761D01*
X155177285Y-110566142D01*
G04 #@! TO.C,R4*
X154011333Y-114244380D02*
X153678000Y-113768190D01*
X153439904Y-114244380D02*
X153439904Y-113244380D01*
X153820857Y-113244380D01*
X153916095Y-113292000D01*
X153963714Y-113339619D01*
X154011333Y-113434857D01*
X154011333Y-113577714D01*
X153963714Y-113672952D01*
X153916095Y-113720571D01*
X153820857Y-113768190D01*
X153439904Y-113768190D01*
X154868476Y-113577714D02*
X154868476Y-114244380D01*
X154630380Y-113196761D02*
X154392285Y-113911047D01*
X155011333Y-113911047D01*
G04 #@! TO.C,R3*
X153223933Y-104212980D02*
X152890600Y-103736790D01*
X152652504Y-104212980D02*
X152652504Y-103212980D01*
X153033457Y-103212980D01*
X153128695Y-103260600D01*
X153176314Y-103308219D01*
X153223933Y-103403457D01*
X153223933Y-103546314D01*
X153176314Y-103641552D01*
X153128695Y-103689171D01*
X153033457Y-103736790D01*
X152652504Y-103736790D01*
X153557266Y-103212980D02*
X154176314Y-103212980D01*
X153842980Y-103593933D01*
X153985838Y-103593933D01*
X154081076Y-103641552D01*
X154128695Y-103689171D01*
X154176314Y-103784409D01*
X154176314Y-104022504D01*
X154128695Y-104117742D01*
X154081076Y-104165361D01*
X153985838Y-104212980D01*
X153700123Y-104212980D01*
X153604885Y-104165361D01*
X153557266Y-104117742D01*
G04 #@! TO.C,R2*
X141438333Y-111831380D02*
X141105000Y-111355190D01*
X140866904Y-111831380D02*
X140866904Y-110831380D01*
X141247857Y-110831380D01*
X141343095Y-110879000D01*
X141390714Y-110926619D01*
X141438333Y-111021857D01*
X141438333Y-111164714D01*
X141390714Y-111259952D01*
X141343095Y-111307571D01*
X141247857Y-111355190D01*
X140866904Y-111355190D01*
X141819285Y-110926619D02*
X141866904Y-110879000D01*
X141962142Y-110831380D01*
X142200238Y-110831380D01*
X142295476Y-110879000D01*
X142343095Y-110926619D01*
X142390714Y-111021857D01*
X142390714Y-111117095D01*
X142343095Y-111259952D01*
X141771666Y-111831380D01*
X142390714Y-111831380D01*
G04 #@! TO.C,R1*
X141438333Y-110180380D02*
X141105000Y-109704190D01*
X140866904Y-110180380D02*
X140866904Y-109180380D01*
X141247857Y-109180380D01*
X141343095Y-109228000D01*
X141390714Y-109275619D01*
X141438333Y-109370857D01*
X141438333Y-109513714D01*
X141390714Y-109608952D01*
X141343095Y-109656571D01*
X141247857Y-109704190D01*
X140866904Y-109704190D01*
X142390714Y-110180380D02*
X141819285Y-110180380D01*
X142105000Y-110180380D02*
X142105000Y-109180380D01*
X142009761Y-109323238D01*
X141914523Y-109418476D01*
X141819285Y-109466095D01*
G04 #@! TO.C,C7*
X139406333Y-103989142D02*
X139358714Y-104036761D01*
X139215857Y-104084380D01*
X139120619Y-104084380D01*
X138977761Y-104036761D01*
X138882523Y-103941523D01*
X138834904Y-103846285D01*
X138787285Y-103655809D01*
X138787285Y-103512952D01*
X138834904Y-103322476D01*
X138882523Y-103227238D01*
X138977761Y-103132000D01*
X139120619Y-103084380D01*
X139215857Y-103084380D01*
X139358714Y-103132000D01*
X139406333Y-103179619D01*
X139739666Y-103084380D02*
X140406333Y-103084380D01*
X139977761Y-104084380D01*
G04 #@! TO.C,C6*
X144486333Y-103608142D02*
X144438714Y-103655761D01*
X144295857Y-103703380D01*
X144200619Y-103703380D01*
X144057761Y-103655761D01*
X143962523Y-103560523D01*
X143914904Y-103465285D01*
X143867285Y-103274809D01*
X143867285Y-103131952D01*
X143914904Y-102941476D01*
X143962523Y-102846238D01*
X144057761Y-102751000D01*
X144200619Y-102703380D01*
X144295857Y-102703380D01*
X144438714Y-102751000D01*
X144486333Y-102798619D01*
X145343476Y-102703380D02*
X145153000Y-102703380D01*
X145057761Y-102751000D01*
X145010142Y-102798619D01*
X144914904Y-102941476D01*
X144867285Y-103131952D01*
X144867285Y-103512904D01*
X144914904Y-103608142D01*
X144962523Y-103655761D01*
X145057761Y-103703380D01*
X145248238Y-103703380D01*
X145343476Y-103655761D01*
X145391095Y-103608142D01*
X145438714Y-103512904D01*
X145438714Y-103274809D01*
X145391095Y-103179571D01*
X145343476Y-103131952D01*
X145248238Y-103084333D01*
X145057761Y-103084333D01*
X144962523Y-103131952D01*
X144914904Y-103179571D01*
X144867285Y-103274809D01*
G04 #@! TO.C,C5*
X146645333Y-103608142D02*
X146597714Y-103655761D01*
X146454857Y-103703380D01*
X146359619Y-103703380D01*
X146216761Y-103655761D01*
X146121523Y-103560523D01*
X146073904Y-103465285D01*
X146026285Y-103274809D01*
X146026285Y-103131952D01*
X146073904Y-102941476D01*
X146121523Y-102846238D01*
X146216761Y-102751000D01*
X146359619Y-102703380D01*
X146454857Y-102703380D01*
X146597714Y-102751000D01*
X146645333Y-102798619D01*
X147550095Y-102703380D02*
X147073904Y-102703380D01*
X147026285Y-103179571D01*
X147073904Y-103131952D01*
X147169142Y-103084333D01*
X147407238Y-103084333D01*
X147502476Y-103131952D01*
X147550095Y-103179571D01*
X147597714Y-103274809D01*
X147597714Y-103512904D01*
X147550095Y-103608142D01*
X147502476Y-103655761D01*
X147407238Y-103703380D01*
X147169142Y-103703380D01*
X147073904Y-103655761D01*
X147026285Y-103608142D01*
G04 #@! TO.C,C4*
X143343333Y-108205642D02*
X143295714Y-108253261D01*
X143152857Y-108300880D01*
X143057619Y-108300880D01*
X142914761Y-108253261D01*
X142819523Y-108158023D01*
X142771904Y-108062785D01*
X142724285Y-107872309D01*
X142724285Y-107729452D01*
X142771904Y-107538976D01*
X142819523Y-107443738D01*
X142914761Y-107348500D01*
X143057619Y-107300880D01*
X143152857Y-107300880D01*
X143295714Y-107348500D01*
X143343333Y-107396119D01*
X144200476Y-107634214D02*
X144200476Y-108300880D01*
X143962380Y-107253261D02*
X143724285Y-107967547D01*
X144343333Y-107967547D01*
G04 #@! TO.C,C3*
X151852333Y-114276142D02*
X151804714Y-114323761D01*
X151661857Y-114371380D01*
X151566619Y-114371380D01*
X151423761Y-114323761D01*
X151328523Y-114228523D01*
X151280904Y-114133285D01*
X151233285Y-113942809D01*
X151233285Y-113799952D01*
X151280904Y-113609476D01*
X151328523Y-113514238D01*
X151423761Y-113419000D01*
X151566619Y-113371380D01*
X151661857Y-113371380D01*
X151804714Y-113419000D01*
X151852333Y-113466619D01*
X152185666Y-113371380D02*
X152804714Y-113371380D01*
X152471380Y-113752333D01*
X152614238Y-113752333D01*
X152709476Y-113799952D01*
X152757095Y-113847571D01*
X152804714Y-113942809D01*
X152804714Y-114180904D01*
X152757095Y-114276142D01*
X152709476Y-114323761D01*
X152614238Y-114371380D01*
X152328523Y-114371380D01*
X152233285Y-114323761D01*
X152185666Y-114276142D01*
G04 #@! TO.C,C2*
X151369833Y-119991142D02*
X151322214Y-120038761D01*
X151179357Y-120086380D01*
X151084119Y-120086380D01*
X150941261Y-120038761D01*
X150846023Y-119943523D01*
X150798404Y-119848285D01*
X150750785Y-119657809D01*
X150750785Y-119514952D01*
X150798404Y-119324476D01*
X150846023Y-119229238D01*
X150941261Y-119134000D01*
X151084119Y-119086380D01*
X151179357Y-119086380D01*
X151322214Y-119134000D01*
X151369833Y-119181619D01*
X151750785Y-119181619D02*
X151798404Y-119134000D01*
X151893642Y-119086380D01*
X152131738Y-119086380D01*
X152226976Y-119134000D01*
X152274595Y-119181619D01*
X152322214Y-119276857D01*
X152322214Y-119372095D01*
X152274595Y-119514952D01*
X151703166Y-120086380D01*
X152322214Y-120086380D01*
G04 #@! TO.C,C1*
X141819333Y-116308142D02*
X141771714Y-116355761D01*
X141628857Y-116403380D01*
X141533619Y-116403380D01*
X141390761Y-116355761D01*
X141295523Y-116260523D01*
X141247904Y-116165285D01*
X141200285Y-115974809D01*
X141200285Y-115831952D01*
X141247904Y-115641476D01*
X141295523Y-115546238D01*
X141390761Y-115451000D01*
X141533619Y-115403380D01*
X141628857Y-115403380D01*
X141771714Y-115451000D01*
X141819333Y-115498619D01*
X142771714Y-116403380D02*
X142200285Y-116403380D01*
X142486000Y-116403380D02*
X142486000Y-115403380D01*
X142390761Y-115546238D01*
X142295523Y-115641476D01*
X142200285Y-115689095D01*
G04 #@! TO.C,U1*
X151511095Y-116546380D02*
X151511095Y-117355904D01*
X151558714Y-117451142D01*
X151606333Y-117498761D01*
X151701571Y-117546380D01*
X151892047Y-117546380D01*
X151987285Y-117498761D01*
X152034904Y-117451142D01*
X152082523Y-117355904D01*
X152082523Y-116546380D01*
X153082523Y-117546380D02*
X152511095Y-117546380D01*
X152796809Y-117546380D02*
X152796809Y-116546380D01*
X152701571Y-116689238D01*
X152606333Y-116784476D01*
X152511095Y-116832095D01*
G04 #@! TO.C,U3*
X141224095Y-98893380D02*
X141224095Y-99702904D01*
X141271714Y-99798142D01*
X141319333Y-99845761D01*
X141414571Y-99893380D01*
X141605047Y-99893380D01*
X141700285Y-99845761D01*
X141747904Y-99798142D01*
X141795523Y-99702904D01*
X141795523Y-98893380D01*
X142176476Y-98893380D02*
X142795523Y-98893380D01*
X142462190Y-99274333D01*
X142605047Y-99274333D01*
X142700285Y-99321952D01*
X142747904Y-99369571D01*
X142795523Y-99464809D01*
X142795523Y-99702904D01*
X142747904Y-99798142D01*
X142700285Y-99845761D01*
X142605047Y-99893380D01*
X142319333Y-99893380D01*
X142224095Y-99845761D01*
X142176476Y-99798142D01*
G04 #@! TO.C,J3*
X152066666Y-108418380D02*
X152066666Y-109132666D01*
X152019047Y-109275523D01*
X151923809Y-109370761D01*
X151780952Y-109418380D01*
X151685714Y-109418380D01*
X152447619Y-108418380D02*
X153066666Y-108418380D01*
X152733333Y-108799333D01*
X152876190Y-108799333D01*
X152971428Y-108846952D01*
X153019047Y-108894571D01*
X153066666Y-108989809D01*
X153066666Y-109227904D01*
X153019047Y-109323142D01*
X152971428Y-109370761D01*
X152876190Y-109418380D01*
X152590476Y-109418380D01*
X152495238Y-109370761D01*
X152447619Y-109323142D01*
G04 #@! TO.C,D3*
X149477504Y-104465380D02*
X149477504Y-103465380D01*
X149715600Y-103465380D01*
X149858457Y-103513000D01*
X149953695Y-103608238D01*
X150001314Y-103703476D01*
X150048933Y-103893952D01*
X150048933Y-104036809D01*
X150001314Y-104227285D01*
X149953695Y-104322523D01*
X149858457Y-104417761D01*
X149715600Y-104465380D01*
X149477504Y-104465380D01*
X150382266Y-103465380D02*
X151001314Y-103465380D01*
X150667980Y-103846333D01*
X150810838Y-103846333D01*
X150906076Y-103893952D01*
X150953695Y-103941571D01*
X151001314Y-104036809D01*
X151001314Y-104274904D01*
X150953695Y-104370142D01*
X150906076Y-104417761D01*
X150810838Y-104465380D01*
X150525123Y-104465380D01*
X150429885Y-104417761D01*
X150382266Y-104370142D01*
G04 #@! TO.C,D2*
X135151904Y-113355380D02*
X135151904Y-112355380D01*
X135390000Y-112355380D01*
X135532857Y-112403000D01*
X135628095Y-112498238D01*
X135675714Y-112593476D01*
X135723333Y-112783952D01*
X135723333Y-112926809D01*
X135675714Y-113117285D01*
X135628095Y-113212523D01*
X135532857Y-113307761D01*
X135390000Y-113355380D01*
X135151904Y-113355380D01*
X136104285Y-112450619D02*
X136151904Y-112403000D01*
X136247142Y-112355380D01*
X136485238Y-112355380D01*
X136580476Y-112403000D01*
X136628095Y-112450619D01*
X136675714Y-112545857D01*
X136675714Y-112641095D01*
X136628095Y-112783952D01*
X136056666Y-113355380D01*
X136675714Y-113355380D01*
G04 #@! TO.C,D1*
X136421904Y-108656380D02*
X136421904Y-107656380D01*
X136660000Y-107656380D01*
X136802857Y-107704000D01*
X136898095Y-107799238D01*
X136945714Y-107894476D01*
X136993333Y-108084952D01*
X136993333Y-108227809D01*
X136945714Y-108418285D01*
X136898095Y-108513523D01*
X136802857Y-108608761D01*
X136660000Y-108656380D01*
X136421904Y-108656380D01*
X137945714Y-108656380D02*
X137374285Y-108656380D01*
X137660000Y-108656380D02*
X137660000Y-107656380D01*
X137564761Y-107799238D01*
X137469523Y-107894476D01*
X137374285Y-107942095D01*
G04 #@! TD*
M02*
