M48
; DRILL file {KiCad 5.1.5+dfsg1-2build2} date Tue Feb  9 17:16:18 2021
; FORMAT={-:-/ absolute / metric / decimal}
; #@! TF.CreationDate,2021-02-09T17:16:18+01:00
; #@! TF.GenerationSoftware,Kicad,Pcbnew,5.1.5+dfsg1-2build2
FMAT,2
METRIC
T1C0.400
T2C0.650
T3C0.750
T4C2.200
%
G90
G05
T1
X135.763Y-99.822
X135.763Y-100.711
X135.763Y-101.6
X135.763Y-102.489
X135.763Y-103.378
X135.763Y-108.204
X136.779Y-99.822
X136.779Y-100.711
X136.779Y-101.6
X136.779Y-102.489
X136.779Y-103.378
X139.192Y-99.695
X140.081Y-99.695
X141.097Y-107.823
X141.224Y-113.919
X142.81Y-118.663
X143.742Y-108.077
X144.78Y-113.03
X146.152Y-109.779
X146.558Y-120.015
X147.358Y-110.138
X148.082Y-119.634
X150.749Y-99.949
X150.749Y-100.965
X151.765Y-99.949
X151.765Y-100.965
X152.781Y-99.949
X152.781Y-100.965
X153.797Y-99.949
X153.797Y-100.965
T2
X137.024Y-118.609
X137.922Y-119.507
X139.545Y-121.511
X140.815Y-121.511
X142.085Y-121.511
X143.355Y-121.511
X144.625Y-121.511
X145.895Y-121.511
X147.165Y-121.511
X148.435Y-121.511
X156.69Y-113.891
X156.69Y-115.161
X156.69Y-116.431
X156.69Y-117.701
X157.325Y-108.811
X157.325Y-110.081
X157.325Y-111.351
X157.325Y-112.621
X145.542Y-108.407
X146.812Y-108.407
X148.082Y-108.407
X149.352Y-108.407
X150.622Y-108.407
T3
X145.923Y-105.41
X147.923Y-105.41
X149.923Y-105.41
X136.906Y-105.41
X138.906Y-105.41
X140.906Y-105.41
T4
X138.5Y-114.7
X154.5Y-106.7
T0
M30
