G04 #@! TF.GenerationSoftware,KiCad,Pcbnew,5.1.5+dfsg1-2build2*
G04 #@! TF.CreationDate,2021-02-09T17:16:18+01:00*
G04 #@! TF.ProjectId,base2.0,62617365-322e-4302-9e6b-696361645f70,rev?*
G04 #@! TF.SameCoordinates,Original*
G04 #@! TF.FileFunction,Copper,L1,Top*
G04 #@! TF.FilePolarity,Positive*
%FSLAX46Y46*%
G04 Gerber Fmt 4.6, Leading zero omitted, Abs format (unit mm)*
G04 Created by KiCad (PCBNEW 5.1.5+dfsg1-2build2) date 2021-02-09 17:16:18*
%MOMM*%
%LPD*%
G04 APERTURE LIST*
G04 #@! TA.AperFunction,SMDPad,CuDef*
%ADD10C,0.350000*%
G04 #@! TD*
G04 #@! TA.AperFunction,ComponentPad*
%ADD11C,1.000000*%
G04 #@! TD*
G04 #@! TA.AperFunction,SMDPad,CuDef*
%ADD12R,0.900000X0.800000*%
G04 #@! TD*
G04 #@! TA.AperFunction,ComponentPad*
%ADD13O,1.200000X1.750000*%
G04 #@! TD*
G04 #@! TA.AperFunction,ComponentPad*
%ADD14C,0.350000*%
G04 #@! TD*
G04 #@! TA.AperFunction,ComponentPad*
%ADD15C,1.000000*%
G04 #@! TD*
G04 #@! TA.AperFunction,ComponentPad*
%ADD16O,1.000000X1.000000*%
G04 #@! TD*
G04 #@! TA.AperFunction,ComponentPad*
%ADD17R,1.000000X1.000000*%
G04 #@! TD*
G04 #@! TA.AperFunction,ComponentPad*
%ADD18C,3.800000*%
G04 #@! TD*
G04 #@! TA.AperFunction,ViaPad*
%ADD19C,0.800000*%
G04 #@! TD*
G04 #@! TA.AperFunction,Conductor*
%ADD20C,0.500000*%
G04 #@! TD*
G04 #@! TA.AperFunction,Conductor*
%ADD21C,0.250000*%
G04 #@! TD*
G04 #@! TA.AperFunction,Conductor*
%ADD22C,0.254000*%
G04 #@! TD*
G04 APERTURE END LIST*
G04 #@! TA.AperFunction,SMDPad,CuDef*
D10*
G04 #@! TO.P,R5,2*
G04 #@! TO.N,I2C_SDA*
G36*
X155609958Y-111059710D02*
G01*
X155624276Y-111061834D01*
X155638317Y-111065351D01*
X155651946Y-111070228D01*
X155665031Y-111076417D01*
X155677447Y-111083858D01*
X155689073Y-111092481D01*
X155699798Y-111102202D01*
X155709519Y-111112927D01*
X155718142Y-111124553D01*
X155725583Y-111136969D01*
X155731772Y-111150054D01*
X155736649Y-111163683D01*
X155740166Y-111177724D01*
X155742290Y-111192042D01*
X155743000Y-111206500D01*
X155743000Y-111551500D01*
X155742290Y-111565958D01*
X155740166Y-111580276D01*
X155736649Y-111594317D01*
X155731772Y-111607946D01*
X155725583Y-111621031D01*
X155718142Y-111633447D01*
X155709519Y-111645073D01*
X155699798Y-111655798D01*
X155689073Y-111665519D01*
X155677447Y-111674142D01*
X155665031Y-111681583D01*
X155651946Y-111687772D01*
X155638317Y-111692649D01*
X155624276Y-111696166D01*
X155609958Y-111698290D01*
X155595500Y-111699000D01*
X155300500Y-111699000D01*
X155286042Y-111698290D01*
X155271724Y-111696166D01*
X155257683Y-111692649D01*
X155244054Y-111687772D01*
X155230969Y-111681583D01*
X155218553Y-111674142D01*
X155206927Y-111665519D01*
X155196202Y-111655798D01*
X155186481Y-111645073D01*
X155177858Y-111633447D01*
X155170417Y-111621031D01*
X155164228Y-111607946D01*
X155159351Y-111594317D01*
X155155834Y-111580276D01*
X155153710Y-111565958D01*
X155153000Y-111551500D01*
X155153000Y-111206500D01*
X155153710Y-111192042D01*
X155155834Y-111177724D01*
X155159351Y-111163683D01*
X155164228Y-111150054D01*
X155170417Y-111136969D01*
X155177858Y-111124553D01*
X155186481Y-111112927D01*
X155196202Y-111102202D01*
X155206927Y-111092481D01*
X155218553Y-111083858D01*
X155230969Y-111076417D01*
X155244054Y-111070228D01*
X155257683Y-111065351D01*
X155271724Y-111061834D01*
X155286042Y-111059710D01*
X155300500Y-111059000D01*
X155595500Y-111059000D01*
X155609958Y-111059710D01*
G37*
G04 #@! TD.AperFunction*
G04 #@! TA.AperFunction,SMDPad,CuDef*
G04 #@! TO.P,R5,1*
G04 #@! TO.N,+3V3*
G36*
X154639958Y-111059710D02*
G01*
X154654276Y-111061834D01*
X154668317Y-111065351D01*
X154681946Y-111070228D01*
X154695031Y-111076417D01*
X154707447Y-111083858D01*
X154719073Y-111092481D01*
X154729798Y-111102202D01*
X154739519Y-111112927D01*
X154748142Y-111124553D01*
X154755583Y-111136969D01*
X154761772Y-111150054D01*
X154766649Y-111163683D01*
X154770166Y-111177724D01*
X154772290Y-111192042D01*
X154773000Y-111206500D01*
X154773000Y-111551500D01*
X154772290Y-111565958D01*
X154770166Y-111580276D01*
X154766649Y-111594317D01*
X154761772Y-111607946D01*
X154755583Y-111621031D01*
X154748142Y-111633447D01*
X154739519Y-111645073D01*
X154729798Y-111655798D01*
X154719073Y-111665519D01*
X154707447Y-111674142D01*
X154695031Y-111681583D01*
X154681946Y-111687772D01*
X154668317Y-111692649D01*
X154654276Y-111696166D01*
X154639958Y-111698290D01*
X154625500Y-111699000D01*
X154330500Y-111699000D01*
X154316042Y-111698290D01*
X154301724Y-111696166D01*
X154287683Y-111692649D01*
X154274054Y-111687772D01*
X154260969Y-111681583D01*
X154248553Y-111674142D01*
X154236927Y-111665519D01*
X154226202Y-111655798D01*
X154216481Y-111645073D01*
X154207858Y-111633447D01*
X154200417Y-111621031D01*
X154194228Y-111607946D01*
X154189351Y-111594317D01*
X154185834Y-111580276D01*
X154183710Y-111565958D01*
X154183000Y-111551500D01*
X154183000Y-111206500D01*
X154183710Y-111192042D01*
X154185834Y-111177724D01*
X154189351Y-111163683D01*
X154194228Y-111150054D01*
X154200417Y-111136969D01*
X154207858Y-111124553D01*
X154216481Y-111112927D01*
X154226202Y-111102202D01*
X154236927Y-111092481D01*
X154248553Y-111083858D01*
X154260969Y-111076417D01*
X154274054Y-111070228D01*
X154287683Y-111065351D01*
X154301724Y-111061834D01*
X154316042Y-111059710D01*
X154330500Y-111059000D01*
X154625500Y-111059000D01*
X154639958Y-111059710D01*
G37*
G04 #@! TD.AperFunction*
G04 #@! TD*
G04 #@! TA.AperFunction,SMDPad,CuDef*
G04 #@! TO.P,R4,2*
G04 #@! TO.N,I2C_SCL*
G36*
X155609958Y-112202710D02*
G01*
X155624276Y-112204834D01*
X155638317Y-112208351D01*
X155651946Y-112213228D01*
X155665031Y-112219417D01*
X155677447Y-112226858D01*
X155689073Y-112235481D01*
X155699798Y-112245202D01*
X155709519Y-112255927D01*
X155718142Y-112267553D01*
X155725583Y-112279969D01*
X155731772Y-112293054D01*
X155736649Y-112306683D01*
X155740166Y-112320724D01*
X155742290Y-112335042D01*
X155743000Y-112349500D01*
X155743000Y-112694500D01*
X155742290Y-112708958D01*
X155740166Y-112723276D01*
X155736649Y-112737317D01*
X155731772Y-112750946D01*
X155725583Y-112764031D01*
X155718142Y-112776447D01*
X155709519Y-112788073D01*
X155699798Y-112798798D01*
X155689073Y-112808519D01*
X155677447Y-112817142D01*
X155665031Y-112824583D01*
X155651946Y-112830772D01*
X155638317Y-112835649D01*
X155624276Y-112839166D01*
X155609958Y-112841290D01*
X155595500Y-112842000D01*
X155300500Y-112842000D01*
X155286042Y-112841290D01*
X155271724Y-112839166D01*
X155257683Y-112835649D01*
X155244054Y-112830772D01*
X155230969Y-112824583D01*
X155218553Y-112817142D01*
X155206927Y-112808519D01*
X155196202Y-112798798D01*
X155186481Y-112788073D01*
X155177858Y-112776447D01*
X155170417Y-112764031D01*
X155164228Y-112750946D01*
X155159351Y-112737317D01*
X155155834Y-112723276D01*
X155153710Y-112708958D01*
X155153000Y-112694500D01*
X155153000Y-112349500D01*
X155153710Y-112335042D01*
X155155834Y-112320724D01*
X155159351Y-112306683D01*
X155164228Y-112293054D01*
X155170417Y-112279969D01*
X155177858Y-112267553D01*
X155186481Y-112255927D01*
X155196202Y-112245202D01*
X155206927Y-112235481D01*
X155218553Y-112226858D01*
X155230969Y-112219417D01*
X155244054Y-112213228D01*
X155257683Y-112208351D01*
X155271724Y-112204834D01*
X155286042Y-112202710D01*
X155300500Y-112202000D01*
X155595500Y-112202000D01*
X155609958Y-112202710D01*
G37*
G04 #@! TD.AperFunction*
G04 #@! TA.AperFunction,SMDPad,CuDef*
G04 #@! TO.P,R4,1*
G04 #@! TO.N,+3V3*
G36*
X154639958Y-112202710D02*
G01*
X154654276Y-112204834D01*
X154668317Y-112208351D01*
X154681946Y-112213228D01*
X154695031Y-112219417D01*
X154707447Y-112226858D01*
X154719073Y-112235481D01*
X154729798Y-112245202D01*
X154739519Y-112255927D01*
X154748142Y-112267553D01*
X154755583Y-112279969D01*
X154761772Y-112293054D01*
X154766649Y-112306683D01*
X154770166Y-112320724D01*
X154772290Y-112335042D01*
X154773000Y-112349500D01*
X154773000Y-112694500D01*
X154772290Y-112708958D01*
X154770166Y-112723276D01*
X154766649Y-112737317D01*
X154761772Y-112750946D01*
X154755583Y-112764031D01*
X154748142Y-112776447D01*
X154739519Y-112788073D01*
X154729798Y-112798798D01*
X154719073Y-112808519D01*
X154707447Y-112817142D01*
X154695031Y-112824583D01*
X154681946Y-112830772D01*
X154668317Y-112835649D01*
X154654276Y-112839166D01*
X154639958Y-112841290D01*
X154625500Y-112842000D01*
X154330500Y-112842000D01*
X154316042Y-112841290D01*
X154301724Y-112839166D01*
X154287683Y-112835649D01*
X154274054Y-112830772D01*
X154260969Y-112824583D01*
X154248553Y-112817142D01*
X154236927Y-112808519D01*
X154226202Y-112798798D01*
X154216481Y-112788073D01*
X154207858Y-112776447D01*
X154200417Y-112764031D01*
X154194228Y-112750946D01*
X154189351Y-112737317D01*
X154185834Y-112723276D01*
X154183710Y-112708958D01*
X154183000Y-112694500D01*
X154183000Y-112349500D01*
X154183710Y-112335042D01*
X154185834Y-112320724D01*
X154189351Y-112306683D01*
X154194228Y-112293054D01*
X154200417Y-112279969D01*
X154207858Y-112267553D01*
X154216481Y-112255927D01*
X154226202Y-112245202D01*
X154236927Y-112235481D01*
X154248553Y-112226858D01*
X154260969Y-112219417D01*
X154274054Y-112213228D01*
X154287683Y-112208351D01*
X154301724Y-112204834D01*
X154316042Y-112202710D01*
X154330500Y-112202000D01*
X154625500Y-112202000D01*
X154639958Y-112202710D01*
G37*
G04 #@! TD.AperFunction*
G04 #@! TD*
G04 #@! TA.AperFunction,SMDPad,CuDef*
G04 #@! TO.P,R3,2*
G04 #@! TO.N,Net-(D3-Pad2)*
G36*
X153067558Y-102271310D02*
G01*
X153081876Y-102273434D01*
X153095917Y-102276951D01*
X153109546Y-102281828D01*
X153122631Y-102288017D01*
X153135047Y-102295458D01*
X153146673Y-102304081D01*
X153157398Y-102313802D01*
X153167119Y-102324527D01*
X153175742Y-102336153D01*
X153183183Y-102348569D01*
X153189372Y-102361654D01*
X153194249Y-102375283D01*
X153197766Y-102389324D01*
X153199890Y-102403642D01*
X153200600Y-102418100D01*
X153200600Y-102763100D01*
X153199890Y-102777558D01*
X153197766Y-102791876D01*
X153194249Y-102805917D01*
X153189372Y-102819546D01*
X153183183Y-102832631D01*
X153175742Y-102845047D01*
X153167119Y-102856673D01*
X153157398Y-102867398D01*
X153146673Y-102877119D01*
X153135047Y-102885742D01*
X153122631Y-102893183D01*
X153109546Y-102899372D01*
X153095917Y-102904249D01*
X153081876Y-102907766D01*
X153067558Y-102909890D01*
X153053100Y-102910600D01*
X152758100Y-102910600D01*
X152743642Y-102909890D01*
X152729324Y-102907766D01*
X152715283Y-102904249D01*
X152701654Y-102899372D01*
X152688569Y-102893183D01*
X152676153Y-102885742D01*
X152664527Y-102877119D01*
X152653802Y-102867398D01*
X152644081Y-102856673D01*
X152635458Y-102845047D01*
X152628017Y-102832631D01*
X152621828Y-102819546D01*
X152616951Y-102805917D01*
X152613434Y-102791876D01*
X152611310Y-102777558D01*
X152610600Y-102763100D01*
X152610600Y-102418100D01*
X152611310Y-102403642D01*
X152613434Y-102389324D01*
X152616951Y-102375283D01*
X152621828Y-102361654D01*
X152628017Y-102348569D01*
X152635458Y-102336153D01*
X152644081Y-102324527D01*
X152653802Y-102313802D01*
X152664527Y-102304081D01*
X152676153Y-102295458D01*
X152688569Y-102288017D01*
X152701654Y-102281828D01*
X152715283Y-102276951D01*
X152729324Y-102273434D01*
X152743642Y-102271310D01*
X152758100Y-102270600D01*
X153053100Y-102270600D01*
X153067558Y-102271310D01*
G37*
G04 #@! TD.AperFunction*
G04 #@! TA.AperFunction,SMDPad,CuDef*
G04 #@! TO.P,R3,1*
G04 #@! TO.N,+3V3*
G36*
X154037558Y-102271310D02*
G01*
X154051876Y-102273434D01*
X154065917Y-102276951D01*
X154079546Y-102281828D01*
X154092631Y-102288017D01*
X154105047Y-102295458D01*
X154116673Y-102304081D01*
X154127398Y-102313802D01*
X154137119Y-102324527D01*
X154145742Y-102336153D01*
X154153183Y-102348569D01*
X154159372Y-102361654D01*
X154164249Y-102375283D01*
X154167766Y-102389324D01*
X154169890Y-102403642D01*
X154170600Y-102418100D01*
X154170600Y-102763100D01*
X154169890Y-102777558D01*
X154167766Y-102791876D01*
X154164249Y-102805917D01*
X154159372Y-102819546D01*
X154153183Y-102832631D01*
X154145742Y-102845047D01*
X154137119Y-102856673D01*
X154127398Y-102867398D01*
X154116673Y-102877119D01*
X154105047Y-102885742D01*
X154092631Y-102893183D01*
X154079546Y-102899372D01*
X154065917Y-102904249D01*
X154051876Y-102907766D01*
X154037558Y-102909890D01*
X154023100Y-102910600D01*
X153728100Y-102910600D01*
X153713642Y-102909890D01*
X153699324Y-102907766D01*
X153685283Y-102904249D01*
X153671654Y-102899372D01*
X153658569Y-102893183D01*
X153646153Y-102885742D01*
X153634527Y-102877119D01*
X153623802Y-102867398D01*
X153614081Y-102856673D01*
X153605458Y-102845047D01*
X153598017Y-102832631D01*
X153591828Y-102819546D01*
X153586951Y-102805917D01*
X153583434Y-102791876D01*
X153581310Y-102777558D01*
X153580600Y-102763100D01*
X153580600Y-102418100D01*
X153581310Y-102403642D01*
X153583434Y-102389324D01*
X153586951Y-102375283D01*
X153591828Y-102361654D01*
X153598017Y-102348569D01*
X153605458Y-102336153D01*
X153614081Y-102324527D01*
X153623802Y-102313802D01*
X153634527Y-102304081D01*
X153646153Y-102295458D01*
X153658569Y-102288017D01*
X153671654Y-102281828D01*
X153685283Y-102276951D01*
X153699324Y-102273434D01*
X153713642Y-102271310D01*
X153728100Y-102270600D01*
X154023100Y-102270600D01*
X154037558Y-102271310D01*
G37*
G04 #@! TD.AperFunction*
G04 #@! TD*
G04 #@! TA.AperFunction,SMDPad,CuDef*
G04 #@! TO.P,R2,2*
G04 #@! TO.N,Net-(D2-Pad2)*
G36*
X139376958Y-111059710D02*
G01*
X139391276Y-111061834D01*
X139405317Y-111065351D01*
X139418946Y-111070228D01*
X139432031Y-111076417D01*
X139444447Y-111083858D01*
X139456073Y-111092481D01*
X139466798Y-111102202D01*
X139476519Y-111112927D01*
X139485142Y-111124553D01*
X139492583Y-111136969D01*
X139498772Y-111150054D01*
X139503649Y-111163683D01*
X139507166Y-111177724D01*
X139509290Y-111192042D01*
X139510000Y-111206500D01*
X139510000Y-111551500D01*
X139509290Y-111565958D01*
X139507166Y-111580276D01*
X139503649Y-111594317D01*
X139498772Y-111607946D01*
X139492583Y-111621031D01*
X139485142Y-111633447D01*
X139476519Y-111645073D01*
X139466798Y-111655798D01*
X139456073Y-111665519D01*
X139444447Y-111674142D01*
X139432031Y-111681583D01*
X139418946Y-111687772D01*
X139405317Y-111692649D01*
X139391276Y-111696166D01*
X139376958Y-111698290D01*
X139362500Y-111699000D01*
X139067500Y-111699000D01*
X139053042Y-111698290D01*
X139038724Y-111696166D01*
X139024683Y-111692649D01*
X139011054Y-111687772D01*
X138997969Y-111681583D01*
X138985553Y-111674142D01*
X138973927Y-111665519D01*
X138963202Y-111655798D01*
X138953481Y-111645073D01*
X138944858Y-111633447D01*
X138937417Y-111621031D01*
X138931228Y-111607946D01*
X138926351Y-111594317D01*
X138922834Y-111580276D01*
X138920710Y-111565958D01*
X138920000Y-111551500D01*
X138920000Y-111206500D01*
X138920710Y-111192042D01*
X138922834Y-111177724D01*
X138926351Y-111163683D01*
X138931228Y-111150054D01*
X138937417Y-111136969D01*
X138944858Y-111124553D01*
X138953481Y-111112927D01*
X138963202Y-111102202D01*
X138973927Y-111092481D01*
X138985553Y-111083858D01*
X138997969Y-111076417D01*
X139011054Y-111070228D01*
X139024683Y-111065351D01*
X139038724Y-111061834D01*
X139053042Y-111059710D01*
X139067500Y-111059000D01*
X139362500Y-111059000D01*
X139376958Y-111059710D01*
G37*
G04 #@! TD.AperFunction*
G04 #@! TA.AperFunction,SMDPad,CuDef*
G04 #@! TO.P,R2,1*
G04 #@! TO.N,LED_1*
G36*
X140346958Y-111059710D02*
G01*
X140361276Y-111061834D01*
X140375317Y-111065351D01*
X140388946Y-111070228D01*
X140402031Y-111076417D01*
X140414447Y-111083858D01*
X140426073Y-111092481D01*
X140436798Y-111102202D01*
X140446519Y-111112927D01*
X140455142Y-111124553D01*
X140462583Y-111136969D01*
X140468772Y-111150054D01*
X140473649Y-111163683D01*
X140477166Y-111177724D01*
X140479290Y-111192042D01*
X140480000Y-111206500D01*
X140480000Y-111551500D01*
X140479290Y-111565958D01*
X140477166Y-111580276D01*
X140473649Y-111594317D01*
X140468772Y-111607946D01*
X140462583Y-111621031D01*
X140455142Y-111633447D01*
X140446519Y-111645073D01*
X140436798Y-111655798D01*
X140426073Y-111665519D01*
X140414447Y-111674142D01*
X140402031Y-111681583D01*
X140388946Y-111687772D01*
X140375317Y-111692649D01*
X140361276Y-111696166D01*
X140346958Y-111698290D01*
X140332500Y-111699000D01*
X140037500Y-111699000D01*
X140023042Y-111698290D01*
X140008724Y-111696166D01*
X139994683Y-111692649D01*
X139981054Y-111687772D01*
X139967969Y-111681583D01*
X139955553Y-111674142D01*
X139943927Y-111665519D01*
X139933202Y-111655798D01*
X139923481Y-111645073D01*
X139914858Y-111633447D01*
X139907417Y-111621031D01*
X139901228Y-111607946D01*
X139896351Y-111594317D01*
X139892834Y-111580276D01*
X139890710Y-111565958D01*
X139890000Y-111551500D01*
X139890000Y-111206500D01*
X139890710Y-111192042D01*
X139892834Y-111177724D01*
X139896351Y-111163683D01*
X139901228Y-111150054D01*
X139907417Y-111136969D01*
X139914858Y-111124553D01*
X139923481Y-111112927D01*
X139933202Y-111102202D01*
X139943927Y-111092481D01*
X139955553Y-111083858D01*
X139967969Y-111076417D01*
X139981054Y-111070228D01*
X139994683Y-111065351D01*
X140008724Y-111061834D01*
X140023042Y-111059710D01*
X140037500Y-111059000D01*
X140332500Y-111059000D01*
X140346958Y-111059710D01*
G37*
G04 #@! TD.AperFunction*
G04 #@! TD*
G04 #@! TA.AperFunction,SMDPad,CuDef*
G04 #@! TO.P,R1,2*
G04 #@! TO.N,Net-(D1-Pad2)*
G36*
X139351458Y-109408710D02*
G01*
X139365776Y-109410834D01*
X139379817Y-109414351D01*
X139393446Y-109419228D01*
X139406531Y-109425417D01*
X139418947Y-109432858D01*
X139430573Y-109441481D01*
X139441298Y-109451202D01*
X139451019Y-109461927D01*
X139459642Y-109473553D01*
X139467083Y-109485969D01*
X139473272Y-109499054D01*
X139478149Y-109512683D01*
X139481666Y-109526724D01*
X139483790Y-109541042D01*
X139484500Y-109555500D01*
X139484500Y-109900500D01*
X139483790Y-109914958D01*
X139481666Y-109929276D01*
X139478149Y-109943317D01*
X139473272Y-109956946D01*
X139467083Y-109970031D01*
X139459642Y-109982447D01*
X139451019Y-109994073D01*
X139441298Y-110004798D01*
X139430573Y-110014519D01*
X139418947Y-110023142D01*
X139406531Y-110030583D01*
X139393446Y-110036772D01*
X139379817Y-110041649D01*
X139365776Y-110045166D01*
X139351458Y-110047290D01*
X139337000Y-110048000D01*
X139042000Y-110048000D01*
X139027542Y-110047290D01*
X139013224Y-110045166D01*
X138999183Y-110041649D01*
X138985554Y-110036772D01*
X138972469Y-110030583D01*
X138960053Y-110023142D01*
X138948427Y-110014519D01*
X138937702Y-110004798D01*
X138927981Y-109994073D01*
X138919358Y-109982447D01*
X138911917Y-109970031D01*
X138905728Y-109956946D01*
X138900851Y-109943317D01*
X138897334Y-109929276D01*
X138895210Y-109914958D01*
X138894500Y-109900500D01*
X138894500Y-109555500D01*
X138895210Y-109541042D01*
X138897334Y-109526724D01*
X138900851Y-109512683D01*
X138905728Y-109499054D01*
X138911917Y-109485969D01*
X138919358Y-109473553D01*
X138927981Y-109461927D01*
X138937702Y-109451202D01*
X138948427Y-109441481D01*
X138960053Y-109432858D01*
X138972469Y-109425417D01*
X138985554Y-109419228D01*
X138999183Y-109414351D01*
X139013224Y-109410834D01*
X139027542Y-109408710D01*
X139042000Y-109408000D01*
X139337000Y-109408000D01*
X139351458Y-109408710D01*
G37*
G04 #@! TD.AperFunction*
G04 #@! TA.AperFunction,SMDPad,CuDef*
G04 #@! TO.P,R1,1*
G04 #@! TO.N,LED_2*
G36*
X140321458Y-109408710D02*
G01*
X140335776Y-109410834D01*
X140349817Y-109414351D01*
X140363446Y-109419228D01*
X140376531Y-109425417D01*
X140388947Y-109432858D01*
X140400573Y-109441481D01*
X140411298Y-109451202D01*
X140421019Y-109461927D01*
X140429642Y-109473553D01*
X140437083Y-109485969D01*
X140443272Y-109499054D01*
X140448149Y-109512683D01*
X140451666Y-109526724D01*
X140453790Y-109541042D01*
X140454500Y-109555500D01*
X140454500Y-109900500D01*
X140453790Y-109914958D01*
X140451666Y-109929276D01*
X140448149Y-109943317D01*
X140443272Y-109956946D01*
X140437083Y-109970031D01*
X140429642Y-109982447D01*
X140421019Y-109994073D01*
X140411298Y-110004798D01*
X140400573Y-110014519D01*
X140388947Y-110023142D01*
X140376531Y-110030583D01*
X140363446Y-110036772D01*
X140349817Y-110041649D01*
X140335776Y-110045166D01*
X140321458Y-110047290D01*
X140307000Y-110048000D01*
X140012000Y-110048000D01*
X139997542Y-110047290D01*
X139983224Y-110045166D01*
X139969183Y-110041649D01*
X139955554Y-110036772D01*
X139942469Y-110030583D01*
X139930053Y-110023142D01*
X139918427Y-110014519D01*
X139907702Y-110004798D01*
X139897981Y-109994073D01*
X139889358Y-109982447D01*
X139881917Y-109970031D01*
X139875728Y-109956946D01*
X139870851Y-109943317D01*
X139867334Y-109929276D01*
X139865210Y-109914958D01*
X139864500Y-109900500D01*
X139864500Y-109555500D01*
X139865210Y-109541042D01*
X139867334Y-109526724D01*
X139870851Y-109512683D01*
X139875728Y-109499054D01*
X139881917Y-109485969D01*
X139889358Y-109473553D01*
X139897981Y-109461927D01*
X139907702Y-109451202D01*
X139918427Y-109441481D01*
X139930053Y-109432858D01*
X139942469Y-109425417D01*
X139955554Y-109419228D01*
X139969183Y-109414351D01*
X139983224Y-109410834D01*
X139997542Y-109408710D01*
X140012000Y-109408000D01*
X140307000Y-109408000D01*
X140321458Y-109408710D01*
G37*
G04 #@! TD.AperFunction*
G04 #@! TD*
G04 #@! TA.AperFunction,SMDPad,CuDef*
G04 #@! TO.P,C7,2*
G04 #@! TO.N,GND*
G36*
X139759958Y-100795210D02*
G01*
X139774276Y-100797334D01*
X139788317Y-100800851D01*
X139801946Y-100805728D01*
X139815031Y-100811917D01*
X139827447Y-100819358D01*
X139839073Y-100827981D01*
X139849798Y-100837702D01*
X139859519Y-100848427D01*
X139868142Y-100860053D01*
X139875583Y-100872469D01*
X139881772Y-100885554D01*
X139886649Y-100899183D01*
X139890166Y-100913224D01*
X139892290Y-100927542D01*
X139893000Y-100942000D01*
X139893000Y-101237000D01*
X139892290Y-101251458D01*
X139890166Y-101265776D01*
X139886649Y-101279817D01*
X139881772Y-101293446D01*
X139875583Y-101306531D01*
X139868142Y-101318947D01*
X139859519Y-101330573D01*
X139849798Y-101341298D01*
X139839073Y-101351019D01*
X139827447Y-101359642D01*
X139815031Y-101367083D01*
X139801946Y-101373272D01*
X139788317Y-101378149D01*
X139774276Y-101381666D01*
X139759958Y-101383790D01*
X139745500Y-101384500D01*
X139400500Y-101384500D01*
X139386042Y-101383790D01*
X139371724Y-101381666D01*
X139357683Y-101378149D01*
X139344054Y-101373272D01*
X139330969Y-101367083D01*
X139318553Y-101359642D01*
X139306927Y-101351019D01*
X139296202Y-101341298D01*
X139286481Y-101330573D01*
X139277858Y-101318947D01*
X139270417Y-101306531D01*
X139264228Y-101293446D01*
X139259351Y-101279817D01*
X139255834Y-101265776D01*
X139253710Y-101251458D01*
X139253000Y-101237000D01*
X139253000Y-100942000D01*
X139253710Y-100927542D01*
X139255834Y-100913224D01*
X139259351Y-100899183D01*
X139264228Y-100885554D01*
X139270417Y-100872469D01*
X139277858Y-100860053D01*
X139286481Y-100848427D01*
X139296202Y-100837702D01*
X139306927Y-100827981D01*
X139318553Y-100819358D01*
X139330969Y-100811917D01*
X139344054Y-100805728D01*
X139357683Y-100800851D01*
X139371724Y-100797334D01*
X139386042Y-100795210D01*
X139400500Y-100794500D01*
X139745500Y-100794500D01*
X139759958Y-100795210D01*
G37*
G04 #@! TD.AperFunction*
G04 #@! TA.AperFunction,SMDPad,CuDef*
G04 #@! TO.P,C7,1*
G04 #@! TO.N,+3V3*
G36*
X139759958Y-101765210D02*
G01*
X139774276Y-101767334D01*
X139788317Y-101770851D01*
X139801946Y-101775728D01*
X139815031Y-101781917D01*
X139827447Y-101789358D01*
X139839073Y-101797981D01*
X139849798Y-101807702D01*
X139859519Y-101818427D01*
X139868142Y-101830053D01*
X139875583Y-101842469D01*
X139881772Y-101855554D01*
X139886649Y-101869183D01*
X139890166Y-101883224D01*
X139892290Y-101897542D01*
X139893000Y-101912000D01*
X139893000Y-102207000D01*
X139892290Y-102221458D01*
X139890166Y-102235776D01*
X139886649Y-102249817D01*
X139881772Y-102263446D01*
X139875583Y-102276531D01*
X139868142Y-102288947D01*
X139859519Y-102300573D01*
X139849798Y-102311298D01*
X139839073Y-102321019D01*
X139827447Y-102329642D01*
X139815031Y-102337083D01*
X139801946Y-102343272D01*
X139788317Y-102348149D01*
X139774276Y-102351666D01*
X139759958Y-102353790D01*
X139745500Y-102354500D01*
X139400500Y-102354500D01*
X139386042Y-102353790D01*
X139371724Y-102351666D01*
X139357683Y-102348149D01*
X139344054Y-102343272D01*
X139330969Y-102337083D01*
X139318553Y-102329642D01*
X139306927Y-102321019D01*
X139296202Y-102311298D01*
X139286481Y-102300573D01*
X139277858Y-102288947D01*
X139270417Y-102276531D01*
X139264228Y-102263446D01*
X139259351Y-102249817D01*
X139255834Y-102235776D01*
X139253710Y-102221458D01*
X139253000Y-102207000D01*
X139253000Y-101912000D01*
X139253710Y-101897542D01*
X139255834Y-101883224D01*
X139259351Y-101869183D01*
X139264228Y-101855554D01*
X139270417Y-101842469D01*
X139277858Y-101830053D01*
X139286481Y-101818427D01*
X139296202Y-101807702D01*
X139306927Y-101797981D01*
X139318553Y-101789358D01*
X139330969Y-101781917D01*
X139344054Y-101775728D01*
X139357683Y-101770851D01*
X139371724Y-101767334D01*
X139386042Y-101765210D01*
X139400500Y-101764500D01*
X139745500Y-101764500D01*
X139759958Y-101765210D01*
G37*
G04 #@! TD.AperFunction*
G04 #@! TD*
G04 #@! TA.AperFunction,SMDPad,CuDef*
G04 #@! TO.P,C6,2*
G04 #@! TO.N,GND*
G36*
X145186958Y-100735710D02*
G01*
X145201276Y-100737834D01*
X145215317Y-100741351D01*
X145228946Y-100746228D01*
X145242031Y-100752417D01*
X145254447Y-100759858D01*
X145266073Y-100768481D01*
X145276798Y-100778202D01*
X145286519Y-100788927D01*
X145295142Y-100800553D01*
X145302583Y-100812969D01*
X145308772Y-100826054D01*
X145313649Y-100839683D01*
X145317166Y-100853724D01*
X145319290Y-100868042D01*
X145320000Y-100882500D01*
X145320000Y-101177500D01*
X145319290Y-101191958D01*
X145317166Y-101206276D01*
X145313649Y-101220317D01*
X145308772Y-101233946D01*
X145302583Y-101247031D01*
X145295142Y-101259447D01*
X145286519Y-101271073D01*
X145276798Y-101281798D01*
X145266073Y-101291519D01*
X145254447Y-101300142D01*
X145242031Y-101307583D01*
X145228946Y-101313772D01*
X145215317Y-101318649D01*
X145201276Y-101322166D01*
X145186958Y-101324290D01*
X145172500Y-101325000D01*
X144827500Y-101325000D01*
X144813042Y-101324290D01*
X144798724Y-101322166D01*
X144784683Y-101318649D01*
X144771054Y-101313772D01*
X144757969Y-101307583D01*
X144745553Y-101300142D01*
X144733927Y-101291519D01*
X144723202Y-101281798D01*
X144713481Y-101271073D01*
X144704858Y-101259447D01*
X144697417Y-101247031D01*
X144691228Y-101233946D01*
X144686351Y-101220317D01*
X144682834Y-101206276D01*
X144680710Y-101191958D01*
X144680000Y-101177500D01*
X144680000Y-100882500D01*
X144680710Y-100868042D01*
X144682834Y-100853724D01*
X144686351Y-100839683D01*
X144691228Y-100826054D01*
X144697417Y-100812969D01*
X144704858Y-100800553D01*
X144713481Y-100788927D01*
X144723202Y-100778202D01*
X144733927Y-100768481D01*
X144745553Y-100759858D01*
X144757969Y-100752417D01*
X144771054Y-100746228D01*
X144784683Y-100741351D01*
X144798724Y-100737834D01*
X144813042Y-100735710D01*
X144827500Y-100735000D01*
X145172500Y-100735000D01*
X145186958Y-100735710D01*
G37*
G04 #@! TD.AperFunction*
G04 #@! TA.AperFunction,SMDPad,CuDef*
G04 #@! TO.P,C6,1*
G04 #@! TO.N,VCC*
G36*
X145186958Y-101705710D02*
G01*
X145201276Y-101707834D01*
X145215317Y-101711351D01*
X145228946Y-101716228D01*
X145242031Y-101722417D01*
X145254447Y-101729858D01*
X145266073Y-101738481D01*
X145276798Y-101748202D01*
X145286519Y-101758927D01*
X145295142Y-101770553D01*
X145302583Y-101782969D01*
X145308772Y-101796054D01*
X145313649Y-101809683D01*
X145317166Y-101823724D01*
X145319290Y-101838042D01*
X145320000Y-101852500D01*
X145320000Y-102147500D01*
X145319290Y-102161958D01*
X145317166Y-102176276D01*
X145313649Y-102190317D01*
X145308772Y-102203946D01*
X145302583Y-102217031D01*
X145295142Y-102229447D01*
X145286519Y-102241073D01*
X145276798Y-102251798D01*
X145266073Y-102261519D01*
X145254447Y-102270142D01*
X145242031Y-102277583D01*
X145228946Y-102283772D01*
X145215317Y-102288649D01*
X145201276Y-102292166D01*
X145186958Y-102294290D01*
X145172500Y-102295000D01*
X144827500Y-102295000D01*
X144813042Y-102294290D01*
X144798724Y-102292166D01*
X144784683Y-102288649D01*
X144771054Y-102283772D01*
X144757969Y-102277583D01*
X144745553Y-102270142D01*
X144733927Y-102261519D01*
X144723202Y-102251798D01*
X144713481Y-102241073D01*
X144704858Y-102229447D01*
X144697417Y-102217031D01*
X144691228Y-102203946D01*
X144686351Y-102190317D01*
X144682834Y-102176276D01*
X144680710Y-102161958D01*
X144680000Y-102147500D01*
X144680000Y-101852500D01*
X144680710Y-101838042D01*
X144682834Y-101823724D01*
X144686351Y-101809683D01*
X144691228Y-101796054D01*
X144697417Y-101782969D01*
X144704858Y-101770553D01*
X144713481Y-101758927D01*
X144723202Y-101748202D01*
X144733927Y-101738481D01*
X144745553Y-101729858D01*
X144757969Y-101722417D01*
X144771054Y-101716228D01*
X144784683Y-101711351D01*
X144798724Y-101707834D01*
X144813042Y-101705710D01*
X144827500Y-101705000D01*
X145172500Y-101705000D01*
X145186958Y-101705710D01*
G37*
G04 #@! TD.AperFunction*
G04 #@! TD*
G04 #@! TA.AperFunction,SMDPad,CuDef*
G04 #@! TO.P,C5,2*
G04 #@! TO.N,GND*
G36*
X146686958Y-100705710D02*
G01*
X146701276Y-100707834D01*
X146715317Y-100711351D01*
X146728946Y-100716228D01*
X146742031Y-100722417D01*
X146754447Y-100729858D01*
X146766073Y-100738481D01*
X146776798Y-100748202D01*
X146786519Y-100758927D01*
X146795142Y-100770553D01*
X146802583Y-100782969D01*
X146808772Y-100796054D01*
X146813649Y-100809683D01*
X146817166Y-100823724D01*
X146819290Y-100838042D01*
X146820000Y-100852500D01*
X146820000Y-101147500D01*
X146819290Y-101161958D01*
X146817166Y-101176276D01*
X146813649Y-101190317D01*
X146808772Y-101203946D01*
X146802583Y-101217031D01*
X146795142Y-101229447D01*
X146786519Y-101241073D01*
X146776798Y-101251798D01*
X146766073Y-101261519D01*
X146754447Y-101270142D01*
X146742031Y-101277583D01*
X146728946Y-101283772D01*
X146715317Y-101288649D01*
X146701276Y-101292166D01*
X146686958Y-101294290D01*
X146672500Y-101295000D01*
X146327500Y-101295000D01*
X146313042Y-101294290D01*
X146298724Y-101292166D01*
X146284683Y-101288649D01*
X146271054Y-101283772D01*
X146257969Y-101277583D01*
X146245553Y-101270142D01*
X146233927Y-101261519D01*
X146223202Y-101251798D01*
X146213481Y-101241073D01*
X146204858Y-101229447D01*
X146197417Y-101217031D01*
X146191228Y-101203946D01*
X146186351Y-101190317D01*
X146182834Y-101176276D01*
X146180710Y-101161958D01*
X146180000Y-101147500D01*
X146180000Y-100852500D01*
X146180710Y-100838042D01*
X146182834Y-100823724D01*
X146186351Y-100809683D01*
X146191228Y-100796054D01*
X146197417Y-100782969D01*
X146204858Y-100770553D01*
X146213481Y-100758927D01*
X146223202Y-100748202D01*
X146233927Y-100738481D01*
X146245553Y-100729858D01*
X146257969Y-100722417D01*
X146271054Y-100716228D01*
X146284683Y-100711351D01*
X146298724Y-100707834D01*
X146313042Y-100705710D01*
X146327500Y-100705000D01*
X146672500Y-100705000D01*
X146686958Y-100705710D01*
G37*
G04 #@! TD.AperFunction*
G04 #@! TA.AperFunction,SMDPad,CuDef*
G04 #@! TO.P,C5,1*
G04 #@! TO.N,VCC*
G36*
X146686958Y-101675710D02*
G01*
X146701276Y-101677834D01*
X146715317Y-101681351D01*
X146728946Y-101686228D01*
X146742031Y-101692417D01*
X146754447Y-101699858D01*
X146766073Y-101708481D01*
X146776798Y-101718202D01*
X146786519Y-101728927D01*
X146795142Y-101740553D01*
X146802583Y-101752969D01*
X146808772Y-101766054D01*
X146813649Y-101779683D01*
X146817166Y-101793724D01*
X146819290Y-101808042D01*
X146820000Y-101822500D01*
X146820000Y-102117500D01*
X146819290Y-102131958D01*
X146817166Y-102146276D01*
X146813649Y-102160317D01*
X146808772Y-102173946D01*
X146802583Y-102187031D01*
X146795142Y-102199447D01*
X146786519Y-102211073D01*
X146776798Y-102221798D01*
X146766073Y-102231519D01*
X146754447Y-102240142D01*
X146742031Y-102247583D01*
X146728946Y-102253772D01*
X146715317Y-102258649D01*
X146701276Y-102262166D01*
X146686958Y-102264290D01*
X146672500Y-102265000D01*
X146327500Y-102265000D01*
X146313042Y-102264290D01*
X146298724Y-102262166D01*
X146284683Y-102258649D01*
X146271054Y-102253772D01*
X146257969Y-102247583D01*
X146245553Y-102240142D01*
X146233927Y-102231519D01*
X146223202Y-102221798D01*
X146213481Y-102211073D01*
X146204858Y-102199447D01*
X146197417Y-102187031D01*
X146191228Y-102173946D01*
X146186351Y-102160317D01*
X146182834Y-102146276D01*
X146180710Y-102131958D01*
X146180000Y-102117500D01*
X146180000Y-101822500D01*
X146180710Y-101808042D01*
X146182834Y-101793724D01*
X146186351Y-101779683D01*
X146191228Y-101766054D01*
X146197417Y-101752969D01*
X146204858Y-101740553D01*
X146213481Y-101728927D01*
X146223202Y-101718202D01*
X146233927Y-101708481D01*
X146245553Y-101699858D01*
X146257969Y-101692417D01*
X146271054Y-101686228D01*
X146284683Y-101681351D01*
X146298724Y-101677834D01*
X146313042Y-101675710D01*
X146327500Y-101675000D01*
X146672500Y-101675000D01*
X146686958Y-101675710D01*
G37*
G04 #@! TD.AperFunction*
G04 #@! TD*
G04 #@! TA.AperFunction,SMDPad,CuDef*
G04 #@! TO.P,C4,2*
G04 #@! TO.N,GND*
G36*
X143950958Y-108821710D02*
G01*
X143965276Y-108823834D01*
X143979317Y-108827351D01*
X143992946Y-108832228D01*
X144006031Y-108838417D01*
X144018447Y-108845858D01*
X144030073Y-108854481D01*
X144040798Y-108864202D01*
X144050519Y-108874927D01*
X144059142Y-108886553D01*
X144066583Y-108898969D01*
X144072772Y-108912054D01*
X144077649Y-108925683D01*
X144081166Y-108939724D01*
X144083290Y-108954042D01*
X144084000Y-108968500D01*
X144084000Y-109263500D01*
X144083290Y-109277958D01*
X144081166Y-109292276D01*
X144077649Y-109306317D01*
X144072772Y-109319946D01*
X144066583Y-109333031D01*
X144059142Y-109345447D01*
X144050519Y-109357073D01*
X144040798Y-109367798D01*
X144030073Y-109377519D01*
X144018447Y-109386142D01*
X144006031Y-109393583D01*
X143992946Y-109399772D01*
X143979317Y-109404649D01*
X143965276Y-109408166D01*
X143950958Y-109410290D01*
X143936500Y-109411000D01*
X143591500Y-109411000D01*
X143577042Y-109410290D01*
X143562724Y-109408166D01*
X143548683Y-109404649D01*
X143535054Y-109399772D01*
X143521969Y-109393583D01*
X143509553Y-109386142D01*
X143497927Y-109377519D01*
X143487202Y-109367798D01*
X143477481Y-109357073D01*
X143468858Y-109345447D01*
X143461417Y-109333031D01*
X143455228Y-109319946D01*
X143450351Y-109306317D01*
X143446834Y-109292276D01*
X143444710Y-109277958D01*
X143444000Y-109263500D01*
X143444000Y-108968500D01*
X143444710Y-108954042D01*
X143446834Y-108939724D01*
X143450351Y-108925683D01*
X143455228Y-108912054D01*
X143461417Y-108898969D01*
X143468858Y-108886553D01*
X143477481Y-108874927D01*
X143487202Y-108864202D01*
X143497927Y-108854481D01*
X143509553Y-108845858D01*
X143521969Y-108838417D01*
X143535054Y-108832228D01*
X143548683Y-108827351D01*
X143562724Y-108823834D01*
X143577042Y-108821710D01*
X143591500Y-108821000D01*
X143936500Y-108821000D01*
X143950958Y-108821710D01*
G37*
G04 #@! TD.AperFunction*
G04 #@! TA.AperFunction,SMDPad,CuDef*
G04 #@! TO.P,C4,1*
G04 #@! TO.N,+3V3*
G36*
X143950958Y-109791710D02*
G01*
X143965276Y-109793834D01*
X143979317Y-109797351D01*
X143992946Y-109802228D01*
X144006031Y-109808417D01*
X144018447Y-109815858D01*
X144030073Y-109824481D01*
X144040798Y-109834202D01*
X144050519Y-109844927D01*
X144059142Y-109856553D01*
X144066583Y-109868969D01*
X144072772Y-109882054D01*
X144077649Y-109895683D01*
X144081166Y-109909724D01*
X144083290Y-109924042D01*
X144084000Y-109938500D01*
X144084000Y-110233500D01*
X144083290Y-110247958D01*
X144081166Y-110262276D01*
X144077649Y-110276317D01*
X144072772Y-110289946D01*
X144066583Y-110303031D01*
X144059142Y-110315447D01*
X144050519Y-110327073D01*
X144040798Y-110337798D01*
X144030073Y-110347519D01*
X144018447Y-110356142D01*
X144006031Y-110363583D01*
X143992946Y-110369772D01*
X143979317Y-110374649D01*
X143965276Y-110378166D01*
X143950958Y-110380290D01*
X143936500Y-110381000D01*
X143591500Y-110381000D01*
X143577042Y-110380290D01*
X143562724Y-110378166D01*
X143548683Y-110374649D01*
X143535054Y-110369772D01*
X143521969Y-110363583D01*
X143509553Y-110356142D01*
X143497927Y-110347519D01*
X143487202Y-110337798D01*
X143477481Y-110327073D01*
X143468858Y-110315447D01*
X143461417Y-110303031D01*
X143455228Y-110289946D01*
X143450351Y-110276317D01*
X143446834Y-110262276D01*
X143444710Y-110247958D01*
X143444000Y-110233500D01*
X143444000Y-109938500D01*
X143444710Y-109924042D01*
X143446834Y-109909724D01*
X143450351Y-109895683D01*
X143455228Y-109882054D01*
X143461417Y-109868969D01*
X143468858Y-109856553D01*
X143477481Y-109844927D01*
X143487202Y-109834202D01*
X143497927Y-109824481D01*
X143509553Y-109815858D01*
X143521969Y-109808417D01*
X143535054Y-109802228D01*
X143548683Y-109797351D01*
X143562724Y-109793834D01*
X143577042Y-109791710D01*
X143591500Y-109791000D01*
X143936500Y-109791000D01*
X143950958Y-109791710D01*
G37*
G04 #@! TD.AperFunction*
G04 #@! TD*
G04 #@! TA.AperFunction,SMDPad,CuDef*
G04 #@! TO.P,C3,2*
G04 #@! TO.N,GND*
G36*
X152078958Y-111234710D02*
G01*
X152093276Y-111236834D01*
X152107317Y-111240351D01*
X152120946Y-111245228D01*
X152134031Y-111251417D01*
X152146447Y-111258858D01*
X152158073Y-111267481D01*
X152168798Y-111277202D01*
X152178519Y-111287927D01*
X152187142Y-111299553D01*
X152194583Y-111311969D01*
X152200772Y-111325054D01*
X152205649Y-111338683D01*
X152209166Y-111352724D01*
X152211290Y-111367042D01*
X152212000Y-111381500D01*
X152212000Y-111676500D01*
X152211290Y-111690958D01*
X152209166Y-111705276D01*
X152205649Y-111719317D01*
X152200772Y-111732946D01*
X152194583Y-111746031D01*
X152187142Y-111758447D01*
X152178519Y-111770073D01*
X152168798Y-111780798D01*
X152158073Y-111790519D01*
X152146447Y-111799142D01*
X152134031Y-111806583D01*
X152120946Y-111812772D01*
X152107317Y-111817649D01*
X152093276Y-111821166D01*
X152078958Y-111823290D01*
X152064500Y-111824000D01*
X151719500Y-111824000D01*
X151705042Y-111823290D01*
X151690724Y-111821166D01*
X151676683Y-111817649D01*
X151663054Y-111812772D01*
X151649969Y-111806583D01*
X151637553Y-111799142D01*
X151625927Y-111790519D01*
X151615202Y-111780798D01*
X151605481Y-111770073D01*
X151596858Y-111758447D01*
X151589417Y-111746031D01*
X151583228Y-111732946D01*
X151578351Y-111719317D01*
X151574834Y-111705276D01*
X151572710Y-111690958D01*
X151572000Y-111676500D01*
X151572000Y-111381500D01*
X151572710Y-111367042D01*
X151574834Y-111352724D01*
X151578351Y-111338683D01*
X151583228Y-111325054D01*
X151589417Y-111311969D01*
X151596858Y-111299553D01*
X151605481Y-111287927D01*
X151615202Y-111277202D01*
X151625927Y-111267481D01*
X151637553Y-111258858D01*
X151649969Y-111251417D01*
X151663054Y-111245228D01*
X151676683Y-111240351D01*
X151690724Y-111236834D01*
X151705042Y-111234710D01*
X151719500Y-111234000D01*
X152064500Y-111234000D01*
X152078958Y-111234710D01*
G37*
G04 #@! TD.AperFunction*
G04 #@! TA.AperFunction,SMDPad,CuDef*
G04 #@! TO.P,C3,1*
G04 #@! TO.N,+3V3*
G36*
X152078958Y-112204710D02*
G01*
X152093276Y-112206834D01*
X152107317Y-112210351D01*
X152120946Y-112215228D01*
X152134031Y-112221417D01*
X152146447Y-112228858D01*
X152158073Y-112237481D01*
X152168798Y-112247202D01*
X152178519Y-112257927D01*
X152187142Y-112269553D01*
X152194583Y-112281969D01*
X152200772Y-112295054D01*
X152205649Y-112308683D01*
X152209166Y-112322724D01*
X152211290Y-112337042D01*
X152212000Y-112351500D01*
X152212000Y-112646500D01*
X152211290Y-112660958D01*
X152209166Y-112675276D01*
X152205649Y-112689317D01*
X152200772Y-112702946D01*
X152194583Y-112716031D01*
X152187142Y-112728447D01*
X152178519Y-112740073D01*
X152168798Y-112750798D01*
X152158073Y-112760519D01*
X152146447Y-112769142D01*
X152134031Y-112776583D01*
X152120946Y-112782772D01*
X152107317Y-112787649D01*
X152093276Y-112791166D01*
X152078958Y-112793290D01*
X152064500Y-112794000D01*
X151719500Y-112794000D01*
X151705042Y-112793290D01*
X151690724Y-112791166D01*
X151676683Y-112787649D01*
X151663054Y-112782772D01*
X151649969Y-112776583D01*
X151637553Y-112769142D01*
X151625927Y-112760519D01*
X151615202Y-112750798D01*
X151605481Y-112740073D01*
X151596858Y-112728447D01*
X151589417Y-112716031D01*
X151583228Y-112702946D01*
X151578351Y-112689317D01*
X151574834Y-112675276D01*
X151572710Y-112660958D01*
X151572000Y-112646500D01*
X151572000Y-112351500D01*
X151572710Y-112337042D01*
X151574834Y-112322724D01*
X151578351Y-112308683D01*
X151583228Y-112295054D01*
X151589417Y-112281969D01*
X151596858Y-112269553D01*
X151605481Y-112257927D01*
X151615202Y-112247202D01*
X151625927Y-112237481D01*
X151637553Y-112228858D01*
X151649969Y-112221417D01*
X151663054Y-112215228D01*
X151676683Y-112210351D01*
X151690724Y-112206834D01*
X151705042Y-112204710D01*
X151719500Y-112204000D01*
X152064500Y-112204000D01*
X152078958Y-112204710D01*
G37*
G04 #@! TD.AperFunction*
G04 #@! TD*
G04 #@! TA.AperFunction,SMDPad,CuDef*
G04 #@! TO.P,C2,2*
G04 #@! TO.N,GND*
G36*
X150252958Y-119314710D02*
G01*
X150267276Y-119316834D01*
X150281317Y-119320351D01*
X150294946Y-119325228D01*
X150308031Y-119331417D01*
X150320447Y-119338858D01*
X150332073Y-119347481D01*
X150342798Y-119357202D01*
X150352519Y-119367927D01*
X150361142Y-119379553D01*
X150368583Y-119391969D01*
X150374772Y-119405054D01*
X150379649Y-119418683D01*
X150383166Y-119432724D01*
X150385290Y-119447042D01*
X150386000Y-119461500D01*
X150386000Y-119806500D01*
X150385290Y-119820958D01*
X150383166Y-119835276D01*
X150379649Y-119849317D01*
X150374772Y-119862946D01*
X150368583Y-119876031D01*
X150361142Y-119888447D01*
X150352519Y-119900073D01*
X150342798Y-119910798D01*
X150332073Y-119920519D01*
X150320447Y-119929142D01*
X150308031Y-119936583D01*
X150294946Y-119942772D01*
X150281317Y-119947649D01*
X150267276Y-119951166D01*
X150252958Y-119953290D01*
X150238500Y-119954000D01*
X149943500Y-119954000D01*
X149929042Y-119953290D01*
X149914724Y-119951166D01*
X149900683Y-119947649D01*
X149887054Y-119942772D01*
X149873969Y-119936583D01*
X149861553Y-119929142D01*
X149849927Y-119920519D01*
X149839202Y-119910798D01*
X149829481Y-119900073D01*
X149820858Y-119888447D01*
X149813417Y-119876031D01*
X149807228Y-119862946D01*
X149802351Y-119849317D01*
X149798834Y-119835276D01*
X149796710Y-119820958D01*
X149796000Y-119806500D01*
X149796000Y-119461500D01*
X149796710Y-119447042D01*
X149798834Y-119432724D01*
X149802351Y-119418683D01*
X149807228Y-119405054D01*
X149813417Y-119391969D01*
X149820858Y-119379553D01*
X149829481Y-119367927D01*
X149839202Y-119357202D01*
X149849927Y-119347481D01*
X149861553Y-119338858D01*
X149873969Y-119331417D01*
X149887054Y-119325228D01*
X149900683Y-119320351D01*
X149914724Y-119316834D01*
X149929042Y-119314710D01*
X149943500Y-119314000D01*
X150238500Y-119314000D01*
X150252958Y-119314710D01*
G37*
G04 #@! TD.AperFunction*
G04 #@! TA.AperFunction,SMDPad,CuDef*
G04 #@! TO.P,C2,1*
G04 #@! TO.N,+3V3*
G36*
X149282958Y-119314710D02*
G01*
X149297276Y-119316834D01*
X149311317Y-119320351D01*
X149324946Y-119325228D01*
X149338031Y-119331417D01*
X149350447Y-119338858D01*
X149362073Y-119347481D01*
X149372798Y-119357202D01*
X149382519Y-119367927D01*
X149391142Y-119379553D01*
X149398583Y-119391969D01*
X149404772Y-119405054D01*
X149409649Y-119418683D01*
X149413166Y-119432724D01*
X149415290Y-119447042D01*
X149416000Y-119461500D01*
X149416000Y-119806500D01*
X149415290Y-119820958D01*
X149413166Y-119835276D01*
X149409649Y-119849317D01*
X149404772Y-119862946D01*
X149398583Y-119876031D01*
X149391142Y-119888447D01*
X149382519Y-119900073D01*
X149372798Y-119910798D01*
X149362073Y-119920519D01*
X149350447Y-119929142D01*
X149338031Y-119936583D01*
X149324946Y-119942772D01*
X149311317Y-119947649D01*
X149297276Y-119951166D01*
X149282958Y-119953290D01*
X149268500Y-119954000D01*
X148973500Y-119954000D01*
X148959042Y-119953290D01*
X148944724Y-119951166D01*
X148930683Y-119947649D01*
X148917054Y-119942772D01*
X148903969Y-119936583D01*
X148891553Y-119929142D01*
X148879927Y-119920519D01*
X148869202Y-119910798D01*
X148859481Y-119900073D01*
X148850858Y-119888447D01*
X148843417Y-119876031D01*
X148837228Y-119862946D01*
X148832351Y-119849317D01*
X148828834Y-119835276D01*
X148826710Y-119820958D01*
X148826000Y-119806500D01*
X148826000Y-119461500D01*
X148826710Y-119447042D01*
X148828834Y-119432724D01*
X148832351Y-119418683D01*
X148837228Y-119405054D01*
X148843417Y-119391969D01*
X148850858Y-119379553D01*
X148859481Y-119367927D01*
X148869202Y-119357202D01*
X148879927Y-119347481D01*
X148891553Y-119338858D01*
X148903969Y-119331417D01*
X148917054Y-119325228D01*
X148930683Y-119320351D01*
X148944724Y-119316834D01*
X148959042Y-119314710D01*
X148973500Y-119314000D01*
X149268500Y-119314000D01*
X149282958Y-119314710D01*
G37*
G04 #@! TD.AperFunction*
G04 #@! TD*
G04 #@! TA.AperFunction,SMDPad,CuDef*
G04 #@! TO.P,C1,2*
G04 #@! TO.N,GND*
G36*
X142553958Y-113497710D02*
G01*
X142568276Y-113499834D01*
X142582317Y-113503351D01*
X142595946Y-113508228D01*
X142609031Y-113514417D01*
X142621447Y-113521858D01*
X142633073Y-113530481D01*
X142643798Y-113540202D01*
X142653519Y-113550927D01*
X142662142Y-113562553D01*
X142669583Y-113574969D01*
X142675772Y-113588054D01*
X142680649Y-113601683D01*
X142684166Y-113615724D01*
X142686290Y-113630042D01*
X142687000Y-113644500D01*
X142687000Y-113939500D01*
X142686290Y-113953958D01*
X142684166Y-113968276D01*
X142680649Y-113982317D01*
X142675772Y-113995946D01*
X142669583Y-114009031D01*
X142662142Y-114021447D01*
X142653519Y-114033073D01*
X142643798Y-114043798D01*
X142633073Y-114053519D01*
X142621447Y-114062142D01*
X142609031Y-114069583D01*
X142595946Y-114075772D01*
X142582317Y-114080649D01*
X142568276Y-114084166D01*
X142553958Y-114086290D01*
X142539500Y-114087000D01*
X142194500Y-114087000D01*
X142180042Y-114086290D01*
X142165724Y-114084166D01*
X142151683Y-114080649D01*
X142138054Y-114075772D01*
X142124969Y-114069583D01*
X142112553Y-114062142D01*
X142100927Y-114053519D01*
X142090202Y-114043798D01*
X142080481Y-114033073D01*
X142071858Y-114021447D01*
X142064417Y-114009031D01*
X142058228Y-113995946D01*
X142053351Y-113982317D01*
X142049834Y-113968276D01*
X142047710Y-113953958D01*
X142047000Y-113939500D01*
X142047000Y-113644500D01*
X142047710Y-113630042D01*
X142049834Y-113615724D01*
X142053351Y-113601683D01*
X142058228Y-113588054D01*
X142064417Y-113574969D01*
X142071858Y-113562553D01*
X142080481Y-113550927D01*
X142090202Y-113540202D01*
X142100927Y-113530481D01*
X142112553Y-113521858D01*
X142124969Y-113514417D01*
X142138054Y-113508228D01*
X142151683Y-113503351D01*
X142165724Y-113499834D01*
X142180042Y-113497710D01*
X142194500Y-113497000D01*
X142539500Y-113497000D01*
X142553958Y-113497710D01*
G37*
G04 #@! TD.AperFunction*
G04 #@! TA.AperFunction,SMDPad,CuDef*
G04 #@! TO.P,C1,1*
G04 #@! TO.N,NRTS*
G36*
X142553958Y-114467710D02*
G01*
X142568276Y-114469834D01*
X142582317Y-114473351D01*
X142595946Y-114478228D01*
X142609031Y-114484417D01*
X142621447Y-114491858D01*
X142633073Y-114500481D01*
X142643798Y-114510202D01*
X142653519Y-114520927D01*
X142662142Y-114532553D01*
X142669583Y-114544969D01*
X142675772Y-114558054D01*
X142680649Y-114571683D01*
X142684166Y-114585724D01*
X142686290Y-114600042D01*
X142687000Y-114614500D01*
X142687000Y-114909500D01*
X142686290Y-114923958D01*
X142684166Y-114938276D01*
X142680649Y-114952317D01*
X142675772Y-114965946D01*
X142669583Y-114979031D01*
X142662142Y-114991447D01*
X142653519Y-115003073D01*
X142643798Y-115013798D01*
X142633073Y-115023519D01*
X142621447Y-115032142D01*
X142609031Y-115039583D01*
X142595946Y-115045772D01*
X142582317Y-115050649D01*
X142568276Y-115054166D01*
X142553958Y-115056290D01*
X142539500Y-115057000D01*
X142194500Y-115057000D01*
X142180042Y-115056290D01*
X142165724Y-115054166D01*
X142151683Y-115050649D01*
X142138054Y-115045772D01*
X142124969Y-115039583D01*
X142112553Y-115032142D01*
X142100927Y-115023519D01*
X142090202Y-115013798D01*
X142080481Y-115003073D01*
X142071858Y-114991447D01*
X142064417Y-114979031D01*
X142058228Y-114965946D01*
X142053351Y-114952317D01*
X142049834Y-114938276D01*
X142047710Y-114923958D01*
X142047000Y-114909500D01*
X142047000Y-114614500D01*
X142047710Y-114600042D01*
X142049834Y-114585724D01*
X142053351Y-114571683D01*
X142058228Y-114558054D01*
X142064417Y-114544969D01*
X142071858Y-114532553D01*
X142080481Y-114520927D01*
X142090202Y-114510202D01*
X142100927Y-114500481D01*
X142112553Y-114491858D01*
X142124969Y-114484417D01*
X142138054Y-114478228D01*
X142151683Y-114473351D01*
X142165724Y-114469834D01*
X142180042Y-114467710D01*
X142194500Y-114467000D01*
X142539500Y-114467000D01*
X142553958Y-114467710D01*
G37*
G04 #@! TD.AperFunction*
G04 #@! TD*
G04 #@! TA.AperFunction,SMDPad,CuDef*
G04 #@! TO.P,U1,48*
G04 #@! TO.N,+3V3*
G36*
X144377126Y-110930801D02*
G01*
X144383193Y-110931701D01*
X144389143Y-110933191D01*
X144394918Y-110935258D01*
X144400462Y-110937880D01*
X144405723Y-110941033D01*
X144410650Y-110944687D01*
X144415194Y-110948806D01*
X144419313Y-110953350D01*
X144422967Y-110958277D01*
X144426120Y-110963538D01*
X144428742Y-110969082D01*
X144430809Y-110974857D01*
X144432299Y-110980807D01*
X144433199Y-110986874D01*
X144433500Y-110993000D01*
X144433500Y-111743000D01*
X144433199Y-111749126D01*
X144432299Y-111755193D01*
X144430809Y-111761143D01*
X144428742Y-111766918D01*
X144426120Y-111772462D01*
X144422967Y-111777723D01*
X144419313Y-111782650D01*
X144415194Y-111787194D01*
X144410650Y-111791313D01*
X144405723Y-111794967D01*
X144400462Y-111798120D01*
X144394918Y-111800742D01*
X144389143Y-111802809D01*
X144383193Y-111804299D01*
X144377126Y-111805199D01*
X144371000Y-111805500D01*
X144246000Y-111805500D01*
X144239874Y-111805199D01*
X144233807Y-111804299D01*
X144227857Y-111802809D01*
X144222082Y-111800742D01*
X144216538Y-111798120D01*
X144211277Y-111794967D01*
X144206350Y-111791313D01*
X144201806Y-111787194D01*
X144197687Y-111782650D01*
X144194033Y-111777723D01*
X144190880Y-111772462D01*
X144188258Y-111766918D01*
X144186191Y-111761143D01*
X144184701Y-111755193D01*
X144183801Y-111749126D01*
X144183500Y-111743000D01*
X144183500Y-110993000D01*
X144183801Y-110986874D01*
X144184701Y-110980807D01*
X144186191Y-110974857D01*
X144188258Y-110969082D01*
X144190880Y-110963538D01*
X144194033Y-110958277D01*
X144197687Y-110953350D01*
X144201806Y-110948806D01*
X144206350Y-110944687D01*
X144211277Y-110941033D01*
X144216538Y-110937880D01*
X144222082Y-110935258D01*
X144227857Y-110933191D01*
X144233807Y-110931701D01*
X144239874Y-110930801D01*
X144246000Y-110930500D01*
X144371000Y-110930500D01*
X144377126Y-110930801D01*
G37*
G04 #@! TD.AperFunction*
G04 #@! TA.AperFunction,SMDPad,CuDef*
G04 #@! TO.P,U1,47*
G04 #@! TO.N,Net-(U1-Pad47)*
G36*
X144877126Y-110930801D02*
G01*
X144883193Y-110931701D01*
X144889143Y-110933191D01*
X144894918Y-110935258D01*
X144900462Y-110937880D01*
X144905723Y-110941033D01*
X144910650Y-110944687D01*
X144915194Y-110948806D01*
X144919313Y-110953350D01*
X144922967Y-110958277D01*
X144926120Y-110963538D01*
X144928742Y-110969082D01*
X144930809Y-110974857D01*
X144932299Y-110980807D01*
X144933199Y-110986874D01*
X144933500Y-110993000D01*
X144933500Y-111743000D01*
X144933199Y-111749126D01*
X144932299Y-111755193D01*
X144930809Y-111761143D01*
X144928742Y-111766918D01*
X144926120Y-111772462D01*
X144922967Y-111777723D01*
X144919313Y-111782650D01*
X144915194Y-111787194D01*
X144910650Y-111791313D01*
X144905723Y-111794967D01*
X144900462Y-111798120D01*
X144894918Y-111800742D01*
X144889143Y-111802809D01*
X144883193Y-111804299D01*
X144877126Y-111805199D01*
X144871000Y-111805500D01*
X144746000Y-111805500D01*
X144739874Y-111805199D01*
X144733807Y-111804299D01*
X144727857Y-111802809D01*
X144722082Y-111800742D01*
X144716538Y-111798120D01*
X144711277Y-111794967D01*
X144706350Y-111791313D01*
X144701806Y-111787194D01*
X144697687Y-111782650D01*
X144694033Y-111777723D01*
X144690880Y-111772462D01*
X144688258Y-111766918D01*
X144686191Y-111761143D01*
X144684701Y-111755193D01*
X144683801Y-111749126D01*
X144683500Y-111743000D01*
X144683500Y-110993000D01*
X144683801Y-110986874D01*
X144684701Y-110980807D01*
X144686191Y-110974857D01*
X144688258Y-110969082D01*
X144690880Y-110963538D01*
X144694033Y-110958277D01*
X144697687Y-110953350D01*
X144701806Y-110948806D01*
X144706350Y-110944687D01*
X144711277Y-110941033D01*
X144716538Y-110937880D01*
X144722082Y-110935258D01*
X144727857Y-110933191D01*
X144733807Y-110931701D01*
X144739874Y-110930801D01*
X144746000Y-110930500D01*
X144871000Y-110930500D01*
X144877126Y-110930801D01*
G37*
G04 #@! TD.AperFunction*
G04 #@! TA.AperFunction,SMDPad,CuDef*
G04 #@! TO.P,U1,46*
G04 #@! TO.N,Net-(U1-Pad46)*
G36*
X145377126Y-110930801D02*
G01*
X145383193Y-110931701D01*
X145389143Y-110933191D01*
X145394918Y-110935258D01*
X145400462Y-110937880D01*
X145405723Y-110941033D01*
X145410650Y-110944687D01*
X145415194Y-110948806D01*
X145419313Y-110953350D01*
X145422967Y-110958277D01*
X145426120Y-110963538D01*
X145428742Y-110969082D01*
X145430809Y-110974857D01*
X145432299Y-110980807D01*
X145433199Y-110986874D01*
X145433500Y-110993000D01*
X145433500Y-111743000D01*
X145433199Y-111749126D01*
X145432299Y-111755193D01*
X145430809Y-111761143D01*
X145428742Y-111766918D01*
X145426120Y-111772462D01*
X145422967Y-111777723D01*
X145419313Y-111782650D01*
X145415194Y-111787194D01*
X145410650Y-111791313D01*
X145405723Y-111794967D01*
X145400462Y-111798120D01*
X145394918Y-111800742D01*
X145389143Y-111802809D01*
X145383193Y-111804299D01*
X145377126Y-111805199D01*
X145371000Y-111805500D01*
X145246000Y-111805500D01*
X145239874Y-111805199D01*
X145233807Y-111804299D01*
X145227857Y-111802809D01*
X145222082Y-111800742D01*
X145216538Y-111798120D01*
X145211277Y-111794967D01*
X145206350Y-111791313D01*
X145201806Y-111787194D01*
X145197687Y-111782650D01*
X145194033Y-111777723D01*
X145190880Y-111772462D01*
X145188258Y-111766918D01*
X145186191Y-111761143D01*
X145184701Y-111755193D01*
X145183801Y-111749126D01*
X145183500Y-111743000D01*
X145183500Y-110993000D01*
X145183801Y-110986874D01*
X145184701Y-110980807D01*
X145186191Y-110974857D01*
X145188258Y-110969082D01*
X145190880Y-110963538D01*
X145194033Y-110958277D01*
X145197687Y-110953350D01*
X145201806Y-110948806D01*
X145206350Y-110944687D01*
X145211277Y-110941033D01*
X145216538Y-110937880D01*
X145222082Y-110935258D01*
X145227857Y-110933191D01*
X145233807Y-110931701D01*
X145239874Y-110930801D01*
X145246000Y-110930500D01*
X145371000Y-110930500D01*
X145377126Y-110930801D01*
G37*
G04 #@! TD.AperFunction*
G04 #@! TA.AperFunction,SMDPad,CuDef*
G04 #@! TO.P,U1,45*
G04 #@! TO.N,I2C_SDA*
G36*
X145877126Y-110930801D02*
G01*
X145883193Y-110931701D01*
X145889143Y-110933191D01*
X145894918Y-110935258D01*
X145900462Y-110937880D01*
X145905723Y-110941033D01*
X145910650Y-110944687D01*
X145915194Y-110948806D01*
X145919313Y-110953350D01*
X145922967Y-110958277D01*
X145926120Y-110963538D01*
X145928742Y-110969082D01*
X145930809Y-110974857D01*
X145932299Y-110980807D01*
X145933199Y-110986874D01*
X145933500Y-110993000D01*
X145933500Y-111743000D01*
X145933199Y-111749126D01*
X145932299Y-111755193D01*
X145930809Y-111761143D01*
X145928742Y-111766918D01*
X145926120Y-111772462D01*
X145922967Y-111777723D01*
X145919313Y-111782650D01*
X145915194Y-111787194D01*
X145910650Y-111791313D01*
X145905723Y-111794967D01*
X145900462Y-111798120D01*
X145894918Y-111800742D01*
X145889143Y-111802809D01*
X145883193Y-111804299D01*
X145877126Y-111805199D01*
X145871000Y-111805500D01*
X145746000Y-111805500D01*
X145739874Y-111805199D01*
X145733807Y-111804299D01*
X145727857Y-111802809D01*
X145722082Y-111800742D01*
X145716538Y-111798120D01*
X145711277Y-111794967D01*
X145706350Y-111791313D01*
X145701806Y-111787194D01*
X145697687Y-111782650D01*
X145694033Y-111777723D01*
X145690880Y-111772462D01*
X145688258Y-111766918D01*
X145686191Y-111761143D01*
X145684701Y-111755193D01*
X145683801Y-111749126D01*
X145683500Y-111743000D01*
X145683500Y-110993000D01*
X145683801Y-110986874D01*
X145684701Y-110980807D01*
X145686191Y-110974857D01*
X145688258Y-110969082D01*
X145690880Y-110963538D01*
X145694033Y-110958277D01*
X145697687Y-110953350D01*
X145701806Y-110948806D01*
X145706350Y-110944687D01*
X145711277Y-110941033D01*
X145716538Y-110937880D01*
X145722082Y-110935258D01*
X145727857Y-110933191D01*
X145733807Y-110931701D01*
X145739874Y-110930801D01*
X145746000Y-110930500D01*
X145871000Y-110930500D01*
X145877126Y-110930801D01*
G37*
G04 #@! TD.AperFunction*
G04 #@! TA.AperFunction,SMDPad,CuDef*
G04 #@! TO.P,U1,44*
G04 #@! TO.N,I2C_SCL*
G36*
X146377126Y-110930801D02*
G01*
X146383193Y-110931701D01*
X146389143Y-110933191D01*
X146394918Y-110935258D01*
X146400462Y-110937880D01*
X146405723Y-110941033D01*
X146410650Y-110944687D01*
X146415194Y-110948806D01*
X146419313Y-110953350D01*
X146422967Y-110958277D01*
X146426120Y-110963538D01*
X146428742Y-110969082D01*
X146430809Y-110974857D01*
X146432299Y-110980807D01*
X146433199Y-110986874D01*
X146433500Y-110993000D01*
X146433500Y-111743000D01*
X146433199Y-111749126D01*
X146432299Y-111755193D01*
X146430809Y-111761143D01*
X146428742Y-111766918D01*
X146426120Y-111772462D01*
X146422967Y-111777723D01*
X146419313Y-111782650D01*
X146415194Y-111787194D01*
X146410650Y-111791313D01*
X146405723Y-111794967D01*
X146400462Y-111798120D01*
X146394918Y-111800742D01*
X146389143Y-111802809D01*
X146383193Y-111804299D01*
X146377126Y-111805199D01*
X146371000Y-111805500D01*
X146246000Y-111805500D01*
X146239874Y-111805199D01*
X146233807Y-111804299D01*
X146227857Y-111802809D01*
X146222082Y-111800742D01*
X146216538Y-111798120D01*
X146211277Y-111794967D01*
X146206350Y-111791313D01*
X146201806Y-111787194D01*
X146197687Y-111782650D01*
X146194033Y-111777723D01*
X146190880Y-111772462D01*
X146188258Y-111766918D01*
X146186191Y-111761143D01*
X146184701Y-111755193D01*
X146183801Y-111749126D01*
X146183500Y-111743000D01*
X146183500Y-110993000D01*
X146183801Y-110986874D01*
X146184701Y-110980807D01*
X146186191Y-110974857D01*
X146188258Y-110969082D01*
X146190880Y-110963538D01*
X146194033Y-110958277D01*
X146197687Y-110953350D01*
X146201806Y-110948806D01*
X146206350Y-110944687D01*
X146211277Y-110941033D01*
X146216538Y-110937880D01*
X146222082Y-110935258D01*
X146227857Y-110933191D01*
X146233807Y-110931701D01*
X146239874Y-110930801D01*
X146246000Y-110930500D01*
X146371000Y-110930500D01*
X146377126Y-110930801D01*
G37*
G04 #@! TD.AperFunction*
G04 #@! TA.AperFunction,SMDPad,CuDef*
G04 #@! TO.P,U1,43*
G04 #@! TO.N,Net-(U1-Pad43)*
G36*
X146877126Y-110930801D02*
G01*
X146883193Y-110931701D01*
X146889143Y-110933191D01*
X146894918Y-110935258D01*
X146900462Y-110937880D01*
X146905723Y-110941033D01*
X146910650Y-110944687D01*
X146915194Y-110948806D01*
X146919313Y-110953350D01*
X146922967Y-110958277D01*
X146926120Y-110963538D01*
X146928742Y-110969082D01*
X146930809Y-110974857D01*
X146932299Y-110980807D01*
X146933199Y-110986874D01*
X146933500Y-110993000D01*
X146933500Y-111743000D01*
X146933199Y-111749126D01*
X146932299Y-111755193D01*
X146930809Y-111761143D01*
X146928742Y-111766918D01*
X146926120Y-111772462D01*
X146922967Y-111777723D01*
X146919313Y-111782650D01*
X146915194Y-111787194D01*
X146910650Y-111791313D01*
X146905723Y-111794967D01*
X146900462Y-111798120D01*
X146894918Y-111800742D01*
X146889143Y-111802809D01*
X146883193Y-111804299D01*
X146877126Y-111805199D01*
X146871000Y-111805500D01*
X146746000Y-111805500D01*
X146739874Y-111805199D01*
X146733807Y-111804299D01*
X146727857Y-111802809D01*
X146722082Y-111800742D01*
X146716538Y-111798120D01*
X146711277Y-111794967D01*
X146706350Y-111791313D01*
X146701806Y-111787194D01*
X146697687Y-111782650D01*
X146694033Y-111777723D01*
X146690880Y-111772462D01*
X146688258Y-111766918D01*
X146686191Y-111761143D01*
X146684701Y-111755193D01*
X146683801Y-111749126D01*
X146683500Y-111743000D01*
X146683500Y-110993000D01*
X146683801Y-110986874D01*
X146684701Y-110980807D01*
X146686191Y-110974857D01*
X146688258Y-110969082D01*
X146690880Y-110963538D01*
X146694033Y-110958277D01*
X146697687Y-110953350D01*
X146701806Y-110948806D01*
X146706350Y-110944687D01*
X146711277Y-110941033D01*
X146716538Y-110937880D01*
X146722082Y-110935258D01*
X146727857Y-110933191D01*
X146733807Y-110931701D01*
X146739874Y-110930801D01*
X146746000Y-110930500D01*
X146871000Y-110930500D01*
X146877126Y-110930801D01*
G37*
G04 #@! TD.AperFunction*
G04 #@! TA.AperFunction,SMDPad,CuDef*
G04 #@! TO.P,U1,42*
G04 #@! TO.N,Net-(U1-Pad42)*
G36*
X147377126Y-110930801D02*
G01*
X147383193Y-110931701D01*
X147389143Y-110933191D01*
X147394918Y-110935258D01*
X147400462Y-110937880D01*
X147405723Y-110941033D01*
X147410650Y-110944687D01*
X147415194Y-110948806D01*
X147419313Y-110953350D01*
X147422967Y-110958277D01*
X147426120Y-110963538D01*
X147428742Y-110969082D01*
X147430809Y-110974857D01*
X147432299Y-110980807D01*
X147433199Y-110986874D01*
X147433500Y-110993000D01*
X147433500Y-111743000D01*
X147433199Y-111749126D01*
X147432299Y-111755193D01*
X147430809Y-111761143D01*
X147428742Y-111766918D01*
X147426120Y-111772462D01*
X147422967Y-111777723D01*
X147419313Y-111782650D01*
X147415194Y-111787194D01*
X147410650Y-111791313D01*
X147405723Y-111794967D01*
X147400462Y-111798120D01*
X147394918Y-111800742D01*
X147389143Y-111802809D01*
X147383193Y-111804299D01*
X147377126Y-111805199D01*
X147371000Y-111805500D01*
X147246000Y-111805500D01*
X147239874Y-111805199D01*
X147233807Y-111804299D01*
X147227857Y-111802809D01*
X147222082Y-111800742D01*
X147216538Y-111798120D01*
X147211277Y-111794967D01*
X147206350Y-111791313D01*
X147201806Y-111787194D01*
X147197687Y-111782650D01*
X147194033Y-111777723D01*
X147190880Y-111772462D01*
X147188258Y-111766918D01*
X147186191Y-111761143D01*
X147184701Y-111755193D01*
X147183801Y-111749126D01*
X147183500Y-111743000D01*
X147183500Y-110993000D01*
X147183801Y-110986874D01*
X147184701Y-110980807D01*
X147186191Y-110974857D01*
X147188258Y-110969082D01*
X147190880Y-110963538D01*
X147194033Y-110958277D01*
X147197687Y-110953350D01*
X147201806Y-110948806D01*
X147206350Y-110944687D01*
X147211277Y-110941033D01*
X147216538Y-110937880D01*
X147222082Y-110935258D01*
X147227857Y-110933191D01*
X147233807Y-110931701D01*
X147239874Y-110930801D01*
X147246000Y-110930500D01*
X147371000Y-110930500D01*
X147377126Y-110930801D01*
G37*
G04 #@! TD.AperFunction*
G04 #@! TA.AperFunction,SMDPad,CuDef*
G04 #@! TO.P,U1,41*
G04 #@! TO.N,Net-(U1-Pad41)*
G36*
X147877126Y-110930801D02*
G01*
X147883193Y-110931701D01*
X147889143Y-110933191D01*
X147894918Y-110935258D01*
X147900462Y-110937880D01*
X147905723Y-110941033D01*
X147910650Y-110944687D01*
X147915194Y-110948806D01*
X147919313Y-110953350D01*
X147922967Y-110958277D01*
X147926120Y-110963538D01*
X147928742Y-110969082D01*
X147930809Y-110974857D01*
X147932299Y-110980807D01*
X147933199Y-110986874D01*
X147933500Y-110993000D01*
X147933500Y-111743000D01*
X147933199Y-111749126D01*
X147932299Y-111755193D01*
X147930809Y-111761143D01*
X147928742Y-111766918D01*
X147926120Y-111772462D01*
X147922967Y-111777723D01*
X147919313Y-111782650D01*
X147915194Y-111787194D01*
X147910650Y-111791313D01*
X147905723Y-111794967D01*
X147900462Y-111798120D01*
X147894918Y-111800742D01*
X147889143Y-111802809D01*
X147883193Y-111804299D01*
X147877126Y-111805199D01*
X147871000Y-111805500D01*
X147746000Y-111805500D01*
X147739874Y-111805199D01*
X147733807Y-111804299D01*
X147727857Y-111802809D01*
X147722082Y-111800742D01*
X147716538Y-111798120D01*
X147711277Y-111794967D01*
X147706350Y-111791313D01*
X147701806Y-111787194D01*
X147697687Y-111782650D01*
X147694033Y-111777723D01*
X147690880Y-111772462D01*
X147688258Y-111766918D01*
X147686191Y-111761143D01*
X147684701Y-111755193D01*
X147683801Y-111749126D01*
X147683500Y-111743000D01*
X147683500Y-110993000D01*
X147683801Y-110986874D01*
X147684701Y-110980807D01*
X147686191Y-110974857D01*
X147688258Y-110969082D01*
X147690880Y-110963538D01*
X147694033Y-110958277D01*
X147697687Y-110953350D01*
X147701806Y-110948806D01*
X147706350Y-110944687D01*
X147711277Y-110941033D01*
X147716538Y-110937880D01*
X147722082Y-110935258D01*
X147727857Y-110933191D01*
X147733807Y-110931701D01*
X147739874Y-110930801D01*
X147746000Y-110930500D01*
X147871000Y-110930500D01*
X147877126Y-110930801D01*
G37*
G04 #@! TD.AperFunction*
G04 #@! TA.AperFunction,SMDPad,CuDef*
G04 #@! TO.P,U1,40*
G04 #@! TO.N,Net-(U1-Pad40)*
G36*
X148377126Y-110930801D02*
G01*
X148383193Y-110931701D01*
X148389143Y-110933191D01*
X148394918Y-110935258D01*
X148400462Y-110937880D01*
X148405723Y-110941033D01*
X148410650Y-110944687D01*
X148415194Y-110948806D01*
X148419313Y-110953350D01*
X148422967Y-110958277D01*
X148426120Y-110963538D01*
X148428742Y-110969082D01*
X148430809Y-110974857D01*
X148432299Y-110980807D01*
X148433199Y-110986874D01*
X148433500Y-110993000D01*
X148433500Y-111743000D01*
X148433199Y-111749126D01*
X148432299Y-111755193D01*
X148430809Y-111761143D01*
X148428742Y-111766918D01*
X148426120Y-111772462D01*
X148422967Y-111777723D01*
X148419313Y-111782650D01*
X148415194Y-111787194D01*
X148410650Y-111791313D01*
X148405723Y-111794967D01*
X148400462Y-111798120D01*
X148394918Y-111800742D01*
X148389143Y-111802809D01*
X148383193Y-111804299D01*
X148377126Y-111805199D01*
X148371000Y-111805500D01*
X148246000Y-111805500D01*
X148239874Y-111805199D01*
X148233807Y-111804299D01*
X148227857Y-111802809D01*
X148222082Y-111800742D01*
X148216538Y-111798120D01*
X148211277Y-111794967D01*
X148206350Y-111791313D01*
X148201806Y-111787194D01*
X148197687Y-111782650D01*
X148194033Y-111777723D01*
X148190880Y-111772462D01*
X148188258Y-111766918D01*
X148186191Y-111761143D01*
X148184701Y-111755193D01*
X148183801Y-111749126D01*
X148183500Y-111743000D01*
X148183500Y-110993000D01*
X148183801Y-110986874D01*
X148184701Y-110980807D01*
X148186191Y-110974857D01*
X148188258Y-110969082D01*
X148190880Y-110963538D01*
X148194033Y-110958277D01*
X148197687Y-110953350D01*
X148201806Y-110948806D01*
X148206350Y-110944687D01*
X148211277Y-110941033D01*
X148216538Y-110937880D01*
X148222082Y-110935258D01*
X148227857Y-110933191D01*
X148233807Y-110931701D01*
X148239874Y-110930801D01*
X148246000Y-110930500D01*
X148371000Y-110930500D01*
X148377126Y-110930801D01*
G37*
G04 #@! TD.AperFunction*
G04 #@! TA.AperFunction,SMDPad,CuDef*
G04 #@! TO.P,U1,39*
G04 #@! TO.N,Net-(U1-Pad39)*
G36*
X148877126Y-110930801D02*
G01*
X148883193Y-110931701D01*
X148889143Y-110933191D01*
X148894918Y-110935258D01*
X148900462Y-110937880D01*
X148905723Y-110941033D01*
X148910650Y-110944687D01*
X148915194Y-110948806D01*
X148919313Y-110953350D01*
X148922967Y-110958277D01*
X148926120Y-110963538D01*
X148928742Y-110969082D01*
X148930809Y-110974857D01*
X148932299Y-110980807D01*
X148933199Y-110986874D01*
X148933500Y-110993000D01*
X148933500Y-111743000D01*
X148933199Y-111749126D01*
X148932299Y-111755193D01*
X148930809Y-111761143D01*
X148928742Y-111766918D01*
X148926120Y-111772462D01*
X148922967Y-111777723D01*
X148919313Y-111782650D01*
X148915194Y-111787194D01*
X148910650Y-111791313D01*
X148905723Y-111794967D01*
X148900462Y-111798120D01*
X148894918Y-111800742D01*
X148889143Y-111802809D01*
X148883193Y-111804299D01*
X148877126Y-111805199D01*
X148871000Y-111805500D01*
X148746000Y-111805500D01*
X148739874Y-111805199D01*
X148733807Y-111804299D01*
X148727857Y-111802809D01*
X148722082Y-111800742D01*
X148716538Y-111798120D01*
X148711277Y-111794967D01*
X148706350Y-111791313D01*
X148701806Y-111787194D01*
X148697687Y-111782650D01*
X148694033Y-111777723D01*
X148690880Y-111772462D01*
X148688258Y-111766918D01*
X148686191Y-111761143D01*
X148684701Y-111755193D01*
X148683801Y-111749126D01*
X148683500Y-111743000D01*
X148683500Y-110993000D01*
X148683801Y-110986874D01*
X148684701Y-110980807D01*
X148686191Y-110974857D01*
X148688258Y-110969082D01*
X148690880Y-110963538D01*
X148694033Y-110958277D01*
X148697687Y-110953350D01*
X148701806Y-110948806D01*
X148706350Y-110944687D01*
X148711277Y-110941033D01*
X148716538Y-110937880D01*
X148722082Y-110935258D01*
X148727857Y-110933191D01*
X148733807Y-110931701D01*
X148739874Y-110930801D01*
X148746000Y-110930500D01*
X148871000Y-110930500D01*
X148877126Y-110930801D01*
G37*
G04 #@! TD.AperFunction*
G04 #@! TA.AperFunction,SMDPad,CuDef*
G04 #@! TO.P,U1,38*
G04 #@! TO.N,Net-(U1-Pad38)*
G36*
X149377126Y-110930801D02*
G01*
X149383193Y-110931701D01*
X149389143Y-110933191D01*
X149394918Y-110935258D01*
X149400462Y-110937880D01*
X149405723Y-110941033D01*
X149410650Y-110944687D01*
X149415194Y-110948806D01*
X149419313Y-110953350D01*
X149422967Y-110958277D01*
X149426120Y-110963538D01*
X149428742Y-110969082D01*
X149430809Y-110974857D01*
X149432299Y-110980807D01*
X149433199Y-110986874D01*
X149433500Y-110993000D01*
X149433500Y-111743000D01*
X149433199Y-111749126D01*
X149432299Y-111755193D01*
X149430809Y-111761143D01*
X149428742Y-111766918D01*
X149426120Y-111772462D01*
X149422967Y-111777723D01*
X149419313Y-111782650D01*
X149415194Y-111787194D01*
X149410650Y-111791313D01*
X149405723Y-111794967D01*
X149400462Y-111798120D01*
X149394918Y-111800742D01*
X149389143Y-111802809D01*
X149383193Y-111804299D01*
X149377126Y-111805199D01*
X149371000Y-111805500D01*
X149246000Y-111805500D01*
X149239874Y-111805199D01*
X149233807Y-111804299D01*
X149227857Y-111802809D01*
X149222082Y-111800742D01*
X149216538Y-111798120D01*
X149211277Y-111794967D01*
X149206350Y-111791313D01*
X149201806Y-111787194D01*
X149197687Y-111782650D01*
X149194033Y-111777723D01*
X149190880Y-111772462D01*
X149188258Y-111766918D01*
X149186191Y-111761143D01*
X149184701Y-111755193D01*
X149183801Y-111749126D01*
X149183500Y-111743000D01*
X149183500Y-110993000D01*
X149183801Y-110986874D01*
X149184701Y-110980807D01*
X149186191Y-110974857D01*
X149188258Y-110969082D01*
X149190880Y-110963538D01*
X149194033Y-110958277D01*
X149197687Y-110953350D01*
X149201806Y-110948806D01*
X149206350Y-110944687D01*
X149211277Y-110941033D01*
X149216538Y-110937880D01*
X149222082Y-110935258D01*
X149227857Y-110933191D01*
X149233807Y-110931701D01*
X149239874Y-110930801D01*
X149246000Y-110930500D01*
X149371000Y-110930500D01*
X149377126Y-110930801D01*
G37*
G04 #@! TD.AperFunction*
G04 #@! TA.AperFunction,SMDPad,CuDef*
G04 #@! TO.P,U1,37*
G04 #@! TO.N,JTCK-SWCLI*
G36*
X149877126Y-110930801D02*
G01*
X149883193Y-110931701D01*
X149889143Y-110933191D01*
X149894918Y-110935258D01*
X149900462Y-110937880D01*
X149905723Y-110941033D01*
X149910650Y-110944687D01*
X149915194Y-110948806D01*
X149919313Y-110953350D01*
X149922967Y-110958277D01*
X149926120Y-110963538D01*
X149928742Y-110969082D01*
X149930809Y-110974857D01*
X149932299Y-110980807D01*
X149933199Y-110986874D01*
X149933500Y-110993000D01*
X149933500Y-111743000D01*
X149933199Y-111749126D01*
X149932299Y-111755193D01*
X149930809Y-111761143D01*
X149928742Y-111766918D01*
X149926120Y-111772462D01*
X149922967Y-111777723D01*
X149919313Y-111782650D01*
X149915194Y-111787194D01*
X149910650Y-111791313D01*
X149905723Y-111794967D01*
X149900462Y-111798120D01*
X149894918Y-111800742D01*
X149889143Y-111802809D01*
X149883193Y-111804299D01*
X149877126Y-111805199D01*
X149871000Y-111805500D01*
X149746000Y-111805500D01*
X149739874Y-111805199D01*
X149733807Y-111804299D01*
X149727857Y-111802809D01*
X149722082Y-111800742D01*
X149716538Y-111798120D01*
X149711277Y-111794967D01*
X149706350Y-111791313D01*
X149701806Y-111787194D01*
X149697687Y-111782650D01*
X149694033Y-111777723D01*
X149690880Y-111772462D01*
X149688258Y-111766918D01*
X149686191Y-111761143D01*
X149684701Y-111755193D01*
X149683801Y-111749126D01*
X149683500Y-111743000D01*
X149683500Y-110993000D01*
X149683801Y-110986874D01*
X149684701Y-110980807D01*
X149686191Y-110974857D01*
X149688258Y-110969082D01*
X149690880Y-110963538D01*
X149694033Y-110958277D01*
X149697687Y-110953350D01*
X149701806Y-110948806D01*
X149706350Y-110944687D01*
X149711277Y-110941033D01*
X149716538Y-110937880D01*
X149722082Y-110935258D01*
X149727857Y-110933191D01*
X149733807Y-110931701D01*
X149739874Y-110930801D01*
X149746000Y-110930500D01*
X149871000Y-110930500D01*
X149877126Y-110930801D01*
G37*
G04 #@! TD.AperFunction*
G04 #@! TA.AperFunction,SMDPad,CuDef*
G04 #@! TO.P,U1,36*
G04 #@! TO.N,JTMS-SWDIO*
G36*
X150877126Y-111930801D02*
G01*
X150883193Y-111931701D01*
X150889143Y-111933191D01*
X150894918Y-111935258D01*
X150900462Y-111937880D01*
X150905723Y-111941033D01*
X150910650Y-111944687D01*
X150915194Y-111948806D01*
X150919313Y-111953350D01*
X150922967Y-111958277D01*
X150926120Y-111963538D01*
X150928742Y-111969082D01*
X150930809Y-111974857D01*
X150932299Y-111980807D01*
X150933199Y-111986874D01*
X150933500Y-111993000D01*
X150933500Y-112118000D01*
X150933199Y-112124126D01*
X150932299Y-112130193D01*
X150930809Y-112136143D01*
X150928742Y-112141918D01*
X150926120Y-112147462D01*
X150922967Y-112152723D01*
X150919313Y-112157650D01*
X150915194Y-112162194D01*
X150910650Y-112166313D01*
X150905723Y-112169967D01*
X150900462Y-112173120D01*
X150894918Y-112175742D01*
X150889143Y-112177809D01*
X150883193Y-112179299D01*
X150877126Y-112180199D01*
X150871000Y-112180500D01*
X150121000Y-112180500D01*
X150114874Y-112180199D01*
X150108807Y-112179299D01*
X150102857Y-112177809D01*
X150097082Y-112175742D01*
X150091538Y-112173120D01*
X150086277Y-112169967D01*
X150081350Y-112166313D01*
X150076806Y-112162194D01*
X150072687Y-112157650D01*
X150069033Y-112152723D01*
X150065880Y-112147462D01*
X150063258Y-112141918D01*
X150061191Y-112136143D01*
X150059701Y-112130193D01*
X150058801Y-112124126D01*
X150058500Y-112118000D01*
X150058500Y-111993000D01*
X150058801Y-111986874D01*
X150059701Y-111980807D01*
X150061191Y-111974857D01*
X150063258Y-111969082D01*
X150065880Y-111963538D01*
X150069033Y-111958277D01*
X150072687Y-111953350D01*
X150076806Y-111948806D01*
X150081350Y-111944687D01*
X150086277Y-111941033D01*
X150091538Y-111937880D01*
X150097082Y-111935258D01*
X150102857Y-111933191D01*
X150108807Y-111931701D01*
X150114874Y-111930801D01*
X150121000Y-111930500D01*
X150871000Y-111930500D01*
X150877126Y-111930801D01*
G37*
G04 #@! TD.AperFunction*
G04 #@! TA.AperFunction,SMDPad,CuDef*
G04 #@! TO.P,U1,35*
G04 #@! TO.N,+3V3*
G36*
X150877126Y-112430801D02*
G01*
X150883193Y-112431701D01*
X150889143Y-112433191D01*
X150894918Y-112435258D01*
X150900462Y-112437880D01*
X150905723Y-112441033D01*
X150910650Y-112444687D01*
X150915194Y-112448806D01*
X150919313Y-112453350D01*
X150922967Y-112458277D01*
X150926120Y-112463538D01*
X150928742Y-112469082D01*
X150930809Y-112474857D01*
X150932299Y-112480807D01*
X150933199Y-112486874D01*
X150933500Y-112493000D01*
X150933500Y-112618000D01*
X150933199Y-112624126D01*
X150932299Y-112630193D01*
X150930809Y-112636143D01*
X150928742Y-112641918D01*
X150926120Y-112647462D01*
X150922967Y-112652723D01*
X150919313Y-112657650D01*
X150915194Y-112662194D01*
X150910650Y-112666313D01*
X150905723Y-112669967D01*
X150900462Y-112673120D01*
X150894918Y-112675742D01*
X150889143Y-112677809D01*
X150883193Y-112679299D01*
X150877126Y-112680199D01*
X150871000Y-112680500D01*
X150121000Y-112680500D01*
X150114874Y-112680199D01*
X150108807Y-112679299D01*
X150102857Y-112677809D01*
X150097082Y-112675742D01*
X150091538Y-112673120D01*
X150086277Y-112669967D01*
X150081350Y-112666313D01*
X150076806Y-112662194D01*
X150072687Y-112657650D01*
X150069033Y-112652723D01*
X150065880Y-112647462D01*
X150063258Y-112641918D01*
X150061191Y-112636143D01*
X150059701Y-112630193D01*
X150058801Y-112624126D01*
X150058500Y-112618000D01*
X150058500Y-112493000D01*
X150058801Y-112486874D01*
X150059701Y-112480807D01*
X150061191Y-112474857D01*
X150063258Y-112469082D01*
X150065880Y-112463538D01*
X150069033Y-112458277D01*
X150072687Y-112453350D01*
X150076806Y-112448806D01*
X150081350Y-112444687D01*
X150086277Y-112441033D01*
X150091538Y-112437880D01*
X150097082Y-112435258D01*
X150102857Y-112433191D01*
X150108807Y-112431701D01*
X150114874Y-112430801D01*
X150121000Y-112430500D01*
X150871000Y-112430500D01*
X150877126Y-112430801D01*
G37*
G04 #@! TD.AperFunction*
G04 #@! TA.AperFunction,SMDPad,CuDef*
G04 #@! TO.P,U1,34*
G04 #@! TO.N,FDCAN_TX*
G36*
X150877126Y-112930801D02*
G01*
X150883193Y-112931701D01*
X150889143Y-112933191D01*
X150894918Y-112935258D01*
X150900462Y-112937880D01*
X150905723Y-112941033D01*
X150910650Y-112944687D01*
X150915194Y-112948806D01*
X150919313Y-112953350D01*
X150922967Y-112958277D01*
X150926120Y-112963538D01*
X150928742Y-112969082D01*
X150930809Y-112974857D01*
X150932299Y-112980807D01*
X150933199Y-112986874D01*
X150933500Y-112993000D01*
X150933500Y-113118000D01*
X150933199Y-113124126D01*
X150932299Y-113130193D01*
X150930809Y-113136143D01*
X150928742Y-113141918D01*
X150926120Y-113147462D01*
X150922967Y-113152723D01*
X150919313Y-113157650D01*
X150915194Y-113162194D01*
X150910650Y-113166313D01*
X150905723Y-113169967D01*
X150900462Y-113173120D01*
X150894918Y-113175742D01*
X150889143Y-113177809D01*
X150883193Y-113179299D01*
X150877126Y-113180199D01*
X150871000Y-113180500D01*
X150121000Y-113180500D01*
X150114874Y-113180199D01*
X150108807Y-113179299D01*
X150102857Y-113177809D01*
X150097082Y-113175742D01*
X150091538Y-113173120D01*
X150086277Y-113169967D01*
X150081350Y-113166313D01*
X150076806Y-113162194D01*
X150072687Y-113157650D01*
X150069033Y-113152723D01*
X150065880Y-113147462D01*
X150063258Y-113141918D01*
X150061191Y-113136143D01*
X150059701Y-113130193D01*
X150058801Y-113124126D01*
X150058500Y-113118000D01*
X150058500Y-112993000D01*
X150058801Y-112986874D01*
X150059701Y-112980807D01*
X150061191Y-112974857D01*
X150063258Y-112969082D01*
X150065880Y-112963538D01*
X150069033Y-112958277D01*
X150072687Y-112953350D01*
X150076806Y-112948806D01*
X150081350Y-112944687D01*
X150086277Y-112941033D01*
X150091538Y-112937880D01*
X150097082Y-112935258D01*
X150102857Y-112933191D01*
X150108807Y-112931701D01*
X150114874Y-112930801D01*
X150121000Y-112930500D01*
X150871000Y-112930500D01*
X150877126Y-112930801D01*
G37*
G04 #@! TD.AperFunction*
G04 #@! TA.AperFunction,SMDPad,CuDef*
G04 #@! TO.P,U1,33*
G04 #@! TO.N,FDCAN_RX*
G36*
X150877126Y-113430801D02*
G01*
X150883193Y-113431701D01*
X150889143Y-113433191D01*
X150894918Y-113435258D01*
X150900462Y-113437880D01*
X150905723Y-113441033D01*
X150910650Y-113444687D01*
X150915194Y-113448806D01*
X150919313Y-113453350D01*
X150922967Y-113458277D01*
X150926120Y-113463538D01*
X150928742Y-113469082D01*
X150930809Y-113474857D01*
X150932299Y-113480807D01*
X150933199Y-113486874D01*
X150933500Y-113493000D01*
X150933500Y-113618000D01*
X150933199Y-113624126D01*
X150932299Y-113630193D01*
X150930809Y-113636143D01*
X150928742Y-113641918D01*
X150926120Y-113647462D01*
X150922967Y-113652723D01*
X150919313Y-113657650D01*
X150915194Y-113662194D01*
X150910650Y-113666313D01*
X150905723Y-113669967D01*
X150900462Y-113673120D01*
X150894918Y-113675742D01*
X150889143Y-113677809D01*
X150883193Y-113679299D01*
X150877126Y-113680199D01*
X150871000Y-113680500D01*
X150121000Y-113680500D01*
X150114874Y-113680199D01*
X150108807Y-113679299D01*
X150102857Y-113677809D01*
X150097082Y-113675742D01*
X150091538Y-113673120D01*
X150086277Y-113669967D01*
X150081350Y-113666313D01*
X150076806Y-113662194D01*
X150072687Y-113657650D01*
X150069033Y-113652723D01*
X150065880Y-113647462D01*
X150063258Y-113641918D01*
X150061191Y-113636143D01*
X150059701Y-113630193D01*
X150058801Y-113624126D01*
X150058500Y-113618000D01*
X150058500Y-113493000D01*
X150058801Y-113486874D01*
X150059701Y-113480807D01*
X150061191Y-113474857D01*
X150063258Y-113469082D01*
X150065880Y-113463538D01*
X150069033Y-113458277D01*
X150072687Y-113453350D01*
X150076806Y-113448806D01*
X150081350Y-113444687D01*
X150086277Y-113441033D01*
X150091538Y-113437880D01*
X150097082Y-113435258D01*
X150102857Y-113433191D01*
X150108807Y-113431701D01*
X150114874Y-113430801D01*
X150121000Y-113430500D01*
X150871000Y-113430500D01*
X150877126Y-113430801D01*
G37*
G04 #@! TD.AperFunction*
G04 #@! TA.AperFunction,SMDPad,CuDef*
G04 #@! TO.P,U1,32*
G04 #@! TO.N,USART1_RX*
G36*
X150877126Y-113930801D02*
G01*
X150883193Y-113931701D01*
X150889143Y-113933191D01*
X150894918Y-113935258D01*
X150900462Y-113937880D01*
X150905723Y-113941033D01*
X150910650Y-113944687D01*
X150915194Y-113948806D01*
X150919313Y-113953350D01*
X150922967Y-113958277D01*
X150926120Y-113963538D01*
X150928742Y-113969082D01*
X150930809Y-113974857D01*
X150932299Y-113980807D01*
X150933199Y-113986874D01*
X150933500Y-113993000D01*
X150933500Y-114118000D01*
X150933199Y-114124126D01*
X150932299Y-114130193D01*
X150930809Y-114136143D01*
X150928742Y-114141918D01*
X150926120Y-114147462D01*
X150922967Y-114152723D01*
X150919313Y-114157650D01*
X150915194Y-114162194D01*
X150910650Y-114166313D01*
X150905723Y-114169967D01*
X150900462Y-114173120D01*
X150894918Y-114175742D01*
X150889143Y-114177809D01*
X150883193Y-114179299D01*
X150877126Y-114180199D01*
X150871000Y-114180500D01*
X150121000Y-114180500D01*
X150114874Y-114180199D01*
X150108807Y-114179299D01*
X150102857Y-114177809D01*
X150097082Y-114175742D01*
X150091538Y-114173120D01*
X150086277Y-114169967D01*
X150081350Y-114166313D01*
X150076806Y-114162194D01*
X150072687Y-114157650D01*
X150069033Y-114152723D01*
X150065880Y-114147462D01*
X150063258Y-114141918D01*
X150061191Y-114136143D01*
X150059701Y-114130193D01*
X150058801Y-114124126D01*
X150058500Y-114118000D01*
X150058500Y-113993000D01*
X150058801Y-113986874D01*
X150059701Y-113980807D01*
X150061191Y-113974857D01*
X150063258Y-113969082D01*
X150065880Y-113963538D01*
X150069033Y-113958277D01*
X150072687Y-113953350D01*
X150076806Y-113948806D01*
X150081350Y-113944687D01*
X150086277Y-113941033D01*
X150091538Y-113937880D01*
X150097082Y-113935258D01*
X150102857Y-113933191D01*
X150108807Y-113931701D01*
X150114874Y-113930801D01*
X150121000Y-113930500D01*
X150871000Y-113930500D01*
X150877126Y-113930801D01*
G37*
G04 #@! TD.AperFunction*
G04 #@! TA.AperFunction,SMDPad,CuDef*
G04 #@! TO.P,U1,31*
G04 #@! TO.N,USART1_TX*
G36*
X150877126Y-114430801D02*
G01*
X150883193Y-114431701D01*
X150889143Y-114433191D01*
X150894918Y-114435258D01*
X150900462Y-114437880D01*
X150905723Y-114441033D01*
X150910650Y-114444687D01*
X150915194Y-114448806D01*
X150919313Y-114453350D01*
X150922967Y-114458277D01*
X150926120Y-114463538D01*
X150928742Y-114469082D01*
X150930809Y-114474857D01*
X150932299Y-114480807D01*
X150933199Y-114486874D01*
X150933500Y-114493000D01*
X150933500Y-114618000D01*
X150933199Y-114624126D01*
X150932299Y-114630193D01*
X150930809Y-114636143D01*
X150928742Y-114641918D01*
X150926120Y-114647462D01*
X150922967Y-114652723D01*
X150919313Y-114657650D01*
X150915194Y-114662194D01*
X150910650Y-114666313D01*
X150905723Y-114669967D01*
X150900462Y-114673120D01*
X150894918Y-114675742D01*
X150889143Y-114677809D01*
X150883193Y-114679299D01*
X150877126Y-114680199D01*
X150871000Y-114680500D01*
X150121000Y-114680500D01*
X150114874Y-114680199D01*
X150108807Y-114679299D01*
X150102857Y-114677809D01*
X150097082Y-114675742D01*
X150091538Y-114673120D01*
X150086277Y-114669967D01*
X150081350Y-114666313D01*
X150076806Y-114662194D01*
X150072687Y-114657650D01*
X150069033Y-114652723D01*
X150065880Y-114647462D01*
X150063258Y-114641918D01*
X150061191Y-114636143D01*
X150059701Y-114630193D01*
X150058801Y-114624126D01*
X150058500Y-114618000D01*
X150058500Y-114493000D01*
X150058801Y-114486874D01*
X150059701Y-114480807D01*
X150061191Y-114474857D01*
X150063258Y-114469082D01*
X150065880Y-114463538D01*
X150069033Y-114458277D01*
X150072687Y-114453350D01*
X150076806Y-114448806D01*
X150081350Y-114444687D01*
X150086277Y-114441033D01*
X150091538Y-114437880D01*
X150097082Y-114435258D01*
X150102857Y-114433191D01*
X150108807Y-114431701D01*
X150114874Y-114430801D01*
X150121000Y-114430500D01*
X150871000Y-114430500D01*
X150877126Y-114430801D01*
G37*
G04 #@! TD.AperFunction*
G04 #@! TA.AperFunction,SMDPad,CuDef*
G04 #@! TO.P,U1,30*
G04 #@! TO.N,Net-(U1-Pad30)*
G36*
X150877126Y-114930801D02*
G01*
X150883193Y-114931701D01*
X150889143Y-114933191D01*
X150894918Y-114935258D01*
X150900462Y-114937880D01*
X150905723Y-114941033D01*
X150910650Y-114944687D01*
X150915194Y-114948806D01*
X150919313Y-114953350D01*
X150922967Y-114958277D01*
X150926120Y-114963538D01*
X150928742Y-114969082D01*
X150930809Y-114974857D01*
X150932299Y-114980807D01*
X150933199Y-114986874D01*
X150933500Y-114993000D01*
X150933500Y-115118000D01*
X150933199Y-115124126D01*
X150932299Y-115130193D01*
X150930809Y-115136143D01*
X150928742Y-115141918D01*
X150926120Y-115147462D01*
X150922967Y-115152723D01*
X150919313Y-115157650D01*
X150915194Y-115162194D01*
X150910650Y-115166313D01*
X150905723Y-115169967D01*
X150900462Y-115173120D01*
X150894918Y-115175742D01*
X150889143Y-115177809D01*
X150883193Y-115179299D01*
X150877126Y-115180199D01*
X150871000Y-115180500D01*
X150121000Y-115180500D01*
X150114874Y-115180199D01*
X150108807Y-115179299D01*
X150102857Y-115177809D01*
X150097082Y-115175742D01*
X150091538Y-115173120D01*
X150086277Y-115169967D01*
X150081350Y-115166313D01*
X150076806Y-115162194D01*
X150072687Y-115157650D01*
X150069033Y-115152723D01*
X150065880Y-115147462D01*
X150063258Y-115141918D01*
X150061191Y-115136143D01*
X150059701Y-115130193D01*
X150058801Y-115124126D01*
X150058500Y-115118000D01*
X150058500Y-114993000D01*
X150058801Y-114986874D01*
X150059701Y-114980807D01*
X150061191Y-114974857D01*
X150063258Y-114969082D01*
X150065880Y-114963538D01*
X150069033Y-114958277D01*
X150072687Y-114953350D01*
X150076806Y-114948806D01*
X150081350Y-114944687D01*
X150086277Y-114941033D01*
X150091538Y-114937880D01*
X150097082Y-114935258D01*
X150102857Y-114933191D01*
X150108807Y-114931701D01*
X150114874Y-114930801D01*
X150121000Y-114930500D01*
X150871000Y-114930500D01*
X150877126Y-114930801D01*
G37*
G04 #@! TD.AperFunction*
G04 #@! TA.AperFunction,SMDPad,CuDef*
G04 #@! TO.P,U1,29*
G04 #@! TO.N,Net-(U1-Pad29)*
G36*
X150877126Y-115430801D02*
G01*
X150883193Y-115431701D01*
X150889143Y-115433191D01*
X150894918Y-115435258D01*
X150900462Y-115437880D01*
X150905723Y-115441033D01*
X150910650Y-115444687D01*
X150915194Y-115448806D01*
X150919313Y-115453350D01*
X150922967Y-115458277D01*
X150926120Y-115463538D01*
X150928742Y-115469082D01*
X150930809Y-115474857D01*
X150932299Y-115480807D01*
X150933199Y-115486874D01*
X150933500Y-115493000D01*
X150933500Y-115618000D01*
X150933199Y-115624126D01*
X150932299Y-115630193D01*
X150930809Y-115636143D01*
X150928742Y-115641918D01*
X150926120Y-115647462D01*
X150922967Y-115652723D01*
X150919313Y-115657650D01*
X150915194Y-115662194D01*
X150910650Y-115666313D01*
X150905723Y-115669967D01*
X150900462Y-115673120D01*
X150894918Y-115675742D01*
X150889143Y-115677809D01*
X150883193Y-115679299D01*
X150877126Y-115680199D01*
X150871000Y-115680500D01*
X150121000Y-115680500D01*
X150114874Y-115680199D01*
X150108807Y-115679299D01*
X150102857Y-115677809D01*
X150097082Y-115675742D01*
X150091538Y-115673120D01*
X150086277Y-115669967D01*
X150081350Y-115666313D01*
X150076806Y-115662194D01*
X150072687Y-115657650D01*
X150069033Y-115652723D01*
X150065880Y-115647462D01*
X150063258Y-115641918D01*
X150061191Y-115636143D01*
X150059701Y-115630193D01*
X150058801Y-115624126D01*
X150058500Y-115618000D01*
X150058500Y-115493000D01*
X150058801Y-115486874D01*
X150059701Y-115480807D01*
X150061191Y-115474857D01*
X150063258Y-115469082D01*
X150065880Y-115463538D01*
X150069033Y-115458277D01*
X150072687Y-115453350D01*
X150076806Y-115448806D01*
X150081350Y-115444687D01*
X150086277Y-115441033D01*
X150091538Y-115437880D01*
X150097082Y-115435258D01*
X150102857Y-115433191D01*
X150108807Y-115431701D01*
X150114874Y-115430801D01*
X150121000Y-115430500D01*
X150871000Y-115430500D01*
X150877126Y-115430801D01*
G37*
G04 #@! TD.AperFunction*
G04 #@! TA.AperFunction,SMDPad,CuDef*
G04 #@! TO.P,U1,28*
G04 #@! TO.N,Net-(U1-Pad28)*
G36*
X150877126Y-115930801D02*
G01*
X150883193Y-115931701D01*
X150889143Y-115933191D01*
X150894918Y-115935258D01*
X150900462Y-115937880D01*
X150905723Y-115941033D01*
X150910650Y-115944687D01*
X150915194Y-115948806D01*
X150919313Y-115953350D01*
X150922967Y-115958277D01*
X150926120Y-115963538D01*
X150928742Y-115969082D01*
X150930809Y-115974857D01*
X150932299Y-115980807D01*
X150933199Y-115986874D01*
X150933500Y-115993000D01*
X150933500Y-116118000D01*
X150933199Y-116124126D01*
X150932299Y-116130193D01*
X150930809Y-116136143D01*
X150928742Y-116141918D01*
X150926120Y-116147462D01*
X150922967Y-116152723D01*
X150919313Y-116157650D01*
X150915194Y-116162194D01*
X150910650Y-116166313D01*
X150905723Y-116169967D01*
X150900462Y-116173120D01*
X150894918Y-116175742D01*
X150889143Y-116177809D01*
X150883193Y-116179299D01*
X150877126Y-116180199D01*
X150871000Y-116180500D01*
X150121000Y-116180500D01*
X150114874Y-116180199D01*
X150108807Y-116179299D01*
X150102857Y-116177809D01*
X150097082Y-116175742D01*
X150091538Y-116173120D01*
X150086277Y-116169967D01*
X150081350Y-116166313D01*
X150076806Y-116162194D01*
X150072687Y-116157650D01*
X150069033Y-116152723D01*
X150065880Y-116147462D01*
X150063258Y-116141918D01*
X150061191Y-116136143D01*
X150059701Y-116130193D01*
X150058801Y-116124126D01*
X150058500Y-116118000D01*
X150058500Y-115993000D01*
X150058801Y-115986874D01*
X150059701Y-115980807D01*
X150061191Y-115974857D01*
X150063258Y-115969082D01*
X150065880Y-115963538D01*
X150069033Y-115958277D01*
X150072687Y-115953350D01*
X150076806Y-115948806D01*
X150081350Y-115944687D01*
X150086277Y-115941033D01*
X150091538Y-115937880D01*
X150097082Y-115935258D01*
X150102857Y-115933191D01*
X150108807Y-115931701D01*
X150114874Y-115930801D01*
X150121000Y-115930500D01*
X150871000Y-115930500D01*
X150877126Y-115930801D01*
G37*
G04 #@! TD.AperFunction*
G04 #@! TA.AperFunction,SMDPad,CuDef*
G04 #@! TO.P,U1,27*
G04 #@! TO.N,Net-(U1-Pad27)*
G36*
X150877126Y-116430801D02*
G01*
X150883193Y-116431701D01*
X150889143Y-116433191D01*
X150894918Y-116435258D01*
X150900462Y-116437880D01*
X150905723Y-116441033D01*
X150910650Y-116444687D01*
X150915194Y-116448806D01*
X150919313Y-116453350D01*
X150922967Y-116458277D01*
X150926120Y-116463538D01*
X150928742Y-116469082D01*
X150930809Y-116474857D01*
X150932299Y-116480807D01*
X150933199Y-116486874D01*
X150933500Y-116493000D01*
X150933500Y-116618000D01*
X150933199Y-116624126D01*
X150932299Y-116630193D01*
X150930809Y-116636143D01*
X150928742Y-116641918D01*
X150926120Y-116647462D01*
X150922967Y-116652723D01*
X150919313Y-116657650D01*
X150915194Y-116662194D01*
X150910650Y-116666313D01*
X150905723Y-116669967D01*
X150900462Y-116673120D01*
X150894918Y-116675742D01*
X150889143Y-116677809D01*
X150883193Y-116679299D01*
X150877126Y-116680199D01*
X150871000Y-116680500D01*
X150121000Y-116680500D01*
X150114874Y-116680199D01*
X150108807Y-116679299D01*
X150102857Y-116677809D01*
X150097082Y-116675742D01*
X150091538Y-116673120D01*
X150086277Y-116669967D01*
X150081350Y-116666313D01*
X150076806Y-116662194D01*
X150072687Y-116657650D01*
X150069033Y-116652723D01*
X150065880Y-116647462D01*
X150063258Y-116641918D01*
X150061191Y-116636143D01*
X150059701Y-116630193D01*
X150058801Y-116624126D01*
X150058500Y-116618000D01*
X150058500Y-116493000D01*
X150058801Y-116486874D01*
X150059701Y-116480807D01*
X150061191Y-116474857D01*
X150063258Y-116469082D01*
X150065880Y-116463538D01*
X150069033Y-116458277D01*
X150072687Y-116453350D01*
X150076806Y-116448806D01*
X150081350Y-116444687D01*
X150086277Y-116441033D01*
X150091538Y-116437880D01*
X150097082Y-116435258D01*
X150102857Y-116433191D01*
X150108807Y-116431701D01*
X150114874Y-116430801D01*
X150121000Y-116430500D01*
X150871000Y-116430500D01*
X150877126Y-116430801D01*
G37*
G04 #@! TD.AperFunction*
G04 #@! TA.AperFunction,SMDPad,CuDef*
G04 #@! TO.P,U1,26*
G04 #@! TO.N,Net-(U1-Pad26)*
G36*
X150877126Y-116930801D02*
G01*
X150883193Y-116931701D01*
X150889143Y-116933191D01*
X150894918Y-116935258D01*
X150900462Y-116937880D01*
X150905723Y-116941033D01*
X150910650Y-116944687D01*
X150915194Y-116948806D01*
X150919313Y-116953350D01*
X150922967Y-116958277D01*
X150926120Y-116963538D01*
X150928742Y-116969082D01*
X150930809Y-116974857D01*
X150932299Y-116980807D01*
X150933199Y-116986874D01*
X150933500Y-116993000D01*
X150933500Y-117118000D01*
X150933199Y-117124126D01*
X150932299Y-117130193D01*
X150930809Y-117136143D01*
X150928742Y-117141918D01*
X150926120Y-117147462D01*
X150922967Y-117152723D01*
X150919313Y-117157650D01*
X150915194Y-117162194D01*
X150910650Y-117166313D01*
X150905723Y-117169967D01*
X150900462Y-117173120D01*
X150894918Y-117175742D01*
X150889143Y-117177809D01*
X150883193Y-117179299D01*
X150877126Y-117180199D01*
X150871000Y-117180500D01*
X150121000Y-117180500D01*
X150114874Y-117180199D01*
X150108807Y-117179299D01*
X150102857Y-117177809D01*
X150097082Y-117175742D01*
X150091538Y-117173120D01*
X150086277Y-117169967D01*
X150081350Y-117166313D01*
X150076806Y-117162194D01*
X150072687Y-117157650D01*
X150069033Y-117152723D01*
X150065880Y-117147462D01*
X150063258Y-117141918D01*
X150061191Y-117136143D01*
X150059701Y-117130193D01*
X150058801Y-117124126D01*
X150058500Y-117118000D01*
X150058500Y-116993000D01*
X150058801Y-116986874D01*
X150059701Y-116980807D01*
X150061191Y-116974857D01*
X150063258Y-116969082D01*
X150065880Y-116963538D01*
X150069033Y-116958277D01*
X150072687Y-116953350D01*
X150076806Y-116948806D01*
X150081350Y-116944687D01*
X150086277Y-116941033D01*
X150091538Y-116937880D01*
X150097082Y-116935258D01*
X150102857Y-116933191D01*
X150108807Y-116931701D01*
X150114874Y-116930801D01*
X150121000Y-116930500D01*
X150871000Y-116930500D01*
X150877126Y-116930801D01*
G37*
G04 #@! TD.AperFunction*
G04 #@! TA.AperFunction,SMDPad,CuDef*
G04 #@! TO.P,U1,25*
G04 #@! TO.N,Net-(U1-Pad25)*
G36*
X150877126Y-117430801D02*
G01*
X150883193Y-117431701D01*
X150889143Y-117433191D01*
X150894918Y-117435258D01*
X150900462Y-117437880D01*
X150905723Y-117441033D01*
X150910650Y-117444687D01*
X150915194Y-117448806D01*
X150919313Y-117453350D01*
X150922967Y-117458277D01*
X150926120Y-117463538D01*
X150928742Y-117469082D01*
X150930809Y-117474857D01*
X150932299Y-117480807D01*
X150933199Y-117486874D01*
X150933500Y-117493000D01*
X150933500Y-117618000D01*
X150933199Y-117624126D01*
X150932299Y-117630193D01*
X150930809Y-117636143D01*
X150928742Y-117641918D01*
X150926120Y-117647462D01*
X150922967Y-117652723D01*
X150919313Y-117657650D01*
X150915194Y-117662194D01*
X150910650Y-117666313D01*
X150905723Y-117669967D01*
X150900462Y-117673120D01*
X150894918Y-117675742D01*
X150889143Y-117677809D01*
X150883193Y-117679299D01*
X150877126Y-117680199D01*
X150871000Y-117680500D01*
X150121000Y-117680500D01*
X150114874Y-117680199D01*
X150108807Y-117679299D01*
X150102857Y-117677809D01*
X150097082Y-117675742D01*
X150091538Y-117673120D01*
X150086277Y-117669967D01*
X150081350Y-117666313D01*
X150076806Y-117662194D01*
X150072687Y-117657650D01*
X150069033Y-117652723D01*
X150065880Y-117647462D01*
X150063258Y-117641918D01*
X150061191Y-117636143D01*
X150059701Y-117630193D01*
X150058801Y-117624126D01*
X150058500Y-117618000D01*
X150058500Y-117493000D01*
X150058801Y-117486874D01*
X150059701Y-117480807D01*
X150061191Y-117474857D01*
X150063258Y-117469082D01*
X150065880Y-117463538D01*
X150069033Y-117458277D01*
X150072687Y-117453350D01*
X150076806Y-117448806D01*
X150081350Y-117444687D01*
X150086277Y-117441033D01*
X150091538Y-117437880D01*
X150097082Y-117435258D01*
X150102857Y-117433191D01*
X150108807Y-117431701D01*
X150114874Y-117430801D01*
X150121000Y-117430500D01*
X150871000Y-117430500D01*
X150877126Y-117430801D01*
G37*
G04 #@! TD.AperFunction*
G04 #@! TA.AperFunction,SMDPad,CuDef*
G04 #@! TO.P,U1,24*
G04 #@! TO.N,Net-(U1-Pad24)*
G36*
X149877126Y-117805801D02*
G01*
X149883193Y-117806701D01*
X149889143Y-117808191D01*
X149894918Y-117810258D01*
X149900462Y-117812880D01*
X149905723Y-117816033D01*
X149910650Y-117819687D01*
X149915194Y-117823806D01*
X149919313Y-117828350D01*
X149922967Y-117833277D01*
X149926120Y-117838538D01*
X149928742Y-117844082D01*
X149930809Y-117849857D01*
X149932299Y-117855807D01*
X149933199Y-117861874D01*
X149933500Y-117868000D01*
X149933500Y-118618000D01*
X149933199Y-118624126D01*
X149932299Y-118630193D01*
X149930809Y-118636143D01*
X149928742Y-118641918D01*
X149926120Y-118647462D01*
X149922967Y-118652723D01*
X149919313Y-118657650D01*
X149915194Y-118662194D01*
X149910650Y-118666313D01*
X149905723Y-118669967D01*
X149900462Y-118673120D01*
X149894918Y-118675742D01*
X149889143Y-118677809D01*
X149883193Y-118679299D01*
X149877126Y-118680199D01*
X149871000Y-118680500D01*
X149746000Y-118680500D01*
X149739874Y-118680199D01*
X149733807Y-118679299D01*
X149727857Y-118677809D01*
X149722082Y-118675742D01*
X149716538Y-118673120D01*
X149711277Y-118669967D01*
X149706350Y-118666313D01*
X149701806Y-118662194D01*
X149697687Y-118657650D01*
X149694033Y-118652723D01*
X149690880Y-118647462D01*
X149688258Y-118641918D01*
X149686191Y-118636143D01*
X149684701Y-118630193D01*
X149683801Y-118624126D01*
X149683500Y-118618000D01*
X149683500Y-117868000D01*
X149683801Y-117861874D01*
X149684701Y-117855807D01*
X149686191Y-117849857D01*
X149688258Y-117844082D01*
X149690880Y-117838538D01*
X149694033Y-117833277D01*
X149697687Y-117828350D01*
X149701806Y-117823806D01*
X149706350Y-117819687D01*
X149711277Y-117816033D01*
X149716538Y-117812880D01*
X149722082Y-117810258D01*
X149727857Y-117808191D01*
X149733807Y-117806701D01*
X149739874Y-117805801D01*
X149746000Y-117805500D01*
X149871000Y-117805500D01*
X149877126Y-117805801D01*
G37*
G04 #@! TD.AperFunction*
G04 #@! TA.AperFunction,SMDPad,CuDef*
G04 #@! TO.P,U1,23*
G04 #@! TO.N,+3V3*
G36*
X149377126Y-117805801D02*
G01*
X149383193Y-117806701D01*
X149389143Y-117808191D01*
X149394918Y-117810258D01*
X149400462Y-117812880D01*
X149405723Y-117816033D01*
X149410650Y-117819687D01*
X149415194Y-117823806D01*
X149419313Y-117828350D01*
X149422967Y-117833277D01*
X149426120Y-117838538D01*
X149428742Y-117844082D01*
X149430809Y-117849857D01*
X149432299Y-117855807D01*
X149433199Y-117861874D01*
X149433500Y-117868000D01*
X149433500Y-118618000D01*
X149433199Y-118624126D01*
X149432299Y-118630193D01*
X149430809Y-118636143D01*
X149428742Y-118641918D01*
X149426120Y-118647462D01*
X149422967Y-118652723D01*
X149419313Y-118657650D01*
X149415194Y-118662194D01*
X149410650Y-118666313D01*
X149405723Y-118669967D01*
X149400462Y-118673120D01*
X149394918Y-118675742D01*
X149389143Y-118677809D01*
X149383193Y-118679299D01*
X149377126Y-118680199D01*
X149371000Y-118680500D01*
X149246000Y-118680500D01*
X149239874Y-118680199D01*
X149233807Y-118679299D01*
X149227857Y-118677809D01*
X149222082Y-118675742D01*
X149216538Y-118673120D01*
X149211277Y-118669967D01*
X149206350Y-118666313D01*
X149201806Y-118662194D01*
X149197687Y-118657650D01*
X149194033Y-118652723D01*
X149190880Y-118647462D01*
X149188258Y-118641918D01*
X149186191Y-118636143D01*
X149184701Y-118630193D01*
X149183801Y-118624126D01*
X149183500Y-118618000D01*
X149183500Y-117868000D01*
X149183801Y-117861874D01*
X149184701Y-117855807D01*
X149186191Y-117849857D01*
X149188258Y-117844082D01*
X149190880Y-117838538D01*
X149194033Y-117833277D01*
X149197687Y-117828350D01*
X149201806Y-117823806D01*
X149206350Y-117819687D01*
X149211277Y-117816033D01*
X149216538Y-117812880D01*
X149222082Y-117810258D01*
X149227857Y-117808191D01*
X149233807Y-117806701D01*
X149239874Y-117805801D01*
X149246000Y-117805500D01*
X149371000Y-117805500D01*
X149377126Y-117805801D01*
G37*
G04 #@! TD.AperFunction*
G04 #@! TA.AperFunction,SMDPad,CuDef*
G04 #@! TO.P,U1,22*
G04 #@! TO.N,Net-(U1-Pad22)*
G36*
X148877126Y-117805801D02*
G01*
X148883193Y-117806701D01*
X148889143Y-117808191D01*
X148894918Y-117810258D01*
X148900462Y-117812880D01*
X148905723Y-117816033D01*
X148910650Y-117819687D01*
X148915194Y-117823806D01*
X148919313Y-117828350D01*
X148922967Y-117833277D01*
X148926120Y-117838538D01*
X148928742Y-117844082D01*
X148930809Y-117849857D01*
X148932299Y-117855807D01*
X148933199Y-117861874D01*
X148933500Y-117868000D01*
X148933500Y-118618000D01*
X148933199Y-118624126D01*
X148932299Y-118630193D01*
X148930809Y-118636143D01*
X148928742Y-118641918D01*
X148926120Y-118647462D01*
X148922967Y-118652723D01*
X148919313Y-118657650D01*
X148915194Y-118662194D01*
X148910650Y-118666313D01*
X148905723Y-118669967D01*
X148900462Y-118673120D01*
X148894918Y-118675742D01*
X148889143Y-118677809D01*
X148883193Y-118679299D01*
X148877126Y-118680199D01*
X148871000Y-118680500D01*
X148746000Y-118680500D01*
X148739874Y-118680199D01*
X148733807Y-118679299D01*
X148727857Y-118677809D01*
X148722082Y-118675742D01*
X148716538Y-118673120D01*
X148711277Y-118669967D01*
X148706350Y-118666313D01*
X148701806Y-118662194D01*
X148697687Y-118657650D01*
X148694033Y-118652723D01*
X148690880Y-118647462D01*
X148688258Y-118641918D01*
X148686191Y-118636143D01*
X148684701Y-118630193D01*
X148683801Y-118624126D01*
X148683500Y-118618000D01*
X148683500Y-117868000D01*
X148683801Y-117861874D01*
X148684701Y-117855807D01*
X148686191Y-117849857D01*
X148688258Y-117844082D01*
X148690880Y-117838538D01*
X148694033Y-117833277D01*
X148697687Y-117828350D01*
X148701806Y-117823806D01*
X148706350Y-117819687D01*
X148711277Y-117816033D01*
X148716538Y-117812880D01*
X148722082Y-117810258D01*
X148727857Y-117808191D01*
X148733807Y-117806701D01*
X148739874Y-117805801D01*
X148746000Y-117805500D01*
X148871000Y-117805500D01*
X148877126Y-117805801D01*
G37*
G04 #@! TD.AperFunction*
G04 #@! TA.AperFunction,SMDPad,CuDef*
G04 #@! TO.P,U1,21*
G04 #@! TO.N,+3V3*
G36*
X148377126Y-117805801D02*
G01*
X148383193Y-117806701D01*
X148389143Y-117808191D01*
X148394918Y-117810258D01*
X148400462Y-117812880D01*
X148405723Y-117816033D01*
X148410650Y-117819687D01*
X148415194Y-117823806D01*
X148419313Y-117828350D01*
X148422967Y-117833277D01*
X148426120Y-117838538D01*
X148428742Y-117844082D01*
X148430809Y-117849857D01*
X148432299Y-117855807D01*
X148433199Y-117861874D01*
X148433500Y-117868000D01*
X148433500Y-118618000D01*
X148433199Y-118624126D01*
X148432299Y-118630193D01*
X148430809Y-118636143D01*
X148428742Y-118641918D01*
X148426120Y-118647462D01*
X148422967Y-118652723D01*
X148419313Y-118657650D01*
X148415194Y-118662194D01*
X148410650Y-118666313D01*
X148405723Y-118669967D01*
X148400462Y-118673120D01*
X148394918Y-118675742D01*
X148389143Y-118677809D01*
X148383193Y-118679299D01*
X148377126Y-118680199D01*
X148371000Y-118680500D01*
X148246000Y-118680500D01*
X148239874Y-118680199D01*
X148233807Y-118679299D01*
X148227857Y-118677809D01*
X148222082Y-118675742D01*
X148216538Y-118673120D01*
X148211277Y-118669967D01*
X148206350Y-118666313D01*
X148201806Y-118662194D01*
X148197687Y-118657650D01*
X148194033Y-118652723D01*
X148190880Y-118647462D01*
X148188258Y-118641918D01*
X148186191Y-118636143D01*
X148184701Y-118630193D01*
X148183801Y-118624126D01*
X148183500Y-118618000D01*
X148183500Y-117868000D01*
X148183801Y-117861874D01*
X148184701Y-117855807D01*
X148186191Y-117849857D01*
X148188258Y-117844082D01*
X148190880Y-117838538D01*
X148194033Y-117833277D01*
X148197687Y-117828350D01*
X148201806Y-117823806D01*
X148206350Y-117819687D01*
X148211277Y-117816033D01*
X148216538Y-117812880D01*
X148222082Y-117810258D01*
X148227857Y-117808191D01*
X148233807Y-117806701D01*
X148239874Y-117805801D01*
X148246000Y-117805500D01*
X148371000Y-117805500D01*
X148377126Y-117805801D01*
G37*
G04 #@! TD.AperFunction*
G04 #@! TA.AperFunction,SMDPad,CuDef*
G04 #@! TO.P,U1,20*
G36*
X147877126Y-117805801D02*
G01*
X147883193Y-117806701D01*
X147889143Y-117808191D01*
X147894918Y-117810258D01*
X147900462Y-117812880D01*
X147905723Y-117816033D01*
X147910650Y-117819687D01*
X147915194Y-117823806D01*
X147919313Y-117828350D01*
X147922967Y-117833277D01*
X147926120Y-117838538D01*
X147928742Y-117844082D01*
X147930809Y-117849857D01*
X147932299Y-117855807D01*
X147933199Y-117861874D01*
X147933500Y-117868000D01*
X147933500Y-118618000D01*
X147933199Y-118624126D01*
X147932299Y-118630193D01*
X147930809Y-118636143D01*
X147928742Y-118641918D01*
X147926120Y-118647462D01*
X147922967Y-118652723D01*
X147919313Y-118657650D01*
X147915194Y-118662194D01*
X147910650Y-118666313D01*
X147905723Y-118669967D01*
X147900462Y-118673120D01*
X147894918Y-118675742D01*
X147889143Y-118677809D01*
X147883193Y-118679299D01*
X147877126Y-118680199D01*
X147871000Y-118680500D01*
X147746000Y-118680500D01*
X147739874Y-118680199D01*
X147733807Y-118679299D01*
X147727857Y-118677809D01*
X147722082Y-118675742D01*
X147716538Y-118673120D01*
X147711277Y-118669967D01*
X147706350Y-118666313D01*
X147701806Y-118662194D01*
X147697687Y-118657650D01*
X147694033Y-118652723D01*
X147690880Y-118647462D01*
X147688258Y-118641918D01*
X147686191Y-118636143D01*
X147684701Y-118630193D01*
X147683801Y-118624126D01*
X147683500Y-118618000D01*
X147683500Y-117868000D01*
X147683801Y-117861874D01*
X147684701Y-117855807D01*
X147686191Y-117849857D01*
X147688258Y-117844082D01*
X147690880Y-117838538D01*
X147694033Y-117833277D01*
X147697687Y-117828350D01*
X147701806Y-117823806D01*
X147706350Y-117819687D01*
X147711277Y-117816033D01*
X147716538Y-117812880D01*
X147722082Y-117810258D01*
X147727857Y-117808191D01*
X147733807Y-117806701D01*
X147739874Y-117805801D01*
X147746000Y-117805500D01*
X147871000Y-117805500D01*
X147877126Y-117805801D01*
G37*
G04 #@! TD.AperFunction*
G04 #@! TA.AperFunction,SMDPad,CuDef*
G04 #@! TO.P,U1,19*
G04 #@! TO.N,Net-(U1-Pad19)*
G36*
X147377126Y-117805801D02*
G01*
X147383193Y-117806701D01*
X147389143Y-117808191D01*
X147394918Y-117810258D01*
X147400462Y-117812880D01*
X147405723Y-117816033D01*
X147410650Y-117819687D01*
X147415194Y-117823806D01*
X147419313Y-117828350D01*
X147422967Y-117833277D01*
X147426120Y-117838538D01*
X147428742Y-117844082D01*
X147430809Y-117849857D01*
X147432299Y-117855807D01*
X147433199Y-117861874D01*
X147433500Y-117868000D01*
X147433500Y-118618000D01*
X147433199Y-118624126D01*
X147432299Y-118630193D01*
X147430809Y-118636143D01*
X147428742Y-118641918D01*
X147426120Y-118647462D01*
X147422967Y-118652723D01*
X147419313Y-118657650D01*
X147415194Y-118662194D01*
X147410650Y-118666313D01*
X147405723Y-118669967D01*
X147400462Y-118673120D01*
X147394918Y-118675742D01*
X147389143Y-118677809D01*
X147383193Y-118679299D01*
X147377126Y-118680199D01*
X147371000Y-118680500D01*
X147246000Y-118680500D01*
X147239874Y-118680199D01*
X147233807Y-118679299D01*
X147227857Y-118677809D01*
X147222082Y-118675742D01*
X147216538Y-118673120D01*
X147211277Y-118669967D01*
X147206350Y-118666313D01*
X147201806Y-118662194D01*
X147197687Y-118657650D01*
X147194033Y-118652723D01*
X147190880Y-118647462D01*
X147188258Y-118641918D01*
X147186191Y-118636143D01*
X147184701Y-118630193D01*
X147183801Y-118624126D01*
X147183500Y-118618000D01*
X147183500Y-117868000D01*
X147183801Y-117861874D01*
X147184701Y-117855807D01*
X147186191Y-117849857D01*
X147188258Y-117844082D01*
X147190880Y-117838538D01*
X147194033Y-117833277D01*
X147197687Y-117828350D01*
X147201806Y-117823806D01*
X147206350Y-117819687D01*
X147211277Y-117816033D01*
X147216538Y-117812880D01*
X147222082Y-117810258D01*
X147227857Y-117808191D01*
X147233807Y-117806701D01*
X147239874Y-117805801D01*
X147246000Y-117805500D01*
X147371000Y-117805500D01*
X147377126Y-117805801D01*
G37*
G04 #@! TD.AperFunction*
G04 #@! TA.AperFunction,SMDPad,CuDef*
G04 #@! TO.P,U1,18*
G04 #@! TO.N,Net-(U1-Pad18)*
G36*
X146877126Y-117805801D02*
G01*
X146883193Y-117806701D01*
X146889143Y-117808191D01*
X146894918Y-117810258D01*
X146900462Y-117812880D01*
X146905723Y-117816033D01*
X146910650Y-117819687D01*
X146915194Y-117823806D01*
X146919313Y-117828350D01*
X146922967Y-117833277D01*
X146926120Y-117838538D01*
X146928742Y-117844082D01*
X146930809Y-117849857D01*
X146932299Y-117855807D01*
X146933199Y-117861874D01*
X146933500Y-117868000D01*
X146933500Y-118618000D01*
X146933199Y-118624126D01*
X146932299Y-118630193D01*
X146930809Y-118636143D01*
X146928742Y-118641918D01*
X146926120Y-118647462D01*
X146922967Y-118652723D01*
X146919313Y-118657650D01*
X146915194Y-118662194D01*
X146910650Y-118666313D01*
X146905723Y-118669967D01*
X146900462Y-118673120D01*
X146894918Y-118675742D01*
X146889143Y-118677809D01*
X146883193Y-118679299D01*
X146877126Y-118680199D01*
X146871000Y-118680500D01*
X146746000Y-118680500D01*
X146739874Y-118680199D01*
X146733807Y-118679299D01*
X146727857Y-118677809D01*
X146722082Y-118675742D01*
X146716538Y-118673120D01*
X146711277Y-118669967D01*
X146706350Y-118666313D01*
X146701806Y-118662194D01*
X146697687Y-118657650D01*
X146694033Y-118652723D01*
X146690880Y-118647462D01*
X146688258Y-118641918D01*
X146686191Y-118636143D01*
X146684701Y-118630193D01*
X146683801Y-118624126D01*
X146683500Y-118618000D01*
X146683500Y-117868000D01*
X146683801Y-117861874D01*
X146684701Y-117855807D01*
X146686191Y-117849857D01*
X146688258Y-117844082D01*
X146690880Y-117838538D01*
X146694033Y-117833277D01*
X146697687Y-117828350D01*
X146701806Y-117823806D01*
X146706350Y-117819687D01*
X146711277Y-117816033D01*
X146716538Y-117812880D01*
X146722082Y-117810258D01*
X146727857Y-117808191D01*
X146733807Y-117806701D01*
X146739874Y-117805801D01*
X146746000Y-117805500D01*
X146871000Y-117805500D01*
X146877126Y-117805801D01*
G37*
G04 #@! TD.AperFunction*
G04 #@! TA.AperFunction,SMDPad,CuDef*
G04 #@! TO.P,U1,17*
G04 #@! TO.N,Net-(U1-Pad17)*
G36*
X146377126Y-117805801D02*
G01*
X146383193Y-117806701D01*
X146389143Y-117808191D01*
X146394918Y-117810258D01*
X146400462Y-117812880D01*
X146405723Y-117816033D01*
X146410650Y-117819687D01*
X146415194Y-117823806D01*
X146419313Y-117828350D01*
X146422967Y-117833277D01*
X146426120Y-117838538D01*
X146428742Y-117844082D01*
X146430809Y-117849857D01*
X146432299Y-117855807D01*
X146433199Y-117861874D01*
X146433500Y-117868000D01*
X146433500Y-118618000D01*
X146433199Y-118624126D01*
X146432299Y-118630193D01*
X146430809Y-118636143D01*
X146428742Y-118641918D01*
X146426120Y-118647462D01*
X146422967Y-118652723D01*
X146419313Y-118657650D01*
X146415194Y-118662194D01*
X146410650Y-118666313D01*
X146405723Y-118669967D01*
X146400462Y-118673120D01*
X146394918Y-118675742D01*
X146389143Y-118677809D01*
X146383193Y-118679299D01*
X146377126Y-118680199D01*
X146371000Y-118680500D01*
X146246000Y-118680500D01*
X146239874Y-118680199D01*
X146233807Y-118679299D01*
X146227857Y-118677809D01*
X146222082Y-118675742D01*
X146216538Y-118673120D01*
X146211277Y-118669967D01*
X146206350Y-118666313D01*
X146201806Y-118662194D01*
X146197687Y-118657650D01*
X146194033Y-118652723D01*
X146190880Y-118647462D01*
X146188258Y-118641918D01*
X146186191Y-118636143D01*
X146184701Y-118630193D01*
X146183801Y-118624126D01*
X146183500Y-118618000D01*
X146183500Y-117868000D01*
X146183801Y-117861874D01*
X146184701Y-117855807D01*
X146186191Y-117849857D01*
X146188258Y-117844082D01*
X146190880Y-117838538D01*
X146194033Y-117833277D01*
X146197687Y-117828350D01*
X146201806Y-117823806D01*
X146206350Y-117819687D01*
X146211277Y-117816033D01*
X146216538Y-117812880D01*
X146222082Y-117810258D01*
X146227857Y-117808191D01*
X146233807Y-117806701D01*
X146239874Y-117805801D01*
X146246000Y-117805500D01*
X146371000Y-117805500D01*
X146377126Y-117805801D01*
G37*
G04 #@! TD.AperFunction*
G04 #@! TA.AperFunction,SMDPad,CuDef*
G04 #@! TO.P,U1,16*
G04 #@! TO.N,Net-(U1-Pad16)*
G36*
X145877126Y-117805801D02*
G01*
X145883193Y-117806701D01*
X145889143Y-117808191D01*
X145894918Y-117810258D01*
X145900462Y-117812880D01*
X145905723Y-117816033D01*
X145910650Y-117819687D01*
X145915194Y-117823806D01*
X145919313Y-117828350D01*
X145922967Y-117833277D01*
X145926120Y-117838538D01*
X145928742Y-117844082D01*
X145930809Y-117849857D01*
X145932299Y-117855807D01*
X145933199Y-117861874D01*
X145933500Y-117868000D01*
X145933500Y-118618000D01*
X145933199Y-118624126D01*
X145932299Y-118630193D01*
X145930809Y-118636143D01*
X145928742Y-118641918D01*
X145926120Y-118647462D01*
X145922967Y-118652723D01*
X145919313Y-118657650D01*
X145915194Y-118662194D01*
X145910650Y-118666313D01*
X145905723Y-118669967D01*
X145900462Y-118673120D01*
X145894918Y-118675742D01*
X145889143Y-118677809D01*
X145883193Y-118679299D01*
X145877126Y-118680199D01*
X145871000Y-118680500D01*
X145746000Y-118680500D01*
X145739874Y-118680199D01*
X145733807Y-118679299D01*
X145727857Y-118677809D01*
X145722082Y-118675742D01*
X145716538Y-118673120D01*
X145711277Y-118669967D01*
X145706350Y-118666313D01*
X145701806Y-118662194D01*
X145697687Y-118657650D01*
X145694033Y-118652723D01*
X145690880Y-118647462D01*
X145688258Y-118641918D01*
X145686191Y-118636143D01*
X145684701Y-118630193D01*
X145683801Y-118624126D01*
X145683500Y-118618000D01*
X145683500Y-117868000D01*
X145683801Y-117861874D01*
X145684701Y-117855807D01*
X145686191Y-117849857D01*
X145688258Y-117844082D01*
X145690880Y-117838538D01*
X145694033Y-117833277D01*
X145697687Y-117828350D01*
X145701806Y-117823806D01*
X145706350Y-117819687D01*
X145711277Y-117816033D01*
X145716538Y-117812880D01*
X145722082Y-117810258D01*
X145727857Y-117808191D01*
X145733807Y-117806701D01*
X145739874Y-117805801D01*
X145746000Y-117805500D01*
X145871000Y-117805500D01*
X145877126Y-117805801D01*
G37*
G04 #@! TD.AperFunction*
G04 #@! TA.AperFunction,SMDPad,CuDef*
G04 #@! TO.P,U1,15*
G04 #@! TO.N,MOSI*
G36*
X145377126Y-117805801D02*
G01*
X145383193Y-117806701D01*
X145389143Y-117808191D01*
X145394918Y-117810258D01*
X145400462Y-117812880D01*
X145405723Y-117816033D01*
X145410650Y-117819687D01*
X145415194Y-117823806D01*
X145419313Y-117828350D01*
X145422967Y-117833277D01*
X145426120Y-117838538D01*
X145428742Y-117844082D01*
X145430809Y-117849857D01*
X145432299Y-117855807D01*
X145433199Y-117861874D01*
X145433500Y-117868000D01*
X145433500Y-118618000D01*
X145433199Y-118624126D01*
X145432299Y-118630193D01*
X145430809Y-118636143D01*
X145428742Y-118641918D01*
X145426120Y-118647462D01*
X145422967Y-118652723D01*
X145419313Y-118657650D01*
X145415194Y-118662194D01*
X145410650Y-118666313D01*
X145405723Y-118669967D01*
X145400462Y-118673120D01*
X145394918Y-118675742D01*
X145389143Y-118677809D01*
X145383193Y-118679299D01*
X145377126Y-118680199D01*
X145371000Y-118680500D01*
X145246000Y-118680500D01*
X145239874Y-118680199D01*
X145233807Y-118679299D01*
X145227857Y-118677809D01*
X145222082Y-118675742D01*
X145216538Y-118673120D01*
X145211277Y-118669967D01*
X145206350Y-118666313D01*
X145201806Y-118662194D01*
X145197687Y-118657650D01*
X145194033Y-118652723D01*
X145190880Y-118647462D01*
X145188258Y-118641918D01*
X145186191Y-118636143D01*
X145184701Y-118630193D01*
X145183801Y-118624126D01*
X145183500Y-118618000D01*
X145183500Y-117868000D01*
X145183801Y-117861874D01*
X145184701Y-117855807D01*
X145186191Y-117849857D01*
X145188258Y-117844082D01*
X145190880Y-117838538D01*
X145194033Y-117833277D01*
X145197687Y-117828350D01*
X145201806Y-117823806D01*
X145206350Y-117819687D01*
X145211277Y-117816033D01*
X145216538Y-117812880D01*
X145222082Y-117810258D01*
X145227857Y-117808191D01*
X145233807Y-117806701D01*
X145239874Y-117805801D01*
X145246000Y-117805500D01*
X145371000Y-117805500D01*
X145377126Y-117805801D01*
G37*
G04 #@! TD.AperFunction*
G04 #@! TA.AperFunction,SMDPad,CuDef*
G04 #@! TO.P,U1,14*
G04 #@! TO.N,MISO*
G36*
X144877126Y-117805801D02*
G01*
X144883193Y-117806701D01*
X144889143Y-117808191D01*
X144894918Y-117810258D01*
X144900462Y-117812880D01*
X144905723Y-117816033D01*
X144910650Y-117819687D01*
X144915194Y-117823806D01*
X144919313Y-117828350D01*
X144922967Y-117833277D01*
X144926120Y-117838538D01*
X144928742Y-117844082D01*
X144930809Y-117849857D01*
X144932299Y-117855807D01*
X144933199Y-117861874D01*
X144933500Y-117868000D01*
X144933500Y-118618000D01*
X144933199Y-118624126D01*
X144932299Y-118630193D01*
X144930809Y-118636143D01*
X144928742Y-118641918D01*
X144926120Y-118647462D01*
X144922967Y-118652723D01*
X144919313Y-118657650D01*
X144915194Y-118662194D01*
X144910650Y-118666313D01*
X144905723Y-118669967D01*
X144900462Y-118673120D01*
X144894918Y-118675742D01*
X144889143Y-118677809D01*
X144883193Y-118679299D01*
X144877126Y-118680199D01*
X144871000Y-118680500D01*
X144746000Y-118680500D01*
X144739874Y-118680199D01*
X144733807Y-118679299D01*
X144727857Y-118677809D01*
X144722082Y-118675742D01*
X144716538Y-118673120D01*
X144711277Y-118669967D01*
X144706350Y-118666313D01*
X144701806Y-118662194D01*
X144697687Y-118657650D01*
X144694033Y-118652723D01*
X144690880Y-118647462D01*
X144688258Y-118641918D01*
X144686191Y-118636143D01*
X144684701Y-118630193D01*
X144683801Y-118624126D01*
X144683500Y-118618000D01*
X144683500Y-117868000D01*
X144683801Y-117861874D01*
X144684701Y-117855807D01*
X144686191Y-117849857D01*
X144688258Y-117844082D01*
X144690880Y-117838538D01*
X144694033Y-117833277D01*
X144697687Y-117828350D01*
X144701806Y-117823806D01*
X144706350Y-117819687D01*
X144711277Y-117816033D01*
X144716538Y-117812880D01*
X144722082Y-117810258D01*
X144727857Y-117808191D01*
X144733807Y-117806701D01*
X144739874Y-117805801D01*
X144746000Y-117805500D01*
X144871000Y-117805500D01*
X144877126Y-117805801D01*
G37*
G04 #@! TD.AperFunction*
G04 #@! TA.AperFunction,SMDPad,CuDef*
G04 #@! TO.P,U1,13*
G04 #@! TO.N,SCK*
G36*
X144377126Y-117805801D02*
G01*
X144383193Y-117806701D01*
X144389143Y-117808191D01*
X144394918Y-117810258D01*
X144400462Y-117812880D01*
X144405723Y-117816033D01*
X144410650Y-117819687D01*
X144415194Y-117823806D01*
X144419313Y-117828350D01*
X144422967Y-117833277D01*
X144426120Y-117838538D01*
X144428742Y-117844082D01*
X144430809Y-117849857D01*
X144432299Y-117855807D01*
X144433199Y-117861874D01*
X144433500Y-117868000D01*
X144433500Y-118618000D01*
X144433199Y-118624126D01*
X144432299Y-118630193D01*
X144430809Y-118636143D01*
X144428742Y-118641918D01*
X144426120Y-118647462D01*
X144422967Y-118652723D01*
X144419313Y-118657650D01*
X144415194Y-118662194D01*
X144410650Y-118666313D01*
X144405723Y-118669967D01*
X144400462Y-118673120D01*
X144394918Y-118675742D01*
X144389143Y-118677809D01*
X144383193Y-118679299D01*
X144377126Y-118680199D01*
X144371000Y-118680500D01*
X144246000Y-118680500D01*
X144239874Y-118680199D01*
X144233807Y-118679299D01*
X144227857Y-118677809D01*
X144222082Y-118675742D01*
X144216538Y-118673120D01*
X144211277Y-118669967D01*
X144206350Y-118666313D01*
X144201806Y-118662194D01*
X144197687Y-118657650D01*
X144194033Y-118652723D01*
X144190880Y-118647462D01*
X144188258Y-118641918D01*
X144186191Y-118636143D01*
X144184701Y-118630193D01*
X144183801Y-118624126D01*
X144183500Y-118618000D01*
X144183500Y-117868000D01*
X144183801Y-117861874D01*
X144184701Y-117855807D01*
X144186191Y-117849857D01*
X144188258Y-117844082D01*
X144190880Y-117838538D01*
X144194033Y-117833277D01*
X144197687Y-117828350D01*
X144201806Y-117823806D01*
X144206350Y-117819687D01*
X144211277Y-117816033D01*
X144216538Y-117812880D01*
X144222082Y-117810258D01*
X144227857Y-117808191D01*
X144233807Y-117806701D01*
X144239874Y-117805801D01*
X144246000Y-117805500D01*
X144371000Y-117805500D01*
X144377126Y-117805801D01*
G37*
G04 #@! TD.AperFunction*
G04 #@! TA.AperFunction,SMDPad,CuDef*
G04 #@! TO.P,U1,12*
G04 #@! TO.N,Net-(U1-Pad12)*
G36*
X144002126Y-117430801D02*
G01*
X144008193Y-117431701D01*
X144014143Y-117433191D01*
X144019918Y-117435258D01*
X144025462Y-117437880D01*
X144030723Y-117441033D01*
X144035650Y-117444687D01*
X144040194Y-117448806D01*
X144044313Y-117453350D01*
X144047967Y-117458277D01*
X144051120Y-117463538D01*
X144053742Y-117469082D01*
X144055809Y-117474857D01*
X144057299Y-117480807D01*
X144058199Y-117486874D01*
X144058500Y-117493000D01*
X144058500Y-117618000D01*
X144058199Y-117624126D01*
X144057299Y-117630193D01*
X144055809Y-117636143D01*
X144053742Y-117641918D01*
X144051120Y-117647462D01*
X144047967Y-117652723D01*
X144044313Y-117657650D01*
X144040194Y-117662194D01*
X144035650Y-117666313D01*
X144030723Y-117669967D01*
X144025462Y-117673120D01*
X144019918Y-117675742D01*
X144014143Y-117677809D01*
X144008193Y-117679299D01*
X144002126Y-117680199D01*
X143996000Y-117680500D01*
X143246000Y-117680500D01*
X143239874Y-117680199D01*
X143233807Y-117679299D01*
X143227857Y-117677809D01*
X143222082Y-117675742D01*
X143216538Y-117673120D01*
X143211277Y-117669967D01*
X143206350Y-117666313D01*
X143201806Y-117662194D01*
X143197687Y-117657650D01*
X143194033Y-117652723D01*
X143190880Y-117647462D01*
X143188258Y-117641918D01*
X143186191Y-117636143D01*
X143184701Y-117630193D01*
X143183801Y-117624126D01*
X143183500Y-117618000D01*
X143183500Y-117493000D01*
X143183801Y-117486874D01*
X143184701Y-117480807D01*
X143186191Y-117474857D01*
X143188258Y-117469082D01*
X143190880Y-117463538D01*
X143194033Y-117458277D01*
X143197687Y-117453350D01*
X143201806Y-117448806D01*
X143206350Y-117444687D01*
X143211277Y-117441033D01*
X143216538Y-117437880D01*
X143222082Y-117435258D01*
X143227857Y-117433191D01*
X143233807Y-117431701D01*
X143239874Y-117430801D01*
X143246000Y-117430500D01*
X143996000Y-117430500D01*
X144002126Y-117430801D01*
G37*
G04 #@! TD.AperFunction*
G04 #@! TA.AperFunction,SMDPad,CuDef*
G04 #@! TO.P,U1,11*
G04 #@! TO.N,Net-(U1-Pad11)*
G36*
X144002126Y-116930801D02*
G01*
X144008193Y-116931701D01*
X144014143Y-116933191D01*
X144019918Y-116935258D01*
X144025462Y-116937880D01*
X144030723Y-116941033D01*
X144035650Y-116944687D01*
X144040194Y-116948806D01*
X144044313Y-116953350D01*
X144047967Y-116958277D01*
X144051120Y-116963538D01*
X144053742Y-116969082D01*
X144055809Y-116974857D01*
X144057299Y-116980807D01*
X144058199Y-116986874D01*
X144058500Y-116993000D01*
X144058500Y-117118000D01*
X144058199Y-117124126D01*
X144057299Y-117130193D01*
X144055809Y-117136143D01*
X144053742Y-117141918D01*
X144051120Y-117147462D01*
X144047967Y-117152723D01*
X144044313Y-117157650D01*
X144040194Y-117162194D01*
X144035650Y-117166313D01*
X144030723Y-117169967D01*
X144025462Y-117173120D01*
X144019918Y-117175742D01*
X144014143Y-117177809D01*
X144008193Y-117179299D01*
X144002126Y-117180199D01*
X143996000Y-117180500D01*
X143246000Y-117180500D01*
X143239874Y-117180199D01*
X143233807Y-117179299D01*
X143227857Y-117177809D01*
X143222082Y-117175742D01*
X143216538Y-117173120D01*
X143211277Y-117169967D01*
X143206350Y-117166313D01*
X143201806Y-117162194D01*
X143197687Y-117157650D01*
X143194033Y-117152723D01*
X143190880Y-117147462D01*
X143188258Y-117141918D01*
X143186191Y-117136143D01*
X143184701Y-117130193D01*
X143183801Y-117124126D01*
X143183500Y-117118000D01*
X143183500Y-116993000D01*
X143183801Y-116986874D01*
X143184701Y-116980807D01*
X143186191Y-116974857D01*
X143188258Y-116969082D01*
X143190880Y-116963538D01*
X143194033Y-116958277D01*
X143197687Y-116953350D01*
X143201806Y-116948806D01*
X143206350Y-116944687D01*
X143211277Y-116941033D01*
X143216538Y-116937880D01*
X143222082Y-116935258D01*
X143227857Y-116933191D01*
X143233807Y-116931701D01*
X143239874Y-116930801D01*
X143246000Y-116930500D01*
X143996000Y-116930500D01*
X144002126Y-116930801D01*
G37*
G04 #@! TD.AperFunction*
G04 #@! TA.AperFunction,SMDPad,CuDef*
G04 #@! TO.P,U1,10*
G04 #@! TO.N,USART2*
G36*
X144002126Y-116430801D02*
G01*
X144008193Y-116431701D01*
X144014143Y-116433191D01*
X144019918Y-116435258D01*
X144025462Y-116437880D01*
X144030723Y-116441033D01*
X144035650Y-116444687D01*
X144040194Y-116448806D01*
X144044313Y-116453350D01*
X144047967Y-116458277D01*
X144051120Y-116463538D01*
X144053742Y-116469082D01*
X144055809Y-116474857D01*
X144057299Y-116480807D01*
X144058199Y-116486874D01*
X144058500Y-116493000D01*
X144058500Y-116618000D01*
X144058199Y-116624126D01*
X144057299Y-116630193D01*
X144055809Y-116636143D01*
X144053742Y-116641918D01*
X144051120Y-116647462D01*
X144047967Y-116652723D01*
X144044313Y-116657650D01*
X144040194Y-116662194D01*
X144035650Y-116666313D01*
X144030723Y-116669967D01*
X144025462Y-116673120D01*
X144019918Y-116675742D01*
X144014143Y-116677809D01*
X144008193Y-116679299D01*
X144002126Y-116680199D01*
X143996000Y-116680500D01*
X143246000Y-116680500D01*
X143239874Y-116680199D01*
X143233807Y-116679299D01*
X143227857Y-116677809D01*
X143222082Y-116675742D01*
X143216538Y-116673120D01*
X143211277Y-116669967D01*
X143206350Y-116666313D01*
X143201806Y-116662194D01*
X143197687Y-116657650D01*
X143194033Y-116652723D01*
X143190880Y-116647462D01*
X143188258Y-116641918D01*
X143186191Y-116636143D01*
X143184701Y-116630193D01*
X143183801Y-116624126D01*
X143183500Y-116618000D01*
X143183500Y-116493000D01*
X143183801Y-116486874D01*
X143184701Y-116480807D01*
X143186191Y-116474857D01*
X143188258Y-116469082D01*
X143190880Y-116463538D01*
X143194033Y-116458277D01*
X143197687Y-116453350D01*
X143201806Y-116448806D01*
X143206350Y-116444687D01*
X143211277Y-116441033D01*
X143216538Y-116437880D01*
X143222082Y-116435258D01*
X143227857Y-116433191D01*
X143233807Y-116431701D01*
X143239874Y-116430801D01*
X143246000Y-116430500D01*
X143996000Y-116430500D01*
X144002126Y-116430801D01*
G37*
G04 #@! TD.AperFunction*
G04 #@! TA.AperFunction,SMDPad,CuDef*
G04 #@! TO.P,U1,9*
G04 #@! TO.N,ADC2*
G36*
X144002126Y-115930801D02*
G01*
X144008193Y-115931701D01*
X144014143Y-115933191D01*
X144019918Y-115935258D01*
X144025462Y-115937880D01*
X144030723Y-115941033D01*
X144035650Y-115944687D01*
X144040194Y-115948806D01*
X144044313Y-115953350D01*
X144047967Y-115958277D01*
X144051120Y-115963538D01*
X144053742Y-115969082D01*
X144055809Y-115974857D01*
X144057299Y-115980807D01*
X144058199Y-115986874D01*
X144058500Y-115993000D01*
X144058500Y-116118000D01*
X144058199Y-116124126D01*
X144057299Y-116130193D01*
X144055809Y-116136143D01*
X144053742Y-116141918D01*
X144051120Y-116147462D01*
X144047967Y-116152723D01*
X144044313Y-116157650D01*
X144040194Y-116162194D01*
X144035650Y-116166313D01*
X144030723Y-116169967D01*
X144025462Y-116173120D01*
X144019918Y-116175742D01*
X144014143Y-116177809D01*
X144008193Y-116179299D01*
X144002126Y-116180199D01*
X143996000Y-116180500D01*
X143246000Y-116180500D01*
X143239874Y-116180199D01*
X143233807Y-116179299D01*
X143227857Y-116177809D01*
X143222082Y-116175742D01*
X143216538Y-116173120D01*
X143211277Y-116169967D01*
X143206350Y-116166313D01*
X143201806Y-116162194D01*
X143197687Y-116157650D01*
X143194033Y-116152723D01*
X143190880Y-116147462D01*
X143188258Y-116141918D01*
X143186191Y-116136143D01*
X143184701Y-116130193D01*
X143183801Y-116124126D01*
X143183500Y-116118000D01*
X143183500Y-115993000D01*
X143183801Y-115986874D01*
X143184701Y-115980807D01*
X143186191Y-115974857D01*
X143188258Y-115969082D01*
X143190880Y-115963538D01*
X143194033Y-115958277D01*
X143197687Y-115953350D01*
X143201806Y-115948806D01*
X143206350Y-115944687D01*
X143211277Y-115941033D01*
X143216538Y-115937880D01*
X143222082Y-115935258D01*
X143227857Y-115933191D01*
X143233807Y-115931701D01*
X143239874Y-115930801D01*
X143246000Y-115930500D01*
X143996000Y-115930500D01*
X144002126Y-115930801D01*
G37*
G04 #@! TD.AperFunction*
G04 #@! TA.AperFunction,SMDPad,CuDef*
G04 #@! TO.P,U1,8*
G04 #@! TO.N,ADC1*
G36*
X144002126Y-115430801D02*
G01*
X144008193Y-115431701D01*
X144014143Y-115433191D01*
X144019918Y-115435258D01*
X144025462Y-115437880D01*
X144030723Y-115441033D01*
X144035650Y-115444687D01*
X144040194Y-115448806D01*
X144044313Y-115453350D01*
X144047967Y-115458277D01*
X144051120Y-115463538D01*
X144053742Y-115469082D01*
X144055809Y-115474857D01*
X144057299Y-115480807D01*
X144058199Y-115486874D01*
X144058500Y-115493000D01*
X144058500Y-115618000D01*
X144058199Y-115624126D01*
X144057299Y-115630193D01*
X144055809Y-115636143D01*
X144053742Y-115641918D01*
X144051120Y-115647462D01*
X144047967Y-115652723D01*
X144044313Y-115657650D01*
X144040194Y-115662194D01*
X144035650Y-115666313D01*
X144030723Y-115669967D01*
X144025462Y-115673120D01*
X144019918Y-115675742D01*
X144014143Y-115677809D01*
X144008193Y-115679299D01*
X144002126Y-115680199D01*
X143996000Y-115680500D01*
X143246000Y-115680500D01*
X143239874Y-115680199D01*
X143233807Y-115679299D01*
X143227857Y-115677809D01*
X143222082Y-115675742D01*
X143216538Y-115673120D01*
X143211277Y-115669967D01*
X143206350Y-115666313D01*
X143201806Y-115662194D01*
X143197687Y-115657650D01*
X143194033Y-115652723D01*
X143190880Y-115647462D01*
X143188258Y-115641918D01*
X143186191Y-115636143D01*
X143184701Y-115630193D01*
X143183801Y-115624126D01*
X143183500Y-115618000D01*
X143183500Y-115493000D01*
X143183801Y-115486874D01*
X143184701Y-115480807D01*
X143186191Y-115474857D01*
X143188258Y-115469082D01*
X143190880Y-115463538D01*
X143194033Y-115458277D01*
X143197687Y-115453350D01*
X143201806Y-115448806D01*
X143206350Y-115444687D01*
X143211277Y-115441033D01*
X143216538Y-115437880D01*
X143222082Y-115435258D01*
X143227857Y-115433191D01*
X143233807Y-115431701D01*
X143239874Y-115430801D01*
X143246000Y-115430500D01*
X143996000Y-115430500D01*
X144002126Y-115430801D01*
G37*
G04 #@! TD.AperFunction*
G04 #@! TA.AperFunction,SMDPad,CuDef*
G04 #@! TO.P,U1,7*
G04 #@! TO.N,NRTS*
G36*
X144002126Y-114930801D02*
G01*
X144008193Y-114931701D01*
X144014143Y-114933191D01*
X144019918Y-114935258D01*
X144025462Y-114937880D01*
X144030723Y-114941033D01*
X144035650Y-114944687D01*
X144040194Y-114948806D01*
X144044313Y-114953350D01*
X144047967Y-114958277D01*
X144051120Y-114963538D01*
X144053742Y-114969082D01*
X144055809Y-114974857D01*
X144057299Y-114980807D01*
X144058199Y-114986874D01*
X144058500Y-114993000D01*
X144058500Y-115118000D01*
X144058199Y-115124126D01*
X144057299Y-115130193D01*
X144055809Y-115136143D01*
X144053742Y-115141918D01*
X144051120Y-115147462D01*
X144047967Y-115152723D01*
X144044313Y-115157650D01*
X144040194Y-115162194D01*
X144035650Y-115166313D01*
X144030723Y-115169967D01*
X144025462Y-115173120D01*
X144019918Y-115175742D01*
X144014143Y-115177809D01*
X144008193Y-115179299D01*
X144002126Y-115180199D01*
X143996000Y-115180500D01*
X143246000Y-115180500D01*
X143239874Y-115180199D01*
X143233807Y-115179299D01*
X143227857Y-115177809D01*
X143222082Y-115175742D01*
X143216538Y-115173120D01*
X143211277Y-115169967D01*
X143206350Y-115166313D01*
X143201806Y-115162194D01*
X143197687Y-115157650D01*
X143194033Y-115152723D01*
X143190880Y-115147462D01*
X143188258Y-115141918D01*
X143186191Y-115136143D01*
X143184701Y-115130193D01*
X143183801Y-115124126D01*
X143183500Y-115118000D01*
X143183500Y-114993000D01*
X143183801Y-114986874D01*
X143184701Y-114980807D01*
X143186191Y-114974857D01*
X143188258Y-114969082D01*
X143190880Y-114963538D01*
X143194033Y-114958277D01*
X143197687Y-114953350D01*
X143201806Y-114948806D01*
X143206350Y-114944687D01*
X143211277Y-114941033D01*
X143216538Y-114937880D01*
X143222082Y-114935258D01*
X143227857Y-114933191D01*
X143233807Y-114931701D01*
X143239874Y-114930801D01*
X143246000Y-114930500D01*
X143996000Y-114930500D01*
X144002126Y-114930801D01*
G37*
G04 #@! TD.AperFunction*
G04 #@! TA.AperFunction,SMDPad,CuDef*
G04 #@! TO.P,U1,6*
G04 #@! TO.N,Net-(U1-Pad6)*
G36*
X144002126Y-114430801D02*
G01*
X144008193Y-114431701D01*
X144014143Y-114433191D01*
X144019918Y-114435258D01*
X144025462Y-114437880D01*
X144030723Y-114441033D01*
X144035650Y-114444687D01*
X144040194Y-114448806D01*
X144044313Y-114453350D01*
X144047967Y-114458277D01*
X144051120Y-114463538D01*
X144053742Y-114469082D01*
X144055809Y-114474857D01*
X144057299Y-114480807D01*
X144058199Y-114486874D01*
X144058500Y-114493000D01*
X144058500Y-114618000D01*
X144058199Y-114624126D01*
X144057299Y-114630193D01*
X144055809Y-114636143D01*
X144053742Y-114641918D01*
X144051120Y-114647462D01*
X144047967Y-114652723D01*
X144044313Y-114657650D01*
X144040194Y-114662194D01*
X144035650Y-114666313D01*
X144030723Y-114669967D01*
X144025462Y-114673120D01*
X144019918Y-114675742D01*
X144014143Y-114677809D01*
X144008193Y-114679299D01*
X144002126Y-114680199D01*
X143996000Y-114680500D01*
X143246000Y-114680500D01*
X143239874Y-114680199D01*
X143233807Y-114679299D01*
X143227857Y-114677809D01*
X143222082Y-114675742D01*
X143216538Y-114673120D01*
X143211277Y-114669967D01*
X143206350Y-114666313D01*
X143201806Y-114662194D01*
X143197687Y-114657650D01*
X143194033Y-114652723D01*
X143190880Y-114647462D01*
X143188258Y-114641918D01*
X143186191Y-114636143D01*
X143184701Y-114630193D01*
X143183801Y-114624126D01*
X143183500Y-114618000D01*
X143183500Y-114493000D01*
X143183801Y-114486874D01*
X143184701Y-114480807D01*
X143186191Y-114474857D01*
X143188258Y-114469082D01*
X143190880Y-114463538D01*
X143194033Y-114458277D01*
X143197687Y-114453350D01*
X143201806Y-114448806D01*
X143206350Y-114444687D01*
X143211277Y-114441033D01*
X143216538Y-114437880D01*
X143222082Y-114435258D01*
X143227857Y-114433191D01*
X143233807Y-114431701D01*
X143239874Y-114430801D01*
X143246000Y-114430500D01*
X143996000Y-114430500D01*
X144002126Y-114430801D01*
G37*
G04 #@! TD.AperFunction*
G04 #@! TA.AperFunction,SMDPad,CuDef*
G04 #@! TO.P,U1,5*
G04 #@! TO.N,Net-(U1-Pad5)*
G36*
X144002126Y-113930801D02*
G01*
X144008193Y-113931701D01*
X144014143Y-113933191D01*
X144019918Y-113935258D01*
X144025462Y-113937880D01*
X144030723Y-113941033D01*
X144035650Y-113944687D01*
X144040194Y-113948806D01*
X144044313Y-113953350D01*
X144047967Y-113958277D01*
X144051120Y-113963538D01*
X144053742Y-113969082D01*
X144055809Y-113974857D01*
X144057299Y-113980807D01*
X144058199Y-113986874D01*
X144058500Y-113993000D01*
X144058500Y-114118000D01*
X144058199Y-114124126D01*
X144057299Y-114130193D01*
X144055809Y-114136143D01*
X144053742Y-114141918D01*
X144051120Y-114147462D01*
X144047967Y-114152723D01*
X144044313Y-114157650D01*
X144040194Y-114162194D01*
X144035650Y-114166313D01*
X144030723Y-114169967D01*
X144025462Y-114173120D01*
X144019918Y-114175742D01*
X144014143Y-114177809D01*
X144008193Y-114179299D01*
X144002126Y-114180199D01*
X143996000Y-114180500D01*
X143246000Y-114180500D01*
X143239874Y-114180199D01*
X143233807Y-114179299D01*
X143227857Y-114177809D01*
X143222082Y-114175742D01*
X143216538Y-114173120D01*
X143211277Y-114169967D01*
X143206350Y-114166313D01*
X143201806Y-114162194D01*
X143197687Y-114157650D01*
X143194033Y-114152723D01*
X143190880Y-114147462D01*
X143188258Y-114141918D01*
X143186191Y-114136143D01*
X143184701Y-114130193D01*
X143183801Y-114124126D01*
X143183500Y-114118000D01*
X143183500Y-113993000D01*
X143183801Y-113986874D01*
X143184701Y-113980807D01*
X143186191Y-113974857D01*
X143188258Y-113969082D01*
X143190880Y-113963538D01*
X143194033Y-113958277D01*
X143197687Y-113953350D01*
X143201806Y-113948806D01*
X143206350Y-113944687D01*
X143211277Y-113941033D01*
X143216538Y-113937880D01*
X143222082Y-113935258D01*
X143227857Y-113933191D01*
X143233807Y-113931701D01*
X143239874Y-113930801D01*
X143246000Y-113930500D01*
X143996000Y-113930500D01*
X144002126Y-113930801D01*
G37*
G04 #@! TD.AperFunction*
G04 #@! TA.AperFunction,SMDPad,CuDef*
G04 #@! TO.P,U1,4*
G04 #@! TO.N,Net-(U1-Pad4)*
G36*
X144002126Y-113430801D02*
G01*
X144008193Y-113431701D01*
X144014143Y-113433191D01*
X144019918Y-113435258D01*
X144025462Y-113437880D01*
X144030723Y-113441033D01*
X144035650Y-113444687D01*
X144040194Y-113448806D01*
X144044313Y-113453350D01*
X144047967Y-113458277D01*
X144051120Y-113463538D01*
X144053742Y-113469082D01*
X144055809Y-113474857D01*
X144057299Y-113480807D01*
X144058199Y-113486874D01*
X144058500Y-113493000D01*
X144058500Y-113618000D01*
X144058199Y-113624126D01*
X144057299Y-113630193D01*
X144055809Y-113636143D01*
X144053742Y-113641918D01*
X144051120Y-113647462D01*
X144047967Y-113652723D01*
X144044313Y-113657650D01*
X144040194Y-113662194D01*
X144035650Y-113666313D01*
X144030723Y-113669967D01*
X144025462Y-113673120D01*
X144019918Y-113675742D01*
X144014143Y-113677809D01*
X144008193Y-113679299D01*
X144002126Y-113680199D01*
X143996000Y-113680500D01*
X143246000Y-113680500D01*
X143239874Y-113680199D01*
X143233807Y-113679299D01*
X143227857Y-113677809D01*
X143222082Y-113675742D01*
X143216538Y-113673120D01*
X143211277Y-113669967D01*
X143206350Y-113666313D01*
X143201806Y-113662194D01*
X143197687Y-113657650D01*
X143194033Y-113652723D01*
X143190880Y-113647462D01*
X143188258Y-113641918D01*
X143186191Y-113636143D01*
X143184701Y-113630193D01*
X143183801Y-113624126D01*
X143183500Y-113618000D01*
X143183500Y-113493000D01*
X143183801Y-113486874D01*
X143184701Y-113480807D01*
X143186191Y-113474857D01*
X143188258Y-113469082D01*
X143190880Y-113463538D01*
X143194033Y-113458277D01*
X143197687Y-113453350D01*
X143201806Y-113448806D01*
X143206350Y-113444687D01*
X143211277Y-113441033D01*
X143216538Y-113437880D01*
X143222082Y-113435258D01*
X143227857Y-113433191D01*
X143233807Y-113431701D01*
X143239874Y-113430801D01*
X143246000Y-113430500D01*
X143996000Y-113430500D01*
X144002126Y-113430801D01*
G37*
G04 #@! TD.AperFunction*
G04 #@! TA.AperFunction,SMDPad,CuDef*
G04 #@! TO.P,U1,3*
G04 #@! TO.N,LED_1*
G36*
X144002126Y-112930801D02*
G01*
X144008193Y-112931701D01*
X144014143Y-112933191D01*
X144019918Y-112935258D01*
X144025462Y-112937880D01*
X144030723Y-112941033D01*
X144035650Y-112944687D01*
X144040194Y-112948806D01*
X144044313Y-112953350D01*
X144047967Y-112958277D01*
X144051120Y-112963538D01*
X144053742Y-112969082D01*
X144055809Y-112974857D01*
X144057299Y-112980807D01*
X144058199Y-112986874D01*
X144058500Y-112993000D01*
X144058500Y-113118000D01*
X144058199Y-113124126D01*
X144057299Y-113130193D01*
X144055809Y-113136143D01*
X144053742Y-113141918D01*
X144051120Y-113147462D01*
X144047967Y-113152723D01*
X144044313Y-113157650D01*
X144040194Y-113162194D01*
X144035650Y-113166313D01*
X144030723Y-113169967D01*
X144025462Y-113173120D01*
X144019918Y-113175742D01*
X144014143Y-113177809D01*
X144008193Y-113179299D01*
X144002126Y-113180199D01*
X143996000Y-113180500D01*
X143246000Y-113180500D01*
X143239874Y-113180199D01*
X143233807Y-113179299D01*
X143227857Y-113177809D01*
X143222082Y-113175742D01*
X143216538Y-113173120D01*
X143211277Y-113169967D01*
X143206350Y-113166313D01*
X143201806Y-113162194D01*
X143197687Y-113157650D01*
X143194033Y-113152723D01*
X143190880Y-113147462D01*
X143188258Y-113141918D01*
X143186191Y-113136143D01*
X143184701Y-113130193D01*
X143183801Y-113124126D01*
X143183500Y-113118000D01*
X143183500Y-112993000D01*
X143183801Y-112986874D01*
X143184701Y-112980807D01*
X143186191Y-112974857D01*
X143188258Y-112969082D01*
X143190880Y-112963538D01*
X143194033Y-112958277D01*
X143197687Y-112953350D01*
X143201806Y-112948806D01*
X143206350Y-112944687D01*
X143211277Y-112941033D01*
X143216538Y-112937880D01*
X143222082Y-112935258D01*
X143227857Y-112933191D01*
X143233807Y-112931701D01*
X143239874Y-112930801D01*
X143246000Y-112930500D01*
X143996000Y-112930500D01*
X144002126Y-112930801D01*
G37*
G04 #@! TD.AperFunction*
G04 #@! TA.AperFunction,SMDPad,CuDef*
G04 #@! TO.P,U1,2*
G04 #@! TO.N,LED_2*
G36*
X144002126Y-112430801D02*
G01*
X144008193Y-112431701D01*
X144014143Y-112433191D01*
X144019918Y-112435258D01*
X144025462Y-112437880D01*
X144030723Y-112441033D01*
X144035650Y-112444687D01*
X144040194Y-112448806D01*
X144044313Y-112453350D01*
X144047967Y-112458277D01*
X144051120Y-112463538D01*
X144053742Y-112469082D01*
X144055809Y-112474857D01*
X144057299Y-112480807D01*
X144058199Y-112486874D01*
X144058500Y-112493000D01*
X144058500Y-112618000D01*
X144058199Y-112624126D01*
X144057299Y-112630193D01*
X144055809Y-112636143D01*
X144053742Y-112641918D01*
X144051120Y-112647462D01*
X144047967Y-112652723D01*
X144044313Y-112657650D01*
X144040194Y-112662194D01*
X144035650Y-112666313D01*
X144030723Y-112669967D01*
X144025462Y-112673120D01*
X144019918Y-112675742D01*
X144014143Y-112677809D01*
X144008193Y-112679299D01*
X144002126Y-112680199D01*
X143996000Y-112680500D01*
X143246000Y-112680500D01*
X143239874Y-112680199D01*
X143233807Y-112679299D01*
X143227857Y-112677809D01*
X143222082Y-112675742D01*
X143216538Y-112673120D01*
X143211277Y-112669967D01*
X143206350Y-112666313D01*
X143201806Y-112662194D01*
X143197687Y-112657650D01*
X143194033Y-112652723D01*
X143190880Y-112647462D01*
X143188258Y-112641918D01*
X143186191Y-112636143D01*
X143184701Y-112630193D01*
X143183801Y-112624126D01*
X143183500Y-112618000D01*
X143183500Y-112493000D01*
X143183801Y-112486874D01*
X143184701Y-112480807D01*
X143186191Y-112474857D01*
X143188258Y-112469082D01*
X143190880Y-112463538D01*
X143194033Y-112458277D01*
X143197687Y-112453350D01*
X143201806Y-112448806D01*
X143206350Y-112444687D01*
X143211277Y-112441033D01*
X143216538Y-112437880D01*
X143222082Y-112435258D01*
X143227857Y-112433191D01*
X143233807Y-112431701D01*
X143239874Y-112430801D01*
X143246000Y-112430500D01*
X143996000Y-112430500D01*
X144002126Y-112430801D01*
G37*
G04 #@! TD.AperFunction*
G04 #@! TA.AperFunction,SMDPad,CuDef*
G04 #@! TO.P,U1,1*
G04 #@! TO.N,+3V3*
G36*
X144002126Y-111930801D02*
G01*
X144008193Y-111931701D01*
X144014143Y-111933191D01*
X144019918Y-111935258D01*
X144025462Y-111937880D01*
X144030723Y-111941033D01*
X144035650Y-111944687D01*
X144040194Y-111948806D01*
X144044313Y-111953350D01*
X144047967Y-111958277D01*
X144051120Y-111963538D01*
X144053742Y-111969082D01*
X144055809Y-111974857D01*
X144057299Y-111980807D01*
X144058199Y-111986874D01*
X144058500Y-111993000D01*
X144058500Y-112118000D01*
X144058199Y-112124126D01*
X144057299Y-112130193D01*
X144055809Y-112136143D01*
X144053742Y-112141918D01*
X144051120Y-112147462D01*
X144047967Y-112152723D01*
X144044313Y-112157650D01*
X144040194Y-112162194D01*
X144035650Y-112166313D01*
X144030723Y-112169967D01*
X144025462Y-112173120D01*
X144019918Y-112175742D01*
X144014143Y-112177809D01*
X144008193Y-112179299D01*
X144002126Y-112180199D01*
X143996000Y-112180500D01*
X143246000Y-112180500D01*
X143239874Y-112180199D01*
X143233807Y-112179299D01*
X143227857Y-112177809D01*
X143222082Y-112175742D01*
X143216538Y-112173120D01*
X143211277Y-112169967D01*
X143206350Y-112166313D01*
X143201806Y-112162194D01*
X143197687Y-112157650D01*
X143194033Y-112152723D01*
X143190880Y-112147462D01*
X143188258Y-112141918D01*
X143186191Y-112136143D01*
X143184701Y-112130193D01*
X143183801Y-112124126D01*
X143183500Y-112118000D01*
X143183500Y-111993000D01*
X143183801Y-111986874D01*
X143184701Y-111980807D01*
X143186191Y-111974857D01*
X143188258Y-111969082D01*
X143190880Y-111963538D01*
X143194033Y-111958277D01*
X143197687Y-111953350D01*
X143201806Y-111948806D01*
X143206350Y-111944687D01*
X143211277Y-111941033D01*
X143216538Y-111937880D01*
X143222082Y-111935258D01*
X143227857Y-111933191D01*
X143233807Y-111931701D01*
X143239874Y-111930801D01*
X143246000Y-111930500D01*
X143996000Y-111930500D01*
X144002126Y-111930801D01*
G37*
G04 #@! TD.AperFunction*
G04 #@! TA.AperFunction,SMDPad,CuDef*
G04 #@! TO.P,U1,49*
G04 #@! TO.N,GND*
G36*
X149633004Y-112006704D02*
G01*
X149657273Y-112010304D01*
X149681071Y-112016265D01*
X149704171Y-112024530D01*
X149726349Y-112035020D01*
X149747393Y-112047633D01*
X149767098Y-112062247D01*
X149785277Y-112078723D01*
X149801753Y-112096902D01*
X149816367Y-112116607D01*
X149828980Y-112137651D01*
X149839470Y-112159829D01*
X149847735Y-112182929D01*
X149853696Y-112206727D01*
X149857296Y-112230996D01*
X149858500Y-112255500D01*
X149858500Y-117355500D01*
X149857296Y-117380004D01*
X149853696Y-117404273D01*
X149847735Y-117428071D01*
X149839470Y-117451171D01*
X149828980Y-117473349D01*
X149816367Y-117494393D01*
X149801753Y-117514098D01*
X149785277Y-117532277D01*
X149767098Y-117548753D01*
X149747393Y-117563367D01*
X149726349Y-117575980D01*
X149704171Y-117586470D01*
X149681071Y-117594735D01*
X149657273Y-117600696D01*
X149633004Y-117604296D01*
X149608500Y-117605500D01*
X144508500Y-117605500D01*
X144483996Y-117604296D01*
X144459727Y-117600696D01*
X144435929Y-117594735D01*
X144412829Y-117586470D01*
X144390651Y-117575980D01*
X144369607Y-117563367D01*
X144349902Y-117548753D01*
X144331723Y-117532277D01*
X144315247Y-117514098D01*
X144300633Y-117494393D01*
X144288020Y-117473349D01*
X144277530Y-117451171D01*
X144269265Y-117428071D01*
X144263304Y-117404273D01*
X144259704Y-117380004D01*
X144258500Y-117355500D01*
X144258500Y-112255500D01*
X144259704Y-112230996D01*
X144263304Y-112206727D01*
X144269265Y-112182929D01*
X144277530Y-112159829D01*
X144288020Y-112137651D01*
X144300633Y-112116607D01*
X144315247Y-112096902D01*
X144331723Y-112078723D01*
X144349902Y-112062247D01*
X144369607Y-112047633D01*
X144390651Y-112035020D01*
X144412829Y-112024530D01*
X144435929Y-112016265D01*
X144459727Y-112010304D01*
X144483996Y-112006704D01*
X144508500Y-112005500D01*
X149608500Y-112005500D01*
X149633004Y-112006704D01*
G37*
G04 #@! TD.AperFunction*
G04 #@! TD*
D11*
G04 #@! TO.P,U2,1*
G04 #@! TO.N,+3V3*
X157324501Y-108810501D03*
G04 #@! TO.P,U2,2*
G04 #@! TO.N,GND*
X157324501Y-110080501D03*
G04 #@! TO.P,U2,3*
G04 #@! TO.N,I2C_SDA*
X157324501Y-111350501D03*
G04 #@! TO.P,U2,4*
G04 #@! TO.N,I2C_SCL*
X157324501Y-112620501D03*
G04 #@! TO.P,U2,5*
G04 #@! TO.N,FDCAN_TX*
X156689501Y-113890501D03*
G04 #@! TO.P,U2,6*
G04 #@! TO.N,FDCAN_RX*
X156689501Y-115160501D03*
G04 #@! TO.P,U2,7*
G04 #@! TO.N,USART1_RX*
X156689501Y-116430501D03*
G04 #@! TO.P,U2,8*
G04 #@! TO.N,USART1_TX*
X156689501Y-117700501D03*
G04 #@! TO.P,U2,9*
G04 #@! TO.N,GND*
X148434501Y-121510501D03*
G04 #@! TO.P,U2,10*
G04 #@! TO.N,USART2*
X147164501Y-121510501D03*
G04 #@! TO.P,U2,11*
G04 #@! TO.N,MOSI*
X145894501Y-121510501D03*
G04 #@! TO.P,U2,12*
G04 #@! TO.N,MISO*
X144624501Y-121510501D03*
G04 #@! TO.P,U2,13*
G04 #@! TO.N,SCK*
X143354501Y-121510501D03*
G04 #@! TO.P,U2,14*
G04 #@! TO.N,ADC2*
X142084501Y-121510501D03*
G04 #@! TO.P,U2,15*
G04 #@! TO.N,ADC1*
X140814501Y-121510501D03*
G04 #@! TO.P,U2,16*
G04 #@! TO.N,VCC*
X139544501Y-121510501D03*
G04 #@! TD*
D12*
G04 #@! TO.P,U3,3*
G04 #@! TO.N,VCC*
X143383000Y-101854000D03*
G04 #@! TO.P,U3,2*
G04 #@! TO.N,+3V3*
X141383000Y-102804000D03*
G04 #@! TO.P,U3,1*
G04 #@! TO.N,GND*
X141383000Y-100904000D03*
G04 #@! TD*
D13*
G04 #@! TO.P,S2,3*
G04 #@! TO.N,GND*
X140906000Y-105410000D03*
G04 #@! TO.P,S2,2*
G04 #@! TO.N,VCC*
X138906000Y-105410000D03*
G04 #@! TA.AperFunction,ComponentPad*
D14*
G04 #@! TO.P,S2,1*
G04 #@! TO.N,USART2*
G36*
X137280505Y-104536204D02*
G01*
X137304773Y-104539804D01*
X137328572Y-104545765D01*
X137351671Y-104554030D01*
X137373850Y-104564520D01*
X137394893Y-104577132D01*
X137414599Y-104591747D01*
X137432777Y-104608223D01*
X137449253Y-104626401D01*
X137463868Y-104646107D01*
X137476480Y-104667150D01*
X137486970Y-104689329D01*
X137495235Y-104712428D01*
X137501196Y-104736227D01*
X137504796Y-104760495D01*
X137506000Y-104784999D01*
X137506000Y-106035001D01*
X137504796Y-106059505D01*
X137501196Y-106083773D01*
X137495235Y-106107572D01*
X137486970Y-106130671D01*
X137476480Y-106152850D01*
X137463868Y-106173893D01*
X137449253Y-106193599D01*
X137432777Y-106211777D01*
X137414599Y-106228253D01*
X137394893Y-106242868D01*
X137373850Y-106255480D01*
X137351671Y-106265970D01*
X137328572Y-106274235D01*
X137304773Y-106280196D01*
X137280505Y-106283796D01*
X137256001Y-106285000D01*
X136555999Y-106285000D01*
X136531495Y-106283796D01*
X136507227Y-106280196D01*
X136483428Y-106274235D01*
X136460329Y-106265970D01*
X136438150Y-106255480D01*
X136417107Y-106242868D01*
X136397401Y-106228253D01*
X136379223Y-106211777D01*
X136362747Y-106193599D01*
X136348132Y-106173893D01*
X136335520Y-106152850D01*
X136325030Y-106130671D01*
X136316765Y-106107572D01*
X136310804Y-106083773D01*
X136307204Y-106059505D01*
X136306000Y-106035001D01*
X136306000Y-104784999D01*
X136307204Y-104760495D01*
X136310804Y-104736227D01*
X136316765Y-104712428D01*
X136325030Y-104689329D01*
X136335520Y-104667150D01*
X136348132Y-104646107D01*
X136362747Y-104626401D01*
X136379223Y-104608223D01*
X136397401Y-104591747D01*
X136417107Y-104577132D01*
X136438150Y-104564520D01*
X136460329Y-104554030D01*
X136483428Y-104545765D01*
X136507227Y-104539804D01*
X136531495Y-104536204D01*
X136555999Y-104535000D01*
X137256001Y-104535000D01*
X137280505Y-104536204D01*
G37*
G04 #@! TD.AperFunction*
G04 #@! TD*
D13*
G04 #@! TO.P,S1,3*
G04 #@! TO.N,GND*
X149923000Y-105410000D03*
G04 #@! TO.P,S1,2*
G04 #@! TO.N,VCC*
X147923000Y-105410000D03*
G04 #@! TA.AperFunction,ComponentPad*
D14*
G04 #@! TO.P,S1,1*
G04 #@! TO.N,USART2*
G36*
X146297505Y-104536204D02*
G01*
X146321773Y-104539804D01*
X146345572Y-104545765D01*
X146368671Y-104554030D01*
X146390850Y-104564520D01*
X146411893Y-104577132D01*
X146431599Y-104591747D01*
X146449777Y-104608223D01*
X146466253Y-104626401D01*
X146480868Y-104646107D01*
X146493480Y-104667150D01*
X146503970Y-104689329D01*
X146512235Y-104712428D01*
X146518196Y-104736227D01*
X146521796Y-104760495D01*
X146523000Y-104784999D01*
X146523000Y-106035001D01*
X146521796Y-106059505D01*
X146518196Y-106083773D01*
X146512235Y-106107572D01*
X146503970Y-106130671D01*
X146493480Y-106152850D01*
X146480868Y-106173893D01*
X146466253Y-106193599D01*
X146449777Y-106211777D01*
X146431599Y-106228253D01*
X146411893Y-106242868D01*
X146390850Y-106255480D01*
X146368671Y-106265970D01*
X146345572Y-106274235D01*
X146321773Y-106280196D01*
X146297505Y-106283796D01*
X146273001Y-106285000D01*
X145572999Y-106285000D01*
X145548495Y-106283796D01*
X145524227Y-106280196D01*
X145500428Y-106274235D01*
X145477329Y-106265970D01*
X145455150Y-106255480D01*
X145434107Y-106242868D01*
X145414401Y-106228253D01*
X145396223Y-106211777D01*
X145379747Y-106193599D01*
X145365132Y-106173893D01*
X145352520Y-106152850D01*
X145342030Y-106130671D01*
X145333765Y-106107572D01*
X145327804Y-106083773D01*
X145324204Y-106059505D01*
X145323000Y-106035001D01*
X145323000Y-104784999D01*
X145324204Y-104760495D01*
X145327804Y-104736227D01*
X145333765Y-104712428D01*
X145342030Y-104689329D01*
X145352520Y-104667150D01*
X145365132Y-104646107D01*
X145379747Y-104626401D01*
X145396223Y-104608223D01*
X145414401Y-104591747D01*
X145434107Y-104577132D01*
X145455150Y-104564520D01*
X145477329Y-104554030D01*
X145500428Y-104545765D01*
X145524227Y-104539804D01*
X145548495Y-104536204D01*
X145572999Y-104535000D01*
X146273001Y-104535000D01*
X146297505Y-104536204D01*
G37*
G04 #@! TD.AperFunction*
G04 #@! TD*
D15*
G04 #@! TO.P,J4,2*
G04 #@! TO.N,GND*
X137023974Y-118608974D02*
X137023974Y-118608974D01*
G04 #@! TA.AperFunction,ComponentPad*
D14*
G04 #@! TO.P,J4,1*
G04 #@! TO.N,NRTS*
G36*
X137922000Y-120214107D02*
G01*
X137214893Y-119507000D01*
X137922000Y-118799893D01*
X138629107Y-119507000D01*
X137922000Y-120214107D01*
G37*
G04 #@! TD.AperFunction*
G04 #@! TD*
D16*
G04 #@! TO.P,J3,5*
G04 #@! TO.N,GND*
X150622000Y-108407200D03*
G04 #@! TO.P,J3,4*
G04 #@! TO.N,JTMS-SWDIO*
X149352000Y-108407200D03*
G04 #@! TO.P,J3,3*
G04 #@! TO.N,JTCK-SWCLI*
X148082000Y-108407200D03*
G04 #@! TO.P,J3,2*
G04 #@! TO.N,+3V3*
X146812000Y-108407200D03*
D17*
G04 #@! TO.P,J3,1*
G04 #@! TO.N,VCC*
X145542000Y-108407200D03*
G04 #@! TD*
D18*
G04 #@! TO.P,J2,1*
G04 #@! TO.N,Net-(J2-Pad1)*
X154500000Y-106700000D03*
G04 #@! TD*
G04 #@! TO.P,J1,1*
G04 #@! TO.N,Net-(J1-Pad1)*
X138500000Y-114700000D03*
G04 #@! TD*
G04 #@! TA.AperFunction,SMDPad,CuDef*
D10*
G04 #@! TO.P,D3,2*
G04 #@! TO.N,Net-(D3-Pad2)*
G36*
X151243291Y-102116653D02*
G01*
X151264526Y-102119803D01*
X151285350Y-102125019D01*
X151305562Y-102132251D01*
X151324968Y-102141430D01*
X151343381Y-102152466D01*
X151360624Y-102165254D01*
X151376530Y-102179670D01*
X151390946Y-102195576D01*
X151403734Y-102212819D01*
X151414770Y-102231232D01*
X151423949Y-102250638D01*
X151431181Y-102270850D01*
X151436397Y-102291674D01*
X151439547Y-102312909D01*
X151440600Y-102334350D01*
X151440600Y-102846850D01*
X151439547Y-102868291D01*
X151436397Y-102889526D01*
X151431181Y-102910350D01*
X151423949Y-102930562D01*
X151414770Y-102949968D01*
X151403734Y-102968381D01*
X151390946Y-102985624D01*
X151376530Y-103001530D01*
X151360624Y-103015946D01*
X151343381Y-103028734D01*
X151324968Y-103039770D01*
X151305562Y-103048949D01*
X151285350Y-103056181D01*
X151264526Y-103061397D01*
X151243291Y-103064547D01*
X151221850Y-103065600D01*
X150784350Y-103065600D01*
X150762909Y-103064547D01*
X150741674Y-103061397D01*
X150720850Y-103056181D01*
X150700638Y-103048949D01*
X150681232Y-103039770D01*
X150662819Y-103028734D01*
X150645576Y-103015946D01*
X150629670Y-103001530D01*
X150615254Y-102985624D01*
X150602466Y-102968381D01*
X150591430Y-102949968D01*
X150582251Y-102930562D01*
X150575019Y-102910350D01*
X150569803Y-102889526D01*
X150566653Y-102868291D01*
X150565600Y-102846850D01*
X150565600Y-102334350D01*
X150566653Y-102312909D01*
X150569803Y-102291674D01*
X150575019Y-102270850D01*
X150582251Y-102250638D01*
X150591430Y-102231232D01*
X150602466Y-102212819D01*
X150615254Y-102195576D01*
X150629670Y-102179670D01*
X150645576Y-102165254D01*
X150662819Y-102152466D01*
X150681232Y-102141430D01*
X150700638Y-102132251D01*
X150720850Y-102125019D01*
X150741674Y-102119803D01*
X150762909Y-102116653D01*
X150784350Y-102115600D01*
X151221850Y-102115600D01*
X151243291Y-102116653D01*
G37*
G04 #@! TD.AperFunction*
G04 #@! TA.AperFunction,SMDPad,CuDef*
G04 #@! TO.P,D3,1*
G04 #@! TO.N,GND*
G36*
X149668291Y-102116653D02*
G01*
X149689526Y-102119803D01*
X149710350Y-102125019D01*
X149730562Y-102132251D01*
X149749968Y-102141430D01*
X149768381Y-102152466D01*
X149785624Y-102165254D01*
X149801530Y-102179670D01*
X149815946Y-102195576D01*
X149828734Y-102212819D01*
X149839770Y-102231232D01*
X149848949Y-102250638D01*
X149856181Y-102270850D01*
X149861397Y-102291674D01*
X149864547Y-102312909D01*
X149865600Y-102334350D01*
X149865600Y-102846850D01*
X149864547Y-102868291D01*
X149861397Y-102889526D01*
X149856181Y-102910350D01*
X149848949Y-102930562D01*
X149839770Y-102949968D01*
X149828734Y-102968381D01*
X149815946Y-102985624D01*
X149801530Y-103001530D01*
X149785624Y-103015946D01*
X149768381Y-103028734D01*
X149749968Y-103039770D01*
X149730562Y-103048949D01*
X149710350Y-103056181D01*
X149689526Y-103061397D01*
X149668291Y-103064547D01*
X149646850Y-103065600D01*
X149209350Y-103065600D01*
X149187909Y-103064547D01*
X149166674Y-103061397D01*
X149145850Y-103056181D01*
X149125638Y-103048949D01*
X149106232Y-103039770D01*
X149087819Y-103028734D01*
X149070576Y-103015946D01*
X149054670Y-103001530D01*
X149040254Y-102985624D01*
X149027466Y-102968381D01*
X149016430Y-102949968D01*
X149007251Y-102930562D01*
X149000019Y-102910350D01*
X148994803Y-102889526D01*
X148991653Y-102868291D01*
X148990600Y-102846850D01*
X148990600Y-102334350D01*
X148991653Y-102312909D01*
X148994803Y-102291674D01*
X149000019Y-102270850D01*
X149007251Y-102250638D01*
X149016430Y-102231232D01*
X149027466Y-102212819D01*
X149040254Y-102195576D01*
X149054670Y-102179670D01*
X149070576Y-102165254D01*
X149087819Y-102152466D01*
X149106232Y-102141430D01*
X149125638Y-102132251D01*
X149145850Y-102125019D01*
X149166674Y-102119803D01*
X149187909Y-102116653D01*
X149209350Y-102115600D01*
X149646850Y-102115600D01*
X149668291Y-102116653D01*
G37*
G04 #@! TD.AperFunction*
G04 #@! TD*
G04 #@! TA.AperFunction,SMDPad,CuDef*
G04 #@! TO.P,D2,2*
G04 #@! TO.N,Net-(D2-Pad2)*
G36*
X137654191Y-110905053D02*
G01*
X137675426Y-110908203D01*
X137696250Y-110913419D01*
X137716462Y-110920651D01*
X137735868Y-110929830D01*
X137754281Y-110940866D01*
X137771524Y-110953654D01*
X137787430Y-110968070D01*
X137801846Y-110983976D01*
X137814634Y-111001219D01*
X137825670Y-111019632D01*
X137834849Y-111039038D01*
X137842081Y-111059250D01*
X137847297Y-111080074D01*
X137850447Y-111101309D01*
X137851500Y-111122750D01*
X137851500Y-111635250D01*
X137850447Y-111656691D01*
X137847297Y-111677926D01*
X137842081Y-111698750D01*
X137834849Y-111718962D01*
X137825670Y-111738368D01*
X137814634Y-111756781D01*
X137801846Y-111774024D01*
X137787430Y-111789930D01*
X137771524Y-111804346D01*
X137754281Y-111817134D01*
X137735868Y-111828170D01*
X137716462Y-111837349D01*
X137696250Y-111844581D01*
X137675426Y-111849797D01*
X137654191Y-111852947D01*
X137632750Y-111854000D01*
X137195250Y-111854000D01*
X137173809Y-111852947D01*
X137152574Y-111849797D01*
X137131750Y-111844581D01*
X137111538Y-111837349D01*
X137092132Y-111828170D01*
X137073719Y-111817134D01*
X137056476Y-111804346D01*
X137040570Y-111789930D01*
X137026154Y-111774024D01*
X137013366Y-111756781D01*
X137002330Y-111738368D01*
X136993151Y-111718962D01*
X136985919Y-111698750D01*
X136980703Y-111677926D01*
X136977553Y-111656691D01*
X136976500Y-111635250D01*
X136976500Y-111122750D01*
X136977553Y-111101309D01*
X136980703Y-111080074D01*
X136985919Y-111059250D01*
X136993151Y-111039038D01*
X137002330Y-111019632D01*
X137013366Y-111001219D01*
X137026154Y-110983976D01*
X137040570Y-110968070D01*
X137056476Y-110953654D01*
X137073719Y-110940866D01*
X137092132Y-110929830D01*
X137111538Y-110920651D01*
X137131750Y-110913419D01*
X137152574Y-110908203D01*
X137173809Y-110905053D01*
X137195250Y-110904000D01*
X137632750Y-110904000D01*
X137654191Y-110905053D01*
G37*
G04 #@! TD.AperFunction*
G04 #@! TA.AperFunction,SMDPad,CuDef*
G04 #@! TO.P,D2,1*
G04 #@! TO.N,GND*
G36*
X136079191Y-110905053D02*
G01*
X136100426Y-110908203D01*
X136121250Y-110913419D01*
X136141462Y-110920651D01*
X136160868Y-110929830D01*
X136179281Y-110940866D01*
X136196524Y-110953654D01*
X136212430Y-110968070D01*
X136226846Y-110983976D01*
X136239634Y-111001219D01*
X136250670Y-111019632D01*
X136259849Y-111039038D01*
X136267081Y-111059250D01*
X136272297Y-111080074D01*
X136275447Y-111101309D01*
X136276500Y-111122750D01*
X136276500Y-111635250D01*
X136275447Y-111656691D01*
X136272297Y-111677926D01*
X136267081Y-111698750D01*
X136259849Y-111718962D01*
X136250670Y-111738368D01*
X136239634Y-111756781D01*
X136226846Y-111774024D01*
X136212430Y-111789930D01*
X136196524Y-111804346D01*
X136179281Y-111817134D01*
X136160868Y-111828170D01*
X136141462Y-111837349D01*
X136121250Y-111844581D01*
X136100426Y-111849797D01*
X136079191Y-111852947D01*
X136057750Y-111854000D01*
X135620250Y-111854000D01*
X135598809Y-111852947D01*
X135577574Y-111849797D01*
X135556750Y-111844581D01*
X135536538Y-111837349D01*
X135517132Y-111828170D01*
X135498719Y-111817134D01*
X135481476Y-111804346D01*
X135465570Y-111789930D01*
X135451154Y-111774024D01*
X135438366Y-111756781D01*
X135427330Y-111738368D01*
X135418151Y-111718962D01*
X135410919Y-111698750D01*
X135405703Y-111677926D01*
X135402553Y-111656691D01*
X135401500Y-111635250D01*
X135401500Y-111122750D01*
X135402553Y-111101309D01*
X135405703Y-111080074D01*
X135410919Y-111059250D01*
X135418151Y-111039038D01*
X135427330Y-111019632D01*
X135438366Y-111001219D01*
X135451154Y-110983976D01*
X135465570Y-110968070D01*
X135481476Y-110953654D01*
X135498719Y-110940866D01*
X135517132Y-110929830D01*
X135536538Y-110920651D01*
X135556750Y-110913419D01*
X135577574Y-110908203D01*
X135598809Y-110905053D01*
X135620250Y-110904000D01*
X136057750Y-110904000D01*
X136079191Y-110905053D01*
G37*
G04 #@! TD.AperFunction*
G04 #@! TD*
G04 #@! TA.AperFunction,SMDPad,CuDef*
G04 #@! TO.P,D1,2*
G04 #@! TO.N,Net-(D1-Pad2)*
G36*
X137654191Y-109254053D02*
G01*
X137675426Y-109257203D01*
X137696250Y-109262419D01*
X137716462Y-109269651D01*
X137735868Y-109278830D01*
X137754281Y-109289866D01*
X137771524Y-109302654D01*
X137787430Y-109317070D01*
X137801846Y-109332976D01*
X137814634Y-109350219D01*
X137825670Y-109368632D01*
X137834849Y-109388038D01*
X137842081Y-109408250D01*
X137847297Y-109429074D01*
X137850447Y-109450309D01*
X137851500Y-109471750D01*
X137851500Y-109984250D01*
X137850447Y-110005691D01*
X137847297Y-110026926D01*
X137842081Y-110047750D01*
X137834849Y-110067962D01*
X137825670Y-110087368D01*
X137814634Y-110105781D01*
X137801846Y-110123024D01*
X137787430Y-110138930D01*
X137771524Y-110153346D01*
X137754281Y-110166134D01*
X137735868Y-110177170D01*
X137716462Y-110186349D01*
X137696250Y-110193581D01*
X137675426Y-110198797D01*
X137654191Y-110201947D01*
X137632750Y-110203000D01*
X137195250Y-110203000D01*
X137173809Y-110201947D01*
X137152574Y-110198797D01*
X137131750Y-110193581D01*
X137111538Y-110186349D01*
X137092132Y-110177170D01*
X137073719Y-110166134D01*
X137056476Y-110153346D01*
X137040570Y-110138930D01*
X137026154Y-110123024D01*
X137013366Y-110105781D01*
X137002330Y-110087368D01*
X136993151Y-110067962D01*
X136985919Y-110047750D01*
X136980703Y-110026926D01*
X136977553Y-110005691D01*
X136976500Y-109984250D01*
X136976500Y-109471750D01*
X136977553Y-109450309D01*
X136980703Y-109429074D01*
X136985919Y-109408250D01*
X136993151Y-109388038D01*
X137002330Y-109368632D01*
X137013366Y-109350219D01*
X137026154Y-109332976D01*
X137040570Y-109317070D01*
X137056476Y-109302654D01*
X137073719Y-109289866D01*
X137092132Y-109278830D01*
X137111538Y-109269651D01*
X137131750Y-109262419D01*
X137152574Y-109257203D01*
X137173809Y-109254053D01*
X137195250Y-109253000D01*
X137632750Y-109253000D01*
X137654191Y-109254053D01*
G37*
G04 #@! TD.AperFunction*
G04 #@! TA.AperFunction,SMDPad,CuDef*
G04 #@! TO.P,D1,1*
G04 #@! TO.N,GND*
G36*
X136079191Y-109254053D02*
G01*
X136100426Y-109257203D01*
X136121250Y-109262419D01*
X136141462Y-109269651D01*
X136160868Y-109278830D01*
X136179281Y-109289866D01*
X136196524Y-109302654D01*
X136212430Y-109317070D01*
X136226846Y-109332976D01*
X136239634Y-109350219D01*
X136250670Y-109368632D01*
X136259849Y-109388038D01*
X136267081Y-109408250D01*
X136272297Y-109429074D01*
X136275447Y-109450309D01*
X136276500Y-109471750D01*
X136276500Y-109984250D01*
X136275447Y-110005691D01*
X136272297Y-110026926D01*
X136267081Y-110047750D01*
X136259849Y-110067962D01*
X136250670Y-110087368D01*
X136239634Y-110105781D01*
X136226846Y-110123024D01*
X136212430Y-110138930D01*
X136196524Y-110153346D01*
X136179281Y-110166134D01*
X136160868Y-110177170D01*
X136141462Y-110186349D01*
X136121250Y-110193581D01*
X136100426Y-110198797D01*
X136079191Y-110201947D01*
X136057750Y-110203000D01*
X135620250Y-110203000D01*
X135598809Y-110201947D01*
X135577574Y-110198797D01*
X135556750Y-110193581D01*
X135536538Y-110186349D01*
X135517132Y-110177170D01*
X135498719Y-110166134D01*
X135481476Y-110153346D01*
X135465570Y-110138930D01*
X135451154Y-110123024D01*
X135438366Y-110105781D01*
X135427330Y-110087368D01*
X135418151Y-110067962D01*
X135410919Y-110047750D01*
X135405703Y-110026926D01*
X135402553Y-110005691D01*
X135401500Y-109984250D01*
X135401500Y-109471750D01*
X135402553Y-109450309D01*
X135405703Y-109429074D01*
X135410919Y-109408250D01*
X135418151Y-109388038D01*
X135427330Y-109368632D01*
X135438366Y-109350219D01*
X135451154Y-109332976D01*
X135465570Y-109317070D01*
X135481476Y-109302654D01*
X135498719Y-109289866D01*
X135517132Y-109278830D01*
X135536538Y-109269651D01*
X135556750Y-109262419D01*
X135577574Y-109257203D01*
X135598809Y-109254053D01*
X135620250Y-109253000D01*
X136057750Y-109253000D01*
X136079191Y-109254053D01*
G37*
G04 #@! TD.AperFunction*
G04 #@! TD*
D19*
G04 #@! TO.N,+3V3*
X136779000Y-99822000D03*
X135763000Y-99822000D03*
X136779000Y-100711000D03*
X135763000Y-100711000D03*
X135763000Y-101600000D03*
X136779000Y-101600000D03*
X136779000Y-102489000D03*
X136779000Y-103378000D03*
X135763000Y-102489000D03*
X135763000Y-103378000D03*
X148082000Y-119634000D03*
G04 #@! TO.N,GND*
X150749000Y-99949000D03*
X150749000Y-100965000D03*
X151765000Y-100965000D03*
X151765000Y-99949000D03*
X152781000Y-99949000D03*
X152781000Y-100965000D03*
X153797000Y-100965000D03*
X153797000Y-99949000D03*
X139192000Y-99695000D03*
X140081000Y-99695000D03*
X135763000Y-108204000D03*
X144780000Y-113030000D03*
X141224000Y-113919000D03*
X143741999Y-108077000D03*
G04 #@! TO.N,USART2*
X142809501Y-118662817D03*
X146558000Y-120015000D03*
X141097000Y-107823000D03*
G04 #@! TO.N,I2C_SDA*
X146151600Y-109778800D03*
G04 #@! TO.N,I2C_SCL*
X147357670Y-110137606D03*
G04 #@! TD*
D20*
G04 #@! TO.N,+3V3*
X157324501Y-108103395D02*
X157324501Y-108810501D01*
X157324501Y-105744501D02*
X157324501Y-108103395D01*
X154170600Y-102590600D02*
X157324501Y-105744501D01*
X153875600Y-102590600D02*
X154170600Y-102590600D01*
D21*
X151835500Y-112555500D02*
X151892000Y-112499000D01*
X150496000Y-112555500D02*
X151835500Y-112555500D01*
D20*
X154455000Y-112499000D02*
X154478000Y-112522000D01*
X151892000Y-112499000D02*
X154455000Y-112499000D01*
X154478000Y-112522000D02*
X154478000Y-111379000D01*
X156617395Y-108810501D02*
X157324501Y-108810501D01*
X154478000Y-110949896D02*
X156617395Y-108810501D01*
X154478000Y-111379000D02*
X154478000Y-110949896D01*
X149121000Y-119634000D02*
X148082000Y-119634000D01*
X146812000Y-107700094D02*
X146812000Y-108407200D01*
X146569105Y-107457199D02*
X146812000Y-107700094D01*
X144681999Y-107457199D02*
X146569105Y-107457199D01*
X144591999Y-109578001D02*
X144591999Y-107547199D01*
X144591999Y-107547199D02*
X144681999Y-107457199D01*
X144084000Y-110086000D02*
X144591999Y-109578001D01*
X143764000Y-110086000D02*
X144084000Y-110086000D01*
D21*
G04 #@! TO.N,GND*
X135839000Y-111379000D02*
X135839000Y-109728000D01*
X135839000Y-108280000D02*
X135763000Y-108204000D01*
X135839000Y-109728000D02*
X135839000Y-108280000D01*
D20*
X149428100Y-101269900D02*
X150749000Y-99949000D01*
X149428100Y-102590600D02*
X149428100Y-101269900D01*
D21*
X146555500Y-114805500D02*
X144780000Y-113030000D01*
X147058500Y-114805500D02*
X146555500Y-114805500D01*
X141351000Y-113792000D02*
X141224000Y-113919000D01*
X142367000Y-113792000D02*
X141351000Y-113792000D01*
D20*
X151892000Y-109677200D02*
X150622000Y-108407200D01*
X151892000Y-111529000D02*
X151892000Y-109677200D01*
X150091000Y-119854002D02*
X148434501Y-121510501D01*
X150091000Y-119634000D02*
X150091000Y-119854002D01*
X143764000Y-108099001D02*
X143741999Y-108077000D01*
X143764000Y-109116000D02*
X143764000Y-108099001D01*
D21*
G04 #@! TO.N,USART2*
X146888000Y-121463000D02*
X146812000Y-121539000D01*
X142809501Y-116881477D02*
X142809501Y-118662817D01*
X143135478Y-116555500D02*
X142809501Y-116881477D01*
X143621000Y-116555500D02*
X143135478Y-116555500D01*
X146558000Y-120015000D02*
X147193000Y-120650000D01*
X147164501Y-120678499D02*
X147164501Y-121510501D01*
X147193000Y-120650000D02*
X147164501Y-120678499D01*
D20*
X136906000Y-105410000D02*
X136906000Y-106680000D01*
X138049000Y-107823000D02*
X141097000Y-107823000D01*
X136906000Y-106680000D02*
X138049000Y-107823000D01*
X143510000Y-105410000D02*
X141097000Y-107823000D01*
X145923000Y-105410000D02*
X143510000Y-105410000D01*
D21*
G04 #@! TO.N,ADC2*
X142084501Y-121510501D02*
X142084501Y-116614499D01*
X142643500Y-116055500D02*
X143621000Y-116055500D01*
X142084501Y-116614499D02*
X142643500Y-116055500D01*
G04 #@! TO.N,ADC1*
X143183500Y-115555500D02*
X143621000Y-115555500D01*
X142507090Y-115555500D02*
X143183500Y-115555500D01*
X140814501Y-117248089D02*
X142507090Y-115555500D01*
X140814501Y-121510501D02*
X140814501Y-117248089D01*
G04 #@! TO.N,USART1_RX*
X150496000Y-114055500D02*
X153044500Y-114055500D01*
X155419501Y-116430501D02*
X156689501Y-116430501D01*
X153044500Y-114055500D02*
X155419501Y-116430501D01*
G04 #@! TO.N,USART1_TX*
X150496000Y-114555500D02*
X152274500Y-114555500D01*
X155419501Y-117700501D02*
X156689501Y-117700501D01*
X152274500Y-114555500D02*
X155419501Y-117700501D01*
G04 #@! TO.N,FDCAN_TX*
X150570490Y-113105490D02*
X154254901Y-113105491D01*
X150520500Y-113055500D02*
X150570490Y-113105490D01*
X150496000Y-113055500D02*
X150520500Y-113055500D01*
X155039911Y-113890501D02*
X156689501Y-113890501D01*
X154254901Y-113105491D02*
X155039911Y-113890501D01*
G04 #@! TO.N,FDCAN_RX*
X150496000Y-113555500D02*
X154068500Y-113555500D01*
X155673501Y-115160501D02*
X156689501Y-115160501D01*
X154068500Y-113555500D02*
X155673501Y-115160501D01*
G04 #@! TO.N,I2C_SDA*
X145808500Y-111368000D02*
X145808500Y-110121900D01*
X145808500Y-110121900D02*
X146151600Y-109778800D01*
D20*
X157296002Y-111379000D02*
X157324501Y-111350501D01*
X155448000Y-111379000D02*
X157296002Y-111379000D01*
D21*
G04 #@! TO.N,I2C_SCL*
X147053372Y-110137606D02*
X147357670Y-110137606D01*
X146308500Y-110882478D02*
X147053372Y-110137606D01*
X146308500Y-111368000D02*
X146308500Y-110882478D01*
D20*
X157226000Y-112522000D02*
X157324501Y-112620501D01*
X155448000Y-112522000D02*
X157226000Y-112522000D01*
D21*
G04 #@! TO.N,MOSI*
X145308500Y-118243000D02*
X145308500Y-119908500D01*
X145894501Y-120494501D02*
X145894501Y-121510501D01*
X145308500Y-119908500D02*
X145894501Y-120494501D01*
G04 #@! TO.N,MISO*
X144808500Y-118243000D02*
X144808500Y-120240500D01*
X144624501Y-120424499D02*
X144624501Y-121510501D01*
X144808500Y-120240500D02*
X144624501Y-120424499D01*
G04 #@! TO.N,SCK*
X144308500Y-119849396D02*
X144308500Y-118243000D01*
X143354501Y-120803395D02*
X144308500Y-119849396D01*
X143354501Y-121510501D02*
X143354501Y-120803395D01*
G04 #@! TO.N,Net-(D1-Pad2)*
X139189500Y-109728000D02*
X137414000Y-109728000D01*
G04 #@! TO.N,Net-(D2-Pad2)*
X139215000Y-111379000D02*
X137414000Y-111379000D01*
D20*
G04 #@! TO.N,Net-(D3-Pad2)*
X151003100Y-102590600D02*
X152905600Y-102590600D01*
D21*
G04 #@! TO.N,LED_2*
X143135478Y-112555500D02*
X143621000Y-112555500D01*
X141224000Y-110644022D02*
X143135478Y-112555500D01*
X141224000Y-109855000D02*
X141224000Y-110644022D01*
X141097000Y-109728000D02*
X141224000Y-109855000D01*
X140159500Y-109728000D02*
X141097000Y-109728000D01*
G04 #@! TO.N,LED_1*
X143485510Y-113005510D02*
X142850510Y-113005510D01*
X143535500Y-113055500D02*
X143485510Y-113005510D01*
X143621000Y-113055500D02*
X143535500Y-113055500D01*
X141224000Y-111379000D02*
X140185000Y-111379000D01*
X142850510Y-113005510D02*
X141224000Y-111379000D01*
G04 #@! TO.N,JTMS-SWDIO*
X150496000Y-112055500D02*
X150536500Y-112055500D01*
X150496000Y-111930500D02*
X150496000Y-112055500D01*
X150496000Y-110258306D02*
X150496000Y-111930500D01*
X149352000Y-109114306D02*
X150496000Y-110258306D01*
X149352000Y-108407200D02*
X149352000Y-109114306D01*
G04 #@! TO.N,JTCK-SWCLI*
X149808500Y-111368000D02*
X149808500Y-111327500D01*
X148082000Y-109114306D02*
X148517894Y-109550200D01*
X148082000Y-108407200D02*
X148082000Y-109114306D01*
X148517894Y-109550200D02*
X149098000Y-109550200D01*
X149808500Y-110260700D02*
X149808500Y-111368000D01*
X149098000Y-109550200D02*
X149808500Y-110260700D01*
G04 #@! TO.N,NRTS*
X142660500Y-115055500D02*
X142367000Y-114762000D01*
X143621000Y-115055500D02*
X142660500Y-115055500D01*
X137922000Y-119502000D02*
X137922000Y-119507000D01*
X142367000Y-115057000D02*
X137922000Y-119502000D01*
X142367000Y-114762000D02*
X142367000Y-115057000D01*
G04 #@! TD*
D22*
G04 #@! TO.N,GND*
G36*
X156273288Y-101346000D02*
G01*
X147153089Y-101346000D01*
X147151246Y-101343754D01*
X147048648Y-101259554D01*
X146931595Y-101196988D01*
X146804586Y-101158460D01*
X146672500Y-101145451D01*
X146327500Y-101145451D01*
X146195414Y-101158460D01*
X146068405Y-101196988D01*
X145951352Y-101259554D01*
X145848754Y-101343754D01*
X145846911Y-101346000D01*
X145617428Y-101346000D01*
X145548648Y-101289554D01*
X145431595Y-101226988D01*
X145304586Y-101188460D01*
X145172500Y-101175451D01*
X144827500Y-101175451D01*
X144695414Y-101188460D01*
X144568405Y-101226988D01*
X144451352Y-101289554D01*
X144382572Y-101346000D01*
X144350951Y-101346000D01*
X144322239Y-101251350D01*
X144273304Y-101159798D01*
X144207448Y-101079552D01*
X144127202Y-101013696D01*
X144035650Y-100964761D01*
X143936310Y-100934626D01*
X143833000Y-100924451D01*
X142933000Y-100924451D01*
X142829690Y-100934626D01*
X142730350Y-100964761D01*
X142638798Y-101013696D01*
X142558552Y-101079552D01*
X142492696Y-101159798D01*
X142443761Y-101251350D01*
X142415049Y-101346000D01*
X140115934Y-101346000D01*
X140004595Y-101286488D01*
X139877586Y-101247960D01*
X139745500Y-101234951D01*
X139400500Y-101234951D01*
X139268414Y-101247960D01*
X139141405Y-101286488D01*
X139030066Y-101346000D01*
X138811000Y-101346000D01*
X138811000Y-99342501D01*
X154269790Y-99342501D01*
X156273288Y-101346000D01*
G37*
X156273288Y-101346000D02*
X147153089Y-101346000D01*
X147151246Y-101343754D01*
X147048648Y-101259554D01*
X146931595Y-101196988D01*
X146804586Y-101158460D01*
X146672500Y-101145451D01*
X146327500Y-101145451D01*
X146195414Y-101158460D01*
X146068405Y-101196988D01*
X145951352Y-101259554D01*
X145848754Y-101343754D01*
X145846911Y-101346000D01*
X145617428Y-101346000D01*
X145548648Y-101289554D01*
X145431595Y-101226988D01*
X145304586Y-101188460D01*
X145172500Y-101175451D01*
X144827500Y-101175451D01*
X144695414Y-101188460D01*
X144568405Y-101226988D01*
X144451352Y-101289554D01*
X144382572Y-101346000D01*
X144350951Y-101346000D01*
X144322239Y-101251350D01*
X144273304Y-101159798D01*
X144207448Y-101079552D01*
X144127202Y-101013696D01*
X144035650Y-100964761D01*
X143936310Y-100934626D01*
X143833000Y-100924451D01*
X142933000Y-100924451D01*
X142829690Y-100934626D01*
X142730350Y-100964761D01*
X142638798Y-101013696D01*
X142558552Y-101079552D01*
X142492696Y-101159798D01*
X142443761Y-101251350D01*
X142415049Y-101346000D01*
X140115934Y-101346000D01*
X140004595Y-101286488D01*
X139877586Y-101247960D01*
X139745500Y-101234951D01*
X139400500Y-101234951D01*
X139268414Y-101247960D01*
X139141405Y-101286488D01*
X139030066Y-101346000D01*
X138811000Y-101346000D01*
X138811000Y-99342501D01*
X154269790Y-99342501D01*
X156273288Y-101346000D01*
G04 #@! TO.N,+3V3*
G36*
X138300624Y-99424604D02*
G01*
X138265000Y-99603699D01*
X138265000Y-99786301D01*
X138300624Y-99965396D01*
X138370504Y-100134099D01*
X138430000Y-100223142D01*
X138430000Y-101600000D01*
X138432440Y-101624776D01*
X138439667Y-101648601D01*
X138451403Y-101670557D01*
X138467197Y-101689803D01*
X138486443Y-101705597D01*
X138508399Y-101717333D01*
X138532224Y-101724560D01*
X138557000Y-101727000D01*
X138935467Y-101727000D01*
X139024352Y-101799946D01*
X139141405Y-101862512D01*
X139268414Y-101901040D01*
X139400500Y-101914049D01*
X139745500Y-101914049D01*
X139877586Y-101901040D01*
X140004595Y-101862512D01*
X140121648Y-101799946D01*
X140210533Y-101727000D01*
X140617713Y-101727000D01*
X140638798Y-101744304D01*
X140730350Y-101793239D01*
X140829690Y-101823374D01*
X140933000Y-101833549D01*
X141833000Y-101833549D01*
X141936310Y-101823374D01*
X142035650Y-101793239D01*
X142127202Y-101744304D01*
X142148287Y-101727000D01*
X142240000Y-101727000D01*
X142240000Y-104140000D01*
X141435252Y-104140000D01*
X141339370Y-104088750D01*
X141126930Y-104024307D01*
X140906000Y-104002547D01*
X140685069Y-104024307D01*
X140472629Y-104088750D01*
X140376747Y-104140000D01*
X139435252Y-104140000D01*
X139339370Y-104088750D01*
X139126930Y-104024307D01*
X138906000Y-104002547D01*
X138685069Y-104024307D01*
X138472629Y-104088750D01*
X138376747Y-104140000D01*
X137692959Y-104140000D01*
X137689095Y-104136829D01*
X137554321Y-104064791D01*
X137408083Y-104020430D01*
X137256001Y-104005451D01*
X136555999Y-104005451D01*
X136403917Y-104020430D01*
X136257679Y-104064791D01*
X136122905Y-104136829D01*
X136119041Y-104140000D01*
X135156501Y-104140000D01*
X135156501Y-99342501D01*
X138334633Y-99342501D01*
X138300624Y-99424604D01*
G37*
X138300624Y-99424604D02*
X138265000Y-99603699D01*
X138265000Y-99786301D01*
X138300624Y-99965396D01*
X138370504Y-100134099D01*
X138430000Y-100223142D01*
X138430000Y-101600000D01*
X138432440Y-101624776D01*
X138439667Y-101648601D01*
X138451403Y-101670557D01*
X138467197Y-101689803D01*
X138486443Y-101705597D01*
X138508399Y-101717333D01*
X138532224Y-101724560D01*
X138557000Y-101727000D01*
X138935467Y-101727000D01*
X139024352Y-101799946D01*
X139141405Y-101862512D01*
X139268414Y-101901040D01*
X139400500Y-101914049D01*
X139745500Y-101914049D01*
X139877586Y-101901040D01*
X140004595Y-101862512D01*
X140121648Y-101799946D01*
X140210533Y-101727000D01*
X140617713Y-101727000D01*
X140638798Y-101744304D01*
X140730350Y-101793239D01*
X140829690Y-101823374D01*
X140933000Y-101833549D01*
X141833000Y-101833549D01*
X141936310Y-101823374D01*
X142035650Y-101793239D01*
X142127202Y-101744304D01*
X142148287Y-101727000D01*
X142240000Y-101727000D01*
X142240000Y-104140000D01*
X141435252Y-104140000D01*
X141339370Y-104088750D01*
X141126930Y-104024307D01*
X140906000Y-104002547D01*
X140685069Y-104024307D01*
X140472629Y-104088750D01*
X140376747Y-104140000D01*
X139435252Y-104140000D01*
X139339370Y-104088750D01*
X139126930Y-104024307D01*
X138906000Y-104002547D01*
X138685069Y-104024307D01*
X138472629Y-104088750D01*
X138376747Y-104140000D01*
X137692959Y-104140000D01*
X137689095Y-104136829D01*
X137554321Y-104064791D01*
X137408083Y-104020430D01*
X137256001Y-104005451D01*
X136555999Y-104005451D01*
X136403917Y-104020430D01*
X136257679Y-104064791D01*
X136122905Y-104136829D01*
X136119041Y-104140000D01*
X135156501Y-104140000D01*
X135156501Y-99342501D01*
X138334633Y-99342501D01*
X138300624Y-99424604D01*
G36*
X144399000Y-110816561D02*
G01*
X144384687Y-110843339D01*
X144362433Y-110916704D01*
X144354918Y-110993000D01*
X144354918Y-111700383D01*
X144287086Y-111720960D01*
X144187057Y-111774427D01*
X144099381Y-111846381D01*
X144027427Y-111934057D01*
X143973960Y-112034086D01*
X143953383Y-112101918D01*
X143321121Y-112101918D01*
X143002000Y-111782797D01*
X143002000Y-109855000D01*
X144399000Y-109855000D01*
X144399000Y-110816561D01*
G37*
X144399000Y-110816561D02*
X144384687Y-110843339D01*
X144362433Y-110916704D01*
X144354918Y-110993000D01*
X144354918Y-111700383D01*
X144287086Y-111720960D01*
X144187057Y-111774427D01*
X144099381Y-111846381D01*
X144027427Y-111934057D01*
X143973960Y-112034086D01*
X143953383Y-112101918D01*
X143321121Y-112101918D01*
X143002000Y-111782797D01*
X143002000Y-109855000D01*
X144399000Y-109855000D01*
X144399000Y-110816561D01*
G36*
X148354918Y-118618000D02*
G01*
X148362433Y-118694296D01*
X148384687Y-118767661D01*
X148420827Y-118835274D01*
X148469463Y-118894537D01*
X148528726Y-118943173D01*
X148596339Y-118979313D01*
X148669704Y-119001567D01*
X148746000Y-119009082D01*
X148871000Y-119009082D01*
X148947296Y-119001567D01*
X149020661Y-118979313D01*
X149088274Y-118943173D01*
X149147537Y-118894537D01*
X149196173Y-118835274D01*
X149232313Y-118767661D01*
X149254567Y-118694296D01*
X149262082Y-118618000D01*
X149262082Y-117934082D01*
X149354918Y-117934082D01*
X149354918Y-118618000D01*
X149362433Y-118694296D01*
X149384687Y-118767661D01*
X149420827Y-118835274D01*
X149469463Y-118894537D01*
X149479000Y-118902364D01*
X149479000Y-119360597D01*
X149476566Y-119368621D01*
X149467418Y-119461500D01*
X149467418Y-119661583D01*
X148860001Y-120269000D01*
X147701000Y-120269000D01*
X147701000Y-118826243D01*
X147732313Y-118767661D01*
X147754567Y-118694296D01*
X147762082Y-118618000D01*
X147762082Y-117934082D01*
X148354918Y-117934082D01*
X148354918Y-118618000D01*
G37*
X148354918Y-118618000D02*
X148362433Y-118694296D01*
X148384687Y-118767661D01*
X148420827Y-118835274D01*
X148469463Y-118894537D01*
X148528726Y-118943173D01*
X148596339Y-118979313D01*
X148669704Y-119001567D01*
X148746000Y-119009082D01*
X148871000Y-119009082D01*
X148947296Y-119001567D01*
X149020661Y-118979313D01*
X149088274Y-118943173D01*
X149147537Y-118894537D01*
X149196173Y-118835274D01*
X149232313Y-118767661D01*
X149254567Y-118694296D01*
X149262082Y-118618000D01*
X149262082Y-117934082D01*
X149354918Y-117934082D01*
X149354918Y-118618000D01*
X149362433Y-118694296D01*
X149384687Y-118767661D01*
X149420827Y-118835274D01*
X149469463Y-118894537D01*
X149479000Y-118902364D01*
X149479000Y-119360597D01*
X149476566Y-119368621D01*
X149467418Y-119461500D01*
X149467418Y-119661583D01*
X148860001Y-120269000D01*
X147701000Y-120269000D01*
X147701000Y-118826243D01*
X147732313Y-118767661D01*
X147754567Y-118694296D01*
X147762082Y-118618000D01*
X147762082Y-117934082D01*
X148354918Y-117934082D01*
X148354918Y-118618000D01*
G04 #@! TO.N,VCC*
G36*
X148717000Y-102099977D02*
G01*
X148703681Y-102124895D01*
X148672535Y-102227571D01*
X148662018Y-102334350D01*
X148662018Y-102846850D01*
X148672535Y-102953629D01*
X148703681Y-103056305D01*
X148717000Y-103081223D01*
X148717000Y-106426000D01*
X147066000Y-106426000D01*
X147066000Y-104267000D01*
X147063560Y-104242224D01*
X147056333Y-104218399D01*
X147044597Y-104196443D01*
X147028803Y-104177197D01*
X147009557Y-104161403D01*
X146987601Y-104149667D01*
X146963776Y-104142440D01*
X146939000Y-104140000D01*
X142875000Y-104140000D01*
X142875000Y-101854000D01*
X148717000Y-101854000D01*
X148717000Y-102099977D01*
G37*
X148717000Y-102099977D02*
X148703681Y-102124895D01*
X148672535Y-102227571D01*
X148662018Y-102334350D01*
X148662018Y-102846850D01*
X148672535Y-102953629D01*
X148703681Y-103056305D01*
X148717000Y-103081223D01*
X148717000Y-106426000D01*
X147066000Y-106426000D01*
X147066000Y-104267000D01*
X147063560Y-104242224D01*
X147056333Y-104218399D01*
X147044597Y-104196443D01*
X147028803Y-104177197D01*
X147009557Y-104161403D01*
X146987601Y-104149667D01*
X146963776Y-104142440D01*
X146939000Y-104140000D01*
X142875000Y-104140000D01*
X142875000Y-101854000D01*
X148717000Y-101854000D01*
X148717000Y-102099977D01*
G04 #@! TD*
M02*
