%TF.GenerationSoftware,KiCad,Pcbnew,5.1.5*%
%TF.CreationDate,2020-02-18T12:10:53+01:00*%
%TF.ProjectId,base,62617365-2e6b-4696-9361-645f70636258,rev?*%
%TF.SameCoordinates,Original*%
%TF.FileFunction,Copper,L2,Bot*%
%TF.FilePolarity,Positive*%
%FSLAX46Y46*%
G04 Gerber Fmt 4.6, Leading zero omitted, Abs format (unit mm)*
G04 Created by KiCad (PCBNEW 5.1.5) date 2020-02-18 12:10:53*
%MOMM*%
%LPD*%
G04 APERTURE LIST*
%TA.AperFunction,ComponentPad*%
%ADD10C,1.000000*%
%TD*%
%TA.AperFunction,ComponentPad*%
%ADD11C,1.000000*%
%TD*%
%TA.AperFunction,ComponentPad*%
%ADD12C,0.100000*%
%TD*%
%TA.AperFunction,ComponentPad*%
%ADD13O,1.000000X1.000000*%
%TD*%
%TA.AperFunction,ComponentPad*%
%ADD14R,1.000000X1.000000*%
%TD*%
%TA.AperFunction,ViaPad*%
%ADD15C,0.600000*%
%TD*%
%TA.AperFunction,Conductor*%
%ADD16C,0.500000*%
%TD*%
%TA.AperFunction,Conductor*%
%ADD17C,0.254000*%
%TD*%
G04 APERTURE END LIST*
D10*
%TO.P,U3,6*%
%TO.N,CRX*%
X104445000Y-89840000D03*
%TO.P,U3,15*%
%TO.N,ADC1*%
X94285000Y-110795000D03*
%TO.P,U3,16*%
%TO.N,ADC0*%
X93015000Y-110795000D03*
%TO.P,U3,3*%
%TO.N,I2C_SDA*%
X100635000Y-89205000D03*
%TO.P,U3,5*%
%TO.N,CTX*%
X103175000Y-89840000D03*
%TO.P,U3,12*%
%TO.N,SPI_MOSI*%
X98095000Y-110795000D03*
%TO.P,U3,9*%
%TO.N,VCC*%
X101905000Y-110795000D03*
%TO.P,U3,13*%
%TO.N,SPI_MISO*%
X96825000Y-110795000D03*
%TO.P,U3,7*%
%TO.N,USART1_RX*%
X105715000Y-89840000D03*
%TO.P,U3,8*%
%TO.N,USART1_TX*%
X106985000Y-89840000D03*
%TO.P,U3,14*%
%TO.N,SPI_CLK*%
X95555000Y-110795000D03*
%TO.P,U3,4*%
%TO.N,I2C_CLK*%
X101905000Y-89205000D03*
%TO.P,U3,1*%
%TO.N,+3V3*%
X98095000Y-89205000D03*
%TO.P,U3,10*%
%TO.N,GND*%
X100635000Y-110795000D03*
%TO.P,U3,11*%
%TO.N,BUS*%
X99365000Y-110795000D03*
%TO.P,U3,2*%
%TO.N,GND*%
X99365000Y-89205000D03*
%TO.P,U3,16*%
%TO.N,ADC0*%
X89205000Y-93015000D03*
%TO.P,U3,15*%
%TO.N,ADC1*%
X89205000Y-94285000D03*
%TO.P,U3,14*%
%TO.N,SPI_CLK*%
X89205000Y-95555000D03*
%TO.P,U3,13*%
%TO.N,SPI_MISO*%
X89205000Y-96825000D03*
%TO.P,U3,12*%
%TO.N,SPI_MOSI*%
X89205000Y-98095000D03*
%TO.P,U3,11*%
%TO.N,BUS*%
X89205000Y-99365000D03*
%TO.P,U3,10*%
%TO.N,GND*%
X89205000Y-100635000D03*
%TO.P,U3,9*%
%TO.N,VCC*%
X89205000Y-101905000D03*
%TO.P,U3,8*%
%TO.N,USART1_TX*%
X110160000Y-106985000D03*
%TO.P,U3,7*%
%TO.N,USART1_RX*%
X110160000Y-105715000D03*
%TO.P,U3,6*%
%TO.N,CRX*%
X110160000Y-104445000D03*
%TO.P,U3,5*%
%TO.N,CTX*%
X110160000Y-103175000D03*
%TO.P,U3,4*%
%TO.N,I2C_CLK*%
X110795000Y-101905000D03*
%TO.P,U3,3*%
%TO.N,I2C_SDA*%
X110795000Y-100635000D03*
%TO.P,U3,2*%
%TO.N,GND*%
X110795000Y-99365000D03*
%TO.P,U3,1*%
%TO.N,+3V3*%
X110795000Y-98095000D03*
%TD*%
D11*
%TO.P,J4,3*%
%TO.N,SWDIO*%
X100893949Y-101161051D02*
X100893949Y-101161051D01*
%TO.P,J4,2*%
%TO.N,GND*%
X101791974Y-100263026D02*
X101791974Y-100263026D01*
%TA.AperFunction,ComponentPad*%
D12*
%TO.P,J4,1*%
%TO.N,SWDCLK*%
G36*
X101982893Y-99365000D02*
G01*
X102690000Y-98657893D01*
X103397107Y-99365000D01*
X102690000Y-100072107D01*
X101982893Y-99365000D01*
G37*
%TD.AperFunction*%
%TD*%
D13*
%TO.P,J3,2*%
%TO.N,GND*%
X94435000Y-89840000D03*
D14*
%TO.P,J3,1*%
%TO.N,Net-(C4-Pad2)*%
X94435000Y-91110000D03*
%TD*%
D15*
%TO.N,BUS*%
X94600000Y-100000000D03*
X98880000Y-100000000D03*
X93000000Y-103874922D03*
%TO.N,GND*%
X104595000Y-110795000D03*
X100225000Y-105728268D03*
X109040000Y-97460000D03*
X103152084Y-93822916D03*
X101882084Y-93822916D03*
X101247084Y-93822916D03*
X100612084Y-93822916D03*
X109040000Y-96190000D03*
X109040000Y-96825000D03*
X100150000Y-94285000D03*
X109040000Y-95555000D03*
%TO.N,I2C_SDA*%
X104257404Y-96190000D03*
%TO.N,SPI_CLK*%
X97027221Y-100974531D03*
%TO.N,SPI_MISO*%
X98245000Y-101270000D03*
%TO.N,SPI_MOSI*%
X98880000Y-101905000D03*
%TO.N,ADC0*%
X97990662Y-98430697D03*
%TO.N,ADC1*%
X98880000Y-98730000D03*
%TO.N,Net-(C4-Pad2)*%
X96505000Y-94920000D03*
X95070000Y-93650000D03*
%TO.N,USART1_TX*%
X106500000Y-106985000D03*
%TO.N,USART1_RX*%
X104789677Y-105134667D03*
%TO.N,CRX*%
X104574915Y-103839442D03*
%TO.N,CTX*%
X105057404Y-103139652D03*
%TD*%
D16*
%TO.N,BUS*%
X99365000Y-110087894D02*
X99264001Y-109986895D01*
X99264001Y-109986895D02*
X99264001Y-102705001D01*
X99264001Y-102705001D02*
X99680001Y-102289001D01*
X99365000Y-110795000D02*
X99365000Y-110087894D01*
X99680001Y-102289001D02*
X99680001Y-101520999D01*
X99680001Y-101520999D02*
X99680001Y-100800001D01*
X99680001Y-100800001D02*
X98880000Y-100000000D01*
X94600000Y-100000000D02*
X93000000Y-101600000D01*
X93000000Y-101600000D02*
X93000000Y-103874922D01*
%TO.N,I2C_SDA*%
X104257404Y-93368088D02*
X104257404Y-96190000D01*
X102424991Y-91535675D02*
X104257404Y-93368088D01*
X100635000Y-89205000D02*
X100635000Y-89912106D01*
X102258569Y-91535675D02*
X102424991Y-91535675D01*
X100635000Y-89912106D02*
X102258569Y-91535675D01*
%TO.N,I2C_CLK*%
X101905000Y-89205000D02*
X102404999Y-88705001D01*
X110087894Y-101905000D02*
X110795000Y-101905000D01*
X102404999Y-88705001D02*
X107330003Y-88705001D01*
X107330003Y-88705001D02*
X108239999Y-89614997D01*
X108239999Y-100057105D02*
X110087894Y-101905000D01*
X108239999Y-89614997D02*
X108239999Y-100057105D01*
%TO.N,SPI_CLK*%
X95555000Y-110795000D02*
X95555000Y-102446752D01*
X95555000Y-102446752D02*
X97027221Y-100974531D01*
%TO.N,SPI_MISO*%
X96825000Y-110795000D02*
X96825000Y-102690000D01*
X96825000Y-102690000D02*
X98245000Y-101270000D01*
%TO.N,SPI_MOSI*%
X98095000Y-110795000D02*
X98095000Y-102690000D01*
X98095000Y-102690000D02*
X98880000Y-101905000D01*
%TO.N,ADC0*%
X93015000Y-105353002D02*
X93015000Y-110795000D01*
X93800000Y-104568002D02*
X93015000Y-105353002D01*
X93800000Y-101957076D02*
X93800000Y-104568002D01*
X97990662Y-98430697D02*
X97326379Y-98430697D01*
X97326379Y-98430697D02*
X93800000Y-101957076D01*
%TO.N,ADC1*%
X94285000Y-110087894D02*
X94550009Y-109822885D01*
X94550009Y-102267741D02*
X96817750Y-100000000D01*
X94285000Y-110795000D02*
X94285000Y-110087894D01*
X94550009Y-109822885D02*
X94550009Y-102267741D01*
X96817750Y-100000000D02*
X97610000Y-100000000D01*
X97610000Y-100000000D02*
X98245000Y-99365000D01*
X98245000Y-99365000D02*
X98880000Y-98730000D01*
%TO.N,Net-(C4-Pad2)*%
X96505000Y-94920000D02*
X96340000Y-94920000D01*
X96340000Y-94920000D02*
X95070000Y-93650000D01*
%TO.N,USART1_TX*%
X107484999Y-106000001D02*
X106500000Y-106985000D01*
X107484999Y-90339999D02*
X107484999Y-106000001D01*
X106985000Y-89840000D02*
X107484999Y-90339999D01*
%TO.N,USART1_RX*%
X105715000Y-90590010D02*
X105715000Y-89840000D01*
X106734989Y-99130011D02*
X106734989Y-91609999D01*
X105164714Y-104759630D02*
X105682102Y-104759630D01*
X104789677Y-105134667D02*
X105164714Y-104759630D01*
X106734989Y-91609999D02*
X105715000Y-90590010D01*
X106607414Y-103834318D02*
X106607415Y-99257585D01*
X106607415Y-99257585D02*
X106734989Y-99130011D01*
X105682102Y-104759630D02*
X106607414Y-103834318D01*
%TO.N,CRX*%
X104445000Y-90547106D02*
X104445000Y-89840000D01*
X104445000Y-90960000D02*
X104445000Y-90547106D01*
X105984979Y-92499979D02*
X104445000Y-90960000D01*
X104574915Y-103839442D02*
X104675126Y-103939653D01*
X104675126Y-103939653D02*
X105441405Y-103939653D01*
X105857405Y-103523653D02*
X105857405Y-98737595D01*
X105984979Y-98610021D02*
X105984979Y-92499979D01*
X105441405Y-103939653D02*
X105857405Y-103523653D01*
X105857405Y-98737595D02*
X105984979Y-98610021D01*
%TO.N,CTX*%
X103175000Y-91225010D02*
X103175000Y-89840000D01*
X105057404Y-103139652D02*
X105057404Y-93107414D01*
X105057404Y-93107414D02*
X103175000Y-91225010D01*
%TD*%
D17*
%TO.N,GND*%
G36*
X97679585Y-88427813D02*
G01*
X97535945Y-88523790D01*
X97413790Y-88645945D01*
X97317813Y-88789585D01*
X97251703Y-88949189D01*
X97218000Y-89118623D01*
X97218000Y-89291377D01*
X97251703Y-89460811D01*
X97317813Y-89620415D01*
X97413790Y-89764055D01*
X97535945Y-89886210D01*
X97679585Y-89982187D01*
X97839189Y-90048297D01*
X98008623Y-90082000D01*
X98181377Y-90082000D01*
X98350811Y-90048297D01*
X98510415Y-89982187D01*
X98654055Y-89886210D01*
X98776210Y-89764055D01*
X98872187Y-89620415D01*
X98938297Y-89460811D01*
X98972000Y-89291377D01*
X98972000Y-89118623D01*
X98938297Y-88949189D01*
X98872187Y-88789585D01*
X98776210Y-88645945D01*
X98654055Y-88523790D01*
X98510415Y-88427813D01*
X98508452Y-88427000D01*
X100221548Y-88427000D01*
X100219585Y-88427813D01*
X100075945Y-88523790D01*
X99953790Y-88645945D01*
X99857813Y-88789585D01*
X99791703Y-88949189D01*
X99758000Y-89118623D01*
X99758000Y-89291377D01*
X99791703Y-89460811D01*
X99857813Y-89620415D01*
X99953790Y-89764055D01*
X100008000Y-89818265D01*
X100008000Y-89881312D01*
X100004967Y-89912106D01*
X100008000Y-89942900D01*
X100017073Y-90035019D01*
X100052925Y-90153209D01*
X100111148Y-90262134D01*
X100189500Y-90357607D01*
X100213422Y-90377240D01*
X101793435Y-91957253D01*
X101813068Y-91981176D01*
X101908541Y-92059528D01*
X102017466Y-92117750D01*
X102135656Y-92153602D01*
X102158452Y-92155847D01*
X103630404Y-93627800D01*
X103630405Y-95934622D01*
X103606420Y-95992526D01*
X103580404Y-96123321D01*
X103580404Y-96256679D01*
X103606420Y-96387474D01*
X103657454Y-96510680D01*
X103731544Y-96621563D01*
X103825841Y-96715860D01*
X103936724Y-96789950D01*
X104059930Y-96840984D01*
X104190725Y-96867000D01*
X104324083Y-96867000D01*
X104430405Y-96845852D01*
X104430404Y-102884276D01*
X104406420Y-102942178D01*
X104380404Y-103072973D01*
X104380404Y-103187869D01*
X104377441Y-103188458D01*
X104254235Y-103239492D01*
X104143352Y-103313582D01*
X104049055Y-103407879D01*
X103974965Y-103518762D01*
X103923931Y-103641968D01*
X103897915Y-103772763D01*
X103897915Y-103906121D01*
X103923931Y-104036916D01*
X103974965Y-104160122D01*
X104049055Y-104271005D01*
X104143352Y-104365302D01*
X104254235Y-104439392D01*
X104368645Y-104486783D01*
X104434023Y-104521728D01*
X104472314Y-104533343D01*
X104468997Y-104534717D01*
X104358114Y-104608807D01*
X104263817Y-104703104D01*
X104189727Y-104813987D01*
X104138693Y-104937193D01*
X104112677Y-105067988D01*
X104112677Y-105201346D01*
X104138693Y-105332141D01*
X104189727Y-105455347D01*
X104263817Y-105566230D01*
X104358114Y-105660527D01*
X104468997Y-105734617D01*
X104592203Y-105785651D01*
X104722998Y-105811667D01*
X104856356Y-105811667D01*
X104987151Y-105785651D01*
X105110357Y-105734617D01*
X105221240Y-105660527D01*
X105315537Y-105566230D01*
X105389627Y-105455347D01*
X105413612Y-105397443D01*
X105424425Y-105386630D01*
X105651308Y-105386630D01*
X105682102Y-105389663D01*
X105712896Y-105386630D01*
X105805015Y-105377557D01*
X105923205Y-105341705D01*
X106032130Y-105283483D01*
X106127603Y-105205131D01*
X106147240Y-105181203D01*
X106858000Y-104470444D01*
X106858000Y-105740288D01*
X106237223Y-106361065D01*
X106179320Y-106385050D01*
X106068437Y-106459140D01*
X105974140Y-106553437D01*
X105900050Y-106664320D01*
X105849016Y-106787526D01*
X105823000Y-106918321D01*
X105823000Y-107051679D01*
X105849016Y-107182474D01*
X105900050Y-107305680D01*
X105974140Y-107416563D01*
X106068437Y-107510860D01*
X106179320Y-107584950D01*
X106302526Y-107635984D01*
X106433321Y-107662000D01*
X106566679Y-107662000D01*
X106697474Y-107635984D01*
X106820680Y-107584950D01*
X106931563Y-107510860D01*
X107025860Y-107416563D01*
X107099950Y-107305680D01*
X107123935Y-107247777D01*
X107906577Y-106465135D01*
X107930500Y-106445502D01*
X108008852Y-106350029D01*
X108067074Y-106241104D01*
X108102926Y-106122914D01*
X108111999Y-106030795D01*
X108115032Y-106000001D01*
X108111999Y-105969207D01*
X108111999Y-100815816D01*
X109622760Y-102326578D01*
X109642393Y-102350501D01*
X109720033Y-102414218D01*
X109600945Y-102493790D01*
X109478790Y-102615945D01*
X109382813Y-102759585D01*
X109316703Y-102919189D01*
X109283000Y-103088623D01*
X109283000Y-103261377D01*
X109316703Y-103430811D01*
X109382813Y-103590415D01*
X109478790Y-103734055D01*
X109554735Y-103810000D01*
X109478790Y-103885945D01*
X109382813Y-104029585D01*
X109316703Y-104189189D01*
X109283000Y-104358623D01*
X109283000Y-104531377D01*
X109316703Y-104700811D01*
X109382813Y-104860415D01*
X109478790Y-105004055D01*
X109554735Y-105080000D01*
X109478790Y-105155945D01*
X109382813Y-105299585D01*
X109316703Y-105459189D01*
X109283000Y-105628623D01*
X109283000Y-105801377D01*
X109316703Y-105970811D01*
X109382813Y-106130415D01*
X109478790Y-106274055D01*
X109554735Y-106350000D01*
X109478790Y-106425945D01*
X109382813Y-106569585D01*
X109316703Y-106729189D01*
X109283000Y-106898623D01*
X109283000Y-107071377D01*
X109316703Y-107240811D01*
X109382813Y-107400415D01*
X109478790Y-107544055D01*
X109600945Y-107666210D01*
X109744585Y-107762187D01*
X109904189Y-107828297D01*
X110073623Y-107862000D01*
X110246377Y-107862000D01*
X110415811Y-107828297D01*
X110575415Y-107762187D01*
X110719055Y-107666210D01*
X110841210Y-107544055D01*
X110937187Y-107400415D01*
X111003297Y-107240811D01*
X111037000Y-107071377D01*
X111037000Y-106898623D01*
X111003297Y-106729189D01*
X110937187Y-106569585D01*
X110841210Y-106425945D01*
X110765265Y-106350000D01*
X110841210Y-106274055D01*
X110937187Y-106130415D01*
X111003297Y-105970811D01*
X111037000Y-105801377D01*
X111037000Y-105628623D01*
X111003297Y-105459189D01*
X110937187Y-105299585D01*
X110841210Y-105155945D01*
X110765265Y-105080000D01*
X110841210Y-105004055D01*
X110937187Y-104860415D01*
X111003297Y-104700811D01*
X111037000Y-104531377D01*
X111037000Y-104358623D01*
X111003297Y-104189189D01*
X110937187Y-104029585D01*
X110841210Y-103885945D01*
X110765265Y-103810000D01*
X110841210Y-103734055D01*
X110937187Y-103590415D01*
X111003297Y-103430811D01*
X111037000Y-103261377D01*
X111037000Y-103088623D01*
X111003297Y-102919189D01*
X110941516Y-102770037D01*
X111050811Y-102748297D01*
X111210415Y-102682187D01*
X111354055Y-102586210D01*
X111476210Y-102464055D01*
X111572187Y-102320415D01*
X111573000Y-102318452D01*
X111573000Y-107823130D01*
X107823132Y-111573000D01*
X102318452Y-111573000D01*
X102320415Y-111572187D01*
X102464055Y-111476210D01*
X102586210Y-111354055D01*
X102682187Y-111210415D01*
X102748297Y-111050811D01*
X102782000Y-110881377D01*
X102782000Y-110708623D01*
X102748297Y-110539189D01*
X102682187Y-110379585D01*
X102586210Y-110235945D01*
X102464055Y-110113790D01*
X102320415Y-110017813D01*
X102160811Y-109951703D01*
X101991377Y-109918000D01*
X101818623Y-109918000D01*
X101649189Y-109951703D01*
X101489585Y-110017813D01*
X101345945Y-110113790D01*
X101223790Y-110235945D01*
X101127813Y-110379585D01*
X101061703Y-110539189D01*
X101028000Y-110708623D01*
X101028000Y-110881377D01*
X101061703Y-111050811D01*
X101127813Y-111210415D01*
X101223790Y-111354055D01*
X101345945Y-111476210D01*
X101489585Y-111572187D01*
X101491548Y-111573000D01*
X99778452Y-111573000D01*
X99780415Y-111572187D01*
X99924055Y-111476210D01*
X100046210Y-111354055D01*
X100142187Y-111210415D01*
X100208297Y-111050811D01*
X100242000Y-110881377D01*
X100242000Y-110708623D01*
X100208297Y-110539189D01*
X100142187Y-110379585D01*
X100046210Y-110235945D01*
X99992000Y-110181735D01*
X99992000Y-110118687D01*
X99995033Y-110087893D01*
X99982927Y-109964982D01*
X99977108Y-109945798D01*
X99947075Y-109846791D01*
X99891001Y-109741885D01*
X99891001Y-102964712D01*
X100101575Y-102754138D01*
X100125502Y-102734502D01*
X100203854Y-102639029D01*
X100262076Y-102530104D01*
X100297928Y-102411914D01*
X100305014Y-102339972D01*
X100310034Y-102289001D01*
X100307001Y-102258207D01*
X100307001Y-101814368D01*
X100334894Y-101842261D01*
X100478534Y-101938238D01*
X100638138Y-102004348D01*
X100807572Y-102038051D01*
X100980326Y-102038051D01*
X101149760Y-102004348D01*
X101309364Y-101938238D01*
X101453004Y-101842261D01*
X101575159Y-101720106D01*
X101671136Y-101576466D01*
X101737246Y-101416862D01*
X101770949Y-101247428D01*
X101770949Y-101074674D01*
X101737246Y-100905240D01*
X101671136Y-100745636D01*
X101575159Y-100601996D01*
X101453004Y-100479841D01*
X101309364Y-100383864D01*
X101149760Y-100317754D01*
X100980326Y-100284051D01*
X100807572Y-100284051D01*
X100638138Y-100317754D01*
X100478534Y-100383864D01*
X100334894Y-100479841D01*
X100259903Y-100554832D01*
X100203854Y-100449973D01*
X100125502Y-100354500D01*
X100101579Y-100334867D01*
X99503935Y-99737223D01*
X99479950Y-99679320D01*
X99405860Y-99568437D01*
X99311563Y-99474140D01*
X99200680Y-99400050D01*
X99127128Y-99369584D01*
X99131712Y-99365000D01*
X101604069Y-99365000D01*
X101611348Y-99438905D01*
X101632905Y-99509970D01*
X101667912Y-99575463D01*
X101715024Y-99632869D01*
X102422131Y-100339976D01*
X102479537Y-100387088D01*
X102545030Y-100422095D01*
X102616095Y-100443652D01*
X102690000Y-100450931D01*
X102763905Y-100443652D01*
X102834970Y-100422095D01*
X102900463Y-100387088D01*
X102957869Y-100339976D01*
X103664976Y-99632869D01*
X103712088Y-99575463D01*
X103747095Y-99509970D01*
X103768652Y-99438905D01*
X103775931Y-99365000D01*
X103768652Y-99291095D01*
X103747095Y-99220030D01*
X103712088Y-99154537D01*
X103664976Y-99097131D01*
X102957869Y-98390024D01*
X102900463Y-98342912D01*
X102834970Y-98307905D01*
X102763905Y-98286348D01*
X102690000Y-98279069D01*
X102616095Y-98286348D01*
X102545030Y-98307905D01*
X102479537Y-98342912D01*
X102422131Y-98390024D01*
X101715024Y-99097131D01*
X101667912Y-99154537D01*
X101632905Y-99220030D01*
X101611348Y-99291095D01*
X101604069Y-99365000D01*
X99131712Y-99365000D01*
X99142778Y-99353934D01*
X99200680Y-99329950D01*
X99311563Y-99255860D01*
X99405860Y-99161563D01*
X99479950Y-99050680D01*
X99530984Y-98927474D01*
X99557000Y-98796679D01*
X99557000Y-98663321D01*
X99530984Y-98532526D01*
X99479950Y-98409320D01*
X99405860Y-98298437D01*
X99311563Y-98204140D01*
X99200680Y-98130050D01*
X99077474Y-98079016D01*
X98946679Y-98053000D01*
X98813321Y-98053000D01*
X98682526Y-98079016D01*
X98593112Y-98116053D01*
X98590612Y-98110017D01*
X98516522Y-97999134D01*
X98422225Y-97904837D01*
X98311342Y-97830747D01*
X98188136Y-97779713D01*
X98057341Y-97753697D01*
X97923983Y-97753697D01*
X97793188Y-97779713D01*
X97735286Y-97803697D01*
X97357172Y-97803697D01*
X97326378Y-97800664D01*
X97203466Y-97812770D01*
X97085276Y-97848622D01*
X96976351Y-97906844D01*
X96880878Y-97985196D01*
X96861245Y-98009119D01*
X95196383Y-99673982D01*
X95125860Y-99568437D01*
X95031563Y-99474140D01*
X94920680Y-99400050D01*
X94797474Y-99349016D01*
X94666679Y-99323000D01*
X94533321Y-99323000D01*
X94402526Y-99349016D01*
X94279320Y-99400050D01*
X94168437Y-99474140D01*
X94074140Y-99568437D01*
X94000050Y-99679320D01*
X93976066Y-99737222D01*
X92578427Y-101134862D01*
X92554499Y-101154499D01*
X92476147Y-101249973D01*
X92417925Y-101358898D01*
X92387408Y-101459500D01*
X92382073Y-101477088D01*
X92369967Y-101600000D01*
X92373000Y-101630794D01*
X92373001Y-103619544D01*
X92349016Y-103677448D01*
X92323000Y-103808243D01*
X92323000Y-103941601D01*
X92349016Y-104072396D01*
X92400050Y-104195602D01*
X92474140Y-104306485D01*
X92568437Y-104400782D01*
X92679320Y-104474872D01*
X92802526Y-104525906D01*
X92930024Y-104551266D01*
X92593427Y-104887864D01*
X92569499Y-104907501D01*
X92491147Y-105002975D01*
X92432925Y-105111900D01*
X92404644Y-105205131D01*
X92397073Y-105230090D01*
X92384967Y-105353002D01*
X92388000Y-105383796D01*
X92388001Y-110181734D01*
X92333790Y-110235945D01*
X92237813Y-110379585D01*
X92171703Y-110539189D01*
X92138000Y-110708623D01*
X92138000Y-110881377D01*
X92171703Y-111050811D01*
X92237813Y-111210415D01*
X92333790Y-111354055D01*
X92455945Y-111476210D01*
X92599585Y-111572187D01*
X92601548Y-111573000D01*
X92176870Y-111573000D01*
X88427000Y-107823132D01*
X88427000Y-102318452D01*
X88427813Y-102320415D01*
X88523790Y-102464055D01*
X88645945Y-102586210D01*
X88789585Y-102682187D01*
X88949189Y-102748297D01*
X89118623Y-102782000D01*
X89291377Y-102782000D01*
X89460811Y-102748297D01*
X89620415Y-102682187D01*
X89764055Y-102586210D01*
X89886210Y-102464055D01*
X89982187Y-102320415D01*
X90048297Y-102160811D01*
X90082000Y-101991377D01*
X90082000Y-101818623D01*
X90048297Y-101649189D01*
X89982187Y-101489585D01*
X89886210Y-101345945D01*
X89764055Y-101223790D01*
X89620415Y-101127813D01*
X89460811Y-101061703D01*
X89291377Y-101028000D01*
X89118623Y-101028000D01*
X88949189Y-101061703D01*
X88789585Y-101127813D01*
X88645945Y-101223790D01*
X88523790Y-101345945D01*
X88427813Y-101489585D01*
X88427000Y-101491548D01*
X88427000Y-99778452D01*
X88427813Y-99780415D01*
X88523790Y-99924055D01*
X88645945Y-100046210D01*
X88789585Y-100142187D01*
X88949189Y-100208297D01*
X89118623Y-100242000D01*
X89291377Y-100242000D01*
X89460811Y-100208297D01*
X89620415Y-100142187D01*
X89764055Y-100046210D01*
X89886210Y-99924055D01*
X89982187Y-99780415D01*
X90048297Y-99620811D01*
X90082000Y-99451377D01*
X90082000Y-99278623D01*
X90048297Y-99109189D01*
X89982187Y-98949585D01*
X89886210Y-98805945D01*
X89810265Y-98730000D01*
X89886210Y-98654055D01*
X89982187Y-98510415D01*
X90048297Y-98350811D01*
X90082000Y-98181377D01*
X90082000Y-98008623D01*
X90048297Y-97839189D01*
X89982187Y-97679585D01*
X89886210Y-97535945D01*
X89810265Y-97460000D01*
X89886210Y-97384055D01*
X89982187Y-97240415D01*
X90048297Y-97080811D01*
X90082000Y-96911377D01*
X90082000Y-96738623D01*
X90048297Y-96569189D01*
X89982187Y-96409585D01*
X89886210Y-96265945D01*
X89810265Y-96190000D01*
X89886210Y-96114055D01*
X89982187Y-95970415D01*
X90048297Y-95810811D01*
X90082000Y-95641377D01*
X90082000Y-95468623D01*
X90048297Y-95299189D01*
X89982187Y-95139585D01*
X89886210Y-94995945D01*
X89810265Y-94920000D01*
X89886210Y-94844055D01*
X89982187Y-94700415D01*
X90048297Y-94540811D01*
X90082000Y-94371377D01*
X90082000Y-94198623D01*
X90048297Y-94029189D01*
X89982187Y-93869585D01*
X89886210Y-93725945D01*
X89810265Y-93650000D01*
X89876944Y-93583321D01*
X94393000Y-93583321D01*
X94393000Y-93716679D01*
X94419016Y-93847474D01*
X94470050Y-93970680D01*
X94544140Y-94081563D01*
X94638437Y-94175860D01*
X94749320Y-94249950D01*
X94807223Y-94273935D01*
X95874866Y-95341578D01*
X95894499Y-95365501D01*
X95989972Y-95443853D01*
X96098897Y-95502075D01*
X96217087Y-95537927D01*
X96231037Y-95539301D01*
X96307526Y-95570984D01*
X96438321Y-95597000D01*
X96571679Y-95597000D01*
X96702474Y-95570984D01*
X96825680Y-95519950D01*
X96936563Y-95445860D01*
X97030860Y-95351563D01*
X97104950Y-95240680D01*
X97155984Y-95117474D01*
X97182000Y-94986679D01*
X97182000Y-94853321D01*
X97155984Y-94722526D01*
X97104950Y-94599320D01*
X97030860Y-94488437D01*
X96936563Y-94394140D01*
X96825680Y-94320050D01*
X96702474Y-94269016D01*
X96571679Y-94243000D01*
X96549712Y-94243000D01*
X95693935Y-93387223D01*
X95669950Y-93329320D01*
X95595860Y-93218437D01*
X95501563Y-93124140D01*
X95390680Y-93050050D01*
X95267474Y-92999016D01*
X95136679Y-92973000D01*
X95003321Y-92973000D01*
X94872526Y-92999016D01*
X94749320Y-93050050D01*
X94638437Y-93124140D01*
X94544140Y-93218437D01*
X94470050Y-93329320D01*
X94419016Y-93452526D01*
X94393000Y-93583321D01*
X89876944Y-93583321D01*
X89886210Y-93574055D01*
X89982187Y-93430415D01*
X90048297Y-93270811D01*
X90082000Y-93101377D01*
X90082000Y-92928623D01*
X90048297Y-92759189D01*
X89982187Y-92599585D01*
X89886210Y-92455945D01*
X89764055Y-92333790D01*
X89620415Y-92237813D01*
X89460811Y-92171703D01*
X89291377Y-92138000D01*
X89118623Y-92138000D01*
X88949189Y-92171703D01*
X88789585Y-92237813D01*
X88645945Y-92333790D01*
X88523790Y-92455945D01*
X88427813Y-92599585D01*
X88427000Y-92601548D01*
X88427000Y-90610000D01*
X93556176Y-90610000D01*
X93556176Y-91610000D01*
X93563455Y-91683905D01*
X93585012Y-91754970D01*
X93620019Y-91820463D01*
X93667131Y-91877869D01*
X93724537Y-91924981D01*
X93790030Y-91959988D01*
X93861095Y-91981545D01*
X93935000Y-91988824D01*
X94935000Y-91988824D01*
X95008905Y-91981545D01*
X95079970Y-91959988D01*
X95145463Y-91924981D01*
X95202869Y-91877869D01*
X95249981Y-91820463D01*
X95284988Y-91754970D01*
X95306545Y-91683905D01*
X95313824Y-91610000D01*
X95313824Y-90610000D01*
X95306545Y-90536095D01*
X95284988Y-90465030D01*
X95249981Y-90399537D01*
X95202869Y-90342131D01*
X95145463Y-90295019D01*
X95079970Y-90260012D01*
X95008905Y-90238455D01*
X94935000Y-90231176D01*
X93935000Y-90231176D01*
X93861095Y-90238455D01*
X93790030Y-90260012D01*
X93724537Y-90295019D01*
X93667131Y-90342131D01*
X93620019Y-90399537D01*
X93585012Y-90465030D01*
X93563455Y-90536095D01*
X93556176Y-90610000D01*
X88427000Y-90610000D01*
X88427000Y-88427000D01*
X97681548Y-88427000D01*
X97679585Y-88427813D01*
G37*
X97679585Y-88427813D02*
X97535945Y-88523790D01*
X97413790Y-88645945D01*
X97317813Y-88789585D01*
X97251703Y-88949189D01*
X97218000Y-89118623D01*
X97218000Y-89291377D01*
X97251703Y-89460811D01*
X97317813Y-89620415D01*
X97413790Y-89764055D01*
X97535945Y-89886210D01*
X97679585Y-89982187D01*
X97839189Y-90048297D01*
X98008623Y-90082000D01*
X98181377Y-90082000D01*
X98350811Y-90048297D01*
X98510415Y-89982187D01*
X98654055Y-89886210D01*
X98776210Y-89764055D01*
X98872187Y-89620415D01*
X98938297Y-89460811D01*
X98972000Y-89291377D01*
X98972000Y-89118623D01*
X98938297Y-88949189D01*
X98872187Y-88789585D01*
X98776210Y-88645945D01*
X98654055Y-88523790D01*
X98510415Y-88427813D01*
X98508452Y-88427000D01*
X100221548Y-88427000D01*
X100219585Y-88427813D01*
X100075945Y-88523790D01*
X99953790Y-88645945D01*
X99857813Y-88789585D01*
X99791703Y-88949189D01*
X99758000Y-89118623D01*
X99758000Y-89291377D01*
X99791703Y-89460811D01*
X99857813Y-89620415D01*
X99953790Y-89764055D01*
X100008000Y-89818265D01*
X100008000Y-89881312D01*
X100004967Y-89912106D01*
X100008000Y-89942900D01*
X100017073Y-90035019D01*
X100052925Y-90153209D01*
X100111148Y-90262134D01*
X100189500Y-90357607D01*
X100213422Y-90377240D01*
X101793435Y-91957253D01*
X101813068Y-91981176D01*
X101908541Y-92059528D01*
X102017466Y-92117750D01*
X102135656Y-92153602D01*
X102158452Y-92155847D01*
X103630404Y-93627800D01*
X103630405Y-95934622D01*
X103606420Y-95992526D01*
X103580404Y-96123321D01*
X103580404Y-96256679D01*
X103606420Y-96387474D01*
X103657454Y-96510680D01*
X103731544Y-96621563D01*
X103825841Y-96715860D01*
X103936724Y-96789950D01*
X104059930Y-96840984D01*
X104190725Y-96867000D01*
X104324083Y-96867000D01*
X104430405Y-96845852D01*
X104430404Y-102884276D01*
X104406420Y-102942178D01*
X104380404Y-103072973D01*
X104380404Y-103187869D01*
X104377441Y-103188458D01*
X104254235Y-103239492D01*
X104143352Y-103313582D01*
X104049055Y-103407879D01*
X103974965Y-103518762D01*
X103923931Y-103641968D01*
X103897915Y-103772763D01*
X103897915Y-103906121D01*
X103923931Y-104036916D01*
X103974965Y-104160122D01*
X104049055Y-104271005D01*
X104143352Y-104365302D01*
X104254235Y-104439392D01*
X104368645Y-104486783D01*
X104434023Y-104521728D01*
X104472314Y-104533343D01*
X104468997Y-104534717D01*
X104358114Y-104608807D01*
X104263817Y-104703104D01*
X104189727Y-104813987D01*
X104138693Y-104937193D01*
X104112677Y-105067988D01*
X104112677Y-105201346D01*
X104138693Y-105332141D01*
X104189727Y-105455347D01*
X104263817Y-105566230D01*
X104358114Y-105660527D01*
X104468997Y-105734617D01*
X104592203Y-105785651D01*
X104722998Y-105811667D01*
X104856356Y-105811667D01*
X104987151Y-105785651D01*
X105110357Y-105734617D01*
X105221240Y-105660527D01*
X105315537Y-105566230D01*
X105389627Y-105455347D01*
X105413612Y-105397443D01*
X105424425Y-105386630D01*
X105651308Y-105386630D01*
X105682102Y-105389663D01*
X105712896Y-105386630D01*
X105805015Y-105377557D01*
X105923205Y-105341705D01*
X106032130Y-105283483D01*
X106127603Y-105205131D01*
X106147240Y-105181203D01*
X106858000Y-104470444D01*
X106858000Y-105740288D01*
X106237223Y-106361065D01*
X106179320Y-106385050D01*
X106068437Y-106459140D01*
X105974140Y-106553437D01*
X105900050Y-106664320D01*
X105849016Y-106787526D01*
X105823000Y-106918321D01*
X105823000Y-107051679D01*
X105849016Y-107182474D01*
X105900050Y-107305680D01*
X105974140Y-107416563D01*
X106068437Y-107510860D01*
X106179320Y-107584950D01*
X106302526Y-107635984D01*
X106433321Y-107662000D01*
X106566679Y-107662000D01*
X106697474Y-107635984D01*
X106820680Y-107584950D01*
X106931563Y-107510860D01*
X107025860Y-107416563D01*
X107099950Y-107305680D01*
X107123935Y-107247777D01*
X107906577Y-106465135D01*
X107930500Y-106445502D01*
X108008852Y-106350029D01*
X108067074Y-106241104D01*
X108102926Y-106122914D01*
X108111999Y-106030795D01*
X108115032Y-106000001D01*
X108111999Y-105969207D01*
X108111999Y-100815816D01*
X109622760Y-102326578D01*
X109642393Y-102350501D01*
X109720033Y-102414218D01*
X109600945Y-102493790D01*
X109478790Y-102615945D01*
X109382813Y-102759585D01*
X109316703Y-102919189D01*
X109283000Y-103088623D01*
X109283000Y-103261377D01*
X109316703Y-103430811D01*
X109382813Y-103590415D01*
X109478790Y-103734055D01*
X109554735Y-103810000D01*
X109478790Y-103885945D01*
X109382813Y-104029585D01*
X109316703Y-104189189D01*
X109283000Y-104358623D01*
X109283000Y-104531377D01*
X109316703Y-104700811D01*
X109382813Y-104860415D01*
X109478790Y-105004055D01*
X109554735Y-105080000D01*
X109478790Y-105155945D01*
X109382813Y-105299585D01*
X109316703Y-105459189D01*
X109283000Y-105628623D01*
X109283000Y-105801377D01*
X109316703Y-105970811D01*
X109382813Y-106130415D01*
X109478790Y-106274055D01*
X109554735Y-106350000D01*
X109478790Y-106425945D01*
X109382813Y-106569585D01*
X109316703Y-106729189D01*
X109283000Y-106898623D01*
X109283000Y-107071377D01*
X109316703Y-107240811D01*
X109382813Y-107400415D01*
X109478790Y-107544055D01*
X109600945Y-107666210D01*
X109744585Y-107762187D01*
X109904189Y-107828297D01*
X110073623Y-107862000D01*
X110246377Y-107862000D01*
X110415811Y-107828297D01*
X110575415Y-107762187D01*
X110719055Y-107666210D01*
X110841210Y-107544055D01*
X110937187Y-107400415D01*
X111003297Y-107240811D01*
X111037000Y-107071377D01*
X111037000Y-106898623D01*
X111003297Y-106729189D01*
X110937187Y-106569585D01*
X110841210Y-106425945D01*
X110765265Y-106350000D01*
X110841210Y-106274055D01*
X110937187Y-106130415D01*
X111003297Y-105970811D01*
X111037000Y-105801377D01*
X111037000Y-105628623D01*
X111003297Y-105459189D01*
X110937187Y-105299585D01*
X110841210Y-105155945D01*
X110765265Y-105080000D01*
X110841210Y-105004055D01*
X110937187Y-104860415D01*
X111003297Y-104700811D01*
X111037000Y-104531377D01*
X111037000Y-104358623D01*
X111003297Y-104189189D01*
X110937187Y-104029585D01*
X110841210Y-103885945D01*
X110765265Y-103810000D01*
X110841210Y-103734055D01*
X110937187Y-103590415D01*
X111003297Y-103430811D01*
X111037000Y-103261377D01*
X111037000Y-103088623D01*
X111003297Y-102919189D01*
X110941516Y-102770037D01*
X111050811Y-102748297D01*
X111210415Y-102682187D01*
X111354055Y-102586210D01*
X111476210Y-102464055D01*
X111572187Y-102320415D01*
X111573000Y-102318452D01*
X111573000Y-107823130D01*
X107823132Y-111573000D01*
X102318452Y-111573000D01*
X102320415Y-111572187D01*
X102464055Y-111476210D01*
X102586210Y-111354055D01*
X102682187Y-111210415D01*
X102748297Y-111050811D01*
X102782000Y-110881377D01*
X102782000Y-110708623D01*
X102748297Y-110539189D01*
X102682187Y-110379585D01*
X102586210Y-110235945D01*
X102464055Y-110113790D01*
X102320415Y-110017813D01*
X102160811Y-109951703D01*
X101991377Y-109918000D01*
X101818623Y-109918000D01*
X101649189Y-109951703D01*
X101489585Y-110017813D01*
X101345945Y-110113790D01*
X101223790Y-110235945D01*
X101127813Y-110379585D01*
X101061703Y-110539189D01*
X101028000Y-110708623D01*
X101028000Y-110881377D01*
X101061703Y-111050811D01*
X101127813Y-111210415D01*
X101223790Y-111354055D01*
X101345945Y-111476210D01*
X101489585Y-111572187D01*
X101491548Y-111573000D01*
X99778452Y-111573000D01*
X99780415Y-111572187D01*
X99924055Y-111476210D01*
X100046210Y-111354055D01*
X100142187Y-111210415D01*
X100208297Y-111050811D01*
X100242000Y-110881377D01*
X100242000Y-110708623D01*
X100208297Y-110539189D01*
X100142187Y-110379585D01*
X100046210Y-110235945D01*
X99992000Y-110181735D01*
X99992000Y-110118687D01*
X99995033Y-110087893D01*
X99982927Y-109964982D01*
X99977108Y-109945798D01*
X99947075Y-109846791D01*
X99891001Y-109741885D01*
X99891001Y-102964712D01*
X100101575Y-102754138D01*
X100125502Y-102734502D01*
X100203854Y-102639029D01*
X100262076Y-102530104D01*
X100297928Y-102411914D01*
X100305014Y-102339972D01*
X100310034Y-102289001D01*
X100307001Y-102258207D01*
X100307001Y-101814368D01*
X100334894Y-101842261D01*
X100478534Y-101938238D01*
X100638138Y-102004348D01*
X100807572Y-102038051D01*
X100980326Y-102038051D01*
X101149760Y-102004348D01*
X101309364Y-101938238D01*
X101453004Y-101842261D01*
X101575159Y-101720106D01*
X101671136Y-101576466D01*
X101737246Y-101416862D01*
X101770949Y-101247428D01*
X101770949Y-101074674D01*
X101737246Y-100905240D01*
X101671136Y-100745636D01*
X101575159Y-100601996D01*
X101453004Y-100479841D01*
X101309364Y-100383864D01*
X101149760Y-100317754D01*
X100980326Y-100284051D01*
X100807572Y-100284051D01*
X100638138Y-100317754D01*
X100478534Y-100383864D01*
X100334894Y-100479841D01*
X100259903Y-100554832D01*
X100203854Y-100449973D01*
X100125502Y-100354500D01*
X100101579Y-100334867D01*
X99503935Y-99737223D01*
X99479950Y-99679320D01*
X99405860Y-99568437D01*
X99311563Y-99474140D01*
X99200680Y-99400050D01*
X99127128Y-99369584D01*
X99131712Y-99365000D01*
X101604069Y-99365000D01*
X101611348Y-99438905D01*
X101632905Y-99509970D01*
X101667912Y-99575463D01*
X101715024Y-99632869D01*
X102422131Y-100339976D01*
X102479537Y-100387088D01*
X102545030Y-100422095D01*
X102616095Y-100443652D01*
X102690000Y-100450931D01*
X102763905Y-100443652D01*
X102834970Y-100422095D01*
X102900463Y-100387088D01*
X102957869Y-100339976D01*
X103664976Y-99632869D01*
X103712088Y-99575463D01*
X103747095Y-99509970D01*
X103768652Y-99438905D01*
X103775931Y-99365000D01*
X103768652Y-99291095D01*
X103747095Y-99220030D01*
X103712088Y-99154537D01*
X103664976Y-99097131D01*
X102957869Y-98390024D01*
X102900463Y-98342912D01*
X102834970Y-98307905D01*
X102763905Y-98286348D01*
X102690000Y-98279069D01*
X102616095Y-98286348D01*
X102545030Y-98307905D01*
X102479537Y-98342912D01*
X102422131Y-98390024D01*
X101715024Y-99097131D01*
X101667912Y-99154537D01*
X101632905Y-99220030D01*
X101611348Y-99291095D01*
X101604069Y-99365000D01*
X99131712Y-99365000D01*
X99142778Y-99353934D01*
X99200680Y-99329950D01*
X99311563Y-99255860D01*
X99405860Y-99161563D01*
X99479950Y-99050680D01*
X99530984Y-98927474D01*
X99557000Y-98796679D01*
X99557000Y-98663321D01*
X99530984Y-98532526D01*
X99479950Y-98409320D01*
X99405860Y-98298437D01*
X99311563Y-98204140D01*
X99200680Y-98130050D01*
X99077474Y-98079016D01*
X98946679Y-98053000D01*
X98813321Y-98053000D01*
X98682526Y-98079016D01*
X98593112Y-98116053D01*
X98590612Y-98110017D01*
X98516522Y-97999134D01*
X98422225Y-97904837D01*
X98311342Y-97830747D01*
X98188136Y-97779713D01*
X98057341Y-97753697D01*
X97923983Y-97753697D01*
X97793188Y-97779713D01*
X97735286Y-97803697D01*
X97357172Y-97803697D01*
X97326378Y-97800664D01*
X97203466Y-97812770D01*
X97085276Y-97848622D01*
X96976351Y-97906844D01*
X96880878Y-97985196D01*
X96861245Y-98009119D01*
X95196383Y-99673982D01*
X95125860Y-99568437D01*
X95031563Y-99474140D01*
X94920680Y-99400050D01*
X94797474Y-99349016D01*
X94666679Y-99323000D01*
X94533321Y-99323000D01*
X94402526Y-99349016D01*
X94279320Y-99400050D01*
X94168437Y-99474140D01*
X94074140Y-99568437D01*
X94000050Y-99679320D01*
X93976066Y-99737222D01*
X92578427Y-101134862D01*
X92554499Y-101154499D01*
X92476147Y-101249973D01*
X92417925Y-101358898D01*
X92387408Y-101459500D01*
X92382073Y-101477088D01*
X92369967Y-101600000D01*
X92373000Y-101630794D01*
X92373001Y-103619544D01*
X92349016Y-103677448D01*
X92323000Y-103808243D01*
X92323000Y-103941601D01*
X92349016Y-104072396D01*
X92400050Y-104195602D01*
X92474140Y-104306485D01*
X92568437Y-104400782D01*
X92679320Y-104474872D01*
X92802526Y-104525906D01*
X92930024Y-104551266D01*
X92593427Y-104887864D01*
X92569499Y-104907501D01*
X92491147Y-105002975D01*
X92432925Y-105111900D01*
X92404644Y-105205131D01*
X92397073Y-105230090D01*
X92384967Y-105353002D01*
X92388000Y-105383796D01*
X92388001Y-110181734D01*
X92333790Y-110235945D01*
X92237813Y-110379585D01*
X92171703Y-110539189D01*
X92138000Y-110708623D01*
X92138000Y-110881377D01*
X92171703Y-111050811D01*
X92237813Y-111210415D01*
X92333790Y-111354055D01*
X92455945Y-111476210D01*
X92599585Y-111572187D01*
X92601548Y-111573000D01*
X92176870Y-111573000D01*
X88427000Y-107823132D01*
X88427000Y-102318452D01*
X88427813Y-102320415D01*
X88523790Y-102464055D01*
X88645945Y-102586210D01*
X88789585Y-102682187D01*
X88949189Y-102748297D01*
X89118623Y-102782000D01*
X89291377Y-102782000D01*
X89460811Y-102748297D01*
X89620415Y-102682187D01*
X89764055Y-102586210D01*
X89886210Y-102464055D01*
X89982187Y-102320415D01*
X90048297Y-102160811D01*
X90082000Y-101991377D01*
X90082000Y-101818623D01*
X90048297Y-101649189D01*
X89982187Y-101489585D01*
X89886210Y-101345945D01*
X89764055Y-101223790D01*
X89620415Y-101127813D01*
X89460811Y-101061703D01*
X89291377Y-101028000D01*
X89118623Y-101028000D01*
X88949189Y-101061703D01*
X88789585Y-101127813D01*
X88645945Y-101223790D01*
X88523790Y-101345945D01*
X88427813Y-101489585D01*
X88427000Y-101491548D01*
X88427000Y-99778452D01*
X88427813Y-99780415D01*
X88523790Y-99924055D01*
X88645945Y-100046210D01*
X88789585Y-100142187D01*
X88949189Y-100208297D01*
X89118623Y-100242000D01*
X89291377Y-100242000D01*
X89460811Y-100208297D01*
X89620415Y-100142187D01*
X89764055Y-100046210D01*
X89886210Y-99924055D01*
X89982187Y-99780415D01*
X90048297Y-99620811D01*
X90082000Y-99451377D01*
X90082000Y-99278623D01*
X90048297Y-99109189D01*
X89982187Y-98949585D01*
X89886210Y-98805945D01*
X89810265Y-98730000D01*
X89886210Y-98654055D01*
X89982187Y-98510415D01*
X90048297Y-98350811D01*
X90082000Y-98181377D01*
X90082000Y-98008623D01*
X90048297Y-97839189D01*
X89982187Y-97679585D01*
X89886210Y-97535945D01*
X89810265Y-97460000D01*
X89886210Y-97384055D01*
X89982187Y-97240415D01*
X90048297Y-97080811D01*
X90082000Y-96911377D01*
X90082000Y-96738623D01*
X90048297Y-96569189D01*
X89982187Y-96409585D01*
X89886210Y-96265945D01*
X89810265Y-96190000D01*
X89886210Y-96114055D01*
X89982187Y-95970415D01*
X90048297Y-95810811D01*
X90082000Y-95641377D01*
X90082000Y-95468623D01*
X90048297Y-95299189D01*
X89982187Y-95139585D01*
X89886210Y-94995945D01*
X89810265Y-94920000D01*
X89886210Y-94844055D01*
X89982187Y-94700415D01*
X90048297Y-94540811D01*
X90082000Y-94371377D01*
X90082000Y-94198623D01*
X90048297Y-94029189D01*
X89982187Y-93869585D01*
X89886210Y-93725945D01*
X89810265Y-93650000D01*
X89876944Y-93583321D01*
X94393000Y-93583321D01*
X94393000Y-93716679D01*
X94419016Y-93847474D01*
X94470050Y-93970680D01*
X94544140Y-94081563D01*
X94638437Y-94175860D01*
X94749320Y-94249950D01*
X94807223Y-94273935D01*
X95874866Y-95341578D01*
X95894499Y-95365501D01*
X95989972Y-95443853D01*
X96098897Y-95502075D01*
X96217087Y-95537927D01*
X96231037Y-95539301D01*
X96307526Y-95570984D01*
X96438321Y-95597000D01*
X96571679Y-95597000D01*
X96702474Y-95570984D01*
X96825680Y-95519950D01*
X96936563Y-95445860D01*
X97030860Y-95351563D01*
X97104950Y-95240680D01*
X97155984Y-95117474D01*
X97182000Y-94986679D01*
X97182000Y-94853321D01*
X97155984Y-94722526D01*
X97104950Y-94599320D01*
X97030860Y-94488437D01*
X96936563Y-94394140D01*
X96825680Y-94320050D01*
X96702474Y-94269016D01*
X96571679Y-94243000D01*
X96549712Y-94243000D01*
X95693935Y-93387223D01*
X95669950Y-93329320D01*
X95595860Y-93218437D01*
X95501563Y-93124140D01*
X95390680Y-93050050D01*
X95267474Y-92999016D01*
X95136679Y-92973000D01*
X95003321Y-92973000D01*
X94872526Y-92999016D01*
X94749320Y-93050050D01*
X94638437Y-93124140D01*
X94544140Y-93218437D01*
X94470050Y-93329320D01*
X94419016Y-93452526D01*
X94393000Y-93583321D01*
X89876944Y-93583321D01*
X89886210Y-93574055D01*
X89982187Y-93430415D01*
X90048297Y-93270811D01*
X90082000Y-93101377D01*
X90082000Y-92928623D01*
X90048297Y-92759189D01*
X89982187Y-92599585D01*
X89886210Y-92455945D01*
X89764055Y-92333790D01*
X89620415Y-92237813D01*
X89460811Y-92171703D01*
X89291377Y-92138000D01*
X89118623Y-92138000D01*
X88949189Y-92171703D01*
X88789585Y-92237813D01*
X88645945Y-92333790D01*
X88523790Y-92455945D01*
X88427813Y-92599585D01*
X88427000Y-92601548D01*
X88427000Y-90610000D01*
X93556176Y-90610000D01*
X93556176Y-91610000D01*
X93563455Y-91683905D01*
X93585012Y-91754970D01*
X93620019Y-91820463D01*
X93667131Y-91877869D01*
X93724537Y-91924981D01*
X93790030Y-91959988D01*
X93861095Y-91981545D01*
X93935000Y-91988824D01*
X94935000Y-91988824D01*
X95008905Y-91981545D01*
X95079970Y-91959988D01*
X95145463Y-91924981D01*
X95202869Y-91877869D01*
X95249981Y-91820463D01*
X95284988Y-91754970D01*
X95306545Y-91683905D01*
X95313824Y-91610000D01*
X95313824Y-90610000D01*
X95306545Y-90536095D01*
X95284988Y-90465030D01*
X95249981Y-90399537D01*
X95202869Y-90342131D01*
X95145463Y-90295019D01*
X95079970Y-90260012D01*
X95008905Y-90238455D01*
X94935000Y-90231176D01*
X93935000Y-90231176D01*
X93861095Y-90238455D01*
X93790030Y-90260012D01*
X93724537Y-90295019D01*
X93667131Y-90342131D01*
X93620019Y-90399537D01*
X93585012Y-90465030D01*
X93563455Y-90536095D01*
X93556176Y-90610000D01*
X88427000Y-90610000D01*
X88427000Y-88427000D01*
X97681548Y-88427000D01*
X97679585Y-88427813D01*
G36*
X111573001Y-92176871D02*
G01*
X111573001Y-97681548D01*
X111572187Y-97679585D01*
X111476210Y-97535945D01*
X111354055Y-97413790D01*
X111210415Y-97317813D01*
X111050811Y-97251703D01*
X110881377Y-97218000D01*
X110708623Y-97218000D01*
X110539189Y-97251703D01*
X110379585Y-97317813D01*
X110235945Y-97413790D01*
X110113790Y-97535945D01*
X110017813Y-97679585D01*
X109951703Y-97839189D01*
X109918000Y-98008623D01*
X109918000Y-98181377D01*
X109951703Y-98350811D01*
X110017813Y-98510415D01*
X110113790Y-98654055D01*
X110235945Y-98776210D01*
X110379585Y-98872187D01*
X110539189Y-98938297D01*
X110708623Y-98972000D01*
X110881377Y-98972000D01*
X111050811Y-98938297D01*
X111210415Y-98872187D01*
X111354055Y-98776210D01*
X111476210Y-98654055D01*
X111572187Y-98510415D01*
X111573001Y-98508452D01*
X111573000Y-100221549D01*
X111572187Y-100219585D01*
X111476210Y-100075945D01*
X111354055Y-99953790D01*
X111210415Y-99857813D01*
X111050811Y-99791703D01*
X110881377Y-99758000D01*
X110708623Y-99758000D01*
X110539189Y-99791703D01*
X110379585Y-99857813D01*
X110235945Y-99953790D01*
X110113790Y-100075945D01*
X110017813Y-100219585D01*
X109951703Y-100379189D01*
X109918000Y-100548623D01*
X109918000Y-100721377D01*
X109949539Y-100879934D01*
X108866999Y-99797394D01*
X108866999Y-89645791D01*
X108870032Y-89614997D01*
X108857926Y-89492084D01*
X108850197Y-89466606D01*
X108844737Y-89448606D01*
X111573001Y-92176871D01*
G37*
X111573001Y-92176871D02*
X111573001Y-97681548D01*
X111572187Y-97679585D01*
X111476210Y-97535945D01*
X111354055Y-97413790D01*
X111210415Y-97317813D01*
X111050811Y-97251703D01*
X110881377Y-97218000D01*
X110708623Y-97218000D01*
X110539189Y-97251703D01*
X110379585Y-97317813D01*
X110235945Y-97413790D01*
X110113790Y-97535945D01*
X110017813Y-97679585D01*
X109951703Y-97839189D01*
X109918000Y-98008623D01*
X109918000Y-98181377D01*
X109951703Y-98350811D01*
X110017813Y-98510415D01*
X110113790Y-98654055D01*
X110235945Y-98776210D01*
X110379585Y-98872187D01*
X110539189Y-98938297D01*
X110708623Y-98972000D01*
X110881377Y-98972000D01*
X111050811Y-98938297D01*
X111210415Y-98872187D01*
X111354055Y-98776210D01*
X111476210Y-98654055D01*
X111572187Y-98510415D01*
X111573001Y-98508452D01*
X111573000Y-100221549D01*
X111572187Y-100219585D01*
X111476210Y-100075945D01*
X111354055Y-99953790D01*
X111210415Y-99857813D01*
X111050811Y-99791703D01*
X110881377Y-99758000D01*
X110708623Y-99758000D01*
X110539189Y-99791703D01*
X110379585Y-99857813D01*
X110235945Y-99953790D01*
X110113790Y-100075945D01*
X110017813Y-100219585D01*
X109951703Y-100379189D01*
X109918000Y-100548623D01*
X109918000Y-100721377D01*
X109949539Y-100879934D01*
X108866999Y-99797394D01*
X108866999Y-89645791D01*
X108870032Y-89614997D01*
X108857926Y-89492084D01*
X108850197Y-89466606D01*
X108844737Y-89448606D01*
X111573001Y-92176871D01*
%TD*%
M02*
