M48
; DRILL file {KiCad 5.1.5} date Tue 18 Feb 2020 12:10:56 PM CET
; FORMAT={-:-/ absolute / metric / decimal}
; #@! TF.CreationDate,2020-02-18T12:10:56+01:00
; #@! TF.GenerationSoftware,Kicad,Pcbnew,5.1.5
; #@! TF.FileFunction,Plated,1,2,PTH
FMAT,2
METRIC
T1C0.300
T2C0.650
%
G90
G05
T1
X93.0Y-103.875
X94.6Y-100.0
X95.07Y-93.65
X96.505Y-94.92
X97.027Y-100.975
X97.991Y-98.431
X98.245Y-101.27
X98.88Y-98.73
X98.88Y-100.0
X98.88Y-101.905
X100.15Y-94.285
X100.225Y-105.728
X100.612Y-93.823
X101.247Y-93.823
X101.882Y-93.823
X103.152Y-93.823
X104.257Y-96.19
X104.575Y-103.839
X104.595Y-110.795
X104.79Y-105.135
X105.057Y-103.14
X106.5Y-106.985
X109.04Y-95.555
X109.04Y-96.19
X109.04Y-96.825
X109.04Y-97.46
T2
X100.894Y-101.161
X101.792Y-100.263
X102.69Y-99.365
X94.435Y-89.84
X94.435Y-91.11
X89.205Y-93.015
X89.205Y-94.285
X89.205Y-95.555
X89.205Y-96.825
X89.205Y-98.095
X89.205Y-99.365
X89.205Y-100.635
X89.205Y-101.905
X93.015Y-110.795
X94.285Y-110.795
X95.555Y-110.795
X96.825Y-110.795
X98.095Y-89.205
X98.095Y-110.795
X99.365Y-89.205
X99.365Y-110.795
X100.635Y-89.205
X100.635Y-110.795
X101.905Y-89.205
X101.905Y-110.795
X103.175Y-89.84
X104.445Y-89.84
X105.715Y-89.84
X106.985Y-89.84
X110.16Y-103.175
X110.16Y-104.445
X110.16Y-105.715
X110.16Y-106.985
X110.795Y-98.095
X110.795Y-99.365
X110.795Y-100.635
X110.795Y-101.905
T0
M30
