%TF.GenerationSoftware,KiCad,Pcbnew,5.1.5*%
%TF.CreationDate,2020-02-18T12:10:53+01:00*%
%TF.ProjectId,base,62617365-2e6b-4696-9361-645f70636258,rev?*%
%TF.SameCoordinates,Original*%
%TF.FileFunction,Soldermask,Bot*%
%TF.FilePolarity,Negative*%
%FSLAX46Y46*%
G04 Gerber Fmt 4.6, Leading zero omitted, Abs format (unit mm)*
G04 Created by KiCad (PCBNEW 5.1.5) date 2020-02-18 12:10:53*
%MOMM*%
%LPD*%
G04 APERTURE LIST*
%ADD10C,0.100000*%
G04 APERTURE END LIST*
D10*
G36*
X93175721Y-110265174D02*
G01*
X93275995Y-110306709D01*
X93275996Y-110306710D01*
X93366242Y-110367010D01*
X93442990Y-110443758D01*
X93442991Y-110443760D01*
X93503291Y-110534005D01*
X93534516Y-110609389D01*
X93546067Y-110631000D01*
X93561612Y-110649941D01*
X93580554Y-110665487D01*
X93602165Y-110677038D01*
X93625614Y-110684151D01*
X93650000Y-110686553D01*
X93674386Y-110684151D01*
X93697835Y-110677038D01*
X93719446Y-110665487D01*
X93738387Y-110649942D01*
X93753933Y-110631000D01*
X93765484Y-110609389D01*
X93796709Y-110534005D01*
X93857009Y-110443760D01*
X93857010Y-110443758D01*
X93933758Y-110367010D01*
X94024004Y-110306710D01*
X94024005Y-110306709D01*
X94124279Y-110265174D01*
X94230730Y-110244000D01*
X94339270Y-110244000D01*
X94445721Y-110265174D01*
X94545995Y-110306709D01*
X94545996Y-110306710D01*
X94636242Y-110367010D01*
X94712990Y-110443758D01*
X94712991Y-110443760D01*
X94773291Y-110534005D01*
X94804516Y-110609389D01*
X94816067Y-110631000D01*
X94831612Y-110649941D01*
X94850554Y-110665487D01*
X94872165Y-110677038D01*
X94895614Y-110684151D01*
X94920000Y-110686553D01*
X94944386Y-110684151D01*
X94967835Y-110677038D01*
X94989446Y-110665487D01*
X95008387Y-110649942D01*
X95023933Y-110631000D01*
X95035484Y-110609389D01*
X95066709Y-110534005D01*
X95127009Y-110443760D01*
X95127010Y-110443758D01*
X95203758Y-110367010D01*
X95294004Y-110306710D01*
X95294005Y-110306709D01*
X95394279Y-110265174D01*
X95500730Y-110244000D01*
X95609270Y-110244000D01*
X95715721Y-110265174D01*
X95815995Y-110306709D01*
X95815996Y-110306710D01*
X95906242Y-110367010D01*
X95982990Y-110443758D01*
X95982991Y-110443760D01*
X96043291Y-110534005D01*
X96074516Y-110609389D01*
X96086067Y-110631000D01*
X96101612Y-110649941D01*
X96120554Y-110665487D01*
X96142165Y-110677038D01*
X96165614Y-110684151D01*
X96190000Y-110686553D01*
X96214386Y-110684151D01*
X96237835Y-110677038D01*
X96259446Y-110665487D01*
X96278387Y-110649942D01*
X96293933Y-110631000D01*
X96305484Y-110609389D01*
X96336709Y-110534005D01*
X96397009Y-110443760D01*
X96397010Y-110443758D01*
X96473758Y-110367010D01*
X96564004Y-110306710D01*
X96564005Y-110306709D01*
X96664279Y-110265174D01*
X96770730Y-110244000D01*
X96879270Y-110244000D01*
X96985721Y-110265174D01*
X97085995Y-110306709D01*
X97085996Y-110306710D01*
X97176242Y-110367010D01*
X97252990Y-110443758D01*
X97252991Y-110443760D01*
X97313291Y-110534005D01*
X97344516Y-110609389D01*
X97356067Y-110631000D01*
X97371612Y-110649941D01*
X97390554Y-110665487D01*
X97412165Y-110677038D01*
X97435614Y-110684151D01*
X97460000Y-110686553D01*
X97484386Y-110684151D01*
X97507835Y-110677038D01*
X97529446Y-110665487D01*
X97548387Y-110649942D01*
X97563933Y-110631000D01*
X97575484Y-110609389D01*
X97606709Y-110534005D01*
X97667009Y-110443760D01*
X97667010Y-110443758D01*
X97743758Y-110367010D01*
X97834004Y-110306710D01*
X97834005Y-110306709D01*
X97934279Y-110265174D01*
X98040730Y-110244000D01*
X98149270Y-110244000D01*
X98255721Y-110265174D01*
X98355995Y-110306709D01*
X98355996Y-110306710D01*
X98446242Y-110367010D01*
X98522990Y-110443758D01*
X98522991Y-110443760D01*
X98583291Y-110534005D01*
X98614516Y-110609389D01*
X98626067Y-110631000D01*
X98641612Y-110649941D01*
X98660554Y-110665487D01*
X98682165Y-110677038D01*
X98705614Y-110684151D01*
X98730000Y-110686553D01*
X98754386Y-110684151D01*
X98777835Y-110677038D01*
X98799446Y-110665487D01*
X98818387Y-110649942D01*
X98833933Y-110631000D01*
X98845484Y-110609389D01*
X98876709Y-110534005D01*
X98937009Y-110443760D01*
X98937010Y-110443758D01*
X99013758Y-110367010D01*
X99104004Y-110306710D01*
X99104005Y-110306709D01*
X99204279Y-110265174D01*
X99310730Y-110244000D01*
X99419270Y-110244000D01*
X99525721Y-110265174D01*
X99625995Y-110306709D01*
X99625996Y-110306710D01*
X99716242Y-110367010D01*
X99792990Y-110443758D01*
X99792991Y-110443760D01*
X99853291Y-110534005D01*
X99884516Y-110609389D01*
X99896067Y-110631000D01*
X99911612Y-110649941D01*
X99930554Y-110665487D01*
X99952165Y-110677038D01*
X99975614Y-110684151D01*
X100000000Y-110686553D01*
X100024386Y-110684151D01*
X100047835Y-110677038D01*
X100069446Y-110665487D01*
X100088387Y-110649942D01*
X100103933Y-110631000D01*
X100115484Y-110609389D01*
X100146709Y-110534005D01*
X100207009Y-110443760D01*
X100207010Y-110443758D01*
X100283758Y-110367010D01*
X100374004Y-110306710D01*
X100374005Y-110306709D01*
X100474279Y-110265174D01*
X100580730Y-110244000D01*
X100689270Y-110244000D01*
X100795721Y-110265174D01*
X100895995Y-110306709D01*
X100895996Y-110306710D01*
X100986242Y-110367010D01*
X101062990Y-110443758D01*
X101062991Y-110443760D01*
X101123291Y-110534005D01*
X101154516Y-110609389D01*
X101166067Y-110631000D01*
X101181612Y-110649941D01*
X101200554Y-110665487D01*
X101222165Y-110677038D01*
X101245614Y-110684151D01*
X101270000Y-110686553D01*
X101294386Y-110684151D01*
X101317835Y-110677038D01*
X101339446Y-110665487D01*
X101358387Y-110649942D01*
X101373933Y-110631000D01*
X101385484Y-110609389D01*
X101416709Y-110534005D01*
X101477009Y-110443760D01*
X101477010Y-110443758D01*
X101553758Y-110367010D01*
X101644004Y-110306710D01*
X101644005Y-110306709D01*
X101744279Y-110265174D01*
X101850730Y-110244000D01*
X101959270Y-110244000D01*
X102065721Y-110265174D01*
X102165995Y-110306709D01*
X102165996Y-110306710D01*
X102256242Y-110367010D01*
X102332990Y-110443758D01*
X102332991Y-110443760D01*
X102393291Y-110534005D01*
X102434826Y-110634279D01*
X102456000Y-110740730D01*
X102456000Y-110849270D01*
X102434826Y-110955721D01*
X102393291Y-111055995D01*
X102393290Y-111055996D01*
X102332990Y-111146242D01*
X102256242Y-111222990D01*
X102210812Y-111253345D01*
X102165995Y-111283291D01*
X102065721Y-111324826D01*
X101959270Y-111346000D01*
X101850730Y-111346000D01*
X101744279Y-111324826D01*
X101644005Y-111283291D01*
X101599188Y-111253345D01*
X101553758Y-111222990D01*
X101477010Y-111146242D01*
X101416710Y-111055996D01*
X101416709Y-111055995D01*
X101385484Y-110980611D01*
X101373933Y-110959000D01*
X101358388Y-110940059D01*
X101339446Y-110924513D01*
X101317835Y-110912962D01*
X101294386Y-110905849D01*
X101270000Y-110903447D01*
X101245614Y-110905849D01*
X101222165Y-110912962D01*
X101200554Y-110924513D01*
X101181613Y-110940058D01*
X101166067Y-110959000D01*
X101154516Y-110980611D01*
X101123291Y-111055995D01*
X101123290Y-111055996D01*
X101062990Y-111146242D01*
X100986242Y-111222990D01*
X100940812Y-111253345D01*
X100895995Y-111283291D01*
X100795721Y-111324826D01*
X100689270Y-111346000D01*
X100580730Y-111346000D01*
X100474279Y-111324826D01*
X100374005Y-111283291D01*
X100329188Y-111253345D01*
X100283758Y-111222990D01*
X100207010Y-111146242D01*
X100146710Y-111055996D01*
X100146709Y-111055995D01*
X100115484Y-110980611D01*
X100103933Y-110959000D01*
X100088388Y-110940059D01*
X100069446Y-110924513D01*
X100047835Y-110912962D01*
X100024386Y-110905849D01*
X100000000Y-110903447D01*
X99975614Y-110905849D01*
X99952165Y-110912962D01*
X99930554Y-110924513D01*
X99911613Y-110940058D01*
X99896067Y-110959000D01*
X99884516Y-110980611D01*
X99853291Y-111055995D01*
X99853290Y-111055996D01*
X99792990Y-111146242D01*
X99716242Y-111222990D01*
X99670812Y-111253345D01*
X99625995Y-111283291D01*
X99525721Y-111324826D01*
X99419270Y-111346000D01*
X99310730Y-111346000D01*
X99204279Y-111324826D01*
X99104005Y-111283291D01*
X99059188Y-111253345D01*
X99013758Y-111222990D01*
X98937010Y-111146242D01*
X98876710Y-111055996D01*
X98876709Y-111055995D01*
X98845484Y-110980611D01*
X98833933Y-110959000D01*
X98818388Y-110940059D01*
X98799446Y-110924513D01*
X98777835Y-110912962D01*
X98754386Y-110905849D01*
X98730000Y-110903447D01*
X98705614Y-110905849D01*
X98682165Y-110912962D01*
X98660554Y-110924513D01*
X98641613Y-110940058D01*
X98626067Y-110959000D01*
X98614516Y-110980611D01*
X98583291Y-111055995D01*
X98583290Y-111055996D01*
X98522990Y-111146242D01*
X98446242Y-111222990D01*
X98400812Y-111253345D01*
X98355995Y-111283291D01*
X98255721Y-111324826D01*
X98149270Y-111346000D01*
X98040730Y-111346000D01*
X97934279Y-111324826D01*
X97834005Y-111283291D01*
X97789188Y-111253345D01*
X97743758Y-111222990D01*
X97667010Y-111146242D01*
X97606710Y-111055996D01*
X97606709Y-111055995D01*
X97575484Y-110980611D01*
X97563933Y-110959000D01*
X97548388Y-110940059D01*
X97529446Y-110924513D01*
X97507835Y-110912962D01*
X97484386Y-110905849D01*
X97460000Y-110903447D01*
X97435614Y-110905849D01*
X97412165Y-110912962D01*
X97390554Y-110924513D01*
X97371613Y-110940058D01*
X97356067Y-110959000D01*
X97344516Y-110980611D01*
X97313291Y-111055995D01*
X97313290Y-111055996D01*
X97252990Y-111146242D01*
X97176242Y-111222990D01*
X97130812Y-111253345D01*
X97085995Y-111283291D01*
X96985721Y-111324826D01*
X96879270Y-111346000D01*
X96770730Y-111346000D01*
X96664279Y-111324826D01*
X96564005Y-111283291D01*
X96519188Y-111253345D01*
X96473758Y-111222990D01*
X96397010Y-111146242D01*
X96336710Y-111055996D01*
X96336709Y-111055995D01*
X96305484Y-110980611D01*
X96293933Y-110959000D01*
X96278388Y-110940059D01*
X96259446Y-110924513D01*
X96237835Y-110912962D01*
X96214386Y-110905849D01*
X96190000Y-110903447D01*
X96165614Y-110905849D01*
X96142165Y-110912962D01*
X96120554Y-110924513D01*
X96101613Y-110940058D01*
X96086067Y-110959000D01*
X96074516Y-110980611D01*
X96043291Y-111055995D01*
X96043290Y-111055996D01*
X95982990Y-111146242D01*
X95906242Y-111222990D01*
X95860812Y-111253345D01*
X95815995Y-111283291D01*
X95715721Y-111324826D01*
X95609270Y-111346000D01*
X95500730Y-111346000D01*
X95394279Y-111324826D01*
X95294005Y-111283291D01*
X95249188Y-111253345D01*
X95203758Y-111222990D01*
X95127010Y-111146242D01*
X95066710Y-111055996D01*
X95066709Y-111055995D01*
X95035484Y-110980611D01*
X95023933Y-110959000D01*
X95008388Y-110940059D01*
X94989446Y-110924513D01*
X94967835Y-110912962D01*
X94944386Y-110905849D01*
X94920000Y-110903447D01*
X94895614Y-110905849D01*
X94872165Y-110912962D01*
X94850554Y-110924513D01*
X94831613Y-110940058D01*
X94816067Y-110959000D01*
X94804516Y-110980611D01*
X94773291Y-111055995D01*
X94773290Y-111055996D01*
X94712990Y-111146242D01*
X94636242Y-111222990D01*
X94590812Y-111253345D01*
X94545995Y-111283291D01*
X94445721Y-111324826D01*
X94339270Y-111346000D01*
X94230730Y-111346000D01*
X94124279Y-111324826D01*
X94024005Y-111283291D01*
X93979188Y-111253345D01*
X93933758Y-111222990D01*
X93857010Y-111146242D01*
X93796710Y-111055996D01*
X93796709Y-111055995D01*
X93765484Y-110980611D01*
X93753933Y-110959000D01*
X93738388Y-110940059D01*
X93719446Y-110924513D01*
X93697835Y-110912962D01*
X93674386Y-110905849D01*
X93650000Y-110903447D01*
X93625614Y-110905849D01*
X93602165Y-110912962D01*
X93580554Y-110924513D01*
X93561613Y-110940058D01*
X93546067Y-110959000D01*
X93534516Y-110980611D01*
X93503291Y-111055995D01*
X93503290Y-111055996D01*
X93442990Y-111146242D01*
X93366242Y-111222990D01*
X93320812Y-111253345D01*
X93275995Y-111283291D01*
X93175721Y-111324826D01*
X93069270Y-111346000D01*
X92960730Y-111346000D01*
X92854279Y-111324826D01*
X92754005Y-111283291D01*
X92709188Y-111253345D01*
X92663758Y-111222990D01*
X92587010Y-111146242D01*
X92526710Y-111055996D01*
X92526709Y-111055995D01*
X92485174Y-110955721D01*
X92464000Y-110849270D01*
X92464000Y-110740730D01*
X92485174Y-110634279D01*
X92526709Y-110534005D01*
X92587009Y-110443760D01*
X92587010Y-110443758D01*
X92663758Y-110367010D01*
X92754004Y-110306710D01*
X92754005Y-110306709D01*
X92854279Y-110265174D01*
X92960730Y-110244000D01*
X93069270Y-110244000D01*
X93175721Y-110265174D01*
G37*
G36*
X110320721Y-102645174D02*
G01*
X110420995Y-102686709D01*
X110420996Y-102686710D01*
X110511242Y-102747010D01*
X110587990Y-102823758D01*
X110587991Y-102823760D01*
X110648291Y-102914005D01*
X110689826Y-103014279D01*
X110711000Y-103120730D01*
X110711000Y-103229270D01*
X110689826Y-103335721D01*
X110648291Y-103435995D01*
X110648290Y-103435996D01*
X110587990Y-103526242D01*
X110511242Y-103602990D01*
X110465812Y-103633345D01*
X110420995Y-103663291D01*
X110345611Y-103694516D01*
X110324000Y-103706067D01*
X110305059Y-103721612D01*
X110289513Y-103740554D01*
X110277962Y-103762165D01*
X110270849Y-103785614D01*
X110268447Y-103810000D01*
X110270849Y-103834386D01*
X110277962Y-103857835D01*
X110289513Y-103879446D01*
X110305058Y-103898387D01*
X110324000Y-103913933D01*
X110345611Y-103925484D01*
X110420995Y-103956709D01*
X110420996Y-103956710D01*
X110511242Y-104017010D01*
X110587990Y-104093758D01*
X110587991Y-104093760D01*
X110648291Y-104184005D01*
X110689826Y-104284279D01*
X110711000Y-104390730D01*
X110711000Y-104499270D01*
X110689826Y-104605721D01*
X110648291Y-104705995D01*
X110648290Y-104705996D01*
X110587990Y-104796242D01*
X110511242Y-104872990D01*
X110465812Y-104903345D01*
X110420995Y-104933291D01*
X110345611Y-104964516D01*
X110324000Y-104976067D01*
X110305059Y-104991612D01*
X110289513Y-105010554D01*
X110277962Y-105032165D01*
X110270849Y-105055614D01*
X110268447Y-105080000D01*
X110270849Y-105104386D01*
X110277962Y-105127835D01*
X110289513Y-105149446D01*
X110305058Y-105168387D01*
X110324000Y-105183933D01*
X110345611Y-105195484D01*
X110420995Y-105226709D01*
X110420996Y-105226710D01*
X110511242Y-105287010D01*
X110587990Y-105363758D01*
X110587991Y-105363760D01*
X110648291Y-105454005D01*
X110689826Y-105554279D01*
X110711000Y-105660730D01*
X110711000Y-105769270D01*
X110689826Y-105875721D01*
X110648291Y-105975995D01*
X110648290Y-105975996D01*
X110587990Y-106066242D01*
X110511242Y-106142990D01*
X110465812Y-106173345D01*
X110420995Y-106203291D01*
X110345611Y-106234516D01*
X110324000Y-106246067D01*
X110305059Y-106261612D01*
X110289513Y-106280554D01*
X110277962Y-106302165D01*
X110270849Y-106325614D01*
X110268447Y-106350000D01*
X110270849Y-106374386D01*
X110277962Y-106397835D01*
X110289513Y-106419446D01*
X110305058Y-106438387D01*
X110324000Y-106453933D01*
X110345611Y-106465484D01*
X110420995Y-106496709D01*
X110420996Y-106496710D01*
X110511242Y-106557010D01*
X110587990Y-106633758D01*
X110587991Y-106633760D01*
X110648291Y-106724005D01*
X110689826Y-106824279D01*
X110711000Y-106930730D01*
X110711000Y-107039270D01*
X110689826Y-107145721D01*
X110648291Y-107245995D01*
X110648290Y-107245996D01*
X110587990Y-107336242D01*
X110511242Y-107412990D01*
X110465812Y-107443345D01*
X110420995Y-107473291D01*
X110320721Y-107514826D01*
X110214270Y-107536000D01*
X110105730Y-107536000D01*
X109999279Y-107514826D01*
X109899005Y-107473291D01*
X109854188Y-107443345D01*
X109808758Y-107412990D01*
X109732010Y-107336242D01*
X109671710Y-107245996D01*
X109671709Y-107245995D01*
X109630174Y-107145721D01*
X109609000Y-107039270D01*
X109609000Y-106930730D01*
X109630174Y-106824279D01*
X109671709Y-106724005D01*
X109732009Y-106633760D01*
X109732010Y-106633758D01*
X109808758Y-106557010D01*
X109899004Y-106496710D01*
X109899005Y-106496709D01*
X109974389Y-106465484D01*
X109996000Y-106453933D01*
X110014941Y-106438388D01*
X110030487Y-106419446D01*
X110042038Y-106397835D01*
X110049151Y-106374386D01*
X110051553Y-106350000D01*
X110049151Y-106325614D01*
X110042038Y-106302165D01*
X110030487Y-106280554D01*
X110014942Y-106261613D01*
X109996000Y-106246067D01*
X109974389Y-106234516D01*
X109899005Y-106203291D01*
X109854188Y-106173345D01*
X109808758Y-106142990D01*
X109732010Y-106066242D01*
X109671710Y-105975996D01*
X109671709Y-105975995D01*
X109630174Y-105875721D01*
X109609000Y-105769270D01*
X109609000Y-105660730D01*
X109630174Y-105554279D01*
X109671709Y-105454005D01*
X109732009Y-105363760D01*
X109732010Y-105363758D01*
X109808758Y-105287010D01*
X109899004Y-105226710D01*
X109899005Y-105226709D01*
X109974389Y-105195484D01*
X109996000Y-105183933D01*
X110014941Y-105168388D01*
X110030487Y-105149446D01*
X110042038Y-105127835D01*
X110049151Y-105104386D01*
X110051553Y-105080000D01*
X110049151Y-105055614D01*
X110042038Y-105032165D01*
X110030487Y-105010554D01*
X110014942Y-104991613D01*
X109996000Y-104976067D01*
X109974389Y-104964516D01*
X109899005Y-104933291D01*
X109854188Y-104903345D01*
X109808758Y-104872990D01*
X109732010Y-104796242D01*
X109671710Y-104705996D01*
X109671709Y-104705995D01*
X109630174Y-104605721D01*
X109609000Y-104499270D01*
X109609000Y-104390730D01*
X109630174Y-104284279D01*
X109671709Y-104184005D01*
X109732009Y-104093760D01*
X109732010Y-104093758D01*
X109808758Y-104017010D01*
X109899004Y-103956710D01*
X109899005Y-103956709D01*
X109974389Y-103925484D01*
X109996000Y-103913933D01*
X110014941Y-103898388D01*
X110030487Y-103879446D01*
X110042038Y-103857835D01*
X110049151Y-103834386D01*
X110051553Y-103810000D01*
X110049151Y-103785614D01*
X110042038Y-103762165D01*
X110030487Y-103740554D01*
X110014942Y-103721613D01*
X109996000Y-103706067D01*
X109974389Y-103694516D01*
X109899005Y-103663291D01*
X109854188Y-103633345D01*
X109808758Y-103602990D01*
X109732010Y-103526242D01*
X109671710Y-103435996D01*
X109671709Y-103435995D01*
X109630174Y-103335721D01*
X109609000Y-103229270D01*
X109609000Y-103120730D01*
X109630174Y-103014279D01*
X109671709Y-102914005D01*
X109732009Y-102823760D01*
X109732010Y-102823758D01*
X109808758Y-102747010D01*
X109899004Y-102686710D01*
X109899005Y-102686709D01*
X109999279Y-102645174D01*
X110105730Y-102624000D01*
X110214270Y-102624000D01*
X110320721Y-102645174D01*
G37*
G36*
X89365721Y-92485174D02*
G01*
X89465995Y-92526709D01*
X89465996Y-92526710D01*
X89556242Y-92587010D01*
X89632990Y-92663758D01*
X89632991Y-92663760D01*
X89693291Y-92754005D01*
X89734826Y-92854279D01*
X89756000Y-92960730D01*
X89756000Y-93069270D01*
X89734826Y-93175721D01*
X89693291Y-93275995D01*
X89693290Y-93275996D01*
X89632990Y-93366242D01*
X89556242Y-93442990D01*
X89510812Y-93473345D01*
X89465995Y-93503291D01*
X89390611Y-93534516D01*
X89369000Y-93546067D01*
X89350059Y-93561612D01*
X89334513Y-93580554D01*
X89322962Y-93602165D01*
X89315849Y-93625614D01*
X89313447Y-93650000D01*
X89315849Y-93674386D01*
X89322962Y-93697835D01*
X89334513Y-93719446D01*
X89350058Y-93738387D01*
X89369000Y-93753933D01*
X89390611Y-93765484D01*
X89465995Y-93796709D01*
X89465996Y-93796710D01*
X89556242Y-93857010D01*
X89632990Y-93933758D01*
X89632991Y-93933760D01*
X89693291Y-94024005D01*
X89734826Y-94124279D01*
X89756000Y-94230730D01*
X89756000Y-94339270D01*
X89734826Y-94445721D01*
X89693291Y-94545995D01*
X89693290Y-94545996D01*
X89632990Y-94636242D01*
X89556242Y-94712990D01*
X89510812Y-94743345D01*
X89465995Y-94773291D01*
X89390611Y-94804516D01*
X89369000Y-94816067D01*
X89350059Y-94831612D01*
X89334513Y-94850554D01*
X89322962Y-94872165D01*
X89315849Y-94895614D01*
X89313447Y-94920000D01*
X89315849Y-94944386D01*
X89322962Y-94967835D01*
X89334513Y-94989446D01*
X89350058Y-95008387D01*
X89369000Y-95023933D01*
X89390611Y-95035484D01*
X89465995Y-95066709D01*
X89465996Y-95066710D01*
X89556242Y-95127010D01*
X89632990Y-95203758D01*
X89632991Y-95203760D01*
X89693291Y-95294005D01*
X89734826Y-95394279D01*
X89756000Y-95500730D01*
X89756000Y-95609270D01*
X89734826Y-95715721D01*
X89693291Y-95815995D01*
X89693290Y-95815996D01*
X89632990Y-95906242D01*
X89556242Y-95982990D01*
X89510812Y-96013345D01*
X89465995Y-96043291D01*
X89390611Y-96074516D01*
X89369000Y-96086067D01*
X89350059Y-96101612D01*
X89334513Y-96120554D01*
X89322962Y-96142165D01*
X89315849Y-96165614D01*
X89313447Y-96190000D01*
X89315849Y-96214386D01*
X89322962Y-96237835D01*
X89334513Y-96259446D01*
X89350058Y-96278387D01*
X89369000Y-96293933D01*
X89390611Y-96305484D01*
X89465995Y-96336709D01*
X89465996Y-96336710D01*
X89556242Y-96397010D01*
X89632990Y-96473758D01*
X89632991Y-96473760D01*
X89693291Y-96564005D01*
X89734826Y-96664279D01*
X89756000Y-96770730D01*
X89756000Y-96879270D01*
X89734826Y-96985721D01*
X89693291Y-97085995D01*
X89693290Y-97085996D01*
X89632990Y-97176242D01*
X89556242Y-97252990D01*
X89510812Y-97283345D01*
X89465995Y-97313291D01*
X89390611Y-97344516D01*
X89369000Y-97356067D01*
X89350059Y-97371612D01*
X89334513Y-97390554D01*
X89322962Y-97412165D01*
X89315849Y-97435614D01*
X89313447Y-97460000D01*
X89315849Y-97484386D01*
X89322962Y-97507835D01*
X89334513Y-97529446D01*
X89350058Y-97548387D01*
X89369000Y-97563933D01*
X89390611Y-97575484D01*
X89465995Y-97606709D01*
X89465996Y-97606710D01*
X89556242Y-97667010D01*
X89632990Y-97743758D01*
X89632991Y-97743760D01*
X89693291Y-97834005D01*
X89734826Y-97934279D01*
X89756000Y-98040730D01*
X89756000Y-98149270D01*
X89734826Y-98255721D01*
X89693291Y-98355995D01*
X89693290Y-98355996D01*
X89632990Y-98446242D01*
X89556242Y-98522990D01*
X89510812Y-98553345D01*
X89465995Y-98583291D01*
X89390611Y-98614516D01*
X89369000Y-98626067D01*
X89350059Y-98641612D01*
X89334513Y-98660554D01*
X89322962Y-98682165D01*
X89315849Y-98705614D01*
X89313447Y-98730000D01*
X89315849Y-98754386D01*
X89322962Y-98777835D01*
X89334513Y-98799446D01*
X89350058Y-98818387D01*
X89369000Y-98833933D01*
X89390611Y-98845484D01*
X89465995Y-98876709D01*
X89465996Y-98876710D01*
X89556242Y-98937010D01*
X89632990Y-99013758D01*
X89632991Y-99013760D01*
X89693291Y-99104005D01*
X89734826Y-99204279D01*
X89756000Y-99310730D01*
X89756000Y-99419270D01*
X89734826Y-99525721D01*
X89693291Y-99625995D01*
X89693290Y-99625996D01*
X89632990Y-99716242D01*
X89556242Y-99792990D01*
X89510812Y-99823345D01*
X89465995Y-99853291D01*
X89390611Y-99884516D01*
X89369000Y-99896067D01*
X89350059Y-99911612D01*
X89334513Y-99930554D01*
X89322962Y-99952165D01*
X89315849Y-99975614D01*
X89313447Y-100000000D01*
X89315849Y-100024386D01*
X89322962Y-100047835D01*
X89334513Y-100069446D01*
X89350058Y-100088387D01*
X89369000Y-100103933D01*
X89390611Y-100115484D01*
X89465995Y-100146709D01*
X89465996Y-100146710D01*
X89556242Y-100207010D01*
X89632990Y-100283758D01*
X89655399Y-100317296D01*
X89693291Y-100374005D01*
X89734826Y-100474279D01*
X89756000Y-100580730D01*
X89756000Y-100689270D01*
X89734826Y-100795721D01*
X89693291Y-100895995D01*
X89689614Y-100901498D01*
X89632990Y-100986242D01*
X89556242Y-101062990D01*
X89510812Y-101093345D01*
X89465995Y-101123291D01*
X89390611Y-101154516D01*
X89369000Y-101166067D01*
X89350059Y-101181612D01*
X89334513Y-101200554D01*
X89322962Y-101222165D01*
X89315849Y-101245614D01*
X89313447Y-101270000D01*
X89315849Y-101294386D01*
X89322962Y-101317835D01*
X89334513Y-101339446D01*
X89350058Y-101358387D01*
X89369000Y-101373933D01*
X89390611Y-101385484D01*
X89465995Y-101416709D01*
X89510812Y-101446655D01*
X89556242Y-101477010D01*
X89632990Y-101553758D01*
X89632991Y-101553760D01*
X89693291Y-101644005D01*
X89734826Y-101744279D01*
X89756000Y-101850730D01*
X89756000Y-101959270D01*
X89734826Y-102065721D01*
X89693291Y-102165995D01*
X89693290Y-102165996D01*
X89632990Y-102256242D01*
X89556242Y-102332990D01*
X89510812Y-102363345D01*
X89465995Y-102393291D01*
X89365721Y-102434826D01*
X89259270Y-102456000D01*
X89150730Y-102456000D01*
X89044279Y-102434826D01*
X88944005Y-102393291D01*
X88899188Y-102363345D01*
X88853758Y-102332990D01*
X88777010Y-102256242D01*
X88716710Y-102165996D01*
X88716709Y-102165995D01*
X88675174Y-102065721D01*
X88654000Y-101959270D01*
X88654000Y-101850730D01*
X88675174Y-101744279D01*
X88716709Y-101644005D01*
X88777009Y-101553760D01*
X88777010Y-101553758D01*
X88853758Y-101477010D01*
X88899188Y-101446655D01*
X88944005Y-101416709D01*
X89019389Y-101385484D01*
X89041000Y-101373933D01*
X89059941Y-101358388D01*
X89075487Y-101339446D01*
X89087038Y-101317835D01*
X89094151Y-101294386D01*
X89096553Y-101270000D01*
X89094151Y-101245614D01*
X89087038Y-101222165D01*
X89075487Y-101200554D01*
X89059942Y-101181613D01*
X89041000Y-101166067D01*
X89019389Y-101154516D01*
X88944005Y-101123291D01*
X88899188Y-101093345D01*
X88853758Y-101062990D01*
X88777010Y-100986242D01*
X88720386Y-100901498D01*
X88716709Y-100895995D01*
X88675174Y-100795721D01*
X88654000Y-100689270D01*
X88654000Y-100580730D01*
X88675174Y-100474279D01*
X88716709Y-100374005D01*
X88754601Y-100317296D01*
X88777010Y-100283758D01*
X88853758Y-100207010D01*
X88944004Y-100146710D01*
X88944005Y-100146709D01*
X89019389Y-100115484D01*
X89041000Y-100103933D01*
X89059941Y-100088388D01*
X89075487Y-100069446D01*
X89087038Y-100047835D01*
X89094151Y-100024386D01*
X89096553Y-100000000D01*
X89094151Y-99975614D01*
X89087038Y-99952165D01*
X89075487Y-99930554D01*
X89059942Y-99911613D01*
X89041000Y-99896067D01*
X89019389Y-99884516D01*
X88944005Y-99853291D01*
X88899188Y-99823345D01*
X88853758Y-99792990D01*
X88777010Y-99716242D01*
X88716710Y-99625996D01*
X88716709Y-99625995D01*
X88675174Y-99525721D01*
X88654000Y-99419270D01*
X88654000Y-99310730D01*
X88675174Y-99204279D01*
X88716709Y-99104005D01*
X88777009Y-99013760D01*
X88777010Y-99013758D01*
X88853758Y-98937010D01*
X88944004Y-98876710D01*
X88944005Y-98876709D01*
X89019389Y-98845484D01*
X89041000Y-98833933D01*
X89059941Y-98818388D01*
X89075487Y-98799446D01*
X89087038Y-98777835D01*
X89094151Y-98754386D01*
X89096553Y-98730000D01*
X89094151Y-98705614D01*
X89087038Y-98682165D01*
X89075487Y-98660554D01*
X89059942Y-98641613D01*
X89041000Y-98626067D01*
X89019389Y-98614516D01*
X88944005Y-98583291D01*
X88899188Y-98553345D01*
X88853758Y-98522990D01*
X88777010Y-98446242D01*
X88716710Y-98355996D01*
X88716709Y-98355995D01*
X88675174Y-98255721D01*
X88654000Y-98149270D01*
X88654000Y-98040730D01*
X88675174Y-97934279D01*
X88716709Y-97834005D01*
X88777009Y-97743760D01*
X88777010Y-97743758D01*
X88853758Y-97667010D01*
X88944004Y-97606710D01*
X88944005Y-97606709D01*
X89019389Y-97575484D01*
X89041000Y-97563933D01*
X89059941Y-97548388D01*
X89075487Y-97529446D01*
X89087038Y-97507835D01*
X89094151Y-97484386D01*
X89096553Y-97460000D01*
X89094151Y-97435614D01*
X89087038Y-97412165D01*
X89075487Y-97390554D01*
X89059942Y-97371613D01*
X89041000Y-97356067D01*
X89019389Y-97344516D01*
X88944005Y-97313291D01*
X88899188Y-97283345D01*
X88853758Y-97252990D01*
X88777010Y-97176242D01*
X88716710Y-97085996D01*
X88716709Y-97085995D01*
X88675174Y-96985721D01*
X88654000Y-96879270D01*
X88654000Y-96770730D01*
X88675174Y-96664279D01*
X88716709Y-96564005D01*
X88777009Y-96473760D01*
X88777010Y-96473758D01*
X88853758Y-96397010D01*
X88944004Y-96336710D01*
X88944005Y-96336709D01*
X89019389Y-96305484D01*
X89041000Y-96293933D01*
X89059941Y-96278388D01*
X89075487Y-96259446D01*
X89087038Y-96237835D01*
X89094151Y-96214386D01*
X89096553Y-96190000D01*
X89094151Y-96165614D01*
X89087038Y-96142165D01*
X89075487Y-96120554D01*
X89059942Y-96101613D01*
X89041000Y-96086067D01*
X89019389Y-96074516D01*
X88944005Y-96043291D01*
X88899188Y-96013345D01*
X88853758Y-95982990D01*
X88777010Y-95906242D01*
X88716710Y-95815996D01*
X88716709Y-95815995D01*
X88675174Y-95715721D01*
X88654000Y-95609270D01*
X88654000Y-95500730D01*
X88675174Y-95394279D01*
X88716709Y-95294005D01*
X88777009Y-95203760D01*
X88777010Y-95203758D01*
X88853758Y-95127010D01*
X88944004Y-95066710D01*
X88944005Y-95066709D01*
X89019389Y-95035484D01*
X89041000Y-95023933D01*
X89059941Y-95008388D01*
X89075487Y-94989446D01*
X89087038Y-94967835D01*
X89094151Y-94944386D01*
X89096553Y-94920000D01*
X89094151Y-94895614D01*
X89087038Y-94872165D01*
X89075487Y-94850554D01*
X89059942Y-94831613D01*
X89041000Y-94816067D01*
X89019389Y-94804516D01*
X88944005Y-94773291D01*
X88899188Y-94743345D01*
X88853758Y-94712990D01*
X88777010Y-94636242D01*
X88716710Y-94545996D01*
X88716709Y-94545995D01*
X88675174Y-94445721D01*
X88654000Y-94339270D01*
X88654000Y-94230730D01*
X88675174Y-94124279D01*
X88716709Y-94024005D01*
X88777009Y-93933760D01*
X88777010Y-93933758D01*
X88853758Y-93857010D01*
X88944004Y-93796710D01*
X88944005Y-93796709D01*
X89019389Y-93765484D01*
X89041000Y-93753933D01*
X89059941Y-93738388D01*
X89075487Y-93719446D01*
X89087038Y-93697835D01*
X89094151Y-93674386D01*
X89096553Y-93650000D01*
X89094151Y-93625614D01*
X89087038Y-93602165D01*
X89075487Y-93580554D01*
X89059942Y-93561613D01*
X89041000Y-93546067D01*
X89019389Y-93534516D01*
X88944005Y-93503291D01*
X88899188Y-93473345D01*
X88853758Y-93442990D01*
X88777010Y-93366242D01*
X88716710Y-93275996D01*
X88716709Y-93275995D01*
X88675174Y-93175721D01*
X88654000Y-93069270D01*
X88654000Y-92960730D01*
X88675174Y-92854279D01*
X88716709Y-92754005D01*
X88777009Y-92663760D01*
X88777010Y-92663758D01*
X88853758Y-92587010D01*
X88944004Y-92526710D01*
X88944005Y-92526709D01*
X89044279Y-92485174D01*
X89150730Y-92464000D01*
X89259270Y-92464000D01*
X89365721Y-92485174D01*
G37*
G36*
X110955721Y-97565174D02*
G01*
X111055995Y-97606709D01*
X111055996Y-97606710D01*
X111146242Y-97667010D01*
X111222990Y-97743758D01*
X111222991Y-97743760D01*
X111283291Y-97834005D01*
X111324826Y-97934279D01*
X111346000Y-98040730D01*
X111346000Y-98149270D01*
X111324826Y-98255721D01*
X111283291Y-98355995D01*
X111283290Y-98355996D01*
X111222990Y-98446242D01*
X111146242Y-98522990D01*
X111100812Y-98553345D01*
X111055995Y-98583291D01*
X110980611Y-98614516D01*
X110959000Y-98626067D01*
X110940059Y-98641612D01*
X110924513Y-98660554D01*
X110912962Y-98682165D01*
X110905849Y-98705614D01*
X110903447Y-98730000D01*
X110905849Y-98754386D01*
X110912962Y-98777835D01*
X110924513Y-98799446D01*
X110940058Y-98818387D01*
X110959000Y-98833933D01*
X110980611Y-98845484D01*
X111055995Y-98876709D01*
X111055996Y-98876710D01*
X111146242Y-98937010D01*
X111222990Y-99013758D01*
X111222991Y-99013760D01*
X111283291Y-99104005D01*
X111324826Y-99204279D01*
X111346000Y-99310730D01*
X111346000Y-99419270D01*
X111324826Y-99525721D01*
X111283291Y-99625995D01*
X111283290Y-99625996D01*
X111222990Y-99716242D01*
X111146242Y-99792990D01*
X111100812Y-99823345D01*
X111055995Y-99853291D01*
X110980611Y-99884516D01*
X110959000Y-99896067D01*
X110940059Y-99911612D01*
X110924513Y-99930554D01*
X110912962Y-99952165D01*
X110905849Y-99975614D01*
X110903447Y-100000000D01*
X110905849Y-100024386D01*
X110912962Y-100047835D01*
X110924513Y-100069446D01*
X110940058Y-100088387D01*
X110959000Y-100103933D01*
X110980611Y-100115484D01*
X111055995Y-100146709D01*
X111055996Y-100146710D01*
X111146242Y-100207010D01*
X111222990Y-100283758D01*
X111245399Y-100317296D01*
X111283291Y-100374005D01*
X111324826Y-100474279D01*
X111346000Y-100580730D01*
X111346000Y-100689270D01*
X111324826Y-100795721D01*
X111283291Y-100895995D01*
X111279614Y-100901498D01*
X111222990Y-100986242D01*
X111146242Y-101062990D01*
X111100812Y-101093345D01*
X111055995Y-101123291D01*
X110980611Y-101154516D01*
X110959000Y-101166067D01*
X110940059Y-101181612D01*
X110924513Y-101200554D01*
X110912962Y-101222165D01*
X110905849Y-101245614D01*
X110903447Y-101270000D01*
X110905849Y-101294386D01*
X110912962Y-101317835D01*
X110924513Y-101339446D01*
X110940058Y-101358387D01*
X110959000Y-101373933D01*
X110980611Y-101385484D01*
X111055995Y-101416709D01*
X111100812Y-101446655D01*
X111146242Y-101477010D01*
X111222990Y-101553758D01*
X111222991Y-101553760D01*
X111283291Y-101644005D01*
X111324826Y-101744279D01*
X111346000Y-101850730D01*
X111346000Y-101959270D01*
X111324826Y-102065721D01*
X111283291Y-102165995D01*
X111283290Y-102165996D01*
X111222990Y-102256242D01*
X111146242Y-102332990D01*
X111100812Y-102363345D01*
X111055995Y-102393291D01*
X110955721Y-102434826D01*
X110849270Y-102456000D01*
X110740730Y-102456000D01*
X110634279Y-102434826D01*
X110534005Y-102393291D01*
X110489188Y-102363345D01*
X110443758Y-102332990D01*
X110367010Y-102256242D01*
X110306710Y-102165996D01*
X110306709Y-102165995D01*
X110265174Y-102065721D01*
X110244000Y-101959270D01*
X110244000Y-101850730D01*
X110265174Y-101744279D01*
X110306709Y-101644005D01*
X110367009Y-101553760D01*
X110367010Y-101553758D01*
X110443758Y-101477010D01*
X110489188Y-101446655D01*
X110534005Y-101416709D01*
X110609389Y-101385484D01*
X110631000Y-101373933D01*
X110649941Y-101358388D01*
X110665487Y-101339446D01*
X110677038Y-101317835D01*
X110684151Y-101294386D01*
X110686553Y-101270000D01*
X110684151Y-101245614D01*
X110677038Y-101222165D01*
X110665487Y-101200554D01*
X110649942Y-101181613D01*
X110631000Y-101166067D01*
X110609389Y-101154516D01*
X110534005Y-101123291D01*
X110489188Y-101093345D01*
X110443758Y-101062990D01*
X110367010Y-100986242D01*
X110310386Y-100901498D01*
X110306709Y-100895995D01*
X110265174Y-100795721D01*
X110244000Y-100689270D01*
X110244000Y-100580730D01*
X110265174Y-100474279D01*
X110306709Y-100374005D01*
X110344601Y-100317296D01*
X110367010Y-100283758D01*
X110443758Y-100207010D01*
X110534004Y-100146710D01*
X110534005Y-100146709D01*
X110609389Y-100115484D01*
X110631000Y-100103933D01*
X110649941Y-100088388D01*
X110665487Y-100069446D01*
X110677038Y-100047835D01*
X110684151Y-100024386D01*
X110686553Y-100000000D01*
X110684151Y-99975614D01*
X110677038Y-99952165D01*
X110665487Y-99930554D01*
X110649942Y-99911613D01*
X110631000Y-99896067D01*
X110609389Y-99884516D01*
X110534005Y-99853291D01*
X110489188Y-99823345D01*
X110443758Y-99792990D01*
X110367010Y-99716242D01*
X110306710Y-99625996D01*
X110306709Y-99625995D01*
X110265174Y-99525721D01*
X110244000Y-99419270D01*
X110244000Y-99310730D01*
X110265174Y-99204279D01*
X110306709Y-99104005D01*
X110367009Y-99013760D01*
X110367010Y-99013758D01*
X110443758Y-98937010D01*
X110534004Y-98876710D01*
X110534005Y-98876709D01*
X110609389Y-98845484D01*
X110631000Y-98833933D01*
X110649941Y-98818388D01*
X110665487Y-98799446D01*
X110677038Y-98777835D01*
X110684151Y-98754386D01*
X110686553Y-98730000D01*
X110684151Y-98705614D01*
X110677038Y-98682165D01*
X110665487Y-98660554D01*
X110649942Y-98641613D01*
X110631000Y-98626067D01*
X110609389Y-98614516D01*
X110534005Y-98583291D01*
X110489188Y-98553345D01*
X110443758Y-98522990D01*
X110367010Y-98446242D01*
X110306710Y-98355996D01*
X110306709Y-98355995D01*
X110265174Y-98255721D01*
X110244000Y-98149270D01*
X110244000Y-98040730D01*
X110265174Y-97934279D01*
X110306709Y-97834005D01*
X110367009Y-97743760D01*
X110367010Y-97743758D01*
X110443758Y-97667010D01*
X110534004Y-97606710D01*
X110534005Y-97606709D01*
X110634279Y-97565174D01*
X110740730Y-97544000D01*
X110849270Y-97544000D01*
X110955721Y-97565174D01*
G37*
G36*
X103469232Y-99365000D02*
G01*
X102690000Y-100144232D01*
X102532154Y-99986386D01*
X102513218Y-99970846D01*
X102491607Y-99959295D01*
X102468158Y-99952182D01*
X102443772Y-99949780D01*
X102419386Y-99952182D01*
X102395937Y-99959295D01*
X102374326Y-99970846D01*
X102355384Y-99986391D01*
X102339839Y-100005333D01*
X102328288Y-100026944D01*
X102321175Y-100050393D01*
X102318773Y-100074779D01*
X102321175Y-100099165D01*
X102342974Y-100208756D01*
X102342974Y-100317296D01*
X102321800Y-100423747D01*
X102280265Y-100524021D01*
X102250319Y-100568838D01*
X102219964Y-100614268D01*
X102143216Y-100691016D01*
X102097786Y-100721371D01*
X102052969Y-100751317D01*
X101952695Y-100792852D01*
X101846244Y-100814026D01*
X101737704Y-100814026D01*
X101631253Y-100792852D01*
X101555869Y-100761627D01*
X101532420Y-100754514D01*
X101508034Y-100752112D01*
X101483647Y-100754514D01*
X101460199Y-100761627D01*
X101438588Y-100773178D01*
X101419646Y-100788724D01*
X101404101Y-100807666D01*
X101392550Y-100829276D01*
X101385437Y-100852725D01*
X101383035Y-100877111D01*
X101385437Y-100901498D01*
X101392550Y-100924946D01*
X101423775Y-101000330D01*
X101444949Y-101106781D01*
X101444949Y-101215321D01*
X101423775Y-101321772D01*
X101382240Y-101422046D01*
X101382239Y-101422047D01*
X101321939Y-101512293D01*
X101245191Y-101589041D01*
X101199761Y-101619396D01*
X101154944Y-101649342D01*
X101054670Y-101690877D01*
X100948219Y-101712051D01*
X100839679Y-101712051D01*
X100733228Y-101690877D01*
X100632954Y-101649342D01*
X100588137Y-101619396D01*
X100542707Y-101589041D01*
X100465959Y-101512293D01*
X100405659Y-101422047D01*
X100405658Y-101422046D01*
X100364123Y-101321772D01*
X100342949Y-101215321D01*
X100342949Y-101106781D01*
X100364123Y-101000330D01*
X100405658Y-100900056D01*
X100452952Y-100829276D01*
X100465959Y-100809809D01*
X100542707Y-100733061D01*
X100632953Y-100672761D01*
X100632954Y-100672760D01*
X100733228Y-100631225D01*
X100839679Y-100610051D01*
X100948219Y-100610051D01*
X101054670Y-100631225D01*
X101130054Y-100662450D01*
X101153503Y-100669563D01*
X101177889Y-100671965D01*
X101202276Y-100669563D01*
X101225724Y-100662450D01*
X101247335Y-100650899D01*
X101266277Y-100635353D01*
X101281822Y-100616411D01*
X101293373Y-100594801D01*
X101300486Y-100571352D01*
X101302888Y-100546966D01*
X101300486Y-100522579D01*
X101293373Y-100499131D01*
X101262148Y-100423747D01*
X101240974Y-100317296D01*
X101240974Y-100208756D01*
X101262148Y-100102305D01*
X101303683Y-100002031D01*
X101336991Y-99952182D01*
X101363984Y-99911784D01*
X101440732Y-99835036D01*
X101530978Y-99774736D01*
X101530979Y-99774735D01*
X101631253Y-99733200D01*
X101737704Y-99712026D01*
X101846244Y-99712026D01*
X101955835Y-99733825D01*
X101980221Y-99736227D01*
X102004607Y-99733825D01*
X102028056Y-99726712D01*
X102049667Y-99715161D01*
X102068609Y-99699616D01*
X102084154Y-99680674D01*
X102095705Y-99659063D01*
X102102818Y-99635614D01*
X102105220Y-99611228D01*
X102102818Y-99586842D01*
X102095705Y-99563393D01*
X102084154Y-99541782D01*
X102068614Y-99522846D01*
X101910768Y-99365000D01*
X102690000Y-98585768D01*
X103469232Y-99365000D01*
G37*
G36*
X94595721Y-89310174D02*
G01*
X94695995Y-89351709D01*
X94695996Y-89351710D01*
X94786242Y-89412010D01*
X94862990Y-89488758D01*
X94862991Y-89488760D01*
X94923291Y-89579005D01*
X94964826Y-89679279D01*
X94986000Y-89785730D01*
X94986000Y-89894270D01*
X94964826Y-90000721D01*
X94923291Y-90100995D01*
X94923290Y-90100996D01*
X94862990Y-90191242D01*
X94786242Y-90267990D01*
X94754816Y-90288988D01*
X94693336Y-90330068D01*
X94674394Y-90345614D01*
X94658849Y-90364556D01*
X94647298Y-90386167D01*
X94640185Y-90409615D01*
X94637783Y-90434002D01*
X94640185Y-90458388D01*
X94647298Y-90481837D01*
X94658849Y-90503447D01*
X94674395Y-90522389D01*
X94693337Y-90537934D01*
X94714948Y-90549485D01*
X94738396Y-90556598D01*
X94762782Y-90559000D01*
X94986000Y-90559000D01*
X94986000Y-91661000D01*
X93884000Y-91661000D01*
X93884000Y-90559000D01*
X94107218Y-90559000D01*
X94131604Y-90556598D01*
X94155053Y-90549485D01*
X94176664Y-90537934D01*
X94195606Y-90522389D01*
X94211151Y-90503447D01*
X94222702Y-90481836D01*
X94229815Y-90458387D01*
X94232217Y-90434001D01*
X94229815Y-90409615D01*
X94222702Y-90386166D01*
X94211151Y-90364555D01*
X94195606Y-90345613D01*
X94176664Y-90330068D01*
X94115184Y-90288988D01*
X94083758Y-90267990D01*
X94007010Y-90191242D01*
X93946710Y-90100996D01*
X93946709Y-90100995D01*
X93905174Y-90000721D01*
X93884000Y-89894270D01*
X93884000Y-89785730D01*
X93905174Y-89679279D01*
X93946709Y-89579005D01*
X94007009Y-89488760D01*
X94007010Y-89488758D01*
X94083758Y-89412010D01*
X94174004Y-89351710D01*
X94174005Y-89351709D01*
X94274279Y-89310174D01*
X94380730Y-89289000D01*
X94489270Y-89289000D01*
X94595721Y-89310174D01*
G37*
G36*
X103335721Y-89310174D02*
G01*
X103435995Y-89351709D01*
X103435996Y-89351710D01*
X103526242Y-89412010D01*
X103602990Y-89488758D01*
X103602991Y-89488760D01*
X103663291Y-89579005D01*
X103694516Y-89654389D01*
X103706067Y-89676000D01*
X103721612Y-89694941D01*
X103740554Y-89710487D01*
X103762165Y-89722038D01*
X103785614Y-89729151D01*
X103810000Y-89731553D01*
X103834386Y-89729151D01*
X103857835Y-89722038D01*
X103879446Y-89710487D01*
X103898387Y-89694942D01*
X103913933Y-89676000D01*
X103925484Y-89654389D01*
X103956709Y-89579005D01*
X104017009Y-89488760D01*
X104017010Y-89488758D01*
X104093758Y-89412010D01*
X104184004Y-89351710D01*
X104184005Y-89351709D01*
X104284279Y-89310174D01*
X104390730Y-89289000D01*
X104499270Y-89289000D01*
X104605721Y-89310174D01*
X104705995Y-89351709D01*
X104705996Y-89351710D01*
X104796242Y-89412010D01*
X104872990Y-89488758D01*
X104872991Y-89488760D01*
X104933291Y-89579005D01*
X104964516Y-89654389D01*
X104976067Y-89676000D01*
X104991612Y-89694941D01*
X105010554Y-89710487D01*
X105032165Y-89722038D01*
X105055614Y-89729151D01*
X105080000Y-89731553D01*
X105104386Y-89729151D01*
X105127835Y-89722038D01*
X105149446Y-89710487D01*
X105168387Y-89694942D01*
X105183933Y-89676000D01*
X105195484Y-89654389D01*
X105226709Y-89579005D01*
X105287009Y-89488760D01*
X105287010Y-89488758D01*
X105363758Y-89412010D01*
X105454004Y-89351710D01*
X105454005Y-89351709D01*
X105554279Y-89310174D01*
X105660730Y-89289000D01*
X105769270Y-89289000D01*
X105875721Y-89310174D01*
X105975995Y-89351709D01*
X105975996Y-89351710D01*
X106066242Y-89412010D01*
X106142990Y-89488758D01*
X106142991Y-89488760D01*
X106203291Y-89579005D01*
X106234516Y-89654389D01*
X106246067Y-89676000D01*
X106261612Y-89694941D01*
X106280554Y-89710487D01*
X106302165Y-89722038D01*
X106325614Y-89729151D01*
X106350000Y-89731553D01*
X106374386Y-89729151D01*
X106397835Y-89722038D01*
X106419446Y-89710487D01*
X106438387Y-89694942D01*
X106453933Y-89676000D01*
X106465484Y-89654389D01*
X106496709Y-89579005D01*
X106557009Y-89488760D01*
X106557010Y-89488758D01*
X106633758Y-89412010D01*
X106724004Y-89351710D01*
X106724005Y-89351709D01*
X106824279Y-89310174D01*
X106930730Y-89289000D01*
X107039270Y-89289000D01*
X107145721Y-89310174D01*
X107245995Y-89351709D01*
X107245996Y-89351710D01*
X107336242Y-89412010D01*
X107412990Y-89488758D01*
X107412991Y-89488760D01*
X107473291Y-89579005D01*
X107514826Y-89679279D01*
X107536000Y-89785730D01*
X107536000Y-89894270D01*
X107514826Y-90000721D01*
X107473291Y-90100995D01*
X107473290Y-90100996D01*
X107412990Y-90191242D01*
X107336242Y-90267990D01*
X107290812Y-90298345D01*
X107245995Y-90328291D01*
X107145721Y-90369826D01*
X107039270Y-90391000D01*
X106930730Y-90391000D01*
X106824279Y-90369826D01*
X106724005Y-90328291D01*
X106679188Y-90298345D01*
X106633758Y-90267990D01*
X106557010Y-90191242D01*
X106496710Y-90100996D01*
X106496709Y-90100995D01*
X106465484Y-90025611D01*
X106453933Y-90004000D01*
X106438388Y-89985059D01*
X106419446Y-89969513D01*
X106397835Y-89957962D01*
X106374386Y-89950849D01*
X106350000Y-89948447D01*
X106325614Y-89950849D01*
X106302165Y-89957962D01*
X106280554Y-89969513D01*
X106261613Y-89985058D01*
X106246067Y-90004000D01*
X106234516Y-90025611D01*
X106203291Y-90100995D01*
X106203290Y-90100996D01*
X106142990Y-90191242D01*
X106066242Y-90267990D01*
X106020812Y-90298345D01*
X105975995Y-90328291D01*
X105875721Y-90369826D01*
X105769270Y-90391000D01*
X105660730Y-90391000D01*
X105554279Y-90369826D01*
X105454005Y-90328291D01*
X105409188Y-90298345D01*
X105363758Y-90267990D01*
X105287010Y-90191242D01*
X105226710Y-90100996D01*
X105226709Y-90100995D01*
X105195484Y-90025611D01*
X105183933Y-90004000D01*
X105168388Y-89985059D01*
X105149446Y-89969513D01*
X105127835Y-89957962D01*
X105104386Y-89950849D01*
X105080000Y-89948447D01*
X105055614Y-89950849D01*
X105032165Y-89957962D01*
X105010554Y-89969513D01*
X104991613Y-89985058D01*
X104976067Y-90004000D01*
X104964516Y-90025611D01*
X104933291Y-90100995D01*
X104933290Y-90100996D01*
X104872990Y-90191242D01*
X104796242Y-90267990D01*
X104750812Y-90298345D01*
X104705995Y-90328291D01*
X104605721Y-90369826D01*
X104499270Y-90391000D01*
X104390730Y-90391000D01*
X104284279Y-90369826D01*
X104184005Y-90328291D01*
X104139188Y-90298345D01*
X104093758Y-90267990D01*
X104017010Y-90191242D01*
X103956710Y-90100996D01*
X103956709Y-90100995D01*
X103925484Y-90025611D01*
X103913933Y-90004000D01*
X103898388Y-89985059D01*
X103879446Y-89969513D01*
X103857835Y-89957962D01*
X103834386Y-89950849D01*
X103810000Y-89948447D01*
X103785614Y-89950849D01*
X103762165Y-89957962D01*
X103740554Y-89969513D01*
X103721613Y-89985058D01*
X103706067Y-90004000D01*
X103694516Y-90025611D01*
X103663291Y-90100995D01*
X103663290Y-90100996D01*
X103602990Y-90191242D01*
X103526242Y-90267990D01*
X103480812Y-90298345D01*
X103435995Y-90328291D01*
X103335721Y-90369826D01*
X103229270Y-90391000D01*
X103120730Y-90391000D01*
X103014279Y-90369826D01*
X102914005Y-90328291D01*
X102869188Y-90298345D01*
X102823758Y-90267990D01*
X102747010Y-90191242D01*
X102686710Y-90100996D01*
X102686709Y-90100995D01*
X102645174Y-90000721D01*
X102624000Y-89894270D01*
X102624000Y-89785730D01*
X102645174Y-89679279D01*
X102686709Y-89579005D01*
X102747009Y-89488760D01*
X102747010Y-89488758D01*
X102823758Y-89412010D01*
X102914004Y-89351710D01*
X102914005Y-89351709D01*
X103014279Y-89310174D01*
X103120730Y-89289000D01*
X103229270Y-89289000D01*
X103335721Y-89310174D01*
G37*
G36*
X98255721Y-88675174D02*
G01*
X98355995Y-88716709D01*
X98355996Y-88716710D01*
X98446242Y-88777010D01*
X98522990Y-88853758D01*
X98522991Y-88853760D01*
X98583291Y-88944005D01*
X98614516Y-89019389D01*
X98626067Y-89041000D01*
X98641612Y-89059941D01*
X98660554Y-89075487D01*
X98682165Y-89087038D01*
X98705614Y-89094151D01*
X98730000Y-89096553D01*
X98754386Y-89094151D01*
X98777835Y-89087038D01*
X98799446Y-89075487D01*
X98818387Y-89059942D01*
X98833933Y-89041000D01*
X98845484Y-89019389D01*
X98876709Y-88944005D01*
X98937009Y-88853760D01*
X98937010Y-88853758D01*
X99013758Y-88777010D01*
X99104004Y-88716710D01*
X99104005Y-88716709D01*
X99204279Y-88675174D01*
X99310730Y-88654000D01*
X99419270Y-88654000D01*
X99525721Y-88675174D01*
X99625995Y-88716709D01*
X99625996Y-88716710D01*
X99716242Y-88777010D01*
X99792990Y-88853758D01*
X99792991Y-88853760D01*
X99853291Y-88944005D01*
X99884516Y-89019389D01*
X99896067Y-89041000D01*
X99911612Y-89059941D01*
X99930554Y-89075487D01*
X99952165Y-89087038D01*
X99975614Y-89094151D01*
X100000000Y-89096553D01*
X100024386Y-89094151D01*
X100047835Y-89087038D01*
X100069446Y-89075487D01*
X100088387Y-89059942D01*
X100103933Y-89041000D01*
X100115484Y-89019389D01*
X100146709Y-88944005D01*
X100207009Y-88853760D01*
X100207010Y-88853758D01*
X100283758Y-88777010D01*
X100374004Y-88716710D01*
X100374005Y-88716709D01*
X100474279Y-88675174D01*
X100580730Y-88654000D01*
X100689270Y-88654000D01*
X100795721Y-88675174D01*
X100895995Y-88716709D01*
X100895996Y-88716710D01*
X100986242Y-88777010D01*
X101062990Y-88853758D01*
X101062991Y-88853760D01*
X101123291Y-88944005D01*
X101154516Y-89019389D01*
X101166067Y-89041000D01*
X101181612Y-89059941D01*
X101200554Y-89075487D01*
X101222165Y-89087038D01*
X101245614Y-89094151D01*
X101270000Y-89096553D01*
X101294386Y-89094151D01*
X101317835Y-89087038D01*
X101339446Y-89075487D01*
X101358387Y-89059942D01*
X101373933Y-89041000D01*
X101385484Y-89019389D01*
X101416709Y-88944005D01*
X101477009Y-88853760D01*
X101477010Y-88853758D01*
X101553758Y-88777010D01*
X101644004Y-88716710D01*
X101644005Y-88716709D01*
X101744279Y-88675174D01*
X101850730Y-88654000D01*
X101959270Y-88654000D01*
X102065721Y-88675174D01*
X102165995Y-88716709D01*
X102165996Y-88716710D01*
X102256242Y-88777010D01*
X102332990Y-88853758D01*
X102332991Y-88853760D01*
X102393291Y-88944005D01*
X102434826Y-89044279D01*
X102456000Y-89150730D01*
X102456000Y-89259270D01*
X102434826Y-89365721D01*
X102393291Y-89465995D01*
X102393290Y-89465996D01*
X102332990Y-89556242D01*
X102256242Y-89632990D01*
X102224216Y-89654389D01*
X102165995Y-89693291D01*
X102065721Y-89734826D01*
X101959270Y-89756000D01*
X101850730Y-89756000D01*
X101744279Y-89734826D01*
X101644005Y-89693291D01*
X101585784Y-89654389D01*
X101553758Y-89632990D01*
X101477010Y-89556242D01*
X101416710Y-89465996D01*
X101416709Y-89465995D01*
X101385484Y-89390611D01*
X101373933Y-89369000D01*
X101358388Y-89350059D01*
X101339446Y-89334513D01*
X101317835Y-89322962D01*
X101294386Y-89315849D01*
X101270000Y-89313447D01*
X101245614Y-89315849D01*
X101222165Y-89322962D01*
X101200554Y-89334513D01*
X101181613Y-89350058D01*
X101166067Y-89369000D01*
X101154516Y-89390611D01*
X101123291Y-89465995D01*
X101123290Y-89465996D01*
X101062990Y-89556242D01*
X100986242Y-89632990D01*
X100954216Y-89654389D01*
X100895995Y-89693291D01*
X100795721Y-89734826D01*
X100689270Y-89756000D01*
X100580730Y-89756000D01*
X100474279Y-89734826D01*
X100374005Y-89693291D01*
X100315784Y-89654389D01*
X100283758Y-89632990D01*
X100207010Y-89556242D01*
X100146710Y-89465996D01*
X100146709Y-89465995D01*
X100115484Y-89390611D01*
X100103933Y-89369000D01*
X100088388Y-89350059D01*
X100069446Y-89334513D01*
X100047835Y-89322962D01*
X100024386Y-89315849D01*
X100000000Y-89313447D01*
X99975614Y-89315849D01*
X99952165Y-89322962D01*
X99930554Y-89334513D01*
X99911613Y-89350058D01*
X99896067Y-89369000D01*
X99884516Y-89390611D01*
X99853291Y-89465995D01*
X99853290Y-89465996D01*
X99792990Y-89556242D01*
X99716242Y-89632990D01*
X99684216Y-89654389D01*
X99625995Y-89693291D01*
X99525721Y-89734826D01*
X99419270Y-89756000D01*
X99310730Y-89756000D01*
X99204279Y-89734826D01*
X99104005Y-89693291D01*
X99045784Y-89654389D01*
X99013758Y-89632990D01*
X98937010Y-89556242D01*
X98876710Y-89465996D01*
X98876709Y-89465995D01*
X98845484Y-89390611D01*
X98833933Y-89369000D01*
X98818388Y-89350059D01*
X98799446Y-89334513D01*
X98777835Y-89322962D01*
X98754386Y-89315849D01*
X98730000Y-89313447D01*
X98705614Y-89315849D01*
X98682165Y-89322962D01*
X98660554Y-89334513D01*
X98641613Y-89350058D01*
X98626067Y-89369000D01*
X98614516Y-89390611D01*
X98583291Y-89465995D01*
X98583290Y-89465996D01*
X98522990Y-89556242D01*
X98446242Y-89632990D01*
X98414216Y-89654389D01*
X98355995Y-89693291D01*
X98255721Y-89734826D01*
X98149270Y-89756000D01*
X98040730Y-89756000D01*
X97934279Y-89734826D01*
X97834005Y-89693291D01*
X97775784Y-89654389D01*
X97743758Y-89632990D01*
X97667010Y-89556242D01*
X97606710Y-89465996D01*
X97606709Y-89465995D01*
X97565174Y-89365721D01*
X97544000Y-89259270D01*
X97544000Y-89150730D01*
X97565174Y-89044279D01*
X97606709Y-88944005D01*
X97667009Y-88853760D01*
X97667010Y-88853758D01*
X97743758Y-88777010D01*
X97834004Y-88716710D01*
X97834005Y-88716709D01*
X97934279Y-88675174D01*
X98040730Y-88654000D01*
X98149270Y-88654000D01*
X98255721Y-88675174D01*
G37*
M02*
