%TF.GenerationSoftware,KiCad,Pcbnew,5.1.5*%
%TF.CreationDate,2020-02-18T12:10:53+01:00*%
%TF.ProjectId,base,62617365-2e6b-4696-9361-645f70636258,rev?*%
%TF.SameCoordinates,Original*%
%TF.FileFunction,Soldermask,Top*%
%TF.FilePolarity,Negative*%
%FSLAX46Y46*%
G04 Gerber Fmt 4.6, Leading zero omitted, Abs format (unit mm)*
G04 Created by KiCad (PCBNEW 5.1.5) date 2020-02-18 12:10:53*
%MOMM*%
%LPD*%
G04 APERTURE LIST*
%ADD10C,0.100000*%
G04 APERTURE END LIST*
D10*
G36*
X93175721Y-110265174D02*
G01*
X93275995Y-110306709D01*
X93308088Y-110328153D01*
X93366242Y-110367010D01*
X93442990Y-110443758D01*
X93442991Y-110443760D01*
X93503291Y-110534005D01*
X93534516Y-110609389D01*
X93546067Y-110631000D01*
X93561612Y-110649941D01*
X93580554Y-110665487D01*
X93602165Y-110677038D01*
X93625614Y-110684151D01*
X93650000Y-110686553D01*
X93674386Y-110684151D01*
X93697835Y-110677038D01*
X93719446Y-110665487D01*
X93738387Y-110649942D01*
X93753933Y-110631000D01*
X93765484Y-110609389D01*
X93796709Y-110534005D01*
X93857009Y-110443760D01*
X93857010Y-110443758D01*
X93933758Y-110367010D01*
X93991912Y-110328153D01*
X94024005Y-110306709D01*
X94124279Y-110265174D01*
X94230730Y-110244000D01*
X94339270Y-110244000D01*
X94445721Y-110265174D01*
X94545995Y-110306709D01*
X94578088Y-110328153D01*
X94636242Y-110367010D01*
X94712990Y-110443758D01*
X94712991Y-110443760D01*
X94773291Y-110534005D01*
X94804516Y-110609389D01*
X94816067Y-110631000D01*
X94831612Y-110649941D01*
X94850554Y-110665487D01*
X94872165Y-110677038D01*
X94895614Y-110684151D01*
X94920000Y-110686553D01*
X94944386Y-110684151D01*
X94967835Y-110677038D01*
X94989446Y-110665487D01*
X95008387Y-110649942D01*
X95023933Y-110631000D01*
X95035484Y-110609389D01*
X95066709Y-110534005D01*
X95127009Y-110443760D01*
X95127010Y-110443758D01*
X95203758Y-110367010D01*
X95261912Y-110328153D01*
X95294005Y-110306709D01*
X95394279Y-110265174D01*
X95500730Y-110244000D01*
X95609270Y-110244000D01*
X95715721Y-110265174D01*
X95815995Y-110306709D01*
X95848088Y-110328153D01*
X95906242Y-110367010D01*
X95982990Y-110443758D01*
X95982991Y-110443760D01*
X96043291Y-110534005D01*
X96074516Y-110609389D01*
X96086067Y-110631000D01*
X96101612Y-110649941D01*
X96120554Y-110665487D01*
X96142165Y-110677038D01*
X96165614Y-110684151D01*
X96190000Y-110686553D01*
X96214386Y-110684151D01*
X96237835Y-110677038D01*
X96259446Y-110665487D01*
X96278387Y-110649942D01*
X96293933Y-110631000D01*
X96305484Y-110609389D01*
X96336709Y-110534005D01*
X96397009Y-110443760D01*
X96397010Y-110443758D01*
X96473758Y-110367010D01*
X96531912Y-110328153D01*
X96564005Y-110306709D01*
X96664279Y-110265174D01*
X96770730Y-110244000D01*
X96879270Y-110244000D01*
X96985721Y-110265174D01*
X97085995Y-110306709D01*
X97118088Y-110328153D01*
X97176242Y-110367010D01*
X97252990Y-110443758D01*
X97252991Y-110443760D01*
X97313291Y-110534005D01*
X97344516Y-110609389D01*
X97356067Y-110631000D01*
X97371612Y-110649941D01*
X97390554Y-110665487D01*
X97412165Y-110677038D01*
X97435614Y-110684151D01*
X97460000Y-110686553D01*
X97484386Y-110684151D01*
X97507835Y-110677038D01*
X97529446Y-110665487D01*
X97548387Y-110649942D01*
X97563933Y-110631000D01*
X97575484Y-110609389D01*
X97606709Y-110534005D01*
X97667009Y-110443760D01*
X97667010Y-110443758D01*
X97743758Y-110367010D01*
X97801912Y-110328153D01*
X97834005Y-110306709D01*
X97934279Y-110265174D01*
X98040730Y-110244000D01*
X98149270Y-110244000D01*
X98255721Y-110265174D01*
X98355995Y-110306709D01*
X98388088Y-110328153D01*
X98446242Y-110367010D01*
X98522990Y-110443758D01*
X98522991Y-110443760D01*
X98583291Y-110534005D01*
X98614516Y-110609389D01*
X98626067Y-110631000D01*
X98641612Y-110649941D01*
X98660554Y-110665487D01*
X98682165Y-110677038D01*
X98705614Y-110684151D01*
X98730000Y-110686553D01*
X98754386Y-110684151D01*
X98777835Y-110677038D01*
X98799446Y-110665487D01*
X98818387Y-110649942D01*
X98833933Y-110631000D01*
X98845484Y-110609389D01*
X98876709Y-110534005D01*
X98937009Y-110443760D01*
X98937010Y-110443758D01*
X99013758Y-110367010D01*
X99071912Y-110328153D01*
X99104005Y-110306709D01*
X99204279Y-110265174D01*
X99310730Y-110244000D01*
X99419270Y-110244000D01*
X99525721Y-110265174D01*
X99625995Y-110306709D01*
X99658088Y-110328153D01*
X99716242Y-110367010D01*
X99792990Y-110443758D01*
X99792991Y-110443760D01*
X99853291Y-110534005D01*
X99884516Y-110609389D01*
X99896067Y-110631000D01*
X99911612Y-110649941D01*
X99930554Y-110665487D01*
X99952165Y-110677038D01*
X99975614Y-110684151D01*
X100000000Y-110686553D01*
X100024386Y-110684151D01*
X100047835Y-110677038D01*
X100069446Y-110665487D01*
X100088387Y-110649942D01*
X100103933Y-110631000D01*
X100115484Y-110609389D01*
X100146709Y-110534005D01*
X100207009Y-110443760D01*
X100207010Y-110443758D01*
X100283758Y-110367010D01*
X100341912Y-110328153D01*
X100374005Y-110306709D01*
X100474279Y-110265174D01*
X100580730Y-110244000D01*
X100689270Y-110244000D01*
X100795721Y-110265174D01*
X100895995Y-110306709D01*
X100928088Y-110328153D01*
X100986242Y-110367010D01*
X101062990Y-110443758D01*
X101062991Y-110443760D01*
X101123291Y-110534005D01*
X101154516Y-110609389D01*
X101166067Y-110631000D01*
X101181612Y-110649941D01*
X101200554Y-110665487D01*
X101222165Y-110677038D01*
X101245614Y-110684151D01*
X101270000Y-110686553D01*
X101294386Y-110684151D01*
X101317835Y-110677038D01*
X101339446Y-110665487D01*
X101358387Y-110649942D01*
X101373933Y-110631000D01*
X101385484Y-110609389D01*
X101416709Y-110534005D01*
X101477009Y-110443760D01*
X101477010Y-110443758D01*
X101553758Y-110367010D01*
X101611912Y-110328153D01*
X101644005Y-110306709D01*
X101744279Y-110265174D01*
X101850730Y-110244000D01*
X101959270Y-110244000D01*
X102065721Y-110265174D01*
X102165995Y-110306709D01*
X102198088Y-110328153D01*
X102256242Y-110367010D01*
X102332990Y-110443758D01*
X102332991Y-110443760D01*
X102393291Y-110534005D01*
X102434826Y-110634279D01*
X102456000Y-110740730D01*
X102456000Y-110849270D01*
X102434826Y-110955721D01*
X102393291Y-111055995D01*
X102393290Y-111055996D01*
X102332990Y-111146242D01*
X102256242Y-111222990D01*
X102243425Y-111231554D01*
X102165995Y-111283291D01*
X102065721Y-111324826D01*
X101959270Y-111346000D01*
X101850730Y-111346000D01*
X101744279Y-111324826D01*
X101644005Y-111283291D01*
X101566575Y-111231554D01*
X101553758Y-111222990D01*
X101477010Y-111146242D01*
X101416710Y-111055996D01*
X101416709Y-111055995D01*
X101385484Y-110980611D01*
X101373933Y-110959000D01*
X101358388Y-110940059D01*
X101339446Y-110924513D01*
X101317835Y-110912962D01*
X101294386Y-110905849D01*
X101270000Y-110903447D01*
X101245614Y-110905849D01*
X101222165Y-110912962D01*
X101200554Y-110924513D01*
X101181613Y-110940058D01*
X101166067Y-110959000D01*
X101154516Y-110980611D01*
X101123291Y-111055995D01*
X101123290Y-111055996D01*
X101062990Y-111146242D01*
X100986242Y-111222990D01*
X100973425Y-111231554D01*
X100895995Y-111283291D01*
X100795721Y-111324826D01*
X100689270Y-111346000D01*
X100580730Y-111346000D01*
X100474279Y-111324826D01*
X100374005Y-111283291D01*
X100296575Y-111231554D01*
X100283758Y-111222990D01*
X100207010Y-111146242D01*
X100146710Y-111055996D01*
X100146709Y-111055995D01*
X100115484Y-110980611D01*
X100103933Y-110959000D01*
X100088388Y-110940059D01*
X100069446Y-110924513D01*
X100047835Y-110912962D01*
X100024386Y-110905849D01*
X100000000Y-110903447D01*
X99975614Y-110905849D01*
X99952165Y-110912962D01*
X99930554Y-110924513D01*
X99911613Y-110940058D01*
X99896067Y-110959000D01*
X99884516Y-110980611D01*
X99853291Y-111055995D01*
X99853290Y-111055996D01*
X99792990Y-111146242D01*
X99716242Y-111222990D01*
X99703425Y-111231554D01*
X99625995Y-111283291D01*
X99525721Y-111324826D01*
X99419270Y-111346000D01*
X99310730Y-111346000D01*
X99204279Y-111324826D01*
X99104005Y-111283291D01*
X99026575Y-111231554D01*
X99013758Y-111222990D01*
X98937010Y-111146242D01*
X98876710Y-111055996D01*
X98876709Y-111055995D01*
X98845484Y-110980611D01*
X98833933Y-110959000D01*
X98818388Y-110940059D01*
X98799446Y-110924513D01*
X98777835Y-110912962D01*
X98754386Y-110905849D01*
X98730000Y-110903447D01*
X98705614Y-110905849D01*
X98682165Y-110912962D01*
X98660554Y-110924513D01*
X98641613Y-110940058D01*
X98626067Y-110959000D01*
X98614516Y-110980611D01*
X98583291Y-111055995D01*
X98583290Y-111055996D01*
X98522990Y-111146242D01*
X98446242Y-111222990D01*
X98433425Y-111231554D01*
X98355995Y-111283291D01*
X98255721Y-111324826D01*
X98149270Y-111346000D01*
X98040730Y-111346000D01*
X97934279Y-111324826D01*
X97834005Y-111283291D01*
X97756575Y-111231554D01*
X97743758Y-111222990D01*
X97667010Y-111146242D01*
X97606710Y-111055996D01*
X97606709Y-111055995D01*
X97575484Y-110980611D01*
X97563933Y-110959000D01*
X97548388Y-110940059D01*
X97529446Y-110924513D01*
X97507835Y-110912962D01*
X97484386Y-110905849D01*
X97460000Y-110903447D01*
X97435614Y-110905849D01*
X97412165Y-110912962D01*
X97390554Y-110924513D01*
X97371613Y-110940058D01*
X97356067Y-110959000D01*
X97344516Y-110980611D01*
X97313291Y-111055995D01*
X97313290Y-111055996D01*
X97252990Y-111146242D01*
X97176242Y-111222990D01*
X97163425Y-111231554D01*
X97085995Y-111283291D01*
X96985721Y-111324826D01*
X96879270Y-111346000D01*
X96770730Y-111346000D01*
X96664279Y-111324826D01*
X96564005Y-111283291D01*
X96486575Y-111231554D01*
X96473758Y-111222990D01*
X96397010Y-111146242D01*
X96336710Y-111055996D01*
X96336709Y-111055995D01*
X96305484Y-110980611D01*
X96293933Y-110959000D01*
X96278388Y-110940059D01*
X96259446Y-110924513D01*
X96237835Y-110912962D01*
X96214386Y-110905849D01*
X96190000Y-110903447D01*
X96165614Y-110905849D01*
X96142165Y-110912962D01*
X96120554Y-110924513D01*
X96101613Y-110940058D01*
X96086067Y-110959000D01*
X96074516Y-110980611D01*
X96043291Y-111055995D01*
X96043290Y-111055996D01*
X95982990Y-111146242D01*
X95906242Y-111222990D01*
X95893425Y-111231554D01*
X95815995Y-111283291D01*
X95715721Y-111324826D01*
X95609270Y-111346000D01*
X95500730Y-111346000D01*
X95394279Y-111324826D01*
X95294005Y-111283291D01*
X95216575Y-111231554D01*
X95203758Y-111222990D01*
X95127010Y-111146242D01*
X95066710Y-111055996D01*
X95066709Y-111055995D01*
X95035484Y-110980611D01*
X95023933Y-110959000D01*
X95008388Y-110940059D01*
X94989446Y-110924513D01*
X94967835Y-110912962D01*
X94944386Y-110905849D01*
X94920000Y-110903447D01*
X94895614Y-110905849D01*
X94872165Y-110912962D01*
X94850554Y-110924513D01*
X94831613Y-110940058D01*
X94816067Y-110959000D01*
X94804516Y-110980611D01*
X94773291Y-111055995D01*
X94773290Y-111055996D01*
X94712990Y-111146242D01*
X94636242Y-111222990D01*
X94623425Y-111231554D01*
X94545995Y-111283291D01*
X94445721Y-111324826D01*
X94339270Y-111346000D01*
X94230730Y-111346000D01*
X94124279Y-111324826D01*
X94024005Y-111283291D01*
X93946575Y-111231554D01*
X93933758Y-111222990D01*
X93857010Y-111146242D01*
X93796710Y-111055996D01*
X93796709Y-111055995D01*
X93765484Y-110980611D01*
X93753933Y-110959000D01*
X93738388Y-110940059D01*
X93719446Y-110924513D01*
X93697835Y-110912962D01*
X93674386Y-110905849D01*
X93650000Y-110903447D01*
X93625614Y-110905849D01*
X93602165Y-110912962D01*
X93580554Y-110924513D01*
X93561613Y-110940058D01*
X93546067Y-110959000D01*
X93534516Y-110980611D01*
X93503291Y-111055995D01*
X93503290Y-111055996D01*
X93442990Y-111146242D01*
X93366242Y-111222990D01*
X93353425Y-111231554D01*
X93275995Y-111283291D01*
X93175721Y-111324826D01*
X93069270Y-111346000D01*
X92960730Y-111346000D01*
X92854279Y-111324826D01*
X92754005Y-111283291D01*
X92676575Y-111231554D01*
X92663758Y-111222990D01*
X92587010Y-111146242D01*
X92526710Y-111055996D01*
X92526709Y-111055995D01*
X92485174Y-110955721D01*
X92464000Y-110849270D01*
X92464000Y-110740730D01*
X92485174Y-110634279D01*
X92526709Y-110534005D01*
X92587009Y-110443760D01*
X92587010Y-110443758D01*
X92663758Y-110367010D01*
X92721912Y-110328153D01*
X92754005Y-110306709D01*
X92854279Y-110265174D01*
X92960730Y-110244000D01*
X93069270Y-110244000D01*
X93175721Y-110265174D01*
G37*
G36*
X107789499Y-110273445D02*
G01*
X107826995Y-110284820D01*
X107861554Y-110303292D01*
X107891847Y-110328153D01*
X107916708Y-110358446D01*
X107935180Y-110393005D01*
X107946555Y-110430501D01*
X107951000Y-110475638D01*
X107951000Y-111114362D01*
X107946555Y-111159499D01*
X107935180Y-111196995D01*
X107916708Y-111231554D01*
X107891847Y-111261847D01*
X107861554Y-111286708D01*
X107826995Y-111305180D01*
X107789499Y-111316555D01*
X107744362Y-111321000D01*
X107005638Y-111321000D01*
X106960501Y-111316555D01*
X106923005Y-111305180D01*
X106888446Y-111286708D01*
X106858153Y-111261847D01*
X106833292Y-111231554D01*
X106814820Y-111196995D01*
X106803445Y-111159499D01*
X106799000Y-111114362D01*
X106799000Y-110475638D01*
X106803445Y-110430501D01*
X106814820Y-110393005D01*
X106833292Y-110358446D01*
X106858153Y-110328153D01*
X106888446Y-110303292D01*
X106923005Y-110284820D01*
X106960501Y-110273445D01*
X107005638Y-110269000D01*
X107744362Y-110269000D01*
X107789499Y-110273445D01*
G37*
G36*
X106039499Y-110273445D02*
G01*
X106076995Y-110284820D01*
X106111554Y-110303292D01*
X106141847Y-110328153D01*
X106166708Y-110358446D01*
X106185180Y-110393005D01*
X106196555Y-110430501D01*
X106201000Y-110475638D01*
X106201000Y-111114362D01*
X106196555Y-111159499D01*
X106185180Y-111196995D01*
X106166708Y-111231554D01*
X106141847Y-111261847D01*
X106111554Y-111286708D01*
X106076995Y-111305180D01*
X106039499Y-111316555D01*
X105994362Y-111321000D01*
X105255638Y-111321000D01*
X105210501Y-111316555D01*
X105173005Y-111305180D01*
X105138446Y-111286708D01*
X105108153Y-111261847D01*
X105083292Y-111231554D01*
X105064820Y-111196995D01*
X105053445Y-111159499D01*
X105049000Y-111114362D01*
X105049000Y-110475638D01*
X105053445Y-110430501D01*
X105064820Y-110393005D01*
X105083292Y-110358446D01*
X105108153Y-110328153D01*
X105138446Y-110303292D01*
X105173005Y-110284820D01*
X105210501Y-110273445D01*
X105255638Y-110269000D01*
X105994362Y-110269000D01*
X106039499Y-110273445D01*
G37*
G36*
X105249499Y-108368445D02*
G01*
X105286995Y-108379820D01*
X105321554Y-108398292D01*
X105351847Y-108423153D01*
X105376708Y-108453446D01*
X105395180Y-108488005D01*
X105406555Y-108525501D01*
X105411000Y-108570638D01*
X105411000Y-109209362D01*
X105406555Y-109254499D01*
X105395180Y-109291995D01*
X105376708Y-109326554D01*
X105351847Y-109356847D01*
X105321554Y-109381708D01*
X105286995Y-109400180D01*
X105249499Y-109411555D01*
X105204362Y-109416000D01*
X104465638Y-109416000D01*
X104420501Y-109411555D01*
X104383005Y-109400180D01*
X104348446Y-109381708D01*
X104318153Y-109356847D01*
X104293292Y-109326554D01*
X104274820Y-109291995D01*
X104263445Y-109254499D01*
X104259000Y-109209362D01*
X104259000Y-108570638D01*
X104263445Y-108525501D01*
X104274820Y-108488005D01*
X104293292Y-108453446D01*
X104318153Y-108423153D01*
X104348446Y-108398292D01*
X104383005Y-108379820D01*
X104420501Y-108368445D01*
X104465638Y-108364000D01*
X105204362Y-108364000D01*
X105249499Y-108368445D01*
G37*
G36*
X103499499Y-108368445D02*
G01*
X103536995Y-108379820D01*
X103571554Y-108398292D01*
X103601847Y-108423153D01*
X103626708Y-108453446D01*
X103645180Y-108488005D01*
X103656555Y-108525501D01*
X103661000Y-108570638D01*
X103661000Y-109209362D01*
X103656555Y-109254499D01*
X103645180Y-109291995D01*
X103626708Y-109326554D01*
X103601847Y-109356847D01*
X103571554Y-109381708D01*
X103536995Y-109400180D01*
X103499499Y-109411555D01*
X103454362Y-109416000D01*
X102715638Y-109416000D01*
X102670501Y-109411555D01*
X102633005Y-109400180D01*
X102598446Y-109381708D01*
X102568153Y-109356847D01*
X102543292Y-109326554D01*
X102524820Y-109291995D01*
X102513445Y-109254499D01*
X102509000Y-109209362D01*
X102509000Y-108570638D01*
X102513445Y-108525501D01*
X102524820Y-108488005D01*
X102543292Y-108453446D01*
X102568153Y-108423153D01*
X102598446Y-108398292D01*
X102633005Y-108379820D01*
X102670501Y-108368445D01*
X102715638Y-108364000D01*
X103454362Y-108364000D01*
X103499499Y-108368445D01*
G37*
G36*
X110320721Y-102645174D02*
G01*
X110420995Y-102686709D01*
X110420996Y-102686710D01*
X110511242Y-102747010D01*
X110587990Y-102823758D01*
X110604200Y-102848018D01*
X110648291Y-102914005D01*
X110689826Y-103014279D01*
X110711000Y-103120730D01*
X110711000Y-103229270D01*
X110689826Y-103335721D01*
X110648291Y-103435995D01*
X110640522Y-103447622D01*
X110587990Y-103526242D01*
X110511242Y-103602990D01*
X110487235Y-103619031D01*
X110420995Y-103663291D01*
X110345611Y-103694516D01*
X110324000Y-103706067D01*
X110305059Y-103721612D01*
X110289513Y-103740554D01*
X110277962Y-103762165D01*
X110270849Y-103785614D01*
X110268447Y-103810000D01*
X110270849Y-103834386D01*
X110277962Y-103857835D01*
X110289513Y-103879446D01*
X110305058Y-103898387D01*
X110324000Y-103913933D01*
X110345611Y-103925484D01*
X110420995Y-103956709D01*
X110465812Y-103986655D01*
X110511242Y-104017010D01*
X110587990Y-104093758D01*
X110595406Y-104104857D01*
X110648291Y-104184005D01*
X110689826Y-104284279D01*
X110711000Y-104390730D01*
X110711000Y-104499270D01*
X110689826Y-104605721D01*
X110648291Y-104705995D01*
X110648290Y-104705996D01*
X110587990Y-104796242D01*
X110511242Y-104872990D01*
X110465812Y-104903345D01*
X110420995Y-104933291D01*
X110345611Y-104964516D01*
X110324000Y-104976067D01*
X110305059Y-104991612D01*
X110289513Y-105010554D01*
X110277962Y-105032165D01*
X110270849Y-105055614D01*
X110268447Y-105080000D01*
X110270849Y-105104386D01*
X110277962Y-105127835D01*
X110289513Y-105149446D01*
X110305058Y-105168387D01*
X110324000Y-105183933D01*
X110345611Y-105195484D01*
X110420995Y-105226709D01*
X110465224Y-105256262D01*
X110511242Y-105287010D01*
X110587990Y-105363758D01*
X110587991Y-105363760D01*
X110648291Y-105454005D01*
X110689826Y-105554279D01*
X110711000Y-105660730D01*
X110711000Y-105769270D01*
X110689826Y-105875721D01*
X110648291Y-105975995D01*
X110648290Y-105975996D01*
X110587990Y-106066242D01*
X110511242Y-106142990D01*
X110465812Y-106173345D01*
X110420995Y-106203291D01*
X110345611Y-106234516D01*
X110324000Y-106246067D01*
X110305059Y-106261612D01*
X110289513Y-106280554D01*
X110277962Y-106302165D01*
X110270849Y-106325614D01*
X110268447Y-106350000D01*
X110270849Y-106374386D01*
X110277962Y-106397835D01*
X110289513Y-106419446D01*
X110305058Y-106438387D01*
X110324000Y-106453933D01*
X110345611Y-106465484D01*
X110420995Y-106496709D01*
X110453088Y-106518153D01*
X110511242Y-106557010D01*
X110587990Y-106633758D01*
X110587991Y-106633760D01*
X110648291Y-106724005D01*
X110689826Y-106824279D01*
X110711000Y-106930730D01*
X110711000Y-107039270D01*
X110689826Y-107145721D01*
X110648291Y-107245995D01*
X110648290Y-107245996D01*
X110587990Y-107336242D01*
X110511242Y-107412990D01*
X110498425Y-107421554D01*
X110420995Y-107473291D01*
X110320721Y-107514826D01*
X110214270Y-107536000D01*
X110105730Y-107536000D01*
X109999279Y-107514826D01*
X109899005Y-107473291D01*
X109821575Y-107421554D01*
X109808758Y-107412990D01*
X109732010Y-107336242D01*
X109671710Y-107245996D01*
X109671709Y-107245995D01*
X109630174Y-107145721D01*
X109609000Y-107039270D01*
X109609000Y-106930730D01*
X109630174Y-106824279D01*
X109671709Y-106724005D01*
X109732009Y-106633760D01*
X109732010Y-106633758D01*
X109808758Y-106557010D01*
X109866912Y-106518153D01*
X109899005Y-106496709D01*
X109974389Y-106465484D01*
X109996000Y-106453933D01*
X110014941Y-106438388D01*
X110030487Y-106419446D01*
X110042038Y-106397835D01*
X110049151Y-106374386D01*
X110051553Y-106350000D01*
X110049151Y-106325614D01*
X110042038Y-106302165D01*
X110030487Y-106280554D01*
X110014942Y-106261613D01*
X109996000Y-106246067D01*
X109974389Y-106234516D01*
X109899005Y-106203291D01*
X109854188Y-106173345D01*
X109808758Y-106142990D01*
X109732010Y-106066242D01*
X109671710Y-105975996D01*
X109671709Y-105975995D01*
X109630174Y-105875721D01*
X109609000Y-105769270D01*
X109609000Y-105660730D01*
X109630174Y-105554279D01*
X109671709Y-105454005D01*
X109732009Y-105363760D01*
X109732010Y-105363758D01*
X109808758Y-105287010D01*
X109854776Y-105256262D01*
X109899005Y-105226709D01*
X109974389Y-105195484D01*
X109996000Y-105183933D01*
X110014941Y-105168388D01*
X110030487Y-105149446D01*
X110042038Y-105127835D01*
X110049151Y-105104386D01*
X110051553Y-105080000D01*
X110049151Y-105055614D01*
X110042038Y-105032165D01*
X110030487Y-105010554D01*
X110014942Y-104991613D01*
X109996000Y-104976067D01*
X109974389Y-104964516D01*
X109899005Y-104933291D01*
X109854188Y-104903345D01*
X109808758Y-104872990D01*
X109732010Y-104796242D01*
X109671710Y-104705996D01*
X109671709Y-104705995D01*
X109630174Y-104605721D01*
X109609000Y-104499270D01*
X109609000Y-104390730D01*
X109630174Y-104284279D01*
X109671709Y-104184005D01*
X109724594Y-104104857D01*
X109732010Y-104093758D01*
X109808758Y-104017010D01*
X109854188Y-103986655D01*
X109899005Y-103956709D01*
X109974389Y-103925484D01*
X109996000Y-103913933D01*
X110014941Y-103898388D01*
X110030487Y-103879446D01*
X110042038Y-103857835D01*
X110049151Y-103834386D01*
X110051553Y-103810000D01*
X110049151Y-103785614D01*
X110042038Y-103762165D01*
X110030487Y-103740554D01*
X110014942Y-103721613D01*
X109996000Y-103706067D01*
X109974389Y-103694516D01*
X109899005Y-103663291D01*
X109832765Y-103619031D01*
X109808758Y-103602990D01*
X109732010Y-103526242D01*
X109679478Y-103447622D01*
X109671709Y-103435995D01*
X109630174Y-103335721D01*
X109609000Y-103229270D01*
X109609000Y-103120730D01*
X109630174Y-103014279D01*
X109671709Y-102914005D01*
X109715800Y-102848018D01*
X109732010Y-102823758D01*
X109808758Y-102747010D01*
X109899004Y-102686710D01*
X109899005Y-102686709D01*
X109999279Y-102645174D01*
X110105730Y-102624000D01*
X110214270Y-102624000D01*
X110320721Y-102645174D01*
G37*
G36*
X102864499Y-106463445D02*
G01*
X102901995Y-106474820D01*
X102936554Y-106493292D01*
X102966847Y-106518153D01*
X102991708Y-106548446D01*
X103010180Y-106583005D01*
X103021555Y-106620501D01*
X103026000Y-106665638D01*
X103026000Y-107304362D01*
X103021555Y-107349499D01*
X103010180Y-107386995D01*
X102991708Y-107421554D01*
X102966847Y-107451847D01*
X102936554Y-107476708D01*
X102901995Y-107495180D01*
X102864499Y-107506555D01*
X102819362Y-107511000D01*
X102080638Y-107511000D01*
X102035501Y-107506555D01*
X101998005Y-107495180D01*
X101963446Y-107476708D01*
X101933153Y-107451847D01*
X101908292Y-107421554D01*
X101889820Y-107386995D01*
X101878445Y-107349499D01*
X101874000Y-107304362D01*
X101874000Y-106665638D01*
X101878445Y-106620501D01*
X101889820Y-106583005D01*
X101908292Y-106548446D01*
X101933153Y-106518153D01*
X101963446Y-106493292D01*
X101998005Y-106474820D01*
X102035501Y-106463445D01*
X102080638Y-106459000D01*
X102819362Y-106459000D01*
X102864499Y-106463445D01*
G37*
G36*
X99689499Y-106463445D02*
G01*
X99726995Y-106474820D01*
X99761554Y-106493292D01*
X99791847Y-106518153D01*
X99816708Y-106548446D01*
X99835180Y-106583005D01*
X99846555Y-106620501D01*
X99851000Y-106665638D01*
X99851000Y-107304362D01*
X99846555Y-107349499D01*
X99835180Y-107386995D01*
X99816708Y-107421554D01*
X99791847Y-107451847D01*
X99761554Y-107476708D01*
X99726995Y-107495180D01*
X99689499Y-107506555D01*
X99644362Y-107511000D01*
X98905638Y-107511000D01*
X98860501Y-107506555D01*
X98823005Y-107495180D01*
X98788446Y-107476708D01*
X98758153Y-107451847D01*
X98733292Y-107421554D01*
X98714820Y-107386995D01*
X98703445Y-107349499D01*
X98699000Y-107304362D01*
X98699000Y-106665638D01*
X98703445Y-106620501D01*
X98714820Y-106583005D01*
X98733292Y-106548446D01*
X98758153Y-106518153D01*
X98788446Y-106493292D01*
X98823005Y-106474820D01*
X98860501Y-106463445D01*
X98905638Y-106459000D01*
X99644362Y-106459000D01*
X99689499Y-106463445D01*
G37*
G36*
X104614499Y-106463445D02*
G01*
X104651995Y-106474820D01*
X104686554Y-106493292D01*
X104716847Y-106518153D01*
X104741708Y-106548446D01*
X104760180Y-106583005D01*
X104771555Y-106620501D01*
X104776000Y-106665638D01*
X104776000Y-107304362D01*
X104771555Y-107349499D01*
X104760180Y-107386995D01*
X104741708Y-107421554D01*
X104716847Y-107451847D01*
X104686554Y-107476708D01*
X104651995Y-107495180D01*
X104614499Y-107506555D01*
X104569362Y-107511000D01*
X103830638Y-107511000D01*
X103785501Y-107506555D01*
X103748005Y-107495180D01*
X103713446Y-107476708D01*
X103683153Y-107451847D01*
X103658292Y-107421554D01*
X103639820Y-107386995D01*
X103628445Y-107349499D01*
X103624000Y-107304362D01*
X103624000Y-106665638D01*
X103628445Y-106620501D01*
X103639820Y-106583005D01*
X103658292Y-106548446D01*
X103683153Y-106518153D01*
X103713446Y-106493292D01*
X103748005Y-106474820D01*
X103785501Y-106463445D01*
X103830638Y-106459000D01*
X104569362Y-106459000D01*
X104614499Y-106463445D01*
G37*
G36*
X101439499Y-106463445D02*
G01*
X101476995Y-106474820D01*
X101511554Y-106493292D01*
X101541847Y-106518153D01*
X101566708Y-106548446D01*
X101585180Y-106583005D01*
X101596555Y-106620501D01*
X101601000Y-106665638D01*
X101601000Y-107304362D01*
X101596555Y-107349499D01*
X101585180Y-107386995D01*
X101566708Y-107421554D01*
X101541847Y-107451847D01*
X101511554Y-107476708D01*
X101476995Y-107495180D01*
X101439499Y-107506555D01*
X101394362Y-107511000D01*
X100655638Y-107511000D01*
X100610501Y-107506555D01*
X100573005Y-107495180D01*
X100538446Y-107476708D01*
X100508153Y-107451847D01*
X100483292Y-107421554D01*
X100464820Y-107386995D01*
X100453445Y-107349499D01*
X100449000Y-107304362D01*
X100449000Y-106665638D01*
X100453445Y-106620501D01*
X100464820Y-106583005D01*
X100483292Y-106548446D01*
X100508153Y-106518153D01*
X100538446Y-106493292D01*
X100573005Y-106474820D01*
X100610501Y-106463445D01*
X100655638Y-106459000D01*
X101394362Y-106459000D01*
X101439499Y-106463445D01*
G37*
G36*
X104745568Y-100231775D02*
G01*
X104761960Y-100236748D01*
X104777072Y-100244825D01*
X104795081Y-100259605D01*
X104834926Y-100299450D01*
X104834937Y-100299459D01*
X105754883Y-101219405D01*
X105754892Y-101219416D01*
X105794737Y-101259261D01*
X105809517Y-101277270D01*
X105817594Y-101292382D01*
X105822567Y-101308774D01*
X105824246Y-101325825D01*
X105822567Y-101342876D01*
X105817594Y-101359268D01*
X105809517Y-101374380D01*
X105794737Y-101392389D01*
X105754892Y-101432234D01*
X105754883Y-101432245D01*
X105542043Y-101645085D01*
X105542032Y-101645094D01*
X105502187Y-101684939D01*
X105484178Y-101699719D01*
X105469066Y-101707796D01*
X105452674Y-101712769D01*
X105435623Y-101714448D01*
X105418575Y-101712769D01*
X105410261Y-101710247D01*
X105386227Y-101705467D01*
X105361723Y-101705467D01*
X105337690Y-101710248D01*
X105315051Y-101719625D01*
X105294677Y-101733239D01*
X105277350Y-101750566D01*
X105263736Y-101770941D01*
X105254359Y-101793579D01*
X105249579Y-101817613D01*
X105249579Y-101842117D01*
X105254360Y-101866150D01*
X105256881Y-101874459D01*
X105258560Y-101891510D01*
X105256881Y-101908561D01*
X105251908Y-101924953D01*
X105243831Y-101940065D01*
X105229051Y-101958074D01*
X105189206Y-101997919D01*
X105189197Y-101997930D01*
X104976357Y-102210770D01*
X104976346Y-102210779D01*
X104936501Y-102250624D01*
X104918492Y-102265404D01*
X104903380Y-102273481D01*
X104886988Y-102278454D01*
X104869937Y-102280133D01*
X104852886Y-102278454D01*
X104844577Y-102275933D01*
X104820544Y-102271152D01*
X104796040Y-102271152D01*
X104772007Y-102275932D01*
X104749368Y-102285309D01*
X104728993Y-102298923D01*
X104711666Y-102316250D01*
X104698052Y-102336624D01*
X104688675Y-102359263D01*
X104683894Y-102383296D01*
X104683894Y-102407800D01*
X104688674Y-102431834D01*
X104691196Y-102440148D01*
X104692875Y-102457196D01*
X104691196Y-102474247D01*
X104686223Y-102490639D01*
X104678146Y-102505751D01*
X104663366Y-102523760D01*
X104623521Y-102563605D01*
X104623512Y-102563616D01*
X104410672Y-102776456D01*
X104410661Y-102776465D01*
X104370816Y-102816310D01*
X104352807Y-102831090D01*
X104337695Y-102839167D01*
X104321303Y-102844140D01*
X104304252Y-102845819D01*
X104287201Y-102844140D01*
X104278892Y-102841619D01*
X104254859Y-102836838D01*
X104230355Y-102836838D01*
X104206322Y-102841618D01*
X104183683Y-102850995D01*
X104163308Y-102864609D01*
X104145981Y-102881936D01*
X104132367Y-102902310D01*
X104122990Y-102924949D01*
X104118209Y-102948982D01*
X104118209Y-102973486D01*
X104122990Y-102997521D01*
X104125511Y-103005830D01*
X104127190Y-103022881D01*
X104125511Y-103039932D01*
X104120538Y-103056324D01*
X104112461Y-103071436D01*
X104097681Y-103089445D01*
X104057836Y-103129290D01*
X104057827Y-103129301D01*
X103844987Y-103342141D01*
X103844976Y-103342150D01*
X103805131Y-103381995D01*
X103787122Y-103396775D01*
X103772010Y-103404852D01*
X103755618Y-103409825D01*
X103738567Y-103411504D01*
X103721519Y-103409825D01*
X103713205Y-103407303D01*
X103689171Y-103402523D01*
X103664667Y-103402523D01*
X103640634Y-103407304D01*
X103617995Y-103416681D01*
X103597621Y-103430295D01*
X103580294Y-103447622D01*
X103566680Y-103467997D01*
X103557303Y-103490635D01*
X103552523Y-103514669D01*
X103552523Y-103539173D01*
X103557303Y-103563205D01*
X103559825Y-103571519D01*
X103561504Y-103588567D01*
X103559825Y-103605618D01*
X103554852Y-103622010D01*
X103546775Y-103637122D01*
X103531995Y-103655131D01*
X103492150Y-103694976D01*
X103492141Y-103694987D01*
X103279301Y-103907827D01*
X103279290Y-103907836D01*
X103239445Y-103947681D01*
X103221436Y-103962461D01*
X103206324Y-103970538D01*
X103189932Y-103975511D01*
X103172881Y-103977190D01*
X103155830Y-103975511D01*
X103147521Y-103972990D01*
X103123488Y-103968209D01*
X103098984Y-103968209D01*
X103074951Y-103972989D01*
X103052312Y-103982366D01*
X103031937Y-103995980D01*
X103014610Y-104013307D01*
X103000996Y-104033681D01*
X102991619Y-104056320D01*
X102986838Y-104080353D01*
X102986838Y-104104857D01*
X102991619Y-104128892D01*
X102994140Y-104137201D01*
X102995819Y-104154252D01*
X102994140Y-104171303D01*
X102989167Y-104187695D01*
X102981090Y-104202807D01*
X102966310Y-104220816D01*
X102926465Y-104260661D01*
X102926456Y-104260672D01*
X102713616Y-104473512D01*
X102713605Y-104473521D01*
X102673760Y-104513366D01*
X102655751Y-104528146D01*
X102640639Y-104536223D01*
X102624247Y-104541196D01*
X102607196Y-104542875D01*
X102590148Y-104541196D01*
X102581834Y-104538674D01*
X102557800Y-104533894D01*
X102533296Y-104533894D01*
X102509263Y-104538675D01*
X102486624Y-104548052D01*
X102466250Y-104561666D01*
X102448923Y-104578993D01*
X102435309Y-104599368D01*
X102425932Y-104622006D01*
X102421152Y-104646040D01*
X102421152Y-104670544D01*
X102425933Y-104694577D01*
X102428454Y-104702886D01*
X102430133Y-104719937D01*
X102428454Y-104736988D01*
X102423481Y-104753380D01*
X102415404Y-104768492D01*
X102400624Y-104786501D01*
X102360779Y-104826346D01*
X102360770Y-104826357D01*
X102147930Y-105039197D01*
X102147919Y-105039206D01*
X102108074Y-105079051D01*
X102090065Y-105093831D01*
X102074953Y-105101908D01*
X102058561Y-105106881D01*
X102041510Y-105108560D01*
X102024459Y-105106881D01*
X102016150Y-105104360D01*
X101992117Y-105099579D01*
X101967613Y-105099579D01*
X101943580Y-105104359D01*
X101920941Y-105113736D01*
X101900566Y-105127350D01*
X101883239Y-105144677D01*
X101869625Y-105165051D01*
X101860248Y-105187690D01*
X101855467Y-105211723D01*
X101855467Y-105236227D01*
X101860247Y-105260261D01*
X101862769Y-105268575D01*
X101864448Y-105285623D01*
X101862769Y-105302674D01*
X101857796Y-105319066D01*
X101849719Y-105334178D01*
X101834939Y-105352187D01*
X101795094Y-105392032D01*
X101795085Y-105392043D01*
X101582245Y-105604883D01*
X101582234Y-105604892D01*
X101542389Y-105644737D01*
X101524380Y-105659517D01*
X101509268Y-105667594D01*
X101492876Y-105672567D01*
X101475825Y-105674246D01*
X101458774Y-105672567D01*
X101442382Y-105667594D01*
X101427270Y-105659517D01*
X101409261Y-105644737D01*
X101369416Y-105604892D01*
X101369405Y-105604883D01*
X100449459Y-104684937D01*
X100449450Y-104684926D01*
X100409605Y-104645081D01*
X100394825Y-104627072D01*
X100386748Y-104611960D01*
X100381775Y-104595568D01*
X100380096Y-104578517D01*
X100381775Y-104561466D01*
X100386748Y-104545074D01*
X100394825Y-104529962D01*
X100409605Y-104511953D01*
X100449450Y-104472108D01*
X100449459Y-104472097D01*
X100662299Y-104259257D01*
X100662310Y-104259248D01*
X100702155Y-104219403D01*
X100720164Y-104204623D01*
X100735276Y-104196546D01*
X100751668Y-104191573D01*
X100768719Y-104189894D01*
X100785770Y-104191573D01*
X100794079Y-104194094D01*
X100818112Y-104198875D01*
X100842616Y-104198875D01*
X100866649Y-104194095D01*
X100889288Y-104184718D01*
X100909663Y-104171104D01*
X100926990Y-104153777D01*
X100940604Y-104133403D01*
X100949981Y-104110764D01*
X100954762Y-104086731D01*
X100954762Y-104062227D01*
X100949982Y-104038193D01*
X100947460Y-104029879D01*
X100945781Y-104012831D01*
X100947460Y-103995780D01*
X100952433Y-103979388D01*
X100960510Y-103964276D01*
X100975290Y-103946267D01*
X101015135Y-103906422D01*
X101015144Y-103906411D01*
X101227984Y-103693571D01*
X101227995Y-103693562D01*
X101267840Y-103653717D01*
X101285849Y-103638937D01*
X101300961Y-103630860D01*
X101317353Y-103625887D01*
X101334404Y-103624208D01*
X101351452Y-103625887D01*
X101359766Y-103628409D01*
X101383800Y-103633189D01*
X101408304Y-103633189D01*
X101432337Y-103628408D01*
X101454976Y-103619031D01*
X101475350Y-103605417D01*
X101492677Y-103588090D01*
X101506291Y-103567715D01*
X101515668Y-103545077D01*
X101520448Y-103521043D01*
X101520448Y-103496539D01*
X101515667Y-103472506D01*
X101513146Y-103464197D01*
X101511467Y-103447146D01*
X101513146Y-103430095D01*
X101518119Y-103413703D01*
X101526196Y-103398591D01*
X101540976Y-103380582D01*
X101580821Y-103340737D01*
X101580830Y-103340726D01*
X101793670Y-103127886D01*
X101793681Y-103127877D01*
X101833526Y-103088032D01*
X101851535Y-103073252D01*
X101866647Y-103065175D01*
X101883039Y-103060202D01*
X101900090Y-103058523D01*
X101917141Y-103060202D01*
X101925450Y-103062723D01*
X101949483Y-103067504D01*
X101973987Y-103067504D01*
X101998020Y-103062724D01*
X102020659Y-103053347D01*
X102041034Y-103039733D01*
X102058361Y-103022406D01*
X102071975Y-103002032D01*
X102081352Y-102979393D01*
X102086133Y-102955360D01*
X102086133Y-102930856D01*
X102081352Y-102906821D01*
X102078831Y-102898512D01*
X102077152Y-102881461D01*
X102078831Y-102864410D01*
X102083804Y-102848018D01*
X102091881Y-102832906D01*
X102106661Y-102814897D01*
X102146506Y-102775052D01*
X102146515Y-102775041D01*
X102359355Y-102562201D01*
X102359366Y-102562192D01*
X102399211Y-102522347D01*
X102417220Y-102507567D01*
X102432332Y-102499490D01*
X102448724Y-102494517D01*
X102465775Y-102492838D01*
X102482823Y-102494517D01*
X102491137Y-102497039D01*
X102515171Y-102501819D01*
X102539675Y-102501819D01*
X102563708Y-102497038D01*
X102586347Y-102487661D01*
X102606721Y-102474047D01*
X102624048Y-102456720D01*
X102637662Y-102436345D01*
X102647039Y-102413707D01*
X102651819Y-102389673D01*
X102651819Y-102365169D01*
X102647039Y-102341137D01*
X102644517Y-102332823D01*
X102642838Y-102315775D01*
X102644517Y-102298724D01*
X102649490Y-102282332D01*
X102657567Y-102267220D01*
X102672347Y-102249211D01*
X102712192Y-102209366D01*
X102712201Y-102209355D01*
X102925041Y-101996515D01*
X102925052Y-101996506D01*
X102964897Y-101956661D01*
X102982906Y-101941881D01*
X102998018Y-101933804D01*
X103014410Y-101928831D01*
X103031461Y-101927152D01*
X103048512Y-101928831D01*
X103056821Y-101931352D01*
X103080854Y-101936133D01*
X103105358Y-101936133D01*
X103129391Y-101931353D01*
X103152030Y-101921976D01*
X103172405Y-101908362D01*
X103189732Y-101891035D01*
X103203346Y-101870661D01*
X103212723Y-101848022D01*
X103217504Y-101823989D01*
X103217504Y-101799485D01*
X103212723Y-101775450D01*
X103210202Y-101767141D01*
X103208523Y-101750090D01*
X103210202Y-101733039D01*
X103215175Y-101716647D01*
X103223252Y-101701535D01*
X103238032Y-101683526D01*
X103277877Y-101643681D01*
X103277886Y-101643670D01*
X103490726Y-101430830D01*
X103490737Y-101430821D01*
X103530582Y-101390976D01*
X103548591Y-101376196D01*
X103563703Y-101368119D01*
X103580095Y-101363146D01*
X103597146Y-101361467D01*
X103614197Y-101363146D01*
X103622506Y-101365667D01*
X103646539Y-101370448D01*
X103671043Y-101370448D01*
X103695076Y-101365668D01*
X103717715Y-101356291D01*
X103738090Y-101342677D01*
X103755417Y-101325350D01*
X103769031Y-101304976D01*
X103778408Y-101282337D01*
X103783189Y-101258304D01*
X103783189Y-101233800D01*
X103778409Y-101209766D01*
X103775887Y-101201452D01*
X103774208Y-101184404D01*
X103775887Y-101167353D01*
X103780860Y-101150961D01*
X103788937Y-101135849D01*
X103803717Y-101117840D01*
X103843562Y-101077995D01*
X103843571Y-101077984D01*
X104056411Y-100865144D01*
X104056422Y-100865135D01*
X104096267Y-100825290D01*
X104114276Y-100810510D01*
X104129388Y-100802433D01*
X104145780Y-100797460D01*
X104162831Y-100795781D01*
X104179879Y-100797460D01*
X104188193Y-100799982D01*
X104212227Y-100804762D01*
X104236731Y-100804762D01*
X104260764Y-100799981D01*
X104283403Y-100790604D01*
X104303777Y-100776990D01*
X104321104Y-100759663D01*
X104334718Y-100739288D01*
X104344095Y-100716650D01*
X104348875Y-100692616D01*
X104348875Y-100668112D01*
X104344094Y-100644079D01*
X104341573Y-100635770D01*
X104339894Y-100618719D01*
X104341573Y-100601668D01*
X104346546Y-100585276D01*
X104354623Y-100570164D01*
X104369403Y-100552155D01*
X104409248Y-100512310D01*
X104409257Y-100512299D01*
X104622097Y-100299459D01*
X104622108Y-100299450D01*
X104661953Y-100259605D01*
X104679962Y-100244825D01*
X104695074Y-100236748D01*
X104711466Y-100231775D01*
X104728517Y-100230096D01*
X104745568Y-100231775D01*
G37*
G36*
X95588534Y-100231775D02*
G01*
X95604926Y-100236748D01*
X95620038Y-100244825D01*
X95638047Y-100259605D01*
X95677892Y-100299450D01*
X95677903Y-100299459D01*
X95890743Y-100512299D01*
X95890752Y-100512310D01*
X95930597Y-100552155D01*
X95945377Y-100570164D01*
X95953454Y-100585276D01*
X95958427Y-100601668D01*
X95960106Y-100618719D01*
X95958427Y-100635770D01*
X95955906Y-100644079D01*
X95951125Y-100668112D01*
X95951125Y-100692616D01*
X95955905Y-100716649D01*
X95965282Y-100739288D01*
X95978896Y-100759663D01*
X95996223Y-100776990D01*
X96016597Y-100790604D01*
X96039236Y-100799981D01*
X96063269Y-100804762D01*
X96087773Y-100804762D01*
X96111807Y-100799982D01*
X96120121Y-100797460D01*
X96137169Y-100795781D01*
X96154220Y-100797460D01*
X96170612Y-100802433D01*
X96185724Y-100810510D01*
X96203733Y-100825290D01*
X96243578Y-100865135D01*
X96243589Y-100865144D01*
X96456429Y-101077984D01*
X96456438Y-101077995D01*
X96496283Y-101117840D01*
X96511063Y-101135849D01*
X96519140Y-101150961D01*
X96524113Y-101167353D01*
X96525792Y-101184404D01*
X96524113Y-101201452D01*
X96521591Y-101209766D01*
X96516811Y-101233800D01*
X96516811Y-101258304D01*
X96521592Y-101282337D01*
X96530969Y-101304976D01*
X96544583Y-101325350D01*
X96561910Y-101342677D01*
X96582285Y-101356291D01*
X96604923Y-101365668D01*
X96628957Y-101370448D01*
X96653461Y-101370448D01*
X96677494Y-101365667D01*
X96685803Y-101363146D01*
X96702854Y-101361467D01*
X96719905Y-101363146D01*
X96736297Y-101368119D01*
X96751409Y-101376196D01*
X96769418Y-101390976D01*
X96809263Y-101430821D01*
X96809274Y-101430830D01*
X97022114Y-101643670D01*
X97022123Y-101643681D01*
X97061968Y-101683526D01*
X97076748Y-101701535D01*
X97084825Y-101716647D01*
X97089798Y-101733039D01*
X97091477Y-101750090D01*
X97089798Y-101767141D01*
X97087277Y-101775450D01*
X97082496Y-101799483D01*
X97082496Y-101823987D01*
X97087276Y-101848020D01*
X97096653Y-101870659D01*
X97110267Y-101891034D01*
X97127594Y-101908361D01*
X97147968Y-101921975D01*
X97170607Y-101931352D01*
X97194640Y-101936133D01*
X97219144Y-101936133D01*
X97243179Y-101931352D01*
X97251488Y-101928831D01*
X97268539Y-101927152D01*
X97285590Y-101928831D01*
X97301982Y-101933804D01*
X97317094Y-101941881D01*
X97335103Y-101956661D01*
X97374948Y-101996506D01*
X97374959Y-101996515D01*
X97587799Y-102209355D01*
X97587808Y-102209366D01*
X97627653Y-102249211D01*
X97642433Y-102267220D01*
X97650510Y-102282332D01*
X97655483Y-102298724D01*
X97657162Y-102315775D01*
X97655483Y-102332823D01*
X97652961Y-102341137D01*
X97648181Y-102365171D01*
X97648181Y-102389675D01*
X97652962Y-102413708D01*
X97662339Y-102436347D01*
X97675953Y-102456721D01*
X97693280Y-102474048D01*
X97713655Y-102487662D01*
X97736293Y-102497039D01*
X97760327Y-102501819D01*
X97784831Y-102501819D01*
X97808863Y-102497039D01*
X97817177Y-102494517D01*
X97834225Y-102492838D01*
X97851276Y-102494517D01*
X97867668Y-102499490D01*
X97882780Y-102507567D01*
X97900789Y-102522347D01*
X97940634Y-102562192D01*
X97940645Y-102562201D01*
X98153485Y-102775041D01*
X98153494Y-102775052D01*
X98193339Y-102814897D01*
X98208119Y-102832906D01*
X98216196Y-102848018D01*
X98221169Y-102864410D01*
X98222848Y-102881461D01*
X98221169Y-102898512D01*
X98218648Y-102906821D01*
X98213867Y-102930854D01*
X98213867Y-102955358D01*
X98218647Y-102979391D01*
X98228024Y-103002030D01*
X98241638Y-103022405D01*
X98258965Y-103039732D01*
X98279339Y-103053346D01*
X98301978Y-103062723D01*
X98326011Y-103067504D01*
X98350515Y-103067504D01*
X98374550Y-103062723D01*
X98382859Y-103060202D01*
X98399910Y-103058523D01*
X98416961Y-103060202D01*
X98433353Y-103065175D01*
X98448465Y-103073252D01*
X98466474Y-103088032D01*
X98506319Y-103127877D01*
X98506330Y-103127886D01*
X98719170Y-103340726D01*
X98719179Y-103340737D01*
X98759024Y-103380582D01*
X98773804Y-103398591D01*
X98781881Y-103413703D01*
X98786854Y-103430095D01*
X98788533Y-103447146D01*
X98786854Y-103464197D01*
X98784333Y-103472506D01*
X98779552Y-103496539D01*
X98779552Y-103521043D01*
X98784332Y-103545076D01*
X98793709Y-103567715D01*
X98807323Y-103588090D01*
X98824650Y-103605417D01*
X98845024Y-103619031D01*
X98867663Y-103628408D01*
X98891696Y-103633189D01*
X98916200Y-103633189D01*
X98940234Y-103628409D01*
X98948548Y-103625887D01*
X98965596Y-103624208D01*
X98982647Y-103625887D01*
X98999039Y-103630860D01*
X99014151Y-103638937D01*
X99032160Y-103653717D01*
X99072005Y-103693562D01*
X99072016Y-103693571D01*
X99284856Y-103906411D01*
X99284865Y-103906422D01*
X99324710Y-103946267D01*
X99339490Y-103964276D01*
X99347567Y-103979388D01*
X99352540Y-103995780D01*
X99354219Y-104012831D01*
X99352540Y-104029879D01*
X99350018Y-104038193D01*
X99345238Y-104062227D01*
X99345238Y-104086731D01*
X99350019Y-104110764D01*
X99359396Y-104133403D01*
X99373010Y-104153777D01*
X99390337Y-104171104D01*
X99410712Y-104184718D01*
X99433350Y-104194095D01*
X99457384Y-104198875D01*
X99481888Y-104198875D01*
X99505921Y-104194094D01*
X99514230Y-104191573D01*
X99531281Y-104189894D01*
X99548332Y-104191573D01*
X99564724Y-104196546D01*
X99579836Y-104204623D01*
X99597845Y-104219403D01*
X99637690Y-104259248D01*
X99637701Y-104259257D01*
X99850541Y-104472097D01*
X99850550Y-104472108D01*
X99890395Y-104511953D01*
X99905175Y-104529962D01*
X99913252Y-104545074D01*
X99918225Y-104561466D01*
X99919904Y-104578517D01*
X99918225Y-104595568D01*
X99913252Y-104611960D01*
X99905175Y-104627072D01*
X99890395Y-104645081D01*
X99850550Y-104684926D01*
X99850541Y-104684937D01*
X98930595Y-105604883D01*
X98930584Y-105604892D01*
X98890739Y-105644737D01*
X98872730Y-105659517D01*
X98857618Y-105667594D01*
X98841226Y-105672567D01*
X98824175Y-105674246D01*
X98807124Y-105672567D01*
X98790732Y-105667594D01*
X98775620Y-105659517D01*
X98757611Y-105644737D01*
X98717766Y-105604892D01*
X98717755Y-105604883D01*
X98504915Y-105392043D01*
X98504906Y-105392032D01*
X98465061Y-105352187D01*
X98450281Y-105334178D01*
X98442204Y-105319066D01*
X98437231Y-105302674D01*
X98435552Y-105285623D01*
X98437231Y-105268575D01*
X98439753Y-105260261D01*
X98444533Y-105236227D01*
X98444533Y-105211723D01*
X98439752Y-105187690D01*
X98430375Y-105165051D01*
X98416761Y-105144677D01*
X98399434Y-105127350D01*
X98379059Y-105113736D01*
X98356421Y-105104359D01*
X98332387Y-105099579D01*
X98307883Y-105099579D01*
X98283850Y-105104360D01*
X98275541Y-105106881D01*
X98258490Y-105108560D01*
X98241439Y-105106881D01*
X98225047Y-105101908D01*
X98209935Y-105093831D01*
X98191926Y-105079051D01*
X98152081Y-105039206D01*
X98152070Y-105039197D01*
X97939230Y-104826357D01*
X97939221Y-104826346D01*
X97899376Y-104786501D01*
X97884596Y-104768492D01*
X97876519Y-104753380D01*
X97871546Y-104736988D01*
X97869867Y-104719937D01*
X97871546Y-104702886D01*
X97874067Y-104694577D01*
X97878848Y-104670544D01*
X97878848Y-104646040D01*
X97874068Y-104622007D01*
X97864691Y-104599368D01*
X97851077Y-104578993D01*
X97833750Y-104561666D01*
X97813376Y-104548052D01*
X97790737Y-104538675D01*
X97766704Y-104533894D01*
X97742200Y-104533894D01*
X97718166Y-104538674D01*
X97709852Y-104541196D01*
X97692804Y-104542875D01*
X97675753Y-104541196D01*
X97659361Y-104536223D01*
X97644249Y-104528146D01*
X97626240Y-104513366D01*
X97586395Y-104473521D01*
X97586384Y-104473512D01*
X97373544Y-104260672D01*
X97373535Y-104260661D01*
X97333690Y-104220816D01*
X97318910Y-104202807D01*
X97310833Y-104187695D01*
X97305860Y-104171303D01*
X97304181Y-104154252D01*
X97305860Y-104137201D01*
X97308381Y-104128892D01*
X97313162Y-104104859D01*
X97313162Y-104080355D01*
X97308382Y-104056322D01*
X97299005Y-104033683D01*
X97285391Y-104013308D01*
X97268064Y-103995981D01*
X97247690Y-103982367D01*
X97225051Y-103972990D01*
X97201018Y-103968209D01*
X97176514Y-103968209D01*
X97152479Y-103972990D01*
X97144170Y-103975511D01*
X97127119Y-103977190D01*
X97110068Y-103975511D01*
X97093676Y-103970538D01*
X97078564Y-103962461D01*
X97060555Y-103947681D01*
X97020710Y-103907836D01*
X97020699Y-103907827D01*
X96807859Y-103694987D01*
X96807850Y-103694976D01*
X96768005Y-103655131D01*
X96753225Y-103637122D01*
X96745148Y-103622010D01*
X96740175Y-103605618D01*
X96738496Y-103588567D01*
X96740175Y-103571519D01*
X96742697Y-103563205D01*
X96747477Y-103539171D01*
X96747477Y-103514667D01*
X96742696Y-103490634D01*
X96733319Y-103467995D01*
X96719705Y-103447621D01*
X96702378Y-103430294D01*
X96682003Y-103416680D01*
X96659365Y-103407303D01*
X96635331Y-103402523D01*
X96610827Y-103402523D01*
X96586795Y-103407303D01*
X96578481Y-103409825D01*
X96561433Y-103411504D01*
X96544382Y-103409825D01*
X96527990Y-103404852D01*
X96512878Y-103396775D01*
X96494869Y-103381995D01*
X96455024Y-103342150D01*
X96455013Y-103342141D01*
X96242173Y-103129301D01*
X96242164Y-103129290D01*
X96202319Y-103089445D01*
X96187539Y-103071436D01*
X96179462Y-103056324D01*
X96174489Y-103039932D01*
X96172810Y-103022881D01*
X96174489Y-103005830D01*
X96177010Y-102997521D01*
X96181791Y-102973488D01*
X96181791Y-102948984D01*
X96177011Y-102924951D01*
X96167634Y-102902312D01*
X96154020Y-102881937D01*
X96136693Y-102864610D01*
X96116319Y-102850996D01*
X96093680Y-102841619D01*
X96069647Y-102836838D01*
X96045143Y-102836838D01*
X96021108Y-102841619D01*
X96012799Y-102844140D01*
X95995748Y-102845819D01*
X95978697Y-102844140D01*
X95962305Y-102839167D01*
X95947193Y-102831090D01*
X95929184Y-102816310D01*
X95889339Y-102776465D01*
X95889328Y-102776456D01*
X95676488Y-102563616D01*
X95676479Y-102563605D01*
X95636634Y-102523760D01*
X95621854Y-102505751D01*
X95613777Y-102490639D01*
X95608804Y-102474247D01*
X95607125Y-102457196D01*
X95608804Y-102440148D01*
X95611326Y-102431834D01*
X95616106Y-102407800D01*
X95616106Y-102383296D01*
X95611325Y-102359263D01*
X95601948Y-102336624D01*
X95588334Y-102316250D01*
X95571007Y-102298923D01*
X95550632Y-102285309D01*
X95527994Y-102275932D01*
X95503960Y-102271152D01*
X95479456Y-102271152D01*
X95455423Y-102275933D01*
X95447114Y-102278454D01*
X95430063Y-102280133D01*
X95413012Y-102278454D01*
X95396620Y-102273481D01*
X95381508Y-102265404D01*
X95363499Y-102250624D01*
X95323654Y-102210779D01*
X95323643Y-102210770D01*
X95110803Y-101997930D01*
X95110794Y-101997919D01*
X95070949Y-101958074D01*
X95056169Y-101940065D01*
X95048092Y-101924953D01*
X95043119Y-101908561D01*
X95041440Y-101891510D01*
X95043119Y-101874459D01*
X95045640Y-101866150D01*
X95050421Y-101842117D01*
X95050421Y-101817613D01*
X95045641Y-101793580D01*
X95036264Y-101770941D01*
X95022650Y-101750566D01*
X95005323Y-101733239D01*
X94984949Y-101719625D01*
X94962310Y-101710248D01*
X94938277Y-101705467D01*
X94913773Y-101705467D01*
X94889739Y-101710247D01*
X94881425Y-101712769D01*
X94864377Y-101714448D01*
X94847326Y-101712769D01*
X94830934Y-101707796D01*
X94815822Y-101699719D01*
X94797813Y-101684939D01*
X94757968Y-101645094D01*
X94757957Y-101645085D01*
X94545117Y-101432245D01*
X94545108Y-101432234D01*
X94505263Y-101392389D01*
X94490483Y-101374380D01*
X94482406Y-101359268D01*
X94477433Y-101342876D01*
X94475754Y-101325825D01*
X94477433Y-101308774D01*
X94482406Y-101292382D01*
X94490483Y-101277270D01*
X94505263Y-101259261D01*
X94545108Y-101219416D01*
X94545117Y-101219405D01*
X95465063Y-100299459D01*
X95465074Y-100299450D01*
X95504919Y-100259605D01*
X95522928Y-100244825D01*
X95538040Y-100236748D01*
X95554432Y-100231775D01*
X95571483Y-100230096D01*
X95588534Y-100231775D01*
G37*
G36*
X110955721Y-97565174D02*
G01*
X111055995Y-97606709D01*
X111085490Y-97626417D01*
X111146242Y-97667010D01*
X111222990Y-97743758D01*
X111240868Y-97770514D01*
X111283291Y-97834005D01*
X111324826Y-97934279D01*
X111346000Y-98040730D01*
X111346000Y-98149270D01*
X111324826Y-98255721D01*
X111283291Y-98355995D01*
X111283290Y-98355996D01*
X111222990Y-98446242D01*
X111146242Y-98522990D01*
X111107315Y-98549000D01*
X111055995Y-98583291D01*
X110980611Y-98614516D01*
X110959000Y-98626067D01*
X110940059Y-98641612D01*
X110924513Y-98660554D01*
X110912962Y-98682165D01*
X110905849Y-98705614D01*
X110903447Y-98730000D01*
X110905849Y-98754386D01*
X110912962Y-98777835D01*
X110924513Y-98799446D01*
X110940058Y-98818387D01*
X110959000Y-98833933D01*
X110980611Y-98845484D01*
X111055995Y-98876709D01*
X111100812Y-98906655D01*
X111146242Y-98937010D01*
X111222990Y-99013758D01*
X111222991Y-99013760D01*
X111283291Y-99104005D01*
X111324826Y-99204279D01*
X111346000Y-99310730D01*
X111346000Y-99419270D01*
X111324826Y-99525721D01*
X111283291Y-99625995D01*
X111283290Y-99625996D01*
X111222990Y-99716242D01*
X111146242Y-99792990D01*
X111100812Y-99823345D01*
X111055995Y-99853291D01*
X110980611Y-99884516D01*
X110959000Y-99896067D01*
X110940059Y-99911612D01*
X110924513Y-99930554D01*
X110912962Y-99952165D01*
X110905849Y-99975614D01*
X110903447Y-100000000D01*
X110905849Y-100024386D01*
X110912962Y-100047835D01*
X110924513Y-100069446D01*
X110940058Y-100088387D01*
X110959000Y-100103933D01*
X110980611Y-100115484D01*
X111055995Y-100146709D01*
X111055996Y-100146710D01*
X111146242Y-100207010D01*
X111222990Y-100283758D01*
X111245399Y-100317296D01*
X111283291Y-100374005D01*
X111324826Y-100474279D01*
X111346000Y-100580730D01*
X111346000Y-100689270D01*
X111324826Y-100795721D01*
X111283291Y-100895995D01*
X111279614Y-100901498D01*
X111222990Y-100986242D01*
X111146242Y-101062990D01*
X111100812Y-101093345D01*
X111055995Y-101123291D01*
X110980611Y-101154516D01*
X110959000Y-101166067D01*
X110940059Y-101181612D01*
X110924513Y-101200554D01*
X110912962Y-101222165D01*
X110905849Y-101245614D01*
X110903447Y-101270000D01*
X110905849Y-101294386D01*
X110912962Y-101317835D01*
X110924513Y-101339446D01*
X110940058Y-101358387D01*
X110959000Y-101373933D01*
X110980611Y-101385484D01*
X111055995Y-101416709D01*
X111077128Y-101430830D01*
X111146242Y-101477010D01*
X111222990Y-101553758D01*
X111222991Y-101553760D01*
X111283291Y-101644005D01*
X111324826Y-101744279D01*
X111346000Y-101850730D01*
X111346000Y-101959270D01*
X111324826Y-102065721D01*
X111283291Y-102165995D01*
X111283290Y-102165996D01*
X111222990Y-102256242D01*
X111146242Y-102332990D01*
X111140803Y-102336624D01*
X111055995Y-102393291D01*
X110955721Y-102434826D01*
X110849270Y-102456000D01*
X110740730Y-102456000D01*
X110634279Y-102434826D01*
X110534005Y-102393291D01*
X110449197Y-102336624D01*
X110443758Y-102332990D01*
X110367010Y-102256242D01*
X110306710Y-102165996D01*
X110306709Y-102165995D01*
X110265174Y-102065721D01*
X110244000Y-101959270D01*
X110244000Y-101850730D01*
X110265174Y-101744279D01*
X110306709Y-101644005D01*
X110367009Y-101553760D01*
X110367010Y-101553758D01*
X110443758Y-101477010D01*
X110512872Y-101430830D01*
X110534005Y-101416709D01*
X110609389Y-101385484D01*
X110631000Y-101373933D01*
X110649941Y-101358388D01*
X110665487Y-101339446D01*
X110677038Y-101317835D01*
X110684151Y-101294386D01*
X110686553Y-101270000D01*
X110684151Y-101245614D01*
X110677038Y-101222165D01*
X110665487Y-101200554D01*
X110649942Y-101181613D01*
X110631000Y-101166067D01*
X110609389Y-101154516D01*
X110534005Y-101123291D01*
X110489188Y-101093345D01*
X110443758Y-101062990D01*
X110367010Y-100986242D01*
X110310386Y-100901498D01*
X110306709Y-100895995D01*
X110265174Y-100795721D01*
X110244000Y-100689270D01*
X110244000Y-100580730D01*
X110265174Y-100474279D01*
X110306709Y-100374005D01*
X110344601Y-100317296D01*
X110367010Y-100283758D01*
X110443758Y-100207010D01*
X110534004Y-100146710D01*
X110534005Y-100146709D01*
X110609389Y-100115484D01*
X110631000Y-100103933D01*
X110649941Y-100088388D01*
X110665487Y-100069446D01*
X110677038Y-100047835D01*
X110684151Y-100024386D01*
X110686553Y-100000000D01*
X110684151Y-99975614D01*
X110677038Y-99952165D01*
X110665487Y-99930554D01*
X110649942Y-99911613D01*
X110631000Y-99896067D01*
X110609389Y-99884516D01*
X110534005Y-99853291D01*
X110489188Y-99823345D01*
X110443758Y-99792990D01*
X110367010Y-99716242D01*
X110306710Y-99625996D01*
X110306709Y-99625995D01*
X110265174Y-99525721D01*
X110244000Y-99419270D01*
X110244000Y-99310730D01*
X110265174Y-99204279D01*
X110306709Y-99104005D01*
X110367009Y-99013760D01*
X110367010Y-99013758D01*
X110443758Y-98937010D01*
X110489188Y-98906655D01*
X110534005Y-98876709D01*
X110609389Y-98845484D01*
X110631000Y-98833933D01*
X110649941Y-98818388D01*
X110665487Y-98799446D01*
X110677038Y-98777835D01*
X110684151Y-98754386D01*
X110686553Y-98730000D01*
X110684151Y-98705614D01*
X110677038Y-98682165D01*
X110665487Y-98660554D01*
X110649942Y-98641613D01*
X110631000Y-98626067D01*
X110609389Y-98614516D01*
X110534005Y-98583291D01*
X110482685Y-98549000D01*
X110443758Y-98522990D01*
X110367010Y-98446242D01*
X110306710Y-98355996D01*
X110306709Y-98355995D01*
X110265174Y-98255721D01*
X110244000Y-98149270D01*
X110244000Y-98040730D01*
X110265174Y-97934279D01*
X110306709Y-97834005D01*
X110349132Y-97770514D01*
X110367010Y-97743758D01*
X110443758Y-97667010D01*
X110504510Y-97626417D01*
X110534005Y-97606709D01*
X110634279Y-97565174D01*
X110740730Y-97544000D01*
X110849270Y-97544000D01*
X110955721Y-97565174D01*
G37*
G36*
X89365721Y-92485174D02*
G01*
X89465995Y-92526709D01*
X89498088Y-92548153D01*
X89556242Y-92587010D01*
X89632990Y-92663758D01*
X89632991Y-92663760D01*
X89693291Y-92754005D01*
X89734826Y-92854279D01*
X89756000Y-92960730D01*
X89756000Y-93069270D01*
X89734826Y-93175721D01*
X89693291Y-93275995D01*
X89693290Y-93275996D01*
X89632990Y-93366242D01*
X89556242Y-93442990D01*
X89543425Y-93451554D01*
X89465995Y-93503291D01*
X89390611Y-93534516D01*
X89369000Y-93546067D01*
X89350059Y-93561612D01*
X89334513Y-93580554D01*
X89322962Y-93602165D01*
X89315849Y-93625614D01*
X89313447Y-93650000D01*
X89315849Y-93674386D01*
X89322962Y-93697835D01*
X89334513Y-93719446D01*
X89350058Y-93738387D01*
X89369000Y-93753933D01*
X89390611Y-93765484D01*
X89465995Y-93796709D01*
X89465996Y-93796710D01*
X89556242Y-93857010D01*
X89632990Y-93933758D01*
X89653745Y-93964820D01*
X89693291Y-94024005D01*
X89734826Y-94124279D01*
X89756000Y-94230730D01*
X89756000Y-94339270D01*
X89734826Y-94445721D01*
X89693291Y-94545995D01*
X89693290Y-94545996D01*
X89632990Y-94636242D01*
X89556242Y-94712990D01*
X89554166Y-94714377D01*
X89465995Y-94773291D01*
X89390611Y-94804516D01*
X89369000Y-94816067D01*
X89350059Y-94831612D01*
X89334513Y-94850554D01*
X89322962Y-94872165D01*
X89315849Y-94895614D01*
X89313447Y-94920000D01*
X89315849Y-94944386D01*
X89322962Y-94967835D01*
X89334513Y-94989446D01*
X89350058Y-95008387D01*
X89369000Y-95023933D01*
X89390611Y-95035484D01*
X89465995Y-95066709D01*
X89465996Y-95066710D01*
X89556242Y-95127010D01*
X89632990Y-95203758D01*
X89645492Y-95222469D01*
X89693291Y-95294005D01*
X89734826Y-95394279D01*
X89756000Y-95500730D01*
X89756000Y-95609270D01*
X89734826Y-95715721D01*
X89693291Y-95815995D01*
X89673093Y-95846223D01*
X89632990Y-95906242D01*
X89556242Y-95982990D01*
X89524768Y-96004020D01*
X89465995Y-96043291D01*
X89390611Y-96074516D01*
X89369000Y-96086067D01*
X89350059Y-96101612D01*
X89334513Y-96120554D01*
X89322962Y-96142165D01*
X89315849Y-96165614D01*
X89313447Y-96190000D01*
X89315849Y-96214386D01*
X89322962Y-96237835D01*
X89334513Y-96259446D01*
X89350058Y-96278387D01*
X89369000Y-96293933D01*
X89390611Y-96305484D01*
X89465995Y-96336709D01*
X89510812Y-96366655D01*
X89556242Y-96397010D01*
X89632990Y-96473758D01*
X89632991Y-96473760D01*
X89693291Y-96564005D01*
X89734826Y-96664279D01*
X89756000Y-96770730D01*
X89756000Y-96879270D01*
X89734826Y-96985721D01*
X89693291Y-97085995D01*
X89682939Y-97101488D01*
X89632990Y-97176242D01*
X89556242Y-97252990D01*
X89510812Y-97283345D01*
X89465995Y-97313291D01*
X89390611Y-97344516D01*
X89369000Y-97356067D01*
X89350059Y-97371612D01*
X89334513Y-97390554D01*
X89322962Y-97412165D01*
X89315849Y-97435614D01*
X89313447Y-97460000D01*
X89315849Y-97484386D01*
X89322962Y-97507835D01*
X89334513Y-97529446D01*
X89350058Y-97548387D01*
X89369000Y-97563933D01*
X89390611Y-97575484D01*
X89465995Y-97606709D01*
X89495490Y-97626417D01*
X89556242Y-97667010D01*
X89632990Y-97743758D01*
X89650868Y-97770514D01*
X89693291Y-97834005D01*
X89734826Y-97934279D01*
X89756000Y-98040730D01*
X89756000Y-98149270D01*
X89734826Y-98255721D01*
X89693291Y-98355995D01*
X89693290Y-98355996D01*
X89632990Y-98446242D01*
X89556242Y-98522990D01*
X89517315Y-98549000D01*
X89465995Y-98583291D01*
X89390611Y-98614516D01*
X89369000Y-98626067D01*
X89350059Y-98641612D01*
X89334513Y-98660554D01*
X89322962Y-98682165D01*
X89315849Y-98705614D01*
X89313447Y-98730000D01*
X89315849Y-98754386D01*
X89322962Y-98777835D01*
X89334513Y-98799446D01*
X89350058Y-98818387D01*
X89369000Y-98833933D01*
X89390611Y-98845484D01*
X89465995Y-98876709D01*
X89510812Y-98906655D01*
X89556242Y-98937010D01*
X89632990Y-99013758D01*
X89632991Y-99013760D01*
X89693291Y-99104005D01*
X89734826Y-99204279D01*
X89756000Y-99310730D01*
X89756000Y-99419270D01*
X89734826Y-99525721D01*
X89693291Y-99625995D01*
X89693290Y-99625996D01*
X89632990Y-99716242D01*
X89556242Y-99792990D01*
X89510812Y-99823345D01*
X89465995Y-99853291D01*
X89390611Y-99884516D01*
X89369000Y-99896067D01*
X89350059Y-99911612D01*
X89334513Y-99930554D01*
X89322962Y-99952165D01*
X89315849Y-99975614D01*
X89313447Y-100000000D01*
X89315849Y-100024386D01*
X89322962Y-100047835D01*
X89334513Y-100069446D01*
X89350058Y-100088387D01*
X89369000Y-100103933D01*
X89390611Y-100115484D01*
X89465995Y-100146709D01*
X89465996Y-100146710D01*
X89556242Y-100207010D01*
X89632990Y-100283758D01*
X89655399Y-100317296D01*
X89693291Y-100374005D01*
X89734826Y-100474279D01*
X89756000Y-100580730D01*
X89756000Y-100689270D01*
X89734826Y-100795721D01*
X89693291Y-100895995D01*
X89689614Y-100901498D01*
X89632990Y-100986242D01*
X89556242Y-101062990D01*
X89510812Y-101093345D01*
X89465995Y-101123291D01*
X89390611Y-101154516D01*
X89369000Y-101166067D01*
X89350059Y-101181612D01*
X89334513Y-101200554D01*
X89322962Y-101222165D01*
X89315849Y-101245614D01*
X89313447Y-101270000D01*
X89315849Y-101294386D01*
X89322962Y-101317835D01*
X89334513Y-101339446D01*
X89350058Y-101358387D01*
X89369000Y-101373933D01*
X89390611Y-101385484D01*
X89465995Y-101416709D01*
X89487128Y-101430830D01*
X89556242Y-101477010D01*
X89632990Y-101553758D01*
X89632991Y-101553760D01*
X89693291Y-101644005D01*
X89734826Y-101744279D01*
X89756000Y-101850730D01*
X89756000Y-101959270D01*
X89734826Y-102065721D01*
X89693291Y-102165995D01*
X89693290Y-102165996D01*
X89632990Y-102256242D01*
X89556242Y-102332990D01*
X89550803Y-102336624D01*
X89465995Y-102393291D01*
X89365721Y-102434826D01*
X89259270Y-102456000D01*
X89150730Y-102456000D01*
X89044279Y-102434826D01*
X88944005Y-102393291D01*
X88859197Y-102336624D01*
X88853758Y-102332990D01*
X88777010Y-102256242D01*
X88716710Y-102165996D01*
X88716709Y-102165995D01*
X88675174Y-102065721D01*
X88654000Y-101959270D01*
X88654000Y-101850730D01*
X88675174Y-101744279D01*
X88716709Y-101644005D01*
X88777009Y-101553760D01*
X88777010Y-101553758D01*
X88853758Y-101477010D01*
X88922872Y-101430830D01*
X88944005Y-101416709D01*
X89019389Y-101385484D01*
X89041000Y-101373933D01*
X89059941Y-101358388D01*
X89075487Y-101339446D01*
X89087038Y-101317835D01*
X89094151Y-101294386D01*
X89096553Y-101270000D01*
X89094151Y-101245614D01*
X89087038Y-101222165D01*
X89075487Y-101200554D01*
X89059942Y-101181613D01*
X89041000Y-101166067D01*
X89019389Y-101154516D01*
X88944005Y-101123291D01*
X88899188Y-101093345D01*
X88853758Y-101062990D01*
X88777010Y-100986242D01*
X88720386Y-100901498D01*
X88716709Y-100895995D01*
X88675174Y-100795721D01*
X88654000Y-100689270D01*
X88654000Y-100580730D01*
X88675174Y-100474279D01*
X88716709Y-100374005D01*
X88754601Y-100317296D01*
X88777010Y-100283758D01*
X88853758Y-100207010D01*
X88944004Y-100146710D01*
X88944005Y-100146709D01*
X89019389Y-100115484D01*
X89041000Y-100103933D01*
X89059941Y-100088388D01*
X89075487Y-100069446D01*
X89087038Y-100047835D01*
X89094151Y-100024386D01*
X89096553Y-100000000D01*
X89094151Y-99975614D01*
X89087038Y-99952165D01*
X89075487Y-99930554D01*
X89059942Y-99911613D01*
X89041000Y-99896067D01*
X89019389Y-99884516D01*
X88944005Y-99853291D01*
X88899188Y-99823345D01*
X88853758Y-99792990D01*
X88777010Y-99716242D01*
X88716710Y-99625996D01*
X88716709Y-99625995D01*
X88675174Y-99525721D01*
X88654000Y-99419270D01*
X88654000Y-99310730D01*
X88675174Y-99204279D01*
X88716709Y-99104005D01*
X88777009Y-99013760D01*
X88777010Y-99013758D01*
X88853758Y-98937010D01*
X88899188Y-98906655D01*
X88944005Y-98876709D01*
X89019389Y-98845484D01*
X89041000Y-98833933D01*
X89059941Y-98818388D01*
X89075487Y-98799446D01*
X89087038Y-98777835D01*
X89094151Y-98754386D01*
X89096553Y-98730000D01*
X89094151Y-98705614D01*
X89087038Y-98682165D01*
X89075487Y-98660554D01*
X89059942Y-98641613D01*
X89041000Y-98626067D01*
X89019389Y-98614516D01*
X88944005Y-98583291D01*
X88892685Y-98549000D01*
X88853758Y-98522990D01*
X88777010Y-98446242D01*
X88716710Y-98355996D01*
X88716709Y-98355995D01*
X88675174Y-98255721D01*
X88654000Y-98149270D01*
X88654000Y-98040730D01*
X88675174Y-97934279D01*
X88716709Y-97834005D01*
X88759132Y-97770514D01*
X88777010Y-97743758D01*
X88853758Y-97667010D01*
X88914510Y-97626417D01*
X88944005Y-97606709D01*
X89019389Y-97575484D01*
X89041000Y-97563933D01*
X89059941Y-97548388D01*
X89075487Y-97529446D01*
X89087038Y-97507835D01*
X89094151Y-97484386D01*
X89096553Y-97460000D01*
X89094151Y-97435614D01*
X89087038Y-97412165D01*
X89075487Y-97390554D01*
X89059942Y-97371613D01*
X89041000Y-97356067D01*
X89019389Y-97344516D01*
X88944005Y-97313291D01*
X88899188Y-97283345D01*
X88853758Y-97252990D01*
X88777010Y-97176242D01*
X88727061Y-97101488D01*
X88716709Y-97085995D01*
X88675174Y-96985721D01*
X88654000Y-96879270D01*
X88654000Y-96770730D01*
X88675174Y-96664279D01*
X88716709Y-96564005D01*
X88777009Y-96473760D01*
X88777010Y-96473758D01*
X88853758Y-96397010D01*
X88899188Y-96366655D01*
X88944005Y-96336709D01*
X89019389Y-96305484D01*
X89041000Y-96293933D01*
X89059941Y-96278388D01*
X89075487Y-96259446D01*
X89087038Y-96237835D01*
X89094151Y-96214386D01*
X89096553Y-96190000D01*
X89094151Y-96165614D01*
X89087038Y-96142165D01*
X89075487Y-96120554D01*
X89059942Y-96101613D01*
X89041000Y-96086067D01*
X89019389Y-96074516D01*
X88944005Y-96043291D01*
X88885232Y-96004020D01*
X88853758Y-95982990D01*
X88777010Y-95906242D01*
X88736907Y-95846223D01*
X88716709Y-95815995D01*
X88675174Y-95715721D01*
X88654000Y-95609270D01*
X88654000Y-95500730D01*
X88675174Y-95394279D01*
X88716709Y-95294005D01*
X88764508Y-95222469D01*
X88777010Y-95203758D01*
X88853758Y-95127010D01*
X88944004Y-95066710D01*
X88944005Y-95066709D01*
X89019389Y-95035484D01*
X89041000Y-95023933D01*
X89059941Y-95008388D01*
X89075487Y-94989446D01*
X89087038Y-94967835D01*
X89094151Y-94944386D01*
X89096553Y-94920000D01*
X89094151Y-94895614D01*
X89087038Y-94872165D01*
X89075487Y-94850554D01*
X89059942Y-94831613D01*
X89041000Y-94816067D01*
X89019389Y-94804516D01*
X88944005Y-94773291D01*
X88855834Y-94714377D01*
X88853758Y-94712990D01*
X88777010Y-94636242D01*
X88716710Y-94545996D01*
X88716709Y-94545995D01*
X88675174Y-94445721D01*
X88654000Y-94339270D01*
X88654000Y-94230730D01*
X88675174Y-94124279D01*
X88716709Y-94024005D01*
X88756255Y-93964820D01*
X88777010Y-93933758D01*
X88853758Y-93857010D01*
X88944004Y-93796710D01*
X88944005Y-93796709D01*
X89019389Y-93765484D01*
X89041000Y-93753933D01*
X89059941Y-93738388D01*
X89075487Y-93719446D01*
X89087038Y-93697835D01*
X89094151Y-93674386D01*
X89096553Y-93650000D01*
X89094151Y-93625614D01*
X89087038Y-93602165D01*
X89075487Y-93580554D01*
X89059942Y-93561613D01*
X89041000Y-93546067D01*
X89019389Y-93534516D01*
X88944005Y-93503291D01*
X88866575Y-93451554D01*
X88853758Y-93442990D01*
X88777010Y-93366242D01*
X88716710Y-93275996D01*
X88716709Y-93275995D01*
X88675174Y-93175721D01*
X88654000Y-93069270D01*
X88654000Y-92960730D01*
X88675174Y-92854279D01*
X88716709Y-92754005D01*
X88777009Y-92663760D01*
X88777010Y-92663758D01*
X88853758Y-92587010D01*
X88911912Y-92548153D01*
X88944005Y-92526709D01*
X89044279Y-92485174D01*
X89150730Y-92464000D01*
X89259270Y-92464000D01*
X89365721Y-92485174D01*
G37*
G36*
X103469232Y-99365000D02*
G01*
X102690000Y-100144232D01*
X102532154Y-99986386D01*
X102513218Y-99970846D01*
X102491607Y-99959295D01*
X102468158Y-99952182D01*
X102443772Y-99949780D01*
X102419386Y-99952182D01*
X102395937Y-99959295D01*
X102374326Y-99970846D01*
X102355384Y-99986391D01*
X102339839Y-100005333D01*
X102328288Y-100026944D01*
X102321175Y-100050393D01*
X102318773Y-100074779D01*
X102321175Y-100099165D01*
X102342974Y-100208756D01*
X102342974Y-100317296D01*
X102321800Y-100423747D01*
X102280265Y-100524021D01*
X102261466Y-100552155D01*
X102219964Y-100614268D01*
X102143216Y-100691016D01*
X102140821Y-100692616D01*
X102052969Y-100751317D01*
X101952695Y-100792852D01*
X101846244Y-100814026D01*
X101737704Y-100814026D01*
X101631253Y-100792852D01*
X101555869Y-100761627D01*
X101532420Y-100754514D01*
X101508034Y-100752112D01*
X101483647Y-100754514D01*
X101460199Y-100761627D01*
X101438588Y-100773178D01*
X101419646Y-100788724D01*
X101404101Y-100807666D01*
X101392550Y-100829276D01*
X101385437Y-100852725D01*
X101383035Y-100877111D01*
X101385437Y-100901498D01*
X101392550Y-100924946D01*
X101423775Y-101000330D01*
X101444949Y-101106781D01*
X101444949Y-101215321D01*
X101423775Y-101321772D01*
X101382240Y-101422046D01*
X101362893Y-101451000D01*
X101321939Y-101512293D01*
X101245191Y-101589041D01*
X101199761Y-101619396D01*
X101154944Y-101649342D01*
X101054670Y-101690877D01*
X100948219Y-101712051D01*
X100839679Y-101712051D01*
X100733228Y-101690877D01*
X100632954Y-101649342D01*
X100588137Y-101619396D01*
X100542707Y-101589041D01*
X100465959Y-101512293D01*
X100425005Y-101451000D01*
X100405658Y-101422046D01*
X100364123Y-101321772D01*
X100342949Y-101215321D01*
X100342949Y-101106781D01*
X100364123Y-101000330D01*
X100405658Y-100900056D01*
X100455615Y-100825290D01*
X100465959Y-100809809D01*
X100542707Y-100733061D01*
X100632953Y-100672761D01*
X100632954Y-100672760D01*
X100733228Y-100631225D01*
X100839679Y-100610051D01*
X100948219Y-100610051D01*
X101054670Y-100631225D01*
X101130054Y-100662450D01*
X101153503Y-100669563D01*
X101177889Y-100671965D01*
X101202276Y-100669563D01*
X101225724Y-100662450D01*
X101247335Y-100650899D01*
X101266277Y-100635353D01*
X101281822Y-100616411D01*
X101293373Y-100594801D01*
X101300486Y-100571352D01*
X101302888Y-100546966D01*
X101300486Y-100522579D01*
X101293373Y-100499131D01*
X101262148Y-100423747D01*
X101240974Y-100317296D01*
X101240974Y-100208756D01*
X101262148Y-100102305D01*
X101303683Y-100002031D01*
X101336991Y-99952182D01*
X101363984Y-99911784D01*
X101440732Y-99835036D01*
X101530978Y-99774736D01*
X101530979Y-99774735D01*
X101631253Y-99733200D01*
X101737704Y-99712026D01*
X101846244Y-99712026D01*
X101955835Y-99733825D01*
X101980221Y-99736227D01*
X102004607Y-99733825D01*
X102028056Y-99726712D01*
X102049667Y-99715161D01*
X102068609Y-99699616D01*
X102084154Y-99680674D01*
X102095705Y-99659063D01*
X102102818Y-99635614D01*
X102105220Y-99611228D01*
X102102818Y-99586842D01*
X102095705Y-99563393D01*
X102084154Y-99541782D01*
X102068614Y-99522846D01*
X101910768Y-99365000D01*
X102690000Y-98585768D01*
X103469232Y-99365000D01*
G37*
G36*
X109404499Y-100303445D02*
G01*
X109441995Y-100314820D01*
X109476554Y-100333292D01*
X109506847Y-100358153D01*
X109531708Y-100388446D01*
X109550180Y-100423005D01*
X109561555Y-100460501D01*
X109566000Y-100505638D01*
X109566000Y-101244362D01*
X109561555Y-101289499D01*
X109550180Y-101326995D01*
X109531708Y-101361554D01*
X109506847Y-101391847D01*
X109476554Y-101416708D01*
X109441995Y-101435180D01*
X109404499Y-101446555D01*
X109359362Y-101451000D01*
X108720638Y-101451000D01*
X108675501Y-101446555D01*
X108638005Y-101435180D01*
X108603446Y-101416708D01*
X108573153Y-101391847D01*
X108548292Y-101361554D01*
X108529820Y-101326995D01*
X108518445Y-101289499D01*
X108514000Y-101244362D01*
X108514000Y-100505638D01*
X108518445Y-100460501D01*
X108529820Y-100423005D01*
X108548292Y-100388446D01*
X108573153Y-100358153D01*
X108603446Y-100333292D01*
X108638005Y-100314820D01*
X108675501Y-100303445D01*
X108720638Y-100299000D01*
X109359362Y-100299000D01*
X109404499Y-100303445D01*
G37*
G36*
X98841226Y-94327433D02*
G01*
X98857618Y-94332406D01*
X98872730Y-94340483D01*
X98890739Y-94355263D01*
X98930584Y-94395108D01*
X98930595Y-94395117D01*
X99850541Y-95315063D01*
X99850550Y-95315074D01*
X99890395Y-95354919D01*
X99905175Y-95372928D01*
X99913252Y-95388040D01*
X99918225Y-95404432D01*
X99919904Y-95421483D01*
X99918225Y-95438534D01*
X99913252Y-95454926D01*
X99905175Y-95470038D01*
X99890395Y-95488047D01*
X99850550Y-95527892D01*
X99850541Y-95527903D01*
X99637701Y-95740743D01*
X99637690Y-95740752D01*
X99597845Y-95780597D01*
X99579836Y-95795377D01*
X99564724Y-95803454D01*
X99548332Y-95808427D01*
X99531281Y-95810106D01*
X99514230Y-95808427D01*
X99505921Y-95805906D01*
X99481888Y-95801125D01*
X99457384Y-95801125D01*
X99433351Y-95805905D01*
X99410712Y-95815282D01*
X99390337Y-95828896D01*
X99373010Y-95846223D01*
X99359396Y-95866597D01*
X99350019Y-95889236D01*
X99345238Y-95913269D01*
X99345238Y-95937773D01*
X99350018Y-95961807D01*
X99352540Y-95970121D01*
X99354219Y-95987169D01*
X99352540Y-96004220D01*
X99347567Y-96020612D01*
X99339490Y-96035724D01*
X99324710Y-96053733D01*
X99284865Y-96093578D01*
X99284856Y-96093589D01*
X99072016Y-96306429D01*
X99072005Y-96306438D01*
X99032160Y-96346283D01*
X99014151Y-96361063D01*
X98999039Y-96369140D01*
X98982647Y-96374113D01*
X98965596Y-96375792D01*
X98948548Y-96374113D01*
X98940234Y-96371591D01*
X98916200Y-96366811D01*
X98891696Y-96366811D01*
X98867663Y-96371592D01*
X98845024Y-96380969D01*
X98824650Y-96394583D01*
X98807323Y-96411910D01*
X98793709Y-96432285D01*
X98784332Y-96454923D01*
X98779552Y-96478957D01*
X98779552Y-96503461D01*
X98784333Y-96527494D01*
X98786854Y-96535803D01*
X98788533Y-96552854D01*
X98786854Y-96569905D01*
X98781881Y-96586297D01*
X98773804Y-96601409D01*
X98759024Y-96619418D01*
X98719179Y-96659263D01*
X98719170Y-96659274D01*
X98506330Y-96872114D01*
X98506319Y-96872123D01*
X98466474Y-96911968D01*
X98448465Y-96926748D01*
X98433353Y-96934825D01*
X98416961Y-96939798D01*
X98399910Y-96941477D01*
X98382859Y-96939798D01*
X98374550Y-96937277D01*
X98350517Y-96932496D01*
X98326013Y-96932496D01*
X98301980Y-96937276D01*
X98279341Y-96946653D01*
X98258966Y-96960267D01*
X98241639Y-96977594D01*
X98228025Y-96997968D01*
X98218648Y-97020607D01*
X98213867Y-97044640D01*
X98213867Y-97069144D01*
X98218648Y-97093179D01*
X98221169Y-97101488D01*
X98222848Y-97118539D01*
X98221169Y-97135590D01*
X98216196Y-97151982D01*
X98208119Y-97167094D01*
X98193339Y-97185103D01*
X98153494Y-97224948D01*
X98153485Y-97224959D01*
X97940645Y-97437799D01*
X97940634Y-97437808D01*
X97900789Y-97477653D01*
X97882780Y-97492433D01*
X97867668Y-97500510D01*
X97851276Y-97505483D01*
X97834225Y-97507162D01*
X97817177Y-97505483D01*
X97808863Y-97502961D01*
X97784829Y-97498181D01*
X97760325Y-97498181D01*
X97736292Y-97502962D01*
X97713653Y-97512339D01*
X97693279Y-97525953D01*
X97675952Y-97543280D01*
X97662338Y-97563655D01*
X97652961Y-97586293D01*
X97648181Y-97610327D01*
X97648181Y-97634831D01*
X97652961Y-97658863D01*
X97655483Y-97667177D01*
X97657162Y-97684225D01*
X97655483Y-97701276D01*
X97650510Y-97717668D01*
X97642433Y-97732780D01*
X97627653Y-97750789D01*
X97587808Y-97790634D01*
X97587799Y-97790645D01*
X97374959Y-98003485D01*
X97374948Y-98003494D01*
X97335103Y-98043339D01*
X97317094Y-98058119D01*
X97301982Y-98066196D01*
X97285590Y-98071169D01*
X97268539Y-98072848D01*
X97251488Y-98071169D01*
X97243179Y-98068648D01*
X97219146Y-98063867D01*
X97194642Y-98063867D01*
X97170609Y-98068647D01*
X97147970Y-98078024D01*
X97127595Y-98091638D01*
X97110268Y-98108965D01*
X97096654Y-98129339D01*
X97087277Y-98151978D01*
X97082496Y-98176011D01*
X97082496Y-98200515D01*
X97087277Y-98224550D01*
X97089798Y-98232859D01*
X97091477Y-98249910D01*
X97089798Y-98266961D01*
X97084825Y-98283353D01*
X97076748Y-98298465D01*
X97061968Y-98316474D01*
X97022123Y-98356319D01*
X97022114Y-98356330D01*
X96809274Y-98569170D01*
X96809263Y-98569179D01*
X96769418Y-98609024D01*
X96751409Y-98623804D01*
X96736297Y-98631881D01*
X96719905Y-98636854D01*
X96702854Y-98638533D01*
X96685803Y-98636854D01*
X96677494Y-98634333D01*
X96653461Y-98629552D01*
X96628957Y-98629552D01*
X96604924Y-98634332D01*
X96582285Y-98643709D01*
X96561910Y-98657323D01*
X96544583Y-98674650D01*
X96530969Y-98695024D01*
X96521592Y-98717663D01*
X96516811Y-98741696D01*
X96516811Y-98766200D01*
X96521591Y-98790234D01*
X96524113Y-98798548D01*
X96525792Y-98815596D01*
X96524113Y-98832647D01*
X96519140Y-98849039D01*
X96511063Y-98864151D01*
X96496283Y-98882160D01*
X96456438Y-98922005D01*
X96456429Y-98922016D01*
X96243589Y-99134856D01*
X96243578Y-99134865D01*
X96203733Y-99174710D01*
X96185724Y-99189490D01*
X96170612Y-99197567D01*
X96154220Y-99202540D01*
X96137169Y-99204219D01*
X96120121Y-99202540D01*
X96111807Y-99200018D01*
X96087773Y-99195238D01*
X96063269Y-99195238D01*
X96039236Y-99200019D01*
X96016597Y-99209396D01*
X95996223Y-99223010D01*
X95978896Y-99240337D01*
X95965282Y-99260712D01*
X95955905Y-99283350D01*
X95951125Y-99307384D01*
X95951125Y-99331888D01*
X95955906Y-99355921D01*
X95958427Y-99364230D01*
X95960106Y-99381281D01*
X95958427Y-99398332D01*
X95953454Y-99414724D01*
X95945377Y-99429836D01*
X95930597Y-99447845D01*
X95890752Y-99487690D01*
X95890743Y-99487701D01*
X95677903Y-99700541D01*
X95677892Y-99700550D01*
X95638047Y-99740395D01*
X95620038Y-99755175D01*
X95604926Y-99763252D01*
X95588534Y-99768225D01*
X95571483Y-99769904D01*
X95554432Y-99768225D01*
X95538040Y-99763252D01*
X95522928Y-99755175D01*
X95504919Y-99740395D01*
X95465074Y-99700550D01*
X95465063Y-99700541D01*
X94545117Y-98780595D01*
X94545108Y-98780584D01*
X94505263Y-98740739D01*
X94490483Y-98722730D01*
X94482406Y-98707618D01*
X94477433Y-98691226D01*
X94475754Y-98674175D01*
X94477433Y-98657124D01*
X94482406Y-98640732D01*
X94490483Y-98625620D01*
X94505263Y-98607611D01*
X94545108Y-98567766D01*
X94545117Y-98567755D01*
X94757957Y-98354915D01*
X94757968Y-98354906D01*
X94797813Y-98315061D01*
X94815822Y-98300281D01*
X94830934Y-98292204D01*
X94847326Y-98287231D01*
X94864377Y-98285552D01*
X94881425Y-98287231D01*
X94889739Y-98289753D01*
X94913773Y-98294533D01*
X94938277Y-98294533D01*
X94962310Y-98289752D01*
X94984949Y-98280375D01*
X95005323Y-98266761D01*
X95022650Y-98249434D01*
X95036264Y-98229059D01*
X95045641Y-98206421D01*
X95050421Y-98182387D01*
X95050421Y-98157883D01*
X95045640Y-98133850D01*
X95043119Y-98125541D01*
X95041440Y-98108490D01*
X95043119Y-98091439D01*
X95048092Y-98075047D01*
X95056169Y-98059935D01*
X95070949Y-98041926D01*
X95110794Y-98002081D01*
X95110803Y-98002070D01*
X95323643Y-97789230D01*
X95323654Y-97789221D01*
X95363499Y-97749376D01*
X95381508Y-97734596D01*
X95396620Y-97726519D01*
X95413012Y-97721546D01*
X95430063Y-97719867D01*
X95447114Y-97721546D01*
X95455423Y-97724067D01*
X95479456Y-97728848D01*
X95503960Y-97728848D01*
X95527993Y-97724068D01*
X95550632Y-97714691D01*
X95571007Y-97701077D01*
X95588334Y-97683750D01*
X95601948Y-97663376D01*
X95611325Y-97640737D01*
X95616106Y-97616704D01*
X95616106Y-97592200D01*
X95611326Y-97568166D01*
X95608804Y-97559852D01*
X95607125Y-97542804D01*
X95608804Y-97525753D01*
X95613777Y-97509361D01*
X95621854Y-97494249D01*
X95636634Y-97476240D01*
X95676479Y-97436395D01*
X95676488Y-97436384D01*
X95889328Y-97223544D01*
X95889339Y-97223535D01*
X95929184Y-97183690D01*
X95947193Y-97168910D01*
X95962305Y-97160833D01*
X95978697Y-97155860D01*
X95995748Y-97154181D01*
X96012799Y-97155860D01*
X96021108Y-97158381D01*
X96045141Y-97163162D01*
X96069645Y-97163162D01*
X96093678Y-97158382D01*
X96116317Y-97149005D01*
X96136692Y-97135391D01*
X96154019Y-97118064D01*
X96167633Y-97097690D01*
X96177010Y-97075051D01*
X96181791Y-97051018D01*
X96181791Y-97026514D01*
X96177010Y-97002479D01*
X96174489Y-96994170D01*
X96172810Y-96977119D01*
X96174489Y-96960068D01*
X96179462Y-96943676D01*
X96187539Y-96928564D01*
X96202319Y-96910555D01*
X96242164Y-96870710D01*
X96242173Y-96870699D01*
X96455013Y-96657859D01*
X96455024Y-96657850D01*
X96494869Y-96618005D01*
X96512878Y-96603225D01*
X96527990Y-96595148D01*
X96544382Y-96590175D01*
X96561433Y-96588496D01*
X96578481Y-96590175D01*
X96586795Y-96592697D01*
X96610829Y-96597477D01*
X96635333Y-96597477D01*
X96659366Y-96592696D01*
X96682005Y-96583319D01*
X96702379Y-96569705D01*
X96719706Y-96552378D01*
X96733320Y-96532003D01*
X96742697Y-96509365D01*
X96747477Y-96485331D01*
X96747477Y-96460827D01*
X96742697Y-96436795D01*
X96740175Y-96428481D01*
X96738496Y-96411433D01*
X96740175Y-96394382D01*
X96745148Y-96377990D01*
X96753225Y-96362878D01*
X96768005Y-96344869D01*
X96807850Y-96305024D01*
X96807859Y-96305013D01*
X97020699Y-96092173D01*
X97020710Y-96092164D01*
X97060555Y-96052319D01*
X97078564Y-96037539D01*
X97093676Y-96029462D01*
X97110068Y-96024489D01*
X97127119Y-96022810D01*
X97144170Y-96024489D01*
X97152479Y-96027010D01*
X97176512Y-96031791D01*
X97201016Y-96031791D01*
X97225049Y-96027011D01*
X97247688Y-96017634D01*
X97268063Y-96004020D01*
X97285390Y-95986693D01*
X97299004Y-95966319D01*
X97308381Y-95943680D01*
X97313162Y-95919647D01*
X97313162Y-95895143D01*
X97308381Y-95871108D01*
X97305860Y-95862799D01*
X97304181Y-95845748D01*
X97305860Y-95828697D01*
X97310833Y-95812305D01*
X97318910Y-95797193D01*
X97333690Y-95779184D01*
X97373535Y-95739339D01*
X97373544Y-95739328D01*
X97586384Y-95526488D01*
X97586395Y-95526479D01*
X97626240Y-95486634D01*
X97644249Y-95471854D01*
X97659361Y-95463777D01*
X97675753Y-95458804D01*
X97692804Y-95457125D01*
X97709852Y-95458804D01*
X97718166Y-95461326D01*
X97742200Y-95466106D01*
X97766704Y-95466106D01*
X97790737Y-95461325D01*
X97813376Y-95451948D01*
X97833750Y-95438334D01*
X97851077Y-95421007D01*
X97864691Y-95400632D01*
X97874068Y-95377994D01*
X97878848Y-95353960D01*
X97878848Y-95329456D01*
X97874067Y-95305423D01*
X97871546Y-95297114D01*
X97869867Y-95280063D01*
X97871546Y-95263012D01*
X97876519Y-95246620D01*
X97884596Y-95231508D01*
X97899376Y-95213499D01*
X97939221Y-95173654D01*
X97939230Y-95173643D01*
X98152070Y-94960803D01*
X98152081Y-94960794D01*
X98191926Y-94920949D01*
X98209935Y-94906169D01*
X98225047Y-94898092D01*
X98241439Y-94893119D01*
X98258490Y-94891440D01*
X98275541Y-94893119D01*
X98283850Y-94895640D01*
X98307883Y-94900421D01*
X98332387Y-94900421D01*
X98356420Y-94895641D01*
X98379059Y-94886264D01*
X98399434Y-94872650D01*
X98416761Y-94855323D01*
X98430375Y-94834949D01*
X98439752Y-94812310D01*
X98444533Y-94788277D01*
X98444533Y-94763773D01*
X98439753Y-94739739D01*
X98437231Y-94731425D01*
X98435552Y-94714377D01*
X98437231Y-94697326D01*
X98442204Y-94680934D01*
X98450281Y-94665822D01*
X98465061Y-94647813D01*
X98504906Y-94607968D01*
X98504915Y-94607957D01*
X98717755Y-94395117D01*
X98717766Y-94395108D01*
X98757611Y-94355263D01*
X98775620Y-94340483D01*
X98790732Y-94332406D01*
X98807124Y-94327433D01*
X98824175Y-94325754D01*
X98841226Y-94327433D01*
G37*
G36*
X101492876Y-94327433D02*
G01*
X101509268Y-94332406D01*
X101524380Y-94340483D01*
X101542389Y-94355263D01*
X101582234Y-94395108D01*
X101582245Y-94395117D01*
X101795085Y-94607957D01*
X101795094Y-94607968D01*
X101834939Y-94647813D01*
X101849719Y-94665822D01*
X101857796Y-94680934D01*
X101862769Y-94697326D01*
X101864448Y-94714377D01*
X101862769Y-94731425D01*
X101860247Y-94739739D01*
X101855467Y-94763773D01*
X101855467Y-94788277D01*
X101860248Y-94812310D01*
X101869625Y-94834949D01*
X101883239Y-94855323D01*
X101900566Y-94872650D01*
X101920941Y-94886264D01*
X101943579Y-94895641D01*
X101967613Y-94900421D01*
X101992117Y-94900421D01*
X102016150Y-94895640D01*
X102024459Y-94893119D01*
X102041510Y-94891440D01*
X102058561Y-94893119D01*
X102074953Y-94898092D01*
X102090065Y-94906169D01*
X102108074Y-94920949D01*
X102147919Y-94960794D01*
X102147930Y-94960803D01*
X102360770Y-95173643D01*
X102360779Y-95173654D01*
X102400624Y-95213499D01*
X102415404Y-95231508D01*
X102423481Y-95246620D01*
X102428454Y-95263012D01*
X102430133Y-95280063D01*
X102428454Y-95297114D01*
X102425933Y-95305423D01*
X102421152Y-95329456D01*
X102421152Y-95353960D01*
X102425932Y-95377993D01*
X102435309Y-95400632D01*
X102448923Y-95421007D01*
X102466250Y-95438334D01*
X102486624Y-95451948D01*
X102509263Y-95461325D01*
X102533296Y-95466106D01*
X102557800Y-95466106D01*
X102581834Y-95461326D01*
X102590148Y-95458804D01*
X102607196Y-95457125D01*
X102624247Y-95458804D01*
X102640639Y-95463777D01*
X102655751Y-95471854D01*
X102673760Y-95486634D01*
X102713605Y-95526479D01*
X102713616Y-95526488D01*
X102926456Y-95739328D01*
X102926465Y-95739339D01*
X102966310Y-95779184D01*
X102981090Y-95797193D01*
X102989167Y-95812305D01*
X102994140Y-95828697D01*
X102995819Y-95845748D01*
X102994140Y-95862799D01*
X102991619Y-95871108D01*
X102986838Y-95895141D01*
X102986838Y-95919645D01*
X102991618Y-95943678D01*
X103000995Y-95966317D01*
X103014609Y-95986692D01*
X103031936Y-96004019D01*
X103052310Y-96017633D01*
X103074949Y-96027010D01*
X103098982Y-96031791D01*
X103123486Y-96031791D01*
X103147521Y-96027010D01*
X103155830Y-96024489D01*
X103172881Y-96022810D01*
X103189932Y-96024489D01*
X103206324Y-96029462D01*
X103221436Y-96037539D01*
X103239445Y-96052319D01*
X103279290Y-96092164D01*
X103279301Y-96092173D01*
X103492141Y-96305013D01*
X103492150Y-96305024D01*
X103531995Y-96344869D01*
X103546775Y-96362878D01*
X103554852Y-96377990D01*
X103559825Y-96394382D01*
X103561504Y-96411433D01*
X103559825Y-96428481D01*
X103557303Y-96436795D01*
X103552523Y-96460829D01*
X103552523Y-96485333D01*
X103557304Y-96509366D01*
X103566681Y-96532005D01*
X103580295Y-96552379D01*
X103597622Y-96569706D01*
X103617997Y-96583320D01*
X103640635Y-96592697D01*
X103664669Y-96597477D01*
X103689173Y-96597477D01*
X103713205Y-96592697D01*
X103721519Y-96590175D01*
X103738567Y-96588496D01*
X103755618Y-96590175D01*
X103772010Y-96595148D01*
X103787122Y-96603225D01*
X103805131Y-96618005D01*
X103844976Y-96657850D01*
X103844987Y-96657859D01*
X104057827Y-96870699D01*
X104057836Y-96870710D01*
X104097681Y-96910555D01*
X104112461Y-96928564D01*
X104120538Y-96943676D01*
X104125511Y-96960068D01*
X104127190Y-96977119D01*
X104125511Y-96994170D01*
X104122990Y-97002479D01*
X104118209Y-97026512D01*
X104118209Y-97051016D01*
X104122989Y-97075049D01*
X104132366Y-97097688D01*
X104145980Y-97118063D01*
X104163307Y-97135390D01*
X104183681Y-97149004D01*
X104206320Y-97158381D01*
X104230353Y-97163162D01*
X104254857Y-97163162D01*
X104278892Y-97158381D01*
X104287201Y-97155860D01*
X104304252Y-97154181D01*
X104321303Y-97155860D01*
X104337695Y-97160833D01*
X104352807Y-97168910D01*
X104370816Y-97183690D01*
X104410661Y-97223535D01*
X104410672Y-97223544D01*
X104623512Y-97436384D01*
X104623521Y-97436395D01*
X104663366Y-97476240D01*
X104678146Y-97494249D01*
X104686223Y-97509361D01*
X104691196Y-97525753D01*
X104692875Y-97542804D01*
X104691196Y-97559852D01*
X104688674Y-97568166D01*
X104683894Y-97592200D01*
X104683894Y-97616704D01*
X104688675Y-97640737D01*
X104698052Y-97663376D01*
X104711666Y-97683750D01*
X104728993Y-97701077D01*
X104749368Y-97714691D01*
X104772006Y-97724068D01*
X104796040Y-97728848D01*
X104820544Y-97728848D01*
X104844577Y-97724067D01*
X104852886Y-97721546D01*
X104869937Y-97719867D01*
X104886988Y-97721546D01*
X104903380Y-97726519D01*
X104918492Y-97734596D01*
X104936501Y-97749376D01*
X104976346Y-97789221D01*
X104976357Y-97789230D01*
X105189197Y-98002070D01*
X105189206Y-98002081D01*
X105229051Y-98041926D01*
X105243831Y-98059935D01*
X105251908Y-98075047D01*
X105256881Y-98091439D01*
X105258560Y-98108490D01*
X105256881Y-98125541D01*
X105254360Y-98133850D01*
X105249579Y-98157883D01*
X105249579Y-98182387D01*
X105254359Y-98206420D01*
X105263736Y-98229059D01*
X105277350Y-98249434D01*
X105294677Y-98266761D01*
X105315051Y-98280375D01*
X105337690Y-98289752D01*
X105361723Y-98294533D01*
X105386227Y-98294533D01*
X105410261Y-98289753D01*
X105418575Y-98287231D01*
X105435623Y-98285552D01*
X105452674Y-98287231D01*
X105469066Y-98292204D01*
X105484178Y-98300281D01*
X105502187Y-98315061D01*
X105542032Y-98354906D01*
X105542043Y-98354915D01*
X105754883Y-98567755D01*
X105754892Y-98567766D01*
X105794737Y-98607611D01*
X105809517Y-98625620D01*
X105817594Y-98640732D01*
X105822567Y-98657124D01*
X105824246Y-98674175D01*
X105822567Y-98691226D01*
X105817594Y-98707618D01*
X105809517Y-98722730D01*
X105794737Y-98740739D01*
X105754892Y-98780584D01*
X105754883Y-98780595D01*
X104834937Y-99700541D01*
X104834926Y-99700550D01*
X104795081Y-99740395D01*
X104777072Y-99755175D01*
X104761960Y-99763252D01*
X104745568Y-99768225D01*
X104728517Y-99769904D01*
X104711466Y-99768225D01*
X104695074Y-99763252D01*
X104679962Y-99755175D01*
X104661953Y-99740395D01*
X104622108Y-99700550D01*
X104622097Y-99700541D01*
X104409257Y-99487701D01*
X104409248Y-99487690D01*
X104369403Y-99447845D01*
X104354623Y-99429836D01*
X104346546Y-99414724D01*
X104341573Y-99398332D01*
X104339894Y-99381281D01*
X104341573Y-99364230D01*
X104344094Y-99355921D01*
X104348875Y-99331888D01*
X104348875Y-99307384D01*
X104344095Y-99283351D01*
X104334718Y-99260712D01*
X104321104Y-99240337D01*
X104303777Y-99223010D01*
X104283403Y-99209396D01*
X104260764Y-99200019D01*
X104236731Y-99195238D01*
X104212227Y-99195238D01*
X104188193Y-99200018D01*
X104179879Y-99202540D01*
X104162831Y-99204219D01*
X104145780Y-99202540D01*
X104129388Y-99197567D01*
X104114276Y-99189490D01*
X104096267Y-99174710D01*
X104056422Y-99134865D01*
X104056411Y-99134856D01*
X103843571Y-98922016D01*
X103843562Y-98922005D01*
X103803717Y-98882160D01*
X103788937Y-98864151D01*
X103780860Y-98849039D01*
X103775887Y-98832647D01*
X103774208Y-98815596D01*
X103775887Y-98798548D01*
X103778409Y-98790234D01*
X103783189Y-98766200D01*
X103783189Y-98741696D01*
X103778408Y-98717663D01*
X103769031Y-98695024D01*
X103755417Y-98674650D01*
X103738090Y-98657323D01*
X103717715Y-98643709D01*
X103695077Y-98634332D01*
X103671043Y-98629552D01*
X103646539Y-98629552D01*
X103622506Y-98634333D01*
X103614197Y-98636854D01*
X103597146Y-98638533D01*
X103580095Y-98636854D01*
X103563703Y-98631881D01*
X103548591Y-98623804D01*
X103530582Y-98609024D01*
X103490737Y-98569179D01*
X103490726Y-98569170D01*
X103277886Y-98356330D01*
X103277877Y-98356319D01*
X103238032Y-98316474D01*
X103223252Y-98298465D01*
X103215175Y-98283353D01*
X103210202Y-98266961D01*
X103208523Y-98249910D01*
X103210202Y-98232859D01*
X103212723Y-98224550D01*
X103217504Y-98200517D01*
X103217504Y-98176013D01*
X103212724Y-98151980D01*
X103203347Y-98129341D01*
X103189733Y-98108966D01*
X103172406Y-98091639D01*
X103152032Y-98078025D01*
X103129393Y-98068648D01*
X103105360Y-98063867D01*
X103080856Y-98063867D01*
X103056821Y-98068648D01*
X103048512Y-98071169D01*
X103031461Y-98072848D01*
X103014410Y-98071169D01*
X102998018Y-98066196D01*
X102982906Y-98058119D01*
X102964897Y-98043339D01*
X102925052Y-98003494D01*
X102925041Y-98003485D01*
X102712201Y-97790645D01*
X102712192Y-97790634D01*
X102672347Y-97750789D01*
X102657567Y-97732780D01*
X102649490Y-97717668D01*
X102644517Y-97701276D01*
X102642838Y-97684225D01*
X102644517Y-97667177D01*
X102647039Y-97658863D01*
X102651819Y-97634829D01*
X102651819Y-97610325D01*
X102647038Y-97586292D01*
X102637661Y-97563653D01*
X102624047Y-97543279D01*
X102606720Y-97525952D01*
X102586345Y-97512338D01*
X102563707Y-97502961D01*
X102539673Y-97498181D01*
X102515169Y-97498181D01*
X102491137Y-97502961D01*
X102482823Y-97505483D01*
X102465775Y-97507162D01*
X102448724Y-97505483D01*
X102432332Y-97500510D01*
X102417220Y-97492433D01*
X102399211Y-97477653D01*
X102359366Y-97437808D01*
X102359355Y-97437799D01*
X102146515Y-97224959D01*
X102146506Y-97224948D01*
X102106661Y-97185103D01*
X102091881Y-97167094D01*
X102083804Y-97151982D01*
X102078831Y-97135590D01*
X102077152Y-97118539D01*
X102078831Y-97101488D01*
X102081352Y-97093179D01*
X102086133Y-97069146D01*
X102086133Y-97044642D01*
X102081353Y-97020609D01*
X102071976Y-96997970D01*
X102058362Y-96977595D01*
X102041035Y-96960268D01*
X102020661Y-96946654D01*
X101998022Y-96937277D01*
X101973989Y-96932496D01*
X101949485Y-96932496D01*
X101925450Y-96937277D01*
X101917141Y-96939798D01*
X101900090Y-96941477D01*
X101883039Y-96939798D01*
X101866647Y-96934825D01*
X101851535Y-96926748D01*
X101833526Y-96911968D01*
X101793681Y-96872123D01*
X101793670Y-96872114D01*
X101580830Y-96659274D01*
X101580821Y-96659263D01*
X101540976Y-96619418D01*
X101526196Y-96601409D01*
X101518119Y-96586297D01*
X101513146Y-96569905D01*
X101511467Y-96552854D01*
X101513146Y-96535803D01*
X101515667Y-96527494D01*
X101520448Y-96503461D01*
X101520448Y-96478957D01*
X101515668Y-96454924D01*
X101506291Y-96432285D01*
X101492677Y-96411910D01*
X101475350Y-96394583D01*
X101454976Y-96380969D01*
X101432337Y-96371592D01*
X101408304Y-96366811D01*
X101383800Y-96366811D01*
X101359766Y-96371591D01*
X101351452Y-96374113D01*
X101334404Y-96375792D01*
X101317353Y-96374113D01*
X101300961Y-96369140D01*
X101285849Y-96361063D01*
X101267840Y-96346283D01*
X101227995Y-96306438D01*
X101227984Y-96306429D01*
X101015144Y-96093589D01*
X101015135Y-96093578D01*
X100975290Y-96053733D01*
X100960510Y-96035724D01*
X100952433Y-96020612D01*
X100947460Y-96004220D01*
X100945781Y-95987169D01*
X100947460Y-95970121D01*
X100949982Y-95961807D01*
X100954762Y-95937773D01*
X100954762Y-95913269D01*
X100949981Y-95889236D01*
X100940604Y-95866597D01*
X100926990Y-95846223D01*
X100909663Y-95828896D01*
X100889288Y-95815282D01*
X100866650Y-95805905D01*
X100842616Y-95801125D01*
X100818112Y-95801125D01*
X100794079Y-95805906D01*
X100785770Y-95808427D01*
X100768719Y-95810106D01*
X100751668Y-95808427D01*
X100735276Y-95803454D01*
X100720164Y-95795377D01*
X100702155Y-95780597D01*
X100662310Y-95740752D01*
X100662299Y-95740743D01*
X100449459Y-95527903D01*
X100449450Y-95527892D01*
X100409605Y-95488047D01*
X100394825Y-95470038D01*
X100386748Y-95454926D01*
X100381775Y-95438534D01*
X100380096Y-95421483D01*
X100381775Y-95404432D01*
X100386748Y-95388040D01*
X100394825Y-95372928D01*
X100409605Y-95354919D01*
X100449450Y-95315074D01*
X100449459Y-95315063D01*
X101369405Y-94395117D01*
X101369416Y-94395108D01*
X101409261Y-94355263D01*
X101427270Y-94340483D01*
X101442382Y-94332406D01*
X101458774Y-94327433D01*
X101475825Y-94325754D01*
X101492876Y-94327433D01*
G37*
G36*
X109404499Y-98553445D02*
G01*
X109441995Y-98564820D01*
X109476554Y-98583292D01*
X109506847Y-98608153D01*
X109531708Y-98638446D01*
X109550180Y-98673005D01*
X109561555Y-98710501D01*
X109566000Y-98755638D01*
X109566000Y-99494362D01*
X109561555Y-99539499D01*
X109550180Y-99576995D01*
X109531708Y-99611554D01*
X109506847Y-99641847D01*
X109476554Y-99666708D01*
X109441995Y-99685180D01*
X109404499Y-99696555D01*
X109359362Y-99701000D01*
X108720638Y-99701000D01*
X108675501Y-99696555D01*
X108638005Y-99685180D01*
X108603446Y-99666708D01*
X108573153Y-99641847D01*
X108548292Y-99611554D01*
X108529820Y-99576995D01*
X108518445Y-99539499D01*
X108514000Y-99494362D01*
X108514000Y-98755638D01*
X108518445Y-98710501D01*
X108529820Y-98673005D01*
X108548292Y-98638446D01*
X108573153Y-98608153D01*
X108603446Y-98583292D01*
X108638005Y-98564820D01*
X108675501Y-98553445D01*
X108720638Y-98549000D01*
X109359362Y-98549000D01*
X109404499Y-98553445D01*
G37*
G36*
X109404499Y-93953445D02*
G01*
X109441995Y-93964820D01*
X109476554Y-93983292D01*
X109506847Y-94008153D01*
X109531708Y-94038446D01*
X109550180Y-94073005D01*
X109561555Y-94110501D01*
X109566000Y-94155638D01*
X109566000Y-94894362D01*
X109561555Y-94939499D01*
X109550180Y-94976995D01*
X109531708Y-95011554D01*
X109506847Y-95041847D01*
X109476554Y-95066708D01*
X109441995Y-95085180D01*
X109404499Y-95096555D01*
X109359362Y-95101000D01*
X108720638Y-95101000D01*
X108675501Y-95096555D01*
X108638005Y-95085180D01*
X108603446Y-95066708D01*
X108573153Y-95041847D01*
X108548292Y-95011554D01*
X108529820Y-94976995D01*
X108518445Y-94939499D01*
X108514000Y-94894362D01*
X108514000Y-94155638D01*
X108518445Y-94110501D01*
X108529820Y-94073005D01*
X108548292Y-94038446D01*
X108573153Y-94008153D01*
X108603446Y-93983292D01*
X108638005Y-93964820D01*
X108675501Y-93953445D01*
X108720638Y-93949000D01*
X109359362Y-93949000D01*
X109404499Y-93953445D01*
G37*
G36*
X100169499Y-92493445D02*
G01*
X100206995Y-92504820D01*
X100241554Y-92523292D01*
X100271847Y-92548153D01*
X100296708Y-92578446D01*
X100315180Y-92613005D01*
X100326555Y-92650501D01*
X100331000Y-92695638D01*
X100331000Y-93334362D01*
X100326555Y-93379499D01*
X100315180Y-93416995D01*
X100296708Y-93451554D01*
X100271847Y-93481847D01*
X100241554Y-93506708D01*
X100206995Y-93525180D01*
X100169499Y-93536555D01*
X100124362Y-93541000D01*
X99385638Y-93541000D01*
X99340501Y-93536555D01*
X99303005Y-93525180D01*
X99268446Y-93506708D01*
X99238153Y-93481847D01*
X99213292Y-93451554D01*
X99194820Y-93416995D01*
X99183445Y-93379499D01*
X99179000Y-93334362D01*
X99179000Y-92695638D01*
X99183445Y-92650501D01*
X99194820Y-92613005D01*
X99213292Y-92578446D01*
X99238153Y-92548153D01*
X99268446Y-92523292D01*
X99303005Y-92504820D01*
X99340501Y-92493445D01*
X99385638Y-92489000D01*
X100124362Y-92489000D01*
X100169499Y-92493445D01*
G37*
G36*
X98419499Y-92493445D02*
G01*
X98456995Y-92504820D01*
X98491554Y-92523292D01*
X98521847Y-92548153D01*
X98546708Y-92578446D01*
X98565180Y-92613005D01*
X98576555Y-92650501D01*
X98581000Y-92695638D01*
X98581000Y-93334362D01*
X98576555Y-93379499D01*
X98565180Y-93416995D01*
X98546708Y-93451554D01*
X98521847Y-93481847D01*
X98491554Y-93506708D01*
X98456995Y-93525180D01*
X98419499Y-93536555D01*
X98374362Y-93541000D01*
X97635638Y-93541000D01*
X97590501Y-93536555D01*
X97553005Y-93525180D01*
X97518446Y-93506708D01*
X97488153Y-93481847D01*
X97463292Y-93451554D01*
X97444820Y-93416995D01*
X97433445Y-93379499D01*
X97429000Y-93334362D01*
X97429000Y-92695638D01*
X97433445Y-92650501D01*
X97444820Y-92613005D01*
X97463292Y-92578446D01*
X97488153Y-92548153D01*
X97518446Y-92523292D01*
X97553005Y-92504820D01*
X97590501Y-92493445D01*
X97635638Y-92489000D01*
X98374362Y-92489000D01*
X98419499Y-92493445D01*
G37*
G36*
X109404499Y-92203445D02*
G01*
X109441995Y-92214820D01*
X109476554Y-92233292D01*
X109506847Y-92258153D01*
X109531708Y-92288446D01*
X109550180Y-92323005D01*
X109561555Y-92360501D01*
X109566000Y-92405638D01*
X109566000Y-93144362D01*
X109561555Y-93189499D01*
X109550180Y-93226995D01*
X109531708Y-93261554D01*
X109506847Y-93291847D01*
X109476554Y-93316708D01*
X109441995Y-93335180D01*
X109404499Y-93346555D01*
X109359362Y-93351000D01*
X108720638Y-93351000D01*
X108675501Y-93346555D01*
X108638005Y-93335180D01*
X108603446Y-93316708D01*
X108573153Y-93291847D01*
X108548292Y-93261554D01*
X108529820Y-93226995D01*
X108518445Y-93189499D01*
X108514000Y-93144362D01*
X108514000Y-92405638D01*
X108518445Y-92360501D01*
X108529820Y-92323005D01*
X108548292Y-92288446D01*
X108573153Y-92258153D01*
X108603446Y-92233292D01*
X108638005Y-92214820D01*
X108675501Y-92203445D01*
X108720638Y-92199000D01*
X109359362Y-92199000D01*
X109404499Y-92203445D01*
G37*
G36*
X107154499Y-91858445D02*
G01*
X107191995Y-91869820D01*
X107226554Y-91888292D01*
X107256847Y-91913153D01*
X107281708Y-91943446D01*
X107300180Y-91978005D01*
X107311555Y-92015501D01*
X107316000Y-92060638D01*
X107316000Y-92699362D01*
X107311555Y-92744499D01*
X107300180Y-92781995D01*
X107281708Y-92816554D01*
X107256847Y-92846847D01*
X107226554Y-92871708D01*
X107191995Y-92890180D01*
X107154499Y-92901555D01*
X107109362Y-92906000D01*
X106370638Y-92906000D01*
X106325501Y-92901555D01*
X106288005Y-92890180D01*
X106253446Y-92871708D01*
X106223153Y-92846847D01*
X106198292Y-92816554D01*
X106179820Y-92781995D01*
X106168445Y-92744499D01*
X106164000Y-92699362D01*
X106164000Y-92060638D01*
X106168445Y-92015501D01*
X106179820Y-91978005D01*
X106198292Y-91943446D01*
X106223153Y-91913153D01*
X106253446Y-91888292D01*
X106288005Y-91869820D01*
X106325501Y-91858445D01*
X106370638Y-91854000D01*
X107109362Y-91854000D01*
X107154499Y-91858445D01*
G37*
G36*
X105404499Y-91858445D02*
G01*
X105441995Y-91869820D01*
X105476554Y-91888292D01*
X105506847Y-91913153D01*
X105531708Y-91943446D01*
X105550180Y-91978005D01*
X105561555Y-92015501D01*
X105566000Y-92060638D01*
X105566000Y-92699362D01*
X105561555Y-92744499D01*
X105550180Y-92781995D01*
X105531708Y-92816554D01*
X105506847Y-92846847D01*
X105476554Y-92871708D01*
X105441995Y-92890180D01*
X105404499Y-92901555D01*
X105359362Y-92906000D01*
X104620638Y-92906000D01*
X104575501Y-92901555D01*
X104538005Y-92890180D01*
X104503446Y-92871708D01*
X104473153Y-92846847D01*
X104448292Y-92816554D01*
X104429820Y-92781995D01*
X104418445Y-92744499D01*
X104414000Y-92699362D01*
X104414000Y-92060638D01*
X104418445Y-92015501D01*
X104429820Y-91978005D01*
X104448292Y-91943446D01*
X104473153Y-91913153D01*
X104503446Y-91888292D01*
X104538005Y-91869820D01*
X104575501Y-91858445D01*
X104620638Y-91854000D01*
X105359362Y-91854000D01*
X105404499Y-91858445D01*
G37*
G36*
X92259499Y-90778445D02*
G01*
X92296995Y-90789820D01*
X92331554Y-90808292D01*
X92361847Y-90833153D01*
X92386708Y-90863446D01*
X92405180Y-90898005D01*
X92416555Y-90935501D01*
X92421000Y-90980638D01*
X92421000Y-91719362D01*
X92416555Y-91764499D01*
X92405180Y-91801995D01*
X92386708Y-91836554D01*
X92361847Y-91866847D01*
X92331554Y-91891708D01*
X92296995Y-91910180D01*
X92259499Y-91921555D01*
X92214362Y-91926000D01*
X91575638Y-91926000D01*
X91530501Y-91921555D01*
X91493005Y-91910180D01*
X91458446Y-91891708D01*
X91428153Y-91866847D01*
X91403292Y-91836554D01*
X91384820Y-91801995D01*
X91373445Y-91764499D01*
X91369000Y-91719362D01*
X91369000Y-90980638D01*
X91373445Y-90935501D01*
X91384820Y-90898005D01*
X91403292Y-90863446D01*
X91428153Y-90833153D01*
X91458446Y-90808292D01*
X91493005Y-90789820D01*
X91530501Y-90778445D01*
X91575638Y-90774000D01*
X92214362Y-90774000D01*
X92259499Y-90778445D01*
G37*
G36*
X94595721Y-89310174D02*
G01*
X94695995Y-89351709D01*
X94695996Y-89351710D01*
X94786242Y-89412010D01*
X94862990Y-89488758D01*
X94862991Y-89488760D01*
X94923291Y-89579005D01*
X94964826Y-89679279D01*
X94986000Y-89785730D01*
X94986000Y-89894270D01*
X94964826Y-90000721D01*
X94923291Y-90100995D01*
X94923290Y-90100996D01*
X94862990Y-90191242D01*
X94786242Y-90267990D01*
X94754816Y-90288988D01*
X94693336Y-90330068D01*
X94674394Y-90345614D01*
X94658849Y-90364556D01*
X94647298Y-90386167D01*
X94640185Y-90409615D01*
X94637783Y-90434002D01*
X94640185Y-90458388D01*
X94647298Y-90481837D01*
X94658849Y-90503447D01*
X94674395Y-90522389D01*
X94693337Y-90537934D01*
X94714948Y-90549485D01*
X94738396Y-90556598D01*
X94762782Y-90559000D01*
X94986000Y-90559000D01*
X94986000Y-91661000D01*
X93884000Y-91661000D01*
X93884000Y-90559000D01*
X94107218Y-90559000D01*
X94131604Y-90556598D01*
X94155053Y-90549485D01*
X94176664Y-90537934D01*
X94195606Y-90522389D01*
X94211151Y-90503447D01*
X94222702Y-90481836D01*
X94229815Y-90458387D01*
X94232217Y-90434001D01*
X94229815Y-90409615D01*
X94222702Y-90386166D01*
X94211151Y-90364555D01*
X94195606Y-90345613D01*
X94176664Y-90330068D01*
X94115184Y-90288988D01*
X94083758Y-90267990D01*
X94007010Y-90191242D01*
X93946710Y-90100996D01*
X93946709Y-90100995D01*
X93905174Y-90000721D01*
X93884000Y-89894270D01*
X93884000Y-89785730D01*
X93905174Y-89679279D01*
X93946709Y-89579005D01*
X94007009Y-89488760D01*
X94007010Y-89488758D01*
X94083758Y-89412010D01*
X94174004Y-89351710D01*
X94174005Y-89351709D01*
X94274279Y-89310174D01*
X94380730Y-89289000D01*
X94489270Y-89289000D01*
X94595721Y-89310174D01*
G37*
G36*
X103335721Y-89310174D02*
G01*
X103435995Y-89351709D01*
X103435996Y-89351710D01*
X103526242Y-89412010D01*
X103602990Y-89488758D01*
X103602991Y-89488760D01*
X103663291Y-89579005D01*
X103694516Y-89654389D01*
X103706067Y-89676000D01*
X103721612Y-89694941D01*
X103740554Y-89710487D01*
X103762165Y-89722038D01*
X103785614Y-89729151D01*
X103810000Y-89731553D01*
X103834386Y-89729151D01*
X103857835Y-89722038D01*
X103879446Y-89710487D01*
X103898387Y-89694942D01*
X103913933Y-89676000D01*
X103925484Y-89654389D01*
X103956709Y-89579005D01*
X104017009Y-89488760D01*
X104017010Y-89488758D01*
X104093758Y-89412010D01*
X104184004Y-89351710D01*
X104184005Y-89351709D01*
X104284279Y-89310174D01*
X104390730Y-89289000D01*
X104499270Y-89289000D01*
X104605721Y-89310174D01*
X104705995Y-89351709D01*
X104705996Y-89351710D01*
X104796242Y-89412010D01*
X104872990Y-89488758D01*
X104872991Y-89488760D01*
X104933291Y-89579005D01*
X104964516Y-89654389D01*
X104976067Y-89676000D01*
X104991612Y-89694941D01*
X105010554Y-89710487D01*
X105032165Y-89722038D01*
X105055614Y-89729151D01*
X105080000Y-89731553D01*
X105104386Y-89729151D01*
X105127835Y-89722038D01*
X105149446Y-89710487D01*
X105168387Y-89694942D01*
X105183933Y-89676000D01*
X105195484Y-89654389D01*
X105226709Y-89579005D01*
X105287009Y-89488760D01*
X105287010Y-89488758D01*
X105363758Y-89412010D01*
X105454004Y-89351710D01*
X105454005Y-89351709D01*
X105554279Y-89310174D01*
X105660730Y-89289000D01*
X105769270Y-89289000D01*
X105875721Y-89310174D01*
X105975995Y-89351709D01*
X105975996Y-89351710D01*
X106066242Y-89412010D01*
X106142990Y-89488758D01*
X106142991Y-89488760D01*
X106203291Y-89579005D01*
X106234516Y-89654389D01*
X106246067Y-89676000D01*
X106261612Y-89694941D01*
X106280554Y-89710487D01*
X106302165Y-89722038D01*
X106325614Y-89729151D01*
X106350000Y-89731553D01*
X106374386Y-89729151D01*
X106397835Y-89722038D01*
X106419446Y-89710487D01*
X106438387Y-89694942D01*
X106453933Y-89676000D01*
X106465484Y-89654389D01*
X106496709Y-89579005D01*
X106557009Y-89488760D01*
X106557010Y-89488758D01*
X106633758Y-89412010D01*
X106724004Y-89351710D01*
X106724005Y-89351709D01*
X106824279Y-89310174D01*
X106930730Y-89289000D01*
X107039270Y-89289000D01*
X107145721Y-89310174D01*
X107245995Y-89351709D01*
X107245996Y-89351710D01*
X107336242Y-89412010D01*
X107412990Y-89488758D01*
X107412991Y-89488760D01*
X107473291Y-89579005D01*
X107514826Y-89679279D01*
X107536000Y-89785730D01*
X107536000Y-89894270D01*
X107514826Y-90000721D01*
X107473291Y-90100995D01*
X107473290Y-90100996D01*
X107412990Y-90191242D01*
X107336242Y-90267990D01*
X107290812Y-90298345D01*
X107245995Y-90328291D01*
X107145721Y-90369826D01*
X107039270Y-90391000D01*
X106930730Y-90391000D01*
X106824279Y-90369826D01*
X106724005Y-90328291D01*
X106679188Y-90298345D01*
X106633758Y-90267990D01*
X106557010Y-90191242D01*
X106496710Y-90100996D01*
X106496709Y-90100995D01*
X106465484Y-90025611D01*
X106453933Y-90004000D01*
X106438388Y-89985059D01*
X106419446Y-89969513D01*
X106397835Y-89957962D01*
X106374386Y-89950849D01*
X106350000Y-89948447D01*
X106325614Y-89950849D01*
X106302165Y-89957962D01*
X106280554Y-89969513D01*
X106261613Y-89985058D01*
X106246067Y-90004000D01*
X106234516Y-90025611D01*
X106203291Y-90100995D01*
X106203290Y-90100996D01*
X106142990Y-90191242D01*
X106066242Y-90267990D01*
X106020812Y-90298345D01*
X105975995Y-90328291D01*
X105875721Y-90369826D01*
X105769270Y-90391000D01*
X105660730Y-90391000D01*
X105554279Y-90369826D01*
X105454005Y-90328291D01*
X105409188Y-90298345D01*
X105363758Y-90267990D01*
X105287010Y-90191242D01*
X105226710Y-90100996D01*
X105226709Y-90100995D01*
X105195484Y-90025611D01*
X105183933Y-90004000D01*
X105168388Y-89985059D01*
X105149446Y-89969513D01*
X105127835Y-89957962D01*
X105104386Y-89950849D01*
X105080000Y-89948447D01*
X105055614Y-89950849D01*
X105032165Y-89957962D01*
X105010554Y-89969513D01*
X104991613Y-89985058D01*
X104976067Y-90004000D01*
X104964516Y-90025611D01*
X104933291Y-90100995D01*
X104933290Y-90100996D01*
X104872990Y-90191242D01*
X104796242Y-90267990D01*
X104750812Y-90298345D01*
X104705995Y-90328291D01*
X104605721Y-90369826D01*
X104499270Y-90391000D01*
X104390730Y-90391000D01*
X104284279Y-90369826D01*
X104184005Y-90328291D01*
X104139188Y-90298345D01*
X104093758Y-90267990D01*
X104017010Y-90191242D01*
X103956710Y-90100996D01*
X103956709Y-90100995D01*
X103925484Y-90025611D01*
X103913933Y-90004000D01*
X103898388Y-89985059D01*
X103879446Y-89969513D01*
X103857835Y-89957962D01*
X103834386Y-89950849D01*
X103810000Y-89948447D01*
X103785614Y-89950849D01*
X103762165Y-89957962D01*
X103740554Y-89969513D01*
X103721613Y-89985058D01*
X103706067Y-90004000D01*
X103694516Y-90025611D01*
X103663291Y-90100995D01*
X103663290Y-90100996D01*
X103602990Y-90191242D01*
X103526242Y-90267990D01*
X103480812Y-90298345D01*
X103435995Y-90328291D01*
X103335721Y-90369826D01*
X103229270Y-90391000D01*
X103120730Y-90391000D01*
X103014279Y-90369826D01*
X102914005Y-90328291D01*
X102869188Y-90298345D01*
X102823758Y-90267990D01*
X102747010Y-90191242D01*
X102686710Y-90100996D01*
X102686709Y-90100995D01*
X102645174Y-90000721D01*
X102624000Y-89894270D01*
X102624000Y-89785730D01*
X102645174Y-89679279D01*
X102686709Y-89579005D01*
X102747009Y-89488760D01*
X102747010Y-89488758D01*
X102823758Y-89412010D01*
X102914004Y-89351710D01*
X102914005Y-89351709D01*
X103014279Y-89310174D01*
X103120730Y-89289000D01*
X103229270Y-89289000D01*
X103335721Y-89310174D01*
G37*
G36*
X92259499Y-89028445D02*
G01*
X92296995Y-89039820D01*
X92331554Y-89058292D01*
X92361847Y-89083153D01*
X92386708Y-89113446D01*
X92405180Y-89148005D01*
X92416555Y-89185501D01*
X92421000Y-89230638D01*
X92421000Y-89969362D01*
X92416555Y-90014499D01*
X92405180Y-90051995D01*
X92386708Y-90086554D01*
X92361847Y-90116847D01*
X92331554Y-90141708D01*
X92296995Y-90160180D01*
X92259499Y-90171555D01*
X92214362Y-90176000D01*
X91575638Y-90176000D01*
X91530501Y-90171555D01*
X91493005Y-90160180D01*
X91458446Y-90141708D01*
X91428153Y-90116847D01*
X91403292Y-90086554D01*
X91384820Y-90051995D01*
X91373445Y-90014499D01*
X91369000Y-89969362D01*
X91369000Y-89230638D01*
X91373445Y-89185501D01*
X91384820Y-89148005D01*
X91403292Y-89113446D01*
X91428153Y-89083153D01*
X91458446Y-89058292D01*
X91493005Y-89039820D01*
X91530501Y-89028445D01*
X91575638Y-89024000D01*
X92214362Y-89024000D01*
X92259499Y-89028445D01*
G37*
G36*
X98255721Y-88675174D02*
G01*
X98355995Y-88716709D01*
X98355996Y-88716710D01*
X98446242Y-88777010D01*
X98522990Y-88853758D01*
X98522991Y-88853760D01*
X98583291Y-88944005D01*
X98614516Y-89019389D01*
X98626067Y-89041000D01*
X98641612Y-89059941D01*
X98660554Y-89075487D01*
X98682165Y-89087038D01*
X98705614Y-89094151D01*
X98730000Y-89096553D01*
X98754386Y-89094151D01*
X98777835Y-89087038D01*
X98799446Y-89075487D01*
X98818387Y-89059942D01*
X98833933Y-89041000D01*
X98845484Y-89019389D01*
X98876709Y-88944005D01*
X98937009Y-88853760D01*
X98937010Y-88853758D01*
X99013758Y-88777010D01*
X99104004Y-88716710D01*
X99104005Y-88716709D01*
X99204279Y-88675174D01*
X99310730Y-88654000D01*
X99419270Y-88654000D01*
X99525721Y-88675174D01*
X99625995Y-88716709D01*
X99625996Y-88716710D01*
X99716242Y-88777010D01*
X99792990Y-88853758D01*
X99792991Y-88853760D01*
X99853291Y-88944005D01*
X99884516Y-89019389D01*
X99896067Y-89041000D01*
X99911612Y-89059941D01*
X99930554Y-89075487D01*
X99952165Y-89087038D01*
X99975614Y-89094151D01*
X100000000Y-89096553D01*
X100024386Y-89094151D01*
X100047835Y-89087038D01*
X100069446Y-89075487D01*
X100088387Y-89059942D01*
X100103933Y-89041000D01*
X100115484Y-89019389D01*
X100146709Y-88944005D01*
X100207009Y-88853760D01*
X100207010Y-88853758D01*
X100283758Y-88777010D01*
X100374004Y-88716710D01*
X100374005Y-88716709D01*
X100474279Y-88675174D01*
X100580730Y-88654000D01*
X100689270Y-88654000D01*
X100795721Y-88675174D01*
X100895995Y-88716709D01*
X100895996Y-88716710D01*
X100986242Y-88777010D01*
X101062990Y-88853758D01*
X101062991Y-88853760D01*
X101123291Y-88944005D01*
X101154516Y-89019389D01*
X101166067Y-89041000D01*
X101181612Y-89059941D01*
X101200554Y-89075487D01*
X101222165Y-89087038D01*
X101245614Y-89094151D01*
X101270000Y-89096553D01*
X101294386Y-89094151D01*
X101317835Y-89087038D01*
X101339446Y-89075487D01*
X101358387Y-89059942D01*
X101373933Y-89041000D01*
X101385484Y-89019389D01*
X101416709Y-88944005D01*
X101477009Y-88853760D01*
X101477010Y-88853758D01*
X101553758Y-88777010D01*
X101644004Y-88716710D01*
X101644005Y-88716709D01*
X101744279Y-88675174D01*
X101850730Y-88654000D01*
X101959270Y-88654000D01*
X102065721Y-88675174D01*
X102165995Y-88716709D01*
X102165996Y-88716710D01*
X102256242Y-88777010D01*
X102332990Y-88853758D01*
X102332991Y-88853760D01*
X102393291Y-88944005D01*
X102434826Y-89044279D01*
X102456000Y-89150730D01*
X102456000Y-89259270D01*
X102434826Y-89365721D01*
X102393291Y-89465995D01*
X102393290Y-89465996D01*
X102332990Y-89556242D01*
X102256242Y-89632990D01*
X102224216Y-89654389D01*
X102165995Y-89693291D01*
X102065721Y-89734826D01*
X101959270Y-89756000D01*
X101850730Y-89756000D01*
X101744279Y-89734826D01*
X101644005Y-89693291D01*
X101585784Y-89654389D01*
X101553758Y-89632990D01*
X101477010Y-89556242D01*
X101416710Y-89465996D01*
X101416709Y-89465995D01*
X101385484Y-89390611D01*
X101373933Y-89369000D01*
X101358388Y-89350059D01*
X101339446Y-89334513D01*
X101317835Y-89322962D01*
X101294386Y-89315849D01*
X101270000Y-89313447D01*
X101245614Y-89315849D01*
X101222165Y-89322962D01*
X101200554Y-89334513D01*
X101181613Y-89350058D01*
X101166067Y-89369000D01*
X101154516Y-89390611D01*
X101123291Y-89465995D01*
X101123290Y-89465996D01*
X101062990Y-89556242D01*
X100986242Y-89632990D01*
X100954216Y-89654389D01*
X100895995Y-89693291D01*
X100795721Y-89734826D01*
X100689270Y-89756000D01*
X100580730Y-89756000D01*
X100474279Y-89734826D01*
X100374005Y-89693291D01*
X100315784Y-89654389D01*
X100283758Y-89632990D01*
X100207010Y-89556242D01*
X100146710Y-89465996D01*
X100146709Y-89465995D01*
X100115484Y-89390611D01*
X100103933Y-89369000D01*
X100088388Y-89350059D01*
X100069446Y-89334513D01*
X100047835Y-89322962D01*
X100024386Y-89315849D01*
X100000000Y-89313447D01*
X99975614Y-89315849D01*
X99952165Y-89322962D01*
X99930554Y-89334513D01*
X99911613Y-89350058D01*
X99896067Y-89369000D01*
X99884516Y-89390611D01*
X99853291Y-89465995D01*
X99853290Y-89465996D01*
X99792990Y-89556242D01*
X99716242Y-89632990D01*
X99684216Y-89654389D01*
X99625995Y-89693291D01*
X99525721Y-89734826D01*
X99419270Y-89756000D01*
X99310730Y-89756000D01*
X99204279Y-89734826D01*
X99104005Y-89693291D01*
X99045784Y-89654389D01*
X99013758Y-89632990D01*
X98937010Y-89556242D01*
X98876710Y-89465996D01*
X98876709Y-89465995D01*
X98845484Y-89390611D01*
X98833933Y-89369000D01*
X98818388Y-89350059D01*
X98799446Y-89334513D01*
X98777835Y-89322962D01*
X98754386Y-89315849D01*
X98730000Y-89313447D01*
X98705614Y-89315849D01*
X98682165Y-89322962D01*
X98660554Y-89334513D01*
X98641613Y-89350058D01*
X98626067Y-89369000D01*
X98614516Y-89390611D01*
X98583291Y-89465995D01*
X98583290Y-89465996D01*
X98522990Y-89556242D01*
X98446242Y-89632990D01*
X98414216Y-89654389D01*
X98355995Y-89693291D01*
X98255721Y-89734826D01*
X98149270Y-89756000D01*
X98040730Y-89756000D01*
X97934279Y-89734826D01*
X97834005Y-89693291D01*
X97775784Y-89654389D01*
X97743758Y-89632990D01*
X97667010Y-89556242D01*
X97606710Y-89465996D01*
X97606709Y-89465995D01*
X97565174Y-89365721D01*
X97544000Y-89259270D01*
X97544000Y-89150730D01*
X97565174Y-89044279D01*
X97606709Y-88944005D01*
X97667009Y-88853760D01*
X97667010Y-88853758D01*
X97743758Y-88777010D01*
X97834004Y-88716710D01*
X97834005Y-88716709D01*
X97934279Y-88675174D01*
X98040730Y-88654000D01*
X98149270Y-88654000D01*
X98255721Y-88675174D01*
G37*
M02*
